<?xml version="1.0" encoding="UTF-8"?>
<svg id="artwork" xmlns="http://www.w3.org/2000/svg" viewBox="0 0 155 46.84">
  <defs>
    <style>
      .cls-1 {
        fill: #4285f4;
      }

      .cls-2 {
        fill: #a6a6a6;
      }

      .cls-3 {
        stroke: #fff;
        stroke-miterlimit: 10;
        stroke-width: .2px;
      }

      .cls-3, .cls-4 {
        fill: #fff;
      }

      .cls-5 {
        fill: #34a853;
      }

      .cls-6 {
        fill: #fbbc04;
      }

      .cls-7 {
        fill: #ea4335;
      }
    </style>
  </defs>
  <g>
    <rect x="0" y=".46" width="155" height="45.93" rx="5.74" ry="5.74"/>
    <path class="cls-2" d="M149.26,1.38c2.66,0,4.82,2.16,4.82,4.82v34.44c0,2.66-2.16,4.82-4.82,4.82H5.74c-2.66,0-4.82-2.16-4.82-4.82V6.2C.92,3.54,3.08,1.38,5.74,1.38h143.52M149.26.46H5.74C2.58.46,0,3.04,0,6.2v34.44C0,43.8,2.58,46.39,5.74,46.39h143.52c3.16,0,5.74-2.58,5.74-5.74V6.2c0-3.16-2.58-5.74-5.74-5.74h0Z"/>
    <path class="cls-4" d="M78.23,25.43c-2.7,0-4.9,2.05-4.9,4.88s2.2,4.88,4.9,4.88,4.9-2.07,4.9-4.88-2.2-4.88-4.9-4.88ZM78.23,33.28c-1.48,0-2.76-1.22-2.76-2.96s1.28-2.96,2.76-2.96,2.76,1.2,2.76,2.96-1.28,2.96-2.76,2.96ZM67.54,25.43c-2.7,0-4.9,2.05-4.9,4.88s2.2,4.88,4.9,4.88,4.9-2.07,4.9-4.88-2.2-4.88-4.9-4.88ZM67.54,33.28c-1.48,0-2.76-1.22-2.76-2.96s1.28-2.96,2.76-2.96,2.76,1.2,2.76,2.96-1.28,2.96-2.76,2.96ZM54.82,26.93v2.07h4.96c-.15,1.17-.54,2.02-1.13,2.61-.72.72-1.85,1.52-3.83,1.52-3.05,0-5.44-2.46-5.44-5.51s2.39-5.51,5.44-5.51c1.65,0,2.85.65,3.74,1.48l1.46-1.46c-1.24-1.18-2.89-2.09-5.2-2.09-4.18,0-7.69,3.4-7.69,7.58s3.51,7.58,7.69,7.58c2.26,0,3.96-.74,5.29-2.13,1.37-1.37,1.79-3.29,1.79-4.85,0-.48-.04-.92-.11-1.29h-6.97ZM106.84,28.54c-.41-1.09-1.65-3.11-4.18-3.11s-4.61,1.98-4.61,4.88c0,2.74,2.07,4.88,4.85,4.88,2.24,0,3.53-1.37,4.07-2.16l-1.66-1.11c-.55.81-1.31,1.35-2.4,1.35s-1.87-.5-2.37-1.48l6.53-2.7-.22-.56ZM100.18,30.17c-.06-1.89,1.46-2.85,2.55-2.85.85,0,1.57.43,1.81,1.04l-4.37,1.81ZM94.87,34.9h2.15v-14.35h-2.15v14.35ZM91.36,26.52h-.07c-.48-.57-1.41-1.09-2.57-1.09-2.44,0-4.68,2.15-4.68,4.9s2.24,4.86,4.68,4.86c1.17,0,2.09-.52,2.57-1.11h.07v.7c0,1.87-1,2.87-2.61,2.87-1.31,0-2.13-.94-2.46-1.74l-1.87.78c.54,1.29,1.96,2.89,4.33,2.89,2.52,0,4.64-1.48,4.64-5.09v-8.77h-2.03v.8ZM88.9,33.28c-1.48,0-2.72-1.24-2.72-2.94s1.24-2.98,2.72-2.98,2.61,1.26,2.61,2.98-1.15,2.94-2.61,2.94ZM116.89,20.55h-5.13v14.35h2.14v-5.44h2.99c2.37,0,4.71-1.72,4.71-4.46s-2.33-4.46-4.71-4.46ZM116.94,27.47h-3.05v-4.92h3.05c1.6,0,2.51,1.33,2.51,2.46s-.91,2.46-2.51,2.46ZM130.18,25.41c-1.55,0-3.16.68-3.82,2.2l1.9.79c.41-.79,1.16-1.05,1.96-1.05,1.11,0,2.23.66,2.25,1.85v.15c-.39-.22-1.22-.55-2.23-.55-2.05,0-4.14,1.13-4.14,3.23,0,1.92,1.68,3.16,3.56,3.16,1.44,0,2.23-.65,2.73-1.4h.07v1.11h2.07v-5.5c0-2.55-1.9-3.97-4.36-3.97ZM129.93,33.27c-.7,0-1.68-.35-1.68-1.22,0-1.11,1.22-1.53,2.27-1.53.94,0,1.38.2,1.96.48-.17,1.33-1.31,2.27-2.55,2.27ZM142.08,25.72l-2.46,6.22h-.07l-2.55-6.22h-2.31l3.82,8.7-2.18,4.84h2.23l5.89-13.54h-2.38ZM122.78,34.9h2.14v-14.35h-2.14v14.35Z"/>
    <g>
      <path class="cls-7" d="M23.79,22.76l-12.22,12.97s0,0,0,0c.38,1.41,1.66,2.45,3.19,2.45.61,0,1.18-.17,1.68-.45l.04-.02,13.76-7.94-6.44-7.01Z"/>
      <path class="cls-6" d="M36.15,20.55h-.01s-5.94-3.45-5.94-3.45l-6.69,5.96,6.72,6.71,5.91-3.41c1.04-.56,1.74-1.65,1.74-2.91s-.69-2.34-1.72-2.9Z"/>
      <path class="cls-1" d="M11.56,11.11c-.07.27-.11.56-.11.85v22.93c0,.29.04.58.11.85l12.64-12.64-12.64-11.98Z"/>
      <path class="cls-5" d="M23.88,23.42l6.33-6.33-13.74-7.97c-.5-.3-1.08-.47-1.71-.47-1.53,0-2.82,1.04-3.19,2.45,0,0,0,0,0,0l12.31,12.31Z"/>
    </g>
  </g>
  <g>
    <path class="cls-3" d="M47.33,15.39v-6.89h.88v6.04h2.98v.85h-3.87Z"/>
    <path class="cls-3" d="M51.73,15.39l2.6-6.89h1l2.6,6.89h-.98l-.66-1.87h-2.9l-.67,1.87h-.98ZM53.68,12.69h2.29l-1.13-3.11h-.04l-1.13,3.11Z"/>
    <path class="cls-3" d="M58.93,15.39v-6.89h2.11c1.06,0,1.91.32,2.54.96.63.64.95,1.47.95,2.49s-.32,1.85-.95,2.49c-.64.64-1.48.96-2.54.96h-2.11ZM59.81,14.54h1.22c.79,0,1.43-.23,1.89-.68.47-.46.7-1.09.7-1.91s-.23-1.45-.7-1.91c-.47-.46-1.1-.69-1.89-.69h-1.22v5.2Z"/>
    <path class="cls-3" d="M65.77,15.39v-6.89h2.11c1.06,0,1.91.32,2.54.96.63.64.95,1.47.95,2.49s-.32,1.85-.95,2.49c-.64.64-1.48.96-2.54.96h-2.11ZM66.65,14.54h1.22c.79,0,1.43-.23,1.89-.68.47-.46.7-1.09.7-1.91s-.23-1.45-.7-1.91c-.47-.46-1.1-.69-1.89-.69h-1.22v5.2Z"/>
    <path class="cls-3" d="M71.74,15.39l2.6-6.89h1l2.6,6.89h-.98l-.66-1.87h-2.9l-.67,1.87h-.98ZM73.7,12.69h2.29l-1.13-3.11h-.04l-1.13,3.11Z"/>
    <path class="cls-3" d="M81.25,15.39v-6.89h1.08l3.35,5.36h.04l-.04-1.33v-4.03h.89v6.89h-.92l-3.5-5.62h-.04l.04,1.33v4.29h-.88Z"/>
    <path class="cls-3" d="M92.16,9.34h-3.14v2.18h2.83v.83h-2.83v2.18h3.14v.85h-4.02v-6.89h4.02v.85Z"/>
    <path class="cls-3" d="M93.55,15.39v-6.89h2.11c1.06,0,1.91.32,2.54.96.63.64.95,1.47.95,2.49s-.32,1.85-.95,2.49c-.64.64-1.48.96-2.54.96h-2.11ZM94.43,14.54h1.22c.79,0,1.43-.23,1.89-.68.47-.46.7-1.09.7-1.91s-.23-1.45-.7-1.91c-.47-.46-1.1-.69-1.89-.69h-1.22v5.2Z"/>
    <path class="cls-3" d="M103.58,15.39h-.88v-6.89h2.35c.58,0,1.09.19,1.51.58.43.39.64.88.64,1.47s-.21,1.08-.64,1.47c-.43.39-.93.58-1.51.58h-1.46v2.79ZM103.58,11.75h1.48c.37,0,.67-.12.89-.37.22-.25.34-.53.34-.83s-.11-.58-.34-.83c-.22-.25-.52-.38-.89-.38h-1.48v2.41Z"/>
    <path class="cls-3" d="M107.06,15.39l2.45-6.5c-.24-.2-.36-.46-.36-.77,0-.28.1-.52.29-.71.19-.19.43-.29.71-.29s.51.1.71.29c.2.2.29.43.29.71,0,.31-.12.56-.36.77l2.45,6.5h-.98l-.66-1.87h-2.9l-.67,1.87h-.98ZM109.02,12.69h2.29l-1.13-3.11h-.04l-1.13,3.11ZM110.16,8.5c.1,0,.19-.04.27-.12.08-.08.12-.17.12-.27s-.04-.19-.12-.27c-.08-.08-.17-.12-.27-.12s-.19.04-.27.12c-.08.08-.12.17-.12.27s.03.19.1.26c.07.07.15.11.25.12h.04Z"/>
  </g>
</svg>