<?xml version="1.0" encoding="UTF-8" standalone="no"?>
<!-- Created with Inkscape (http://www.inkscape.org/) -->

<svg
   version="1.1"
   id="svg2"
   width="397.37332"
   height="716.81335"
   viewBox="0 0 397.37332 716.81335"
   sodipodi:docname="AFC_Eskilstuna (1).eps"
   xmlns:inkscape="http://www.inkscape.org/namespaces/inkscape"
   xmlns:sodipodi="http://sodipodi.sourceforge.net/DTD/sodipodi-0.dtd"
   xmlns="http://www.w3.org/2000/svg"
   xmlns:svg="http://www.w3.org/2000/svg">
  <defs
     id="defs6" />
  <sodipodi:namedview
     id="namedview4"
     pagecolor="#ffffff"
     bordercolor="#000000"
     borderopacity="0.25"
     inkscape:showpageshadow="2"
     inkscape:pageopacity="0.0"
     inkscape:pagecheckerboard="0"
     inkscape:deskcolor="#d1d1d1" />
  <g
     id="g8"
     inkscape:groupmode="layer"
     inkscape:label="ink_ext_XXXXXX"
     transform="matrix(1.3333333,0,0,-1.3333333,0,716.81333)">
    <g
       id="g10"
       transform="scale(0.1)">
      <path
         d="m 1472.96,5355.07 156.98,-285.62 337.95,-39.24 -239.83,-233.3 63.22,-316.14 -316.14,150.44 -300.88,-152.62 52.32,318.32 -246.377,222.39 340.137,47.97 152.62,287.8"
         style="fill:#9f8c50;fill-opacity:1;fill-rule:nonzero;stroke:none"
         id="path12" />
      <path
         d="m 1326.77,5058.08 -323.98,-45.67 234.52,-211.71 -50,-304.27 287.66,145.94 302.58,-143.99 -60.38,301.92 228.64,222.42 -322.16,37.41 -150.53,273.89 -146.35,-275.94 z m -110.94,-264.92 -258.185,233.06 356.235,50.24 150.23,283.31 8.67,16.35 163.44,-297.32 353.72,-41.08 -251,-244.18 66.07,-330.37 -329.73,156.9 -314.1,-159.3 54.65,332.39 v 0"
         style="fill:#231f20;fill-opacity:1;fill-rule:nonzero;stroke:none"
         id="path14" />
      <path
         d="m 1472.96,4620.31 c 0,0 1497.19,-688.95 1497.19,-2323.95 0,0 50,-1415.001 -1495,-2285.0006 0,0 -1465.0016,759.9996 -1465.0016,2330.0006 0,0 -44.375,1457.9 1462.8116,2278.95"
         style="fill:#9f8c50;fill-opacity:1;fill-rule:nonzero;stroke:none"
         id="path16" />
      <path
         d="m 19.9883,2354.53 c 0,-8.54 0.1406,-12.83 0.1601,-13.16 v 0 C 19.793,973.691 1137.8,221.988 1417.3,55.6914 v 0 c 29.23,-17.4023 49.14,-28.3203 57.69,-32.9219 v 0 C 2917.06,837.59 2960.17,2128.04 2960.32,2281.13 v 0 c 0,9.9 -0.17,14.88 -0.17,15.24 v 0 c 0.29,1424.56 -1142.03,2128.67 -1427.61,2282.34 v 0 c -30.26,16.29 -50.71,26.31 -59.26,30.4 v 0 C 58.9336,3836.02 20.1055,2500.04 19.9883,2354.53 Z M 1470.54,2.5 C 1469.8,3.07031 0.75,764.371 0.144531,2341.06 v 0 c 0,0.1 -0.144531,4.72 -0.144531,13.47 v 0 c -0.117188,148.41 40.0898,1496.54 1468.16,2274.56 v 0 l 4.41,2.41 4.57,-2.09 c 0.79,-0.47 1502.46,-691.02 1502.99,-2332.69 v 0 c 0.02,-0.1 0.19,-5.45 0.19,-15.59 v 0 C 2980.48,2124.83 2935.46,822.211 1480.05,2.65234 v 0 L 1475.32,0 l -4.78,2.5 v 0"
         style="fill:#231f20;fill-opacity:1;fill-rule:nonzero;stroke:none"
         id="path18" />
      <path
         d="m 1474.47,4370.31 c 0,0 1365.7,-616.45 1365.7,-2079.4 0,0 45.6,-1266.1 -1363.71,-2044.551 0,0 -1336.323,680.02 -1336.323,2084.821 0,0 -40.4768,1304.48 1334.333,2039.13"
         style="fill:#9dc0e6;fill-opacity:1;fill-rule:nonzero;stroke:none"
         id="path20" />
      <path
         d="m 150.012,2342.97 c 0,-7.64 0.117,-11.47 0.133,-11.78 v 0 C 149.746,1108.19 1169.17,435.719 1424.07,286.969 v 0 c 26.25,-15.328 44.25,-25.039 52.24,-29.25 v 0 C 2791.1,986.641 2830.15,2140.52 2830.32,2277.26 v 0 c 0,8.86 -0.15,13.3 -0.15,13.65 v 0 c 0.31,1273.91 -1041.27,1903.76 -1301.68,2041.21 v 0 c -27.21,14.37 -45.71,23.27 -53.7,27.03 v 0 C 185.32,3667.6 150.145,2472.96 150.012,2342.97 Z M 1471.93,237.461 c -0.71,0.57 -1341.141,681.781 -1341.793,2093.419 v 0 c 0,0.09 -0.137,4.23 -0.137,12.09 v 0 c -0.145,132.94 36.711,1339.79 1339.76,2036.16 v 0 l 4.32,2.32 4.5,-2.02 c 0.77,-0.47 1371,-618.38 1371.57,-2088.17 v 0 c 0.02,-0.1 0.17,-4.9 0.17,-14 v 0 C 2850.5,2137.24 2809.25,971.109 1481.3,237.621 v 0 l -4.65,-2.57 -4.72,2.41 v 0"
         style="fill:#231f20;fill-opacity:1;fill-rule:nonzero;stroke:none"
         id="path22" />
      <path
         d="m 2755.15,2348.86 c 0,-697.26 -569.72,-1262.5 -1272.5,-1262.5 -702.787,0 -1272.505,565.24 -1272.505,1262.5 0,697.26 569.718,1262.5 1272.505,1262.5 702.78,0 1272.5,-565.24 1272.5,-1262.5"
         style="fill:#9f8c50;fill-opacity:1;fill-rule:nonzero;stroke:none"
         id="path24" />
      <path
         d="M 589.246,3235.15 C 360.586,3008.28 219.219,2695 219.219,2348.87 v 0 c 0,-346.14 141.367,-659.42 370.027,-886.29 v 0 c 228.652,-226.84 544.464,-367.14 893.404,-367.14 v 0 c 348.92,0 664.73,140.3 893.39,367.14 v 0 c 228.66,226.87 370.02,540.15 370.04,886.29 v 0 c -0.02,346.13 -141.38,659.41 -370.04,886.28 v 0 c -228.66,226.85 -544.47,367.14 -893.39,367.14 v 0 c -348.94,0 -664.752,-140.29 -893.404,-367.14 z M 576.453,1449.7 c -231.902,230.08 -375.39,548.05 -375.39,899.17 v 0 c 0,351.13 143.488,669.09 375.39,899.16 v 0 c 231.914,230.08 552.337,372.42 906.197,372.4 v 0 c 353.84,0.02 674.28,-142.32 906.17,-372.4 v 0 c 231.91,-230.07 375.39,-548.03 375.39,-899.16 v 0 c 0,-351.12 -143.48,-669.09 -375.39,-899.17 v 0 c -231.89,-230.07 -552.33,-372.4 -906.17,-372.4 v 0 c -353.86,0 -674.283,142.33 -906.197,372.4 v 0"
         style="fill:#231f20;fill-opacity:1;fill-rule:nonzero;stroke:none"
         id="path26" />
      <path
         d="m 2670.15,2348.86 c 0,-653.07 -532.79,-1182.5 -1190,-1182.5 -657.22,0 -1190.005,529.43 -1190.005,1182.5 0,653.08 532.785,1182.5 1190.005,1182.5 657.21,0 1190,-529.42 1190,-1182.5"
         style="fill:#ffffff;fill-opacity:1;fill-rule:nonzero;stroke:none"
         id="path28" />
      <path
         d="M 645.098,3178.56 C 431.395,2966.2 299.246,2672.91 299.246,2348.86 v 0 c 0,-324.03 132.149,-617.32 345.852,-829.7 v 0 c 213.718,-212.37 508.892,-343.69 835.052,-343.69 v 0 c 326.14,0 621.31,131.32 835.04,343.69 v 0 c 213.71,212.38 345.85,505.67 345.85,829.7 v 0 c 0,324.05 -132.14,617.34 -345.85,829.7 v 0 c -213.73,212.36 -508.9,343.71 -835.04,343.71 v 0 c -326.16,0 -621.334,-131.35 -835.052,-343.71 z m -364.063,-829.7 c 0,329.05 134.258,627.02 351.231,842.63 v 0 c 216.972,215.61 516.784,348.98 847.884,348.98 v 0 c 331.07,0 630.89,-133.37 847.87,-348.98 v 0 c 216.99,-215.61 351.23,-513.58 351.23,-842.63 v 0 c -0.02,-658.14 -536.92,-1191.58 -1199.1,-1191.58 v 0 c -662.212,0 -1199.095,533.44 -1199.115,1191.58 v 0"
         style="fill:#231f20;fill-opacity:1;fill-rule:nonzero;stroke:none"
         id="path30" />
      <path
         d="m 602.645,3135.77 48.539,51.71 46.129,42.19 46.054,38.5 50.141,36.48 45.547,30.39 46.09,27.34 V 1335.23 c 0,0 -145.957,77.39 -282.5,228.46 v 1572.08"
         style="fill:#9dc0e6;fill-opacity:1;fill-rule:nonzero;stroke:none"
         id="path32" />
      <path
         d="m 1195.14,3488.38 42.53,9.14 41.93,8.12 38.94,6.1 35.31,4.06 40.84,3.05 33.45,2.07 49.5,1.44 V 1175.21 c 0,0 -150.42,-1.01 -282.5,35.04 v 2278.13"
         style="fill:#9dc0e6;fill-opacity:1;fill-rule:nonzero;stroke:none"
         id="path34" />
      <path
         d="M 1797.65,3479.7 V 1218.59 c 0,0 137.59,30.35 294.43,126.12 v 864.83 h 560.79 c 0,0 19.76,151.26 -2.02,294.61 h -556.31 v 845.31 c 0,0 -122.31,82.1 -296.89,130.24"
         style="fill:#9dc0e6;fill-opacity:1;fill-rule:nonzero;stroke:none"
         id="path36" />
      <path
         d="m 1290.15,2276.36 190,612.5 190,-612.5 z m 420,1047.5 h -452.5 l -572.505,-1700 h 405.005 l 105,350 h 560 l 112.5,-350 h 410 l -567.5,1700"
         style="fill:#9f8c50;fill-opacity:1;fill-rule:nonzero;stroke:none"
         id="path38" />
      <path
         d="m 1656.56,2286.36 -176.42,568.77 -176.43,-568.77 h 352.85 z m -366.41,-20 v 10 l 9.54,-2.95 -9.54,2.95 v -10 h -13.6 l 203.57,656.32 203.59,-656.32 h -393.56 z m 472.26,-282.49 112.51,-349.99 h 388.84 L 1702.94,3313.87 H 1264.83 L 699.055,1633.88 h 383.655 l 105,349.99 h 574.7 z m 97.94,-369.99 -112.51,349.99 H 1202.59 L 1097.58,1613.88 H 671.223 l 579.227,1719.99 h 459.7 v -10.01 l -9.5,-3.16 9.5,3.16 v 10.01 h 7.18 l 574.19,-1719.99 h -431.17 v 0"
         style="fill:#231f20;fill-opacity:1;fill-rule:nonzero;stroke:none"
         id="path40" />
      <path
         d="m 1057.3,3869.4 -2.64,-155.88 86.35,30.63 z m 239.44,-218.54 -75.26,-26.7 -42.63,63.83 -125.43,-44.49 -1.38,-79.41 -74.02,-26.26 14.082,403.75 81.028,28.74 223.61,-319.46"
         style="fill:#231f20;fill-opacity:1;fill-rule:nonzero;stroke:none"
         id="path42" />
      <path
         d="m 1635.17,3974.55 h -164.91 v -83.38 h 149.63 v -76.16 h -149.63 v -172.79 h -93.45 v 406.92 h 258.36 v -74.59"
         style="fill:#231f20;fill-opacity:1;fill-rule:nonzero;stroke:none"
         id="path44" />
      <path
         d="m 1944.44,3591.48 c -46.4,-14.54 -79.37,-15.79 -122.36,-3.17 -112.82,33.15 -148.1,142.4 -126.7,237.33 22.12,98.16 106.23,171.22 217.33,138.57 40.44,-11.88 74.2,-33.3 97.87,-63.24 l -18.48,-81.99 c -26.82,32.04 -55.77,56.65 -91.54,67.15 -61.72,18.13 -115.61,-15.5 -130.32,-80.75 -14.83,-65.79 17.58,-125.35 78.04,-143.1 37.9,-11.13 66.84,-3.54 114.27,9.55 l -18.11,-80.35"
         style="fill:#231f20;fill-opacity:1;fill-rule:nonzero;stroke:none"
         id="path46" />
      <path
         d="M 1110.3,757.691 888.242,830 l 3.274,7.809 c 50.586,24.632 101.777,54.671 138.804,77.66 42.22,25.941 59.7,43.59 68.82,65.39 9.13,21.791 -2.82,46.691 -27.92,54.861 -23.65,7.71 -59.2,4.32 -95.392,-8.65 l 24.612,58.77 c 44.53,7.46 73.22,6.54 105.23,-3.91 65.98,-21.45 93.79,-64.61 72.95,-114.34 -14.8,-35.36 -65.97,-73.348 -152.71,-117.481 l 108.31,-35.277 -23.92,-57.141"
         style="fill:#231f20;fill-opacity:1;fill-rule:nonzero;stroke:none"
         id="path48" />
      <path
         d="m 1372.53,973.84 c -40.36,2.172 -49.08,-40.711 -54.17,-101.559 -5.28,-63.121 2.63,-98.222 37.86,-100.09 38.09,-2.039 47.9,40.321 53.3,104.801 5.13,61.317 -1.76,94.977 -36.99,96.848 z M 1352.5,714 c -89.79,4.789 -128.09,72.52 -120.26,166.082 8.77,104.898 67.85,156.028 145.71,151.868 86.96,-4.64 125.17,-73.29 117.54,-164.559 -7.6,-90.832 -52.06,-158.25 -142.99,-153.391"
         style="fill:#231f20;fill-opacity:1;fill-rule:nonzero;stroke:none"
         id="path50" />
      <path
         d="m 1669.76,976.18 c -39.95,-6.219 -39.61,-49.981 -32,-110.559 7.89,-62.859 22.91,-95.551 57.76,-90.101 37.69,5.882 38.53,49.359 30.47,113.562 -7.68,61.047 -21.39,92.559 -56.23,87.098 z m 34.18,-258.371 c -88.85,-13.887 -140.34,44.453 -152.04,137.601 -13.12,104.449 34.11,166.7 111.14,178.75 86.03,13.45 137.61,-45.801 149.04,-136.68 11.37,-90.429 -18.2,-165.601 -108.14,-179.671"
         style="fill:#231f20;fill-opacity:1;fill-rule:nonzero;stroke:none"
         id="path52" />
      <path
         d="m 1983.23,1045.29 -112.88,-32.19 -14.07,64.53 202.01,57.6 0.84,-3.81 -39.51,-355.408 -66.31,7.308 29.92,261.97"
         style="fill:#231f20;fill-opacity:1;fill-rule:nonzero;stroke:none"
         id="path54" />
    </g>
  </g>
</svg>
