<?xml version="1.0" encoding="UTF-8" standalone="no"?>
<!-- Created with Inkscape (http://www.inkscape.org/) -->

<svg
   version="1.1"
   id="svg2"
   width="847.96002"
   height="1066.6667"
   viewBox="0 0 847.96002 1066.6667"
   sodipodi:docname="AIK CMYK Color.eps"
   xmlns:inkscape="http://www.inkscape.org/namespaces/inkscape"
   xmlns:sodipodi="http://sodipodi.sourceforge.net/DTD/sodipodi-0.dtd"
   xmlns="http://www.w3.org/2000/svg"
   xmlns:svg="http://www.w3.org/2000/svg">
  <defs
     id="defs6" />
  <sodipodi:namedview
     id="namedview4"
     pagecolor="#ffffff"
     bordercolor="#000000"
     borderopacity="0.25"
     inkscape:showpageshadow="2"
     inkscape:pageopacity="0.0"
     inkscape:pagecheckerboard="0"
     inkscape:deskcolor="#d1d1d1" />
  <g
     id="g8"
     inkscape:groupmode="layer"
     inkscape:label="ink_ext_XXXXXX"
     transform="matrix(1.3333333,0,0,-1.3333333,0,1066.6667)">
    <g
       id="g10"
       transform="scale(0.1)">
      <path
         d="m 6116.06,4361.1 c -170.71,0 -248.57,116.4 -301.83,235.73 -140.94,-142.8 -231.84,-397.96 -231.84,-665.51 0,-624.03 402.83,-1225.64 685.71,-1570.43 -62.66,-72.96 -813.04,-1003.25 -1471.06,-1003.25 -150.77,0 -265.77,39.45 -351.32,120.28 3.23,-16.6 4.93,-33.74 4.93,-51.3 C 4450.65,898.891 3651.04,251.031 3179.82,0 c -466.59,248.559 -1270.8,897.941 -1270.8,1426.62 0,17.56 1.69,34.7 4.93,51.3 -85.56,-80.83 -200.59,-120.28 -351.33,-120.28 -658.018,0 -1408.374,930.23 -1471.0575,1003.25 282.2535,344.05 685.7105,945.92 685.7105,1570.43 0,267.55 -90.902,522.71 -231.835,665.51 C 492.141,4477.5 414.277,4361.1 243.605,4361.1 c -166.5386,0 -285.5777,126.88 -229.6089,268.06 l 328.3869,827.5 c 166.84,31.25 369.715,66.57 671.247,0.62 l 209.29,223.82 c -26.41,57.75 -156.71,353.7 -184.22,608.56 l 736.27,635.68 c 119.34,102.97 248.69,23.89 251.18,22.37 101.99,-60.3 136.27,-191.94 77,-294.25 -24.47,-45.04 -73.7,-87.52 -120.64,-123.82 101.54,-89.27 236.89,-147.68 348.38,-187.96 42.16,-15.24 87.07,13.78 90.73,58.49 25.22,308.22 -79.74,425.18 -90.79,479.69 -5.73,28.22 1.64,55.97 17.86,77.09 10.99,14.29 16.34,32.09 12.74,49.73 l -114.61,561.77 -90.73,119.87 -42.06,192.27 c 85.67,18.66 90.22,19.64 181.36,37.43 l 19.73,-101.21 c 12.98,2.44 25.99,4.78 38.94,7.1 l -17.17,101.66 c 101.6,17.23 81.7,14.08 182.82,28.99 l 15.12,-102.01 c 13.02,1.78 26.12,3.56 39.25,5.25 l -12.57,102.38 c 92.69,11.28 96.52,11.67 184.07,20.47 l 19.43,-195.86 -49.26,-142.04 13.05,-114.88 c 75.45,7.73 147.7,13.19 218.73,16.93 l -5.11,115.81 -70.85,132.58 -11.47,196.46 c 87.88,5.02 92.48,5.29 184.99,8.58 l 3.63,-103.05 c 13.25,0.36 26.44,0.68 39.6,0.92 l -1.04,103.14 c 93.55,1.01 91.53,1.01 185.1,0 l -1.03,-103.14 c 13.16,-0.24 26.38,-0.56 39.56,-0.92 l 3.66,103.05 c 92.45,-3.29 97.5,-3.56 184.96,-8.58 l -11.44,-196.46 -70.88,-132.58 -5.11,-115.81 c 70.47,-3.71 143.96,-9.29 218.74,-16.93 l 13.04,114.88 -49.23,142.04 19.43,195.86 c 87.67,-8.8 91.89,-9.24 184.04,-20.47 l -12.54,-102.38 c 13.1,-1.69 26.21,-3.47 39.25,-5.25 l 15.09,102.01 c 102.13,-15.06 81.52,-11.79 182.85,-28.99 l -17.17,-101.66 c 12.95,-2.32 25.96,-4.66 38.94,-7.1 l 19.73,101.21 c 90.64,-17.7 95.93,-18.83 181.34,-37.43 l -42.04,-192.27 -90.73,-119.87 -114.61,-561.77 c -3.59,-17.67 1.72,-35.47 12.72,-49.73 16.25,-21.12 23.61,-48.87 17.88,-77.09 -11.29,-55.82 -116.34,-170.58 -90.88,-479.78 3.66,-44.65 48.52,-73.67 90.67,-58.46 110.69,39.96 246.66,98.51 348.53,188.02 -46.97,36.3 -96.19,78.78 -120.67,123.82 -59.24,102.31 -24.96,233.95 77,294.25 2.08,1.22 131.84,80.63 251.21,-22.37 l 736.27,-635.68 c -14.5,-210.36 -155.4,-548.64 -184.24,-608.56 l 209.31,-223.82 c 301.68,65.98 504.53,30.6 671.22,-0.62 l 328.42,-827.5 c 56.05,-141.44 -63.34,-268.06 -229.61,-268.06"
         style="fill:#022e4d;fill-opacity:1;fill-rule:nonzero;stroke:none"
         id="path12" />
      <path
         d="m 2086.71,3105.47 314.21,-154.98 -179.37,-179.35 z m 2763.07,1706.35 c -52.88,-52.86 -138.59,-52.86 -191.47,0 -52.85,52.87 -52.85,138.58 0,191.46 52.88,52.85 138.59,52.85 191.47,0 52.85,-52.88 52.85,-138.59 0,-191.46 z m -419.53,-420.07 c -116.1,277.47 -392.77,256.7 -470.28,179.2 -51.01,-51.01 -49.07,-78.46 -10.51,-117.02 l 147.2,-147.23 c 61.02,-61.02 126.2,-66.22 173.28,-74.69 l -283.52,-283.53 c -8.5,47.3 -13.76,112.33 -74.72,173.29 l -455.15,455.15 c -61.08,61.05 -126.38,66.25 -173.29,74.68 l 283.54,283.53 c 8.49,-47.26 13.75,-112.32 74.71,-173.25 l 63.99,-64.02 c 39.06,-39.07 98.21,-15.04 120.4,7.16 123.88,123.85 109.21,293.12 -68.68,420.66 l 227.29,227.26 c 106.36,-196.99 143.88,-341.4 121.48,-502.03 131.99,18.33 271.26,-19.52 391.6,-89.78 43.28,-25.28 125.4,-64.76 237.37,-64.67 z m -663.79,-663.22 c -52.88,-52.88 -138.59,-52.88 -191.44,0 -52.88,52.85 -52.88,138.55 0,191.43 52.85,52.88 138.56,52.88 191.44,0 52.88,-52.88 52.88,-138.58 0,-191.43 z m -407.53,-407.56 c -8.49,47.29 -13.76,112.32 -74.71,173.28 l -455.15,455.15 c -60.96,60.96 -126.02,66.22 -173.31,74.72 l 283.55,283.53 c 8.49,-47.27 13.76,-112.33 74.71,-173.29 l 455.15,-455.15 c 60.96,-60.93 125.99,-66.19 173.29,-74.68 z m -219.96,-219.96 c -52.88,-52.84 -138.58,-52.84 -191.46,0 -52.85,52.88 -52.85,138.59 0,191.47 52.88,52.88 138.58,52.88 191.46,0 52.86,-52.88 52.86,-138.59 0,-191.47 z m -408.21,-408.18 c -23.08,66.16 -73.2,131.96 -133.03,160.87 L 2306.03,2562 c 25.71,-63.01 78.7,-125.93 147.23,-146.13 L 2140.59,2103.2 c 14.62,87.96 44.57,202.1 -14.37,348.47 l -236.3,586.87 c -25.79,63.48 -73.38,81.16 -117.31,103.05 l 271.26,271.29 733.03,-361.54 c 75.43,-37.19 156.56,-61.46 240.01,-71.83 z m 2520.87,2449.15 -458.8,490.63 64.85,124.35 c 46.73,89.69 120.44,283.56 156.35,422.12 L 4839.79,6329.49 668.676,2158.33 c 112.203,-107.21 222.894,-200.61 328.031,-276.31 177.913,-128.07 335.843,-205.36 471.043,-230.77 -6.69,76.38 19.22,154.99 76.91,212.65 104.18,104.19 273.66,104.19 377.88,0 17.41,-17.41 31.82,-36.69 43.41,-57.16 l 3351.37,3351.41 -65.69,-16.17"
         style="fill:#fddd04;fill-opacity:1;fill-rule:nonzero;stroke:none"
         id="path14" />
      <path
         d="m 6195.35,4774.44 -240.69,606.19 c -237.15,44.41 -427.7,32.94 -637.61,-18.63 l -283.74,303.4 c 66.63,127.89 180.56,435.96 197.02,588.54 l -598.34,516.68 c -183.98,-578.29 -890.49,-511.06 -1452.17,-841.56 -561.68,330.5 -1268.18,263.27 -1452.16,841.56 l -598.37,-516.68 c 16.48,-152.58 130.41,-460.65 197.08,-588.54 L 1042.63,5362 c -209.915,51.57 -400.489,63.04 -637.614,18.63 L 164.297,4774.44 c 394.394,136.48 699.226,-337.56 699.226,-843.13 0,-587.47 -353.937,-1196.92 -659.359,-1569.15 416.231,-484.59 935.876,-918.26 1358.466,-918.26 93.67,0 211.55,15.77 298.92,103.14 70.64,70.64 70.64,185.23 0,255.87 -70.68,70.68 -185.26,70.68 -255.9,0 -67.56,-67.55 -70.47,-175.18 -8.89,-246.27 -411.27,-22.7 -902.033,452.68 -1050.842,600.95 l 4228.432,4228.43 -72.72,62.8 L 478.809,2225.98 c -43.075,44.8 -86.18,91.29 -129.079,139.5 10.543,13.67 625.583,763.13 625.583,1565.83 0,489.11 -259.911,948.8 -637.348,977.59 l 147.738,371.97 c 269.149,40.22 448.524,-7.37 593.827,-43.05 l 382.57,409.08 c -134.75,248.94 -194.2,488.92 -212.41,563.28 l 435.81,376.31 c 68.72,-123.94 169.16,-224.62 304.03,-305.25 157.45,-94.14 341.19,-150.97 535.72,-211.19 383.4,-118.62 472.17,-163.51 654.57,-270.67 182.79,107.4 271.74,152.2 654.61,270.67 194.5,60.22 378.24,117.05 535.69,211.19 134.87,80.63 235.31,181.31 304.05,305.25 l 435.79,-376.31 c -18.19,-74.36 -77.63,-314.34 -212.41,-563.28 l 382.57,-409.08 c 83.24,20.44 172.16,44.21 293.04,54.19 L 2013.53,1732.36 c -18.71,-18.72 -18.71,-49.05 0,-67.77 18.69,-18.71 49.02,-18.71 67.74,0 L 5712.28,5295.6 c 52.91,-1.6 106.38,-6.44 161.69,-14.73 l 147.68,-371.97 c -377.79,-28.82 -637.32,-488.69 -637.32,-977.59 0,-802.58 614.65,-1551.65 625.59,-1565.83 -446.66,-501.88 -905.79,-827.71 -1247.04,-808.84 61.62,71.09 58.67,178.72 -8.88,246.27 -70.65,70.68 -185.23,70.68 -255.87,0 -70.68,-70.64 -70.68,-185.23 0,-255.87 87.31,-87.37 205.22,-103.14 298.89,-103.14 422.59,0 942.23,433.67 1358.46,918.26 -305.42,372.23 -659.33,981.68 -659.33,1569.15 0,505.57 304.8,979.61 699.2,843.13 z m -1757.2,1817.13 c 51.93,61.19 81.01,121.53 99.58,170.7 19.43,51.48 -8.74,109.65 -61.62,124.92 -28.52,8.23 -62.35,7.81 -98.71,-13.7 -61.74,-36.51 -80.63,-115.26 -45.67,-177.89 18.63,-33.33 66.37,-73.49 106.42,-104.03 z m -2497.58,-2033.93 -18.77,5.02 c -189.12,-623.51 -226.58,-779.65 -248.63,-930.38 l 17.59,-4.73 c 54.45,141.41 92.03,249.69 249.81,930.09 z m -131.63,51.75 -16.73,9.68 c -301.8,-477.4 -351.62,-578.11 -394.28,-684.46 l 15.36,-8.91 c 89.06,114.34 144.35,208.43 395.65,683.69 z m -113.72,84.13 -13.58,13.58 c -354.41,-322.57 -418.31,-395.68 -477.55,-478.83 l 12.36,-12.3 c 83.45,60.1 135.02,102.28 478.77,477.55 z m -88.12,110.66 -9.53,16.52 c -300.08,-151.39 -404.41,-208.82 -489.7,-283.95 l 8.49,-14.7 c 97.48,33.45 160.75,67.64 490.74,282.13 z m -509.84,9.57 c 86.21,1.84 147.62,16.81 453.46,120.16 l -4.9,18.3 c -334.01,-66.6 -373.99,-81.31 -452.84,-122.51 z m 110.54,277.14 v -15.21 c 61.91,-21.75 99.61,-22.85 322.15,-1.67 v 18.42 c -230.17,22.31 -259.58,18.96 -322.15,-1.54 z m 131.13,195.62 -3.47,-12.98 c 32.91,-30.69 55.82,-40.82 210.51,-58.7 l 4.57,17.08 c -145.86,63.57 -165.86,63.75 -211.61,54.6 z m 123.05,155.34 -6,-10.27 c 18.86,-49.23 70.17,-57.28 142.12,-84.88 l 8.47,14.62 c -87.28,77.24 -107.07,84.31 -144.59,80.53 z m 90.79,151.16 c 9.12,-40.64 21.89,-57.43 129.52,-132.98 l 12.21,12.18 c -76.7,110.37 -92.15,119.19 -132.82,129.71 z m 255.9,-36.1 C 1683.04,5819.44 1660.19,5850.3 1606.21,5905 l -13.84,-8.03 c 18,-72.51 40.1,-114.88 200.08,-349.45 z m 131.57,51.81 c -56.17,296.39 -69.69,330.62 -108.46,399.98 l -15.56,-4.16 c -0.81,-81.75 15.41,-140.3 105.87,-400.69 z m 139.1,402.57 h -15.93 c -19.64,-67.94 -23.05,-111.11 -1.42,-386.68 h 18.68 c 21.45,267.55 19.61,309.71 -1.33,386.68 z m 227.55,-78.96 -14.91,4.04 c -36.45,-55.53 -48.75,-93.34 -89.45,-327.68 l 17.92,-4.78 c 83.92,227.83 89.18,259.32 86.44,328.42 z m 27.22,-375.48 16.01,-9.24 c 140.01,198.03 152.79,226.85 167.79,293.54 l -13.37,7.73 c -49.11,-43.61 -70.67,-76.56 -170.43,-292.03 z m 113.51,-84.1 13.25,-13.25 c 217.22,186.15 243.63,217.07 283.65,285.46 l -11.29,11.32 c -66.13,-36.57 -104.6,-73.02 -285.61,-283.53 z m 97.44,-126.91 c 293.6,144.02 326.81,167.46 390.03,226.55 l -8.2,14.17 c -76.61,-21.54 -127.62,-47.59 -391.28,-224.38 z m 871.27,107.06 c -149.49,-20.2 -257.99,-47.11 -824.42,-220.16 l 4.99,-18.71 c 586.55,133.98 709.51,173.99 824.06,221.56 z M 3080.1,5074.91 v 16.48 c -87.32,21.51 -154.46,21.33 -467.39,1.28 v -18.89 c 316.05,-20.74 371.34,-20.38 467.39,1.13 z m -228.07,-208.43 3.74,13.96 c -42.18,32.97 -71.33,44.06 -259.05,71.39 l -4.66,-17.5 c 179.61,-72.16 205.75,-74.15 259.97,-67.85 z m -140.99,-145.27 c -19.94,36.18 -36.1,50.23 -166.34,98.77 l -8.7,-15.03 c 106.15,-88.35 124.65,-94.35 168.62,-94.85 z m -122.1,-164.85 9.15,9.12 c -10.49,41.03 -22.55,58.43 -137.69,141.02 l -12.3,-12.33 c 83.41,-117.16 99.19,-125.78 140.84,-137.81 z m -116.39,-182.73 12.56,7.28 c -7.1,54.93 -20.59,82.76 -135.11,237.87 l -15.74,-9.1 c 76.46,-176.43 92,-198.92 138.29,-236.05 z m -269.99,184.16 c 39.19,-230.09 50.21,-262.86 87.76,-321.68 l 14.82,3.98 c 4.16,65.45 -4.1,103.68 -84.69,322.48 z m -139.24,-402.63 h 15.93 c 19.75,68.33 22.99,112.14 1.45,386.67 h -18.71 c -22.05,-275.36 -18.84,-312.49 1.33,-386.67 z m 8.02,1229.27 c -166.51,0 -301.2,-134.73 -301.2,-301.21 0,-166.48 134.69,-301.2 301.2,-301.2 166.49,0 301.18,134.72 301.18,301.2 0,166.48 -134.69,301.21 -301.18,301.21 z m 3360.2,-2837.82 c 0,23.71 -19.76,42.66 -42.66,42.66 -23.71,0 -42.66,-18.95 -42.66,-42.66 0,-22.9 18.95,-42.66 42.66,-42.66 22.9,0 42.66,19.76 42.66,42.66 z m -1928.26,0 c 0,23.71 -19.75,42.66 -42.69,42.66 -23.71,0 -42.66,-18.95 -42.66,-42.66 0,-22.9 18.95,-42.66 42.66,-42.66 22.94,0 42.69,19.76 42.69,42.66 z M 5134.4,2311.89 v 497.87 l -134.33,-146.99 v -1.58 l 72.69,12.66 v -361.96 z m -317.69,252.1 c 0,60.87 -10.54,99.88 -26.88,128.04 -19.91,34.34 -51.37,51.36 -94.83,51.36 -41.09,0 -72.7,-17.4 -92.45,-49.79 -16.61,-29.23 -26.08,-71.12 -26.08,-128.03 0,-114.59 42.69,-174.66 118.53,-174.66 h 2.38 c 76.64,0 119.33,59.3 119.33,173.08 z m -30.03,-204.68 c -32.41,-17.38 -61.65,-23.71 -94.03,-23.71 -116.18,0 -181.78,77.45 -181.78,230.77 0,151.74 64.79,229.16 185.7,229.16 66.4,0 109.86,-23.68 141.47,-67.17 26.89,-37.13 44.27,-86.12 44.27,-191.22 0,-265.53 -132,-315.32 -212.59,-350.11 l -9.48,15.81 c 71.12,56.89 113.01,113.78 126.44,156.47 z m -482.07,136.74 c 0,75.84 -53.74,137.49 -131.19,137.49 -77.44,0 -133.56,-61.65 -133.56,-137.49 0,-75.1 56.12,-138.32 133.56,-138.32 77.45,0 131.19,63.22 131.19,138.32 z m -222.86,290 c 0,-51.36 37.93,-94.02 91.67,-94.02 53.74,0 90.11,41.89 90.11,94.02 0,52.17 -37.17,93.26 -90.11,93.26 -52.94,0 -91.67,-41.09 -91.67,-93.26 z m 287.65,-290.8 c 0,-111.44 -82.2,-197.59 -195.98,-197.59 -113.81,0 -199.16,85.35 -199.16,197.59 0,75.87 41.09,131.96 101.16,172.27 -32.41,26.89 -58.47,68.75 -58.47,121.71 0,81.4 67.17,148.57 154.9,148.57 87.73,0 156.47,-66.37 156.47,-150.17 0,-53.71 -30.04,-93.22 -61.64,-120.11 57.69,-30.81 102.72,-92.48 102.72,-172.27 z m -564.26,-183.36 v 497.87 L 3670.8,2662.77 v -1.58 l 72.72,12.66 v -361.96 z m 898.36,2646.2 c -27.88,-27.88 -27.9,-73.22 0,-101.09 27.86,-27.87 73.22,-27.87 101.09,0 27.87,27.87 27.87,73.23 0,101.09 -27.87,27.9 -73.21,27.89 -101.09,0 z m -588.72,-170.46 -83.72,-11.64 11.65,83.74 c 17.17,123.23 -4.04,236.33 -75.19,385.88 l -115.32,-115.3 c 70.67,-66.46 111.01,-142.89 117.64,-224.02 7.22,-88.03 -27.87,-175.58 -98.75,-246.46 -45.66,-45.66 -144.32,-73.55 -210.78,-7.13 l -63.99,63.99 c -27.27,27.27 -48.81,59 -63.84,93.76 l -124.53,-124.51 c 34.76,-15.06 66.51,-36.6 93.78,-63.87 l 455.15,-455.15 c 27.25,-27.27 48.81,-59 63.85,-93.78 l 124.53,124.53 c -34.76,15.06 -66.48,36.6 -93.79,63.87 l -147.2,147.2 c -98.42,98.42 -16.4,180.42 10.55,207.36 57.9,57.9 167.85,82.8 273.63,61.97 65.39,-12.89 176.5,-53.35 257.99,-179.79 l 152.04,152.04 c -46.14,12.36 -90.96,31.05 -133.12,55.65 -116.28,67.91 -240.78,96.9 -350.58,81.66 z m -494.6,-912.85 c -27.86,-27.88 -27.87,-73.23 0,-101.1 27.86,-27.86 73.23,-27.86 101.09,0 27.87,27.87 27.87,73.23 0,101.1 -27.86,27.89 -73.22,27.89 -101.09,0 z m -651.34,214.43 c -27.27,27.27 -48.81,59 -63.87,93.76 l -124.51,-124.54 c 34.76,-15.03 66.52,-36.57 93.76,-63.84 l 455.15,-455.15 c 27.3,-27.27 48.81,-59 63.87,-93.79 l 124.54,124.54 c -34.79,15.03 -66.52,36.6 -93.79,63.84 z m 23.86,-841.92 c -27.89,-27.88 -27.9,-73.22 0,-101.09 27.86,-27.87 73.23,-27.87 101.09,0 27.87,27.87 27.87,73.23 0,101.09 -27.86,27.9 -73.21,27.89 -101.09,0 z m -483.55,-278.92 -473.16,233.35 -40.64,-40.67 203.02,-503.45 z m 239.5,25.7 c 44.86,-22.14 91.35,-39.99 139.15,-53.48 l -140.04,-140.3 c -59.33,88.4 -123.91,111.75 -163.1,130.65 l -353.82,-353.79 c 16.08,-39.33 41.59,-115.77 117.11,-176.23 l -122.6,-122.6 c -1.07,67.35 -14.47,134.19 -39.87,197.2 l -236.38,587.05 c -15.15,37.32 -39.93,69.55 -71.54,93.64 l 179.11,179.11 z m 916.18,3230.52 5.08,36.63 c -10.52,1.66 -21.03,3.3 -31.58,4.84 l -7.25,-52.28 c 11.26,3.62 22.52,7.24 33.75,10.81 z m -69.69,-22.58 8.17,69.04 c -10.52,1.43 -21.1,2.79 -31.67,4.13 l -10.01,-84.4 c 11.16,3.8 22.34,7.52 33.51,11.23 z m -68.9,-23.44 9.99,100.89 c -10.61,1.19 -21.19,2.35 -31.79,3.44 l -11.47,-116.15 c 11.08,4.01 22.16,7.96 33.27,11.82 z m -68.06,-24.63 10.49,132.47 c -10.61,1.01 -21.21,1.9 -31.82,2.79 l -11.73,-147.88 c 11.02,4.28 22.04,8.5 33.06,12.62 z m -67.16,-26.2 9.77,164.23 c -10.64,0.74 -21.27,1.42 -31.91,2.08 l -10.66,-179.94 c 10.9,4.6 21.86,9.18 32.8,13.63 z m -66.19,-28.13 7.75,196.4 c -10.61,0.53 -21.24,0.98 -31.91,1.39 l -8.4,-212.56 c 10.84,5.03 21.68,9.96 32.56,14.77 z m -65.12,-30.27 4.54,229.25 c -10.66,0.3 -21.3,0.54 -31.93,0.71 l -4.88,-246.03 c 10.73,5.46 21.48,10.84 32.27,16.07 z m -95.87,230.38 v -263 c 5.32,-2.85 10.67,-5.62 15.98,-8.53 5.32,2.91 10.64,5.68 15.99,8.53 v 263 z m -63.9,-230.35 c 10.78,-5.26 21.51,-10.64 32.26,-16.1 l -4.87,246.03 c -10.67,-0.17 -21.3,-0.41 -31.93,-0.68 z m -65.12,30.24 c 10.87,-4.81 21.72,-9.74 32.56,-14.77 l -8.44,212.56 c -10.63,-0.41 -21.27,-0.86 -31.9,-1.39 z m -66.22,28.13 c 10.96,-4.45 21.9,-9 32.83,-13.63 l -10.69,179.91 c -10.64,-0.63 -21.25,-1.31 -31.88,-2.05 z m -67.17,26.2 c 11.03,-4.12 22.05,-8.34 33.07,-12.62 l -11.71,147.88 c -10.63,-0.89 -21.24,-1.81 -31.84,-2.79 z m -68.03,24.66 c 11.08,-3.89 22.17,-7.84 33.28,-11.85 l -11.5,116.15 c -10.61,-1.09 -21.18,-2.25 -31.76,-3.47 z m -68.89,23.41 c 11.14,-3.71 22.34,-7.43 33.51,-11.23 l -10.04,84.4 c -10.58,-1.34 -21.12,-2.7 -31.67,-4.13 z m -69.72,22.58 c 11.26,-3.57 22.49,-7.19 33.75,-10.81 l -7.25,52.28 c -10.55,-1.54 -21.04,-3.18 -31.58,-4.84 z M 6265.64,4597.42 c -19.9,50.31 -57.96,81.48 -98.51,95.51 -100.15,34.69 -195.63,21.65 -284.04,-38.36 51.67,-122.33 105.59,-207.39 232.94,-207.39 91.83,0 185.45,59.64 149.61,150.24 z M 4183.46,1607.55 c -99.93,0 -180.94,-81.01 -180.94,-180.94 0,-109.39 98.03,-197.2 210.86,-178.43 C 4079.46,914.121 3623.8,489.602 3179.82,227.609 2735.84,489.602 2280.19,914.121 2146.3,1248.18 c 120.02,-19.99 210.83,76.14 210.83,178.43 0,99.93 -81.01,180.94 -180.95,180.94 -99.93,0 -180.95,-81.01 -180.95,-180.94 0,-439.797 664.59,-1036.321 1184.59,-1328.0514 519.77,291.6134 1184.3,887.7504 1184.56,1327.4814 0.09,99.94 -80.98,181.51 -180.92,181.51 z M 476.551,4654.57 c -88.41,60.01 -183.887,73.05 -284.035,38.36 -73.047,-25.26 -95.6879,-88.36 -98.5082,-95.51 -35.8594,-90.61 57.7812,-150.24 149.6052,-150.24 127.36,0 181.278,85.06 232.938,207.39 z m 1444.949,1937 c 40.04,30.54 87.79,70.73 106.38,104.06 35,62.6 16.1,141.35 -45.66,177.86 -36.36,21.51 -70.2,21.93 -98.69,13.7 -52.88,-15.27 -81.07,-73.44 -61.61,-124.92 18.57,-49.17 47.65,-109.51 99.58,-170.7 z m 1591.76,589.04 c 26.14,-2.14 52.23,-4.52 78.25,-7.19 l 6.51,62.98 c -26.44,2.67 -52.94,5.08 -79.53,7.28 z m -40.04,130 c 20.23,-1.43 40.46,-2.97 60.63,-4.66 l 5.43,63.03 c -20.49,1.73 -41.02,3.33 -61.61,4.76 z m -17.95,-252.54 c 19.01,-1.31 38,-2.77 56.95,-4.37 l 5.41,63.07 c -19.25,1.6 -38.53,3.09 -57.87,4.42 z m -59.71,130.5 c 26.2,-1.39 52.37,-3 78.49,-4.9 l 4.63,63.13 c -26.53,1.9 -53.09,3.56 -79.7,4.99 z m 228.48,299.66 c -28.1,2.88 -56.26,5.41 -84.52,7.75 l -5.26,-63.09 c 27.84,-2.29 55.59,-4.79 83.28,-7.61 z m -214.87,-46.82 c 27.86,-1.48 55.67,-3.24 83.42,-5.26 l 4.63,63.13 c -28.13,2.05 -56.36,3.84 -84.64,5.32 z m -4.04,-75.22 -2.14,-39.45 c 13.54,-0.74 40.61,-2.32 40.61,-2.32 l 2.49,39.43 c -13.63,0.86 -27.3,1.63 -40.96,2.34 z m -15.75,-292.29 c 12.74,-0.69 38.15,-2.26 38.15,-2.26 l 2.49,39.45 c -12.83,0.8 -38.53,2.29 -38.53,2.29 z m 190.34,-14.74 4.04,39.3 c -12.75,1.31 -25.55,2.53 -38.32,3.69 l -3.69,-39.36 c 12.66,-1.16 25.31,-2.35 37.97,-3.63 z m 30.06,291.17 c -13.58,1.39 -27.21,2.67 -40.85,3.95 l -3.68,-39.36 c 13.52,-1.25 27,-2.53 40.49,-3.9 z m -784.4,82.56 -5.26,63.09 c -28.25,-2.34 -56.44,-4.87 -84.51,-7.75 l 6.5,-62.95 c 27.66,2.82 55.44,5.32 83.27,7.61 z m -57.25,-259.47 c 26.03,2.67 52.11,5.02 78.26,7.19 l -5.26,63.07 c -26.56,-2.17 -53.06,-4.58 -79.5,-7.28 z m 52.23,195.56 5.41,-63.06 c 20.17,1.72 40.43,3.26 60.66,4.69 l -4.48,63.13 c -20.56,-1.43 -41.09,-3.03 -61.59,-4.76 z m -70.52,-18.65 4.06,-39.31 c 13.46,1.37 26.98,2.65 40.5,3.9 l -3.69,39.36 c -13.63,-1.28 -27.27,-2.56 -40.87,-3.95 z m 204.68,15.86 c -13.66,-0.74 -27.33,-1.48 -40.99,-2.34 l 2.52,-39.43 c 0,0 27.06,1.58 40.61,2.32 z m -107.1,-312.49 c 18.96,1.6 37.94,3.06 56.92,4.37 l -4.45,63.12 c -19.34,-1.33 -38.62,-2.82 -57.9,-4.42 z m 103.06,387.71 -3.42,63.22 c -28.28,-1.51 -56.5,-3.3 -84.63,-5.35 l 4.63,-63.13 c 27.72,2.02 55.53,3.78 83.42,5.26 z m -64.88,-257.74 c 26.08,1.87 52.29,3.51 78.49,4.9 l -3.42,63.22 c -26.62,-1.43 -53.21,-3.09 -79.7,-4.99 z m -105.67,-124.51 c 12.63,1.28 25.31,2.47 37.97,3.66 l -3.66,39.33 c -12.8,-1.19 -25.61,-2.38 -38.35,-3.69 z m 190.34,14.74 -2.14,39.48 c 0,0 -25.7,-1.49 -38.53,-2.29 l 2.52,-39.45 c 12.72,0.8 25.4,1.57 38.15,2.26 z m 903.91,-714.23 c 5.26,25.93 -11.5,51.22 -37.43,56.47 -214.91,43.61 -435.9,65.72 -656.93,65.72 -221.02,0 -442.05,-22.11 -656.92,-65.72 -25.94,-5.25 -42.69,-30.54 -37.43,-56.47 5.26,-25.94 30.51,-42.72 56.5,-37.43 208.61,42.33 423.22,63.81 637.85,63.81 214.61,0 429.25,-21.48 637.86,-63.81 25.99,-5.29 51.24,11.49 56.5,37.43 z m 92.39,532.81 c 3.5,17.28 -7.67,34.16 -24.95,37.66 -249.19,50.57 -505.51,76.2 -761.8,76.2 -256.28,0 -512.6,-25.63 -761.79,-76.2 -17.29,-3.5 -28.46,-20.38 -24.95,-37.66 3.5,-17.3 20.38,-28.44 37.64,-24.93 245.02,49.7 497.06,74.92 749.1,74.92 252.04,0 504.08,-25.22 749.08,-74.92 17.26,-3.51 34.16,7.63 37.67,24.93 z m -50.5,-87.82 c -56.66,11.47 -113.72,21.69 -171.27,30.54 l -9.98,-65.83 c 56.42,-8.68 112.38,-18.69 167.94,-29.95 z m -820.14,-60.52 1.45,-66.57 c 57.04,1.34 107.84,1.34 164.88,0 l 1.46,66.57 c -58.2,1.34 -109.59,1.34 -167.79,0 z m 126.52,67.32 c 57.34,-0.68 114.38,-2.7 171.06,-6.03 l 3.65,66.49 c -57.66,3.35 -115.65,5.43 -173.99,6.09 z m -2.88,-266.3 c 53.42,-0.59 106.47,-2.52 159.23,-5.61 l 3.69,66.48 c -53.74,3.15 -107.81,5.08 -162.18,5.71 z m 125.28,129.5 c 55.37,-2.59 110.42,-6.45 165.11,-11.59 l 5.97,66.31 c -55.7,5.23 -111.75,9.18 -168.17,11.79 z m 134.28,124.77 c 57.33,-4.69 114.25,-10.69 170.82,-18.03 l 8.34,66.04 c -57.57,7.45 -115.56,13.57 -173.96,18.36 z m -20.8,-265.5 c 53.06,-4.36 105.82,-9.95 158.16,-16.75 l 8.35,66.04 c -53.38,6.95 -107.15,12.65 -161.31,17.11 z m 133.9,120.44 c 54.8,-6.48 109.23,-14.17 163.21,-23.14 l 10.81,65.68 c -55.08,9.15 -110.57,16.99 -166.48,23.59 z m 102.66,-148.33 c 51.93,-8.02 103.47,-17.23 154.6,-27.6 l 13.31,65.24 c -52.23,10.6 -104.87,20.02 -157.92,28.19 z m 194.53,168.11 c -13.58,2.8 -27.21,5.47 -40.85,8.08 l -12.48,-65.41 c 13.37,-2.56 26.71,-5.2 40.02,-7.9 z m -1445.84,130.51 13.31,-65.24 c 55.55,11.26 111.52,21.27 167.94,29.95 l -9.99,65.83 c -57.54,-8.85 -114.61,-19.07 -171.26,-30.54 z m 518.9,67.26 3.66,-66.49 c 56.68,3.3 113.72,5.35 171.05,6.03 l -0.71,66.55 c -58.35,-0.66 -116.33,-2.74 -174,-6.09 z m 18.36,-332.37 c 52.76,3.09 105.85,5.02 159.21,5.61 l -0.69,66.58 c -54.39,-0.63 -108.46,-2.56 -162.2,-5.71 z m -131.16,123.52 c 54.69,5.14 109.74,9 165.12,11.59 l -2.91,66.51 c -56.42,-2.61 -112.51,-6.56 -168.18,-11.79 z m -148.33,184.37 8.35,-66.04 c 56.53,7.34 113.48,13.34 170.82,18.03 l -5.2,66.37 c -58.4,-4.79 -116.39,-10.88 -173.97,-18.36 z m 41.8,-330.26 c 52.35,6.8 105.08,12.39 158.17,16.78 l -5.2,66.37 c -54.16,-4.46 -107.93,-10.16 -161.32,-17.11 z m -138.94,114.05 c 53.98,8.97 108.4,16.66 163.21,23.14 l -7.54,66.13 c -55.91,-6.6 -111.44,-14.44 -166.48,-23.59 z m -94.05,-152.79 c 51.12,10.37 102.66,19.58 154.59,27.6 l -9.98,65.83 c -53.06,-8.17 -105.7,-17.59 -157.92,-28.19 z m 13.39,138.38 -12.47,65.41 c -13.64,-2.61 -27.28,-5.31 -40.85,-8.08 l 13.31,-65.23 c 13.31,2.7 26.64,5.34 40.01,7.9 z m 1311.83,719.04 c -21.57,3.41 -41.89,-11.35 -45.3,-32.95 l -43.41,-274.11 c 28.85,-4.25 50.54,-7.69 78.25,-12.39 l 43.41,274.12 c 3.41,21.6 -11.35,41.91 -32.95,45.33 z m -24.03,212.53 c -17.86,2.55 -35.86,5.05 -53.77,7.4 l -6.87,-53.27 c 17.62,-2.32 35.27,-4.75 52.76,-7.25 z m 103.65,-70.8 c 17.41,-3.02 34.93,-6.14 52.4,-9.38 l 9.95,52.76 c -17.79,3.33 -35.67,6.53 -53.44,9.6 z m 77.86,-46.66 21.81,115.53 c -52.82,9.98 -69.67,12.95 -116.93,20.97 l -19.55,-115.98 c 51.78,-8.73 67.88,-11.7 114.67,-20.52 z m -145.24,144.4 c -52.73,7.79 -69.78,10.1 -117.67,16.22 l -14.97,-116.63 c 52.58,-6.74 68.65,-9 115.41,-15.89 z m 227.47,10.13 -120.97,-593.11 c -32.41,6.6 -65,12.74 -97.74,18.57 l 43.5,274.62 c 6.15,38.97 -20.53,75.69 -59.48,81.87 -39.03,6.18 -75.69,-20.53 -81.87,-59.5 l -43.49,-274.59 c -32.95,4.57 -65.84,8.79 -98.69,12.54 l 68.18,601.46 c 133.47,-15.25 258.93,-35.09 390.56,-61.86 z m 122.49,264.52 c -33.81,7.37 -67.77,14.35 -101.87,21 l -19.67,-101.03 c -38.77,7.57 -77.74,14.68 -116.93,21.3 l 17.14,101.51 c -48.69,8.26 -53.91,9.09 -102.75,16.31 l -15.1,-101.87 c -39.3,5.8 -78.54,11.09 -117.76,15.84 l 12.51,102.22 c -34.49,4.19 -68.95,8.02 -103.38,11.47 l -14.59,-147.09 c 177.65,-17.79 351.47,-45 530.82,-84.07 z M 2524.27,7335.86 c -21.6,-3.41 -36.37,-23.73 -32.95,-45.33 l 43.4,-274.12 c 27.9,4.73 49.79,8.21 78.25,12.39 l -43.4,274.11 c -3.42,21.6 -23.71,36.37 -45.3,32.95 z m 24.03,212.53 7.87,-53.15 c 17.5,2.56 35.15,4.96 52.76,7.28 l -6.86,53.27 c -17.94,-2.35 -35.92,-4.85 -53.77,-7.4 z m -166.01,-27.42 9.96,-52.76 c 17.43,3.24 34.99,6.36 52.4,9.38 l -8.91,52.98 c -17.77,-3.07 -35.65,-6.27 -53.45,-9.6 z m 262.38,-46.05 -14.97,116.63 c -53.12,-6.8 -70.14,-9.17 -117.7,-16.19 l 17.26,-116.33 c 47.26,6.95 63.51,9.27 115.41,15.89 z m -163.24,-23.47 -19.52,115.95 c -47.35,-7.99 -64.2,-10.96 -116.93,-20.94 l 21.78,-115.53 c 51.54,9.74 67.7,12.59 114.67,20.52 z m 163.18,-418.13 -43.49,274.61 c -6.18,38.95 -42.84,65.66 -81.88,59.48 -38.94,-6.18 -65.65,-42.9 -59.47,-81.87 l 43.49,-274.62 c -32.74,-5.83 -65.32,-11.97 -97.74,-18.57 l -120.96,593.11 c 174.77,35.5 310.5,52.74 390.53,61.86 l 68.21,-601.46 c -32.86,-3.75 -65.74,-7.97 -98.69,-12.54 z m 79.86,756.32 -14.59,147.09 c -34.43,-3.42 -68.89,-7.28 -103.38,-11.5 l 12.5,-102.19 c -39.21,-4.79 -78.45,-10.04 -117.76,-15.84 l -15.09,101.87 c -48.84,-7.22 -54.1,-8.05 -102.76,-16.31 l 17.14,-101.51 c -39.18,-6.62 -78.16,-13.73 -116.93,-21.3 l -19.66,101.06 c -34.11,-6.68 -68.06,-13.66 -101.87,-21.03 l 31.58,-144.41 c 235.05,51.16 423.3,73.32 530.82,84.07 z m 415.72,-441.81 V 7070.3 c 28.52,0.3 50.74,0.3 79.23,0 v 277.53 c 0,21.84 -17.73,39.63 -39.6,39.63 -21.83,0 -39.63,-17.79 -39.63,-39.63 z m 96.08,192.06 c 17.7,-0.26 35.5,-0.62 53.23,-1.1 l 1.58,53.69 c -18.09,0.5 -36.25,0.86 -54.28,1.09 z m -167.7,52.61 1.57,-53.68 c 17.74,0.45 35.53,0.81 53.24,1.07 l -0.54,53.72 c -18.03,-0.27 -36.18,-0.63 -54.27,-1.11 z m 251.92,-86.53 3.47,117.52 c -53.74,1.6 -70.91,1.9 -118.8,2.4 l -1.12,-117.58 c 52.84,-0.56 68.86,-0.95 116.45,-2.34 z m -164.88,2.34 -1.16,117.58 c -48.57,-0.5 -65.53,-0.8 -118.77,-2.4 l 3.48,-117.52 c 52.94,1.57 68.74,1.84 116.45,2.34 z m 95.78,-438.51 v 278.03 c 0,39.46 -32.11,71.57 -71.57,71.57 -39.45,0 -71.56,-32.11 -71.56,-71.57 V 7069.8 c -33.25,-0.62 -66.4,-1.63 -99.43,-3.06 l -26.74,604.73 c 134.22,5.85 261.25,5.85 395.47,0 l -26.74,-604.73 c -33.03,1.43 -66.19,2.44 -99.43,3.06 z m -340.27,734.52 -8.62,147.59 c 34.55,1.96 69.19,3.56 103.92,4.78 l 3.62,-102.88 c 39.49,1.43 79.09,2.35 118.81,2.77 l -1.05,102.96 c 49.44,0.54 54.61,0.54 104.04,0 l -1.04,-102.96 c 39.72,-0.42 79.32,-1.34 118.8,-2.77 l 3.63,102.88 c 34.76,-1.22 69.39,-2.82 103.91,-4.78 l -8.61,-147.59 c -183.24,10.52 -359.2,10.22 -537.41,0"
         style="fill:#a48947;fill-opacity:1;fill-rule:nonzero;stroke:none"
         id="path16" />
    </g>
  </g>
</svg>
