<?xml version="1.0" encoding="UTF-8" standalone="no"?>
<!-- Created with Inkscape (http://www.inkscape.org/) -->

<svg
   version="1.1"
   id="svg2"
   width="552.09332"
   height="708.82666"
   viewBox="0 0 552.09332 708.82666"
   sodipodi:docname="BK Häcken.eps"
   xmlns:inkscape="http://www.inkscape.org/namespaces/inkscape"
   xmlns:sodipodi="http://sodipodi.sourceforge.net/DTD/sodipodi-0.dtd"
   xmlns="http://www.w3.org/2000/svg"
   xmlns:svg="http://www.w3.org/2000/svg">
  <defs
     id="defs6" />
  <sodipodi:namedview
     id="namedview4"
     pagecolor="#ffffff"
     bordercolor="#000000"
     borderopacity="0.25"
     inkscape:showpageshadow="2"
     inkscape:pageopacity="0.0"
     inkscape:pagecheckerboard="0"
     inkscape:deskcolor="#d1d1d1" />
  <g
     id="g8"
     inkscape:groupmode="layer"
     inkscape:label="ink_ext_XXXXXX"
     transform="matrix(1.3333333,0,0,-1.3333333,0,708.82667)">
    <g
       id="g10"
       transform="scale(0.1)">
      <path
         d="m 4106.7,4264.6 c -2.4,-2.9 -247.7,-307.1 -248.8,-737.7 -1.1,-428 87.3,-862.7 151.8,-1180.2 27.5,-135.1 51.41,-252.1 64,-335.9 C 4116,1729 4112.5,1489 3965.5,1294.9 3825.1,1109.6 3552.6,937.902 3119.7,706.602 2605.4,431.902 2082.1,14.1992 2070.4,0 l -0.1,0.101563 C 2057,15.5 1534.7,432.199 1021.2,706.602 588.398,937.801 315.898,1109.6 175.5,1294.9 28.3984,1488.9 24.8984,1729 67.3008,2010.7 c 12.5,83.9 36.3982,200.9 63.8982,336 64.5,317.4 152.899,752.2 151.801,1180.1 -1.098,430.6 -246.5,734.8 -248.9023,737.8 L 0,4305.7 l 796.102,1010.5 47.394,-23.8 c 3.703,-1.8 364.704,-179.8 639.404,-226.4 287.3,-48.8 562.6,-51.5 582.6,-51.6 v 0.1 c 0,0 293.3,1.5 587.8,51.5 274.7,46.6 639.3,224.7 642.9,226.5 l 48.1,23.7 796.4,-1010.4 -34,-41.2"
         style="fill:#ffffff;fill-opacity:1;fill-rule:nonzero;stroke:none"
         id="path12" />
      <path
         d="m 3054.5,843.102 c -426.8,-228 -842.1,-527.903 -984,-633.301 C 1928.4,315.199 1513.2,615.102 1086.4,843.102 849.5,969.699 670.797,1071 537.598,1163.6 L 3833.2,4043.4 c -57.3,-134.4 -107.1,-309.6 -107.6,-516.2 -1.1,-441.4 88.8,-883.8 154.5,-1206.8 26.8,-132.2 50.1,-246.4 59.4,-325.2 67.1,-567.2 -32.2,-696.4 -885,-1152.098"
         style="fill:#f4f01e;fill-opacity:1;fill-rule:nonzero;stroke:none"
         id="path14" />
      <path
         d="m 3075.5,851.902 c -10,-2.902 -12.8,-5.8 -18.3,-8.8 C 2875,745.801 2695.5,635.301 2535.5,532.5 v 2375.4 l 530,468.7 10,-2524.698"
         style="fill:#141316;fill-opacity:1;fill-rule:nonzero;stroke:none"
         id="path16" />
      <path
         d="M 2065.5,2502.3 V 209.801 c -90,67.199 -290,213.398 -530,369.601 V 2033.6 l 530,468.7"
         style="fill:#141316;fill-opacity:1;fill-rule:nonzero;stroke:none"
         id="path18" />
      <path
         d="M 1065.5,1627.7 V 852.402 C 845.5,974.699 664.199,1073.3 534.301,1163.6 l 531.199,464.1"
         style="fill:#141316;fill-opacity:1;fill-rule:nonzero;stroke:none"
         id="path20" />
      <path
         d="m 3531.8,1115.9 -1,2663.3 302.4,264.2 c -57.3,-134.4 -107.1,-309.6 -107.6,-516.2 -1.1,-441.4 88.8,-883.8 154.5,-1206.8 26.8,-132.2 50.1,-246.4 59.4,-325.2 51.6,-436.3 4.8,-613.4 -407.7,-879.3"
         style="fill:#141316;fill-opacity:1;fill-rule:nonzero;stroke:none"
         id="path22" />
      <path
         d="m 330.996,2678.9 c 46.004,259.5 85.402,554 84.703,848.3 -1,385.3 -173.597,661.6 -247.097,766.9 l 671.699,839.5 c 111.801,-51.9 390.099,-158.2 624.899,-198.1 305.4,-51.8 600.3,-53.4 610.3,-53.5 v 0.2 c 20,0.1 304.1,2.4 604.5,53.4 106.1,18 219.5,49.6 323.5,83.6 L 330.996,2678.9"
         style="fill:#141316;fill-opacity:1;fill-rule:nonzero;stroke:none"
         id="path24" />
      <path
         d="m 1229.85,2190.6 -383.702,438.3 c -2.699,3 -6.699,4.7 -11.195,4.7 -3.605,0 -7.105,-1.2 -9.605,-3.4 l -78.797,-68.8 c -6.102,-5.3 -6.699,-14.71 -1.403,-20.8 L 892.551,2372.19 700.148,2203.9 552.75,2372.19 c -2.699,3.2 -6.801,5.11 -11.098,5.11 -3.601,0 -6.898,-1.3 -9.597,-3.7 l -78.805,-68.91 c -5.797,-5.1 -6.5,-15 -1.398,-20.79 l 383.597,-438.41 c 4.899,-5.5 15.301,-6.19 20.805,-1.39 l 78.797,69 c 6.097,5.29 6.699,14.7 1.402,20.8 L 782.75,2109.5 975.148,2277.89 1128.85,2102.3 c 5.1,-5.9 14.8,-6.7 20.7,-1.41 l 78.9,68.91 c 5.8,5.1 6.4,15 1.4,20.8"
         style="fill:#9d8c4c;fill-opacity:1;fill-rule:nonzero;stroke:none"
         id="path26" />
      <path
         d="m 1347.85,2549.69 -47.2,156.81 2.6,2.3 150,-67 z m 405.2,87.4 c -0.7,4.6 -3.9,8.51 -8.8,10.71 l -597.3,264.2 c -1.7,0.7 -3.7,1.1 -5.8,1.1 -3.7,0 -7.3,-1.2 -9.7,-3.3 l -6.6,-5.8 c -3.8,-3.4 -5.6,-9.9 -4.3,-15.1 l 182.8,-626.9 c 1.9,-6.51 6.9,-10.6 12.9,-10.6 3.5,0 7.1,1.49 10.2,4.2 l 72.8,63.8 c 14.1,12.29 11.9,27 9.4,34.6 l -23,75.1 182.1,159.29 70.8,-31.89 c 7.5,-3.3 13,-4.81 17.7,-4.81 6,0 11.3,2.5 17.8,8.21 l 73.5,64.2 c 4.2,3.6 6.2,8.39 5.5,12.99"
         style="fill:#9d8c4c;fill-opacity:1;fill-rule:nonzero;stroke:none"
         id="path28" />
      <path
         d="m 2126.95,3084.9 -99.7,9.69 c -0.6,0.11 -1.1,0 -1.5,0 -6.4,0 -13.2,-6.19 -14.2,-12.89 -5.7,-40.5 -28.7,-82 -61.5,-110.7 -32.3,-28.3 -71.7,-43.51 -113.8,-43.51 -51.8,0 -101.8,22.61 -137.2,63.01 -67.6,77.3 -63,187.1 10.6,251.5 0.4,0.4 0.9,0.7 1.3,1 2,1.7 4,3.4 6,5 0,0.1 0.1,0.1 0.1,0.1 1.7,1.3 3.5,2.6 5.2,3.9 30.8,22.9 69,35.89 107.7,35.49 4.9,-0.29 9.3,1.51 12.3,4.81 1.3,2.2 2.1,4.79 2.3,7.29 l 4.7,101.31 c 0.3,4.4 -1.1,8.4 -3.8,11.3 -2.7,2.9 -6.7,4.6 -11.1,4.6 -2.8,0.1 -5.6,0.1 -8.3,0.1 -79.6,0 -142.7,-24.2 -204.5,-78.3 -131,-114.6 -144.3,-314.4 -29.7,-445.4 59.7,-68.21 145.6,-107.3 235.6,-107.3 76.4,0 150.5,28 208.7,79 61.5,53.8 97.5,124.2 103.9,203.7 0.5,7.8 -5.8,15.8 -13.1,16.3"
         style="fill:#9d8c4c;fill-opacity:1;fill-rule:nonzero;stroke:none"
         id="path30" />
      <path
         d="m 1829.85,3284.5 h 1.2 c 0.3,0 0.5,0 0.7,0.09 -0.6,0 -1.2,-0.09 -1.9,-0.09"
         style="fill:#9d8c4c;fill-opacity:1;fill-rule:nonzero;stroke:none"
         id="path32" />
      <path
         d="m 2662.75,3439.6 c -1.7,6.8 -7.52,11.9 -14.22,13.4 l -363.03,72.4 v 1.6 l -14.68,329.6 c -0.9,10.6 -10.38,17 -18.78,17 -4.29,0 -7.95,-1.5 -11.25,-4.4 l -83.27,-73 c -3.4,-2.9 -6.34,-10.7 -6.03,-16 l 13.73,-317.8 -155.98,178.4 c -3.6,4.1 -8.9,6.5 -14.5,6.5 -4.7,0 -9.09,-1.7 -12.49,-4.7 l -77.5,-67.8 c -8.1,-7 -8.8,-18.9 -1.8,-26.9 l 377.7,-431.8 c 3.7,-4.2 9,-6.6 14.4,-6.6 4.6,0 9,1.6 12.6,4.8 l 77.5,67.79 c 3.7,3.3 6,8.01 6.4,13.21 0.3,5.09 -1.3,10 -4.6,13.8 l -176.7,201.9 340.9,-75.4 c 0.2,0 0.5,-0.1 1,-0.1 3.3,0 9.7,2.39 13.3,5.5 l 91.5,80 c 5.3,4.6 7.6,11.6 5.8,18.6"
         style="fill:#9d8c4c;fill-opacity:1;fill-rule:nonzero;stroke:none"
         id="path34" />
      <path
         d="m 3044.05,3778.4 -63.1,72.2 c -5.2,5.8 -14.8,6.6 -20.8,1.3 l -184.9,-161.8 -80.9,92.4 152.5,133.4 c 6.1,5.4 6.7,14.7 1.3,20.8 l -63.1,72.2 c -2.69,3 -6.8,4.8 -11.2,4.8 -3.7,0 -7.1,-1.2 -9.6,-3.4 l -152.5,-133.5 -74.5,85.1 185,161.9 c 2.9,2.6 4.7,6.1 5,10 0.2,3.9 -1.1,7.8 -3.7,10.8 l -63.1,72.1 c -2.8,3.2 -6.9,5.1 -11.2,5.1 -3.5,0 -6.89,-1.3 -9.6,-3.7 l -274.2,-239.9 c -6.1,-5.4 -6.7,-14.7 -1.3,-20.8 l 383.6,-438.3 c 5.1,-5.9 14.8,-6.7 20.8,-1.4 l 274.1,239.9 c 3.1,2.7 4.9,6.3 5.1,10.3 0.2,3.8 -1.2,7.6 -3.7,10.5"
         style="fill:#9d8c4c;fill-opacity:1;fill-rule:nonzero;stroke:none"
         id="path36" />
      <path
         d="m 3569.35,4224.9 -390,445.8 c -4.8,5.5 -15.3,6.21 -20.8,1.4 l -79.4,-69.5 c -6.1,-5.3 -6.79,-14.3 -1.4,-20.4 l 207.11,-236.9 -2.91,-2.2 h -0.8 l -485.9,22.8 -16,-14.55 c -5.9,-5.2 -6.8,-14.22 -1.89,-19.92 l 390.69,-444.92 c 2.7,-3.1 6.7,-4.75 11.2,-4.75 3.6,0 7,1.22 9.6,3.42 l 78.8,68.91 c 6.1,5.4 6.7,14.71 1.3,20.81 l -217.5,248.5 2.9,2.5 0.8,-0.1 491.6,-34 c 2.2,0 8.5,2.4 10.1,3.8 l 10.6,9.2 c 2.9,2.6 4.8,6.4 5.1,10.4 0.2,3.7 -0.9,7.1 -3.2,9.7"
         style="fill:#9d8c4c;fill-opacity:1;fill-rule:nonzero;stroke:none"
         id="path38" />
      <path
         d="m 994.316,2909.24 c -16.175,0 -31.836,-5.91 -44.097,-16.64 -27.684,-24.24 -30.387,-64.9 -6.168,-92.56 12.754,-14.58 31.082,-22.94 50.289,-22.94 15.77,0 30.99,5.73 42.86,16.12 13.29,11.63 21.27,27.83 22.45,45.6 1.18,17.79 -4.57,34.91 -16.21,48.2 -12.37,14.13 -30.27,22.22 -49.124,22.22"
         style="fill:#9d8c4c;fill-opacity:1;fill-rule:nonzero;stroke:none"
         id="path40" />
      <path
         d="m 1261.61,3077.96 c -12.36,14.12 -30.26,22.23 -49.12,22.23 -16.17,0 -31.83,-5.91 -44.1,-16.64 -27.68,-24.23 -30.38,-64.88 -6.15,-92.58 12.75,-14.56 31.08,-22.92 50.29,-22.92 15.77,0 30.99,5.71 42.85,16.09 13.29,11.65 21.27,27.85 22.45,45.63 1.19,17.78 -4.58,34.9 -16.22,48.19"
         style="fill:#9d8c4c;fill-opacity:1;fill-rule:nonzero;stroke:none"
         id="path42" />
      <path
         d="m 943.613,4205.01 c 31.614,0 56.917,24.67 56.917,57.56 0,31.62 -31.624,55.03 -64.514,55.03 h -68.922 v -112.59 z m -8.867,182.15 c 32.258,0 54.395,25.32 54.395,56.92 0,31.62 -22.137,53.78 -54.395,53.78 h -67.652 v -110.7 z M 785.5,4561.08 c 0,6.33 5.059,12.02 12.004,12.02 h 144.832 c 75.254,0 133.444,-50.58 133.444,-116.99 0,-48.7 -39.85,-86.65 -69.57,-100.56 33.53,-10.75 82.22,-44.9 82.22,-103.1 0,-70.83 -60.71,-122.05 -137.871,-122.05 H 797.504 c -6.945,0 -12.004,5.71 -12.004,12.03 v 418.65"
         style="fill:#9d8c4c;fill-opacity:1;fill-rule:nonzero;stroke:none"
         id="path44" />
      <path
         d="m 1178.52,4339.67 c 0,33.33 27.41,60.74 58.9,60.74 33.35,0 60.75,-27.41 60.75,-60.74 0,-31.99 -27.4,-58.92 -60.75,-58.92 -31.49,0 -58.9,26.93 -58.9,58.92"
         style="fill:#9d8c4c;fill-opacity:1;fill-rule:nonzero;stroke:none"
         id="path46" />
      <path
         d="m 1407.79,4560.84 c 0,8.23 3.4,12.26 12.26,12.26 h 61.49 c 8.2,0 12.25,-4.03 12.25,-12.26 v -173.68 l 159.38,179.61 c 2.53,3.18 6.31,6.33 12.01,6.33 h 71.98 c 12.01,0 15.43,-7.46 7.2,-16.94 l -170.88,-191.75 182.9,-217.72 c 6.32,-8.19 4.18,-16.29 -8.48,-16.29 h -77.65 c -6.33,0 -10.11,2.53 -11.39,4.42 l -165.07,203.65 v -195.8 c 0,-8.23 -4.05,-12.27 -12.25,-12.27 h -61.49 c -8.86,0 -12.26,4.04 -12.26,12.27 v 418.17"
         style="fill:#9d8c4c;fill-opacity:1;fill-rule:nonzero;stroke:none"
         id="path48" />
      <path
         d="m 429.699,1245 c -246,204.2 -271.097,387.8 -228.199,750.2 9.305,78.7 32.5,192.9 59.398,325.1 9.504,46.9 19.602,96.4 29.801,147.9 l 3023.501,2648.3 636.3,-795 z M 3880.1,2320.4 c 26.8,-132.2 50.1,-246.4 59.4,-325.2 11.2,-94.9 17.8,-177.5 16.9,-251.5 0,-4.2 -0.1,-8.4 -0.2,-12.5 -0.3,-11.4 -0.7,-22.7 -1.31,-33.7 -0.09,-1.8 -0.19,-3.5 -0.39,-5.3 -0.2,-3.3 -0.4,-6.6 -0.7,-9.8 -0.7,-10.2 -1.7,-20.2 -2.8,-30 -0.5,-4.1 -1,-8.2 -1.6,-12.2 -0.5,-3.9 -1,-7.6 -1.6,-11.4 -0.9,-6.5 -2,-13 -3.2,-19.4 -0.8,-4.5 -1.7,-9 -2.6,-13.5 -1.1,-5.5 -2.3,-10.9 -3.6,-16.4 -1.1,-4.9 -2.29,-9.7 -3.6,-14.5 -1.19,-4.5 -2.41,-8.9 -3.69,-13.3 -4.51,-15.8 -9.81,-31.2 -15.81,-46.4 -1.4,-3.5 -2.8,-7 -4.3,-10.4 -1.6,-3.9 -3.3,-7.8 -5.1,-11.7 -0.5,-1.2 -1.1,-2.5 -1.7,-3.8 -3,-6.5 -6.2,-13 -9.5,-19.4 -3.3,-6.4 -6.7,-12.8 -10.3,-19.1 -2.4,-4.1 -4.8,-8.2 -7.3,-12.3 -8.2,-13.6 -17.21,-27.1 -27.1,-40.4 -2.4,-3.4 -5,-6.9 -7.61,-10.3 -6.79,-8.9 -13.99,-17.8 -21.69,-26.7 -3.2,-3.8 -6.6,-7.7 -10,-11.5 -2.8,-3.2 -5.7,-6.3 -8.7,-9.5 -2.11,-2.3 -4.2,-4.6 -6.5,-6.9 -6.3,-6.8 -12.9,-13.5 -19.9,-20.3 -3,-3.1 -6.2,-6.1 -9.4,-9.1 -3.1,-3.1 -6.31,-6.1 -9.6,-9.1 -35.8,-33.3 -77.3,-66.7 -125.3,-101.3 -8.7,-6.3 -17.6,-12.6 -26.8,-19 -4.61,-3.2 -9.2,-6.4 -13.9,-9.6 -4.7,-3.2 -9.4,-6.4 -14.2,-9.6 -14.3,-9.7 -29.2,-19.5 -44.6,-29.4 -119.3,-77 -269.3,-161.298 -456.3,-261.599 -6.89,-3.699 -13.9,-7.399 -21,-11.199 -181.9,-97.2 -361.6,-207.403 -519,-310 -212.1,-138.301 -383.6,-262.801 -465,-323.301 -1.6,1.199 -3.3,2.398 -5,3.699 -78.1,57.801 -231,168.699 -420.7,293.699 -4.1,2.801 -8.3,5.5 -12.5,8.403 -163.7,107.398 -353.6,224.8 -545.9,327.5 -7,3.699 -14,7.5 -20.9,11.199 -51.5,27.601 -100.098,53.898 -146.098,79.301 -13.004,7.199 -25.8,14.3 -38.406,21.3 -27.996,15.598 -55,30.797 -80.898,45.598 -5.797,3.4 -11.496,6.7 -17.196,9.9 -95.207,55 -176.304,105.3 -245.304,153.2 l 527.902,461.3 660,576.7 340,297.1 615.5,537.8 384.5,336.1 465.3,406.6 302.4,264.2 c -57.3,-134.4 -107.09,-309.6 -107.6,-516.2 -1.1,-441.4 88.8,-883.8 154.5,-1206.8 z M 204.699,4239.7 c -3,4.8 -6,9.4 -8.801,13.8 -4.3,6.7 -8.5,13 -12.402,18.9 -2.691,3.9 -5.297,7.7 -7.691,11.3 -2.5,3.7 -4.907,7.1 -7.203,10.4 l 671.699,839.5 c 8.797,-4.1 18.5,-8.5 29.199,-13.1 125.199,-55.1 374.3,-148.2 590.7,-185 305.4,-51.8 595.3,-53.4 605.3,-53.5 v 0.2 c 20,0.1 309.1,2.4 609.5,53.4 106.1,18 222,49.6 326,83.6 l -1.4,-1.3 -2668.401,-2337.8 -1.398,-1.2 c 46.004,259.5 86.004,554 85.297,848.3 -0.899,331.1 -127.996,581.7 -210.399,712.5 z m 3936.001,66.1 -796.4,1010.4 -48.1,-23.7 c -3.6,-1.8 -368.2,-179.9 -642.9,-226.5 -294.5,-50 -587.8,-51.5 -587.8,-51.5 v -0.1 c -20,0.1 -295.3,2.8 -582.6,51.6 -274.7,46.6 -635.701,224.6 -639.404,226.4 L 796.102,5316.2 0,4305.7 34.0977,4264.6 C 36.5,4261.6 281.902,3957.4 283,3526.8 284.098,3098.9 195.699,2664.1 131.199,2346.7 103.699,2211.6 79.8008,2094.6 67.3008,2010.7 24.8984,1729 28.3984,1488.9 175.5,1294.9 315.898,1109.6 588.398,937.801 1021.2,706.602 1534.7,432.199 2057,15.5 2070.3,0.101563 L 2070.4,0 c 11.7,14.1992 535,431.902 1049.3,706.602 432.9,231.3 705.4,402.998 845.8,588.298 147,194.1 150.5,434.1 108.2,715.9 -12.59,83.8 -36.5,200.8 -64,335.9 -64.5,317.5 -152.9,752.2 -151.8,1180.2 1.1,430.6 246.4,734.8 248.8,737.7 l 34,41.2"
         style="fill:#9d8c4c;fill-opacity:1;fill-rule:nonzero;stroke:none"
         id="path50" />
    </g>
  </g>
</svg>
