<?xml version="1.0" encoding="UTF-8" standalone="no"?>
<!-- Created with Inkscape (http://www.inkscape.org/) -->

<svg
   version="1.1"
   id="svg2"
   width="70.813332"
   height="85.813332"
   viewBox="0 0 70.813332 85.813332"
   sodipodi:docname="Degerfors IF.eps"
   xmlns:inkscape="http://www.inkscape.org/namespaces/inkscape"
   xmlns:sodipodi="http://sodipodi.sourceforge.net/DTD/sodipodi-0.dtd"
   xmlns="http://www.w3.org/2000/svg"
   xmlns:svg="http://www.w3.org/2000/svg">
  <defs
     id="defs6" />
  <sodipodi:namedview
     id="namedview4"
     pagecolor="#ffffff"
     bordercolor="#000000"
     borderopacity="0.25"
     inkscape:showpageshadow="2"
     inkscape:pageopacity="0.0"
     inkscape:pagecheckerboard="0"
     inkscape:deskcolor="#d1d1d1" />
  <g
     id="g8"
     inkscape:groupmode="layer"
     inkscape:label="ink_ext_XXXXXX"
     transform="matrix(1.3333333,0,0,-1.3333333,0,85.813333)">
    <g
       id="g10"
       transform="scale(0.1)">
      <path
         d="M 11.5078,630.648 520.434,629.84 520.016,362.844 509.992,244.723 470.57,176.98 419.574,100.641 322.199,43.1016 264.992,13.2773 140.152,88.2578 79.168,140.699 l -52.5,90.156 -15.6875,66.868 0.5273,332.925"
         style="fill:#f4f4f4;fill-opacity:1;fill-rule:evenodd;stroke:none"
         id="path12" />
      <path
         d="m 225.516,463.746 c -1.121,3.652 -2.684,7.07 -4.481,10.031 -2.015,2.961 -4.258,5.473 -6.5,7.528 -2.246,2.277 -4.711,3.879 -7.406,5.015 -2.914,1.383 -6.285,2.52 -10.774,3.211 -4.492,0.914 -10.335,1.157 -16.171,1.164 l -44.926,0.071 -0.125,-80.391 c -15.754,-17.059 -28.36,-37.078 -36.7111,-58.25 -8.1211,-20.941 -12.1914,-43.246 -12.0078,-65.566 0.1914,-22.539 4.4218,-44.883 12.4765,-65.84 8.0504,-20.742 19.9294,-39.891 34.9574,-56.309 15.242,-16.426 33.418,-29.883 53.39,-39.492 19.973,-9.813 41.754,-15.77 63.774,-17.402 21.785,-1.864 43.789,0.839 64.472,7.422 l -0.238,-14.129 26.945,-0.039 0.039,25.058 c 18.204,9.082 35.09,21.348 49.25,36.121 14.176,14.778 25.879,32.082 34.215,51.192 8.34,19.121 13.547,39.836 15.149,60.781 1.609,21.183 -0.371,42.594 -5.965,62.871 -5.352,20.273 -14.309,39.648 -26.191,56.742 l 27.222,27.516 30.949,-32.61 0.618,104.758 -103.098,0.391 29.387,-28.055 -27.676,-28.199 c -22.238,11.195 -44.231,22.617 -67.57,26.984 -23.582,4.364 -48.29,1.895 -73.004,-0.574 M 19.1875,527.844 510.445,527.063 509.66,326.883 C 509.621,297.508 503.969,268.355 494.262,239.684 484.77,210.992 470.59,183.016 451.215,157.078 431.867,131.363 407.34,107.496 376.09,85.2305 345.055,62.7422 307.492,41.6094 267.945,24.8203 228.66,40.3672 191.188,61.1484 159.77,84.4219 128.359,107.711 103.023,133.484 82.1719,161.07 61.332,188.883 44.75,218.746 34.2461,248.602 23.7344,278.68 19.9648,308.98 19.7891,339.273 l -0.6016,188.571"
         style="fill:#ed192d;fill-opacity:1;fill-rule:evenodd;stroke:none"
         id="path14" />
      <path
         d="m 351.996,191.168 -9.668,0.234 0.07,38.946 38.192,-0.059 c -4.285,-7.508 -8.34,-14.785 -13.074,-21.387 -4.946,-6.589 -10.118,-12.058 -15.52,-17.734"
         style="fill:#ed192d;fill-opacity:1;fill-rule:evenodd;stroke:none"
         id="path16" />
      <path
         d="m 250.723,209.09 26.722,-0.039 0.246,153.043 -26.73,0.039 z m -105.825,128.621 28.528,-0.047 c 7.187,-0.238 14.601,-0.019 20.215,0.879 5.621,0.668 9.437,1.574 12.589,2.937 3.145,1.364 5.614,3.18 7.872,5.227 2.246,2.047 4.046,4.547 5.625,7.504 2.929,6.379 5.851,12.742 7.445,22.766 1.812,9.789 2.285,23.226 2.754,36.664 11.91,2.711 24.043,4.285 35.5,4.265 11.453,-0.019 22.012,-1.394 32.781,-4.375 10.547,-2.976 21.563,-7.777 31.211,-13.484 9.875,-5.715 18.848,-12.559 26.691,-20.543 7.86,-7.984 14.571,-17.106 19.942,-27.129 5.613,-10.035 10.086,-20.742 12.976,-31.684 2.688,-11.168 4.239,-22.558 4.219,-33.711 -0.234,-11.386 -1.601,-22.539 -4.766,-33.457 l -72.558,0.118 -0.137,-87.012 c -13.484,-5.91 -27.871,-9.531 -42.683,-10.637 -14.832,-1.121 -29.879,0.508 -44.25,4.629 -14.372,4.113 -27.832,10.742 -39.95,19.414 -12.121,8.672 -22.664,19.629 -31.172,31.945 -8.292,12.528 -14.785,26.649 -18.804,41.473 -4.02,14.582 -5.567,29.844 -4.418,44.18 0.918,14.351 4.527,27.785 10.39,40.078"
         style="fill:#ed192d;fill-opacity:1;fill-rule:evenodd;stroke:none"
         id="path18" />
      <path
         d="m 198.77,456.047 c -6.739,-2.727 -13.489,-5.672 -19.778,-9.07 -6.297,-3.641 -11.922,-7.731 -17.765,-11.825 l 0.054,34.621 13.032,-0.019 c 3.589,0.223 6.957,-0.012 9.656,-0.469 2.691,-0.461 4.492,-0.922 6.058,-1.832 1.348,-0.687 2.692,-1.601 3.586,-2.742 1.125,-1.141 2.028,-2.281 2.918,-3.875 0.895,-1.371 1.571,-2.961 2.239,-4.789"
         style="fill:#ed192d;fill-opacity:1;fill-rule:evenodd;stroke:none"
         id="path20" />
      <path
         d="m 202.504,402.523 c -0.465,-8.425 -0.699,-16.855 -2.055,-23.222 -1.133,-6.149 -3.164,-10.016 -5.41,-14.117 -0.684,-1.133 -1.809,-2.278 -2.93,-3.184 -0.906,-0.684 -2.25,-1.359 -3.824,-2.047 -1.797,-0.449 -3.816,-0.902 -6.062,-1.129 -1.129,0 -2.246,-0.219 -3.594,-0.219 l -4.051,0.008 -13.476,0.024 0.015,8.648 c 6.528,7.047 12.828,14.106 19.801,20.012 6.973,5.683 14.168,10.453 21.586,15.226"
         style="fill:#ed192d;fill-opacity:1;fill-rule:evenodd;stroke:none"
         id="path22" />
      <path
         d="m 267.953,27.0977 c 39.551,17.4804 77.559,39.0507 108.137,61.5429 30.816,22.5074 54.195,45.6914 72.664,70.9454 18.457,25.246 31.758,52.57 41.23,80.773 9.493,28.231 16.496,57.371 16.543,86.528 l 0.762,196.761 -483.832,0.77 -0.5468,-197.68 C 22.8711,300.555 28.8945,274.578 39.1836,246.773 49.4688,218.738 64.6953,188.66 84.6484,161.531 104.598,134.625 129.262,110.68 160.453,88.0742 191.414,65.4844 228.891,44.0117 267.953,27.0977 M 508.559,619.527 22.9297,620.301 22.8086,544.918 508.441,544.152 Z M 268.129,-0.00390625 C 225.258,18.0547 184.188,41.3438 150.313,65.7695 116.43,90.1914 89.5156,115.984 67.5469,145.387 45.8086,174.801 29.0117,207.625 17.832,238.16 6.64844,268.688 -0.0429688,296.715 0,324.957 L 0.277344,643.566 531.07,642.727 530.563,324.117 c -0.051,-30.984 -8.645,-61.25 -19.25,-91.98 C 500.695,201.414 485.836,170.691 465.57,142.926 445.324,114.957 419.438,90.1641 385.934,65.8555 352.438,41.7656 311.281,18.375 268.129,-0.00390625"
         style="fill:#d0a451;fill-opacity:1;fill-rule:evenodd;stroke:none"
         id="path24" />
      <path
         d="m 50.5234,598.168 -0.0507,-33.023 9.2031,-0.016 c 1.125,0 2.0273,0.23 2.9258,0.449 0.8945,0.231 1.7968,0.688 2.4726,1.137 0.6719,0.457 1.3516,1.14 2.0196,1.816 0.4492,0.914 1.1289,1.824 1.582,2.965 0.4492,1.137 0.8984,2.5 1.1289,4.32 0.2305,1.598 0.4531,3.645 0.457,5.696 -0.2187,2.051 -0.2187,4.101 -0.4375,5.922 -0.2265,1.82 -0.6679,2.964 -1.1172,4.332 -0.4492,1.136 -1.125,2.05 -1.5703,2.73 -0.6679,0.91 -1.3476,1.606 -2.0156,2.055 -0.8984,0.457 -1.5703,0.914 -2.4688,1.14 -0.8984,0.231 -1.7968,0.461 -2.9218,0.461 z m -9.2773,-42.117 0.082,51.015 19.9961,-0.031 c 1.7891,-0.008 3.586,-0.461 5.1602,-0.918 1.7969,-0.461 3.1406,-1.375 4.7109,-2.515 1.3477,-0.911 2.6914,-2.282 3.8125,-4.102 1.1211,-1.602 2.2383,-3.648 2.9102,-5.93 0.8984,-2.277 1.3398,-5.011 1.789,-7.746 0.2149,-2.734 0.211,-5.918 -0.0156,-8.652 -0.457,-2.961 -0.9062,-5.465 -1.8047,-7.742 -0.6836,-2.278 -1.8125,-4.325 -2.9375,-5.91 -1.125,-1.598 -2.4726,-2.961 -3.8203,-4.098 -1.5781,-1.137 -2.9258,-2.047 -4.7226,-2.5 -1.5782,-0.453 -3.3711,-0.68 -5.168,-0.676 l -19.9922,-0.195"
         style="fill:#d0a451;fill-opacity:1;fill-rule:evenodd;stroke:none"
         id="path26" />
      <path
         d="m 127.582,606.93 -0.016,-9.34 -24.711,0.039 -0.015,-10.703 22.461,-0.035 -0.016,-8.879 -22.461,0.031 -0.015,-12.98 25.828,-0.04 -0.016,-9.113 -35.2616,0.059 0.0781,51.015 34.1445,-0.054"
         style="fill:#d0a451;fill-opacity:1;fill-rule:evenodd;stroke:none"
         id="path28" />
      <path
         d="m 174.277,591.141 c -0.226,1.132 -0.668,2.047 -1.121,2.964 -0.445,0.911 -1.121,1.594 -1.789,2.278 -0.679,0.683 -1.574,1.367 -2.695,1.828 -0.899,0.453 -2.02,0.687 -3.141,0.918 -1.125,0.23 -2.246,0.23 -3.375,0.004 -1.117,0 -2.242,-0.453 -3.144,-0.906 -1.125,-0.457 -2.02,-0.911 -2.922,-1.594 -0.676,-0.906 -1.57,-1.817 -2.246,-2.953 -0.688,-0.914 -1.356,-2.278 -1.809,-3.871 -0.449,-1.364 -0.68,-2.957 -0.902,-5.008 -0.231,-1.824 -0.235,-3.875 -0.235,-5.926 0.223,-1.816 0.438,-3.637 0.887,-5.004 0.449,-1.598 1.121,-2.965 1.574,-4.109 0.664,-1.137 1.567,-2.051 2.235,-2.957 0.898,-0.684 1.793,-1.379 2.691,-1.832 1.121,-0.684 2.024,-0.914 3.145,-1.137 1.125,-0.234 2.472,-0.238 3.593,-0.012 1.125,0 2.247,0.223 3.375,0.68 0.891,0.449 2.02,1.133 2.922,1.816 0.895,0.684 1.575,1.594 2.25,2.5 0.672,0.684 1.121,1.828 1.344,2.735 0.457,1.136 0.457,2.047 0.457,3.187 l -10.551,0.016 0.012,8.652 19.766,-0.027 -0.043,-27.106 -6.516,0.008 -1.34,6.16 c -0.676,-1.597 -1.797,-2.961 -3.148,-4.097 -1.352,-1.368 -2.926,-2.278 -4.942,-2.727 -1.804,-0.683 -4.05,-1.137 -6.07,-1.133 -2.246,0 -4.492,0.465 -6.516,1.153 -2.019,0.683 -4.035,1.601 -5.605,2.968 -1.801,1.375 -3.367,3.196 -4.711,5.016 -1.344,2.055 -2.465,4.336 -3.359,7.07 -0.668,2.504 -1.336,5.469 -1.332,8.43 -0.227,2.961 0.007,6.375 0.687,9.336 0.453,2.957 1.36,5.461 2.481,7.961 1.129,2.277 2.476,4.101 4.054,5.691 1.575,1.594 3.375,2.957 5.395,3.867 2.023,1.133 4.047,1.809 6.523,2.036 2.246,0.453 4.938,0.218 7.407,-0.012 2.476,-0.457 4.714,-1.145 6.507,-2.055 2.028,-0.918 3.821,-2.285 5.168,-3.656 1.34,-1.367 2.465,-3.195 3.36,-5.016 0.89,-1.82 1.336,-3.875 1.562,-6.152 l -9.883,0.016"
         style="fill:#d0a451;fill-opacity:1;fill-rule:evenodd;stroke:none"
         id="path30" />
      <path
         d="m 232.254,606.766 -0.016,-9.34 -24.48,0.039 -0.02,-10.703 22.461,-0.035 -0.015,-8.883 -22.454,0.035 -0.027,-12.984 25.606,-0.04 -0.012,-9.109 -35.27,0.059 0.082,51.015 34.145,-0.054"
         style="fill:#d0a451;fill-opacity:1;fill-rule:evenodd;stroke:none"
         id="path32" />
      <path
         d="m 256.254,584.637 11.68,-0.02 c 0.898,0 1.574,-0.004 2.246,0.223 0.675,0 1.125,0.226 1.574,0.68 0.672,0.23 0.898,0.453 1.348,0.91 0.222,0.457 0.679,0.906 0.906,1.593 0,0.457 0.226,1.141 0.449,2.047 0,0.684 0,1.594 -0.223,2.278 0,0.91 -0.214,1.593 -0.441,2.05 -0.223,0.684 -0.449,1.141 -0.676,1.594 -0.445,0.457 -0.894,0.692 -1.344,0.914 -0.453,0.453 -0.902,0.684 -1.574,0.684 -0.672,0.23 -1.347,0.461 -2.234,0.465 l -11.692,0.015 z m 21.105,-4.586 c 0.899,-0.465 1.793,-0.922 2.469,-1.602 0.899,-0.687 1.34,-1.367 1.797,-2.508 0.676,-1.144 0.891,-2.511 1.121,-4.101 0.219,-1.828 0.219,-3.867 0.207,-5.235 v -2.05 -2.512 c 0.215,-0.906 0.43,-2.051 0.664,-2.957 0.227,-0.914 0.676,-1.367 1.113,-1.598 v -1.82 l -10.324,0.012 c -0.23,0.914 -0.445,1.593 -0.672,2.508 -0.222,0.91 -0.222,2.277 -0.214,3.417 v 3.641 l 0.007,2.961 c -0.23,0.91 -0.222,2.055 -0.449,2.738 -0.223,0.907 -0.445,1.368 -0.672,1.821 -0.222,0.461 -0.672,0.914 -0.898,1.367 -0.438,0.461 -0.899,0.683 -1.336,0.914 -0.461,0.23 -1.125,0.453 -1.801,0.687 -0.672,0 -1.57,0.231 -2.254,0.231 l -9.879,0.015 -0.035,-20.269 -9.43,0.016 0.082,51.015 22.907,-0.039 c 1.804,0 3.593,-0.234 5.176,-0.695 1.558,-0.457 2.917,-1.137 4.031,-2.051 1.133,-0.914 2.019,-2.055 2.91,-3.191 0.676,-1.145 1.348,-2.735 1.797,-4.332 0.437,-1.594 0.437,-3.422 0.429,-5.239 0,-1.593 -0.437,-3.183 -0.898,-4.55 -0.437,-1.368 -1.355,-2.735 -2.246,-3.875 -0.898,-1.137 -2.258,-2.043 -3.602,-2.719"
         style="fill:#d0a451;fill-opacity:1;fill-rule:evenodd;stroke:none"
         id="path34" />
      <path
         d="m 331.313,606.605 -0.008,-9.335 -23.36,0.039 -0.019,-11.618 20.652,-0.035 -0.008,-8.875 -20.668,0.028 -0.027,-21.18 -9.668,0.012 0.09,51.015 33.016,-0.051"
         style="fill:#d0a451;fill-opacity:1;fill-rule:evenodd;stroke:none"
         id="path36" />
      <path
         d="m 369.699,598.348 c -1.109,0.23 -2.461,0.457 -3.582,0.465 -1.347,0 -2.48,-0.227 -3.594,-0.68 -0.898,-0.461 -2.031,-0.914 -2.929,-1.82 -0.899,-0.68 -1.785,-1.59 -2.473,-2.958 -0.672,-1.136 -1.355,-2.503 -1.797,-4.093 -0.672,-1.824 -0.918,-3.645 -1.14,-5.696 -0.215,-2.05 -0.223,-4.324 -0.008,-6.148 0.457,-2.051 0.887,-3.871 1.347,-5.238 0.672,-1.598 1.344,-2.969 2,-4.106 0.911,-1.136 1.805,-2.051 2.696,-2.734 0.898,-0.688 1.797,-1.145 2.922,-1.371 1.132,-0.457 2.468,-0.461 3.816,-0.461 1.121,0 2.246,0.219 3.367,0.676 1.137,0.453 2.024,0.906 2.922,1.82 0.918,0.68 1.817,1.586 2.703,2.953 0.688,1.137 1.36,2.504 1.809,4.098 0.676,1.82 0.898,3.64 1.133,5.691 0.222,1.817 0.011,4.098 -0.223,5.926 -0.219,2.043 -0.656,3.867 -1.105,5.469 -0.672,1.589 -1.348,2.957 -2.247,4.093 -0.671,0.914 -1.562,1.829 -2.461,2.512 -0.91,0.684 -2.019,1.375 -3.156,1.602 m 0.93,9.105 c 2.246,-0.453 4.492,-1.148 6.492,-2.515 1.809,-1.141 3.598,-2.508 5.168,-4.559 1.574,-1.828 2.922,-4.106 3.809,-6.613 1.125,-2.739 1.797,-5.696 2.238,-8.657 0.215,-3.191 0.203,-6.609 -0.246,-9.793 -0.457,-2.961 -1.356,-5.691 -2.488,-8.199 -1.125,-2.5 -2.473,-4.547 -4.27,-6.367 -1.57,-1.816 -3.367,-3.184 -5.398,-4.094 -2.024,-1.133 -4.27,-1.816 -6.528,-2.039 -2.461,-0.453 -4.929,-0.215 -7.176,0.238 -2.48,0.235 -4.492,1.149 -6.511,2.29 -2.024,1.144 -3.598,2.742 -5.168,4.566 -1.563,1.828 -2.91,4.105 -4.024,6.836 -0.886,2.512 -1.562,5.469 -2.011,8.656 -0.215,2.961 -0.215,6.379 0.254,9.567 0.441,2.96 1.339,5.921 2.468,8.421 1.125,2.5 2.485,4.551 4.282,6.375 1.57,1.59 3.378,2.954 5.41,4.09 2.011,0.903 4.258,1.813 6.504,2.035 2.468,0.227 4.949,0.223 7.195,-0.238"
         style="fill:#d0a451;fill-opacity:1;fill-rule:evenodd;stroke:none"
         id="path38" />
      <path
         d="m 411.234,584.387 11.692,-0.016 c 0.894,-0.004 1.57,-0.004 2.246,0.227 0.672,0 1.355,0.218 1.797,0.672 0.449,0.23 0.894,0.683 1.133,0.914 0.437,0.453 0.652,0.91 0.894,1.593 0.219,0.453 0.449,1.141 0.461,2.051 v 2.274 c -0.234,0.914 -0.234,1.597 -0.449,2.05 -0.235,0.684 -0.672,1.145 -0.899,1.598 -0.449,0.223 -0.886,0.684 -1.347,0.914 -0.457,0.453 -0.899,0.684 -1.571,0.684 -0.675,0.226 -1.347,0.457 -2.246,0.457 l -11.691,0.019 z m 27.871,7.015 c -0.007,-1.589 -0.222,-3.187 -0.91,-4.777 -0.457,-1.367 -1.109,-2.734 -2.246,-3.875 -0.894,-1.133 -2.254,-2.273 -3.601,-2.949 0.675,-0.227 1.125,-0.457 1.562,-0.918 0.457,-0.223 0.918,-0.684 1.36,-1.137 0.449,-0.457 0.886,-0.914 1.121,-1.367 0.222,-0.684 0.675,-1.371 0.89,-2.051 0.223,-0.914 0.438,-1.598 0.438,-2.965 0.234,-1.593 0.234,-3.418 0.226,-4.785 v -2.504 -2.73 c 0.211,-0.91 0.211,-1.594 0.426,-2.051 0.238,-0.684 0.461,-1.141 0.676,-1.367 0.234,-0.227 0.461,-0.457 0.676,-0.684 v -1.824 l -10.102,0.02 c -0.457,0.914 -0.672,1.589 -0.906,2.503 0,0.914 -0.215,2.282 -0.215,3.418 v 3.637 l 0.012,2.742 c -0.227,0.907 -0.215,2.043 -0.442,2.727 -0.234,0.914 -0.449,1.598 -0.672,2.051 -0.214,0.461 -0.453,0.918 -0.89,1.375 -0.457,0.222 -0.906,0.675 -1.348,0.91 -0.461,0.226 -1.133,0.457 -1.805,0.691 -0.664,0 -1.574,0.227 -2.246,0.227 l -9.882,0.015 -0.039,-20.269 -9.426,0.015 0.078,51.016 22.91,-0.039 c 1.809,0 3.605,-0.238 4.949,-0.691 1.574,-0.461 2.922,-1.141 4.035,-2.051 1.133,-0.692 2.024,-1.832 2.922,-2.969 0.672,-1.141 1.348,-2.512 1.778,-4.101 0.457,-1.594 0.671,-3.415 0.671,-5.243"
         style="fill:#d0a451;fill-opacity:1;fill-rule:evenodd;stroke:none"
         id="path40" />
      <path
         d="m 479.547,591.336 c 0,0.687 -0.234,1.367 -0.234,2.055 -0.215,0.683 -0.657,1.363 -0.891,1.828 -0.438,0.676 -0.899,1.136 -1.348,1.59 -0.437,0.453 -1.125,0.914 -1.797,1.148 -0.672,0.219 -1.347,0.684 -2.246,0.684 -0.886,0.23 -1.789,0.23 -2.918,0.23 -0.89,0.004 -2.011,0.004 -2.707,-0.223 -0.886,-0.222 -1.551,-0.457 -2.226,-0.675 -0.457,-0.461 -1.133,-0.692 -1.36,-1.145 -0.449,-0.449 -0.672,-0.906 -0.894,-1.355 -0.235,-0.461 -0.449,-1.145 -0.676,-1.602 0,-0.68 0,-1.363 0.215,-1.824 0,-0.453 0.226,-0.906 0.461,-1.367 0.215,-0.453 0.672,-0.907 1.109,-1.367 0.453,-0.454 1.125,-0.918 1.801,-1.368 0.898,-0.226 2.012,-0.687 3.367,-1.144 1.348,-0.231 2.918,-0.692 4.27,-0.918 1.336,-0.231 2.461,-0.457 3.582,-0.914 1.347,-0.453 3.136,-0.918 4.48,-1.379 1.36,-0.684 2.246,-1.141 3.149,-1.824 0.906,-0.68 1.804,-1.137 2.246,-1.828 0.672,-0.684 1.121,-1.368 1.582,-2.051 0.437,-0.684 0.886,-1.59 1.109,-2.504 0.219,-0.918 0.449,-1.824 0.449,-2.735 0,-1.136 -0.007,-2.5 -0.242,-3.648 0,-1.355 -0.223,-2.5 -0.437,-3.641 -0.461,-1.132 -0.688,-2.046 -1.36,-2.953 -0.461,-0.914 -0.898,-1.593 -1.582,-2.508 -0.672,-0.683 -1.347,-1.359 -2.019,-1.82 -0.899,-0.68 -1.575,-1.133 -2.696,-1.812 -0.91,-0.457 -2.023,-0.684 -3.379,-1.137 -1.117,-0.231 -2.472,-0.453 -4.035,-0.68 -1.355,-0.219 -2.929,-0.215 -4.5,-0.215 -1.347,0.227 -2.699,0.231 -4.035,0.684 -1.347,0.234 -2.48,0.465 -3.594,0.918 -0.898,0.461 -2.031,1.144 -2.918,1.602 -0.902,0.683 -1.574,1.367 -2.46,2.058 -0.684,0.684 -1.36,1.367 -1.809,2.274 -0.438,0.914 -1.113,1.82 -1.348,2.964 -0.437,0.914 -0.652,2.055 -0.886,3.188 -0.227,1.144 -0.442,2.285 -0.442,3.648 l 9.207,-0.015 c 0,-0.907 0.219,-1.825 0.442,-2.735 0.449,-0.683 0.675,-1.367 1.347,-2.05 0.449,-0.907 1.348,-1.372 2.024,-2.051 0.894,-0.457 2.011,-0.918 2.918,-1.149 1.113,-0.222 2.472,-0.457 3.82,-0.461 0.898,0 2.012,0 2.918,0.227 0.898,0.223 1.57,0.449 2.246,0.68 0.684,0.449 1.121,0.679 1.57,1.132 0.442,0.461 0.903,0.915 1.125,1.368 0.227,0.683 0.461,1.363 0.672,2.047 l 0.012,1.82 c 0,0.687 -0.223,1.144 -0.457,1.597 -0.219,0.454 -0.442,0.915 -0.891,1.368 -0.664,0.457 -1.113,0.918 -2.011,1.14 -0.672,0.461 -1.805,0.918 -3.157,1.375 -1.336,0.227 -3.14,0.688 -4.468,0.918 -1.575,0.223 -2.493,0.457 -3.821,0.918 -1.133,0.223 -2.918,0.91 -4.277,1.371 -1.348,0.688 -2.234,1.149 -3.137,1.825 -0.906,0.46 -1.57,1.144 -2.242,1.828 -0.676,0.683 -1.137,1.371 -1.563,2.285 -0.46,0.68 -0.675,1.59 -0.91,2.5 -0.222,0.906 -0.437,2.051 -0.437,3.187 l 0.008,3.649 c 0.214,1.14 0.437,2.273 0.898,3.414 0.227,0.91 0.676,1.82 1.359,2.726 0.457,0.914 1.114,1.598 1.797,2.278 0.672,0.683 1.348,1.367 2.246,2.047 0.899,0.449 1.805,0.906 2.918,1.355 0.899,0.461 2.254,0.688 3.606,0.914 1.109,0.219 2.703,0.449 4.258,0.449 1.347,-0.004 2.703,-0.004 4.05,-0.238 1.114,-0.226 2.469,-0.457 3.594,-0.914 1.121,-0.453 2.238,-0.914 3.145,-1.371 0.89,-0.684 1.789,-1.367 2.683,-2.059 0.676,-0.675 1.352,-1.367 2.024,-2.277 0.676,-0.91 1.113,-1.824 1.562,-2.73 0.457,-0.918 0.672,-2.055 0.891,-3.2 0.234,-0.906 0.457,-2.269 0.457,-3.418 l -9.207,0.016"
         style="fill:#d0a451;fill-opacity:1;fill-rule:evenodd;stroke:none"
         id="path42" />
      <path
         d="m 250.066,363.273 28.747,-0.043 -0.243,-155.089 -28.75,0.039 0.246,155.093"
         style="fill:#d0a451;fill-opacity:1;fill-rule:evenodd;stroke:none"
         id="path44" />
      <path
         d="m 226.637,463.977 c -5.168,-1.133 -10.332,-2.262 -15.282,-3.618 -4.714,-1.363 -9.21,-2.945 -13.703,-4.539 -0.679,1.598 -1.343,3.192 -2.019,4.563 -0.895,1.367 -1.797,2.504 -2.684,3.648 -0.898,0.907 -2.023,1.824 -3.594,2.508 -1.347,0.684 -3.144,1.371 -5.617,1.832 -2.468,0.231 -6.058,0.469 -9.433,0.238 l -11.903,0.02 -0.172,-108.856 12.356,-0.019 c 3.144,-0.234 6.062,-0.012 8.312,0.211 2.465,0.223 4.04,0.683 5.618,1.133 1.347,0.675 2.246,1.132 3.148,2.039 1.121,0.683 1.793,1.597 2.477,2.734 2.023,3.645 4.05,7.504 5.41,13.43 1.133,6.144 1.59,14.113 1.832,22.312 5.168,2.496 10.34,5.219 15.281,7.266 4.949,2.043 9.664,3.398 14.387,4.758 -0.696,-13.434 -1.168,-26.871 -2.754,-36.887 -1.817,-10.023 -4.742,-16.621 -7.672,-23.223 -1.582,-2.73 -3.609,-5.457 -5.855,-7.73 -2.25,-2.043 -4.727,-3.867 -8.094,-5.227 -3.153,-1.363 -7.188,-2.492 -12.809,-3.172 -5.617,-0.668 -13.027,-1.113 -20.441,-0.878 l -39.313,0.066 0.25,155.09 45.821,-0.071 c 5.836,-0.007 11.906,-0.246 16.39,-0.937 4.719,-0.918 8.086,-2.063 11.008,-3.434 2.914,-1.371 5.387,-2.964 7.852,-5.25 2.242,-2.05 4.488,-4.789 6.5,-7.75 1.796,-3.199 3.589,-6.617 4.703,-10.257"
         style="fill:#d0a451;fill-opacity:1;fill-rule:evenodd;stroke:none"
         id="path46" />
      <path
         d="m 314.328,99.6758 0.246,155.0972 79.973,-0.128 -0.039,-25.508 -51.223,0.078 -0.058,-36.445 35.273,-0.047 -0.039,-25.051 -35.273,0.058 -0.11,-68.0933 -28.75,0.0391"
         style="fill:#d0a451;fill-opacity:1;fill-rule:evenodd;stroke:none"
         id="path48" />
    </g>
  </g>
</svg>
