<?xml version="1.0" encoding="UTF-8" standalone="no"?>
<!-- Created with Inkscape (http://www.inkscape.org/) -->

<svg
   version="1.1"
   id="svg2"
   width="659.41333"
   height="748.34668"
   viewBox="0 0 659.41333 748.34668"
   sodipodi:docname="Djurgården.eps"
   xmlns:inkscape="http://www.inkscape.org/namespaces/inkscape"
   xmlns:sodipodi="http://sodipodi.sourceforge.net/DTD/sodipodi-0.dtd"
   xmlns="http://www.w3.org/2000/svg"
   xmlns:svg="http://www.w3.org/2000/svg">
  <defs
     id="defs6" />
  <sodipodi:namedview
     id="namedview4"
     pagecolor="#ffffff"
     bordercolor="#000000"
     borderopacity="0.25"
     inkscape:showpageshadow="2"
     inkscape:pageopacity="0.0"
     inkscape:pagecheckerboard="0"
     inkscape:deskcolor="#d1d1d1" />
  <g
     id="g8"
     inkscape:groupmode="layer"
     inkscape:label="ink_ext_XXXXXX"
     transform="matrix(1.3333333,0,0,-1.3333333,0,748.34667)">
    <g
       id="g10"
       transform="scale(0.1)">
      <path
         d="m 3955.18,4392.82 -14.02,59.95 -60.16,-12.88 C 3137.14,4281.06 2510.42,4653.7 2504.2,4657.41 l -32.68,19.75 -32.5,-19.84 c -6.21,-3.72 -631.95,-378.07 -1376.16,-221.11 l -60.19,12.71 -13.854,-59.98 c -2.628,-11.51 -65.011,-288.01 -50.832,-745 C 982.379,2210.81 1905.54,1279.42 2444.01,954.969 l 32.47,-19.535 32.42,19.621 c 537.62,325.785 1458.42,1259.585 1499.06,2692.905 12.98,457.02 -50.12,733.36 -52.78,744.86"
         style="fill:#cab35b;fill-opacity:1;fill-rule:nonzero;stroke:none"
         id="path12" />
      <path
         d="m 3052.5,4321.98 c -290.58,61.77 -502.11,166.69 -580.72,209.61 -139.19,-76.5 -696.24,-349.15 -1371.8,-230.26 -17.01,-102.72 -46.58,-333.51 -36.66,-653.51 11.55,-372.58 84.84,-709.61 195.56,-1009.55 L 3052.5,4321.98"
         style="fill:#f7ee0c;fill-opacity:1;fill-rule:nonzero;stroke:none"
         id="path14" />
      <path
         d="m 2476.29,1082.43 c 513.29,325.71 1346.64,1196.73 1403.99,2519.79 L 1821.99,1670.02 c 224.9,-268.72 462.09,-466.31 654.3,-587.59"
         style="fill:#2e64b6;fill-opacity:1;fill-rule:nonzero;stroke:none"
         id="path16" />
      <path
         d="m 2015.94,2602.11 c 72.97,-77.59 50.54,-162.33 -0.59,-210.42 l -8.65,-8.13 -209.47,222.74 9.55,8.99 c 55,51.72 142.16,58.07 209.16,-13.18 z M 3883.66,3724.46 1767.05,1737.5 c -179.24,225.88 -347.2,497.86 -474.35,813.42 l 1865.71,1751.36 c 202.39,-32.91 435.94,-42.04 685.82,2.65 15.93,-94.59 42.4,-298.84 39.43,-580.47 z M 2142.25,2720.89 c -118.02,125.5 -303.82,134.82 -428.12,17.92 l -149.01,-140.13 419.77,-446.37 149.01,140.13 c 123.73,116.36 126.4,302.92 8.35,428.45 z m 362.97,26.38 c -35.29,37.61 -94.38,39.48 -131.99,4.19 -37.6,-35.29 -39.48,-94.38 -4.19,-131.99 35.29,-37.61 94.38,-39.48 131.99,-4.19 37.61,35.29 39.49,94.38 4.19,131.99 z m 317.52,192.98 -419.17,446.68 -128.52,-120.61 419.17,-446.68 z m 221.32,312.67 c -35.29,37.61 -94.38,39.48 -131.99,4.19 -37.61,-35.29 -39.48,-94.38 -4.19,-131.99 35.29,-37.6 94.38,-39.48 131.99,-4.19 37.61,35.29 39.49,94.38 4.19,131.99 z m 181.45,338.22 136.4,128.08 -107.47,114.27 -136.4,-128.08 -68.91,73.03 138.51,130.22 -107.72,114.55 -266.07,-250.17 419.78,-446.37 127.55,119.96 z m 393.66,201.47 c -35.29,37.6 -94.38,39.48 -131.99,4.19 -37.61,-35.29 -39.48,-94.39 -4.19,-131.99 35.29,-37.61 94.38,-39.49 131.99,-4.2 37.61,35.29 39.48,94.39 4.19,132"
         style="fill:#e31e27;fill-opacity:1;fill-rule:nonzero;stroke:none"
         id="path18" />
    </g>
  </g>
</svg>
