<?xml version="1.0" encoding="UTF-8" standalone="no"?>
<!-- Created with Inkscape (http://www.inkscape.org/) -->

<svg
   version="1.1"
   id="svg2"
   width="315.81332"
   height="339.48001"
   viewBox="0 0 315.81332 339.48001"
   sodipodi:docname="GAIS.eps"
   xmlns:inkscape="http://www.inkscape.org/namespaces/inkscape"
   xmlns:sodipodi="http://sodipodi.sourceforge.net/DTD/sodipodi-0.dtd"
   xmlns="http://www.w3.org/2000/svg"
   xmlns:svg="http://www.w3.org/2000/svg">
  <defs
     id="defs6" />
  <sodipodi:namedview
     id="namedview4"
     pagecolor="#ffffff"
     bordercolor="#000000"
     borderopacity="0.25"
     inkscape:showpageshadow="2"
     inkscape:pageopacity="0.0"
     inkscape:pagecheckerboard="0"
     inkscape:deskcolor="#d1d1d1" />
  <g
     id="g8"
     inkscape:groupmode="layer"
     inkscape:label="ink_ext_XXXXXX"
     transform="matrix(1.3333333,0,0,-1.3333333,0,339.48)">
    <g
       id="g10"
       transform="scale(0.1)">
      <path
         d="m 1181.78,0.71875 c 5.18,-4.44922 12.57,6.66016 18.19,14.16015 4.39,5.8594 -11.37,12.3711 -18.19,12.3711 -6.84,0 -13.06,1.8281 -13.06,-5.4805 0,-7.3281 3.13,-12.49997 13.06,-21.05075"
         style="fill:#231f20;fill-opacity:1;fill-rule:nonzero;stroke:none"
         id="path12" />
      <path
         d="m 1181.78,0.71875 c 5.18,-4.44922 12.57,6.66016 18.19,14.16015 4.39,5.8594 -11.37,12.3711 -18.19,12.3711 -6.84,0 -13.06,1.8281 -13.06,-5.4805 0,-7.3281 3.13,-12.49997 13.06,-21.05075 z"
         style="fill:none;stroke:#231f20;stroke-width:7.5;stroke-linecap:butt;stroke-linejoin:miter;stroke-miterlimit:4;stroke-dasharray:none;stroke-opacity:1"
         id="path14" />
      <path
         d="m 1169.83,42.8008 h 23.7578 V 86.5586 H 1169.83 Z"
         style="fill:#d7d6d6;fill-opacity:1;fill-rule:nonzero;stroke:none"
         id="path16" />
      <path
         d="m 1169.83,42.8008 h 23.76 v 43.7578 h -23.76 z"
         style="fill:none;stroke:#d7d6d6;stroke-width:7.5;stroke-linecap:butt;stroke-linejoin:miter;stroke-miterlimit:4;stroke-dasharray:none;stroke-opacity:1"
         id="path18" />
      <path
         d="m 1173,68.2188 10.5,-11.8672 7.87,7.5 -18.37,4.3672"
         style="fill:#d7d6d6;fill-opacity:1;fill-rule:nonzero;stroke:none"
         id="path20" />
      <path
         d="m 1184.52,68.0703 c 0.69,-0.8515 1.44,-1.6914 2.11,-2.5508"
         style="fill:#d7d6d6;fill-opacity:1;fill-rule:nonzero;stroke:none"
         id="path22" />
      <path
         d="m 1184.52,68.0703 c 0.69,-0.8515 1.44,-1.6914 2.11,-2.5508"
         style="fill:none;stroke:#d7d6d6;stroke-width:50;stroke-linecap:butt;stroke-linejoin:miter;stroke-miterlimit:4;stroke-dasharray:none;stroke-opacity:1"
         id="path24" />
      <path
         d="m 1184.52,68.0703 c -0.93,-1.1289 -1.91,-2.25 -2.82,-3.3984"
         style="fill:#d7d6d6;fill-opacity:1;fill-rule:nonzero;stroke:none"
         id="path26" />
      <path
         d="m 1184.52,68.0703 c -0.93,-1.1289 -1.91,-2.25 -2.82,-3.3984"
         style="fill:none;stroke:#d7d6d6;stroke-width:50;stroke-linecap:butt;stroke-linejoin:miter;stroke-miterlimit:4;stroke-dasharray:none;stroke-opacity:1"
         id="path28" />
      <path
         d="m 1184.67,27.4805 c 0.71,-0.8907 1.48,-1.75 2.18,-2.6289 m -2.18,2.6289 c -0.95,-1.1797 -1.97,-2.3086 -2.89,-3.4922"
         style="fill:none;stroke:#231f20;stroke-width:30;stroke-linecap:butt;stroke-linejoin:miter;stroke-miterlimit:4;stroke-dasharray:none;stroke-opacity:1"
         id="path30" />
      <path
         d="m 1169.79,86.9609 h 20 v 67.5 h -20 z"
         style="fill:#fcd313;fill-opacity:1;fill-rule:nonzero;stroke:none"
         id="path32" />
      <path
         d="m 1169.79,86.9609 h 20 v 67.5001 h -20 z"
         style="fill:none;stroke:#fcd313;stroke-width:50;stroke-linecap:butt;stroke-linejoin:miter;stroke-miterlimit:4;stroke-dasharray:none;stroke-opacity:1"
         id="path34" />
      <path
         d="m 1174.37,2398.23 h 16.668 v 100.828 h -16.668 z"
         style="fill:#fcd313;fill-opacity:1;fill-rule:nonzero;stroke:none"
         id="path36" />
      <path
         d="m 1179.98,2492.18 c 0,0 -368.558,-247.5 -867.039,-35 l -257.5113,-345 c 0,0 174.8203,-232.5 146.4683,-575 0,0 -14.168,-190 -75.597,-427.51 0,0 -49.6096,-197.498 11.82,-404.998 0,0 55.914,-180.82 289.008,-290.82 0,0 204.75,-96.68 390.601,-133.332 0,0 254.98,-85.61 363.29,-220.7817"
         style="fill:#fcd313;fill-opacity:1;fill-rule:nonzero;stroke:none"
         id="path38" />
      <path
         d="m 1179.98,2492.18 c 0,0 -368.558,-247.5 -867.039,-35 l -257.5113,-345 c 0,0 174.8203,-232.5 146.4683,-575 0,0 -14.168,-190 -75.597,-427.51 0,0 -49.6096,-197.498 11.82,-404.998 0,0 55.914,-180.82 289.008,-290.82 0,0 204.75,-96.68 390.601,-133.332 0,0 254.98,-85.61 363.29,-220.7817"
         style="fill:none;stroke:#fcd313;stroke-width:50;stroke-linecap:butt;stroke-linejoin:miter;stroke-miterlimit:4;stroke-dasharray:none;stroke-opacity:1"
         id="path40" />
      <path
         d="m 1184.85,2499.68 c 0,0 368.55,-247.5 867.05,-35 l 257.51,-345 c 0,0 -174.83,-232.5 -146.49,-575 0,0 14.18,-190 75.61,-427.51 0,0 49.62,-197.498 -11.82,-404.998 0,0 -55.9,-180.82 -289,-290.82 0,0 -204.76,-96.68 -390.61,-133.332 0,0 -253.9,-85.258 -362.58,-219.9497"
         style="fill:#fcd313;fill-opacity:1;fill-rule:nonzero;stroke:none"
         id="path42" />
      <path
         d="m 1184.85,2499.68 c 0,0 368.55,-247.5 867.05,-35 l 257.51,-345 c 0,0 -174.83,-232.5 -146.49,-575 0,0 14.18,-190 75.61,-427.51 0,0 49.62,-197.498 -11.82,-404.998 0,0 -55.9,-180.82 -289,-290.82 0,0 -204.76,-96.68 -390.61,-133.332 0,0 -253.9,-85.258 -362.58,-219.9497"
         style="fill:none;stroke:#fcd313;stroke-width:50;stroke-linecap:butt;stroke-linejoin:miter;stroke-miterlimit:4;stroke-dasharray:none;stroke-opacity:1"
         id="path44" />
      <path
         d="m 2105.79,1853.22 c 19.24,151.67 110.25,268.34 110.25,268.34 l -182,231.66 c -462,-165 -850.5,48.75 -850.5,48.75 0,0 -357.892,-220.41 -841.759,-37.08 l -176.75,-235 c 0,0 36.551,-87.34 77,-206.67 39.332,-116.04 60.117,-274.14 42.004,-390 0,0 -19.523,-211.17 -73.504,-411.66 0,0 -43.75,-185.001 -24.5,-308.341"
         style="fill:#ee293d;fill-opacity:1;fill-rule:nonzero;stroke:none"
         id="path46" />
      <path
         d="m 185.992,829.461 c 0,0 21.238,-116.563 33.25,-133.32 43.75,-91.68 138.25,-171.68 230.996,-213.34 0,0 193.375,-68.34 365.754,-125 0,0 261.138,-58.153 367.508,-204.582 119,136.242 336,194.582 336,194.582 184.22,57.078 385,130 385,130 212.62,75 260.75,286.66 260.75,286.66 48.47,222.918 -10.51,378.339 -10.51,378.339 -68.24,215.84 -71.75,415.01 -71.75,415.01 -7.8,129.81 6.74,219.16 28,311.66"
         style="fill:#009e59;fill-opacity:1;fill-rule:nonzero;stroke:none"
         id="path48" />
      <path
         d="m 185.992,829.461 c 0,0 21.238,-116.563 33.25,-133.32 43.75,-91.68 138.25,-171.68 230.996,-213.34 0,0 193.375,-68.34 365.754,-125 0,0 261.138,-58.153 367.508,-204.582 119,136.242 336,194.582 336,194.582 184.22,57.078 385,130 385,130 212.62,75 260.75,286.66 260.75,286.66 48.47,222.918 -10.51,378.339 -10.51,378.339 -68.24,215.84 -71.75,415.01 -71.75,415.01 -7.8,129.81 6.74,219.16 28,311.66"
         style="fill:none;stroke:#d7d6d6;stroke-width:7.5;stroke-linecap:butt;stroke-linejoin:miter;stroke-miterlimit:4;stroke-dasharray:none;stroke-opacity:1"
         id="path50" />
      <path
         d="m 1186.22,2520.72 c 0,0 -382.337,-242.12 -895.915,-23.19 L 24.9922,2142.08 c 0,0 180.1208,-239.54 150.9058,-592.41 0,0 -14.597,-195.76 -77.8863,-440.46 0,0 -51.1133,-203.48 12.1683,-417.249 0,0 57.613,-186.313 297.769,-299.641 0,0 205.473,-82.859 402.434,-137.379 0,0 262.697,-88.203 374.287,-227.4605 m 1.55,2494.0795 c 0,0 378.5,-243.82 892.09,-24.89 l 265.31,-355.45 c 0,0 -180.12,-239.54 -150.91,-592.41 0,0 14.61,-195.76 77.89,-440.46 0,0 51.11,-203.471 -12.18,-417.248 0,0 -57.59,-186.313 -297.75,-299.641 0,0 -210.1,-82 -402.43,-137.383 0,0 -261.6,-87.828 -373.57,-226.5975"
         style="fill:none;stroke:#231f20;stroke-width:40;stroke-linecap:butt;stroke-linejoin:miter;stroke-miterlimit:4;stroke-dasharray:none;stroke-opacity:1"
         id="path52" />
      <path
         d="m 117.66,835.691 2080.97,1086.699 -8.62,-66.4 L 130.531,780.82 117.66,835.691"
         style="fill:#fcd313;fill-opacity:1;fill-rule:nonzero;stroke:none"
         id="path54" />
      <path
         d="m 1813.95,1287.6 0.42,34.58 -1461.671,1.04 v 53.12 l 1461.671,-0.83 v 34.79 l 189.58,-57.5 -190,-65.2"
         style="fill:#fcd313;fill-opacity:1;fill-rule:nonzero;stroke:none"
         id="path56" />
      <path
         d="m 811.145,843.59 29.707,-17.711 733.798,1264.131 45.98,-26.64 L 887.004,799.141 917.102,781.699 772.293,646.512 811.145,843.59"
         style="fill:#fcd313;fill-opacity:1;fill-rule:nonzero;stroke:none"
         id="path58" />
      <path
         d="m 904.504,1936.35 -29.902,-17.37 748.538,-1255.468 -45.62,-27.25 -748.711,1255.368 -29.868,-17.84 -47.843,192.25 153.406,-129.69"
         style="fill:#fcd313;fill-opacity:1;fill-rule:nonzero;stroke:none"
         id="path60" />
      <path
         d="m 1731.04,1433.19 c 121.05,0 219.2,98.14 219.2,219.2 0,121.06 -98.15,219.2 -219.2,219.2 -121.06,0 -219.22,-98.14 -219.22,-219.2 0,-121.06 98.16,-219.2 219.22,-219.2"
         style="fill:#fcd313;fill-opacity:1;fill-rule:nonzero;stroke:none"
         id="path62" />
      <path
         d="m 646.031,843.191 c 121.059,0 219.199,98.129 219.199,219.189 0,121.07 -98.14,219.2 -219.199,219.2 -121.058,0 -219.199,-98.13 -219.199,-219.2 0,-121.06 98.141,-219.189 219.199,-219.189"
         style="fill:#fcd313;fill-opacity:1;fill-rule:nonzero;stroke:none"
         id="path64" />
      <path
         d="m 1196.04,1768.19 c 121.05,0 219.2,98.14 219.2,219.2 0,121.06 -98.15,219.2 -219.2,219.2 -121.06,0 -219.208,-98.14 -219.208,-219.2 0,-121.06 98.148,-219.2 219.208,-219.2"
         style="fill:#fcd313;fill-opacity:1;fill-rule:nonzero;stroke:none"
         id="path66" />
      <path
         d="m 1191.04,533.191 c 121.05,0 219.2,98.129 219.2,219.188 0,121.07 -98.15,219.199 -219.2,219.199 -121.06,0 -219.208,-98.129 -219.208,-219.199 0,-121.059 98.148,-219.188 219.208,-219.188"
         style="fill:#fcd313;fill-opacity:1;fill-rule:nonzero;stroke:none"
         id="path68" />
      <path
         d="M 456.441,1768.63 649.582,1724.54 632.328,1694.33 1902.02,970.148 1875.67,924.02 605.879,1648.01 589.094,1617.78 456.441,1768.63"
         style="fill:#fcd313;fill-opacity:1;fill-rule:nonzero;stroke:none"
         id="path70" />
      <path
         d="m 1191.04,1202.47 c 82.73,0 149.81,67.13 149.81,149.91 0,82.79 -67.08,149.92 -149.81,149.92 -82.74,0 -149.82,-67.13 -149.82,-149.92 0,-82.78 67.08,-149.91 149.82,-149.91"
         style="fill:#231f20;fill-opacity:1;fill-rule:nonzero;stroke:none"
         id="path72" />
      <path
         d="m 1191.04,1202.47 c 82.73,0 149.81,67.13 149.81,149.91 0,82.79 -67.08,149.92 -149.81,149.92 -82.74,0 -149.82,-67.13 -149.82,-149.92 0,-82.78 67.08,-149.91 149.82,-149.91 z"
         style="fill:none;stroke:#fcd313;stroke-width:30;stroke-linecap:butt;stroke-linejoin:miter;stroke-miterlimit:4;stroke-dasharray:none;stroke-opacity:1"
         id="path74" />
      <path
         d="m 1716.04,828.191 c 121.05,0 219.2,98.129 219.2,219.189 0,121.07 -98.15,219.2 -219.2,219.2 -121.06,0 -219.22,-98.13 -219.22,-219.2 0,-121.06 98.16,-219.189 219.22,-219.189"
         style="fill:#fcd313;fill-opacity:1;fill-rule:nonzero;stroke:none"
         id="path76" />
      <path
         d="m 636.031,1433.19 c 121.059,0 219.199,98.14 219.199,219.2 0,121.06 -98.14,219.2 -219.199,219.2 -121.058,0 -219.199,-98.14 -219.199,-219.2 0,-121.06 98.141,-219.2 219.199,-219.2"
         style="fill:#fcd313;fill-opacity:1;fill-rule:nonzero;stroke:none"
         id="path78" />
      <path
         d="m 636.031,1433.19 c 121.059,0 219.199,98.14 219.199,219.2 0,121.06 -98.14,219.2 -219.199,219.2 -121.058,0 -219.199,-98.14 -219.199,-219.2 0,-121.06 98.141,-219.2 219.199,-219.2 z"
         style="fill:none;stroke:#fcd313;stroke-width:7.5;stroke-linecap:butt;stroke-linejoin:miter;stroke-miterlimit:1;stroke-dasharray:none;stroke-opacity:1"
         id="path80" />
      <path
         d="m 1135.85,740.051 23.31,4.008 0.93,1457.501 53.13,0.41 -0.72,-1461.251 46.07,-0.117 -56.04,-190.032 -66.68,189.481"
         style="fill:#fcd313;fill-opacity:1;fill-rule:nonzero;stroke:none"
         id="path82" />
      <path
         d="m 1194.42,1934.8 c -11.16,-6.48 -24.48,-11.16 -37.8,-11.16 -14.4,0 -30.6,8.64 -30.6,24.84 0,15.12 14.03,25.2 25.56,32.4 z m -13.82,104.5 c -8.72,9.69 -21.44,22.61 -21.44,35.89 0,13.28 10.18,22.26 22.89,22.26 14.54,0 23.99,-11.49 23.99,-25.13 0,-14.71 -13.09,-26.2 -25.44,-33.02 z m 75.67,-171.91 h 88.19 l -60.84,63.88 3.24,3.23 34.2,36.61 -39.96,38.04 c -10.08,-14.35 -22.32,-26.55 -35.6,-38.4 l -34.09,35.89 c 28,14 50.25,31.23 50.25,64.96 0,46.42 -41.64,73.85 -85.06,73.85 -43.68,0 -84.31,-27.79 -84.31,-74.57 0,-22.25 10.79,-35.17 19.4,-47.01 l 5.77,-7.9 -6.48,-2.87 c -33.92,-14.58 -58.05,-34.38 -58.05,-75.06 0,-49.55 40.33,-77.52 87.12,-77.52 32.77,0 65.88,13.98 92.88,32.27 l 23.34,-25.4"
         style="fill:#231f20;fill-opacity:1;fill-rule:nonzero;stroke:none"
         id="path84" />
      <path
         d="m 655.344,1668.38 -28.703,-51.18 -61.098,67.7 0.355,0.63 z m 56.429,-9.78 49.77,-7.68 36.797,65.62 -286.758,43.62 -37.691,-67.2 185.679,-223.85 36.633,65.32 -31.984,39.39 47.554,84.78"
         style="fill:#231f20;fill-opacity:1;fill-rule:nonzero;stroke:none"
         id="path86" />
      <path
         d="m 544.602,1167.37 c 32.562,22.53 61.722,39.96 103.269,40.13 45.66,0.02 82.141,-22.96 108.629,-59.77 49.809,-69.27 37.441,-151.332 -31.816,-201.16 -71.602,-51.492 -153.551,-36.808 -204.633,34.192 -32.571,45.308 -37.34,95.088 -9.801,143.718 l 61.891,-37.95 c -15.36,-23.03 -17.411,-49.79 -0.797,-72.87 27.109,-37.691 77.136,-31.422 110.746,-7.25 34.199,24.6 54.262,70.07 27.14,107.76 -17.859,24.85 -44.39,34.59 -71.492,18.64 l 33.633,-46.75 -45.008,-32.38 -81.761,113.69"
         style="fill:#231f20;fill-opacity:1;fill-rule:nonzero;stroke:none"
         id="path88" />
      <path
         d="m 1627.89,1557.86 -33.25,62.24 239.45,127.84 33.23,-62.24 -239.43,-127.84"
         style="fill:#231f20;fill-opacity:1;fill-rule:nonzero;stroke:none"
         id="path90" />
      <path
         d="m 1755.21,963.32 c 15.26,7.168 28.8,19.129 36.1,34.789 5.48,11.751 5.94,30.591 -7.75,37.001 -14.36,6.7 -27.98,-8.01 -36.74,-17.41 l -12.51,-14.04 c -26.1,-29.531 -55.72,-47.871 -95.53,-29.281 -24.46,11.41 -46.83,29.011 -54.33,56.351 -7.33,26.87 -2.14,55.83 9.43,80.63 14.47,30.99 39.07,56.44 68.42,73.34 l 38.75,-51.47 c -21.49,-9.44 -41.75,-23.02 -51.95,-44.88 -7.01,-15.01 -6.97,-34.48 10.32,-42.57 17.95,-8.37 35.87,13.85 46.18,25.73 30.15,34.78 52.93,56.33 100.55,34.1 49.91,-23.3 65.93,-74.09 42.93,-123.34 -11.58,-24.801 -33.58,-51.481 -56.17,-67.54 l -37.7,48.59"
         style="fill:#231f20;fill-opacity:1;fill-rule:nonzero;stroke:none"
         id="path92" />
      <path
         d="m 1224.71,828.641 h 138.24 l -111.35,-83.512 43.2,-132.469 -110.88,81.59 -110.88,-81.59 43.67,132.469 -112.32,83.512 h 137.76 l 41.77,128.687 40.79,-128.687"
         style="fill:#231f20;fill-opacity:1;fill-rule:nonzero;stroke:none"
         id="path94" />
      <path
         d="m 1159.55,2526.56 26.67,19.58 23.33,-15.42 -23.33,-15.83 -26.67,11.67"
         style="fill:#231f20;fill-opacity:1;fill-rule:nonzero;stroke:none"
         id="path96" />
    </g>
  </g>
</svg>
