<?xml version="1.0" encoding="UTF-8" standalone="no"?>
<!-- Created with Inkscape (http://www.inkscape.org/) -->

<svg
   version="1.1"
   id="svg2"
   width="368.46667"
   height="422.04001"
   viewBox="0 0 368.46667 422.04001"
   sodipodi:docname="Halmstads BK.eps"
   xmlns:inkscape="http://www.inkscape.org/namespaces/inkscape"
   xmlns:sodipodi="http://sodipodi.sourceforge.net/DTD/sodipodi-0.dtd"
   xmlns="http://www.w3.org/2000/svg"
   xmlns:svg="http://www.w3.org/2000/svg">
  <defs
     id="defs6" />
  <sodipodi:namedview
     id="namedview4"
     pagecolor="#ffffff"
     bordercolor="#000000"
     borderopacity="0.25"
     inkscape:showpageshadow="2"
     inkscape:pageopacity="0.0"
     inkscape:pagecheckerboard="0"
     inkscape:deskcolor="#d1d1d1" />
  <g
     id="g8"
     inkscape:groupmode="layer"
     inkscape:label="ink_ext_XXXXXX"
     transform="matrix(1.3333333,0,0,-1.3333333,0,422.04)">
    <g
       id="g10"
       transform="scale(0.1)">
      <path
         d="m 1411.09,3142.51 c 153.67,7.06 216.14,-108.75 339.95,-200.02 100.1,-73.8 139.23,-137.1 240,-210 176.63,-127.79 311.38,-137.15 500,-250 99.51,-59.54 151.38,-112.85 204.23,-207.15 84.94,-151.59 -1.4,-271.13 -54.23,-432.85 -91.47,-280 -217.41,-438.64 -290,-740 -39.79,-165.185 -14.06,-269.56 -70,-430.002 -28.17,-80.765 -38.75,-131.511 -90,-200 -96.24,-128.597 -212.43,-136.586 -360,-200 C 1618.18,181.031 1517.44,60.7773 1341.09,62.5234 1196.73,63.9492 1116.73,209.645 931.035,282.488 809.254,330.266 769.496,344.395 679.648,406.723 622.125,446.637 583.879,466.055 542.422,522.488 403.883,711.105 454.477,883.551 391.035,1112.49 314.398,1389.03 259.586,1541.61 178.188,1816.8 127.977,1986.55 12.8672,2079.63 51.0352,2252.49 c 26.832,121.51 62.7148,206.97 169.9998,270 211.461,124.23 374.18,116.97 590,240 126.875,72.33 203.085,125.07 310.005,210 111.46,88.54 159.08,164 290.05,170.02"
         style="fill:#ffffff;fill-opacity:1;fill-rule:evenodd;stroke:none"
         id="path12" />
      <path
         d="m 1411.09,3142.51 c 153.67,7.06 216.14,-108.75 339.95,-200.02 100.1,-73.8 139.23,-137.1 240,-210 176.63,-127.79 311.38,-137.15 500,-250 99.51,-59.54 151.38,-112.85 204.23,-207.15 84.94,-151.59 -1.4,-271.13 -54.23,-432.85 -91.47,-280 -217.41,-438.64 -290,-740 -39.79,-165.185 -14.06,-269.56 -70,-430.002 -28.17,-80.765 -38.75,-131.511 -90,-200 -96.24,-128.597 -212.43,-136.586 -360,-200 C 1618.18,181.031 1517.44,60.7773 1341.09,62.5234 1196.73,63.9492 1116.73,209.645 931.035,282.488 809.254,330.266 769.496,344.395 679.648,406.723 622.125,446.637 583.879,466.055 542.422,522.488 403.883,711.105 454.477,883.551 391.035,1112.49 314.398,1389.03 259.586,1541.61 178.188,1816.8 127.977,1986.55 12.8672,2079.63 51.0352,2252.49 c 26.832,121.51 62.7148,206.97 169.9998,270 211.461,124.23 374.18,116.97 590,240 126.875,72.33 203.085,125.07 310.005,210 111.46,88.54 159.08,164 290.05,170.02 z"
         style="fill:none;stroke:#1a5dad;stroke-width:10;stroke-linecap:butt;stroke-linejoin:miter;stroke-miterlimit:3.8637;stroke-dasharray:none;stroke-opacity:1"
         id="path14" />
      <path
         d="m 1401.09,3122.51 c 153.67,7.06 216.14,-108.75 339.95,-200.02 100.1,-73.8 139.23,-137.1 240,-210 176.63,-127.79 311.38,-137.15 500,-250 99.51,-59.54 151.38,-112.85 204.23,-207.15 84.94,-151.59 -1.4,-271.13 -54.23,-432.85 -91.47,-280 -217.41,-438.64 -290,-740 -39.79,-165.185 -14.06,-269.56 -70,-430.002 -28.17,-80.765 -39.66,-130.843 -90,-200 C 2078.14,311.137 1937.23,297.297 1789.65,233.879 1576.8,142.422 1507.44,40.7773 1331.09,42.5234 1186.73,43.9492 1118.11,182.488 932.422,255.336 810.645,303.109 763.5,320.996 669.648,386.723 612.301,426.891 573.879,446.055 532.422,502.488 393.883,691.105 444.477,863.551 381.035,1092.49 304.398,1369.03 245.941,1520.57 168.188,1796.8 120.512,1966.18 11.3516,2061.05 51.0352,2232.49 c 26.8515,116.01 52.7148,196.97 159.9998,260 211.461,124.23 373.594,125.03 590,250 126.453,73.03 203.085,125.07 310.005,210 111.46,88.54 159.08,164 290.05,170.02 z"
         style="fill:none;stroke:#cba952;stroke-width:85.039;stroke-linecap:butt;stroke-linejoin:miter;stroke-miterlimit:3.8637;stroke-dasharray:none;stroke-opacity:1"
         id="path16" />
      <path
         d="m 576.012,1087.53 c 2.308,-25.34 47.574,-13.53 65.051,4.96 l 855.417,904.55 c 119.34,126.2 217.17,203.19 239.61,375.44 9.59,73.59 7.25,117.84 -10.05,190.01 -27.5,67.13 -54.24,103.59 -109.99,150 -62.4,51.94 -109.38,75.62 -190.01,85 -68.48,7.97 -110.27,-1.29 -175,-25 -168.6,-61.73 -261.157,-130.83 -418.017,-215.45 0,0 -207.269,-97.33 -341.988,-154.55 -73.715,-21.15 -111.41,-49.42 -170,-95 -45.472,-35.37 -50.93,-78.1 -60,-135 -7.066,-44.31 -10.058,-72.67 5.012,-114.94 l 204.988,-575.06 c 53.516,-146.59 93.297,-266.81 104.977,-394.96"
         style="fill:#1a5dad;fill-opacity:1;fill-rule:evenodd;stroke:none"
         id="path18" />
      <path
         d="m 576.012,1087.53 c 2.308,-25.34 47.574,-13.53 65.051,4.96 l 855.417,904.55 c 119.34,126.2 217.17,203.19 239.61,375.44 9.59,73.59 7.25,117.84 -10.05,190.01 -27.5,67.13 -54.24,103.59 -109.99,150 -62.4,51.94 -109.38,75.62 -190.01,85 -68.48,7.97 -110.27,-1.29 -175,-25 -168.6,-61.73 -261.157,-130.83 -418.017,-215.45 0,0 -207.269,-97.33 -341.988,-154.55 -73.715,-21.15 -111.41,-49.42 -170,-95 -45.472,-35.37 -50.93,-78.1 -60,-135 -7.066,-44.31 -10.058,-72.67 5.012,-114.94 l 204.988,-575.06 c 53.516,-146.59 93.297,-266.81 104.977,-394.96 z"
         style="fill:none;stroke:#cba952;stroke-width:42.52;stroke-linecap:butt;stroke-linejoin:miter;stroke-miterlimit:3.8637;stroke-dasharray:none;stroke-opacity:1"
         id="path20" />
      <path
         d="m 1097.38,1139.65 c 20.64,22.13 21.17,21.64 35.92,7.88 l 75.88,-70.76 c 49,-45.7 50.25,-51.77 32.38,-80.438 l -9.24,-13.066 c -0.76,-7.168 11.36,-18.465 18.45,-17.2 22.54,26.278 46.09,52.594 70.66,78.934 22.6,24.24 47.21,49.57 72.84,74.94 0.77,7.17 -11.36,18.46 -18.45,17.2 l -13.89,-10.68 c -26.83,-20.31 -33.46,-20.03 -82.48,25.67 l -196.02,182.8 c -49.02,45.7 -49.75,52.3 -31.89,80.96 l 8.25,12.02 c 0.76,7.16 -11.36,18.46 -18.45,17.2 -21.55,-25.23 -43.625,-49.96 -67.707,-75.79 -23.582,-25.29 -48.195,-50.61 -76.281,-78.62 -0.758,-7.16 11.359,-18.46 18.449,-17.19 l 15.379,12.26 c 26.816,20.31 32.961,19.5 81.97,-26.2 l 61.13,-57 c 15.28,-14.25 15.81,-14.74 -4.83,-36.87 L 967.234,1056.09 c -20.144,-21.61 -21.16,-21.64 -36.445,-7.39 l -61.125,57 c -49.012,45.7 -49.746,52.3 -33.359,79.38 l 8.734,12.54 c 0.77,7.17 -11.348,18.47 -18.441,17.2 -20.567,-24.16 -44.61,-51.01 -66.727,-74.72 -23.586,-25.3 -49.668,-52.21 -74.797,-77.04 -0.769,-7.17 11.352,-18.47 18.442,-17.2 l 13.379,11.17 c 26.855,19.29 33.492,19.02 82.5,-26.69 L 995.422,847.543 c 49.008,-45.703 49.758,-52.305 32.378,-80.438 l -10.21,-14.121 c -0.77,-7.164 11.34,-18.468 18.45,-17.203 24,27.864 48.04,54.699 71.64,79.996 22.11,23.711 47.2,49.571 76.27,78.621 0.77,7.165 -11.35,18.469 -18.45,17.2 l -17.83,-14.899 c -26.33,-19.781 -32.96,-19.5 -81.98,26.196 l -75.885,70.769 c -14.746,13.756 -14.785,14.776 5.359,36.376 l 102.216,109.61"
         style="fill:#cba952;fill-opacity:1;fill-rule:evenodd;stroke:none"
         id="path22" />
      <path
         d="m 1239.53,1358.36 c -12.47,-13.36 -11.6,-33.7 1.77,-46.16 13.67,-12.75 34.14,-11.74 46.32,1.32 12.32,13.21 11.76,33.86 -1.77,46.46 -13.37,12.47 -33.99,11.6 -46.32,-1.62"
         style="fill:#cba952;fill-opacity:1;fill-rule:evenodd;stroke:none"
         id="path24" />
      <path
         d="m 1448.14,1333.01 c 47.41,-44.22 48.17,-50.82 30.79,-78.96 l -11.09,-18.23 c -2.35,-5.69 11.35,-18.46 18.45,-17.19 26.95,31.01 50.51,57.32 74.59,83.15 14.24,15.27 35.02,33.34 52.71,52.31 29.97,32.14 65.26,73.14 84.61,117.14 19.38,44.01 17.94,99.54 -31.02,144.22 -51.61,47.14 -111.94,37.38 -159.72,4.1 -5.47,-3.75 -9.51,-4.92 -11.09,-3.44 -2.64,2.46 0.17,9.69 4.03,15.94 11.02,20.27 28.52,73.9 -15.75,115.18 -31.1,28.99 -66,35.93 -100.83,26.05 -35.32,-10.41 -72.57,-38.73 -119.74,-89.32 -49.15,-52.69 -82.91,-93.13 -117.62,-135.64 -6.85,-8.39 9.95,-22.08 17.01,-19.79 l 15.38,12.26 c 23.26,19.67 30.04,15.32 83.27,-34.31 z m -154.04,279.61 c -23.18,21.62 -26.91,26.08 -3.82,50.84 33.91,36.36 83.11,43.69 128.95,0.93 31.62,-29.48 44.87,-73.36 2.62,-118.69 -25.55,-27.4 -27.1,-26.94 -40.8,-14.17 z m 146.5,-136.61 c -21.09,19.65 -21.62,20.14 5.42,49.13 47.16,50.58 103.88,46.95 149.73,4.21 42.68,-39.81 53.55,-88.37 17.19,-127.37 -38.33,-41.1 -69.06,-22.29 -110.17,16.04 l -62.17,57.99"
         style="fill:#cba952;fill-opacity:1;fill-rule:evenodd;stroke:none"
         id="path26" />
      <path
         d="m 1608.15,1753.66 c -12.46,-13.36 -11.6,-33.7 1.77,-46.16 13.67,-12.75 34.14,-11.74 46.33,1.32 12.31,13.21 11.75,33.85 -1.78,46.46 -13.37,12.46 -33.99,11.6 -46.32,-1.62"
         style="fill:#cba952;fill-opacity:1;fill-rule:evenodd;stroke:none"
         id="path28" />
      <path
         d="m 1691.01,1986.47 c -49.02,45.7 -49.76,52.3 -31.86,79.95 l 11.65,16.72 c 1.26,7.69 -10.86,18.99 -18.45,17.2 -24.99,-28.91 -49.03,-55.75 -72.62,-81.05 -24.56,-26.35 -49.66,-52.2 -75.29,-77.57 -2.23,-8.75 9.88,-20.04 18.45,-17.2 l 15.87,12.79 c 26.32,19.78 32.96,19.51 81.96,-26.2 l 196.04,-182.8 c 49,-45.7 49.74,-52.3 31.84,-79.95 l -11.65,-16.72 c -0.77,-7.16 11.36,-18.46 18.45,-17.19 24.99,28.91 50.01,56.8 72.13,80.51 23.58,25.3 48.69,51.15 75.78,78.1 0.77,7.17 -10.82,17.98 -18.45,17.2 L 1969,1777.47 c -26.32,-19.78 -32.96,-19.5 -81.97,26.2 l -55.33,51.6 c -28.46,26.53 -35.34,33.94 -24.04,46.06 10.81,11.59 31.81,8.76 78.48,0.7 l 68.74,-11.87 c 12.8,-2.11 67.7,-11.92 75.39,-13.18 7.7,-1.26 12.37,-3.64 14.48,-5.61 2.1,-1.96 1.27,-7.09 -3.09,-13.87 l -9.12,-16.12 c -2.25,-8.75 3.85,-14.26 12.34,-9.38 26.47,30.5 43.26,58.6 65.01,86.24 20.5,26.05 40.92,57.64 61.17,85.91 1.79,7.2 17.49,53.23 -6.59,59.29 l -19.7,-34.7 c -16.4,-12.3 -19.31,-36.81 -51.55,-33.35 -80.84,8.39 -150.23,1.41 -214.33,11.91 -38.45,6.31 -47.72,9.04 -50.35,11.5 -2.11,1.97 -4.86,7.48 -5.74,18.15 l -4.79,49.8 c -6.04,70.65 -6.23,113.25 -6.23,144.29 0,17.67 -4.72,21.21 -2.35,44.77 -3.54,23.78 0.17,33.21 -5.89,43.82 -15.17,12.12 -31.98,19.02 -41.47,-5.9 -9.43,-24.74 -27.1,-92.12 -57.43,-126.16 -4.28,-8.81 21.06,-20.54 30.15,-18.18 l 22.56,7.23 c 7.98,5.37 16.36,-19.41 12.96,-20.03 2.12,-1.97 -1.25,-5.37 1.19,-16.5 9.05,-39.96 11.72,-93.81 19.4,-153.19 2.69,-18.26 3.05,-58.01 -7.27,-69.08 -5.9,-6.32 -10.95,-7.52 -28.34,8.7 l -64.28,59.95"
         style="fill:#cba952;fill-opacity:1;fill-rule:evenodd;stroke:none"
         id="path30" />
      <path
         d="m 2016.14,2191.17 c -12.47,-13.37 -11.61,-33.71 1.76,-46.17 13.67,-12.75 34.15,-11.74 46.33,1.32 12.32,13.22 11.75,33.86 -1.77,46.46 -13.37,12.47 -33.99,11.61 -46.32,-1.61"
         style="fill:#cba952;fill-opacity:1;fill-rule:evenodd;stroke:none"
         id="path32" />
      <path
         d="m 712.379,2107.83 c 0,150.4 121.922,272.33 272.328,272.33 150.413,0 272.333,-121.93 272.333,-272.33 0,-150.41 -121.92,-272.34 -272.333,-272.34 -150.406,0 -272.328,121.93 -272.328,272.34"
         style="fill:#cba952;fill-opacity:1;fill-rule:nonzero;stroke:none"
         id="path34" />
      <path
         d="m 712.379,2107.83 c 0,150.4 121.922,272.33 272.328,272.33 150.413,0 272.333,-121.93 272.333,-272.33 0,-150.41 -121.92,-272.34 -272.333,-272.34 -150.406,0 -272.328,121.93 -272.328,272.34 z"
         style="fill:none;stroke:#1a5dad;stroke-width:28.346;stroke-linecap:butt;stroke-linejoin:miter;stroke-miterlimit:3.8637;stroke-dasharray:none;stroke-opacity:1"
         id="path36" />
      <path
         d="m 811.988,2320.66 c 67.446,56.6 200.692,8.85 297.602,-106.64 96.91,-115.5 120.8,-255 53.35,-311.61 -67.45,-56.59 -200.682,-8.85 -297.608,106.65 -96.914,115.49 -120.797,255 -53.344,311.6"
         style="fill:#cba952;fill-opacity:1;fill-rule:nonzero;stroke:none"
         id="path38" />
      <path
         d="m 811.988,2320.66 c 67.446,56.6 200.692,8.85 297.602,-106.64 96.91,-115.5 120.8,-255 53.35,-311.61 -67.45,-56.59 -200.682,-8.85 -297.608,106.65 -96.914,115.49 -120.797,255 -53.344,311.6 z"
         style="fill:none;stroke:#1a5dad;stroke-width:28.346;stroke-linecap:butt;stroke-linejoin:miter;stroke-miterlimit:3.8637;stroke-dasharray:none;stroke-opacity:1"
         id="path40" />
      <path
         d="M 798.258,2310.61 1166.82,1905.49"
         style="fill:none;stroke:#1a5dad;stroke-width:28.346;stroke-linecap:butt;stroke-linejoin:miter;stroke-miterlimit:3.8637;stroke-dasharray:none;stroke-opacity:1"
         id="path42" />
      <path
         d="m 756.594,2228.05 c 36.035,-4.73 62.902,4.91 87.719,31.47 23.71,25.37 31.55,50.75 26.273,85.08"
         style="fill:none;stroke:#1a5dad;stroke-width:28.346;stroke-linecap:butt;stroke-linejoin:miter;stroke-miterlimit:3.8637;stroke-dasharray:none;stroke-opacity:1"
         id="path44" />
      <path
         d="m 1213.92,1966.44 c -35.62,7.22 -63.1,-0.52 -89.7,-25.27 -25.42,-23.65 -35.02,-48.44 -32.15,-83.04"
         style="fill:none;stroke:#1a5dad;stroke-width:28.346;stroke-linecap:butt;stroke-linejoin:miter;stroke-miterlimit:3.8637;stroke-dasharray:none;stroke-opacity:1"
         id="path46" />
      <path
         d="m 1109.05,710.762 c 130.25,180.316 156.5,213.297 298.7,353.378 132.46,130.47 205.04,203.5 331.16,338.35 128.28,137.15 201.72,217.05 320.72,359.17 72.25,86.28 103.79,140.77 163.14,235.38 31.41,61.16 47.84,77.62 56.53,141.16 8.93,65.27 -6.19,173.4 65.5,171.83 19.43,-0.43 30.09,-5.97 47.88,-13.77 60.39,-26.49 83.38,-69.12 107.53,-130.48 17.15,-43.59 19.19,-71.86 18.35,-118.7 -1.31,-74.5 -27.31,-113.79 -55.05,-182.94 -68.18,-169.92 -127.12,-264.01 -194.12,-438.7 -37.55,-97.94 -57.21,-153.86 -89.18,-253.77 -31.44,-131.15 -46.94,-205.775 -70.33,-338.604 -14.22,-80.726 -12.57,-138.011 -32.61,-207.625 -30.75,-106.757 -105.61,-141.789 -203.3,-187.539 -87.23,-40.855 -130.22,-67.707 -219.65,-93.765 -112.93,-32.91 -175.02,-45.938 -298.99,-39.66 -71.73,3.636 -116.19,19.812 -172.56,64.296 -58.04,45.793 -89.11,85.973 -104.18,158.352 -14.79,71.074 0,141.488 30.46,183.637"
         style="fill:#1a5dad;fill-opacity:1;fill-rule:evenodd;stroke:none"
         id="path48" />
      <path
         d="m 1109.05,710.762 c 130.25,180.316 156.5,213.297 298.7,353.378 132.46,130.47 205.04,203.5 331.16,338.35 128.28,137.15 201.72,217.05 320.72,359.17 72.25,86.28 103.79,140.77 163.14,235.38 31.41,61.16 47.84,77.62 56.53,141.16 8.93,65.27 -6.19,173.4 65.5,171.83 19.43,-0.43 30.09,-5.97 47.88,-13.77 60.39,-26.49 83.38,-69.12 107.53,-130.48 17.15,-43.59 19.19,-71.86 18.35,-118.7 -1.31,-74.5 -27.31,-113.79 -55.05,-182.94 -68.18,-169.92 -127.12,-264.01 -194.12,-438.7 -37.55,-97.94 -57.21,-153.86 -89.18,-253.77 -31.44,-131.15 -46.94,-205.775 -70.33,-338.604 -14.22,-80.726 -12.57,-138.011 -32.61,-207.625 -30.75,-106.757 -105.61,-141.789 -203.3,-187.539 -87.23,-40.855 -130.22,-67.707 -219.65,-93.765 -112.93,-32.91 -175.02,-45.938 -298.99,-39.66 -71.73,3.636 -116.19,19.812 -172.56,64.296 -58.04,45.793 -89.11,85.973 -104.18,158.352 -14.79,71.074 0,141.488 30.46,183.637 z"
         style="fill:none;stroke:#cba952;stroke-width:42.52;stroke-linecap:butt;stroke-linejoin:miter;stroke-miterlimit:3.8637;stroke-dasharray:none;stroke-opacity:1"
         id="path50" />
      <path
         d="m 1315.01,574.195 h -47.16 v 205.34 h -32.21 v 32.528 c 14.56,1.429 25.7,6.011 33.43,13.757 7.73,7.746 12.72,13.762 14.95,18.051 h 30.99 V 574.195"
         style="fill:#cba952;fill-opacity:1;fill-rule:evenodd;stroke:none"
         id="path52" />
      <path
         d="m 1513.14,717.344 c -1.95,-44.442 -11.21,-80.004 -27.79,-106.688 -16.48,-26.691 -40.44,-40.031 -71.87,-40.035 -8.15,0 -15.32,0.66 -21.53,1.969 -6.1,1.191 -11.74,2.375 -16.94,3.574 v 46.465 c 6.92,-1.91 13.54,-3.524 19.84,-4.824 6.41,-1.2 12.62,-1.789 18.63,-1.789 14.74,0 26.08,5.539 34.03,16.621 7.93,11.078 12.21,26.148 12.82,45.211 -2.95,-6.075 -8.96,-11.559 -18.02,-16.442 -9.05,-4.886 -17.54,-7.324 -25.47,-7.324 -23.71,0 -42.13,8.043 -55.25,24.125 -13.04,16.203 -19.54,39.133 -19.54,68.805 0,30.738 7.38,55.218 22.13,73.449 14.75,18.23 35.35,27.344 61.8,27.344 28.29,0 49.4,-8.758 63.34,-26.274 14.04,-17.394 21.98,-44.261 23.82,-80.597 0.19,-3.457 0.25,-7.864 0.14,-13.223 0,-5.363 -0.06,-8.82 -0.14,-10.367 z m -50.22,33.597 c 0,19.778 -3.11,33.895 -9.32,42.356 -6.09,8.578 -14.58,12.867 -25.47,12.867 -10.59,0 -18.93,-4.234 -25.03,-12.687 -6.11,-8.344 -9.17,-22.52 -9.17,-42.536 0,-19.066 3.06,-33.125 9.17,-42.175 6.1,-8.938 14.44,-13.403 25.03,-13.403 9.35,0 17.5,4.407 24.42,13.227 6.9,8.933 10.36,23.051 10.37,42.351"
         style="fill:#cba952;fill-opacity:1;fill-rule:evenodd;stroke:none"
         id="path54" />
      <path
         d="m 1786.09,575.934 h -44.43 v 197.398 h -30.33 v 31.27 c 13.71,1.371 24.2,5.781 31.48,13.226 7.29,7.442 11.99,13.223 14.09,17.348 h 29.19 V 575.934"
         style="fill:#cba952;fill-opacity:1;fill-rule:evenodd;stroke:none"
         id="path56" />
      <path
         d="m 1969.98,651.184 h -15.38 v -75.25 h -44.13 v 75.25 h -95.03 l -2.44,49.992 112.27,134 h 29.33 V 688.805 h 15.38 z m -58.93,37.621 v 78.855 l -65.99,-78.855 z"
         style="fill:#cba952;fill-opacity:1;fill-rule:evenodd;stroke:none"
         id="path58" />
      <path
         d="m 1602.11,822.016 c -11.64,0 -21.43,-4.067 -29.41,-12.188 -7.9,-8.129 -11.84,-18.129 -11.84,-30 0,-12.109 4.02,-22.308 12.07,-30.586 8.05,-8.285 17.85,-12.422 29.41,-12.422 11.25,0 20.63,4.02 28.13,12.071 7.5,8.043 11.25,18.277 11.25,30.703 0,12.261 -3.75,22.379 -11.25,30.351 -7.42,8.043 -16.88,12.067 -28.36,12.071 z m 4.34,73.945 h 20.85 l -39.72,-61.641 c 3.51,0.856 6.77,1.485 9.72,1.875 3.05,0.469 5.88,0.703 8.44,0.703 15.48,0 28.28,-5.429 38.44,-16.289 10.23,-10.781 15.35,-24.3 15.35,-40.546 0,-16.723 -5.51,-30.586 -16.51,-41.602 -11.03,-11.016 -24.97,-16.523 -41.84,-16.523 -16.57,0 -30.36,5.425 -41.38,16.289 -10.93,10.859 -16.4,24.175 -16.4,39.961 0,13.906 7.42,32.144 22.28,54.726 l 1.98,3.047 38.79,60"
         style="fill:#cba952;fill-opacity:1;fill-rule:evenodd;stroke:none"
         id="path60" />
      <path
         d="m 1628.11,598.922 c 9.37,-4.922 16.4,-11.367 21.09,-19.336 4.69,-7.969 7.03,-17.422 7.03,-28.359 0,-16.329 -5.23,-29.766 -15.7,-40.313 -10.47,-10.469 -23.95,-15.699 -40.43,-15.703 -15.78,0 -28.52,5.039 -38.21,15.117 -9.6,10.078 -14.49,23.438 -14.63,40.078 h 16.87 c 0.07,-12.343 3.43,-22.226 10.07,-29.648 6.64,-7.422 15.35,-11.133 26.14,-11.133 11.32,0 20.62,3.711 27.88,11.133 7.35,7.422 11.02,16.914 11.02,28.476 0,12.969 -3.86,22.848 -11.6,29.649 -7.74,6.797 -18.91,10.195 -33.51,10.195 -2.2,0 -3.84,-0.039 -4.93,-0.117 -1.09,0 -2.1,-0.039 -3.05,-0.117 v 14.179 c 0.95,-0.078 1.92,-0.156 2.94,-0.234 1.01,0 2.53,0 4.56,0 11.25,0 19.7,2.305 25.32,6.914 5.63,4.688 8.43,11.641 8.43,20.86 0,7.968 -2.42,14.531 -7.26,19.687 -4.77,5.156 -10.82,7.734 -18.17,7.734 -8.43,0 -15.04,-2.5 -19.79,-7.5 -4.78,-5 -7.28,-12.109 -7.5,-21.328 h -15.59 c 0.7,13.282 4.99,23.828 12.88,31.641 7.89,7.891 18.13,11.832 30.71,11.836 11.64,0 21.52,-4.141 29.64,-12.422 8.13,-8.281 12.19,-18.164 12.19,-29.648 0,-6.954 -1.29,-12.93 -3.87,-17.93 -2.57,-4.922 -6.75,-9.492 -12.53,-13.711"
         style="fill:#cba952;fill-opacity:1;fill-rule:evenodd;stroke:none"
         id="path62" />
      <path
         d="m 1552.29,698.43 h 99.8"
         style="fill:none;stroke:#cba952;stroke-width:10;stroke-linecap:butt;stroke-linejoin:miter;stroke-miterlimit:3.8637;stroke-dasharray:none;stroke-opacity:1"
         id="path64" />
    </g>
  </g>
</svg>
