<?xml version="1.0" encoding="UTF-8"?>
<svg id="Layer_1" data-name="Layer 1" xmlns="http://www.w3.org/2000/svg" viewBox="0 0 1080 1080">
  <defs>
    <style>
      .cls-1 {
        fill: #00844d;
      }

      .cls-2 {
        fill: #fff;
      }

      .cls-3 {
        fill: #fd0;
      }
    </style>
  </defs>
  <g>
    <path d="M747.29,1059.92c-2.61,2.29-6.56,7.87-12.64,11.36-3.6,2.06-7.42,2.25-9.72,1.74-2.33-.5-3.61-4.13-9.18-10.82-5.59-6.66-12.19-16.04-19.6-24.01-6.62-7.12-15.16-13.7-24.87-15-11.01-1.5-18.81-3.66-36.76-7.44-15.54-3.31-39.17-11.48-52.24-18.75-6.89-3.86-12.11-11.1-17.62-16.37-1.82.63-2.05-4.78-7.01,1.33-1.95,2.38-6.06,5.12-9.36,6.23-17.13,5.51-34.75,1.57-44.08-6.3-5.43-4.56-8.14-7.65-11.71-13.92-2.11-3.69-4.81-10.93-5.24-15.31-7.56,1.1-12.66.67-17.77,2.32-5.28,1.69-12.42,3.41-16.9,5.5-17.87,8.19-29.88,23.63-44.75,35.16-5.32,4.06-11.05,9.23-16.2,13.43-4.72,3.78-9.3,7.08-13.85,11.11-3.39,3.01-8.68,9.15-9.86,10.21-8.22,7.17-12.88,19.68-24.84,22.27-12.71,2.72-43.79-9.23-57.96-10.33-.25-3.41,2.05-6.68,4.01-8.82,8.1-8.8,27.55-13.09,38.8-19.63,13.77-8.07,25.7-20.58,37.77-30.74,3.85-3.26,6.81-7.43,10.08-11.33-34.08-2.71-63.75-6.07-89.41-16.89-14.4-6.06-29.94-14.99-42.81-23.41-4.56-2.99-10.82-8.2-13.85-10.13-2.56-1.6-4.48-3.68-7.55-4.98-6.28,29.24-12.33,58.63-18.15,88.14-1.71,8.56-3.24,14.76-5.21,21.98-.57,2.12-5.47,1.81-9.37,1.44-2.25-.25-15.1-2.27-16.32-4.53-1.71-3.14,2.08-16.26,2.46-18.28,1.97-10.49,10.82-57.71,12.14-63.29,1.53-10.58,7.73-36.02,9.56-44.86,0,0-26.69-29.83-29.25-32.74-8.78-9.95-18.22-16.56-28.97-24.67-.86-.66-4.64-2.39-5.35-2.94,2.6-.63,16.57-3.85,21.64-4.6,0-.2-6.41-2.49-6.21-2.53-24.08-12.52-43.36-37.42-56.66-60.44-3.74-6.45-9.75-19.92-10.58-19.6-2.4-5.16-6.58-14.88-8.31-19.45-6.46-16.88-17.05-61-13.15-45.15,0,0-2.2-8.89-5.89-26.63-3.67-17.72-5.88-24.2-8.67-36.51-7.08-23.97-18.42-54.66-21.37-64.49-.79-2.65-3.93-10.82-3.93-10.82,0,0,8.99,4.91,10.16,5.57-8.89-29.2-15.91-65.54-11.3-105.29,6.34-55.37,31.91-94.32,50.37-137.25,3.9-9.17,6.72-15.36,12.09-27.38,1.14-2.55,5.37-14.29,5.54-15.43,1.03-6.87,1.73-10.94,3.78-17.63,3.26-10.9,9.48-25.15,15.1-35.26,8.74-15.82,20.39-33.58,26.08-39.9,5.69-6.31,17.37-20.03,19.27-21.81,0,.04,42.61-38.41,64.22-50.37,8.22-4.61,15.94-6.54,23.93-11.33,15.46-9.4,30.81-20.58,47.85-28.96-6.41,13.62-14.25,22.35-18.89,37.77.71,0,3.03-.44,3.77,0,30.5-45.13,73.45-81.37,150.4-91.87,26-3.54,57.71,10.25,90.11,4.99l-.04,7.89c-16.54,11.65-29.47,21.39-45.3,33.67-19.36,14.91-38.15,29.3-55.9,46.54-4.62,4.49-28.68,28.22-29.47,29.47,13.99-7,34.38-8.57,48.87-9.28,33.88-1.77,74.99,13.18,107.03,5.04-7.28,9.21-12.95,9.36-21.4,16.36-13.87,11.38-22.32,29.28-36.52,40.3-17.87,13.77-37.81,23.93-60.44,32.74.15.04,0,3.58,0,3.78,6.57-.55,13.43,1.77,12.25,2.94-7.75,7.39-19.02,11.97-27.35,18.69-14.45,11.53-25.93,25.07-41.56,35.77,6.38,11.64,5.24,17.4.29,26.96,16.09-3.3,38.02-10.86,51.57-14.44,41.24-10.88,75.36-13.58,121.91-17.04,17.65-1.34,38.51-2.25,59.17-1.4,11.07.45,66.39,1.75,50.42.65,34.11,2.62,60.65,4.97,85.26,6.27-2.62-2.3-6.43-5.4-9.51-8.2-2.47-2.23-5.22-3.97-7.81-6.14-7.28-6.14-15.44-13.44-21.7-19.77-4.44-4.48-6.8-9.63-12.3-12.98-14.67-8.93-28.13-13.25-41.6-22.81-14.2-10.11-27.23-24.96-38.98-37.62-10.87-11.69-22.79-21.32-32.75-34,21.85,3.23,45.58,8.15,70.52,6.29,10.61-.8,23.1-2.93,36.16-4.17v-1.65s-8.84-10.17-10.89-12.14c-9.05-8.61-17.79-19.83-25.56-29.51-10.83-13.5-19.41-26.93-29.93-40.67-9.99-13.03-21.28-23.34-30.22-37.78,17.16,6.89,32.98,18.97,54.15,21.41,31.67,3.62,58.67-4.64,89.41,0,7.98,1.18,24.28,7.33,28.95,10.07,4.69,2.74,8.26,9.32,11.35,10.07,9.4,2.17-3.55-11.73,5.02-8.81,5.05,1.69,8.16,10.9,11.35,15.12,5.9,7.86,11.38,15.5,19.72,20.97,10.59,6.92,39.7,22.54,40.72,23.09,54.62,29.98,127.99,67.48,130.95,143.55-1.21-.88.43,6.94.43,6.94l-.38,22.01c.08-1.64-2.38-36.86-.89-36.73.63,1.22,7.76,16.97,8.48,19.02,2.31,6.92,4.65,15.93,8.52,25.57,5.37,13.37,10.35,25.79,16.67,38.7,8.3,16.96,19.5,35.81,27.61,52.92,6.93,14.64,9.84,24.92,14.67,41.73,5.78,20.27,13.43,49.29,15.56,72.85,2.35,26.8-1.04,53.79-6.31,73.77,2.84-.58,8.82-2,8.82-2,0,0-23.62,36.99-31.49,55.41-10.82,25.11-8.2,45.97-16.72,78.1-2.21,8.28-6.93,25.66-9.72,32.71-10.54,26.09-22.77,49.44-43.41,68.94-11.81,11.15-20.98,19.01-28.2,26.23l-5.52,4.27c10.73-1.34,17.44-2.32,28.03-3.76,0,.16-.06,3.74,0,3.78-5.01,2.43-12.61,4.28-17.64,7.55-3.22,2.05-5.93,7.6-8.82,10.08-7.26,6.14-14.29,11.61-21.4,17.63-11.41,9.6-22.01,15.05-32.7,25.31-7.94,7.62-15.25,17.82-22.7,25.06-6.81,6.53-24.4,19.28-25.41,20.14-20.67,17.8-129.97,54.53-156.59,54.37.18.13,4.45,2.02,4.45,2.3,5.94,1.73,12.43,3.07,18.89,4.3,8.51,1.57,16.17,2.78,23.93,5.77,9.28,3.59,55.79,35.03,37.77,47.86,0,0-4.87,5.22-7.5,7.52ZM318.06,316.96c-2.51,3.26-23.29,22.11-34.9,32.62-5.04,4.48-17.12,10.97-20.14,16.36-1.97,3.39-1.15,7.6-2.52,11.33-1.38,3.55-6.57,10.31-7.55,13.86-3.82,13.31-7.48,29.75-8.82,42.81-3.7,35.61,6.54,63.75,3.77,100.74-2.32,30.77-12.78,58.45-19.63,85.99,9.52,7.51,16,16.36,21.98,28.41l1.48-5.09c9.75-42.88,17.3-75.79,25.64-115.62,9.79-46.94,20.7-94.13,30.96-143.54,2.99-14.4,7.58-29.48,10.33-42.82,1.55-7.53,5.13-24.05,6.05-32.74,0,0-3.38,3.42-6.66,7.68ZM346.12,359.65c-15.25,90.69-39.78,180.62-58.45,269.47-5.81,27.67-12.4,57.79-18.97,84.32l7.5-17.05c1.31-3.93,4.72-9.82,7.99-18.9,10.43-29.24,24.93-78.11,27.36-87.35,2.44-9.22,6.35-21.98,8.65-31.53,2.29-9.56,4.13-16.88,5.03-20.14,14.24-54.27,20.16-111.2,24.67-178.81-.39,0-3.74.2-3.77,0ZM603.51,915.47c-.63-.47-1.71-1.32-2.94-5.55-2.42-8.21-3.29-31.65,8.34-51.62,10.67-18.29,24.44-30.38,34.27-36.28,9.84-5.9,25.59-14.14,19.03-10.86-6.57,3.29,11.04-5.39,16.33-8.27,5.31-2.88,15.79-10.74,24.67-19.12,13.21-12.44,23.65-37.9,29.48-57.69.43,0,3.57.27,3.77,0-3.46,25.42,2.39,43.32,6.8,64.1,0,0,3.94-9.84,5.8-17.51,4.32-17.82,10.07-35.73,18.89-49.11,3.34-5.16,18.27-21.84,18.94-25.7.48-2.88,1.87-2.67,2.47-4.52-41.01,0-75.56,4.22-117.1,2-40.13-2.15-90.5-12.64-139.9-12.27-72.08.54-163.3,15.93-230.85,33.64.59.55,12.45,18.02,14.43,20.99,3.28,4.92,7.87,11.15,17.37,15.08.98-6.49.91-16.92,1.49-24.19.19.31,4.29,5.12,5.04,6.29,1.1,1.78,3.98,4.65,5.29,6.42,6.61,9.05,12.41,14.43,20.99,21.32,23.45,18.81,53.65,29.95,79.5,46.55,14.96,9.61,27.66,24.25,39.04,37.78,12.44,14.8,24.56,25.54,28.96,49.11l1.77,4.94c4.84-3.43,7.68-4.01,17.11-4.05,23.18-.15,50.67,9.53,59.63,26.12,0,0,9.37-5.68,11.4-7.6Z"/>
    <g>
      <path class="cls-3" d="M338.22,754.43c-.98,7.28-1.33,18.03-3.49,24.54-4.61,13.8-7.09,30.41,6.58,52.87,1.97,3.24.75,7.17,3.77,8.82,5.94,3.23,17.73,3.88,25.05,5.7,12.64,3.02,22.73,6.43,33.9,10.68,4.02,1.48,12.23,8.04,14.19,8.54-17.63-17.43-35.67-41.78-50.93-59.72-4.56-5.36-12.04-13.44-15.85-19.34-6.18-9.49-4.33-13.22-10.15-23.09-.48-.79-2.83-8.49-3.07-9Z"/>
      <path class="cls-3" d="M751.36,1041.16c-6.51-8.55-11.33-15.98-19.64-21.66-2.29-1.57-4.71-3.18-12.68-7.87-7.97-4.7-34.54-7-55.96-14.43-2.21-.77-17.8-5.59-19.8-6.69-5.08-2.83-10.15-4.72-15.11-7.79-12.67-7.83-22.15-19.91-32.73-29.99-.47.59-3.04-.39-3.78,0,.63-.29-2.6,3.55-4.55,6.32-4.88,6.5-12.05,10.88-19.89,14.34,1.05,2.28,2.05,3.49,3.24,5.57,1.47,2.68,12.07,9.8,8.84,7.77,18.02,11.33,15.37,9.54,38.04,16.77,1.13.36,18.77,6.13,19.94,6.36,20.99,4.38,45.84,8.85,52.6,13.61,6.75,4.76,28.52,28.82,32.5,35.32,5.36,8.77,5.05,8.8,13.85,2.51,2.59-1.85,8.82-7.75,11.45-10.7,2.61-2.95,6.02-6.09,3.67-9.45Z"/>
      <path class="cls-3" d="M240.35,381.06c-7.28,1.33-30.41,24.62-39.04,28.96h-1.25c-2.83,8.02,1.33,23.45,0,32.74.39,0,3.42-.28,3.78,0,10.9-23.61,25.06-40.5,40.29-59.18-1.34-.74-.67-3.15-3.78-2.52Z"/>
      <path class="cls-3" d="M960.05,324.43c-4.3,12.79-7.74,23.45-11.81,36.48-2.16,6.77-7.81,22.17-9.94,29.2-5.2,16.92-7.54,23.67-13.11,41.32-7.4,23.43-17.05,56.12-23.4,84.39-7.34,32.58-11.81,46.34-19.24,80.45,1.65.59,6.89,15.85,9.18,30.6,2.83,14.43,1.31,24.92,3.93,52.46,1.11-.83,10.92-12.01,12.26-12.48,0-.44,16.35-18.42,22.45-23.65,4.87-4.25,10.87-8.08,15.47-12.45-26.83-88.1,6.86-209.32,23.93-287.47,2.16-10,5.26-25.31,5.91-35.14,1.12-16.9-2.62-29.52-4.6-43.29,0,0-4.79,40.75-11.05,59.57Z"/>
      <path class="cls-3" d="M921.32,827.23c7.86-8.98,16.74-16.24,19.14-18.05,26.56-20.29,41.79-46.93,55.41-80.58,3.29-8.27,7.09-19.65,9.34-28.93,3.22-13.74,6.58-26.17,8.28-39.07.11-1.06,2.34-13.7,2.47-15.11.46-6.54,4.33-20.17,6.63-27.8-1.22.79-3.62,2.62-5.32,4.62-2.09,2.43-14.48,20.19-17.12,24.44-6.68,10.74-13.11,21.8-19.68,32.74-8.15,13.41-15.27,26.83-24.67,39.03-27.97,36.2-60.78,62.47-92.91,91.98-1.25,1.15-8.22,7.41-9.31,8.75-4.34,5-5.15,5.53-9.05,10.92-.95,1.26-5.52,7.77-6.07,9.23-.55,1.34-2.71,4.41-3.48,5.65,10.58,0,22.22-3.96,29.93-4.91,20.4-2.59,32.01-3.92,51-6.27l5.42-6.65Z"/>
      <path class="cls-3" d="M684.57,136.97c9.06-.51,16.69-.95,25.45,1.06,21.04,4.84,34.95,9.21,46.6,16.37,2,1.22,10.53,6.09,17.94,10.77,7.43,4.68,10.81,9.66,14.87,12.24,4.08,2.58,10.3,7.05,11.56,7.87-9.62-18.37-16.91-46.54-19.86-69.91-1.37-10.83-.91-21.29-4.15-31.48-2.79-8.77-12.39-12.36-18.01-18.78-9.86-11.28-14.79-18.64-48.9-21.27-16.77-1.3-34.56,1.27-50.43,1.3-15.05,0-30.23,0-53.19-8.52,1.23,1.18,6.89,5.9,11.64,9.03,3.67,2.42,7.12,4.21,11.35,6.53,10.22,5.55,22.26,11.54,32.73,16.66,10.86,5.31,21.45,8.6,32.76,13.56,16.08,7,31.81,16.1,46.57,24.73,9.6,5.62,19.4,12.22,27.71,19.34,1.69,1.46,2.16,6.33,3.78,7.79-5.43-3.43-9.73-4.95-15.11-8.29-13.14-8.14-25.47-16.95-40.3-23.92-8.38-3.97-17.07-9.56-25.19-13.11-12.91-5.71-24.24-8.69-36.51-14.59-10.75-5.2-16.21-9.1-27.46-15.09-3.24-1.73-10.84-7.41-11.81-7.92-4.42-2.33-6.8-5.48-8.85-6.19,4.73,6.96,15.3,19.93,20.41,26.15,7.7,9.38,13.64,18.51,21.23,27.63,7.93,9.5,17.52,19.01,25.35,29.03.87-.47,1.81.9,2.53,1.26l7.28,7.75Z"/>
      <path class="cls-3" d="M907.81,270.42c-21.84,2.64-45.2,3.42-69.35,5.24-11.53.82-23.76,1.37-35.25,2.23-10.86.79-25.15.02-34.43.7-4.49.27-17.42-.78-25.13-.78l-36.84-30.44c-.55-1.37-9.7-8.51-10.5-9.73,17.71,3.93,37.42,6.53,51.5,4.91,10.27-1.22,24.39-5.35,34.41-6.88,29.48-4.53,58.91-1.78,79.68,5.58,16.73,5.9,30.17,16.39,34.12,19.34,3.93,2.95,11.8,9.84,11.8,9.84Z"/>
      <path class="cls-3" d="M914.69,269.44c16.95-2.33,30.1-6.39,44.34-9.69l4.31-1.03s-.04-7.96-.22-9.87c-.52-5.68-1.54-12-3.55-17.63-4.39-12.08-10.85-24.9-17.62-35.26-23.45-35.77-65.86-61.78-104.74-81.85-13.73-7.12-24.98-13.22-39.03-20.14.59,1.29,4.47,5.85,4.98,7.26,1.97,5.79,14.74,18.59,19.46,24.21,14.05,16.64,26.98,33.72,42.29,49.11,20.72,20.78,41.7,44.83,60.95,65.47,2.21,2.36,4.33,6.97,7.04,8.81,2.79,1.93-3.75,3.7-3.77,3.78-8.53-10.94-19.32-18.23-27.65-29.02-16.93-21.88-38.94-39.06-56.73-60.15-19.2-22.79-41.33-45.93-55.41-73.04-.39,0-4.9-6.34-5.16-6.57,4.08,18.25,7.46,49.98,13.08,70.56,5.43,19.95,13.77,35.08,23.64,50.99,3.73,6.03,10.44,21,10.82,21.1,7.22,1.96,13.66,4,20.99,5.58,9.17,1.97,15.37,4.24,24.92,8.85,8.84,4.29,12.82,7.82,16.06,10.16,16.73,12.13,20.98,18.36,20.98,18.36Z"/>
      <path class="cls-3" d="M183.28,1001.67c-.6,3.91-2.86,12.4-2.86,17.78,4.18,1.04,8.45,1.66,14.08,2.52,4.94-21.97,9.83-50.55,15.11-75.55,32.26-152.86,69.35-297.06,101.25-449.53,2.71-13.18,7.8-29.47,10.59-42.81,5.51-26.88,9.59-50.64,15.34-76.82,4.33-19.91,10.87-43.59,12.82-64.21-7.61,3.25-12.2,1.93-18.6,0-3.19,12.43-5.75,26.75-8.81,40.29-20.42,89.64-38.47,181.21-59.88,271.52-7.12,29.95-13.15,61.22-20.43,91.13-11.57,47.14-20.33,94.98-30.99,146.06-5.22,24.9-12.77,55.79-16.32,79.93-1.97,9.18-10.64,55.42-11.3,59.67Z"/>
      <path class="cls-3" d="M432.83,13.64c-14.68,1.3-30.93,3.93-42.63,7.87-50.65,16.87-81.32,40.66-110.84,79.35-2.75,3.6-5.85,8.44-8.8,11.98-4.41,5.2-11.72,8.81-15.11,15.11-6.46,11.85-9.6,31.1-10.08,43.61,8.74-8.33,14.76-15.7,22.67-24.95,3.9-4.64,9.72-10.65,13.85-15.05,2.25-2.48,2.64-2.77,5.03-5.1,10.79-10.62,23.14-22.09,35.26-31.42,47.67-36.89,83.85-55.16,151.1-75.61l-1.26-2.29c-12.4-.99-25.52-4.77-39.21-3.51Z"/>
      <path class="cls-3" d="M320.92,305.19c-4.5-3.96-4.93-17.75-3.14-22.51,1.48-3.91,5.29-10.06,9.79-13.36,8.52-6.22,26.43-4.76,32.92,2.73,10.56-10.12,29.3-24.75,42.29-37.06,0,0,12.17-7.09,12.17-7.51-26.2,0-62.5-2.12-91.5,1.22-35.89,4.09-89.72,23.02-113.33,40.29-9.12,6.65-13.53,20.9-20.15,30.22-14.05,19.72-30.61,37.7-46.59,55.41-6.92,7.59-9.7,13.06-16.08,21.24-2.92-1.65-8.09-.08-10.37-1.09,1.97-9.73,6.5-12.99,13.85-20.15,2.36-2.32,3.9-5.44,6.3-7.56,24.75-22.47,43.75-48.68,61.7-78.07,10.43-17.16,22.39-34,28.96-55.41,8.7-28.37,10.55-60.75,20.15-89.4,1.81-5.51,7.9-11.38,10.31-16.37,4.24-9.06,8.7-18.73,13.95-29.22-.75,0-8.44,5.69-9.14,5.29-12.68,8.48-22.19,13.83-23.17,14.39-13.42,7.35-23.85,11.03-36.01,19.61-5.24,3.62-18.69,15.24-23.45,19.3-44.89,37.78-78.62,82.5-89.88,153.21-1.53,9.6.67,22.55,1.26,30.22,2.25,30.34,5.39,54.38,12.59,78.07,4.88-3.23,13.51-9.88,20.72-16.44,10.38-9.44,15.21-15.82,23.35-18.82,3.39-1.29,4.49-.67,6.3-1.25-4.37,14.76-2.08,36.48,0,51.63.39,0,3.62-3.25,3.78-2.98,31.71-50.53,74.01-86.69,122.14-120.89,18.58-13.23,35.73-24.01,57.93-34.29-10,7.08-21.37,16.76-31.48,23.41-6.14,3.97-11.39,7.75-17.25,12.04-3.14,2.24-7.47,5.74-10.45,8.1-4.25,3.27-7.33,4.66-11.63,7.92-2.43,1.77-4.9,4.09-7.26,5.93-31.76,24.51-58.36,50.29-81.85,83.1-9.25,12.83-23.02,21.36-21.41,41.79.78-.67,8.18-7.87,10.07-10.08,3.27-3.93,8.58-8.37,12.59-11.56,10.78-8.69,6.58-14.12,10.07-27.7.83.51,4.06,0,5.04,0,4.37,10.78.87,4.09,8.82,8.81,10.93-6.89,22.5-14.05,34-21.4,3.58-2.32,20.7-14.71,25.19-17.86,4.95-3.57,18.3-14.29,22.91-18.22,12.67-11.02,16.46-13.79,28.92-25.93,3.54-3.93,6.95-8.04,6.07-8.82Z"/>
      <path class="cls-3" d="M426.1,128.44c-11.38.87-49.84,8.53-63.62,17.14-8.27,5.19-15.73,13.62-23.92,18.89-20.03,12.76-38.37,23.18-60.45,34-13.58,6.62-20.74,13.86-42.81,13.86-5.63,17.55-14.96,28.43-20.39,45.31,27-12.75,47.18-24.42,80.83-31.98,13.49-3.07,28.21-5.68,41.55-6.67,19.51-1.49,41.24,3.34,60.44-.37,5.67-1.14,13.46-6.89,18.89-8.81,35.81-13.02,64.65-32.7,85.62-60.44,3.27-4.37,10.43-9.12,13.7-13.06-21.64-3.27-72.8-9.18-89.85-7.87Z"/>
      <path class="cls-3" d="M584.15,143.52c.63.86,7.73,5.93,8.53,6.56,7.58,5.91,22.9,8.84,29.2,11.88,2.16,1.02,5.62,1.97,7.56,2.79,8.68,3.7,13.64,6.6,22.92,9.59,10.15,3.26,20.82,8.42,32.46,10.82,3.82.78,15.31,4.05,21.97,5.25,9.18,1.64,12.67,2.46,20.86,3.76,3.27.51,8.65,1.49,14.89,2.8,8.22,1.74,13.95,4.72,21.62,7.27,4.41,1.46,8.11,3.08,11.33,4.3,1.59.59,4.5,0,6.3,0,0,0,3.84,5.27-5.03,5.04-8.7-.27-24.24-7.75-35.26-10.07-28.84-6.18-58.63-9.82-86.87-21.4-15.56-6.38-39-16.29-56.05-22.19,1.33,1.8,9.32,6.48,10.7,8.33,1.61,2.17,6.68,7.43,8.76,9.59,16.01,16.64,31.66,27.85,53.78,38.92,9.12,4.56,15.36,8.33,26.11,11.69,5.25,1.64,10.52,3.09,16.07,4.26,9.04,1.89,24.6,3.94,33.8,2.28,24.69-4.46,46.19-8.83,77.04-8.83-1.27-1.72-2.54-4.25-3.93-8.08-1.94-5.34-5.94-10.61-8.31-14-3.74-5.39-7.04-7.8-11.93-11.9-7.59-6.38-19.12-12.59-27.63-19.8-5.8-4.89-10.8-5.66-17.05-9.84-9.36-6.24-23.01-13.52-37.38-17.05-15.84-3.88-25.58-3.93-37.38-2.62-33.9,3.77-63.26,5.65-97.07.65Z"/>
      <path class="cls-3" d="M337.74,273.92c-17.76,3.49-21.65,39.11,9.64,34.11,19.91-3.19,18.23-39.6-9.64-34.11Z"/>
      <path class="cls-3" d="M81.58,305.07c-23.62,41.98-45.04,89.64-54.95,150.05-1.93,11.76,1.11,29.31,2.68,44.3,1.5,14.56,4.47,35.19,9.28,48.75,4.96,13.96,5.97,18.12,8,20.99,5.25,7.43,8.85,10.1,11.17,12.12,11.29,9.75,20.74,20.3,33.63,30.73,14.86,12.03,35.47,16.29,51.99,25.93,10.5,6.14,22,15.93,31.48,23.91,2.05,1.73,14.45,12.92,15.79,13.55,5.9-7.87,9.48-15.93,14.43-25.58,17.47-34.51,33.21-77.42,36.75-124.76,2.24-30.14-9.51-59.99-5.27-93.64,1.26-10.15,4.88-18.86,6.3-31.48-.2-.12-2.52-1.26-2.52-1.26-16.41,16.33-21.8,32.07-32.74,54.14-3.55,7.08-10.51,15.78-12.6,23.92-3.02,11.65-2.75,19.76-5.04,31.48-7.12,35.93-15.98,75.48-26.44,108.3-2.28,7.04-3.82,12.39-6.3,18.88-.67.04-4.8,1.69-7.56,2.52,0,0-1.57-6.73-1.26-8.82,1.26-9.41,7.83-23.61,11.33-34,8.54-25.7,12.91-51.59,18.89-81.85,5.63-28.64,14.28-65.08,10.07-93.18-7.05,6.65-17.04,12.28-22.66,20.15-2.08,2.83-9.91,11.65-11.34,13.85-5.71,8.74-4.72,13.21-10.62,21.94-2.4,3.47-11.1,13.63-12.04,18.36-1.62,7.83,4.17,19.75,5.04,26.45,4.44,35.26,4.87,74.48,1.25,107.03-2.98-.98-6.14-1.8-8.81-2.51,2.16-30.69,4.31-61.48,1-90.29-2.48-21.44-12-48.05-15.67-64.05-6.32-27.51-13.21-47.1-16.68-59.24-5.25-18.37-10.48-57.72-10.48-57.72,0,0-4.16-24.76-6.01-30.9l-.11-18.07Z"/>
      <path class="cls-3" d="M980.94,308.57c-.97,15.74-4.41,42.09-8.99,58.5-.75,2.63-2.49,13.51-3.27,16.5-2.39,8.65-3.45,12.37-5.36,21.62-1.49,7.2-3.73,17.61-5.23,24.97-7.44,35.45-12.04,67.4-12.59,104.51-.48,30.29,1.33,61.37,7.92,90.89,25.27-13.7,46.29-22.3,68.84-34.77,4.8-2.71,17.24-7.72,20.2-12.05,3.96-5.86,5.04-15.75,6.03-24.02,3.93-32.79,1.6-67.58-4.78-96.86-2.15-9.84-5.38-23.42-7.68-32.99-4.08-16.92-9.65-32.38-16.17-47.22-7.64-17.32-23.62-48.97-32.8-66.02l2.77,19.05c4.67,23.35,10.15,51.35,13.34,75.56,6.18,46.94,8.83,103.76-.26,147.32-2.45,11.57-1.96,14.76-7.03,17.63,2.99-14.64,2.61-29.16,4.35-44.07,1.69-14.91,2.38-33.51,1.45-46.33-2.01-26.64-3.66-49.07-6.54-74.29-3.13-27.19-8.89-55.74-11.56-80.88l-2.63-17.05Z"/>
      <path class="cls-3" d="M140.87,376.02c-2.55,2.38-8.52,9.16-16.45,16.5-8.22,7.6-18.36,15.74-18.36,15.74,0,0,5.24,22.73,8.74,36.73,3.5,13.99,7.96,26.69,13.12,40.22.12-.15,6.66-7.19,6.66-7.19,5.59-8.54,10.81-14.67,12.58-24.15,4.64-25.06-1.97-57.54,0-82.32l-6.29,4.49Z"/>
      <path class="cls-3" d="M208.8,841.11s-13.6.04-19.79-.12c-10.41-.27-15.41-5.24-43.28-2.29,3.94,2.95,6.56,4.26,9.51,5.9,4.17,3.86,10.18,6.94,14.58,10.88,10.48,9.41,12.64,15.35,23.48,25.82,1.16,1.13,3.35,5.1,4.29,6.24,1.81-7.36,3.91-14.77,5.53-23.26,1.74-9.18,3.34-12.64,5.68-23.17"/>
      <path class="cls-3" d="M210.11,833.24c7.04-31.61,12.22-61.77,18.96-89.47-1.34-.63-10.87-23.77-21.46-35.32-8.51-9.26-18.18-22.07-27.71-30.22-14.13-12.13-22.94-22.55-38.87-32.12-5.47-3.27-17.04-7.7-22.83-10.7-10.23-5.35-17.49-8.6-27.02-14.66-3.39-2.17-14.9-13.42-18.37-15.74-8.58-5.75-24.48-23.61-30.4-27.52-.88-.59-7.13-8.62-8.07-9.21,5.19,12.74,14.14,35.3,17.49,48.96,3.71,15.2,7.64,27.75,11.19,43.35,6.13,26.96,15.27,57.61,21.16,73.83,3.51,9.62,12.04,22.59,17.64,31.94,21.71,36.25,47.07,69.49,100.73,66.73l7.54.14"/>
      <path class="cls-3" d="M1024.98,599.02c-16.53,5.51-37.02,18.05-51.26,25.89-11.73,6.37-22.25,12.63-32.01,20.59-9.33,7.51-33.96,30.18-36.52,34-1.42,2-9.84,8.04-9.84,8.04-2.01,25.14-7.79,46.68-14.09,68.76-4.4,15.34-11.17,27.98-17.73,43.06,17.05-14.75,28.07-24.83,40.16-36.75,15.59-15.38,33.38-30.73,46.61-48.6,16.91-22.97,29.23-50.04,45.31-73.77,8.16-12.04,29.47-34.28,39.09-44.83-.43-.31-9.66,3.99-9.73,3.63Z"/>
      <path class="cls-3" d="M312.97,744.59c-5.96-5.73-10.41-24.69-18.48-26.07-3.54-.63-9.79,3.19-12.59,3.78-6.81,1.34-13.11.31-16.14,5.03-2.68,4.1-2.08,9.84-3.27,15.12-3.65,15.97-7.59,32.3-11.33,50.37-2.84,13.38-7.05,29.2-10.08,43.92,14.25,3.63,31.43,1.05,48.37.89,16.85-.15,33.13,3.26,46.58,2.74-20.03-40.49-11.48-46.37-5.7-81.04-3.52-2.99-14.08-11.58-17.37-14.74Z"/>
      <path class="cls-3" d="M746.21,809.85c-.49,2.98,2.56,41.96,2.56,41.96,1.09-.82,1.75-5.63,3.09-6.11,1.8-.72,5.5-8.38,6.81-10.07,8.82-11.7,19.79-23.76,27.18-36.52,12.55-21.73,25.58-46.51,36-69.25,4.42-9.76,8.02-17.71,12.08-27.71.52.16,3.31-.87,4.52-1.25-2.48,8.33-4.22,13.95-6.81,21.4-5.32,15.38-12.49,26.96-18.42,40.3-7.08,15.78-14.79,29.9-23.64,44.07-10.78,17.16-27.97,29.98-35.48,50.37,12.59-1.89,23.1-4.18,34.68-5.88,10.34-1.53,25.14-.49,33.44-4.59,4.69-2.36,11.75-16.01,15.09-20.99,28.24-42.1,48.35-96.6,49.14-157.98.18-14.17.59-27.73-1.71-39.86-1.37-7.27-4.36-19.68-4.36-19.68-3.92,11.57-13.52,74.52-21.04,78.98-7.36,4.28-22.82,2.55-32.22,3.77-9.4,1.18-20.5,2.52-31.48,2.52-8.78,18.85-22.94,31.17-31.48,51.63-4.88,11.57-8.54,23.22-11.33,37.78-1.37,8.74-5.64,21.2-6.63,27.1Z"/>
      <path class="cls-3" d="M601.21,924.94c65.26-39.02,105.54-51.69,167.99-61.62,22.6-3.62,42.26-3.89,65.48-7.55,25.7-4.13,61.44-12.04,88.53-13.36-1.73,1.54-11.07,10.53-12.99,12.09-14.6,11.62-29.65,20.6-42.54,33.82-19.8,20.3-26.72,29.21-43.08,39.96-18.19,11.89-37,20.45-59.19,28.68-20.89,7.68-43.91,15.41-66.72,20.95-8.51,2.04-13.86,3.84-22.68,5.5-6.24,1.14-14.59,3.01-22.66,2.06-8.17-.98-22.5-10.38-28.96-15.11-6.49-4.72-24.9-19.59-27.7-26.44-2.16-5.2.09-9.45-1.71-15.04l6.23-3.94Z"/>
      <path class="cls-3" d="M510.44,903.96c-5.5,3.91-7.38,7.1-10.89,11.48-6.11-2.19-19.23-.88-27.11.43-28.49,8.65-29.02,11.6-52.03,25.53-7.99,4.81-15.21,10.34-23.16,16.01-1.65,1.14-6.31,6.06-8.32,6.66-12.72,3.58-33.64-.94-42.81-2.52-52.42-9.13-85.98-26.82-120.37-53.12.55-.39.61-3.27.97-4.81,2.23-9.41,2.69-12.5,3.55-16.36,3.23-14.87,6.21-29.48,9.56-42.81,16.37,2.4,42.03.15,55.92,1.26,33.17,2.59,65.79,5.71,93.18,15.11,10.5,3.57,20.93,11.72,30.22,16.36,8.07,4.02,14.13,5.44,21.41,10.07,7.32,4.64,15.38,10.86,22.66,16.36.82.64,1.61,3.46,2.52,3.79,2.12.74,4.13-.8,6.3,0-8.03-17.24-23.38-28.57-39.04-37.78-2.71-1.61-8.77-6.89-10.07-8.81-4.1-6.02-7.93-9.53-12.65-15.11-3.3-3.9-6.68-8.58-9.78-12.6-15.07-19.52-36.25-35.05-47.85-57.92-2.91-5.71-6.76-14.3-8.85-19.77-1.41-3.69-3.3-7.64-2.94-7.87,5.86,8.3,17.62,17.91,25.42,24.44,23.84,19.95,55.56,28.97,80.59,48.14,14.99,11.48,25.09,22.28,37.13,36.92,1.02,1.26,10.26,11.78,11.2,12.93,4.73,5.78,8.85,13.5,12.12,19.81.58,1.14.35,4.21,1.25,5.03l1.89,9.15Z"/>
      <path class="cls-3" d="M225.24,627.85c-8.31,20.31-18.11,36.83-28.97,54.15,6.92,8.53,13.05,16.13,19.78,25.18,8.06,10.85,14.38,24.43,14.61,23.96.64-1.55,16.87-71.3,16.78-71.81-1.37-8.03-16.07-26.64-22.2-31.48Z"/>
      <path class="cls-3" d="M729.76,758.03c-4.97,16.25-11.75,49.82-18.46,64.99-.57,1.23-2.93,5.28-3.56,6.53-5.52,10.16-9.76,17.84-15.34,27.49-3.58,6.09-5.63,10.26-8.58,17.62,1.13-.23.96,1.73,3.55,1.26,4.75-.91,43.6-12.79,45.33-15.11,12.11-16.61,1.41-69.42-1.26-89.41-.82,0-1.09-12.86-1.67-13.37Z"/>
      <path class="cls-3" d="M719.91,775.09s-19.68,25.11-30.03,30.46c-14.33,7.38-28.33,14.77-41.56,23.78-4.92,3.3-14.23,8.79-18.08,13.28-13.77,16-28.03,35.41-23.24,64.8.22,1.33,1.73,2.51,2.28,3.77,17.95-8.26,34.75-20.18,52.89-27.71,5.04-2.12,6.83-.74,10.88-3.78,4.25-3.23,7.1-11.21,9.5-16.37,1.46-3.19,4.7-6.85,6.58-10.07,8.23-14.28,14.96-31.05,20.9-46.58,2.36-6.31,6.58-14.25,7.56-20.15.23-1.5,2.33-11.43,2.33-11.43Z"/>
      <path class="cls-3" d="M520.49,904.37c-2.45.58-8,5.18-9.76,7.13-2.65,2.95-9.09,10.05-10.85,14.42-3.37,8.43-8.51,17.81-4.81,31.38.43,1.66,6.62,19.27,22.83,24.57,6.4,2.1,11.43,2.9,17.09,2.33,5.66-.57,10.63-.81,15.27-4.07,4.64-3.25,8.31-6.99,10.93-10.06,7-12.23,8.06-22.79,14.09-37.5,0,0,3.08,10.34,2.96,14.01.94,6.26-4.27,17.71-4.27,17.71,0,0,8.98-7.72,11.38-11.56,2.4-3.85,3.28-7.05,4.7-10.08,2.28-4.93-.66-12.78-.66-12.78,0,0-4.59-9.32-11.15-14.13-18.38-13.49-42.82-15.09-57.77-11.38Z"/>
      <path class="cls-3" d="M472.04,923.02c-6.59,2.03-16.13,5.05-24.95,9.9-11.89,6.4-24.75,16.42-35.5,24.09-15.89,11.26-28.84,18.03-43.86,33.51-6.76,6.97-15.84,15.44-23.62,21.38-14.1,10.75-31.15,14.68-42.3,22.66,1.02.35,7.58,3.27,11.56,4.29,7.63,1.94,17.91,7.74,26.81,6.1,11.97-2.29,22.41-20.03,30.83-26.76,9.32-7.51,17.17-15.02,26.73-22.38,5.7-4.44,9.32-7.78,14.91-12.19,2.8-2.24,6.14-5.79,9.02-7.95,4.76-3.66,11.47-10.57,16.23-14.34,7.04-5.68,33.76-14.27,49.1-14.88.56-2.03,2.32-8.33,3.37-12.23,1.03-3.9,2.62-7,5.68-13.11-2.09-.76-20.21.72-24.02,1.9Z"/>
      <path class="cls-3" d="M499.55,21.76s-24.17,2.82-25,3.18c-7.01,2.63-12.95,4.75-20.15,7.26-5.58,1.89-12.24,4.58-17.63,6.59-72.36,26.64-128.52,69.61-173.76,123.4-6.1,7.2-17.79,17.22-21.41,26.15-3.35,8.1-2.95,13.83-3.78,20.21,13.85-2.59,34.31-13.26,45.33-20.15,3.43-2.17,16.67-8.82,22.27-11.43,9.84-4.59,21-11.15,27.55-15.73,23.29-16.31,25.89-23.87,45.88-39.57,13.89-10.98,24.95-26.61,38.52-37.78,19.29-15.93,36-28.77,55.95-43.77,2.87-2.21,26.23-18.36,26.23-18.36Z"/>
    </g>
    <path d="M557.14,943.48c-.06,13.46-11.03,24.64-24.42,24.64s-24.5-11.18-24.56-24.64c-.08-13.53,10.96-24.63,24.56-24.63s24.42,11.1,24.42,24.63ZM532.72,964.09c11.1,0,20.19-9.23,20.19-20.61s-9.09-20.68-20.19-20.68-20.4,9.5-20.4,20.68,9.16,20.61,20.4,20.61ZM529.25,946.95v11.03h-5.49v-28.23h9.99c4.72,0,8.61,1.79,8.61,8.81,0,3.4-1.94,6.04-5.9,6.45,5.14.63,5.08,3.88,5.2,9.85,0,1.11.21,2.42.42,3.12h-5.34c-.21-.76-.49-1.66-.49-3.4v-4.79c0-1.93-1.31-2.84-2.85-2.84h-4.16ZM529.25,933.63v9.5h4.16c2.08,0,2.78-1.59,2.78-4.5,0-3.76-1.25-5-2.84-5h-4.1Z"/>
    <g>
      <path d="M488.41,143.07c3.51-.79-5.24,7.08-6.3,7.55-8.06,3.23-14.79,4.52-23.92,6.53-12.32,2.67-26.25,7.76-37.78,11.1-32.07,9.17-61.11,16.72-90.67,27.93-14.79,5.59-28.84,12.84-44.07,18.66.75-.63.2-4.25,1.26-5.04,5.71-4.45,20.94-9.12,28.97-12.08,21.52-7.99,46.63-18.19,69.26-25.7,14.87-4.99,27.27-5.62,42.81-10.07,15.35-4.45,35.1-8.1,51.63-13.85,2.56-.94,5.23-4.3,8.81-5.04Z"/>
      <path d="M164.8,204.77c1.78-3.79,43.47-65.28,66.73-86.88,3.15-2.95,4.84-7.99,8.81-10.07,6.14-3.31-8.34,13.25-8.81,13.85-18.45,20.42-34.41,42.26-50.42,65.48-1.06,1.49-11.11,16.27-11.37,16.72-2.29,3.94-8.31,16.73-8.2,17.05-.59.52-13.17,19.11-13.17,19.11-.83.2-4.51,8.15-7.82,16.37-3.82,9.37-9.07,16.68-13.59,28.96-4.51,12.28-11.52,48.91-13.8,78.06-.19,0-3.73-.19-3.78,0,0-13.93,2.05-25.85,3.78-36.51,3.62-22.59,7.4-38.76,15.11-56.67,8.91-20.8,20.96-37,30.74-54.1,3.51-6.05,4.11-7.84,5.78-11.38Z"/>
      <path d="M77.42,531.61c-2.22-6.78-5.02-26.8-5.8-30.93-3.73-18.81-7.28-42.3-6.29-64.22.11-3.3-.51-4.69,0-7.55,1.02-13.3,1.97-25.62,2.51-39.03h-2.51c-.83,19.83-6.1,46.07-5.04,64.21,1.1,19.8,6.57,39.94,10.07,56.67,1.07,5.15,3.27,17.95,4.29,22.34,2.29,9.83,3.28,20.98,6.55,28.85,3.28,7.88,7.88,21.97,9.19,26.56,1.31,4.59,1.66,8.76,2.63,9.14.97.37,2.94-1.92,3.59-3.56.65-1.64-4.26-12.79-7.54-23.61-3.27-10.82-10.54-35.42-11.66-38.86Z"/>
      <path d="M220.2,459.12c0,54.43-10.98,97.28-21.41,143.55-2.83,12.39-7.04,25.34-11.34,36.51-1.01-.04-4.87,5.94-3.77-1.25.51-3.43,2.44-8.54,3.77-13.85,6.62-26.88,16.45-56.16,21.41-84.37,3.7-21.25,3.58-59.3,11.33-80.59Z"/>
      <path d="M929.13,500.68c1.91-.63,1.48,5.96,1.25,7.55-7,49.09-3.32,92.8-6.3,130.96l-3.77-1.25c0-43.92-1.98-85.51,6.29-128.44.83-4.37-1.37-7.6,2.53-8.82Z"/>
      <path d="M146.68,754.21c12.83,16.37,33.19,31.79,50.85,41.12,1.89.99,3.74,3.22,6.3,3.77,7.4,1.54-7.56-8.81-7.56-8.81-6.73-4.05-12-6.85-17.62-11.33-6.22-4.96-24.01-22.84-27.16-27.81-5.25-8.31-21.51-26.23-28.94-37.6-7.43-11.37-35.32-55.85-32.04-50.44,1.87,3.1-18.11-26.88-21.4-28.96-1.22-.78-2.4,1.26,0,1.26,7.12,13.7,13.65,21.33,20.14,34,3.66,6.11,12.76,21.05,19.31,31.55,6.56,10.5,8.54,18.04,15.13,25.45,3.49,3.93,18.63,24.31,23,27.81Z"/>
      <path d="M878.76,857.04c14.12-2.49-11.35,8.8-11.35,8.8-15.51,12.18-31.24,19.63-47.64,29.24-6.11,3.54-12.71,7.88-19.1,10.84-46.86,21.6-99.43,39.53-156.14,50.58l1.27-3.77c12.63-2.56,19.41-5.19,41.49-11.31,17.53-4.86,27.73-7.18,29.03-7.57,23.06-7.32,26.59-9.25,50.32-18.44,9.66-3.76,28.49-11.55,35.3-15.56,16.89-10.03,32.18-17.94,49.1-27.71,7.72-4.48,18.07-13.45,27.71-15.09Z"/>
      <path d="M256.72,897.33c16.58,5.64,39.86,12.54,58.88,16.14,40.72,7.72,85.66,7.78,128.74,7.78v2.53c-60.88,4.75-125.34-2.01-171.25-17.63-5.83-2.02-11.05-4.21-17.63-6.3.39-1.46-1-3.28,1.26-2.52Z"/>
    </g>
    <path class="cls-2" d="M962.4,267.47c-52.47,14.43-169.03,23.62-273.04,14.6-111.3-9.65-226.5-4.24-311.02,26.07-7.08,2.51-14.71,3.72-22.14,5.92-.79,25.11.5,45.11-1.18,62.72-1.75,18.36-.75,33.23-6.87,81.32-6.12,48.09-14.8,81.26-20.17,100.5-3.44,12.31-4.74,17.23-6.72,25.29-2.71,11.06-13.6,50.84-24.09,79.7-10.49,28.86-19.94,51.7-19.94,51.7,0,0,79.44-20.97,129.2-29.39,42.63-7.22,89.74-11.27,137.72-10.49,26.74.42,58.31,4.19,84.82,7.94,70.83,9.98,140.67,3.26,172.14,1.51,31.48-1.75,44.59-4.37,48.98-4.37s5.12-3.51,6.86-7c.75-1.5,6.21-29.57,14.09-64.74,10.37-46.32,24.39-104.93,31.96-131.39,17.61-61.65,25.21-85.04,39.26-128.54,14.69-45.59,11.77-34.26,15.65-53.12,3.37-16.4,4.5-28.2,4.5-28.2Z"/>
    <path class="cls-1" d="M355.78,356.54s70.6-18.75,169.14-30.85c65.15-8,134.73,2.35,168.76,4.74,34.04,2.39,87.45,5.25,106.68,4.38,19.24-.88,46.13-1.2,59.23-2.08,13.13-.88,36.27-4.55,45.7-6.67,9.72-2.18,27.43-6.88,32.69-7.75,5.24-.88,13.88,1.53,13.88,1.53l-21.48,67.14s-4.4-2.28-10.23.29c-9.4,4.15-27.75,10.05-55.08,10.97-87.5,2.95-142.54,1.7-200.39-5.11-42.55-5.02-86.43-6.61-142.39-.48-55.98,6.12-83.71,13.47-117.18,20.37-35.41,7.3-53.88,15.63-53.88,15.63l4.54-72.12Z"/>
    <path class="cls-1" d="M344.12,483.05s96.42-29.89,158.07-36.45c61.64-6.55,141.66,3.2,209.87,5.82,68.19,2.62,93.12,2.62,131.15-1.31,38.04-3.94,71.01-11.81,71.01-11.81l-19.85,70.83s-11.81.98-30.16,3.93c-19.81,3.19-66.9,13.12-152.14,6.56-85.27-6.56-148.23-11.81-212.51-5.25-80.12,8.17-107.56,20.99-133.79,28.85-26.24,7.87-37.79,14-37.79,14l16.14-75.18Z"/>
    <path class="cls-1" d="M315.67,603.94l-25.11,76.27s8.43-3.38,20.99-7.87c12.57-4.48,100.04-30.2,185.38-38.34,57.71-5.51,111.04.61,179.25,8.48,68.22,7.87,94.45,4.5,131.17,2.75,36.73-1.75,57.35-7,57.35-7l16.07-70.81s-42.8,1.74-107.51,11.36c-13.23,1.97-86.33-4.62-127.66-8.87-41.33-4.25-100.57-10.01-153.04-3.9-54.39,6.35-74.32,11.15-101.42,17.27-27.11,6.12-75.46,20.66-75.46,20.66Z"/>
    <g>
      <polygon points="427.38 315.99 448.96 314.19 458.14 313.42 457.08 322.47 452.68 360.19 444.56 351.9 473.51 349.47 466.79 355.92 471.19 318.22 471.88 312.27 477.91 311.76 499.49 309.96 508.67 309.19 507.62 318.24 496.18 416.51 495.48 422.46 489.45 422.96 467.88 424.77 458.7 425.54 459.75 416.49 464.67 374.1 472.79 382.38 443.83 384.81 450.56 378.35 445.65 420.74 444.96 426.69 438.92 427.2 417.34 429 408.17 429.77 409.22 420.72 420.65 322.45 421.35 316.5 427.38 315.99"/>
      <path class="cls-3" d="M428.08,323.37l21.58-1.81-4.4,37.71,28.96-2.43,4.4-37.71,21.58-1.8-11.44,98.27-21.58,1.8,4.92-42.39-28.96,2.43-4.91,42.39-21.58,1.81,11.43-98.27Z"/>
    </g>
    <g>
      <polygon points="597.52 424.26 619.09 424.26 628.26 424.26 626.92 433.24 612.5 530.64 611.61 536.53 605.59 536.53 584.03 536.53 574.87 536.53 576.19 527.56 590.63 430.16 591.49 424.26 597.52 424.26"/>
      <path class="cls-3" d="M598,431.7h21.54l-14.43,97.41h-21.55l14.43-97.41Z"/>
    </g>
    <g>
      <polygon points="736.4 552.59 805.71 552.59 814.96 552.59 813.26 561.62 809.86 579.63 808.76 585.47 802.78 585.47 755.04 585.47 762.12 579.57 757.99 604.31 750.43 595.34 776.43 595.34 785.63 595.34 784 604.32 780.96 620.96 779.9 626.85 773.88 626.85 748.01 626.85 755.1 620.96 747.84 658.98 746.78 664.87 740.76 664.87 719.34 664.87 710.17 664.87 711.78 655.89 729.31 558.48 730.39 552.59 736.4 552.59"/>
      <path class="cls-3" d="M736.64,560.02h69.31l-3.39,18h-47.74l-4.13,24.74h25.99l-3.02,16.64h-25.87l-7.26,38.01h-21.42l17.53-97.41Z"/>
    </g>
  </g>
  <path d="M247.72,789.51s1.75,10.05,2.19,21.85c.51,13.91-3.06,27.55-3.06,27.55l6.12,1.3s3.07-17.7,3.07-32.79-4.81-34.53-4.81-34.53l-3.5,16.61Z"/>
</svg>