<?xml version="1.0" encoding="UTF-8" standalone="no"?>
<!-- Created with Inkscape (http://www.inkscape.org/) -->

<svg
   version="1.1"
   id="svg2"
   width="753.33331"
   height="973.33331"
   viewBox="0 0 753.33331 973.33331"
   sodipodi:docname="IF Brommapojkarna.eps"
   xmlns:inkscape="http://www.inkscape.org/namespaces/inkscape"
   xmlns:sodipodi="http://sodipodi.sourceforge.net/DTD/sodipodi-0.dtd"
   xmlns="http://www.w3.org/2000/svg"
   xmlns:svg="http://www.w3.org/2000/svg">
  <defs
     id="defs6">
    <clipPath
       clipPathUnits="userSpaceOnUse"
       id="clipPath18">
      <path
         d="M 8.17188,7295.57 V 2791.79 C 20.0703,2327.57 176.254,1892.24 472.34,1497.25 708.5,1182.21 1033.69,892.117 1438.82,635.105 2127.42,198.246 2819.02,5.33984 2825.95,3.44141 l 0.43,-0.11719 0.44,0.11719 c 6.89,1.89843 698.51,194.80459 1387.08,631.66359 405.17,257.012 730.33,547.105 966.51,862.145 296.09,394.99 452.27,830.32 464.18,1294.54 v 4503.78 z"
         clip-rule="evenodd"
         id="path16" />
    </clipPath>
    <linearGradient
       x1="15.817"
       y1="420.94501"
       x2="579.45898"
       y2="420.94501"
       gradientUnits="userSpaceOnUse"
       gradientTransform="matrix(10,0,0,10,-150,-560)"
       spreadMethod="pad"
       id="linearGradient34">
      <stop
         style="stop-opacity:1;stop-color:#996100"
         offset="0"
         id="stop20" />
      <stop
         style="stop-opacity:1;stop-color:#e7cfa0"
         offset="0.15748"
         id="stop22" />
      <stop
         style="stop-opacity:1;stop-color:#be7800"
         offset="0.267717"
         id="stop24" />
      <stop
         style="stop-opacity:1;stop-color:#ffe79d"
         offset="0.527559"
         id="stop26" />
      <stop
         style="stop-opacity:1;stop-color:#be7800"
         offset="0.708661"
         id="stop28" />
      <stop
         style="stop-opacity:1;stop-color:#e7cfa0"
         offset="0.866142"
         id="stop30" />
      <stop
         style="stop-opacity:1;stop-color:#996100"
         offset="1"
         id="stop32" />
    </linearGradient>
  </defs>
  <sodipodi:namedview
     id="namedview4"
     pagecolor="#ffffff"
     bordercolor="#000000"
     borderopacity="0.25"
     inkscape:showpageshadow="2"
     inkscape:pageopacity="0.0"
     inkscape:pagecheckerboard="0"
     inkscape:deskcolor="#d1d1d1" />
  <g
     id="g8"
     inkscape:groupmode="layer"
     inkscape:label="ink_ext_XXXXXX"
     transform="matrix(1.3333333,0,0,-1.3333333,0,973.33333)">
    <g
       id="g10"
       transform="scale(0.1)">
      <g
         id="g12">
        <g
           id="g14"
           clip-path="url(#clipPath18)">
          <path
             d="M 8.17188,7295.57 V 2791.79 C 20.0703,2327.57 176.254,1892.24 472.34,1497.25 708.5,1182.21 1033.69,892.117 1438.82,635.105 2127.42,198.246 2819.02,5.33984 2825.95,3.44141 l 0.43,-0.11719 0.44,0.11719 c 6.89,1.89843 698.51,194.80459 1387.08,631.66359 405.17,257.012 730.33,547.105 966.51,862.145 296.09,394.99 452.27,830.32 464.18,1294.54 V 7295.57 H 8.17188"
             style="fill:url(#linearGradient34);fill-opacity:1;fill-rule:nonzero;stroke:none"
             id="path36" />
        </g>
      </g>
      <path
         d="M 3381.01,1680.91 V 435.391 c 218.47,94.839 477.7,223.375 736.11,388.632 96.68,61.825 188.42,125.692 275.21,191.367 v 1267.65 c -271.19,-285.89 -619.49,-497.9 -1011.32,-602.13"
         style="fill:#ed2d2e;fill-opacity:1;fill-rule:nonzero;stroke:none"
         id="path38" />
      <path
         d="m 3809.11,5938.78 c 7.44,-3.24 6.96,26.74 22.84,25.02 109.24,-11.87 384.4,-78.11 560.38,-200.01 v 1343.5 c -303.08,0 -649.82,0 -1011.32,0 v -870.33 c 21.97,-3.85 44.21,-8.84 66.74,-15.32 245.43,-70.46 343.7,-275.18 361.36,-282.86"
         style="fill:#ed2d2e;fill-opacity:1;fill-rule:nonzero;stroke:none"
         id="path40" />
      <path
         d="M 2320.72,1668.57 V 414.371 c 261.49,-110.715 456.12,-170.558 505.66,-185.168 49.5,14.61 244.14,74.453 505.63,185.168 V 1668.57 c -162.24,-39.1 -331.56,-59.89 -505.65,-59.89 -174.08,0 -343.4,20.82 -505.64,59.89"
         style="fill:#040307;fill-opacity:1;fill-rule:nonzero;stroke:none"
         id="path42" />
      <path
         d="m 2640.03,6154.4 c 17.14,1.79 17.21,-12.04 13.59,-21.26 -27.35,-69.4 -111.92,-273.18 -216.56,-360.6 -13.14,-11 -3.1,-19.92 4.21,-21.23 127.75,-23.15 269.55,-105.61 374.75,-179.45 5.77,-4.04 9.3,-4.71 12.36,-0.55 37,50.66 154.08,144.79 214.55,163.01 6.2,1.86 5.86,7.39 -1.54,12.4 -141.55,95.64 -289.25,295.38 -310.47,353.73 -4.47,12.32 7.15,18.91 17.71,21.69 183.03,52.91 370.53,141.91 583.38,121.47 v 863.68 c -333.36,0 -677.94,0 -1011.29,0 v -920.41 c 106.42,-19.53 214.74,-43.45 319.31,-32.48"
         style="fill:#040307;fill-opacity:1;fill-rule:nonzero;stroke:none"
         id="path44" />
      <path
         d="M 4441.31,7107.29 V 5726.51 c 106.14,-89.68 131.97,-215.62 156.46,-342.87 7.74,-10.32 16.75,-8.39 26.08,-4.21 9.34,4.21 21.04,17.42 51.25,-0.96 325.33,-197.69 493.73,-532.4 381.92,-895.02 -7.12,-23.07 10.52,-33.74 19.39,-32.06 9.88,1.87 20.17,6.78 29.82,8.83 11.67,2.5 22.43,0.87 30.44,-15.17 C 5263.55,4071.38 5354.09,3538.83 4871,3073.92 4777.49,2799.1 4630,2549.08 4441.31,2336.4 V 1053.16 c 232.13,181.66 426.61,377.07 580.35,583.82 274.93,369.7 419.95,777.06 430.95,1209.54 0,0 0,4165.02 0,4260.77 -26.38,0 -433.91,0 -1011.3,0"
         style="fill:#040307;fill-opacity:1;fill-rule:nonzero;stroke:none"
         id="path46" />
      <path
         d="m 562.418,3521.96 c -152.109,250.99 -30.762,670.61 -86.566,849.51 -8.567,27.49 2.828,27.04 26.808,18.7 24.016,-8.31 46.988,-24.68 54.59,-30.21 7.602,-5.52 9.996,-1.54 7.742,7.74 -32.371,133.62 -46.406,340.37 25.774,477.03 64.464,144.4 201.117,260.42 263.011,404.83 15.461,25.78 41.262,-10.31 49,20.61 47.903,157.74 168.223,307.67 308.663,417.58 v 1419.54 c -577.389,0 -984.928,0 -1011.323,0 0,-95.75 0,-4259.53 0,-4259.53 11.051,-433.7 156.039,-841.08 430.977,-1210.78 153.715,-206.75 348.215,-402.16 580.346,-583.82 v 1283.16 c -210.19,236.9 -369.245,520.17 -459.534,832.34 -28.347,95.42 -127.777,251.43 -189.488,353.3"
         style="fill:#040307;fill-opacity:1;fill-rule:nonzero;stroke:none"
         id="path48" />
      <path
         d="M 1260.42,2282.92 V 1015.39 c 86.77,-65.675 178.53,-129.542 275.21,-191.367 258.39,-165.257 517.65,-293.793 736.11,-388.632 V 1681 c -391.81,104.23 -740.16,316.06 -1011.32,601.92"
         style="fill:#ed2d2e;fill-opacity:1;fill-rule:nonzero;stroke:none"
         id="path50" />
      <path
         d="m 1513.89,5886.43 c 38.66,10.34 20.61,-90.24 64.44,-33.5 162.46,190.8 350.68,379.03 611.12,353.25 27.17,-2.39 54.63,-6.2 82.29,-10.71 v 911.82 c -361.5,0 -708.24,0 -1011.32,0 v -1383.4 c 25.54,17.75 51.51,34.16 77.63,49 l 175.84,113.54"
         style="fill:#ed2d2e;fill-opacity:1;fill-rule:nonzero;stroke:none"
         id="path52" />
      <path
         d="m 2036.02,5295.95 c -23.2,-72.18 -59.98,-151.47 -104.05,-212.29 -44.09,-60.81 -143.83,-160.19 -158.06,-168.03 -14.25,-7.83 -28.55,-3.9 -28.48,14.25 0.06,18.17 15.66,161.62 4.98,167.32 -16.91,9.03 -91.92,-8.78 -173.62,-30.99 -86.9,-23.62 -256.94,-105.96 -262.77,-108.05 -5.84,-2.11 -15.35,-2.32 -12.89,7.72 2.45,10.06 66.23,102.14 116.06,152.68 49.84,50.55 116.78,116.07 151.65,130.29 34.91,14.24 166.61,38.46 215.04,44.87 114.78,15.19 230.18,13.69 241.83,12.54 11.65,-1.15 10.31,-10.31 10.31,-10.31 z M 4387.69,4192.31 c 66.31,-74.38 192.75,-162.03 237.51,-316.01 47.62,-163.89 -11.22,-468.82 -99.2,-704.03 -7.81,-20.83 -26.24,-21.66 -38.41,-6.41 -120,150.41 -321.62,619.24 -128.25,1018.71 6.48,13.42 18.04,15.48 28.35,7.74 z m 645.52,18.41 c 129.6,-417.63 57.35,-941.68 -449.62,-1116.86 -29.11,-10.03 -26.93,4.16 -17.96,12.87 116.59,126.24 135.79,297.08 197.48,733.74 22.4,158.77 156.2,305.69 238.11,379.85 14.47,13.1 25.66,10.78 31.99,-9.6 z m -345.07,975.78 c 494.78,-428.14 235.33,-888.89 82.23,-1108.64 -14.61,-20.95 -24.26,-6.76 -24.26,-1.59 -23.25,207.02 -93.04,514.12 -122.36,627.18 -29.25,112.84 -64.19,160.51 -36.25,250.55 20.6,92.81 60.95,201.3 66.6,222.57 5.68,21.27 22.65,19.78 34.04,9.93 z M 4490.8,4703.65 c 40.14,-44.91 144.59,-541.7 172.97,-660.32 2.57,-25.78 -13.99,-27.36 -22.93,-15.28 -38.04,51.46 -223.65,289.87 -274.86,313.88 -21.89,10.27 -40.16,-38.74 -65.96,-25.86 -91.14,66.49 -170.44,377.09 -157.27,577.63 0,12.88 15.45,18.05 25.77,12.88 91.98,-26.14 249.89,-121.9 322.28,-202.93 z M 4109.2,5265 c 96.49,-92.29 269.37,-301.99 314.03,-368.32 10.23,-15.21 -7.35,-12.93 -9.83,-11.35 -12.89,8.13 -226.92,158.06 -403.91,166.08 -12.84,-0.44 -23.38,1.93 -35.99,8.5 -140.98,73.5 -312.36,176.02 -362.61,298.13 -4.75,11.61 -1.36,19.56 9.08,25.74 10.45,6.15 122.51,75.63 206.49,74.11 95.29,-1.7 195.07,-110.37 282.74,-192.89 z m 278.49,317.18 c 147.34,-141.18 160.43,-389.48 127.53,-611.41 -3.24,-21.88 -22.03,-20.4 -26.03,-12.25 -57.39,117.86 -313.74,420.89 -442.3,496.64 -18.31,10.8 -33.81,30.07 -48.19,59.68 -26.79,55.09 -82.65,207.39 -93.21,265.88 -1.66,9.26 -0.42,15.14 10.31,12.89 158.65,-33.13 353.64,-98.12 471.89,-211.43 z m -577.4,133.11 c 8.52,-27.7 70.32,-133.54 77.72,-150.54 7.37,-16.98 -3.29,-23.64 -12.53,-16.98 -167.13,120.27 -405.76,183.97 -627.53,225.21 -149.93,31.13 -283.09,173.45 -319.04,231.6 -10,16.17 -2.6,19.44 6.11,22.77 110.2,42.29 230.34,114.23 475.37,65.38 251.2,-50.04 371.52,-318.14 399.9,-377.44 z m -191.01,-176.95 c 10.31,-5.16 9.88,-11.09 0,-18.05 -49.7,-34.97 -197.44,-141.5 -258.99,-159 -91.33,-26.01 -278.65,8.95 -419.18,159 -4.02,4.27 0,7.74 0,7.74 92.81,51.58 172.41,115.26 296.55,113.45 124.13,-1.8 260.43,-51.58 381.62,-103.14 z m -923.37,-20.62 c 9.9,-9.49 6.46,-17.72 -1.93,-29.45 -10.2,-14.3 -89,-115.5 -228.8,-138.95 -106.88,-17.95 -209.98,-14.68 -277.02,5.93 -28.35,15.48 -18.36,61.84 -51.51,61.41 -112.71,-1.52 -252.76,-4.67 -373.95,-7.25 -5.17,2.58 -5.17,10.32 0,12.89 182.14,121.88 493.92,234.34 595.65,242.4 101.73,8.05 327.64,-137.5 337.56,-146.98 z m -208.63,515.72 c 2.58,-2.6 12.89,-5.17 10.32,-12.91 -33.53,-69.62 -92.85,-121.19 -149.57,-177.92 -134.07,-123.78 -312.01,-152.13 -464.14,-239.8 -118.62,-59.32 -226.91,-154.73 -337.79,-232.08 -7.74,0 -10.31,5.16 -10.31,10.31 53.98,158.04 105.72,333.17 187.65,438.62 95.89,123.47 279.54,233.65 459.57,239.56 161.76,5.3 206.29,-15.49 304.27,-25.78 z M 1481.77,5681.82 c -0.57,-16.06 -26.95,-319.73 -71.56,-399.84 -44.89,-80.62 -142,-203.55 -178.53,-257.89 -36.86,-54.77 -143.43,-229.21 -148.21,-233.3 -4.78,-4.07 -11.85,0.39 -12.68,4.83 -4.94,26.44 -10.43,108.97 -24.35,164.75 -13.6,54.38 -37.86,90.63 -66.745,131.45 -2.941,4.71 -6.73,16.82 -5.968,21.92 13.23,88.06 59.493,187.53 142.503,306.27 98.79,141.29 324.03,266.79 336.39,273.69 25.45,15.99 29.72,4.18 29.15,-11.88 z m 157.15,-715.94 c 0.13,-12.73 -20.93,-136.31 -33.82,-185.31 -33.52,-136.68 -69.31,-237.57 -123.46,-366.48 -5.17,-2.6 -10.32,-5.18 -15.49,-2.6 -18.06,41.26 -25.18,123.67 -48.98,123.79 -28.97,0.11 -113.86,-82.87 -175.16,-133.8 -61.29,-50.97 -121.38,-118.92 -214.23,-209.17 -7.71,-2.56 -12.89,7.74 -12.89,15.47 5.18,206.31 73.13,431.2 195.08,556.2 121.92,125 259.42,175.36 405.74,214.81 10.32,2.57 23.09,-0.16 23.21,-12.91 z m -740.041,64.49 c 23.199,-41.27 52.703,-78.67 68.504,-217.73 19.387,-170.4 -24.539,-273.26 -47.899,-390.83 -21.48,-108.1 -39.839,-306.55 -41.886,-323.89 -2.039,-17.35 -16.586,-16.54 -22.578,-11.33 -5.977,5.21 -118.11,115.99 -154.707,152.16 -16.336,43.53 -41.266,211.43 -54.149,322.3 -18.039,198.54 113.445,337.79 244.969,469.32 z M 633.594,4136.24 c 54.375,-26.24 214.234,-140.3 248.691,-260.44 37.52,-130.67 95.274,-545.55 95.274,-559.66 0,-14.09 -18.055,-23.21 -79.926,0 -129.828,48.7 -256.457,273.96 -270.75,350.69 -21,112.67 19.988,309.39 -9.488,454.16 -1.926,9.46 6.57,19.89 16.199,15.25 z m 746.196,129.85 c 3.91,-44.53 28.56,-255.77 2.2,-481.93 -26.34,-226.15 -209.68,-428.14 -235.85,-443.83 -19.23,-11.53 -36.02,0.9 -38.41,16.55 -2.39,15.61 -85.14,382.11 -78.84,509.25 6.27,127.14 76.27,256.55 171.68,357.11 41.23,46.43 109.13,113.61 139.24,123.78 30.1,10.2 36.09,-36.41 39.98,-80.93 z M 4439.07,2964.06 c -11.18,4.18 -97.01,125.46 -131.9,184.07 -11.19,18.82 -15.35,34.9 -33.5,2.8 -5.22,-9.25 -16.38,-34.89 -20.96,-44.48 -253.14,-529.67 -801.76,-910.07 -1426.35,-910.07 -691.78,0 -1280.58,449.37 -1489.82,1071.55 -12.78,37.98 -12.99,63.58 -50.9,28.01 -41.37,-38.78 -157.6,-131.53 -164.72,-133.91 -7.12,-2.37 -186.092,16.28 -204.904,22.86 -38.551,13.44 -46.942,17.87 -34.461,-22.18 258.245,-828.49 1032.405,-1431.6 1944.805,-1431.6 844.7,0 1570.93,516.94 1878.97,1251.12 24.88,59.29 -18.06,35.04 -39.1,28.31 -40.48,-12.91 -216.03,-50.68 -227.16,-46.48 z m -223.75,-89.49 38.66,61.85 320.06,-71.17 -37.02,-59.25 -64.63,16.42 -60.25,-96.42 46.91,-53.99 -40,-54.79 z m 160.75,-105.19 v 0 l 41.81,66.9 -123.53,31.38 z m -375.26,-165.17 43.94,50.85 243.26,-48.22 -163.12,140.96 39.03,45.15 233.91,-202.15 -41.89,-48.48 -252.62,45.11 167.32,-147.29 -39.04,-45.15 z m -48.8,-53.91 c 11.85,3.54 23.87,4.18 36.02,1.95 10.06,-1.84 19.63,-5.19 28.63,-10.05 9.03,-4.84 17.46,-11.96 25.29,-21.31 9.43,-11.26 15.88,-24.72 19.37,-40.34 3.52,-15.63 0.64,-31.11 -8.54,-46.46 14.56,4.69 27.47,4.9 38.77,0.58 11.33,-4.32 23.92,-14.76 37.77,-31.32 l 13.28,-15.9 c 9.05,-10.79 15.46,-16.85 19.72,-20.86 4.25,-4.02 19.89,-15.25 19.89,-15.25 l -48.25,-40.44 c -6.48,2.46 -11.02,5.84 -14.31,8.53 -6.77,5.61 -13.14,11.83 -19.04,18.7 l -18.7,21.73 c -12.82,14.92 -23.87,22.74 -33.13,23.53 -9.29,0.8 -20.86,-4.6 -34.76,-16.25 l -48.75,-40.8 77.56,-92.72 -48.13,-40.27 -198.36,237.11 113.2,94.73 c 16.44,13.18 30.59,21.57 42.47,25.11 z m -73.17,-120.64 v 0 l 53.53,-63.98 53.51,44.77 c 10.64,8.89 17.52,16.87 20.67,23.9 5.63,12.4 2.87,25.26 -8.32,38.63 -12.08,14.43 -24.71,20.32 -37.97,17.65 -7.44,-1.47 -16.29,-6.5 -26.51,-15.04 z m -228.32,-83.19 62.33,37.84 253.78,-207.67 -56.18,-38.59 -53.87,46.11 -97.21,-58.96 16.91,-70.11 -59.73,-30.14 z m 96.18,-166.31 v 0 l 67.42,40.92 -96.17,83.65 z m -415.98,25.5 60.51,19.95 47.22,-117.45 62.16,162.01 77.27,34.97 -68.63,-169.5 182.03,-120.5 -73.29,-32.6 -133.28,92.47 -20.55,-39.59 37.22,-99.73 -59.62,-23.98 z m -240.81,-349.52 c -21.16,-25.85 -53.67,-40.65 -97.53,-44.39 -43.9,-3.75 -78.45,5.33 -103.65,27.22 -33.62,26.63 -52.77,67.5 -57.46,122.61 -4.8,56.22 7.14,99.74 35.84,130.58 21.16,25.85 53.66,40.65 97.57,44.39 43.86,3.75 78.4,-5.33 103.63,-27.25 33.39,-25.51 52.47,-66.41 57.25,-122.6 4.71,-55.12 -7.17,-98.63 -35.65,-130.56 z m -43.98,43.62 v 0 c 13.32,19.94 18.52,47.1 15.58,81.47 -2.92,34.22 -12.63,60.1 -29.13,77.53 -16.52,17.44 -37.45,25.07 -62.84,22.91 -25.36,-2.16 -44.82,-13.21 -58.34,-33.15 -13.54,-19.95 -18.82,-47.1 -15.89,-81.47 2.92,-34.39 12.76,-60.26 29.43,-77.6 16.74,-17.37 37.78,-24.95 63.16,-22.79 25.36,2.15 44.71,13.2 58.03,33.1 z m -276.09,40.32 c -19.05,-13.6 -45.05,-19.04 -78.09,-16.36 l -63.32,5.2 -8.8,-114.53 -64.05,5.24 24.96,312.05 131.08,-10.73 c 30.22,-2.45 53.65,-12.4 70.33,-29.77 16.65,-17.37 23.64,-42.73 20.9,-76.06 -2.98,-36.42 -13.99,-61.44 -33.01,-75.04 z m -40.23,115.35 v 0 c -7.4,7.47 -18.28,11.82 -32.65,12.98 l -56.74,4.64 -7.42,-90.75 56.72,-4.66 c 14.36,-1.17 25.85,1.63 34.42,8.37 8.57,6.71 13.52,18.1 14.84,34.13 1.31,16.04 -1.75,27.78 -9.17,35.29 z m -316.15,111.77 71.02,-16.49 36.48,-325.87 -67.43,10.62 -6.04,71.65 -110.76,25.71 -35.41,-62.12 -65.26,20.34 z m -47.39,-186.18 v 0 l 76.82,-17.85 -10.36,127.05 z m -132.17,244.7 85.35,-32.49 -120.77,-289.36 -55.35,20.15 79.4,197.07 c 2.45,5.47 5.97,13.14 10.57,22.96 4.59,9.78 8.11,17.39 10.51,22.74 l -160.88,-217.61 -57.09,25.8 54.73,265.56 c -2.42,-5.38 -5.82,-13.01 -10.14,-22.96 -4.34,-9.92 -7.74,-17.62 -10.19,-23.08 l -100.59,-189.98 -52.84,27.66 143.4,280.54 81.94,-40.94 -48.9,-244.65 z m -290.6,149.01 75.29,-49.12 -174.88,-262.92 -48.29,35.08 115.53,176.81 c 3.54,4.85 8.55,11.63 15.03,20.31 6.48,8.68 11.44,15.39 14.89,20.18 l -202.82,-178.14 -50.68,36.8 108.57,246.58 c -3.46,-4.74 -8.33,-11.56 -14.56,-20.4 -6.25,-8.85 -11.15,-15.72 -14.68,-20.57 l -131.32,-165.53 -48.29,35.07 193.71,251.6 71.96,-60.02 -97.39,-229.68 z m -409.53,-42.37 c -33.43,-0.66 -65.79,14.47 -97.07,45.44 -31.31,30.97 -46.82,63.16 -46.52,96.57 -1.55,42.84 17.16,83.92 56.05,123.25 39.68,40.11 80.55,59.25 122.64,57.41 33.38,0.67 65.75,-14.47 97.07,-45.46 31.29,-30.95 46.79,-63.14 46.49,-96.54 2.21,-41.97 -16.52,-83.01 -56.2,-123.12 -38.89,-39.33 -79.71,-58.49 -122.46,-57.55 z m 4.68,61.78 v 0 c 23.78,2.78 47.83,16.45 72.09,40.97 24.17,24.44 37.55,48.6 40.09,72.45 2.58,23.9 -5.18,44.8 -23.29,62.7 -18.11,17.92 -39.15,25.55 -63.11,22.93 -23.94,-2.64 -48.04,-16.24 -72.3,-40.78 -24.26,-24.52 -37.59,-48.78 -39.96,-72.74 -2.36,-23.98 5.52,-44.93 23.6,-62.83 18.13,-17.92 39.07,-25.48 62.88,-22.7 z m -25.52,358.12 c 2.64,-12.1 2.38,-24.14 -0.73,-36.12 -2.58,-9.87 -6.63,-19.13 -12.14,-27.79 -5.51,-8.64 -13.21,-16.52 -23.11,-23.62 -11.95,-8.59 -25.85,-14.04 -41.67,-16.33 -15.83,-2.35 -31.07,1.65 -45.71,11.94 3.61,-14.84 2.86,-27.75 -2.29,-38.73 -5.12,-10.94 -16.47,-22.75 -34.02,-35.31 l -16.82,-12.09 c -11.44,-8.23 -18.89,-14.24 -22.29,-18.1 -5.44,-6.04 -17.74,-18.71 -17.74,-18.71 l -37.23,51.86 c 4.45,5.49 8.15,9.79 11.09,12.89 6.09,6.34 12.78,12.2 20.05,17.6 l 23.07,17.04 c 15.82,11.7 24.45,22.1 25.92,31.29 1.49,9.19 -3.06,21.14 -13.62,35.87 l -37.08,51.64 -98.22,-70.5 -36.6,50.97 251.14,180.28 86.07,-119.88 c 11.96,-17.39 19.27,-32.14 21.93,-44.2 z m -114.92,81.88 v 0 l -67.75,-48.64 40.71,-56.69 c 8.07,-11.26 15.5,-18.73 22.28,-22.38 11.95,-6.55 25,-4.74 39.13,5.42 15.3,10.98 22.1,23.16 20.42,36.58 -0.92,7.53 -5.28,16.74 -13.02,27.57 z m -39.95,104.16 c -7.56,-14.28 -19.55,-25.5 -35.93,-33.61 -16.92,-8.38 -32.56,-10.9 -46.99,-7.6 -8.08,1.81 -16.77,6.14 -26.04,12.91 1.76,-16.5 -1.16,-31.08 -8.81,-43.72 -7.65,-12.61 -19.41,-22.88 -35.34,-30.76 -16.42,-8.16 -33.19,-11.33 -50.31,-9.58 -11.25,0.92 -21.75,3.84 -31.51,8.77 -11.17,5.5 -20.98,13.61 -29.43,24.36 -8.46,10.77 -16.16,23.2 -23.14,37.24 l -61.77,124.68 276.99,137.27 66.24,-133.67 c 16.21,-33.97 18.24,-62.71 6.04,-86.29 z m -200.04,88.31 v 0 l -74.07,-36.68 33.64,-67.84 c 5.99,-12.11 12.31,-20.75 18.91,-25.89 12.08,-9.24 26.69,-9.66 43.76,-1.18 14.45,7.17 21.44,18.02 20.95,32.56 -0.25,8.11 -3.3,18.22 -9.12,30.26 z m 106.95,53.01 v 0 l -61.02,-30.24 33.29,-67.19 c 5.95,-11.97 13.07,-20.61 21.34,-25.83 8.27,-5.22 18.24,-4.96 29.88,0.83 12.9,6.38 18.97,15.56 18.18,27.5 -1.35,9.95 -5.3,21.55 -11.88,34.8 z m 1950.99,-1109.92 1.68,-6.92 c 6.11,-23.05 12.45,-38.76 18.98,-47.15 6.5,-8.38 16.68,-10.88 30.56,-7.5 13.74,3.32 21.57,10.7 23.48,22.1 1.16,6.75 -0.03,17.39 -3.56,31.95 l -62.86,207.43 62.44,15.19 62.65,-206.53 c 6.23,-25.58 6.85,-46.87 1.88,-63.89 -8.4,-28.81 -31.57,-47.84 -69.49,-57.08 -37.95,-9.21 -65.87,-5.19 -83.79,12.11 -17.94,17.28 -31.18,43.58 -39.77,78.89 l -1.68,6.95 59.48,14.45"
         style="fill:#1c5a34;fill-opacity:1;fill-rule:nonzero;stroke:none"
         id="path54" />
      <path
         d="m 3135.26,3151.89 c -41.17,-73.35 -152.76,-72.48 -227.03,-36.09 -5.95,2.92 -10.2,7.98 -1.75,16.41 9.61,9.63 79.45,73.91 84.71,78.66 4.85,4.37 9.46,5.26 15.01,3.35 27.42,-9.46 109.62,-39.28 125.45,-45 6.44,-2.33 7.84,-10.99 3.61,-17.33 z m 108.78,21.97 c -73.4,0 -176.33,42.48 -202.88,55 -8.16,3.85 -15.81,8.75 -6.76,18.42 9.58,10.2 46.52,43.15 54.93,68.4 10.32,20.62 2.12,43.19 -25.06,65.84 -27.16,22.63 -97.82,31.43 -144.86,7.9 -14.72,-6.87 -21.59,-6.4 -29.42,3.4 -18.86,30.21 -49.29,65.11 -100.67,84.75 -73.77,28.22 -143.04,1.36 -205.36,-32.96 -16.98,-9.36 -25.78,-12.89 -36.09,0 -23.21,46.41 -72.21,82.5 -116.05,100.56 -105.73,41.26 -191.97,-31.13 -275.9,-77.36 -37.38,-20.58 -95.02,-62.08 -126.33,-48.98 -31.33,13.1 -242.4,108.28 -242.4,108.28 -103.13,49 -203.69,100.58 -306.84,146.98 -14.36,-30.96 -66.79,-142.89 -78.94,-169.27 123.99,-673.85 715.78,-1186.02 1424.95,-1186.02 674.05,0 1242.11,462.71 1403.13,1087.17 0,0 -46.87,229.46 -57.19,250.07 0,0 -185.12,-66 -199.96,-72.6 -25.98,-8.73 -48.33,-15.3 -67.54,6.2 -192.75,176.46 -446.87,416.95 -578.49,514.9 -12.1,9.02 -29.93,19.46 -42.34,24.6 -191.3,79.47 -526.49,168.65 -545.31,174.1 -21.48,6.22 -40.64,5.23 -52.77,-5.2 -51.46,-44.31 -173.08,-178.74 -277.27,-219.12 -88.01,-34.14 -130.29,19.89 -113.45,61.89 34.58,86.29 216.07,371.49 231.88,396.8 8.34,13.31 29.1,16.07 40.8,17.46 11.67,1.46 376.36,31.14 389.98,31.81 13.65,0.66 33.2,-5.04 41.24,-7.75 69.88,-23.57 547.15,-246.72 835.45,-337.79 85.1,-18.03 149.57,36.12 216.6,74.79 36.09,25.8 73.57,48.5 105.7,82.52 -115.32,181.84 -167.93,493.76 -169.52,550.78 -168.6,64.71 -424.86,226.59 -509.84,346.63 -261.66,-111.95 -538.76,7.99 -672.28,137.48 -105.57,-109.27 -330.72,-221.72 -646.68,-214.92 -100.56,-159.89 -239.8,-324.91 -399.66,-438.35 -28.37,-121.19 -60.72,-266.31 -117.44,-377.19 -10.64,-21.37 -13.37,-37.12 2.96,-49.01 16.34,-11.87 93.85,-68.89 171.2,-61.15 116.04,25.8 226.92,67.04 337.8,108.3 85.07,25.8 209.77,67.46 267.23,63.8 15.25,-0.97 17.39,-10.22 12.24,-20.54 0,0 -105.52,-175.84 -158.17,-274.77 -48.85,-91.76 34.34,-165.11 148.93,-116.23 114.6,48.91 256.63,198.59 270.78,211.07 14.18,12.48 29.79,11.69 42.46,8.33 11.53,-3.07 391.56,-110.18 534.87,-167.27 14.32,-5.67 43.38,-26 48.13,-29.7 190.76,-149.02 568.4,-504.83 585.77,-527.51 17.79,-23.26 7.88,-53.91 -2.64,-73.63 -10.52,-19.71 -88.26,-99.93 -117.03,-109.15 -32.88,-10.52 -54.54,-6.11 -88.09,9.35 -162.44,100.58 -442.68,348.38 -458.95,360.99 -16.26,12.64 -33.47,-4.74 -16.56,-19.89 16.9,-15.17 344.5,-285.75 356.31,-294.3 15.82,-11.44 11.99,-33.88 3.65,-47.42 -8.34,-13.55 -41.26,-53.18 -78.78,-64.64 -24.9,-7.63 -62.28,-10.76 -101.2,6.26 -38.92,17.03 -268.75,155.66 -288.21,164.18 -18.15,7.95 -24.33,-10.95 -9.28,-20.06 15.05,-9.14 243.48,-139.98 226.82,-131.64 -0.2,0.1 -0.38,0.19 -0.56,0.28 9.28,-5.22 42.27,-25.89 35.96,-47.15 -8.32,-28.12 -66.28,-97.4 -123,-107.72 z m -218.21,101.93 c -17.41,-15.83 -244.39,-223.31 -324.1,-253.9 -65.78,-25.28 -148.51,5.9 -180.44,41.09 -14.9,16.43 -12.21,36.67 -3.2,44.5 57.02,49.65 383.77,246.73 421.71,264.97 44.29,21.32 113.83,-4.16 120.52,-33.25 6.7,-29.11 -17.07,-47.57 -34.49,-63.41 z m -166.4,107.98 c 11.4,-27.75 -35.9,-44.29 -66.85,-64.92 l -322.07,-201.71 c -41.26,-30.94 -67.09,-34.53 -111.33,-24.04 -44.23,10.51 -90.73,51.65 -96.36,75.36 -5.55,23.46 -1.08,43.77 27.34,62.52 108.95,71.88 353.07,227.29 408.07,232.45 68.79,6.38 142.39,-33.87 161.2,-79.66 z m -333.85,44.14 c 2.8,-9.27 -5.99,-14.34 -16.5,-21.53 -10.52,-7.17 -252.83,-154.11 -287.17,-174.9 -34.35,-20.8 -56.57,-20.75 -81.75,-10.09 -25.15,10.64 -61.91,56.27 -85.05,81.97 -23.13,25.74 -15.39,53.72 18.43,78.41 37.72,27.57 227.75,151.34 288.56,151.15 58.79,-0.18 145.51,-45.9 163.48,-105.01 z m -532.11,-21.99 v -7.72 c -69.61,-20.63 -141.81,-69.61 -216.59,-28.37 -23.21,18.06 -59.3,41.23 -67.04,72.2 -2.58,18.06 5.17,30.95 15.48,41.27 12.89,10.29 25.78,18.03 41.24,20.6 77.38,-30.92 152.14,-64.44 226.91,-97.98"
         style="fill:#040307;fill-opacity:1;fill-rule:evenodd;stroke:none"
         id="path56" />
    </g>
  </g>
</svg>
