<svg xmlns="http://www.w3.org/2000/svg" width="224" height="186" viewBox="0 0 224 186"><g fill="none" fill-rule="nonzero"><path fill="#000" d="M220.326 102.488c.538-4.565 2.24-9.667 3.674-12.71-2.33 0-4.838.716-7.258 1.79.628-2.864 1.344-5.46 1.344-8.951 0-7.698-5.734-14.322-6.72-25.242-2.06.895-3.584 1.612-5.017 3.402-3.943-10.473-9.856-12.621-14.784-19.513-2.778-3.85-3.943-6.803-4.39-9.846-2.24 1.969-3.495 4.117-4.57 6.892-2.688-3.133-5.645-5.997-8.96-8.414-4.032-2.954-8.87-4.833-12.813-8.056-2.15-1.7-3.584-4.028-5.466-5.907-1.075 2.058-1.433 4.296-1.881 6.534-2.509-2.148-5.287-4.297-8.333-5.55-2.06-.805-4.3-1.342-6.451-2.148-3.584-1.343-7.079-2.954-10.215-5.281-1.433-1.074-2.419-2.506-3.494-3.849-1.254 3.401-.269 7.608.627 10.92 1.434 5.102 3.226 10.025 6.451 14.322 1.434 1.969 3.495 3.49 5.287 5.102 1.523 1.342 3.136 3.222 4.48 5.191-5.914-.984-12.365-1.432-19.443-1.253 1.612-3.58 2.598-7.519 2.598-11.726C124.992 12.621 112.358 0 96.768 0c-15.68 0-28.314 12.62-28.314 28.195 0 5.64 1.703 10.92 4.57 15.306a72.628 72.628 0 0 0-13.709 3.85c1.792-4.566 4.57-8.683 5.555-13.785.986-5.281 1.255-17.275-.716-25.42-3.764 5.101-4.48 8.234-9.588 12.889-3.763 3.401-6.899 6.534-9.766 10.025-.358-2.149-.986-4.207-1.971-5.997-4.749 5.28-5.376 8.682-12.365 14.321-6.182 4.923-8.691 6.803-12.544 14.321-1.344-2.148-2.688-3.938-4.032-5.012-1.344 4.654-3.315 9.398-5.286 13.247-3.136 5.997-6.093 11.457-6.093 20.05 0 1.97.179 4.297.627 6.624-.986-.447-1.971-.806-3.136-.985.358 3.044 1.165 5.192 2.24 11.279 1.165 7.07 2.778 17.096 9.498 25.241-2.688-.716-5.376-.716-9.408-.358 1.97 1.97 6.988 7.519 9.318 11.547 3.315 5.55 7.885 12.352 14.157 16.47-.269.089-.627.179-.896.268-2.688.806-4.839 1.88-6.183 3.312 10.125 3.938 17.204 11.278 26.522 12.352-.986.806-2.06 1.7-3.315 3.043-.896.985-1.882 1.97-2.867 3.223 6.182.537 8.332-.09 14.694 2.058 9.946 3.223 15.59 1.97 21.325 1.433-1.703 1.61-3.584 3.58-5.466 6.265 4.122.448 7.706-.537 10.931-.537 3.226 0 10.036.806 14.695-.537 5.017-1.432 7.974-2.238 9.766-3.043-1.075 1.611-2.15 3.67-3.315 6.355 6.272-1.79 13.53-5.192 18.01-6.534 5.017-1.522 8.601-2.059 12.185-3.491 3.853-1.522 6.362-2.238 9.498-4.565 1.254-.895 2.15-1.88 2.957-2.864.716.895 1.075 1.342 1.075 2.685 0 1.7-.538 3.043-1.075 4.744 7.257-.179 16.486-.358 26.432-.269-1.165-2.416-.538-2.506-4.032-3.938-1.703-.716-5.018-2.596-7.796-4.565 5.376.806 9.588 1.074 16.845-1.7 8.333-3.044 9.587-5.013 15.143-7.25 3.136-1.254 5.376-1.791 6.81-2.06-1.434-1.969-2.689-3.132-4.212-4.027 12.902-8.325 15.59-15.486 22.042-21.483 2.15-1.969 4.48-3.938 7.257-5.728-1.433-.985-4.032-1.88-7.885-1.79 4.928-7.609 4.48-12.8 5.376-20.677Z"/><path fill="#F7DC14" d="M111.104 162.46c-18.01 0-33.42-2.955-46.323-7.788-27.418-10.294-43.187-34.461-43.187-53.527 0-10.83 2.598-20.587 7.705-28.732 6.183-9.757 14.157-17.723 25.178-23.093 3.673-6.087 5.824-7.34 7.616-15.307.627-2.774 1.075-4.385 1.523-6.802.538-3.223.448-10.383-.358-14.232-1.344 1.074-1.434 2.596-3.943 6.086-3.763 5.55-9.139 8.593-14.425 14.68.09 1.88.09 3.938-.09 6.176a64.7 64.7 0 0 1-.806 6.803c5.107-4.565 8.96-10.92 11.737-14.232-1.075 4.565-2.598 4.923-4.211 7.43-2.598 3.937-4.66 6.891-7.885 8.771-.717 3.222-1.881 5.908-4.211 8.861.09-4.028 3.942-8.145 3.942-18.439 0-4.475-.179-6.623-1.164-10.114-1.792 2.685-4.839 9.398-13.978 16.56-6.81 5.28-7.885 6.712-8.96 10.293 1.882 3.58 3.494 7.966 4.3 12.173 3.226-6.534 8.782-15.306 11.738-19.334-2.777 6.892-7.884 15.127-11.29 22.288.27 2.775.27 5.46-.358 7.698-1.702-3.491.807-4.297-2.777-13.964-3.495-9.667-4.39-10.562-6.003-11.994-.628 4.833-4.122 9.667-6.541 15.037-3.226 7.25-5.018 13.964-2.778 22.199 1.344.895 2.867 1.969 4.928 3.312a29.698 29.698 0 0 1 4.122 3.4c0-4.922-1.434-9.13-1.434-15.663 0-3.044.359-8.056.717-9.757.717 3.58.806 5.192 1.344 12.8.448 6.982 1.523 10.115.717 14.053 1.971 2.238 3.405 4.654 4.032 6.982-2.688-1.432-2.778-4.476-7.168-8.056-4.57-3.76-7.079-4.834-9.767-5.908.09 3.402 1.076 5.102 2.24 12.084 1.076 6.624 3.943 12.62 6.272 16.828 1.255 2.237 3.136 4.475 5.108 6.444 1.254.716 2.508 1.612 4.032 2.775 1.792 1.253 2.956 2.238 4.121 3.044-1.344-2.507-2.777-4.118-3.225-5.55-.986-3.043-3.405-5.102-7.079-11.1-2.688-4.296-3.763-6.712-5.107-10.65 4.211 6.444 7.885 12.889 11.11 17.095 1.972 2.686 4.39 7.788 6.99 11.816 1.433.716 3.225 1.432 6.092 2.148-2.957 0-5.107-.269-6.81-1.164-2.06-1.074-4.032-2.864-8.064-5.012-5.465-2.954-7.974-3.67-11.2-3.67 2.15 2.775 3.674 4.386 5.376 7.25 1.703 2.864 5.197 9.488 9.23 12.352 2.418 1.701 4.569 3.67 6.36 5.281 2.062-.358 4.302-.626 7.527-1.342 2.688-.627 5.287.09 8.333.537.358.09.806.09 1.165.179-6.093-3.58-13.888-4.923-22.938-12.263-1.702-1.432-2.957-2.685-3.315-3.938 6.272 3.67 9.498 5.728 14.963 8.324 5.466 2.596 9.14 3.133 11.738 6.445.627.716 1.433 1.253 2.24 1.79 3.584.447 5.824.805 7.616 1.522-2.688.358-6.451-1.164-11.29-.896-4.749.269-7.347-.626-13.171.538-4.48.805-7.078 2.148-8.064 3.043 4.48 1.7 7.078 3.222 10.573 5.191 3.046 1.701 6.182 4.923 15.949 5.102.985-.358 2.15-.626 3.494-1.074 3.942-1.163 7.526-1.88 11.29-2.775a7.574 7.574 0 0 0 1.523-.447c-3.943-.537-7.616-.537-12.992-1.522-7.885-1.521-10.394-2.506-17.114-3.401 3.674-.448 5.824-.269 14.515.806 7.706.984 9.588 3.043 18.19 3.311 1.612-.447 3.225-.716 5.286-.447-1.613.984-2.51.537-10.125 2.596-7.347 1.969-9.319 2.506-14.157 5.639-4.838 3.132-6.003 3.849-6.451 4.654 3.405-.716 4.032-.537 8.601.09 7.616 1.074 5.645 3.132 15.412 3.132 5.734 0 8.153-.984 12.544-2.864 2.06-1.611 3.852-2.864 7.616-5.639 3.763-2.775 8.601-4.475 13.977-4.565-2.957 1.611-7.705 2.059-12.723 5.46-6.451 4.386-10.304 8.862-14.246 12.89 3.315-.627 5.465-1.164 11.558-.806 6.093.358 13.44-1.074 20.07-4.297 1.524-.716 2.42-1.61 3.853-2.685.717-.716 1.434-1.432 2.15-2.327.359-.358.628-.716.986-1.074-3.405-.806-5.734-.448-9.766-.18-5.735.27-11.29 2.418-17.562 5.73 3.405-4.028 6.989-6.266 18.189-7.698 5.286-.627 8.602-.269 11.02.268 2.42-2.238 5.108-3.938 8.334-4.296-3.136 1.969-7.348 4.296-10.573 8.682-3.226 4.386-6.272 8.772-6.989 10.115 3.674-1.97 8.422-3.939 11.738-4.923 4.838-1.432 8.87-2.06 13.977-4.118 9.587-3.849 12.903-8.861 13.799-14.053 4.659.985 5.824 2.596 10.752 4.028 9.139 2.596 17.561 2.238 25.536-2.506 5.286-3.133 9.676-5.55 13.619-5.908-3.226-1.79-8.691-4.833-13.62-5.46-3.046-.358-6.271-.716-10.035-.537-5.465 3.223-11.737 5.908-18.726 7.877-12.365 3.58-25.894 5.46-41.664 5.46Z"/><path fill="#F7DC14" d="M201.69 125.76a51.748 51.748 0 0 1 5.017-1.521 39.834 39.834 0 0 1 5.018-.895c5.017-5.102 6.899-14.948 6.899-18.976 0-4.565 1.075-8.325 2.42-12.621-1.614 0-5.108 1.611-8.334 3.401-2.33 1.253-5.107 4.744-7.795 8.146-1.165 1.432-2.509 3.938-3.225 4.117.268-1.522 1.433-4.207 3.225-6.713.717-3.312.807-7.43 1.434-12.263.806-6.176.806-11.636 1.075-13.068.538 1.253.806 5.012.627 9.398-.179 5.46-.806 7.787-1.613 14.053.986-1.164 1.972-2.148 3.136-2.954 1.165-.895 2.42-1.7 3.853-2.506 2.24-3.043 2.778-6.534 2.778-9.935 0-8.862-4.39-11.1-6.362-23.362-2.06 1.521-3.942 4.654-6.361 8.95-2.33 4.118-2.599 7.967-3.943 11.637-.179-1.611-.09-3.044 0-4.386-.537-5.64-1.881-8.235-4.032-12.352-2.777-5.371-4.838-8.951-5.913-14.053.716.805.985 2.506 1.792 3.132 1.433.985 2.33 5.729 4.39 8.593 2.778 3.85 3.405 6.982 5.107 9.667.717-1.88 1.613-3.58 2.42-5.191.447-.895.895-1.7 1.343-2.417-.806-5.37-3.494-9.577-6.72-12.979-3.942-4.207-8.064-6.982-11.737-14.59-1.075 2.685-2.24 9.399-2.24 12.531 0 3.133.806 4.923.806 10.652-.985-1.522-1.165-2.685-1.613-4.207-.358-.537-1.792-1.88-2.24-2.327-1.702-1.79-3.315-3.491-5.107-5.192-4.032-4.028-8.601-8.324-11.379-13.337 1.434.806 2.33 2.238 3.405 3.402.806.895 1.702 1.7 2.598 2.596 3.495 3.49 8.064 7.608 12.007 10.83-.359-2.954-.538-5.997-.18-8.682-.268-.716-.716-1.7-.806-1.97-.986-1.88-2.24-3.58-3.584-5.101-3.942-4.297-9.498-6.445-14.246-9.667-1.703-1.164-3.495-2.238-4.928-3.76-.896-.895-1.703-1.79-2.688-2.596-.448 2.06-.448 4.028-.09 6.177.448 3.4 1.075 6.623 2.24 9.846 1.165 3.222 3.315 6.176 4.122 9.577-1.524-1.343-2.868-2.954-4.032-4.654-.448-.716-.807-1.522-1.255-2.238-.717-.895-1.881-1.79-2.777-2.506-5.197-4.118-11.917-6.714-16.128-12.084 1.97.805 3.584 2.059 5.376 3.222 2.419 1.611 5.017 3.133 7.526 4.655 1.523.984 2.957 2.058 4.48 2.953-.358-1.88-.986-3.759-1.165-5.639-.179-1.521.09-1.61-.627-2.774-.806-1.343-2.24-2.507-3.405-3.58-5.197-4.387-11.558-5.64-17.561-8.594-2.51-1.253-4.39-2.953-6.541-4.654-.269 2.506.358 4.654.985 6.982 1.613 6.086 5.645 11.546 10.125 15.932 1.165 1.164 2.509 2.148 3.584 3.312 1.075 1.164 2.24 2.417 3.315 3.67.448.537 1.255 1.97 1.972 3.133 12.096 2.596 22.31 7.608 31.897 14.68 14.784 10.83 22.848 27.747 22.848 44.664 0 6.356-1.523 12.89-4.211 19.424-4.749 11.457-12.365 20.855-23.117 27.658 4.122-.268 9.767-.358 13.171.985 1.344.537 2.51.895 3.495 1.342 1.792-.626 3.494-1.521 5.107-2.506 4.838-3.133 7.258-5.907 10.483-9.398 3.047-3.402 5.018-5.997 6.989-8.235 1.613-1.88 3.853-3.133 5.645-4.655-1.613-.716-5.287-.626-10.304.09-8.243 1.074-11.11 4.565-15.143 4.654 1.792-.805 2.957-1.521 4.032-2.148 6.093-4.565 6.9-8.772 9.856-12.8 4.032-5.55 3.047-7.966 6.452-12.083-1.434 6.176-4.48 13.068-6.9 16.111-1.792 1.432-2.598 3.044-4.748 5.997Zm-47.13 41.533c-1.523-1.164-4.66-2.954-7.258-5.55-.448 1.7-.985 3.222-1.612 4.475 1.523 1.522 2.06 2.417 2.06 4.028 0 1.97-.806 2.954.09 3.402 4.122-.18 14.784-.627 18.1-.269-1.345-1.521-5.108-1.521-11.38-6.086ZM96.23 32.76c-1.164 1.612-2.777 3.133-4.21 4.476-.897.805-1.524.895-2.689.716-3.494-.806-5.913-1.7-8.243-2.864-1.075-.537-1.254-.806-1.523-1.701-.538-1.522-1.075-3.401-1.344-5.37-.09-1.254 0-1.701.627-2.596 1.613-2.149 3.226-4.207 5.018-6.087.806-.895.985-1.074 2.419-.806 1.702.269 3.673.806 5.555 1.433 1.792.537 1.971.895 2.42 2.327.806 2.506 1.702 5.191 2.508 7.877.18 1.163.269 1.521-.538 2.595Z"/><path fill="#F7DC14" d="M114.957 25.868c1.613.537 3.225 1.074 5.376 2.506.717-.805 1.433-1.88 1.792-3.4.09.805.09 1.7.09 2.595 0 14.41-11.649 26.047-26.074 26.047a25.897 25.897 0 0 1-22.848-13.605c.806 0 1.523.179 2.598.716.896-1.164 1.882-3.402 2.778-4.386.627-.716.806-.806 1.702-.358 2.42 1.253 4.928 2.237 8.691 3.043 1.344.269 1.792.627 2.33 1.79.538 1.343 1.075 2.775 1.434 4.028.268 1.074.358 1.343-.27 2.506-.537.895-1.164 1.701-1.88 2.507 1.164-.537 1.791-1.075 2.687-2.149.538-.537.896-.716 1.613-.447 2.24.626 5.018 1.074 8.422 1.074 1.434-1.164 3.405-3.043 5.018-4.923.896-.985 1.523-1.253 2.598-.985 1.344.269 2.778.358 4.39.09a28.94 28.94 0 0 1-4.21-1.074c-.986-.358-1.255-.895-1.524-2.059-.268-1.253-.627-2.596-.896-3.938-.268-1.164-.179-1.522.448-2.328 1.434-1.969 2.868-4.028 3.943-6.265.537-1.343.806-1.343 1.792-.985Zm-5.914-10.741c-2.598-.985-5.017-1.611-7.437-2.238-1.075-.268-1.344-.447-1.792-1.432-.537-1.253-.896-2.327-1.164-3.67-.09-.716 0-.984.448-1.61.627-.717 1.344-1.433 1.97-2.06-1.164.627-1.88 1.075-2.598 1.522-.716.537-1.164.627-2.15.358a93.876 93.876 0 0 0-7.258-1.432c-1.433 1.164-3.315 2.864-4.838 4.565-.448.537-.806.716-1.882.626-1.075-.179-1.97-.537-2.777-.716 1.165.716 2.24 1.164 2.867 1.612.986.716.896 1.253 1.075 2.685.09.895.269 1.97.359 3.043.09 1.164-.09 1.7-.628 2.238-1.792 1.97-3.494 3.938-5.107 6.176-.537.716-.896.806-1.523.358-1.523-.985-2.778-2.238-4.032-3.49-.896.984-1.344 1.431-2.06 2.237C72.306 11.279 83.148 1.522 96.32 1.522c7.974 0 15.053 3.58 19.891 9.22-.806-.18-1.792-.359-2.957-1.165-.358 1.164-1.164 3.133-2.24 4.923-.627.806-.806 1.075-1.97.627Z"/><path fill="#F7DC14" d="M101.875 13.963c2.24.537 4.57 1.164 6.989 2.149 1.254.447 1.523.716 2.15 1.88.628 1.252 1.255 2.864 1.792 4.385.359 1.343.448 1.701 0 2.865-1.075 2.416-2.508 4.565-4.032 6.623-.716.985-.985 1.253-2.33 1.074-2.329-.358-5.196-.984-7.257-1.61-.985-.359-1.254-.538-1.613-1.701a184.29 184.29 0 0 0-2.33-7.52c-.447-1.252-.358-1.879.449-2.953 1.344-1.79 2.598-3.312 3.763-4.476.717-.805.986-1.074 2.42-.716Zm83.239 76.083c-.09-.716-.09-1.253-.18-1.611 0-.358-.09-.448-.358-.537-1.702-.537-3.763-.806-6.003-.895.358-2.327.627-4.834 1.075-7.43.627-4.117 1.344-9.398 1.523-10.92.269-1.79.717-3.132.717-4.385 0-.896-.09-1.701-.717-1.343-1.075.537-2.598 1.074-4.032 1.432-.537.18-.806.18-1.523 1.522-1.882-1.164-2.598-1.522-4.3-1.522-1.972 0-5.018.985-7.08 4.207-2.508 3.849-2.329 6.624-4.12 8.414-1.524 1.432-1.882 1.88-2.958 1.611-1.164-.179-2.688-1.522-1.344-8.145.448-2.328.359-1.88-.09-2.059-.626-.358-.358 0-1.522.716-1.076.627-1.434.895-2.33.537-.448-.179-.806-.268-.358-1.88.448-1.61.896-3.67.896-5.37 0-1.79-1.255-2.596-2.061-1.88-1.792 1.7-2.688 4.923-2.688 7.25 0 1.79.179 2.06.179 2.954 0 .895-.269 1.7-.986 2.238-.716.627-.268.716-1.881 1.343-.269.09-.627.268-.807.179-.358-.09-.537-.627-.537-1.612 0-1.253-.986-3.938-2.778-3.938-1.254 0-1.971.895-1.971 1.79 0 1.343.538 1.432.538 2.238-1.344.09-2.688.358-4.48 1.611-2.688 1.79-3.405 2.775-5.018 5.37-1.434 2.328-2.24 2.596-3.494 2.596-.538-.626-.986-3.848-.986-3.848-.986-1.88-1.971-2.328-3.763-2.417-1.703 1.342-1.613 3.58-.448 5.728 1.075 1.88 2.509 1.97 2.509 3.85 0 .894-.18 2.506-.717 4.206-.538 1.611-1.882 4.297-3.047 4.834-.358.179-.985.179-1.254-.358-.448-1.074-.09-1.253.18-4.028.806-9.488.895-23.183 1.612-31.06 0-.358-.09-.716-.448-.358-.627.448-1.971 1.88-1.971 1.88-.896 1.074-1.344 1.7-2.42 2.775-.806.805-.985.805-.985 1.342l-1.075 21.572c-.18 2.596-1.613 3.76-4.032 6.624-.538-.896-1.523-1.433-2.33-1.433-.896 0-3.763.627-5.913 1.343-.18-.358-.27-.537-.27-.895 0-.448.36-1.253.628-1.611.269-.358 1.344-1.343 2.15-1.164.628.09.986.448 1.076.806 0 .179.179.179.627 0 .448-.18.806-.537 1.971-1.074s1.702-.985 1.702-1.433c0-.268-.179-.358-1.075-.984-.717-.537-1.971-.627-2.688-.537-1.075.09-2.777.626-4.3 1.79-2.33 1.7-3.674 3.938-4.48 5.908-.538 1.432-.717 2.237-2.599 3.67-.896.716-2.06 1.61-3.584 1.88.538-11.727 1.075-23.72 1.075-26.764 0-.537 0-.895-.09-1.343-.179-.626 0-.626-1.343.716-1.076 1.074-1.524 1.612-2.688 3.312-1.076 1.611-1.076 1.611-1.165 3.312-.18 2.685-.627 10.473-1.075 19.245-.807-.269-1.255-.448-1.972-.448-.537 0-1.344.627-1.344 1.253 0 .627.27.716 1.434 1.7.538.448 1.075.896 1.702 1.343-.179 2.865-.268 5.819-.448 8.593-.985 6.713-4.39 13.069-6.003 13.069-.269 0-.358-.09-.537-.269a1.511 1.511 0 0 1-.27-.895c.36-8.861.628-14.5.718-19.513 0-2.685.09-4.117.09-5.102.268-3.76.895-6.445 1.97-10.025.628-2.059.807-4.207.538-6.266-.09-.626-.18-1.88-.627-2.327-.18-.268-.627-.268-1.165-.447-.986-.269-2.15 1.79-3.942 5.46-1.792 3.67-1.703 4.565-1.972 6.892-.268 2.417-1.254 15.037-1.344 26.763-.806 2.864-1.97 5.64-3.315 8.682-1.254 2.775-2.509 5.819-3.494 8.862 0 .09 0 .268.179.358l1.254.447h.18c.09 0 .09-.09.09-.179 1.074-3.043 2.329-5.907 3.494-8.682a61.126 61.126 0 0 1 1.881-4.117c.269 1.253.807 1.88 1.613 2.595.717.627 1.434.985 2.06.985 1.434 0 3.137-1.074 4.75-3.043 1.075-1.253 2.15-2.954 3.046-4.834-.269 4.655-.448 8.235-.448 9.936-.18 4.296-.448 5.907-.538 7.429-6.988 2.685-12.096 3.222-15.859 3.222-3.494 0-6.54-.895-9.229-2.327-7.168-3.938-11.11-9.667-11.11-19.065 0-4.297 1.523-7.967 3.584-11.01 1.344-2.059 3.315-3.938 5.376-5.64.717.09 1.344.18 1.882.18 3.225 0 5.824-.537 9.318-2.327 1.075-.537 3.763-2.149 3.674-3.491 0-.985-.359-1.97-1.434-2.596-.717-.358-1.792-.537-3.674 0-2.15.627-4.928 1.7-7.974 3.49-.538.27-1.165.717-1.792 1.164a7.891 7.891 0 0 1-2.24-1.969c-1.075-1.521-1.792-3.76-1.792-5.818 0-4.028 1.075-8.503 3.226-12.531 1.792-3.401 4.57-6.624 8.064-9.13 4.748-3.49 12.185-5.818 16.755-5.818 2.777 0 5.824.447 8.601 1.432 2.42.895 4.75 2.148 6.362 3.849.717.716 1.344 1.522 1.792 2.417.269.626.538 1.163 2.33 1.163 1.702 0 3.404 0 4.748.09.717 0 .538-.448 0-1.432-3.942-7.25-12.902-10.383-23.475-10.383-8.333 0-15.232 2.595-20.697 6.355-9.946 6.444-15.053 15.216-15.053 21.571 0 3.491 1.433 7.698 3.405 9.667 1.344 1.343 2.956 2.328 4.57 3.044-4.57 3.67-10.126 8.95-13.082 13.784-2.33 3.67-3.853 7.608-3.853 11.636 0 2.507 1.254 7.43 5.197 11.368 3.673 3.58 11.379 7.16 22.22 6.445 7.258-.537 13.71-1.97 20.07-4.386.09 3.58.897 5.46 2.33 5.46 1.972 0 4.928-2.865 7.168-9.757 4.301-2.237 8.692-4.833 13.35-7.877 11.918-7.697 19.086-16.648 22.938-26.226a16.79 16.79 0 0 0 1.076-4.028c-2.42.537-5.018 1.612-7.527 2.865-3.853 11.099-12.992 22.466-26.253 30.254-.896.537-1.702.984-2.508 1.432.09-.448.179-.895.358-1.343 1.254-5.728 1.523-11.546-.09-17.544-1.164-4.206-2.15-7.16-3.315-9.308 0-.448.09-.985.09-1.433.806-.268 1.613-.716 2.777-1.342 1.255-.627 2.33-1.522 3.136-2.238 1.255 1.164 2.868 1.88 4.839 1.343 1.971-.537 2.777-1.612 4.39-.09 0 1.611-.896 3.849-2.24 5.102-.806.716-1.792 1.253-2.688 1.253-.896 0-1.792-.984-1.702-2.506 0-.179.09-.358-.09-.448-.179-.089-.358 0-1.165.359-.179.089-.268.089-.448.268-.268.269-.896.358-1.344.895-.537.627-1.433.716-1.612 1.164-.18.358 0 1.074.896 1.969.806.806 1.702 1.432 2.956 1.432 1.165 0 1.792 0 2.599-.537 0 0 5.197-3.312 6.989-6.176.806-1.253 1.433-2.148 2.06-4.655.448-1.88 1.524-3.311 3.584-5.639-.179 3.491-.179 5.729.717 6.803.807.895 3.047.806 4.57-.268 3.225-2.238 6.63-5.371 7.168-11.547.09-.716.09-1.432.179-2.148 1.075-.627 1.882-.537 2.598-.806-.716 5.102 2.778 8.324 5.108 8.324 2.33 0 6.092-2.237 7.616-4.565 2.508-3.938 2.867-7.16 2.688-10.83.448-.358.896-.716 1.792-.985 2.06-.716 1.792-1.432 3.046-1.432.717 0 1.165.627 3.136 1.164-.717 2.058-1.882 3.938-1.882 6.623 0 1.79 1.165 3.312 3.226 3.312 4.211 0 6.003-4.923 8.78-7.519.27 1.433.807 2.596 1.703 3.67 0 0 1.703 1.164 3.047 1.164 3.404 0 5.644-2.238 8.153-5.908-.448 3.85-.806 7.43-1.254 10.652-10.035.358-18.1 2.327-23.834 5.102-6.451 3.043-13.977 9.935-13.977 15.485 0 4.207 4.659 6.982 10.93 6.982 6.72 0 15.77-3.223 22.67-9.488 5.734-5.281 7.795-10.204 8.87-15.754 2.24.18 4.211.448 6.272.985.448-.448.538-.537.538-.806Zm-107.79-1.88c.09-1.521.538-3.759 1.614-5.191.358-.448.627-.269.627.448-.09.895-.538 3.222-1.255 5.639-.179.537-.448 1.253-.806 2.148-.18-.895-.269-1.79-.18-3.043Zm-14.066 7.788c.896-.448 1.97-.448 2.33-.09.447.448.447 1.074-.18 1.522-1.165.985-3.315 1.522-5.376 1.522-.448 0-.896-.09-1.344-.18 1.882-1.163 3.584-2.237 4.57-2.774Zm29.299 25.33c0 7.699-.807 10.831-3.136 11.727-.448-1.97-.359-4.655-.09-11.368.09-3.133.359-8.414.627-14.411 1.524 3.76 2.599 8.861 2.599 14.053Zm49.37-41.173c-.18 3.043-1.972 5.997-4.391 5.997-2.509 0-3.405-2.417-3.405-5.281 0-1.7 1.165-3.85 2.599-5.102.896-.806 1.792-1.074 2.688-1.074 1.792 0 2.688 1.61 2.508 5.46Zm29.388 15.932c-1.792 4.118-4.39 7.609-9.139 10.652-8.422 5.46-15.232 5.908-19.622 3.938-3.136-1.432-3.495-4.833-1.434-7.877 2.867-4.117 7.974-8.592 16.755-11.457a45.699 45.699 0 0 1 13.888-2.148h1.434c-.538 2.685-1.075 5.013-1.882 6.892Zm.448-20.05c-1.254.716-4.3 1.432-4.211-3.401.09-4.834 2.15-5.729 3.494-5.729.717 0 1.165.09 1.613.448.448.358.448.716.717.895.18.09.896.09 1.434.179.627 5.012-1.882 6.982-3.047 7.608Z"/><path fill="#000" d="M86.195 165.055c-6.63 0-19.98 4.744-26.342 5.191 6.63.716 11.737-.09 16.128-1.074 6.182-1.342 7.168-.626 12.544-3.222-.538-.716-1.613-.895-2.33-.895Zm34.407 8.772c.716-2.059 3.136-3.67 5.555-5.55 3.405-2.775 6.989-3.49 10.125-4.207 3.046-.716 4.48-1.7 5.376-2.416-.538 1.074-2.688 3.49-5.824 4.564-3.226.985-6.541 2.238-9.23 3.939-2.777 1.611-3.225 2.596-6.002 3.67Zm62.361-18.887c-2.15 2.417-5.913 3.133-9.229 3.491-3.942.448-4.032-.09-8.69-.09-2.24 0-6.542 1.075-11.38 1.612.806-.895 2.15-1.343 3.942-1.88 1.434-.447 3.136-.895 4.66-1.074 3.942-.448 7.347-.268 10.841-.268 4.839.089 7.706-1.343 9.856-1.79Zm11.469-16.111c-1.523.895-2.867 1.342-3.853 2.864.896.09 2.24.269 3.047-.09.896-.447 1.881-1.61 2.777-2.237 2.15-1.522 5.107-3.939 6.9-5.908-2.51 1.522-6.273 3.849-8.871 5.37Z"/></g></svg>
