<?xml version="1.0" encoding="UTF-8" standalone="no"?>
<!-- Created with Inkscape (http://www.inkscape.org/) -->

<svg
   version="1.1"
   id="svg2"
   width="68.239998"
   height="100.12"
   viewBox="0 0 68.239998 100.12"
   sodipodi:docname="IK_Brage (1).eps"
   xmlns:inkscape="http://www.inkscape.org/namespaces/inkscape"
   xmlns:sodipodi="http://sodipodi.sourceforge.net/DTD/sodipodi-0.dtd"
   xmlns="http://www.w3.org/2000/svg"
   xmlns:svg="http://www.w3.org/2000/svg">
  <defs
     id="defs6" />
  <sodipodi:namedview
     id="namedview4"
     pagecolor="#ffffff"
     bordercolor="#000000"
     borderopacity="0.25"
     inkscape:showpageshadow="2"
     inkscape:pageopacity="0.0"
     inkscape:pagecheckerboard="0"
     inkscape:deskcolor="#d1d1d1" />
  <g
     id="g8"
     inkscape:groupmode="layer"
     inkscape:label="ink_ext_XXXXXX"
     transform="matrix(1.3333333,0,0,-1.3333333,0,100.12)">
    <g
       id="g10"
       transform="scale(0.1)">
      <path
         d="M 258.852,749.719 C 311.918,638.488 404.934,573.66 509.652,554.617 517.973,479.664 500.754,405.164 485.266,333.773 444.828,208.84 368.754,88.0586 258.098,0 l -6.649,4.91016 C 83.6836,147.703 -6.75391,334.504 0.394531,551.055 68.207,568.902 130.363,596.773 180.336,652.699 c 29.754,29.746 74.519,96.797 74.687,97.059 1.817,2.551 3.829,-0.039 3.829,-0.039"
         style="fill:#656263;fill-opacity:1;fill-rule:nonzero;stroke:none"
         id="path12" />
      <path
         d="M 256.359,741.828 C 238.5,710.891 217.875,680.074 191.703,652.699 139.348,595.586 76.5352,561.77 6.33984,546.301 6.33984,365.441 63.4492,208.367 183.625,77.4883 207.414,56.0742 231.215,26.3398 258.578,10.8672 422.777,148.879 512.023,335.695 503.695,548.672 c -59.511,14.289 -114.238,36.891 -161.836,79.723 -39.257,30.937 -62.785,73.242 -85.5,113.433"
         style="fill:#656263;fill-opacity:1;fill-rule:nonzero;stroke:none"
         id="path14" />
      <path
         d="M 260.402,691.773 C 300.051,605.52 391.234,545.527 478.098,531.254 494.621,390.336 400.336,153.215 259.77,52.5117 227.641,66.7852 203.852,98.9141 178.859,125.09 81.293,238.125 32.5117,377.344 37.2695,528.453 c 63.0665,17.848 126.1215,41.641 170.1445,99.942 17.852,21.414 43.027,64.75 43.469,65.757 5.301,8.965 9.519,-2.379 9.519,-2.379"
         style="fill:#656263;fill-opacity:1;fill-rule:nonzero;stroke:none"
         id="path16" />
      <path
         d="m 234.035,254.844 h 32.336 c 10.789,0 16.649,-4.871 16.649,-18.352 0,-11.988 -7.129,-18.531 -16.649,-18.531 H 234.035 Z M 214.223,140.242 h 51.98 c 29.348,0 38.399,16.289 38.399,37.27 0,18.164 -4.149,30.894 -17.93,34.453 v 0.371 c 10.293,5.254 16.164,14.98 16.164,28.477 0,22.273 -13.32,33.14 -33.606,33.14 h -55.007 z m 19.812,60.863 h 35.031 c 12.059,0 19.032,-7.492 19.032,-20.597 0,-13.485 -6.973,-21.16 -19.032,-21.16 h -35.031 v 41.757"
         style="fill:#656263;fill-opacity:1;fill-rule:nonzero;stroke:none"
         id="path18" />
      <path
         d="m 119.34,485.098 h 20.137 V 351.391 H 119.34 v 133.707"
         style="fill:#656263;fill-opacity:1;fill-rule:nonzero;stroke:none"
         id="path20" />
      <path
         d="m 336.789,485.059 h 21.406 v -60.825 l 54.453,60.825 h 26.387 l -48.828,-53.336 52.238,-80.285 h -26.711 l -40.078,63.82 -17.461,-18.914 v -44.906 h -21.406 v 133.621"
         style="fill:#656263;fill-opacity:1;fill-rule:nonzero;stroke:none"
         id="path22" />
      <path
         d="m 321.137,508.258 c -10.481,22.324 23.426,32.164 35.781,40.18 -5.684,-17.704 0.996,-50.309 -26.711,-46.668 -5.555,-6.54 -115.43,-162.508 -132.09,-191.067 -7.137,-24.98 -7.469,-56.601 -28.152,-64.504 -12.59,-5.523 -19.094,1.172 -23.184,-0.332 -5.527,-1.519 -5.644,-1.969 -7.258,-0.426 -1.043,0.985 0.286,1.407 -1.082,6.598 -2.128,8.078 -7.832,7.004 -7.128,17.082 2.371,33.313 38.242,36.824 59.667,53.488 l 130.157,185.649"
         style="fill:#656263;fill-opacity:1;fill-rule:nonzero;stroke:none"
         id="path24" />
      <path
         d="m 191.508,506.875 c 10.476,22.328 -22.285,32.883 -35.313,40.566 5,-17.699 -1.445,-50.687 26.25,-47.039 5.555,-6.543 115.43,-162.515 132.09,-191.078 7.137,-24.988 7.461,-56.597 28.153,-64.508 12.589,-5.531 19.093,1.192 23.183,-0.312 5.527,-1.524 5.645,-1.973 7.258,-0.449 1.035,0.996 -0.293,1.414 1.082,6.621 2.141,8.062 7.844,6.988 7.121,17.066 -2.363,33.313 -38.242,36.828 -59.66,53.488 L 191.508,506.875"
         style="fill:#656263;fill-opacity:1;fill-rule:nonzero;stroke:none"
         id="path26" />
      <path
         d="M 258.852,749.719 C 311.918,638.488 404.934,573.66 509.652,554.617 517.973,479.664 500.754,405.164 485.266,333.773 444.828,208.84 368.754,88.0586 258.098,0 l -6.649,4.91016 C 83.6836,147.703 -6.75391,334.504 0.394531,551.055 68.207,568.902 130.363,596.773 180.336,652.699 c 29.754,29.746 74.519,96.797 74.687,97.059 1.817,2.551 3.829,-0.039 3.829,-0.039"
         style="fill:#007f47;fill-opacity:1;fill-rule:nonzero;stroke:none"
         id="path28" />
      <path
         d="M 256.359,741.828 C 238.5,710.891 217.875,680.074 191.703,652.699 139.348,595.586 76.5352,561.77 6.33984,546.301 6.33984,365.441 63.4492,208.367 183.625,77.4883 207.414,56.0742 231.215,26.3398 258.578,10.8672 422.777,148.879 512.023,335.695 503.695,548.672 c -59.511,14.289 -114.238,36.891 -161.836,79.723 -39.257,30.937 -62.785,73.242 -85.5,113.433"
         style="fill:#ffffff;fill-opacity:1;fill-rule:nonzero;stroke:none"
         id="path30" />
      <path
         d="M 260.402,691.773 C 300.051,605.52 391.234,545.527 478.098,531.254 494.621,390.336 400.336,153.215 259.77,52.5117 227.641,66.7852 203.852,98.9141 178.859,125.09 81.293,238.125 32.5117,377.344 37.2695,528.453 c 63.0665,17.848 126.1215,41.641 170.1445,99.942 17.852,21.414 43.027,64.75 43.469,65.757 5.301,8.965 9.519,-2.379 9.519,-2.379"
         style="fill:#007f47;fill-opacity:1;fill-rule:nonzero;stroke:none"
         id="path32" />
      <path
         d="m 234.035,254.844 h 32.336 c 10.789,0 16.649,-4.871 16.649,-18.352 0,-11.988 -7.129,-18.531 -16.649,-18.531 H 234.035 Z M 214.223,140.242 h 51.98 c 29.348,0 38.399,16.289 38.399,37.27 0,18.164 -4.149,30.894 -17.93,34.453 v 0.371 c 10.293,5.254 16.164,14.98 16.164,28.477 0,22.273 -13.32,33.14 -33.606,33.14 h -55.007 z m 19.812,60.863 h 35.031 c 12.059,0 19.032,-7.492 19.032,-20.597 0,-13.485 -6.973,-21.16 -19.032,-21.16 h -35.031 v 41.757"
         style="fill:#ffffff;fill-opacity:1;fill-rule:nonzero;stroke:none"
         id="path34" />
      <path
         d="m 119.34,485.098 h 20.137 V 351.391 H 119.34 v 133.707"
         style="fill:#ffffff;fill-opacity:1;fill-rule:nonzero;stroke:none"
         id="path36" />
      <path
         d="m 336.789,485.059 h 21.406 v -60.825 l 54.453,60.825 h 26.387 l -48.828,-53.336 52.238,-80.285 h -26.711 l -40.078,63.82 -17.461,-18.914 v -44.906 h -21.406 v 133.621"
         style="fill:#ffffff;fill-opacity:1;fill-rule:nonzero;stroke:none"
         id="path38" />
      <path
         d="m 321.137,508.258 c -10.481,22.324 23.426,32.164 35.781,40.18 -5.684,-17.704 0.996,-50.309 -26.711,-46.668 -5.555,-6.54 -115.43,-162.508 -132.09,-191.067 -7.137,-24.98 -7.469,-56.601 -28.152,-64.504 -12.59,-5.523 -19.094,1.172 -23.184,-0.332 -5.527,-1.519 -5.644,-1.969 -7.258,-0.426 -1.043,0.985 0.286,1.407 -1.082,6.598 -2.128,8.078 -7.832,7.004 -7.128,17.082 2.371,33.313 38.242,36.824 59.667,53.488 l 130.157,185.649"
         style="fill:#ffffff;fill-opacity:1;fill-rule:nonzero;stroke:none"
         id="path40" />
      <path
         d="m 191.508,506.875 c 10.476,22.328 -22.285,32.883 -35.313,40.566 5,-17.699 -1.445,-50.687 26.25,-47.039 5.555,-6.543 115.43,-162.515 132.09,-191.078 7.137,-24.988 7.461,-56.597 28.153,-64.508 12.589,-5.531 19.093,1.192 23.183,-0.312 5.527,-1.524 5.645,-1.973 7.258,-0.449 1.035,0.996 -0.293,1.414 1.082,6.621 2.141,8.062 7.844,6.988 7.121,17.066 -2.363,33.313 -38.242,36.828 -59.66,53.488 L 191.508,506.875"
         style="fill:#ffffff;fill-opacity:1;fill-rule:nonzero;stroke:none"
         id="path42" />
    </g>
  </g>
</svg>
