<?xml version="1.0" encoding="UTF-8" standalone="no"?>
<!-- Created with Inkscape (http://www.inkscape.org/) -->

<svg
   version="1.1"
   id="svg2"
   width="370.07999"
   height="524.38666"
   viewBox="0 0 370.07999 524.38666"
   sodipodi:docname="IK Sirius.eps"
   xmlns:inkscape="http://www.inkscape.org/namespaces/inkscape"
   xmlns:sodipodi="http://sodipodi.sourceforge.net/DTD/sodipodi-0.dtd"
   xmlns="http://www.w3.org/2000/svg"
   xmlns:svg="http://www.w3.org/2000/svg">
  <defs
     id="defs6" />
  <sodipodi:namedview
     id="namedview4"
     pagecolor="#ffffff"
     bordercolor="#000000"
     borderopacity="0.25"
     inkscape:showpageshadow="2"
     inkscape:pageopacity="0.0"
     inkscape:pagecheckerboard="0"
     inkscape:deskcolor="#d1d1d1" />
  <g
     id="g8"
     inkscape:groupmode="layer"
     inkscape:label="ink_ext_XXXXXX"
     transform="matrix(1.3333333,0,0,-1.3333333,0,524.38667)">
    <g
       id="g10"
       transform="scale(0.1)">
      <path
         d="M 1387.78,3932.91 C 245.883,3932.91 0,3843.56 0,3843.56 v -807 c 0,-15.98 0.816406,-31.93 2.44531,-47.83 1.79688,-17.5 3.92188,-38.2 3.92188,-38.2 4.19921,-23.45 11.62111,-76.37 23.54301,-96.99 7.1328,-12.33 15.914,-24.55 26.7304,-36.14 66.0934,-70.82 70.8204,-108.58 70.8204,-184.12 V 1291.79 C 127.461,583.219 691.297,0.609375 1349.53,0.609375 c 12.64,0 25.29,-0.5976562 38.02,-0.5976562 V 0 c 0.03,0 0.07,0 0.11,0 0.04,0 0.08,0 0.12,0 v 0.0117188 0 0 L 1387.78,0 c 0.04,0 0.08,0 0.12,0 0.03,0 0.07,0 0.11,0 v 0.0117188 c 12.72,0 25.38,0.5976562 38.02,0.5976562 658.23,0 1222.07,582.609625 1222.07,1291.180625 v 1341.49 c 0,75.54 4.72,113.3 70.82,184.12 10.81,11.59 19.6,23.81 26.73,36.14 11.92,20.62 19.34,73.54 23.54,96.99 0,0 2.13,20.7 3.92,38.2 1.63,15.9 2.45,31.85 2.45,47.83 v 807 c 0,0 -245.89,89.35 -1387.78,89.35"
         style="fill:#dcdddc;fill-opacity:1;fill-rule:nonzero;stroke:none"
         id="path12" />
      <path
         d="m 2653.07,3757.47 -7.6,1.49 c -208.11,40.84 -631.24,71.55 -1257.64,71.55 -626.396,0 -1049.529,-30.71 -1257.635,-71.55 l -7.597,-1.49 -2.317,-749.54 c 0,-4.02 0.403,-99.01 39.785,-148.25 l 3.497,-4.36 5.507,0.97 c 287.305,50.49 710.11,86.1 1218.99,86.1 508.87,0 931.23,-35.61 1218.53,-86.1 l 5.51,-0.97 3.5,4.36 c 39.38,49.24 39.78,144.23 39.78,148.25 l -2.31,749.54"
         style="fill:#000000;fill-opacity:1;fill-rule:nonzero;stroke:none"
         id="path14" />
      <path
         d="m 443.227,3227.34 -128.914,-12.45 0.82,-33.23 c 1.972,-125.57 21.039,-175.26 170.855,-158.98 123.297,13.39 171.2,39.74 168.813,191.46 -2.547,162.2 -19.469,163.26 -168.274,201.05 -41.183,9.83 -51.339,16.64 -51.968,56.76 l -0.657,41.85 c -0.472,29.65 1.797,45.38 38.629,45.96 35.164,0.56 39.418,-3.74 40.293,-59.55 l 0.485,-27.79 123.894,9.23 -1.195,75.86 c -1.383,88.07 -40.625,119.42 -162.66,110.42 -131.93,-9.73 -175.571,-17.58 -173.254,-164.95 l 0.601,-38.37 c 1.766,-112.49 23.118,-139.2 131.535,-164.53 73.122,-17.17 82.372,-19.64 83.055,-63.24 l 1.07,-68.02 c 0.426,-27.03 -9.457,-37.66 -40.433,-38.14 -41.02,-0.64 -31.293,26.39 -31.981,69.99 l -0.714,26.67 v 0"
         style="fill:#dcdddc;fill-opacity:1;fill-rule:nonzero;stroke:none"
         id="path16" />
      <path
         d="m 2255.09,3232.95 -128.96,8.03 -1.74,-41.17 c -4.07,-125.49 23.93,-164.1 172.94,-177.88 117.52,-10.88 172.38,21.45 177.3,173.08 5.27,162.09 -11.1,173.96 -157.88,218.86 -40.65,11.79 -50.46,19.08 -49.16,59.17 l 1.36,41.84 c 0.95,29.62 3.98,45.23 40.79,44.03 35.14,-1.14 39.18,-15.64 37.37,-71.41 l -0.99,-20.79 123.82,-13.23 2.46,85.32 c 2.85,88.02 -41.04,119.36 -156.64,128.09 -131.88,9.96 -176.17,0.9 -180.96,-146.38 l -1.24,-48.35 c -3.65,-112.42 16.39,-140.11 123.43,-170.63 72.19,-20.66 81.31,-23.58 79.9,-67.15 l -2.21,-67.98 c -0.87,-27.01 -11.25,-37.14 -42.21,-36.13 -40.99,1.32 -40.42,28.76 -39.01,72.33 l 1.47,25.31 0.16,5.04"
         style="fill:#dcdddc;fill-opacity:1;fill-rule:nonzero;stroke:none"
         id="path18" />
      <path
         d="m 742.879,3044.06 v 20.5 l -9.399,620.3 c 43.7,2 89,3.7 135.598,5.3 l 9.801,-637 -136,-9.1"
         style="fill:#dcdddc;fill-opacity:1;fill-rule:nonzero;stroke:none"
         id="path20" />
      <path
         d="m 1149.68,3394.36 -28.5,-0.5 -3.5,199.2 44.5,0.8 c 32,0.6 45.6,-14.2 46.2,-46.8 l 1.7,-96.1 c 0.7,-41.4 -7.9,-55.6 -60.4,-56.6 z m 211.8,-152.3 c -1.4,78.4 -36.3,89.3 -102.4,104 62.1,11.7 100,34.4 98.3,131.3 l -1.4,76.7 c -1.6,92.8 -29,131.8 -114.8,143.4 -0.1,0 -0.1,0 -0.2,0 -94.7,-0.7 -185.8,-2.2 -272.8,-4.4 l 9.597,-635.1 71.803,2.6 75.4,2.4 -1.9,221.6 24.9,0.5 c 49.8,0.8 65.2,-10.3 65.6,-36.8 l 5.1,-183.4 75.4,1 68.4,0.4 -1,175.8"
         style="fill:#dcdddc;fill-opacity:1;fill-rule:evenodd;stroke:none"
         id="path22" />
      <path
         d="m 1593.18,3696.76 v -632.6 l -132.5,2.1 v 631.6 c 44.9,-0.2 89.1,-0.5 132.5,-1.1"
         style="fill:#dcdddc;fill-opacity:1;fill-rule:nonzero;stroke:none"
         id="path24" />
      <path
         d="m 2049.78,3683.76 v -4.4 l -8.3,-475.3 c -2.5,-138.7 -63.6,-152.8 -178.2,-150.8 -114.6,2 -180.7,20.4 -178.3,159.1 l 6.5,482.9 144.2,-3.4 -7.7,-486.3 c -0.4,-24.1 8.8,-39.8 37.2,-40.3 28.5,-0.5 38.2,14.9 38.6,39 l 9.7,485.1 c 46.9,-1.6 92.4,-3.5 136.3,-5.6"
         style="fill:#dcdddc;fill-opacity:1;fill-rule:nonzero;stroke:none"
         id="path26" />
      <path
         d="M 957.078,195.859 V 2853.36 c -277.301,-11.8 -516.801,-34.7 -707.301,-63.9 0,0 0,-4.6 0,-13.2 0,-130.5 -0.398,-724.65 -0.398,-723.95 v -760.52 c 0,-455.751 281.664,-934.071 707.699,-1095.931 v 0"
         style="fill:#1e599f;fill-opacity:1;fill-rule:nonzero;stroke:none"
         id="path28" />
      <path
         d="m 1388.52,2862.36 c -120,0 -235.2,-2 -345,-5.7 V 158.559 l 6.9,-1.899 c 105.2,-28.801 217.3,-42.801 342.9,-42.801 118.9,0 230.8,14.403 332.6,42.7 l 7,1.902 0.2,2617.799 v 80.4 c -109.6,3.7 -224.7,5.7 -344.6,5.7"
         style="fill:#000000;fill-opacity:1;fill-rule:nonzero;stroke:none"
         id="path30" />
      <path
         d="m 1703.45,1052.5 -241.14,-0.02 -74.53,229.36 -74.52,-229.36 h -241.15 l 195.08,-141.742 -74.52,-229.347 195.11,141.738 195.1,-141.738 -74.52,229.347 195.09,141.762"
         style="fill:#fae02c;fill-opacity:1;fill-rule:nonzero;stroke:none"
         id="path32" />
      <path
         d="m 1819.08,195.859 c 426.03,161.86 707.7,640.18 707.7,1095.931 v 760.52 c 0,-0.7 -0.4,593.45 -0.4,723.95 0,8.6 0,13.2 0,13.2 -190.5,29.2 -430,52.1 -707.3,63.9 v -2657.501 0"
         style="fill:#1e599f;fill-opacity:1;fill-rule:nonzero;stroke:none"
         id="path34" />
      <path
         d="m 1973.57,2438.47 c 0,-61.71 26.76,-75.78 94.37,-75.78 67.62,0 94.4,14.07 94.4,75.78 v 174.71 c 0,71.25 -26.78,85.32 -94.4,85.32 -64.43,0 -95.29,-15.44 -94.37,-85.32 z m 75.31,191.5 c 0,11.35 5.45,14.98 19.06,14.98 13.62,0 19.07,-3.18 19.07,-12.25 v -201.49 c 0,-11.34 -5.45,-14.98 -19.07,-14.98 -13.61,0 -19.06,3.64 -19.06,14.98 v 198.76 0"
         style="fill:#dcdddc;fill-opacity:1;fill-rule:evenodd;stroke:none"
         id="path36" />
      <path
         d="m 2204.59,2638.59 h 92.57 l -72.15,-272.27 h 76.24 l 70.33,272.73 v 55.82 h -166.99 v -56.28 0"
         style="fill:#dcdddc;fill-opacity:1;fill-rule:nonzero;stroke:none"
         id="path38" />
      <path
         d="m 373.859,2604.11 40.391,-39.48 48.555,73.96 h 0.902 v -272.27 h 75.332 v 328.55 h -95.297 l -69.883,-90.76 v 0"
         style="fill:#dcdddc;fill-opacity:1;fill-rule:nonzero;stroke:none"
         id="path40" />
      <path
         d="m 613.508,2423.04 c 0,-42.66 6.805,-60.35 83.043,-60.35 83.043,0 107.551,8.17 107.551,110.72 v 154.75 c 0,58.54 -23.598,70.34 -95.75,70.34 -90.762,0 -97.571,-16.34 -97.571,-115.27 0,-62.62 4.996,-85.31 68.528,-85.31 27.226,0 36.757,6.8 46.738,23.6 h 1.816 v -86.68 c 0,-15.88 -7.715,-18.61 -21.785,-18.61 -18.152,0 -19.965,4.54 -19.965,16.34 v 32.68 h -72.605 z m 72.605,206.48 c 0,12.25 4.535,15.43 21.328,15.43 16.793,0 21.329,-3.18 21.329,-15.43 v -63.54 c 0,-12.7 -7.715,-17.24 -21.329,-17.24 -17.246,0 -21.328,5 -21.328,18.16 v 62.62 0"
         style="fill:#dcdddc;fill-opacity:1;fill-rule:evenodd;stroke:none"
         id="path42" />
    </g>
  </g>
</svg>
