<?xml version="1.0" encoding="UTF-8" standalone="no"?>
<!-- Created with Inkscape (http://www.inkscape.org/) -->

<svg
   version="1.1"
   id="svg2"
   width="256.10666"
   height="252.09332"
   viewBox="0 0 256.10666 252.09332"
   sodipodi:docname="Jönköping_Södra (1).eps"
   xmlns:inkscape="http://www.inkscape.org/namespaces/inkscape"
   xmlns:sodipodi="http://sodipodi.sourceforge.net/DTD/sodipodi-0.dtd"
   xmlns="http://www.w3.org/2000/svg"
   xmlns:svg="http://www.w3.org/2000/svg">
  <defs
     id="defs6" />
  <sodipodi:namedview
     id="namedview4"
     pagecolor="#ffffff"
     bordercolor="#000000"
     borderopacity="0.25"
     inkscape:showpageshadow="2"
     inkscape:pageopacity="0.0"
     inkscape:pagecheckerboard="0"
     inkscape:deskcolor="#d1d1d1" />
  <g
     id="g8"
     inkscape:groupmode="layer"
     inkscape:label="ink_ext_XXXXXX"
     transform="matrix(1.3333333,0,0,-1.3333333,0,252.09333)">
    <g
       id="g10"
       transform="scale(0.1)">
      <path
         d="m 1002.79,39.2383 c 0,-21.2969 -17.263,-38.589862 -38.575,-38.589862 -21.289,0 -38.563,17.292962 -38.563,38.589862 0,21.293 17.274,38.5703 38.563,38.5703 21.312,0 38.575,-17.2773 38.575,-38.5703"
         style="fill:#edae09;fill-opacity:1;fill-rule:nonzero;stroke:none"
         id="path12" />
      <path
         d="m 994.641,121.781 c 0,-16.793 -13.625,-30.4099 -30.422,-30.4099 -16.781,0 -30.403,13.6169 -30.403,30.4099 0,16.789 13.622,30.41 30.403,30.41 16.797,0 30.422,-13.621 30.422,-30.41"
         style="fill:#edae09;fill-opacity:1;fill-rule:nonzero;stroke:none"
         id="path14" />
      <path
         d="m 122.664,1543.99 c 0,0 -83.6054,-91.98 -88.5273,-174.53 -4.9179,-82.55 46.7227,-160.39 46.7227,-160.39 0,0 63.9376,56.61 41.8046,334.92"
         style="fill:#edae09;fill-opacity:1;fill-rule:nonzero;stroke:none"
         id="path16" />
      <path
         d="m 898.969,113.828 c -6.059,35.254 -35.043,103.024 -159.004,173.051 0,0 6.012,-60.617 80.445,-134.418 36.758,-7.152 63.047,-20.141 78.559,-38.633"
         style="fill:#edae09;fill-opacity:1;fill-rule:nonzero;stroke:none"
         id="path18" />
      <path
         d="m 744.879,190.238 c 2.812,-0.359 5.371,-0.449 7.371,-0.066 0,0 -14.738,113.226 -167.23,233.508 0,0 10.476,-71.442 49.847,-139.071 72.125,-40.199 106.715,-89.48 110.012,-94.371"
         style="fill:#edae09;fill-opacity:1;fill-rule:nonzero;stroke:none"
         id="path20" />
      <path
         d="m 564.063,349.879 8.632,-9.617 c -0.675,22.519 -11.429,141.847 -159.824,265.019 0,0 21.902,-97.98 53.129,-165.851 57.574,-44.809 95.285,-86.442 98.063,-89.551"
         style="fill:#edae09;fill-opacity:1;fill-rule:nonzero;stroke:none"
         id="path22" />
      <path
         d="m 394.414,523.25 3.699,-0.52 c 0,0 29.52,77.829 -105.75,290.122 0,0 -7.109,-85.473 12.024,-163.274 54.047,-60.066 85.226,-117.367 87.394,-121.406 l 2.633,-4.922"
         style="fill:#edae09;fill-opacity:1;fill-rule:nonzero;stroke:none"
         id="path24" />
      <path
         d="m 255.473,744.449 c 0,0 49.191,110.84 -49.18,301.891 0,0 -12.172,-89.027 -12.582,-167.211 42.742,-68.777 53.242,-121.238 54.602,-128.899 2.441,-2.218 4.851,-4.25 7.16,-5.781"
         style="fill:#edae09;fill-opacity:1;fill-rule:nonzero;stroke:none"
         id="path26" />
      <path
         d="m 152.738,991.754 -0.187,-9.227 c 3.445,-5.187 6.695,-9.375 9.465,-11.672 0,0 61.492,103.785 -12.289,346.715 0,0 -34.106,-77.24 -42.36,-162.48 45.938,-96.12 45.442,-159.664 45.371,-163.336"
         style="fill:#edae09;fill-opacity:1;fill-rule:nonzero;stroke:none"
         id="path28" />
      <path
         d="m 642.926,167.75 c 0,0 66.629,-102.3711 168.797,-121.4219 47.343,-8.8086 81.761,2.543 84.41,20.2422 2.64,17.711 -2.656,59.1207 -94.965,71.7817 -92.324,12.636 -122.414,16.546 -158.242,29.398"
         style="fill:#edae09;fill-opacity:1;fill-rule:nonzero;stroke:none"
         id="path30" />
      <path
         d="m 471.887,317.539 c 0,0 56.574,-101.41 147.566,-120.277 91,-18.871 110.668,-16.512 110.668,-16.512 0,0 -78.695,117.922 -258.234,136.789"
         style="fill:#edae09;fill-opacity:1;fill-rule:nonzero;stroke:none"
         id="path32" />
      <path
         d="m 287.441,520.379 c 0,0 22.129,-91.981 122.969,-134.449 100.828,-42.45 140.18,-47.16 140.18,-47.16 0,0 -120.508,134.429 -263.149,181.609"
         style="fill:#edae09;fill-opacity:1;fill-rule:nonzero;stroke:none"
         id="path34" />
      <path
         d="m 147.262,749.16 c 0,0 2.461,-113.219 110.66,-167.461 108.211,-54.25 118.051,-61.32 118.051,-61.32 0,0 -88.532,165.101 -228.711,228.781"
         style="fill:#edae09;fill-opacity:1;fill-rule:nonzero;stroke:none"
         id="path36" />
      <path
         d="m 51.3438,1013.32 c 0,0 0.3984,-2.63 1.2695,-7.31 5.2578,-28.268 27.8515,-131.791 84.8087,-188.451 66.402,-66.047 93.461,-70.77 93.461,-70.77 0,0 -22.153,136.801 -179.5392,266.531"
         style="fill:#edae09;fill-opacity:1;fill-rule:nonzero;stroke:none"
         id="path38" />
      <path
         d="m 11.9961,1275.11 c -7.3086,9.5 4.9336,-141.5 54.1133,-207.56 49.1796,-66.03 68.8556,-75.464 68.8556,-75.464 0,0 2.461,120.294 -122.9689,283.024"
         style="fill:#edae09;fill-opacity:1;fill-rule:nonzero;stroke:none"
         id="path40" />
      <path
         d="m 1805.76,1543.99 c 0,0 83.63,-91.98 88.54,-174.53 4.93,-82.55 -46.71,-160.39 -46.71,-160.39 0,0 -63.96,56.61 -41.83,334.92"
         style="fill:#edae09;fill-opacity:1;fill-rule:nonzero;stroke:none"
         id="path42" />
      <path
         d="m 1029.47,113.828 c 6.08,35.254 35.04,103.024 159.01,173.051 0,0 -6.02,-60.617 -80.45,-134.418 -36.76,-7.152 -63.05,-20.141 -78.56,-38.633"
         style="fill:#edae09;fill-opacity:1;fill-rule:nonzero;stroke:none"
         id="path44" />
      <path
         d="m 1183.55,190.238 c -2.81,-0.359 -5.36,-0.449 -7.36,-0.066 0,0 14.75,113.226 167.23,233.508 0,0 -10.49,-71.442 -49.85,-139.071 -72.12,-40.199 -106.71,-89.48 -110.02,-94.371"
         style="fill:#edae09;fill-opacity:1;fill-rule:nonzero;stroke:none"
         id="path46" />
      <path
         d="m 1364.38,349.879 -8.64,-9.617 c 0.67,22.519 11.45,141.847 159.83,265.019 0,0 -21.92,-97.98 -53.15,-165.851 -57.56,-44.809 -95.27,-86.442 -98.04,-89.551"
         style="fill:#edae09;fill-opacity:1;fill-rule:nonzero;stroke:none"
         id="path48" />
      <path
         d="m 1534.02,523.25 -3.71,-0.52 c 0,0 -29.51,77.829 105.76,290.122 0,0 7.11,-85.473 -12.02,-163.274 -54.05,-60.066 -85.22,-117.367 -87.4,-121.406 l -2.63,-4.922"
         style="fill:#edae09;fill-opacity:1;fill-rule:nonzero;stroke:none"
         id="path50" />
      <path
         d="m 1672.97,744.449 c 0,0 -49.2,110.84 49.18,301.891 0,0 12.17,-89.027 12.56,-167.211 -42.72,-68.777 -53.23,-121.238 -54.57,-128.899 -2.46,-2.218 -4.87,-4.25 -7.17,-5.781"
         style="fill:#edae09;fill-opacity:1;fill-rule:nonzero;stroke:none"
         id="path52" />
      <path
         d="m 1775.7,991.754 0.2,-9.227 c -3.46,-5.187 -6.72,-9.375 -9.47,-11.672 0,0 -61.51,103.785 12.29,346.715 0,0 34.1,-77.24 42.35,-162.48 -45.93,-96.12 -45.44,-159.664 -45.37,-163.336"
         style="fill:#edae09;fill-opacity:1;fill-rule:nonzero;stroke:none"
         id="path54" />
      <path
         d="m 1285.51,167.75 c 0,0 -66.63,-102.3711 -168.79,-121.4219 -47.35,-8.8086 -81.78,2.543 -84.42,20.2422 -2.63,17.711 2.66,59.1207 94.98,71.7817 92.31,12.636 122.4,16.546 158.23,29.398"
         style="fill:#edae09;fill-opacity:1;fill-rule:nonzero;stroke:none"
         id="path56" />
      <path
         d="m 1456.56,317.539 c 0,0 -56.58,-101.41 -147.59,-120.277 -90.98,-18.871 -110.65,-16.512 -110.65,-16.512 0,0 78.69,117.922 258.24,136.789"
         style="fill:#edae09;fill-opacity:1;fill-rule:nonzero;stroke:none"
         id="path58" />
      <path
         d="m 1641,520.379 c 0,0 -22.14,-91.981 -122.97,-134.449 -100.82,-42.45 -140.18,-47.16 -140.18,-47.16 0,0 120.51,134.429 263.15,181.609"
         style="fill:#edae09;fill-opacity:1;fill-rule:nonzero;stroke:none"
         id="path60" />
      <path
         d="m 1781.17,749.16 c 0,0 -2.45,-113.219 -110.66,-167.461 -108.21,-54.25 -118.05,-61.32 -118.05,-61.32 0,0 88.54,165.101 228.71,228.781"
         style="fill:#edae09;fill-opacity:1;fill-rule:nonzero;stroke:none"
         id="path62" />
      <path
         d="m 1877.09,1013.32 c 0,0 -0.39,-2.63 -1.27,-7.31 -5.26,-28.268 -27.83,-131.791 -84.8,-188.451 -66.41,-66.047 -93.46,-70.77 -93.46,-70.77 0,0 22.14,136.801 179.53,266.531"
         style="fill:#edae09;fill-opacity:1;fill-rule:nonzero;stroke:none"
         id="path64" />
      <path
         d="m 1916.44,1275.11 c 7.31,9.5 -4.92,-141.5 -54.1,-207.56 -49.2,-66.03 -68.87,-75.464 -68.87,-75.464 0,0 -2.45,120.294 122.97,283.024"
         style="fill:#edae09;fill-opacity:1;fill-rule:nonzero;stroke:none"
         id="path66" />
      <path
         d="m 1406.83,1571.03 c -27.04,73.88 -71.98,139.08 -129.41,190.16 -82.93,73.98 -193.38,119.23 -313.205,119.17 -119.82,0.06 -230.27,-45.19 -313.199,-119.17 -57.442,-51.08 -102.383,-116.28 -129.414,-190.16 H 302.621 184.547 v -118.08 c -0.035,-175.49 29.207,-334.56 77.269,-475.305 72.129,-211.266 185.989,-380.856 305.547,-508.524 59.84,-63.883 121.172,-117.371 180.211,-160.82 59.129,-43.43 115.723,-76.789 168.012,-100.469 l 48.629,-21.98 48.625,21.98 c 69.62,31.566 147.34,80.359 227.67,147.27 120.15,100.308 245.31,241.617 341.39,425.168 96.05,183.359 162.09,409.35 161.99,672.68 v 118.08 h -337.06"
         style="fill:#edae09;fill-opacity:1;fill-rule:nonzero;stroke:none"
         id="path68" />
      <path
         d="m 1387.81,1544.43 c -24.53,76.89 -69.38,144.67 -128.08,196.89 -78.29,69.83 -182.39,112.48 -295.515,112.43 -113.121,0.05 -217.207,-42.6 -295.508,-112.43 -58.703,-52.22 -103.551,-120 -128.094,-196.89 H 211.148 v -91.47 C 210.977,1107.57 326.453,829.441 472.656,626.281 545.766,524.52 626.453,441.051 704.957,375.531 783.605,310.02 859.625,262.41 926.547,232.078 l 37.668,-17.019 37.665,17.019 c 66.91,30.332 142.94,77.934 221.6,143.453 117.67,98.258 240.6,237 334.86,417.071 94.2,179.925 159.02,401.458 158.95,660.358 v 91.47 h -329.48"
         style="fill:#ffffff;fill-opacity:1;fill-rule:nonzero;stroke:none"
         id="path70" />
      <path
         d="m 1337.42,1479.57 c -33.04,176.16 -187.53,309.27 -373.205,309.32 -185.668,-0.05 -340.16,-133.16 -373.192,-309.32 H 276.016 v -26.61 C 275.969,1122.14 385.957,858.039 525.336,664.109 664.906,470.059 832.848,345.762 953.258,291.18 l 10.957,-4.95 10.961,4.95 c 120.424,54.582 288.354,178.879 427.934,372.929 139.37,193.93 249.37,458.031 249.31,788.851 v 26.61 h -315"
         style="fill:#edae09;fill-opacity:1;fill-rule:nonzero;stroke:none"
         id="path72" />
      <path
         d="m 1314.64,1452.96 c -21.57,174.35 -170.23,309.32 -350.421,309.32 -180.192,0 -328.852,-134.97 -350.418,-309.32 H 302.617 c 0,-649.71 431,-1033.312 661.602,-1137.53 230.601,104.218 661.601,487.82 661.601,1137.53 h -311.18"
         style="fill:#00613c;fill-opacity:1;fill-rule:nonzero;stroke:none"
         id="path74" />
      <path
         d="M 1062.34,798.262 C 1066.78,659.121 993.418,603.68 908.23,603.68 c -146.351,0 -202.886,187.371 -202.886,187.371 l 31.039,8.871 c 0,0 44.347,-69.844 86.476,-69.844 23.903,0 43.239,22.172 43.239,68.184 v 558.228 c 0,34.63 -28.016,62.65 -62.637,62.65 h -39.359 c -6.739,0 -12.204,5.46 -12.204,12.2 v 14.14 c 0,6.72 5.465,12.18 12.204,12.18 h 400.238 c 6.73,0 12.2,-5.46 12.2,-12.18 v -14.14 c 0,-6.74 -5.47,-12.2 -12.2,-12.2 h -39.36 c -34.62,0 -62.64,-28.02 -62.64,-62.65 V 798.262"
         style="fill:#edae09;fill-opacity:1;fill-rule:nonzero;stroke:none"
         id="path76" />
      <path
         d="m 748.535,741.199 c 16.699,-31.289 42.692,-68.23 77.461,-91.719 23.242,-15.699 49.973,-25.789 82.242,-25.839 37.297,0.097 69.899,11.539 93.772,36.328 23.83,24.82 40.49,64.722 40.57,126.453 -0.01,3.668 -0.06,7.406 -0.18,11.207 l -0.02,0.371 v 558.49 c 0,40.46 29.05,74.1 67.43,81.21 H 818.629 c 38.379,-7.11 67.426,-40.75 67.426,-81.21 V 798.262 c -0.039,-25.723 -5.25,-46.75 -16.211,-62.711 -10.739,-16 -28.75,-25.692 -46.977,-25.43 -16.172,0.09 -30.133,6.379 -42.16,14.129 -12.059,7.871 -22.523,17.602 -31.449,27.109 -4.832,5.172 -9.203,10.289 -13.024,15 3.352,-7.55 7.442,-16.109 12.301,-25.16"
         style="fill:#ffffff;fill-opacity:1;fill-rule:nonzero;stroke:none"
         id="path78" />
      <path
         d="m 585.523,1102.29 v -19.37 c 0,-15.74 5.129,-29.64 25.61,-29.64 14.988,0 21.582,13.54 21.582,27.44 0,23.05 -19.031,31.8 -35.828,42.05 -19.774,11.33 -36.582,21.94 -48.664,35.84 -11.7,13.91 -18.649,30.72 -18.649,54.86 0,51.56 31.09,77.91 80.832,77.91 55.957,0 84.477,-37.31 81.535,-88.87 h -59.226 c -0.735,16.08 0,38.03 -21.223,39.47 -13.156,1.11 -20.84,-6.21 -22.297,-18.26 -1.84,-16.48 6.567,-24.88 19.368,-33.65 24.152,-15.36 45.011,-24.89 60,-38.77 14.984,-13.9 23.761,-32.19 23.761,-65.45 0,-52.67 -29.258,-81.95 -82.66,-81.95 -58.867,0 -83.75,32.92 -83.75,69.14 v 29.25 h 59.609"
         style="fill:#edae09;fill-opacity:1;fill-rule:nonzero;stroke:none"
         id="path80" />
      <path
         d="m 1248.61,1003.9 v 287.48 h 158.71 v -57.48 h -91.24 v -50.99 h 83.96 v -57.51 h -83.96 v -121.5 h -67.47"
         style="fill:#edae09;fill-opacity:1;fill-rule:nonzero;stroke:none"
         id="path82" />
      <path
         d="m 930.488,1291.36 h 67.461 v -287.47 h -67.461 v 287.47"
         style="fill:#edae09;fill-opacity:1;fill-rule:nonzero;stroke:none"
         id="path84" />
    </g>
  </g>
</svg>
