<?xml version="1.0" encoding="UTF-8" standalone="no"?>
<!-- Created with Inkscape (http://www.inkscape.org/) -->

<svg
   version="1.1"
   id="svg2"
   width="162.77333"
   height="234.33333"
   viewBox="0 0 162.77333 234.33333"
   sodipodi:docname="Landskrona_BoIS (1).eps"
   xmlns:inkscape="http://www.inkscape.org/namespaces/inkscape"
   xmlns:sodipodi="http://sodipodi.sourceforge.net/DTD/sodipodi-0.dtd"
   xmlns="http://www.w3.org/2000/svg"
   xmlns:svg="http://www.w3.org/2000/svg">
  <defs
     id="defs6" />
  <sodipodi:namedview
     id="namedview4"
     pagecolor="#ffffff"
     bordercolor="#000000"
     borderopacity="0.25"
     inkscape:showpageshadow="2"
     inkscape:pageopacity="0.0"
     inkscape:pagecheckerboard="0"
     inkscape:deskcolor="#d1d1d1" />
  <g
     id="g8"
     inkscape:groupmode="layer"
     inkscape:label="ink_ext_XXXXXX"
     transform="matrix(1.3333333,0,0,-1.3333333,0,234.33333)">
    <g
       id="g10"
       transform="scale(0.1)">
      <path
         d="m 610.43,0 c 337.105,0 610.41,393.441 610.41,878.738 0,485.302 -273.305,878.742 -610.41,878.742 C 273.305,1757.48 0,1364.04 0,878.738 0,393.441 273.305,0 610.43,0"
         style="fill:#231f20;fill-opacity:1;fill-rule:evenodd;stroke:none"
         id="path12" />
      <path
         d="m 610.426,34.3711 c 318.125,0 576.044,378.0509 576.044,844.3669 0,466.322 -257.919,844.352 -576.044,844.352 -318.141,0 -576.0471,-378.03 -576.0471,-844.352 0,-466.316 257.9061,-844.3669 576.0471,-844.3669"
         style="fill:#ffffff;fill-opacity:1;fill-rule:evenodd;stroke:none"
         id="path14" />
      <path
         d="m 610.426,108.16 c 277.371,0 502.254,345 502.254,770.578 0,425.562 -224.883,770.582 -502.254,770.582 -277.391,0 -502.258,-345.02 -502.258,-770.582 0,-425.578 224.867,-770.578 502.258,-770.578"
         style="fill:#231f20;fill-opacity:1;fill-rule:evenodd;stroke:none"
         id="path16" />
      <path
         d="m 515.676,1356.67 c 0,-56.17 -10.063,-152.18 -19.285,-169.37 -4.567,-8.5 -10.903,-10.89 -10.903,-30.19 h 327.848 c 44.727,73.23 33.543,109.02 33.543,109.02 0,0 -45.281,-35.9 -248.191,-36.07 v 228.91 c 0.417,89.3 15.089,124.1 15.089,124.1 0,0 -4.464,2.57 -16.765,2.52 -56.461,-0.28 -106.489,-31.03 -106.489,-31.03 0,0 25.153,-81.04 25.153,-197.89"
         style="fill:#ffffff;fill-opacity:1;fill-rule:evenodd;stroke:none"
         id="path18" />
      <path
         d="m 760.512,950.848 c 0,-35.196 -28.524,-63.731 -63.719,-63.731 -35.195,0 -63.73,28.535 -63.73,63.731 0,35.195 28.535,63.722 63.73,63.722 35.195,0 63.719,-28.527 63.719,-63.722"
         style="fill:#ffffff;fill-opacity:1;fill-rule:evenodd;stroke:none"
         id="path20" />
      <path
         d="m 574.371,563.469 c -1.004,-74.34 207.109,-87.207 207.109,-230.59 0,-119.359 -130.253,-146.738 -169.378,-146.738 -63.723,0 -105.649,33.539 -132.485,33.539 -15.09,0 -10.336,-5.321 -25.988,-3.352 l 14.254,124.102 c 22.918,-2.801 20.183,-28.891 40.246,-40.25 33.543,-19.008 75.465,-29.11 101.457,-29.348 30.469,-0.281 74.629,15.367 74.629,57.859 0,79.368 -212.981,99.489 -212.981,214.649 0,93.91 69.317,118.23 142.543,118.23 37.731,0 48.629,-3.359 63.727,-3.359 18.449,0 11.738,7.828 37.726,8.391 l 6.708,-119.071 c -13.692,-0.84 -19.883,10.77 -33.536,21.809 -13.132,10.609 -42.761,29.34 -72.949,29.34 -26.832,0 -40.805,-14.539 -41.082,-35.211"
         style="fill:#ffffff;fill-opacity:1;fill-rule:evenodd;stroke:none"
         id="path22" />
      <path
         d="m 496.391,938.27 c 15.093,-0.27 66.242,34.375 66.242,88.04 0,70.02 -74.063,109 -126.613,109 H 247.359 c 0,-16.06 6.996,-19.27 11.739,-25.99 15.09,-21.38 14.257,-85.1 14.257,-190.336 0,-181.113 -4.472,-199.562 -15.937,-218.004 -8.309,-13.378 -18.441,-9.218 -18.441,-31.871 h 203.75 c 85.527,0 155.961,64.84 155.961,140.032 0,70.859 -45.7,129.129 -102.297,129.129 z m -132.485,127.45 h 55.34 c 24.039,0 48.637,-9.78 48.637,-42.76 0,-27.952 -18.172,-46.397 -53.664,-46.956 l -50.313,-0.836 z M 436.02,760.508 h -72.114 v 134.16 l 53.66,-0.84 c 69.18,-2.512 75.469,-38.984 75.469,-64.562 0,-26.836 -13.832,-68.758 -57.015,-68.758"
         style="fill:#ffffff;fill-opacity:1;fill-rule:evenodd;stroke:none"
         id="path24" />
      <path
         d="m 957.563,669.109 c -0.293,20.129 -7.547,21.813 -11.739,36.063 -8.074,27.449 -14.258,87.203 -14.258,197.043 0,109.845 6.184,169.605 14.258,197.045 4.192,14.26 11.446,15.94 11.739,36.05 h -137.52 c 0.293,-20.11 7.551,-21.79 11.738,-36.05 8.078,-27.44 14.258,-87.2 14.258,-197.045 0,-109.84 -6.18,-169.594 -14.258,-197.043 -4.187,-14.25 -11.445,-15.934 -11.738,-36.063 h 137.52"
         style="fill:#ffffff;fill-opacity:1;fill-rule:evenodd;stroke:none"
         id="path26" />
    </g>
  </g>
</svg>
