<?xml version="1.0" encoding="UTF-8" standalone="no"?>
<!-- Created with Inkscape (http://www.inkscape.org/) -->

<svg
   version="1.1"
   id="svg2"
   width="234.25333"
   height="188.39999"
   viewBox="0 0 234.25333 188.39999"
   sodipodi:docname="Mjällby.eps"
   xmlns:inkscape="http://www.inkscape.org/namespaces/inkscape"
   xmlns:sodipodi="http://sodipodi.sourceforge.net/DTD/sodipodi-0.dtd"
   xmlns="http://www.w3.org/2000/svg"
   xmlns:svg="http://www.w3.org/2000/svg">
  <defs
     id="defs6" />
  <sodipodi:namedview
     id="namedview4"
     pagecolor="#ffffff"
     bordercolor="#000000"
     borderopacity="0.25"
     inkscape:showpageshadow="2"
     inkscape:pageopacity="0.0"
     inkscape:pagecheckerboard="0"
     inkscape:deskcolor="#d1d1d1" />
  <g
     id="g8"
     inkscape:groupmode="layer"
     inkscape:label="ink_ext_XXXXXX"
     transform="matrix(1.3333333,0,0,-1.3333333,0,188.4)">
    <g
       id="g10"
       transform="scale(0.1)">
      <path
         d="m 1191.86,337.801 c -14.63,-4.813 -29.27,-10.18 -43.9,-16.289 -82.41,-34.633 -160.55,-92.434 -215.562,-161.313 -1.66,-38.711 -2.027,-77.3982 -3.699,-116.1209 20.922,-14.6172 39.641,-33.8789 64.262,-41.47654 17.779,-5.55078 38.149,-3.89062 54.079,5 4.63,26.10934 -43.7,26.85934 -39.08,44.07814 61.3,-14.4492 123.71,-25.3711 183.9,-15 V 182.969 c -2.78,-0.739 -4.45,-0.918 -4.45,-0.739 -8.52,-4.058 -24.26,-16.289 -30,-22.769 -18.15,0.559 -45,-3.32 -38.89,5.93 3.89,2.578 35.19,26.121 73.34,66.859 z m 0,1020.419 c -35.93,6.47 -70.75,16.85 -106.85,22.03 36.47,-37.96 70.74,-77.04 106.85,-114.27 z m 274.45,-654.29 c -38.89,-77.969 -75.55,-155.739 -116.67,-233.711 -13.89,-33.149 -36.48,-61.309 -49.08,-99.629 -36.29,-11.68 -72.4,-20.738 -108.7,-32.789 V 232.25 c 22.96,24.43 48.52,55.371 72.23,91.48 3.7,-15.929 2.03,-26.679 -2.04,-43.71 -9.26,-19.079 -23.52,-32.399 -35.19,-48.711 0,-1.11 -5.93,-26.289 -6.67,-27.028 -5.37,-13.711 -20.74,-19.453 -28.33,-21.312 V 36.6797 c 4.26,0.5508 8.52,1.4922 12.77,2.3984 81.3,18.1524 164.46,43.7227 225.76,107.2309 -39.45,-8.887 -78.71,-16.11 -118.53,-15.188 -29.44,0.738 -67.23,3.34 -85.74,20.188 71.85,19.261 152.23,20.742 215.57,57.972 8.51,5 16.67,10.367 24.62,15.918 V 348.73 c -16.85,-7.421 -34.81,-15 -49.62,-21.48 20.55,45.922 40.74,111.109 48.88,110.922 0.37,-1.473 0.56,-2.953 0.74,-4.262 z m -241.49,649.84 c -11.11,0.92 -22.03,2.59 -32.96,4.45 v -92.24 c 22.77,-23.51 46.49,-46.1 72.04,-67.22 24.45,-20.18 58.89,-23.52 88.33,-35.37 26.49,-44.08 49.08,-88.15 79.46,-129.82 12.21,-16.85 23.7,-32.78 34.62,-48.89 v 333.16 c -15.18,12.04 -30.74,23.52 -47.22,33.33 -42.22,25.19 -92.97,57.6 -133.71,61.86 32.41,-37.04 68.52,-72.78 78.15,-107.23 -12.96,-0.74 -89.63,43.71 -138.71,47.97 z m 241.49,-369.09 c 17.6,-26.301 33.71,-53.149 48.52,-85.93 0.37,-40 -1.66,-82.41 -10.19,-119.82 -13.14,-25 -25.92,-50 -38.33,-75 V 433.91 c 2.05,-16.84 -0.55,-36.66 7.6,-46.289 8.33,-9.633 21.66,-12.23 41.85,-14.449 -5.37,-4.633 -26.12,-14.262 -49.45,-24.442 V 225.199 c 64.63,46.11 114.09,115.02 151.86,184.449 l -46.67,-17.597 c -6.66,12.23 82.41,67.418 119.82,146.308 32.97,69.461 43.33,147.051 65.56,220.379 -15.19,-1.66 -30.37,-8.328 -44.07,-16.289 28.14,56.672 37.96,114.821 35.18,173.891 -3.34,71.859 -26.48,140.75 -52.96,209.27 -0.75,-37.78 -4.08,-70.56 -20.19,-98.34 -22.6,108.71 -82.6,207.42 -148.71,295.01 -0.37,-16.85 2.97,-33.7 -1.29,-51.66 -19.82,15.18 -38.9,31.66 -58.53,47.22 V 984.68"
         style="fill:#1b181a;fill-opacity:1;fill-rule:evenodd;stroke:none"
         id="path12" />
      <path
         d="m 1268.72,1228.02 c -40.37,27.41 -68.9,69.27 -103.16,103.9 44.63,-0.37 93.53,-10.93 137.79,-25.75 30,-9.99 55.92,-23.7 82.04,-47.96 8.33,-19.26 16.67,-38.53 25.18,-57.96 -41.67,28.33 -83.52,56.48 -133.52,81.29 -0.37,-5.55 -0.56,-11.29 -0.75,-17.04 33.34,-25 81.86,-51.85 102.79,-76.85 -46.12,-0.37 -78.7,19.08 -110.37,40.37"
         style="fill:#f7ce19;fill-opacity:1;fill-rule:evenodd;stroke:none"
         id="path14" />
      <path
         d="m 1447.61,1303.58 c -23.89,16.67 -49.26,33.15 -76.85,42.22 24.44,-49.44 45.55,-95.74 71.3,-139.26 15.18,-28.52 50.18,-58.15 47.77,-84.26 18.9,-20.19 35.38,-40.93 51.11,-60.57 2.23,10.75 2.04,21.49 1.3,32.23 -32.21,47.96 -63.15,94.82 -90.74,144.27 0.37,7.41 3.89,13.7 6.86,18.89 23.7,-32.41 46.28,-67.97 71.29,-97.05 0,25.19 0,50.37 0,75.57 -27.41,22.58 -52.78,47.77 -82.04,67.96"
         style="fill:#fbd118;fill-opacity:1;fill-rule:evenodd;stroke:none"
         id="path16" />
      <path
         d="m 1475.94,1101.35 c -26.48,22.04 -59.63,45.56 -91.3,48.52 9.45,-47.78 52.97,-80.56 79.45,-120.93 20.74,-31.67 42.78,-57.78 62.41,-95.01 5.56,5.379 10.56,13.34 13.15,22.039 -30.74,37.23 -56.85,72.781 -80.56,112.041 -0.92,5.93 1.48,11.86 5,15.75 27.78,-34.82 50.37,-70.93 83.15,-104.639 1.3,12.039 0.56,25.369 -1.85,37.969 -21.85,32.4 -41.29,61.11 -69.45,84.26"
         style="fill:#fbd118;fill-opacity:1;fill-rule:evenodd;stroke:none"
         id="path18" />
      <path
         d="m 1634.1,1084.5 c -12.96,45.56 -49.45,117.78 -68.52,124.63 -1.11,-63.33 0.37,-121.48 11.85,-180.75 8.71,-44.439 22.41,-116.302 47.97,-127.22 -3.34,59.442 -29.45,123.15 -40.37,183.89 3.88,4.26 10.55,2.78 17.58,-2.59 17.97,-48.7 28.16,-95.562 40.37,-146.108 21.67,4.617 4.63,100.548 -8.88,148.148"
         style="fill:#fbd118;fill-opacity:1;fill-rule:evenodd;stroke:none"
         id="path20" />
      <path
         d="m 1721.14,896.711 c -0.37,30.738 -9.26,62.961 -17.04,90.75 -15.55,-38.152 -39.26,-73.711 -46.66,-114.082 -6.86,-37.41 -6.49,-101.859 4.44,-114.078 21.85,29.629 17.22,69.449 25.74,104.078 2.41,4.812 5.92,3.332 8.89,1.109 6.11,-21.297 5.18,-42.777 8.14,-64.258 15.93,2.032 16.67,63.891 16.49,96.481"
         style="fill:#fbd118;fill-opacity:1;fill-rule:evenodd;stroke:none"
         id="path22" />
      <path
         d="m 1598.17,898.57 c -9.81,16.11 -20.74,33.891 -35.93,44.071 -7.4,-47.961 -16.85,-96.301 -11.3,-144.262 4.83,-40.367 27.79,-76.109 41.67,-114.449 13.16,-8.34 5,83.89 0,125.742 5.56,1.859 10.75,0.367 15,-4.25 14.64,-54.082 10,-157.602 13.89,-159.832 11.31,7.769 18.9,17.969 28.34,30.738 -7.23,26.863 -14.63,52.051 -18.15,78.711 -3.71,26.301 -2.22,53.34 -3.15,80 -9.44,22.973 -17.96,43.531 -30.37,63.531"
         style="fill:#fbd118;fill-opacity:1;fill-rule:evenodd;stroke:none"
         id="path24" />
      <path
         d="m 1666.32,551.699 c 19.08,38.141 30,79.629 38.33,122.219 -37.03,-32.219 -78.7,-74.816 -109.62,-119.078 -26.86,-38.512 -60.01,-90.192 -61.67,-126.68 36.67,34.281 65.92,93.719 100.74,138.539 3.34,-1.109 9.26,-3.711 10.18,-9.449 -10,-30.75 -30.55,-58.52 -42.96,-88.711 21.11,5 49.08,51.672 65,83.16"
         style="fill:#fbd118;fill-opacity:1;fill-rule:evenodd;stroke:none"
         id="path26" />
      <path
         d="m 1569.28,629.102 c 4.26,44.617 -12.59,88.16 -29.63,115.75 -12.04,-53.161 -33.71,-103.153 -45.38,-155.934 -9.07,-41.477 -12.58,-87.789 0,-126.109 17.42,48.32 26.12,101.66 37.23,152.402 3.71,2.598 8.15,1.289 9.44,-3.711 0.37,-37.398 -7.4,-72.77 -8.14,-110.172 23.52,9.801 32.23,83.711 36.48,127.774"
         style="fill:#fbd118;fill-opacity:1;fill-rule:evenodd;stroke:none"
         id="path28" />
      <path
         d="m 1401.13,366.512 c 27.96,51.66 40,108.707 51.67,168.707 -31.11,-31.489 -68.34,-57.969 -93.34,-94.457 -26.11,-38.34 -50.56,-90.742 -57.97,-126.66 14.26,-0.192 55,70.179 84.45,103.339 5.56,-3.16 7.78,-2.421 6.85,-11.3 -25.93,-57.602 -92.23,-129.629 -91.3,-150 28.9,11.66 75.93,66.847 99.64,110.371"
         style="fill:#fbd118;fill-opacity:1;fill-rule:evenodd;stroke:none"
         id="path30" />
      <path
         d="m 1461.5,249.281 c 32.41,28.141 61.86,51.481 87.6,95.199 -44.08,-6.121 -90.93,-25 -132.23,-46.679 -43.9,-22.973 -85.75,-51.492 -120.94,-85 14.09,-19.832 112.42,55.558 168.71,83.711 7.42,-1.864 10.93,-7.602 8.89,-13.153 -43.89,-31.679 -88.33,-56.48 -133.51,-81.847 33.51,-6.121 88.14,18.687 121.48,47.769"
         style="fill:#fbd118;fill-opacity:1;fill-rule:evenodd;stroke:none"
         id="path32" />
      <path
         d="m 1138.34,217.801 c 33.15,26.66 63.34,54.621 80.74,98.879 -43.7,-6.66 -91.12,-25.168 -131.12,-49.059 -36.67,-21.859 -103.89,-76.48 -94.44,-85.762 7.03,-13.32 137.04,95.942 146.11,84.45 14.26,-7.969 -115.01,-87.77 -114.08,-105.168 32.6,0.539 80.01,30.371 112.79,56.66"
         style="fill:#fbd118;fill-opacity:1;fill-rule:evenodd;stroke:none"
         id="path34" />
      <path
         d="m 1145.38,56.4883 c 57.41,3.3398 115.18,20.5625 166.3,45.9297 -58.71,12.781 -116.67,24.633 -175.75,26.492 -38.52,1.289 -122.05,-5 -114.08,-16.859 -2.04,-15.9299 232.04,6.289 216.68,-15.1916 7.4,-21.1211 -154.08,-12.3985 -232.98,-12.0313 -2.03,-19.457 92.23,-31.1172 139.83,-28.3398"
         style="fill:#fbd118;fill-opacity:1;fill-rule:evenodd;stroke:none"
         id="path36" />
      <path
         d="m 289.969,984.68 c -17.598,-26.301 -33.707,-53.149 -48.52,-85.93 -0.371,-40 1.672,-82.41 10.18,-119.82 13.152,-25 25.93,-50 38.34,-75 V 433.91 c -1.86,-16.84 0.551,-36.66 -7.598,-46.289 -8.332,-9.633 -21.66,-12.23 -41.851,-14.449 5.371,-4.633 26.121,-14.262 49.449,-24.442 V 225.199 c -64.449,46.11 -114.078,115.02 -151.86,184.449 l 46.672,-17.597 c 6.66,12.23 -82.41,67.418 -119.8201,146.308 C 32.1797,607.809 21.8086,685.41 -0.601563,758.738 14.5781,757.078 29.7695,750.41 43.6602,742.449 15.5117,799.121 5.51172,857.27 8.28906,916.34 11.6289,988.199 34.7695,1057.09 61.25,1125.61 c 0.75,-37.78 4.2695,-70.56 20.1914,-98.34 22.7776,108.71 82.5976,207.42 148.7066,295.01 0.372,-16.85 -2.957,-33.7 1.293,-51.66 19.821,15.18 38.899,31.66 58.528,47.22 z m 0,-280.75 c 38.89,-77.969 75.742,-155.739 116.672,-233.711 13.89,-33.149 36.48,-61.309 49.078,-99.629 36.293,-11.68 72.402,-20.738 108.703,-32.789 V 232.25 c -22.961,24.43 -48.524,55.371 -72.043,91.48 -3.879,-15.929 -2.027,-26.679 1.859,-43.71 9.262,-19.079 23.512,-32.399 35.184,-48.711 0,-1.11 5.93,-26.289 6.668,-27.028 5.371,-13.711 20.738,-19.453 28.332,-21.312 V 36.6797 c -4.25,0.5508 -8.512,1.4922 -12.781,2.3984 -81.289,18.1524 -164.262,43.7227 -225.75,107.2309 39.64,-8.887 78.711,-16.11 118.531,-15.188 29.437,0.738 67.226,3.34 85.738,20.188 -71.851,19.261 -152.23,20.742 -215.558,57.972 -8.34,5 -16.672,10.367 -24.633,15.918 V 348.73 c 16.851,-7.421 34.82,-15 49.633,-21.48 -20.563,45.922 -40.743,111.109 -48.891,110.922 -0.371,-1.473 -0.563,-2.953 -0.742,-4.262 z m 241.492,649.84 c 11.109,0.92 22.039,2.59 32.961,4.45 v -92.24 c -22.774,-23.51 -46.481,-46.1 -72.043,-67.22 -24.438,-20.18 -58.891,-23.52 -88.328,-35.37 -26.492,-44.08 -49.082,-88.15 -79.262,-129.82 -12.41,-16.85 -23.898,-32.78 -34.82,-48.89 v 333.16 c 15.179,12.04 30.742,23.52 47.41,33.33 42.031,25.19 92.781,57.6 133.519,61.86 -32.41,-37.04 -68.519,-72.78 -78.148,-107.23 12.961,-0.74 89.629,43.71 138.711,47.97 z M 564.422,337.801 c 14.629,-4.813 29.269,-10.18 43.898,-16.289 82.41,-34.633 160.559,-92.434 215.559,-161.313 1.672,-38.711 2.043,-77.3982 3.891,-116.1209 -21.11,-14.6172 -39.821,-33.8789 -64.45,-41.47654 -17.781,-5.55078 -38.148,-3.89062 -54.082,5 -4.629,26.10934 43.711,26.85934 39.082,44.07814 -61.3,-14.4492 -123.711,-25.3711 -183.898,-15 V 182.969 c 2.777,-0.739 4.449,-0.918 4.449,-0.739 8.52,-4.058 24.449,-16.289 30,-22.769 18.149,0.559 45.188,-3.32 38.891,5.93 -3.891,2.578 -35,26.121 -73.34,66.859 z m 0,1020.419 c 35.93,6.47 70.75,16.85 106.859,22.03 -36.48,-37.96 -70.562,-77.04 -106.859,-114.27 v 92.24"
         style="fill:#1b181a;fill-opacity:1;fill-rule:evenodd;stroke:none"
         id="path38" />
      <path
         d="m 876.66,316.309 c -305.012,3.711 -609.289,176.5 -612.621,443.73 -3.699,300.751 307.051,458.541 607.621,453.911 297.6,-4.44 636.14,-143.9 627.98,-461.501 -7.95,-303.719 -344.26,-439.461 -622.98,-436.14"
         style="fill:#fbd118;fill-opacity:1;fill-rule:evenodd;stroke:none"
         id="path40" />
      <path
         d="m 876.66,316.309 c -305.012,3.711 -609.289,176.5 -612.621,443.73 -3.699,300.751 307.051,458.541 607.621,453.911 297.6,-4.44 636.14,-143.9 627.98,-461.501 -7.95,-303.719 -344.26,-439.461 -622.98,-436.14 z"
         style="fill:none;stroke:#1b181a;stroke-width:46.3;stroke-linecap:butt;stroke-linejoin:miter;stroke-miterlimit:2.613;stroke-dasharray:none;stroke-opacity:1"
         id="path42" />
      <path
         d="m 266.449,810.41 c 9.262,38.711 26.11,83.711 35.371,122.41 83.34,-72.41 383.539,-166.3 590.02,-170.371 198.17,-3.711 393.72,55.18 577.43,141.301 l 27.79,-143.719 c -5.93,-37.59 -11.67,-75.562 -17.59,-113.332 C 1325.94,578.18 1093.34,523.91 894.25,528.18 c -209.449,4.441 -437.238,51.66 -612.609,145 l -15.192,137.23"
         style="fill:#1b181a;fill-opacity:1;fill-rule:evenodd;stroke:none"
         id="path44" />
      <path
         d="m 913.512,850.051 c 13.879,-2.039 27.597,-5.563 41.297,-10.192 2.41,5.371 4.632,10.743 6.671,16.301 1.481,3.891 2.961,7.781 4.25,11.852 0.379,0.929 0.559,1.668 0.93,2.597 3.149,9.25 6.121,18.879 8.52,28.332 6.109,23.52 9.441,47.411 8.879,69.258 -0.739,20.742 -3.879,41.301 -8.879,61.481 -2.399,9.45 -5.192,19.08 -8.52,28.34 -0.371,0.93 -0.551,1.67 -0.93,2.41 -1.289,3.89 -2.769,7.77 -4.25,11.67 -4.261,10.73 -9.082,21.47 -14.628,32.03 -11.122,-4.44 -22.231,-7.78 -33.34,-10.18 -2.403,-0.56 -4.633,-0.93 -7.032,-1.49 -0.199,0 -0.371,0 -0.558,-0.18 -0.192,0 -0.371,0 -0.563,0 0.192,-0.37 0.371,-0.93 0.563,-1.3 0.187,-0.37 0.359,-0.55 0.558,-0.92 2.399,-5.01 4.801,-10.74 7.032,-16.86 12.039,-33.15 19.437,-79.259 19.629,-104.438 0,-32.973 -7.961,-66.864 -19.629,-98.711 -2.231,-6.11 -4.633,-12.223 -7.032,-18.153 0,-0.187 -0.199,-0.367 -0.199,-0.738 h 0.199 c 2.399,-0.371 4.629,-0.738 7.032,-1.109"
         style="fill:#1b181a;fill-opacity:1;fill-rule:evenodd;stroke:none"
         id="path46" />
      <path
         d="m 841.66,870.051 c -0.558,1.66 -1.121,3.14 -1.672,4.808 -1.476,4.082 -2.968,8.332 -4.449,12.411 -9.617,28.152 -16.66,56.492 -17.398,85.011 -0.563,29.249 5.738,67.769 17.398,100.919 1.481,4.08 2.973,7.78 4.449,11.67 0.551,1.3 1.114,2.59 1.672,3.89 0.551,1.3 1.289,2.41 1.852,3.7 -0.563,0.19 -1.301,0.37 -1.852,0.37 -0.558,0.19 -1.121,0.19 -1.672,0.37 -1.476,0.37 -2.968,0.56 -4.449,0.93 -7.027,1.67 -13.891,3.33 -21.289,5.93 -3.328,1.29 -7.039,2.78 -10.93,4.44 -6.109,-13.33 -11.48,-26.48 -15.742,-39.45 -2.039,-5.73 -3.887,-11.48 -5.367,-17.22 -2.223,-7.59 -3.891,-15 -5.371,-22.4 -3.711,-17.97 -5.559,-35.75 -5.371,-54.078 0,-15.192 2.043,-30.372 5.371,-45.563 1.48,-7.027 3.332,-14.078 5.371,-20.93 1.48,-5.738 3.328,-11.668 5.367,-17.398 5,-15.563 10.922,-31.121 16.672,-46.492 3.328,1.121 6.852,2.222 10,2.972 7.398,2.219 14.262,3.879 21.289,5.18 1.481,0.367 2.973,0.559 4.449,0.93 0.551,0 1.114,0.179 1.672,0.179 0.918,0.192 1.852,0.372 2.781,0.372 1.481,0.187 2.95,0.558 4.618,0.738 -1.668,3.711 -3.137,7.41 -4.618,11.301 -0.929,2.41 -1.863,5 -2.781,7.41"
         style="fill:#1b181a;fill-opacity:1;fill-rule:evenodd;stroke:none"
         id="path48" />
      <path
         d="m 879.621,853.191 c 5,0 9.82,-0.179 15.93,-0.55 3.699,10.371 7.027,21.109 10.371,31.847 0.187,0.563 0.359,1.121 0.558,1.672 2.579,8.699 5,17.41 7.032,26.11 4.437,18.71 7.218,37.589 7.039,56.492 0,20.738 -2.41,41.658 -7.039,62.588 -2.032,9.08 -4.262,18.34 -7.032,27.41 -0.199,0.56 -0.371,1.11 -0.558,1.67 -3.152,10.18 -6.863,20.18 -10.934,30.18 -5.547,-0.55 -10.367,-1.11 -15.367,-1.29 -8.332,-0.37 -16.301,0.18 -25.742,1.48 -3.34,-9.63 -6.488,-19.63 -9.438,-29.45 -0.929,-3.52 -1.863,-6.85 -2.781,-10.18 -0.558,-2.23 -1.121,-4.45 -1.672,-6.67 -1.668,-6.85 -3.148,-13.7 -4.449,-20.55 -3.148,-17.6 -4.809,-35.009 -4.25,-52.419 0.18,-12.59 1.852,-25 4.25,-37.222 1.301,-6.297 2.781,-12.598 4.449,-18.887 0.551,-2.223 1.114,-4.262 1.672,-6.301 0.918,-3.141 1.852,-6.293 2.781,-9.441 4.809,-15.739 10.18,-31.668 15.731,-47.602 7.406,0.742 13.519,1.113 19.449,1.113"
         style="fill:#1b181a;fill-opacity:1;fill-rule:evenodd;stroke:none"
         id="path50" />
      <path
         d="m 966.66,1112.47 c -0.371,-0.19 -0.551,-0.37 -0.93,-0.56 -1.289,-0.74 -2.769,-1.48 -4.25,-2.22 -1.671,-0.74 -3.339,-1.48 -5.191,-2.22 1.852,-3.71 3.52,-7.23 5.191,-10.75 1.481,-2.96 2.961,-5.92 4.25,-8.89 0.379,-0.55 0.559,-1.11 0.93,-1.66 3.149,-6.49 5.93,-12.78 8.52,-19.07 6.109,-14.27 10.742,-28.53 13.879,-45.93 l 15.381,9.63 13.71,8.33 16.85,10.56 9.45,5.74 c 0.17,0.18 0.55,0.55 1.1,0.74 -3.14,6.11 -6.66,12.03 -10.55,17.96 -5,7.59 -10.56,15 -16.85,21.85 -4.27,4.82 -8.9,9.45 -13.71,13.89 -5.37,4.82 -11.12,9.45 -17.221,13.89 -4.258,-2.22 -8.16,-4.63 -12.039,-6.66 -2.782,-1.67 -5.559,-3.15 -8.52,-4.63"
         style="fill:#1b181a;fill-opacity:1;fill-rule:evenodd;stroke:none"
         id="path52" />
      <path
         d="m 787.578,1126.35 c 8.141,-5 17.223,-9.44 26.672,-13.33 7.031,-2.77 14.262,-5.37 21.289,-7.22 1.481,-0.56 2.973,-0.93 4.449,-1.3 0.551,-0.18 1.114,-0.18 1.672,-0.37 0.918,-0.37 1.852,-0.55 2.781,-0.74 10.918,-2.78 22.028,-4.26 32.399,-4.26 1.109,0 2.039,0 2.781,0 8.891,0.19 17.59,1.48 26.301,3.33 0.187,0 0.359,0.19 0.558,0.19 2.399,0.56 4.629,1.11 7.032,1.67 15.929,4.44 31.476,11.11 47.968,18.7 1.481,0.74 2.961,1.48 4.25,2.04 0.379,0.19 0.559,0.37 0.93,0.56 2.781,1.29 5.738,2.77 8.52,4.25 0.55,0.19 1.109,0.56 1.672,0.75 -0.563,0.36 -1.122,0.73 -1.672,1.1 -2.59,1.67 -5.559,3.34 -8.52,5 -0.371,0.19 -0.551,0.19 -0.93,0.38 -1.289,0.74 -2.769,1.48 -4.25,2.22 -15,7.41 -31.121,13.15 -47.968,16.3 -2.403,0.37 -4.633,0.92 -7.032,1.11 -0.199,0.18 -0.371,0.18 -0.558,0.18 -8.711,1.48 -17.231,2.04 -26.301,2.04 -0.562,0 -1.301,0 -1.851,0 -11.481,0 -22.598,-0.93 -33.329,-2.96 -0.929,-0.19 -1.863,-0.37 -2.781,-0.56 -0.558,-0.18 -1.121,-0.18 -1.672,-0.37 -1.476,-0.19 -2.968,-0.56 -4.449,-0.92 -7.219,-1.67 -14.258,-3.89 -21.289,-6.3 -9.078,-3.34 -18.148,-7.41 -26.672,-12.22 -1.859,-0.93 -3.707,-2.04 -5.367,-2.97 -0.93,-0.55 -1.481,-0.93 -2.41,-1.3 0.929,-0.73 1.48,-1.1 2.41,-1.48 1.66,-1.3 3.508,-2.4 5.367,-3.52"
         style="fill:#1b181a;fill-opacity:1;fill-rule:evenodd;stroke:none"
         id="path54" />
      <path
         d="m 1049.08,1048.2 c -4.63,-3.15 -9.26,-6.29 -14.08,-9.26 -5.56,-3.51 -11.29,-7.03 -16.85,-10.56 -4.63,-2.58 -9.27,-5.36 -13.71,-8.14 -4.26,-2.59 -8.331,-5.19 -12.588,-7.78 -0.372,-0.18 -0.743,-0.55 -0.93,-0.74 3.519,-24.81 4.629,-50.74 2.226,-76.298 0.543,-0.184 0.731,-0.184 1.102,-0.371 l 10.19,-4.442 13.71,-6.121 16.85,-7.218 20.18,-8.7 c 6.11,17.961 9.63,36.481 10.19,55.371 v 14.258 c -0.74,23.711 -6.11,47.781 -16.29,70.001"
         style="fill:#1b181a;fill-opacity:1;fill-rule:evenodd;stroke:none"
         id="path56" />
      <path
         d="m 1018.15,914.309 c -4.63,2.222 -9.27,4.453 -13.71,6.48 -4.07,1.852 -8.151,3.699 -12.042,5.563 -2.777,-23.153 -8.519,-45.93 -17.218,-67.602 -2.59,-6.301 -5.371,-12.59 -8.52,-18.891 -0.18,-0.55 -0.551,-1.109 -0.93,-1.847 -0.179,-0.563 -0.55,-0.922 -0.742,-1.481 0.192,-0.191 0.563,-0.191 0.742,-0.371 0.379,-0.191 0.75,-0.191 0.93,-0.558 2.961,-1.114 5.738,-2.223 8.52,-3.512 6.109,-2.602 12.218,-5.559 18.699,-8.899 3.711,2.969 7.231,5.93 10.561,9.079 4.81,4.261 9.27,8.89 13.71,13.699 6.29,7.043 11.85,14.453 16.85,22.043 6.67,10.179 12.41,21.109 16.85,32.218 -5.37,1.86 -11.11,4.079 -16.85,6.481 -5.56,2.41 -11.29,5 -16.85,7.598"
         style="fill:#1b181a;fill-opacity:1;fill-rule:evenodd;stroke:none"
         id="path58" />
      <path
         d="m 732.391,1042.83 c 4.82,-2.4 9.629,-4.63 14.257,-7.03 5.372,-2.78 10.551,-5.37 15.743,-7.97 3.328,17.22 8.148,33.89 14.449,49.82 1.672,4.26 3.332,8.52 5.371,12.78 1.66,3.7 3.328,7.4 5.367,11.11 1.481,2.78 2.961,5.74 4.633,8.52 -1.672,0.93 -3.152,1.66 -4.633,2.59 -1.859,0.92 -3.707,2.04 -5.367,2.97 -1.852,1.1 -3.699,2.4 -5.371,3.51 -2.59,1.67 -5,3.34 -7.41,5.37 -8.149,-5.92 -15.739,-12.22 -22.782,-19.07 -5.179,-5 -9.808,-10.19 -14.257,-15.75 -4.071,-5 -7.961,-10.18 -11.481,-15.55 -4.262,-6.48 -8.148,-13.15 -11.672,-20.19 3.891,-1.66 7.782,-3.51 11.672,-5.37 3.891,-1.85 7.59,-3.89 11.481,-5.74"
         style="fill:#1b181a;fill-opacity:1;fill-rule:evenodd;stroke:none"
         id="path60" />
      <path
         d="m 966.66,823.379 c -0.371,0.18 -0.551,0.371 -0.93,0.371 -1.289,0.559 -2.769,1.109 -4.25,1.672 -15.929,5.918 -31.859,10.18 -47.968,12.59 -2.403,0.367 -4.633,0.738 -7.032,1.109 -0.199,0 -0.371,0 -0.558,0 -8.902,1.109 -17.41,1.481 -26.301,1.668 -11.672,0 -23.699,-0.93 -35.18,-2.598 -0.929,0 -1.863,-0.179 -2.781,-0.371 -0.558,0 -1.121,-0.179 -1.672,-0.179 -1.476,-0.371 -2.968,-0.551 -4.449,-0.93 -7.027,-1.289 -14.258,-2.961 -21.289,-5 -8.891,-2.402 -17.781,-5.371 -26.672,-8.891 -1.859,-0.73 -3.707,-1.48 -5.367,-2.218 -1.852,-0.743 -3.699,-1.481 -5.371,-2.223 -1.301,-0.738 -2.59,-1.289 -3.891,-1.848 1.301,-0.929 2.59,-1.859 3.891,-2.59 1.672,-1.3 3.519,-2.41 5.371,-3.519 1.66,-1.113 3.508,-2.231 5.367,-3.344 8.524,-5 17.594,-9.258 26.672,-12.777 7.031,-2.41 14.262,-4.629 21.289,-6.481 1.481,-0.371 2.973,-0.742 4.449,-1.109 0.551,0 1.114,-0.191 1.672,-0.371 0.918,-0.192 1.852,-0.371 2.781,-0.551 11.481,-2.219 23.329,-3.34 35.18,-2.969 8.891,0 17.59,0.559 26.301,2.039 0.187,0 0.359,0 0.558,0 2.399,0.371 4.629,0.743 7.032,1.289 16.476,3.153 32.597,8.711 47.968,16.493 1.481,0.738 2.961,1.48 4.25,2.398 0.379,0 0.559,0.191 0.93,0.383 2.961,1.469 5.738,3.137 8.52,4.808 2.961,1.848 5.742,3.711 8.511,5.739 -2.769,1.301 -5.55,2.601 -8.511,3.89 -2.782,1.11 -5.739,2.411 -8.52,3.52"
         style="fill:#1b181a;fill-opacity:1;fill-rule:evenodd;stroke:none"
         id="path62" />
      <path
         d="m 782.211,833.379 c 1.66,0.742 3.328,1.48 5.367,2.223 1.672,0.558 3.524,1.289 5.192,2.039 -1.668,3.89 -3.52,7.961 -5.192,12.218 -1.859,4.082 -3.707,8.332 -5.367,12.602 -1.852,4.437 -3.699,9.07 -5.371,13.699 -5.93,15.551 -11.301,32.59 -15,51.481 l -15.192,-7.219 -14.257,-6.481 -11.481,-5.371 -17.23,-7.968 c 4.64,-11.293 10.371,-22.223 17.23,-32.59 3.52,-5.371 7.41,-10.742 11.481,-15.934 4.449,-5.18 9.257,-10.367 14.257,-15.367 4.633,-4.441 9.454,-8.699 14.454,-12.77 3.878,1.661 9.07,4.25 15.738,7.219 1.672,0.738 3.519,1.481 5.371,2.219"
         style="fill:#1b181a;fill-opacity:1;fill-rule:evenodd;stroke:none"
         id="path64" />
      <path
         d="m 732.391,923.57 14.257,6.66 11.852,5.559 c 0.559,0.371 1.121,0.371 1.852,0.371 -4.442,26.301 -3.883,55 0.558,82.97 -0.371,0 -0.93,0.18 -1.48,0.37 l -12.782,6.3 -14.257,7.03 -11.481,5.74 -15.191,7.41 c -9.438,-22.03 -14.617,-45.56 -15.547,-68.89 v -12.039 c 0.738,-19.071 4.078,-38.141 10.547,-56.11 l 20.191,9.258 11.481,5.371"
         style="fill:#1b181a;fill-opacity:1;fill-rule:evenodd;stroke:none"
         id="path66" />
      <path
         d="m 489.23,632.82 -24.808,9.629 14.808,83.52 -59.441,-68.52 -9.269,3.52 1.492,90.562 -45.383,-71.492 -24.629,9.43 84.449,132.98 13.52,-5.179 -6.11,-109.079 67.782,85.379 13.519,-5.191 -25.93,-155.559"
         style="fill:#fbd118;fill-opacity:1;fill-rule:evenodd;stroke:none"
         id="path68" />
      <path
         d="m 529.801,657.441 23.699,-6.48 c 0,-9.262 5.93,-15.551 18.34,-18.723 8.699,-2.398 15.551,-1.277 20.551,3.543 5.187,4.629 9.269,12.578 12.218,24.258 l 25.192,93.332 26.48,-7.043 -24.812,-92.598 c -5.367,-19.812 -13.52,-33.519 -24.449,-40.742 -11.11,-7.41 -25.918,-8.519 -44.442,-3.519 -12.406,3.34 -21.488,9.082 -27.406,17.601 -5.934,8.508 -7.594,18.711 -5.371,30.371"
         style="fill:#fbd118;fill-opacity:1;fill-rule:evenodd;stroke:none"
         id="path70" />
      <path
         d="m 730.91,764.859 v -5.558 c -0.738,-3.891 -2.59,-7.031 -5.738,-9.25 -3.332,-2.602 -7.043,-3.531 -11.121,-2.973 -4.071,0.551 -7.403,2.594 -9.813,5.934 -2.59,3.136 -3.519,6.847 -2.957,10.918 0.547,4.261 2.399,7.41 5.918,10 3.153,2.59 7.039,3.519 11.121,2.968 4.071,-0.558 7.399,-2.597 9.809,-5.929 1.48,-1.848 2.41,-3.891 2.781,-6.11 z m 0,-157.238 -29.082,4.258 -15,-29.629 -30.18,4.262 L 730.91,718 v -48.891 l -18.34,-37.597 18.34,-2.582 z m 52.039,160.199 c 4.262,-0.55 7.41,-2.59 10,-5.922 2.41,-3.339 3.332,-7.039 2.77,-11.117 -0.547,-4.07 -2.399,-7.402 -5.731,-9.812 -3.34,-2.41 -7.039,-3.34 -11.117,-2.778 -4.07,0.559 -7.402,2.411 -10,5.559 -2.402,3.328 -3.519,7.031 -2.961,11.109 0.738,4.262 2.59,7.411 5.93,10 3.332,2.59 7.031,3.52 11.109,2.961 z m -52.039,-8.519 v 5.558 c 0.371,-1.668 0.371,-3.339 0,-5 0,-0.187 0,-0.371 0,-0.558 z m 30.192,-187.422 -6.852,32.601 -23.34,3.141 v 21.309 l 18.34,-2.602 -10.379,59.082 -7.961,-16.301 V 718 l 8.52,15 11.851,-1.66 39.821,-163.719 -30,4.258"
         style="fill:#fbd118;fill-opacity:1;fill-rule:evenodd;stroke:none"
         id="path72" />
      <path
         d="m 837.398,564.648 2.782,154.461 27.23,-0.371 -2.41,-130.179 69.809,-1.118 -0.368,-24.453 -97.043,1.66"
         style="fill:#fbd118;fill-opacity:1;fill-rule:evenodd;stroke:none"
         id="path74" />
      <path
         d="m 985.18,564.48 -16.11,153.711 27.219,2.778 13.711,-129.457 69.45,7.418 2.4,-24.25 -96.67,-10.2"
         style="fill:#fbd118;fill-opacity:1;fill-rule:evenodd;stroke:none"
         id="path76" />
      <path
         d="m 1151.86,590.039 -20.93,-4.449 -32.22,150.93 c 20.18,5.371 34.44,8.699 42.59,10.371 3.71,0.929 7.22,1.48 10.56,1.66 V 725.59 c -2.04,-0.18 -4.27,-0.371 -6.48,-0.93 -4.26,-0.922 -9.27,-2.219 -15.19,-3.879 l 7.59,-36.121 c 4.26,0.551 8.52,1.289 13.15,2.41 0.37,0 0.56,0 0.93,0.192 v -21.301 c -2.6,-0.551 -5.74,-1.289 -9.64,-2.231 l 9.64,-45 z m 25.19,5.371 -25.19,-5.371 v 28.691 l 1.1,-5 c 5.56,0.739 10,1.309 13.34,2.051 11.85,2.578 20.19,6.469 24.82,11.66 4.44,5.18 5.74,12.598 3.7,22.028 -1.86,8.519 -5.74,14.261 -11.48,17.051 -5.93,2.949 -15.19,2.949 -27.59,0.371 -1.12,-0.192 -2.41,-0.563 -3.89,-0.93 v 21.301 c 16.85,3.687 23.89,12.039 21.1,25 -2.21,10 -9.25,14.437 -21.1,13.328 v 22.961 c 10.92,1.121 20.55,-0.18 28.33,-3.879 10.19,-4.633 16.67,-13.152 19.26,-25.742 2.6,-11.86 -1.66,-22.61 -12.77,-32.41 20.18,-2.418 32.4,-13.911 36.67,-34.45 2.95,-13.711 0,-25.742 -8.53,-36.109 -8.7,-10.18 -21.3,-17.031 -37.77,-20.551"
         style="fill:#fbd118;fill-opacity:1;fill-rule:evenodd;stroke:none"
         id="path78" />
      <path
         d="m 1327.79,702.07 17.41,-60.922 -26.3,-7.597 -17.41,60.918 -75.37,72.98 28.14,7.961 53.34,-52.969 17.04,73.34 27.96,7.969 -24.81,-101.68"
         style="fill:#fbd118;fill-opacity:1;fill-rule:evenodd;stroke:none"
         id="path80" />
      <path
         d="m 647.762,423.73 -29.442,7.969 -17.601,-26.109 -27.957,7.398 75,101.66 v -39.257 l -17.043,-26.289 17.043,-4.633 z m 22.039,-36.679 -2.781,31.48 -19.258,5.199 v 20.739 l 17.226,-4.629 -3.148,57.23 -14.078,-21.679 v 39.257 l 20.187,27.231 11.11,-2.949 18.519,-159.282 -27.777,7.403"
         style="fill:#1b181a;fill-opacity:1;fill-rule:evenodd;stroke:none"
         id="path82" />
      <path
         d="m 850.359,358.359 12.59,146.493 26.121,-2.231 -12.781,-146.48 -25.93,2.218"
         style="fill:#1b181a;fill-opacity:1;fill-rule:evenodd;stroke:none"
         id="path84" />
      <path
         d="m 1018.34,489.281 6.66,-33.89 50.74,9.828 4.27,-21.68 -50.75,-10 12.78,-65.918 -25.56,-5 -28.152,144.449 95.192,18.52 4.44,-22.77 -69.62,-13.539"
         style="fill:#1b181a;fill-opacity:1;fill-rule:evenodd;stroke:none"
         id="path86" />
      <path
         d="m 487.57,1228.02 c 40.371,27.41 68.891,69.27 103.34,103.9 -44.82,-0.37 -93.711,-10.93 -137.969,-25.75 -30,-9.99 -55.929,-23.7 -82.043,-47.96 -8.328,-19.26 -16.668,-38.53 -25.187,-57.96 41.668,28.33 83.527,56.48 133.711,81.29 0.187,-5.55 0.367,-11.29 0.558,-17.04 -33.339,-25 -81.859,-51.85 -102.601,-76.85 45.93,-0.37 78.519,19.08 110.191,40.37"
         style="fill:#fbd118;fill-opacity:1;fill-rule:evenodd;stroke:none"
         id="path88" />
      <path
         d="m 308.672,1303.58 c 23.887,16.67 49.258,33.15 76.859,42.22 -24.453,-49.44 -45.562,-95.74 -71.301,-139.26 -15.191,-28.52 -50.191,-58.15 -47.781,-84.26 -18.89,-20.19 -35.379,-40.93 -51.109,-60.57 -2.231,10.75 -2.051,21.49 -1.301,32.23 32.223,47.96 63.152,94.82 90.742,144.27 -0.371,7.41 -3.89,13.7 -6.851,18.89 -23.7,-32.41 -46.301,-67.97 -71.11,-97.05 0,25.19 0,50.37 0,75.57 27.219,22.58 52.59,47.77 81.852,67.96"
         style="fill:#fbd118;fill-opacity:1;fill-rule:evenodd;stroke:none"
         id="path90" />
      <path
         d="m 280.34,1101.35 c 26.48,22.04 59.629,45.56 91.301,48.52 -9.45,-47.78 -52.969,-80.56 -79.45,-120.93 -20.742,-31.67 -42.781,-57.78 -62.222,-95.01 -5.739,5.379 -10.739,13.34 -13.34,22.039 30.75,37.23 56.859,72.781 80.75,112.041 0.742,5.93 -1.481,11.86 -5.188,15.75 -27.589,-34.82 -50.371,-70.93 -83.152,-104.639 -1.301,12.039 -0.559,25.369 1.852,37.969 21.859,32.4 41.3,61.11 69.449,84.26"
         style="fill:#fbd118;fill-opacity:1;fill-rule:evenodd;stroke:none"
         id="path92" />
      <path
         d="m 122.18,1084.5 c 12.961,45.56 49.449,117.78 68.711,124.63 0.918,-63.33 -0.563,-121.48 -12.039,-180.75 -8.711,-44.439 -22.411,-116.302 -47.961,-127.22 3.507,59.442 29.437,123.15 40.371,183.89 -3.891,4.26 -10.563,2.78 -17.602,-2.59 -17.769,-48.7 -28.14,-95.562 -40.371,-146.108 -21.664,4.617 -4.629,100.548 8.891,148.148"
         style="fill:#fbd118;fill-opacity:1;fill-rule:evenodd;stroke:none"
         id="path94" />
      <path
         d="m 35.1406,896.711 c 0.3711,30.738 9.2657,62.961 17.043,90.75 C 67.7344,949.309 91.4414,913.75 98.8477,873.379 105.703,835.969 105.332,771.52 94.4063,759.301 72.5547,788.93 77.1836,828.75 68.6641,863.379 c -2.4102,4.812 -5.9258,3.332 -8.8946,1.109 -6.1054,-21.297 -5.1797,-42.777 -8.1445,-64.258 -15.9258,2.032 -16.668,63.891 -16.4844,96.481"
         style="fill:#fbd118;fill-opacity:1;fill-rule:evenodd;stroke:none"
         id="path96" />
      <path
         d="m 158.109,898.57 c 9.813,16.11 20.743,33.891 35.93,44.071 7.41,-47.961 16.852,-96.301 11.301,-144.262 -4.82,-40.367 -27.789,-76.109 -41.668,-114.449 -13.152,-8.34 -5,83.89 0,125.742 -5.563,1.859 -10.563,0.367 -15,-4.25 -14.641,-54.082 -9.82,-157.602 -13.891,-159.832 -11.301,7.769 -18.89,17.969 -28.34,30.738 7.411,26.863 14.629,52.051 18.149,78.711 3.711,26.301 2.219,53.34 3.148,80 9.633,22.973 17.961,43.531 30.371,63.531"
         style="fill:#fbd118;fill-opacity:1;fill-rule:evenodd;stroke:none"
         id="path98" />
      <path
         d="m 89.9609,551.699 c -19.0781,38.141 -30,79.629 -38.3359,122.219 37.2227,-32.219 78.707,-74.816 109.637,-119.078 26.847,-38.512 60,-90.192 61.668,-126.68 -36.668,34.281 -65.93,93.719 -100.75,138.539 -3.328,-1.109 -9.258,-3.711 -10.18,-9.449 10,-30.75 30.551,-58.52 42.961,-88.711 -21.109,5 -49.07,51.672 -65.0001,83.16"
         style="fill:#fbd118;fill-opacity:1;fill-rule:evenodd;stroke:none"
         id="path100" />
      <path
         d="m 187,629.102 c -4.262,44.617 12.59,88.16 29.629,115.75 12.031,-53.161 33.699,-103.153 45.371,-155.934 9.262,-41.477 12.59,-87.789 0,-126.109 -17.41,48.32 -26.109,101.66 -37.219,152.402 -3.711,2.598 -8.152,1.289 -9.453,-3.711 -0.367,-37.398 7.41,-72.77 8.344,-110.172 -23.524,9.801 -32.41,83.711 -36.672,127.774"
         style="fill:#fbd118;fill-opacity:1;fill-rule:evenodd;stroke:none"
         id="path102" />
      <path
         d="m 355.16,366.512 c -27.961,51.66 -40,108.707 -51.48,168.707 30.922,-31.489 68.148,-57.969 93.148,-94.457 26.113,-38.34 50.563,-90.742 57.961,-126.66 -14.25,-0.192 -55,70.179 -84.437,103.339 -5.383,-3.16 -7.782,-2.421 -6.864,-11.3 25.934,-57.602 92.41,-129.629 91.301,-150 -28.699,11.66 -75.918,66.847 -99.629,110.371"
         style="fill:#fbd118;fill-opacity:1;fill-rule:evenodd;stroke:none"
         id="path104" />
      <path
         d="m 294.781,249.281 c -32.41,28.141 -61.672,51.481 -87.59,95.199 44.071,-6.121 90.918,-25 132.219,-46.679 43.891,-22.973 85.75,-51.492 121.121,-85 -14.07,-19.832 -112.601,55.558 -168.89,83.711 -7.411,-1.864 -10.93,-7.602 -8.903,-13.153 43.903,-31.679 88.532,-56.48 133.532,-81.847 -33.52,-6.121 -88.161,18.687 -121.489,47.769"
         style="fill:#fbd118;fill-opacity:1;fill-rule:evenodd;stroke:none"
         id="path106" />
      <path
         d="m 617.941,217.801 c -33.152,26.66 -63.152,54.621 -80.562,98.879 43.519,-6.66 90.93,-25.168 130.93,-49.059 36.671,-21.859 103.902,-76.48 94.453,-85.762 -7.043,-13.32 -137.043,95.942 -146.121,84.45 -14.262,-7.969 115.007,-87.77 114.078,-105.168 -32.59,0.539 -80,30.371 -112.778,56.66"
         style="fill:#fbd118;fill-opacity:1;fill-rule:evenodd;stroke:none"
         id="path108" />
      <path
         d="m 610.91,56.4883 c -57.41,3.3398 -115.191,20.5625 -166.301,45.9297 58.7,12.781 116.672,24.633 175.93,26.492 38.332,1.289 121.859,-5 113.902,-16.859 C 736.66,96.1211 502.391,118.34 517.75,96.8594 510.352,75.7383 671.84,84.4609 750.91,84.8281 752.77,65.3711 658.5,53.7109 610.91,56.4883"
         style="fill:#fbd118;fill-opacity:1;fill-rule:evenodd;stroke:none"
         id="path110" />
      <path
         d="m 879.25,20.1992 c 33.328,0 60.371,36.8516 60.371,82.0308 0,45 -27.043,81.848 -60.371,81.848 -33.148,0 -60.371,-36.848 -60.371,-81.848 0,-45.1792 27.223,-82.0308 60.371,-82.0308"
         style="fill:#fbd118;fill-opacity:1;fill-rule:evenodd;stroke:none"
         id="path112" />
      <path
         d="m 879.25,20.1992 c 33.328,0 60.371,36.8516 60.371,82.0308 0,45 -27.043,81.848 -60.371,81.848 -33.148,0 -60.371,-36.848 -60.371,-81.848 0,-45.1792 27.223,-82.0308 60.371,-82.0308 z"
         style="fill:none;stroke:#1b181a;stroke-width:30.87;stroke-linecap:butt;stroke-linejoin:miter;stroke-miterlimit:2.613;stroke-dasharray:none;stroke-opacity:1"
         id="path114" />
    </g>
  </g>
</svg>
