<?xml version="1.0" encoding="UTF-8" standalone="no"?>
<!-- Created with Inkscape (http://www.inkscape.org/) -->

<svg
   version="1.1"
   id="svg2"
   width="242.97333"
   height="263.20001"
   viewBox="0 0 242.97333 263.20001"
   sodipodi:docname="Norrby_IF (1).eps"
   xmlns:inkscape="http://www.inkscape.org/namespaces/inkscape"
   xmlns:sodipodi="http://sodipodi.sourceforge.net/DTD/sodipodi-0.dtd"
   xmlns="http://www.w3.org/2000/svg"
   xmlns:svg="http://www.w3.org/2000/svg">
  <defs
     id="defs6" />
  <sodipodi:namedview
     id="namedview4"
     pagecolor="#ffffff"
     bordercolor="#000000"
     borderopacity="0.25"
     inkscape:showpageshadow="2"
     inkscape:pageopacity="0.0"
     inkscape:pagecheckerboard="0"
     inkscape:deskcolor="#d1d1d1" />
  <g
     id="g8"
     inkscape:groupmode="layer"
     inkscape:label="ink_ext_XXXXXX"
     transform="matrix(1.3333333,0,0,-1.3333333,0,263.2)">
    <g
       id="g10"
       transform="scale(0.1)">
      <path
         d="m 1743.28,1560 c 0,-11 -12,-14 -13,-23 -18,-21 -30,-43 -45,-68 -9,-11 -9,-25 -20,-35 3,-11 -7,-16 -9,-26 l -11,-34 c -7,-10 -8,-22 -9,-33 -8,-4 -3,-14 -6,-20 4.01,-5 -5,-11 -0.99,-18 -4.01,-8 0.99,-18 -2.01,-25 -2,-46 10,-84 21,-125 9,-8 9,-20 14,-31 l 16,-29 c 7,1 3,-8 6.01,-12 7.99,-8 10,-20 15,-30 16.99,-21 27.99,-46 43.99,-67.004 15,-39.996 36.01,-75.996 51.01,-115.996 15,-43 23.99,-89 25.99,-137 3,-23 -2,-47 2,-71 -2,-28.012 -2.99,-58.012 -9,-86 -12,-49 -26,-99 -51,-142.012 C 1752.28,410 1741.28,389 1729.29,369 l -4.01,1 c -14,-42 -55,-67 -83,-103.012 -22,-22.988 -47,-36.988 -72,-58.988 -18,-10 -35,-22 -54,-30 -38,-17 -76,-38 -118,-45 -16,-8 -36,-7 -53.99,-10 -7.01,-5 -19.01,-5 -27.01,-2 l -6,-4.012 c -72,-8.988 -144,-15.988 -214,-31.988 -12,-4 -25,-10 -38,-10 -21,-10 -44,-19 -62.007,-32 -23.992,-12 -45.996,-28 -69.992,-43 -10,0 -12,11.9883 -20,16 -22,15 -40,34 -64,44 h -6 c -9,4 -17,16.9883 -29,15 -31,20 -68,28 -103,35 -7,-6 -11,6.988 -18,1 -6.004,3 -11.004,-5 -18,0 -8.004,-5 -15,5 -23.004,2 -25.996,3 -55,-2 -80.996,3.988 -6,1.012 -14.004,-1.988 -20,3.012 -10,-1 -20,0 -29.004,5 -5,-5 -10,1 -15,1.988 C 484.281,131 463.281,126 448.281,136 c -4,-3 -4,4 -9,3 -21,7.988 -44,6 -61,20 -25,-2.012 -41,15 -61,22 -35,17 -64,37 -95,63 -7,-1 -5,10 -12,7.988 -6,8.012 -18,15 -23,23.012 -6.004,9 -18,13 -23,21.988 -5,0 -2,6.012 -5,8.012 -16,19 -33.004,36 -47,56 -3,12 -12.9997,20 -20.9997,29 -17,28 -33,55 -44,86.988 -5,11.012 -12,21.012 -13,33.012 -10,13 -8,31 -16,45 -5,14 -2,29 -10.00005,41 2.00005,29 -8,55 -8,83 1,12.988 1,27.988 0,41 10.00005,11 -7,18 3,30 5,6 0,16.988 4,24 -1,17 7.00005,31 7.00005,46 8,8 -1,23 10,29 3,22.988 15,44 19,66 9,6.988 7,19 14,26.988 -2,7.012 5,9.012 6,15 2,10 11,16.012 11,27.008 22,28.004 36.9957,59.004 49.9997,92.004 8,4 1,13 6,19 22,41 37,87 42,136 5,7 1,19 3,27 4,33 -5,65 -6,97 -5,9 -3.004,21 -10,29 -2,14 -4,30 -12,41 1,6 -7,7 -5,13 -10,14 -19,25 -24,42 -15,27 -32.9958,49 -53.9997,74 v 6 l 143.9997,153 232,248 c 7,1 13,-5 20,-7 30.996,-25 70,-40 104,-63 10,2 14,-7 21.996,-10 15,-3 24.004,-15 39.004,-17 5.996,-6 15.996,-4 23,-10 15,-4 27.996,-12 44,-14 38,-19 83.996,-23 128.996,-28 5,0 6.004,-1 10,-4 11.004,0 26.004,3 36.004,-2 38,-3 76,-1 114.992,3 15,0 28.007,7 44.007,4 5,1 10,6 15,2 23,9 52,9 75,21 52,15 100,39 148,63 6,3 13,6 20.01,9 20.99,13 46.99,25 65.99,42 14.01,5 20,23 36,24 l 100,-115 257,-299"
         style="fill:#1476c6;fill-opacity:1;fill-rule:nonzero;stroke:none"
         id="path12" />
      <path
         d="m 1372.28,1909 c 61,-65 120,-138 180,-204 39,-42 74,-84 111,-128 -2,-17 -13.99,-26 -21,-41 -45,-87 -81,-180 -72,-285 6,-57 17,-112 43,-159 24,-58 71.01,-102 95,-159 50,-105 71.01,-237 38,-355 -39,-167 -170,-321.012 -334,-376.012 -51,-17.988 -105,-30.988 -162,-31.988 -112,-8.012 -215,-39 -304.999,-98.0117 -10,0 -14.004,9.0117 -21,13.0117 -91,48 -189,81.988 -300,83 -58.004,2 -117,2 -169,20 -79.004,18 -150,57 -212,108.988 -7.004,-2.988 -2.004,5 -8,6.012 -10,8.988 -15,17 -26,25 -70,73 -122.9997,163.988 -141.9997,268.988 -7,3.012 2,15 -7,17.012 4,14 -4,26 -2,37.988 -7,8.012 1,19.012 -4,27.012 3,20 -3,40 -1,60 3,20 5,41 13,59 8,72 47.9997,133.988 74.9957,198.996 34.004,41.004 47.004,97.004 63.004,146.004 16.996,74 23,160 0,232 -15,59 -35,119 -72,166 -3,4 -4,11 -2,16 5.996,10 15.996,18 25,28 89,97 180.996,196 269,296 6,8 21,10 29,3 105,-60 217,-106 342,-118 8,-3 20,-1 29,-4 15,3 31,-5 46,-2 43,-3 88,2 128.996,9 22.003,2 43.003,9 66.003,13 32,6 63,15 94,27 11,-1 17,6 27,9 63,23 123.01,55 179,91 h 7"
         style="fill:#ffffff;fill-opacity:1;fill-rule:nonzero;stroke:none"
         id="path14" />
      <path
         d="m 1354.29,1866 c 85,-96 173.99,-196 257.99,-293 -21,-42 -49,-82 -60,-129 -87,-79 -172,-156 -260,-234 -43,-39 -85,-73 -125,-112 -23,-21 -47,-41 -69,-60 -25,-22 -52,-48 -77,-69 l -25.999,-24 c -2,1 -7,0 -6.004,-3.012 C 950.281,903 899.281,861 859.281,823 c -10,-6.012 -20,-18 -31,-27 -56,-48 -101,-94.012 -156,-139.012 C 544.281,543 419.281,426 287.281,314 l -7,2 c -105,82 -171,212 -182.9997,350 h 2 c -3.9961,27 -3.9961,60.988 0.9997,90 17,24 39,48 63,67 96,91 202,184 302.996,274 l 5,7 345,309 c 1.004,8 7.004,3 12.004,9 l 150,133 c 0,6 7,4 10,7 23.999,22 49.999,43 73.999,64 4,0 6,2 6,6 88,78 181,158 271.01,238 5,4 10.99,0 15,-4"
         style="fill:#1476c6;fill-opacity:1;fill-rule:nonzero;stroke:none"
         id="path16" />
      <path
         d="m 761.277,1726 c 84.004,-13 170.996,-4 256.003,5 45,8 90,18 134,31 L 630.281,1299 c -65,-57 -127,-116 -192,-171 l -221,-197 -93,-83 c 6,36 24,65 38,98 27,48 51,99 73,150 -3,8 7,12 5,20 38,104 25,230 -12,330 -14,34 -30,67 -46,102 2,6 7,9 8.996,15 l 217.004,240 c 11,13 20,27 34,37 98.996,-50 205,-93 318.996,-114"
         style="fill:#1476c6;fill-opacity:1;fill-rule:nonzero;stroke:none"
         id="path18" />
      <path
         d="m 1344.29,1811 c 27.99,-24 47.99,-56 75,-83 45.99,-55 95.99,-108 141.99,-161 -1.99,-20 -16,-36 -21.99,-55 l -14.01,-36 c -200,-176 -389,-343 -584.999,-519.012 -215,-195 -440,-390.988 -662,-590.988 -11,2 -16,13 -24,19 -84,91 -132,213 -123.004,346.988 l 4.004,7.012 c 90.996,80 175,159 267,242.992 1,3.008 3,5 7,5 20,19.008 40,36.008 58,54.008 7,0 6,7 12,9 71,67 144,127 214,191 9,9 19,20 30,25 55,52 110,98 167,150 22,20 45.996,43 70.996,61 10.996,17 30.996,27 45.003,42 31,28 63,54 95,83 29,27 57,53 86,77 9,-1 8,9 14,13 37,31 69,61 105,91 10,11 20,20 33.01,29 l 5,-1"
         style="fill:#ffffff;fill-opacity:1;fill-rule:nonzero;stroke:none"
         id="path20" />
      <path
         d="m 1275.28,1721 c 19.01,-32 26,-71 43,-104 l 28,-66 c 28.01,-38 59,-70 90,-107 l -1,-4 c -17,-14 -25.99,-29 -45,-38 l -5.99,4 c -28.01,28 -50,62 -77.01,90 -45,26 -89,55 -133,79 -11,6 -25,12 -34,21 -6,10 10,9 11,17 10,8 16,18 28,23 27,-8 47,-25 71,-40 5,-4 12,-11 18,-8 l 1,3 c -13,30 -26,59 -39,89 l 2,7 c 13,12 26,27 43,34"
         style="fill:#1476c6;fill-opacity:1;fill-rule:nonzero;stroke:none"
         id="path22" />
      <path
         d="m 1171.28,1473 c 4,-11 6,-22 3,-33 l 3,-5 c 15,-4 34,1 46,-11 2,1 2,1 5,0 15,-22 37,-38 48,-61 7,-11 9,-24 11,-37 -5,-21 -24,-38 -39,-50 l -65,-58 h -6 c -66,83 -135,154 -203.999,234 0.996,13 12.996,17 20.996,25 34.003,26 62.003,75 113.003,61 28,-15 50,-36 64,-65"
         style="fill:#1476c6;fill-opacity:1;fill-rule:nonzero;stroke:none"
         id="path24" />
      <path
         d="m 1123.28,1434 c 3,-14 -5,-24 -16,-30 -24,7 -37,36 -53,53 -3,9 4,14 10,19 9,7 21,2 29,-3 14,-11 24,-24 30,-39"
         style="fill:#ffffff;fill-opacity:1;fill-rule:nonzero;stroke:none"
         id="path26" />
      <path
         d="m 1217.28,1335 c 6,-13 -4,-24 -11,-32 -4,-2 -10,-5 -15,-2 -17,18 -39,36 -50,58 -2,9 7,16 13,21 15,7 28,-3 39,-12 11,-9 18,-21 24,-33"
         style="fill:#ffffff;fill-opacity:1;fill-rule:nonzero;stroke:none"
         id="path28" />
      <path
         d="m 1538.28,1368 c -12,-56 -12,-120 1.01,-175 8.99,-56 26.99,-108 57.99,-153 39,-56.004 79,-113.012 100,-180 6,-19 14,-38.012 19,-58.012 9,-63.988 15,-133.988 -1,-197.988 -8,-48 -27,-92.012 -47,-135 -13,-20 -25,-40 -38.99,-60 -33.01,-44 -79.01,-85 -125,-117.012 -26.01,-15 -52.01,-32.988 -80,-42.988 -40,-20 -82.01,-29 -127.01,-35 l -84,-9 c -34,-7 -69,-8.012 -103,-17 -35,-7 -69,-18 -98,-37 -23.999,-7 -45.007,-21 -66.003,-31 h -7.996 c -99,63 -219,84 -341,88 -80,-1.012 -151.004,23 -220,48.988 -18,9.012 -35,18.012 -52,31.012 v 5 l 110.996,98.988 315,282.012 c 79.004,69 156.004,139 234.004,209 3,11 15.999,15 22.999,21 153,138 308,276 462,412 3,6 12,9 16,14 17,15 32,28 49,42 l 3,-4"
         style="fill:#1476c6;fill-opacity:1;fill-rule:nonzero;stroke:none"
         id="path30" />
      <path
         d="m 972.273,1285 c 11.008,-13 -10.996,-31 7.004,-39 22.003,1 41.003,-12 55.003,-26 22,-24 46,-52 69,-75 -7,-19 -31,-26 -43,-41 -9,0 -10,10 -19,11 0,1 0,3 -1,4 l -1,-2 -1,7 c -21,23 -39.999,49 -64.999,67 -12.004,1 -23,4 -33,-5 -5,-4 -3.008,-11 -1.004,-16 26.004,-31 55,-66 82.003,-94 3,-4 -2,-8 -3,-10 -12,-12 -27.003,-26 -39.999,-34 l -6.008,3 c -64.992,79 -133.992,154 -200.996,232 0,16 20,21 28.004,32 33,23 56.996,68 105,56 29,-15 54.996,-40 67.992,-70"
         style="fill:#1476c6;fill-opacity:1;fill-rule:nonzero;stroke:none"
         id="path32" />
      <path
         d="m 916.277,1265 c 4.004,-9 11.004,-19 6.004,-29 -4,-7 -9,-16 -18,-19 -14,2 -18.004,15 -27,23 -8,13 -32,25 -26.004,42 4.004,7 13.004,12 21.004,14 20,-3 32,-18 43.996,-31"
         style="fill:#ffffff;fill-opacity:1;fill-rule:nonzero;stroke:none"
         id="path34" />
      <path
         d="m 768.281,1135 c 9,-14 17,-32 11,-50 5,-13 21.996,-5 31.996,-11 40,-22 65,-63 98.004,-95.004 l -2,-5.996 c -12,-12 -24,-23 -38,-34 l -8.004,2.988 C 831.277,971 810.281,1010 774.281,1027 c -11,2 -21,-5 -27,-12 -4,-8 1,-15 6,-21 l 76,-87.012 -1,-6.988 c -12.004,-13.012 -26,-25 -39,-35 h -6 c -67.004,76 -129,150 -198,223 l -9.004,14 13.004,14 c 28,22 55,55 86.996,70 41.004,14 71.004,-23 92.004,-51"
         style="fill:#1476c6;fill-opacity:1;fill-rule:nonzero;stroke:none"
         id="path36" />
      <path
         d="m 724.281,1095 c 8,-9 11,-22 5,-33 -7,-5 -10,-16 -21,-14 -17.004,18 -34,37 -51,56 -3,10 10,16 16,21 24,8 36,-18 51,-30"
         style="fill:#ffffff;fill-opacity:1;fill-rule:nonzero;stroke:none"
         id="path38" />
      <path
         d="m 585.281,961.988 c 35,-42.988 75,-76.988 103,-123.988 12,-25 5,-56.012 -10,-76.012 -20,-25.988 -54,-50.988 -92.004,-41.988 -21.996,6.988 -42.996,26 -53.996,46 -9,8 -19,15 -24,27 l -7.004,6 c -30.996,47 -103.996,86 -78.996,155 17,36 50,59 88.996,61 33.004,-2 53.004,-31.004 74.004,-53.012"
         style="fill:#1476c6;fill-opacity:1;fill-rule:nonzero;stroke:none"
         id="path40" />
      <path
         d="m 1330.28,966.988 c 8,-10 21,-20.988 24.01,-32.988 -56.01,-53 -112.01,-100 -166.01,-151 l -2,-6.012 c 10,-16.988 22,-30 37,-45 15,3.012 23,16.012 35,24.012 29,25.988 57,54 90,75.988 h 6.01 C 1367.28,823 1371.28,809 1383.28,801 l -3,-7 c -39,-35 -79,-69 -117,-106 l 4,-10 c 21,-29 47.01,-51.012 65,-81.012 V 593 l -62,-52 c -3,-3 -9,-3 -12,0 -60,70 -121,140 -179,210 -2,13 15,20.988 22,27 68,58 145,130 221,190 l 8,-1.012"
         style="fill:#ffffff;fill-opacity:1;fill-rule:nonzero;stroke:none"
         id="path42" />
      <path
         d="m 512.281,949 c 43.996,-43 78.996,-92.012 121,-135 2.996,-8 7.996,-19 2,-27.012 -3,-7.988 -12,-10.988 -19.004,-11.988 -30.996,6.988 -41.996,39 -65,59 -25.996,29 -53.996,59 -75.996,91 0,6.988 -4.004,18 2,24 8,10 27,12 35,0"
         style="fill:#ffffff;fill-opacity:1;fill-rule:nonzero;stroke:none"
         id="path44" />
      <path
         d="m 316.277,860 c 66.004,-76 140,-153.012 209.004,-229 l -1,-7 c -16,-14 -31,-30 -49,-40 -54.004,27.988 -101,67.988 -154.004,92.988 C 319.281,669 328.281,663 332.281,656 c 32,-40 68.996,-71 98,-111 -7,-16 -23,-24 -34.004,-35 h -7.996 c -71,74 -135,148 -203,220 l -5,9 c 15,17 30.996,32.988 49,46 19,-3.012 28,-19 45,-26 1,-2.012 -1,-5 1.996,-6 l 3.004,1 100,-64 c 1.996,-1 4,0 5,1.988 v 5 L 273.281,820 c -3,6.988 5,9 7,14 l 2,-1 c 3.996,12 20,17 30,28 l 3.996,-1"
         style="fill:#1476c6;fill-opacity:1;fill-rule:nonzero;stroke:none"
         id="path46" />
      <path
         d="M 976.277,624 C 1030.28,560 1085.28,498 1141.28,433 l -2,-6.012 -62,-52.988 -8,1 -181.999,211 -2,5 c 19,20.988 43,42 65.996,57 12.004,-2 18,-16.012 25,-24"
         style="fill:#ffffff;fill-opacity:1;fill-rule:nonzero;stroke:none"
         id="path48" />
      <path
         d="m 309.281,251.988 h -2 l 2,3.012 c 0,-1 1,-3.012 0,-3.012"
         style="fill:#1476c6;fill-opacity:1;fill-rule:nonzero;stroke:none"
         id="path50" />
    </g>
  </g>
</svg>
