<?xml version="1.0" encoding="UTF-8" standalone="no"?>
<!-- Created with Inkscape (http://www.inkscape.org/) -->

<svg
   version="1.1"
   id="svg2"
   width="263.85333"
   height="257.12"
   viewBox="0 0 263.85333 257.12"
   sodipodi:docname="Örebro_SK (1).eps"
   xmlns:inkscape="http://www.inkscape.org/namespaces/inkscape"
   xmlns:sodipodi="http://sodipodi.sourceforge.net/DTD/sodipodi-0.dtd"
   xmlns="http://www.w3.org/2000/svg"
   xmlns:svg="http://www.w3.org/2000/svg">
  <defs
     id="defs6" />
  <sodipodi:namedview
     id="namedview4"
     pagecolor="#ffffff"
     bordercolor="#000000"
     borderopacity="0.25"
     inkscape:showpageshadow="2"
     inkscape:pageopacity="0.0"
     inkscape:pagecheckerboard="0"
     inkscape:deskcolor="#d1d1d1" />
  <g
     id="g8"
     inkscape:groupmode="layer"
     inkscape:label="ink_ext_XXXXXX"
     transform="matrix(1.3333333,0,0,-1.3333333,0,257.12)">
    <g
       id="g10"
       transform="scale(0.1)">
      <path
         d="m 1311.81,1810.91 c 19.94,5.98 -7.99,23.93 0,41.87 3.98,17.95 -13.97,35.9 1.99,49.85 71.8,35.9 83.75,-69.79 147.56,-71.79 37.89,-47.86 35.9,-109.68 75.78,-157.54 -3.99,-27.92 27.93,-17.94 41.89,-31.91 15.94,21.94 -23.94,25.93 -21.93,45.87 5.98,29.91 -29.92,61.83 3.98,83.76 39.89,-3.99 35.88,-49.86 45.86,-79.77 -1.99,-13.96 -17.95,-29.91 -7.97,-45.87 9.97,-9.97 25.92,-3.99 35.9,2 15.94,11.96 9.96,37.89 33.89,43.87 23.95,-21.94 79.78,7.98 85.76,-41.88 -5.98,-51.85 23.93,-95.73 15.96,-145.58 l -2.01,-69.79 c 7.99,-2 7.99,9.97 7.99,17.94 19.94,7.98 29.92,43.87 55.83,23.94 19.95,-17.95 2,-51.86 21.94,-69.81 21.93,-3.98 39.88,17.95 57.83,0 25.92,-35.89 9.98,-91.73 19.94,-131.62 -17.95,-23.92 -17.95,-53.84 -21.93,-83.75 0,-23.93 -33.91,-43.87 -13.97,-65.81 23.93,-7.97 41.88,19.95 61.82,0 11.97,-13.96 9.98,-31.91 2.01,-45.87 -17.97,-27.91 -51.85,-35.89 -65.82,-61.82 25.92,0 69.81,49.86 83.75,0 l -1.99,-85.747 c -27.91,-29.914 -35.9,-69.805 -61.82,-101.703 -19.94,-29.91 -59.82,-49.859 -69.78,-85.75 23.92,5.98 59.82,21.93 85.74,3.98 11.95,-11.96 9.96,-29.91 3.98,-43.871 -25.91,-25.918 -65.8,-33.898 -101.7,-25.918 -9.98,0 -15.95,-7.98 -21.93,-13.961 v -7.98 c 23.93,0 53.85,3.988 77.77,-9.969 15.96,-19.941 29.91,-47.859 15.96,-71.801 -31.91,-25.921 -63.83,-57.832 -71.8,-99.71 -45.87,-41.872 -131.62,-7.981 -165.52,-63.821 13.96,-27.918 85.76,-13.949 65.82,-63.808 -15.96,-23.93 -45.88,-13.961 -65.82,-5.981 -27.91,11.961 -37.89,65.809 -71.8,31.899 -13.94,-47.86 45.88,-31.899 63.83,-61.809 13.96,-9.969 15.96,-31.922 9.96,-45.871 -21.93,-25.93 -57.83,-21.938 -79.77,-47.859 -69.78,-29.918 -141.58,15.949 -215.37,7.98 -13.96,-7.98 -5.97,-23.941 0,-33.91 23.93,-17.949 59.83,-11.961 71.8,-45.86 3.98,-19.949 -4,-39.89 -23.95,-43.878 -15.93,-1.9926 -29.9,13.957 -35.87,27.918 -2.02,21.941 1.99,55.839 -25.94,61.82 -19.94,7.98 -43.87,27.922 -63.81,7.98 9.96,-33.91 89.75,-11.968 53.85,-67.808 11.95,-17.942 15.93,-51.8401 -17.95,-51.8401 -37.89,0 -71.8,-11.9727 -109.69,-17.9531 -47.87,23.9296 -99.71,37.8906 -151.56,49.8512 l -5.98,-3.992 c 7.97,-39.8788 55.84,-63.8085 49.85,-105.67956 -23.93,-7.97657 -39.89,31.90236 -69.79,21.92966 -29.92,33.9024 -21.94,93.7309 -69.807,111.6839 C 912.953,111.82 900.992,20.0898 827.207,8.12109 819.23,6.12891 805.27,6.12891 801.277,18.0898 827.207,63.9609 863.102,109.828 910.961,137.75 v 5.98 C 835.18,147.719 795.297,44.0195 713.535,61.9688 c -23.933,3.9804 -53.847,-1.9883 -65.808,25.9296 -13.961,37.8826 35.89,55.8316 33.898,89.7306 -17.949,2 -35.898,-1.988 -49.852,-15.949 -3.992,-19.942 -15.957,-41.879 -37.89,-45.871 -11.969,-3.989 -25.93,-9.969 -37.899,-3.989 -13.953,7.981 -17.941,23.942 -11.961,35.899 5.981,9.972 15.954,17.941 11.961,27.922 -37.882,17.949 -85.746,-27.922 -119.644,9.968 -23.938,27.922 -65.813,17.95 -85.754,55.832 -7.981,27.918 11.965,51.86 33.902,67.809 15.95,7.969 33.903,9.98 49.852,13.961 3.988,9.969 3.988,27.918 -11.961,27.918 -23.934,9.973 -31.91,-21.93 -51.852,-23.938 -27.922,-3.98 -65.808,-5.972 -85.754,19.95 -5.98,25.918 33.903,51.847 0,67.808 -35.89,3.981 -79.769,-29.918 -97.718,19.942 -19.938,23.929 -47.856,53.839 -33.903,85.75 23.934,5.98 43.879,19.937 65.813,29.918 11.969,1.992 27.922,9.972 15.957,23.921 -7.981,11.969 -11.969,29.918 -29.918,31.911 -25.922,-13.961 -59.824,-43.871 -89.734,-15.95 -13.961,7.981 -29.9184,23.93 -25.9302,41.879 9.9727,31.91 53.8442,23.93 85.7542,27.918 11.961,0 19.941,-23.929 29.91,-7.976 -13.953,25.929 -39.883,47.859 -57.832,69.797 C 101.309,744 33.5,755.961 17.5469,815.789 c -1.9922,15.949 2,25.922 7.9804,37.891 -1.9921,27.922 -49.8593,63.808 -5.9804,83.754 15.9492,-5.981 35.8945,-15.954 53.8437,-5.981 13.9571,11.969 9.9688,31.906 7.9766,47.86 -19.9453,11.964 -53.8477,9.972 -61.8203,39.887 -5.9883,17.94 -19.941431,37.89 -9.97659,59.82 7.97659,11.97 27.91799,13.96 37.89449,3.99 19.9375,-13.96 43.875,-33.9 43.875,-59.82 7.9727,-9.98 13.9572,3.98 23.9302,1.99 -2,5.98 -13.961,7.98 -5.985,17.95 3.985,7.98 15.953,13.96 7.977,23.93 -23.93,63.82 -91.7347,109.68 -85.7542,185.46 3.9883,29.91 1.9922,67.8 29.9141,83.76 47.8631,27.92 63.8161,-93.73 101.7071,-21.94 5.98,35.89 -43.875,23.93 -47.859,55.84 -2,27.92 -17.9497,59.83 0,85.75 7.972,15.96 31.902,15.96 45.863,7.98 31.91,-17.95 19.941,-57.84 33.902,-83.76 1.996,-13.96 -19.941,-27.92 -1.992,-37.89 17.941,0 15.949,19.94 21.934,31.91 13.961,71.79 -43.872,127.63 -21.934,201.42 33.898,23.93 27.918,107.68 89.738,81.76 31.907,-15.96 -7.976,-73.79 41.875,-67.8 7.981,11.96 13.961,29.9 7.981,45.86 -43.871,21.94 -7.981,65.81 -3.989,95.72 9.969,13.96 23.93,19.94 39.887,13.96 25.922,-17.95 17.945,-55.84 13.953,-81.76 -3.98,-21.94 -37.883,-29.91 -27.918,-57.83 9.977,-7.98 21.938,1.99 29.918,5.98 73.782,61.82 45.864,169.51 119.653,231.33 19.941,55.83 85.754,49.86 129.625,67.8 9.968,2 15.953,-3.98 17.949,-9.97 13.953,-45.87 -37.891,-67.8 -33.906,-109.68 29.918,-19.94 29.918,25.93 49.859,37.89 -2,43.88 49.855,51.85 75.777,71.79 15.953,1.99 33.903,-2 39.883,-17.94 7.981,-25.93 -53.84,-55.84 -9.969,-61.82 49.86,3.98 69.793,77.76 125.633,57.83 35.903,-25.93 69.801,19.93 107.688,-3.99 39.89,45.87 81.77,-25.93 121.65,13.96 17.95,-5.98 21.93,-29.91 35.9,-43.88 27.91,-29.91 65.8,-35.89 103.69,-41.87 9.98,0 11.97,11.96 7.99,19.94 -19.94,17.94 -53.85,-5.98 -71.8,21.93 -13.96,21.94 -31.91,43.88 -21.93,71.8 7.97,19.94 29.9,5.98 43.86,5.98 51.86,-25.93 39.89,-85.75 85.77,-111.67 v 0"
         style="fill:#0d0b0a;fill-opacity:1;fill-rule:nonzero;stroke:none"
         id="path12" />
      <path
         d="m 1311.81,1810.91 c 19.94,5.98 -7.99,23.93 0,41.87 3.98,17.95 -13.97,35.9 1.99,49.85 71.8,35.9 83.75,-69.79 147.56,-71.79 37.89,-47.86 35.9,-109.68 75.78,-157.54 -3.99,-27.92 27.93,-17.94 41.89,-31.91 15.94,21.94 -23.94,25.93 -21.93,45.87 5.98,29.91 -29.92,61.83 3.98,83.76 39.89,-3.99 35.88,-49.86 45.86,-79.77 -1.99,-13.96 -17.95,-29.91 -7.97,-45.87 9.97,-9.97 25.92,-3.99 35.9,2 15.94,11.96 9.96,37.89 33.89,43.87 23.95,-21.94 79.78,7.98 85.76,-41.88 -5.98,-51.85 23.93,-95.73 15.96,-145.58 l -2.01,-69.79 c 7.99,-2 7.99,9.97 7.99,17.94 19.94,7.98 29.92,43.87 55.83,23.94 19.95,-17.95 2,-51.86 21.94,-69.81 21.93,-3.98 39.88,17.95 57.83,0 25.92,-35.89 9.98,-91.73 19.94,-131.62 -17.95,-23.92 -17.95,-53.84 -21.93,-83.75 0,-23.93 -33.91,-43.87 -13.97,-65.81 23.93,-7.97 41.88,19.95 61.82,0 11.97,-13.96 9.98,-31.91 2.01,-45.87 -17.97,-27.91 -51.85,-35.89 -65.82,-61.82 25.92,0 69.81,49.86 83.75,0 l -1.99,-85.747 c -27.91,-29.914 -35.9,-69.805 -61.82,-101.703 -19.94,-29.91 -59.82,-49.859 -69.78,-85.75 23.92,5.98 59.82,21.93 85.74,3.98 11.95,-11.96 9.96,-29.91 3.98,-43.871 -25.91,-25.918 -65.8,-33.898 -101.7,-25.918 -9.98,0 -15.95,-7.98 -21.93,-13.961 v -7.98 c 23.93,0 53.85,3.988 77.77,-9.969 15.96,-19.941 29.91,-47.859 15.96,-71.801 -31.91,-25.921 -63.83,-57.832 -71.8,-99.71 -45.87,-41.872 -131.62,-7.981 -165.52,-63.821 13.96,-27.918 85.76,-13.949 65.82,-63.808 -15.96,-23.93 -45.88,-13.961 -65.82,-5.981 -27.91,11.961 -37.89,65.809 -71.8,31.899 -13.94,-47.86 45.88,-31.899 63.83,-61.809 13.96,-9.969 15.96,-31.922 9.96,-45.871 -21.93,-25.93 -57.83,-21.938 -79.77,-47.859 -69.78,-29.918 -141.58,15.949 -215.37,7.98 -13.96,-7.98 -5.97,-23.941 0,-33.91 23.93,-17.949 59.83,-11.961 71.8,-45.86 3.98,-19.949 -4,-39.89 -23.95,-43.878 -15.93,-1.9926 -29.9,13.957 -35.87,27.918 -2.02,21.941 1.99,55.839 -25.94,61.82 -19.94,7.98 -43.87,27.922 -63.81,7.98 9.96,-33.91 89.75,-11.968 53.85,-67.808 11.95,-17.942 15.93,-51.8401 -17.95,-51.8401 -37.89,0 -71.8,-11.9727 -109.69,-17.9531 -47.87,23.9296 -99.71,37.8906 -151.56,49.8512 l -5.98,-3.992 c 7.97,-39.8788 55.84,-63.8085 49.85,-105.67956 -23.93,-7.97657 -39.89,31.90236 -69.79,21.92966 -29.92,33.9024 -21.94,93.7309 -69.807,111.6839 C 912.953,111.82 900.992,20.0898 827.207,8.12109 819.23,6.12891 805.27,6.12891 801.277,18.0898 827.207,63.9609 863.102,109.828 910.961,137.75 v 5.98 C 835.18,147.719 795.297,44.0195 713.535,61.9688 c -23.933,3.9804 -53.847,-1.9883 -65.808,25.9296 -13.961,37.8826 35.89,55.8316 33.898,89.7306 -17.949,2 -35.898,-1.988 -49.852,-15.949 -3.992,-19.942 -15.957,-41.879 -37.89,-45.871 -11.969,-3.989 -25.93,-9.969 -37.899,-3.989 -13.953,7.981 -17.941,23.942 -11.961,35.899 5.981,9.972 15.954,17.941 11.961,27.922 -37.882,17.949 -85.746,-27.922 -119.644,9.968 -23.938,27.922 -65.813,17.95 -85.754,55.832 -7.981,27.918 11.965,51.86 33.902,67.809 15.95,7.969 33.903,9.98 49.852,13.961 3.988,9.969 3.988,27.918 -11.961,27.918 -23.934,9.973 -31.91,-21.93 -51.852,-23.938 -27.922,-3.98 -65.808,-5.972 -85.754,19.95 -5.98,25.918 33.903,51.847 0,67.808 -35.89,3.981 -79.769,-29.918 -97.718,19.942 -19.938,23.929 -47.856,53.839 -33.903,85.75 23.934,5.98 43.879,19.937 65.813,29.918 11.969,1.992 27.922,9.972 15.957,23.921 -7.981,11.969 -11.969,29.918 -29.918,31.911 -25.922,-13.961 -59.824,-43.871 -89.734,-15.95 -13.961,7.981 -29.9184,23.93 -25.9302,41.879 9.9727,31.91 53.8442,23.93 85.7542,27.918 11.961,0 19.941,-23.929 29.91,-7.976 -13.953,25.929 -39.883,47.859 -57.832,69.797 C 101.309,744 33.5,755.961 17.5469,815.789 c -1.9922,15.949 2,25.922 7.9804,37.891 -1.9921,27.922 -49.8593,63.808 -5.9804,83.754 15.9492,-5.981 35.8945,-15.954 53.8437,-5.981 13.9571,11.969 9.9688,31.906 7.9766,47.86 -19.9453,11.964 -53.8477,9.972 -61.8203,39.887 -5.9883,17.94 -19.941431,37.89 -9.97659,59.82 7.97659,11.97 27.91799,13.96 37.89449,3.99 19.9375,-13.96 43.875,-33.9 43.875,-59.82 7.9727,-9.98 13.9572,3.98 23.9302,1.99 -2,5.98 -13.961,7.98 -5.985,17.95 3.985,7.98 15.953,13.96 7.977,23.93 -23.93,63.82 -91.7347,109.68 -85.7542,185.46 3.9883,29.91 1.9922,67.8 29.9141,83.76 47.8631,27.92 63.8161,-93.73 101.7071,-21.94 5.98,35.89 -43.875,23.93 -47.859,55.84 -2,27.92 -17.9497,59.83 0,85.75 7.972,15.96 31.902,15.96 45.863,7.98 31.91,-17.95 19.941,-57.84 33.902,-83.76 1.996,-13.96 -19.941,-27.92 -1.992,-37.89 17.941,0 15.949,19.94 21.934,31.91 13.961,71.79 -43.872,127.63 -21.934,201.42 33.898,23.93 27.918,107.68 89.738,81.76 31.907,-15.96 -7.976,-73.79 41.875,-67.8 7.981,11.96 13.961,29.9 7.981,45.86 -43.871,21.94 -7.981,65.81 -3.989,95.72 9.969,13.96 23.93,19.94 39.887,13.96 25.922,-17.95 17.945,-55.84 13.953,-81.76 -3.98,-21.94 -37.883,-29.91 -27.918,-57.83 9.977,-7.98 21.938,1.99 29.918,5.98 73.782,61.82 45.864,169.51 119.653,231.33 19.941,55.83 85.754,49.86 129.625,67.8 9.968,2 15.953,-3.98 17.949,-9.97 13.953,-45.87 -37.891,-67.8 -33.906,-109.68 29.918,-19.94 29.918,25.93 49.859,37.89 -2,43.88 49.855,51.85 75.777,71.79 15.953,1.99 33.903,-2 39.883,-17.94 7.981,-25.93 -53.84,-55.84 -9.969,-61.82 49.86,3.98 69.793,77.76 125.633,57.83 35.903,-25.93 69.801,19.93 107.688,-3.99 39.89,45.87 81.77,-25.93 121.65,13.96 17.95,-5.98 21.93,-29.91 35.9,-43.88 27.91,-29.91 65.8,-35.89 103.69,-41.87 9.98,0 11.97,11.96 7.99,19.94 -19.94,17.94 -53.85,-5.98 -71.8,21.93 -13.96,21.94 -31.91,43.88 -21.93,71.8 7.97,19.94 29.9,5.98 43.86,5.98 51.86,-25.93 39.89,-85.75 85.77,-111.67 z"
         style="fill:none;stroke:#0d0b0a;stroke-width:2.174;stroke-linecap:square;stroke-linejoin:miter;stroke-miterlimit:2;stroke-dasharray:none;stroke-opacity:1"
         id="path14" />
      <path
         d="m 1214.09,1900.64 c 0,-5.98 -2.01,-13.96 -9.98,-11.96 -3.98,0 -7.97,1.99 -9.98,5.98 -1.99,11.97 15.96,15.95 19.96,5.98 v 0"
         style="fill:#0b905a;fill-opacity:1;fill-rule:nonzero;stroke:none"
         id="path16" />
      <path
         d="m 633.766,1884.69 c -9.973,-39.89 -49.86,-69.8 -57.832,-109.68 -27.922,-43.88 -93.731,-15.96 -109.684,-65.81 l -29.91,-69.8 c 15.949,35.9 11.961,101.71 67.801,105.69 5.98,13.96 19.941,25.93 17.949,39.89 -15.957,0 -29.918,-33.91 -43.871,-21.94 29.91,43.87 53.844,111.68 115.664,113.67 11.961,9.97 31.902,31.91 39.883,7.98 v 0"
         style="fill:#0b905a;fill-opacity:1;fill-rule:nonzero;stroke:none"
         id="path18" />
      <path
         d="m 769.371,1868.74 c -1.992,-9.97 -7.976,-17.95 -15.953,-21.94 -11.969,-2 -23.93,0 -29.91,11.97 -2,11.96 9.969,21.93 17.941,25.92 9.977,1.99 31.91,0 27.922,-15.95 v 0"
         style="fill:#0b905a;fill-opacity:1;fill-rule:nonzero;stroke:none"
         id="path20" />
      <path
         d="m 1447.41,1812.9 c 29.9,-21.94 21.94,-59.83 45.86,-85.76 1.99,-5.98 -1.99,-11.96 -7.97,-15.95 -33.9,11.97 5.98,55.84 -33.9,61.82 -33.91,-17.94 -47.87,13.96 -61.82,35.9 -15.96,17.95 -43.89,7.98 -57.83,27.92 0,17.94 1.99,33.9 5.97,49.85 41.88,-15.95 73.79,-49.85 109.69,-73.78 v 0"
         style="fill:#0b905a;fill-opacity:1;fill-rule:nonzero;stroke:none"
         id="path22" />
      <path
         d="m 1253.97,1862.76 c -2.01,-5.99 -4,-15.96 -13.96,-13.97 -7.99,-3.99 -17.95,3.99 -17.95,11.97 -3.98,7.98 3.98,13.96 9.96,17.95 9.98,0 21.95,-5.98 21.95,-15.95 v 0"
         style="fill:#0b905a;fill-opacity:1;fill-rule:nonzero;stroke:none"
         id="path24" />
      <path
         d="m 1122.35,1870.73 c 27.91,-29.92 59.83,-65.81 99.71,-75.78 -33.91,-17.95 -65.8,7.98 -95.72,19.94 -7.97,-3.98 -1.99,-11.96 1.99,-15.95 21.93,-13.96 47.87,-25.93 75.78,-23.93 19.94,-17.95 45.86,7.97 57.83,-11.97 -43.86,-13.95 -111.68,-25.92 -149.57,9.97 -27.91,-1.99 -49.84,13.96 -69.78,31.91 -7.99,17.95 -19.95,37.89 -13.97,55.84 15.96,13.96 39.89,11.97 55.84,3.99 11.96,-13.96 35.9,-13.96 37.89,5.98 v 0"
         style="fill:#0b905a;fill-opacity:1;fill-rule:nonzero;stroke:none"
         id="path26" />
      <path
         d="m 994.719,1854.77 c 39.881,-41.87 -31.91,-63.81 -47.864,-99.7 -65.804,-23.94 -159.535,-41.88 -213.378,13.95 l 3.988,13.96 c 51.848,25.93 101.707,57.83 155.547,81.77 35.898,-27.92 67.804,15.95 101.707,-9.98 v 0"
         style="fill:#0b905a;fill-opacity:1;fill-rule:nonzero;stroke:none"
         id="path28" />
      <path
         d="m 719.516,1838.82 c 3.992,-9.97 -3.989,-11.96 -11.965,-15.95 -9.973,0 -23.934,5.98 -25.926,15.95 l 11.969,17.95 c 11.965,0 19.941,-9.97 25.922,-17.95 v 0"
         style="fill:#0b905a;fill-opacity:1;fill-rule:nonzero;stroke:none"
         id="path30" />
      <path
         d="m 875.063,1834.84 c 5.988,-7.98 -3.985,-17.95 -11.961,-17.95 h -3.993 c -3.988,5.98 1.996,23.92 15.954,17.95 v 0"
         style="fill:#0b905a;fill-opacity:1;fill-rule:nonzero;stroke:none"
         id="path32" />
      <path
         d="m 924.922,1818.88 c -31.91,-25.93 -71.793,-37.89 -113.672,-43.87 -3.988,1.99 -1.992,5.98 -1.992,9.97 35.894,5.98 71.793,17.95 101.703,37.89 l 13.961,-3.99 v 0"
         style="fill:#0d0b0a;fill-opacity:1;fill-rule:nonzero;stroke:none"
         id="path34" />
      <path
         d="m 542.031,1806.91 c 1.992,-5.98 -5.98,-7.97 -7.976,-11.96 h -3.992 c 2,3.99 3.992,13.96 11.968,11.96 v 0"
         style="fill:#0b905a;fill-opacity:1;fill-rule:nonzero;stroke:none"
         id="path36" />
      <path
         d="m 701.566,1800.93 c -3.988,-3.99 -13.961,-5.98 -21.937,-1.99 h -1.992 c 3.988,7.97 17.949,7.97 23.929,1.99 v 0"
         style="fill:#0b905a;fill-opacity:1;fill-rule:nonzero;stroke:none"
         id="path38" />
      <path
         d="m 1397.55,1767.03 c 1.99,-5.98 0,-15.96 1.99,-21.94 -19.94,-15.95 -33.91,9.98 -51.83,11.97 -6,-3.99 -4.01,-11.97 -2.02,-15.95 55.84,-23.94 107.7,-61.82 155.57,-105.7 l 3.98,-11.96 c -25.93,-7.99 -47.87,19.94 -75.78,17.94 -15.95,-1.99 -33.9,-3.99 -47.87,2 -11.95,9.97 1.99,35.9 -19.94,35.9 -15.96,0 -41.87,-2 -45.86,19.94 9.96,35.89 -61.82,61.82 -17.95,89.73 19.94,3.99 31.92,-17.94 49.87,-11.96 l 11.95,27.92 c 21.93,0 31.91,-19.94 37.89,-37.89 v 0"
         style="fill:#0b905a;fill-opacity:1;fill-rule:nonzero;stroke:none"
         id="path40" />
      <path
         d="m 1018.65,1737.12 c 23.94,-29.92 29.91,-81.76 77.77,-87.75 61.83,7.98 125.64,11.97 177.5,45.86 l 5.97,-1.99 c 5.98,-11.96 -9.98,-21.94 -21.93,-27.92 -15.96,2 -25.94,-9.96 -35.9,-21.93 3.98,-37.89 39.88,-49.86 67.81,-71.79 31.9,-9.98 61.82,13.96 91.72,0 4.01,-23.93 -51.83,-27.92 -33.88,-61.83 17.92,-17.94 43.86,-25.92 65.8,-9.97 1.99,-29.91 17.95,-55.83 45.86,-73.78 9.98,-73.79 97.73,-39.89 141.6,-71.79 -53.85,-19.94 -115.67,-53.85 -165.53,-103.7 -57.83,-65.81 -131.62,-125.64 -209.4,-149.57 9.99,85.75 49.87,171.5 119.65,239.31 -17.95,13.96 -41.87,-3.99 -63.81,-5.98 -71.79,-35.9 -145.58,-67.81 -221.34,-91.74 17.93,-33.9 29.9,-73.78 21.93,-111.67 -19.94,21.93 -57.84,13.96 -83.763,27.91 -59.824,25.93 -139.598,65.81 -155.555,137.6 -9.964,57.84 7.981,113.68 55.84,147.58 37.895,33.9 95.727,35.89 139.598,13.96 49.86,-31.91 75.78,-85.75 61.83,-143.59 l -17.95,-37.89 c 31.9,-2 63.81,13.96 93.73,25.93 75.76,53.84 167.5,79.76 261.23,71.79 l 6,5.98 c -83.77,111.68 -199.44,181.47 -319.08,229.33 l -113.68,83.76 c -109.678,-75.78 -227.342,-131.62 -339.014,-203.4 -23.929,1.99 -43.875,-17.95 -51.851,-37.9 -7.981,-35.89 -84.75,-30.92 -54.84,-82.76 -23.93,-5.99 -70.262,8.55 -142.059,-20.4 8.203,11.95 -26.222,6.47 40.106,34.52 -35.547,-20.06 -46.621,-9.13 -78.524,-7.14 -7.98,2 -13.961,-13.96 -25.929,-9.97 -5.981,21.94 15.957,37.9 27.921,45.87 15.958,-19.94 37.891,-29.92 61.821,-19.94 19.941,9.97 29.918,31.9 27.922,51.85 7.976,27.92 -47.864,35.89 -23.934,57.83 1.996,7.97 17.949,15.95 11.965,27.92 -1.992,7.98 -5.984,15.95 -1.992,23.92 33.898,13.97 71.793,0 107.687,9.98 41.875,-13.96 91.735,-15.95 135.61,-9.98 19.937,15.96 17.949,49.86 5.98,67.81 -5.98,15.95 -27.922,17.95 -27.922,35.9 9.977,9.97 19.946,0 29.918,-1.99 5.981,-29.92 33.903,-47.87 59.824,-59.83 9.969,-2 15.954,3.99 21.938,9.97 5.98,25.92 -11.969,45.86 -31.906,53.84 -11.965,9.97 -45.868,-3.98 -37.895,19.95 31.91,21.93 49.859,-23.93 77.774,-31.91 49.859,-15.96 105.695,-3.99 149.566,23.92 51.854,21.94 -9.965,99.72 57.834,107.7 13.96,-11.97 -1.99,-29.91 7.98,-41.88 v 0"
         style="fill:#ffffff;fill-opacity:1;fill-rule:nonzero;stroke:none"
         id="path42" />
      <path
         d="m 1018.65,1737.12 c 23.94,-29.92 29.91,-81.76 77.77,-87.75 61.83,7.98 125.64,11.97 177.5,45.86 l 5.97,-1.99 c 5.98,-11.96 -9.98,-21.94 -21.93,-27.92 -15.96,2 -25.94,-9.96 -35.9,-21.93 3.98,-37.89 39.88,-49.86 67.81,-71.79 31.9,-9.98 61.82,13.96 91.72,0 4.01,-23.93 -51.83,-27.92 -33.88,-61.83 17.92,-17.94 43.86,-25.92 65.8,-9.97 1.99,-29.91 17.95,-55.83 45.86,-73.78 9.98,-73.79 97.73,-39.89 141.6,-71.79 -53.85,-19.94 -115.67,-53.85 -165.53,-103.7 -57.83,-65.81 -131.62,-125.64 -209.4,-149.57 9.99,85.75 49.87,171.5 119.65,239.31 -17.95,13.96 -41.87,-3.99 -63.81,-5.98 -71.79,-35.9 -145.58,-67.81 -221.34,-91.74 17.93,-33.9 29.9,-73.78 21.93,-111.67 -19.94,21.93 -57.84,13.96 -83.763,27.91 -59.824,25.93 -139.598,65.81 -155.555,137.6 -9.964,57.84 7.981,113.68 55.84,147.58 37.895,33.9 95.727,35.89 139.598,13.96 49.86,-31.91 75.78,-85.75 61.83,-143.59 l -17.95,-37.89 c 31.9,-2 63.81,13.96 93.73,25.93 75.76,53.84 167.5,79.76 261.23,71.79 l 6,5.98 c -83.77,111.68 -199.44,181.47 -319.08,229.33 l -113.68,83.76 c -109.678,-75.78 -227.342,-131.62 -339.014,-203.4 -23.929,1.99 -43.875,-17.95 -51.851,-37.9 -7.981,-35.89 -84.75,-30.92 -54.84,-82.76 -23.93,-5.99 -70.262,8.55 -142.059,-20.4 8.203,11.95 -26.222,6.47 40.106,34.52 -35.547,-20.06 -46.621,-9.13 -78.524,-7.14 -7.98,2 -13.961,-13.96 -25.929,-9.97 -5.981,21.94 15.957,37.9 27.921,45.87 15.958,-19.94 37.891,-29.92 61.821,-19.94 19.941,9.97 29.918,31.9 27.922,51.85 7.976,27.92 -47.864,35.89 -23.934,57.83 1.996,7.97 17.949,15.95 11.965,27.92 -1.992,7.98 -5.984,15.95 -1.992,23.92 33.898,13.97 71.793,0 107.687,9.98 41.875,-13.96 91.735,-15.95 135.61,-9.98 19.937,15.96 17.949,49.86 5.98,67.81 -5.98,15.95 -27.922,17.95 -27.922,35.9 9.977,9.97 19.946,0 29.918,-1.99 5.981,-29.92 33.903,-47.87 59.824,-59.83 9.969,-2 15.954,3.99 21.938,9.97 5.98,25.92 -11.969,45.86 -31.906,53.84 -11.965,9.97 -45.868,-3.98 -37.895,19.95 31.91,21.93 49.859,-23.93 77.774,-31.91 49.859,-15.96 105.695,-3.99 149.566,23.92 51.854,21.94 -9.965,99.72 57.834,107.7 13.96,-11.97 -1.99,-29.91 7.98,-41.88 z"
         style="fill:none;stroke:#ffffff;stroke-width:2.174;stroke-linecap:square;stroke-linejoin:miter;stroke-miterlimit:2;stroke-dasharray:none;stroke-opacity:1"
         id="path44" />
      <path
         d="m 721.508,1755.07 c 3.988,-19.95 -3.985,-39.89 -13.957,-57.84 -31.906,-13.96 -53.844,-43.87 -79.77,-59.83 h -49.855 c -25.922,-25.92 -63.817,-29.91 -101.703,-29.91 l -5.985,5.98 c 47.864,45.87 123.645,55.84 173.496,95.73 h -19.941 c -47.859,-25.93 -95.723,-45.87 -147.57,-59.83 0,31.91 17.949,63.82 47.859,79.77 35.895,-13.96 53.844,25.93 81.762,33.9 37.89,0 67.804,15.96 105.695,9.97 l 9.969,-17.94 v 0"
         style="fill:#0b905a;fill-opacity:1;fill-rule:nonzero;stroke:none"
         id="path46" />
      <path
         d="m 1116.36,1737.12 -5.98,-19.95 c 17.95,-21.94 59.83,5.99 61.82,-25.92 -25.92,-13.96 -51.84,-35.89 -83.75,-23.93 -15.96,35.89 -73.79,63.81 -47.87,107.69 25.93,-11.97 61.83,-11.97 75.78,-37.89 v 0"
         style="fill:#0b905a;fill-opacity:1;fill-rule:nonzero;stroke:none"
         id="path48" />
      <path
         d="m 1465.36,1689.25 c -15.96,0 -29.92,19.95 -39.88,33.91 -2.01,13.96 3.98,25.93 13.94,33.9 33.91,-5.99 19.95,-47.86 25.94,-67.81 v 0"
         style="fill:#0b905a;fill-opacity:1;fill-rule:nonzero;stroke:none"
         id="path50" />
      <path
         d="m 1579.03,1731.13 c 0,-3.99 -4,-7.97 -7.99,-7.97 -7.96,1.99 -11.95,11.96 -3.98,17.95 5.98,0 9.98,-5.99 11.97,-9.98 v 0"
         style="fill:#0b905a;fill-opacity:1;fill-rule:nonzero;stroke:none"
         id="path52" />
      <path
         d="m 948.852,1717.17 c -1.997,-11.96 -7.977,-23.93 -19.942,-25.92 -13.965,-2 -19.945,9.97 -25.926,19.94 3.989,19.94 29.911,7.98 41.879,15.95 l 3.989,-9.97 v 0"
         style="fill:#0b905a;fill-opacity:1;fill-rule:nonzero;stroke:none"
         id="path54" />
      <path
         d="m 372.52,1711.19 c 1.996,-9.97 -3.985,-23.93 -15.954,-23.93 -11.961,-1.99 -15.953,7.97 -13.961,17.95 -1.992,13.96 27.922,31.91 29.915,5.98 v 0"
         style="fill:#0b905a;fill-opacity:1;fill-rule:nonzero;stroke:none"
         id="path56" />
      <path
         d="m 789.313,1697.23 v -5.98 c -13.958,7.98 -29.915,11.96 -35.895,25.92 13.961,11.97 29.91,-7.97 35.895,-19.94 v 0"
         style="fill:#0b905a;fill-opacity:1;fill-rule:nonzero;stroke:none"
         id="path58" />
      <path
         d="m 906.973,1689.25 c 0,-5.98 -5.981,-11.96 -9.969,-11.96 -11.965,3.99 -19.941,13.96 -21.941,25.92 l 5.988,9.98 c 11.961,-2 17.941,-15.96 25.922,-23.94 v 0"
         style="fill:#0b905a;fill-opacity:1;fill-rule:nonzero;stroke:none"
         id="path60" />
      <path
         d="m 875.063,1671.3 c -11.961,-7.97 -29.911,-5.98 -43.872,-5.98 -7.972,9.98 -15.953,17.95 -17.945,29.91 11.965,5.99 35.895,-21.93 31.906,9.98 13.957,-3.99 27.918,-19.94 29.911,-33.91 v 0"
         style="fill:#0b905a;fill-opacity:1;fill-rule:nonzero;stroke:none"
         id="path62" />
      <path
         d="m 1204.11,1695.23 c -1.99,-1.99 -5.98,0 -7.97,-1.99 l 1.99,9.97 c 2,-1.99 7.97,-1.99 5.98,-7.98 v 0"
         style="fill:#0b905a;fill-opacity:1;fill-rule:nonzero;stroke:none"
         id="path64" />
      <path
         d="m 1587,1685.27 c -5.97,-5.98 -9.96,-3.99 -17.95,-2 -1.99,3.99 -1.99,11.96 3.99,11.96 7.99,2 17.95,-1.99 13.96,-9.96 v 0"
         style="fill:#0b905a;fill-opacity:1;fill-rule:nonzero;stroke:none"
         id="path66" />
      <path
         d="m 1511.22,1671.3 c 1.99,-7.97 1.99,-15.94 -5.98,-15.94 -7.98,1.99 -15.95,5.98 -17.95,13.95 -5.99,17.95 29.91,25.92 23.93,1.99 v 0"
         style="fill:#0b905a;fill-opacity:1;fill-rule:nonzero;stroke:none"
         id="path68" />
      <path
         d="m 362.551,1665.32 c 3.988,-7.97 -5.985,-11.96 -9.973,-13.96 -5.98,2 -17.945,0 -17.945,9.98 3.984,9.96 23.926,17.95 27.918,3.98 v 0"
         style="fill:#0b905a;fill-opacity:1;fill-rule:nonzero;stroke:none"
         id="path70" />
      <path
         d="m 1347.71,1657.35 c 5.97,-13.96 -15.96,-17.95 -11.98,-27.92 13.97,0 23.93,-9.98 25.92,-23.93 0,-9.97 -11.95,-11.97 -19.94,-13.96 -47.85,-21.94 -65.8,21.93 -99.71,41.88 l -1.99,3.98 c 15.96,11.97 39.88,15.96 57.83,29.92 17.95,-2 39.88,5.98 49.87,-9.97 v 0"
         style="fill:#0b905a;fill-opacity:1;fill-rule:nonzero;stroke:none"
         id="path72" />
      <path
         d="m 1726.59,1627.43 c 4.01,-7.98 4.01,-27.91 -11.95,-23.93 1.99,-17.94 29.9,-31.9 21.93,-53.84 l -37.89,33.9 -3.98,-17.95 c -35.9,3.99 -11.98,47.86 -37.89,63.82 0,11.96 0,25.93 9.96,33.9 15.95,-19.94 55.84,0 59.82,-35.9 v 0"
         style="fill:#0b905a;fill-opacity:1;fill-rule:nonzero;stroke:none"
         id="path74" />
      <path
         d="m 298.734,1567.61 c -1.996,-15.96 -9.968,-29.91 -21.937,-41.88 -9.973,7.98 -9.973,23.93 -15.953,37.89 -3.989,-23.93 -9.969,-51.85 -27.918,-69.8 -39.883,5.98 -1.992,51.85 -11.965,77.78 31.91,15.95 7.977,65.8 49.855,69.79 21.938,-17.94 13.957,-49.85 27.918,-73.78 v 0"
         style="fill:#0b905a;fill-opacity:1;fill-rule:nonzero;stroke:none"
         id="path76" />
      <path
         d="m 743.445,1639.4 c 0,-3.99 -3.988,-2 -5.98,-2 -1.996,3.99 3.984,2 5.98,2 v 0"
         style="fill:#0b905a;fill-opacity:1;fill-rule:nonzero;stroke:none"
         id="path78" />
      <path
         d="m 1124.35,1571.6 c 83.75,-37.89 171.5,-77.78 237.3,-151.56 -69.78,-13.97 -125.62,-55.84 -193.44,-73.79 -11.95,67.8 -59.82,153.55 -137.59,165.52 -77.784,17.95 -153.557,0 -207.401,-53.84 -37.899,-39.89 -51.852,-91.74 -57.836,-143.59 -43.875,11.96 -85.754,37.89 -135.61,45.87 -5.98,7.98 -9.968,15.95 -9.968,25.92 19.941,25.93 45.863,-7.97 69.797,7.98 15.957,9.98 29.914,27.92 29.914,47.86 -5.981,9.97 0,19.95 5.98,23.94 91.734,73.78 191.445,123.64 295.144,167.51 35.89,-15.96 67.81,-45.87 103.71,-61.82 v 0"
         style="fill:#ed192d;fill-opacity:1;fill-rule:nonzero;stroke:none"
         id="path80" />
      <path
         d="m 1124.35,1571.6 c 83.75,-37.89 171.5,-77.78 237.3,-151.56 -69.78,-13.97 -125.62,-55.84 -193.44,-73.79 -11.95,67.8 -59.82,153.55 -137.59,165.52 -77.784,17.95 -153.557,0 -207.401,-53.84 -37.899,-39.89 -51.852,-91.74 -57.836,-143.59 -43.875,11.96 -85.754,37.89 -135.61,45.87 -5.98,7.98 -9.968,15.95 -9.968,25.92 19.941,25.93 45.863,-7.97 69.797,7.98 15.957,9.98 29.914,27.92 29.914,47.86 -5.981,9.97 0,19.95 5.98,23.94 91.734,73.78 191.445,123.64 295.144,167.51 35.89,-15.96 67.81,-45.87 103.71,-61.82 z"
         style="fill:none;stroke:#e62030;stroke-width:2.174;stroke-linecap:square;stroke-linejoin:miter;stroke-miterlimit:2;stroke-dasharray:none;stroke-opacity:1"
         id="path82" />
      <path
         d="m 789.313,1621.45 c 1.996,-5.99 -5.985,-9.97 -9.973,-11.97 -7.973,-1.99 -13.957,2 -17.945,9.97 1.996,11.97 23.925,17.95 27.918,2 v 0"
         style="fill:#0b905a;fill-opacity:1;fill-rule:nonzero;stroke:none"
         id="path84" />
      <path
         d="m 695.586,1609.48 -3.988,-3.98 c -7.981,1.99 -13.961,13.95 -7.981,19.94 9.977,0 9.977,-9.98 11.969,-15.96 v 0"
         style="fill:#0b905a;fill-opacity:1;fill-rule:nonzero;stroke:none"
         id="path86" />
      <path
         d="m 1610.93,1603.5 c 4,9.97 11.97,19.95 23.94,15.95 51.84,-3.99 -9.98,-113.67 57.84,-71.78 39.88,-21.94 -27.93,-105.7 45.85,-89.74 19.95,-31.91 -7.96,-61.82 -3.98,-93.73 11.95,-13.97 19.94,-33.9 37.89,-41.88 11.95,9.97 31.9,9.97 35.9,-7.98 15.94,-23.93 -19.94,-55.84 9.96,-67.8 7.97,1.99 15.96,5.98 23.93,1.99 29.92,-31.91 -41.88,-63.81 4,-85.75 3.98,-27.92 -19.96,-45.86 -21.95,-73.78 -11.96,49.85 -17.93,101.7 -35.88,149.56 h -6 c 7.99,-53.84 31.92,-107.68 21.94,-165.52 -13.95,27.92 -27.91,71.8 -65.81,75.78 -25.93,21.94 35.9,41.88 -5.97,59.83 -4.01,1.99 -7.99,7.97 -13.97,5.98 -5.99,-7.98 9.96,-17.95 0,-25.92 -7.99,-19.94 -39.88,13.96 -29.92,-15.95 21.93,-17.96 49.86,-35.9 55.84,-63.82 6,-3.99 13.97,-9.97 7.99,-17.95 -13.97,-13.96 -33.91,-9.97 -49.86,-3.99 0,47.86 -67.8,43.88 -65.8,91.74 33.88,0 63.8,19.94 75.76,49.85 13.96,23.93 15.95,57.83 -2,79.77 -15.93,19.94 -33.88,31.91 -55.84,41.87 21.96,5.99 43.89,-29.91 53.85,-3.98 -17.95,31.91 -35.88,71.79 -73.77,87.75 -13.96,-2 -33.9,-3.99 -47.87,5.98 -11.97,13.96 15.96,21.94 5.98,35.9 -19.94,15.95 -59.83,13.96 -55.84,45.86 47.87,27.92 -57.83,71.79 13.96,97.71 25.94,11.97 35.9,-35.89 59.83,-15.95 v 0"
         style="fill:#0b905a;fill-opacity:1;fill-rule:nonzero;stroke:none"
         id="path88" />
      <path
         d="m 681.625,1593.53 -1.996,-9.97 c -17.945,-7.97 -25.922,15.96 -31.902,27.92 9.968,15.95 29.91,-5.98 33.898,-17.95 v 0"
         style="fill:#0b905a;fill-opacity:1;fill-rule:nonzero;stroke:none"
         id="path90" />
      <path
         d="m 643.734,1597.52 c -1.996,-5.98 1.993,-11.96 -3.988,-13.96 -9.973,0 -19.941,11.97 -23.93,19.94 0,23.93 25.922,3.99 27.918,-5.98 v 0"
         style="fill:#0b905a;fill-opacity:1;fill-rule:nonzero;stroke:none"
         id="path92" />
      <path
         d="m 1383.58,1609.48 c 0,-1.99 -1.99,-1.99 -3.98,-1.99 l -1.99,7.97 c 1.99,-1.99 7.99,-1.99 5.97,-5.98 v 0"
         style="fill:#0b905a;fill-opacity:1;fill-rule:nonzero;stroke:none"
         id="path94" />
      <path
         d="m 1475.32,1603.5 c -7.97,2 -21.93,-3.98 -27.91,5.98 l 1.99,5.98 c 9.97,-1.99 17.95,-3.98 25.92,-11.96 v 0"
         style="fill:#0b905a;fill-opacity:1;fill-rule:nonzero;stroke:none"
         id="path96" />
      <path
         d="m 611.824,1591.54 c -3.988,-1.99 -1.988,-5.98 -5.98,-7.98 -9.969,2 -17.949,11.97 -21.938,19.94 l 3.989,9.97 c 7.98,-5.98 19.941,-11.96 23.929,-21.93 v 0"
         style="fill:#0b905a;fill-opacity:1;fill-rule:nonzero;stroke:none"
         id="path98" />
      <path
         d="m 434.34,1577.58 c -9.969,-31.91 19.945,-57.83 5.98,-85.75 -19.937,-1.99 -47.855,-7.98 -57.832,-33.9 -3.98,-9.98 -3.98,-27.92 0,-37.89 -15.949,-15.95 -47.855,-19.95 -67.8,-37.9 l -35.895,-33.9 c -9.969,17.95 9.973,39.89 17.945,57.83 l 61.821,99.71 h -11.961 c -33.903,-39.87 -55.84,-85.74 -81.762,-129.62 l -7.981,-3.98 c 3.989,41.87 -19.941,95.72 15.954,123.63 39.886,5.99 27.918,57.83 65.808,71.8 35.899,-2 69.801,63.81 95.723,9.97 v 0"
         style="fill:#0b905a;fill-opacity:1;fill-rule:nonzero;stroke:none"
         id="path100" />
      <path
         d="m 571.941,1597.52 v -3.99 h -7.976 c -1.992,3.99 5.984,7.98 7.976,3.99 v 0"
         style="fill:#0b905a;fill-opacity:1;fill-rule:nonzero;stroke:none"
         id="path102" />
      <path
         d="m 540.039,1591.54 c 1.992,-5.98 -5.984,-3.99 -7.976,-7.98 -3.993,0 -5.989,3.99 -9.973,5.99 1.992,5.98 13.961,7.97 17.949,1.99 v 0"
         style="fill:#0b905a;fill-opacity:1;fill-rule:nonzero;stroke:none"
         id="path104" />
      <path
         d="m 490.18,1589.55 c -1.992,-5.99 -9.969,-7.98 -15.957,-5.99 l -1.993,2 c 1.993,7.97 13.961,11.96 17.95,3.99 v 0"
         style="fill:#0b905a;fill-opacity:1;fill-rule:nonzero;stroke:none"
         id="path106" />
      <path
         d="m 1517.2,1553.64 c 2.01,-5.97 -5.98,-11.96 -9.96,-11.96 l -85.77,17.95 -3.98,7.98 c 21.93,23.93 59.82,11.96 87.75,1.99 3.99,-3.99 13.97,-7.98 11.96,-15.96 v 0"
         style="fill:#0b905a;fill-opacity:1;fill-rule:nonzero;stroke:none"
         id="path108" />
      <path
         d="m 1706.65,1420.04 c 1.99,-13.97 15.96,-25.93 11.97,-39.89 -27.93,55.84 -65.82,111.68 -105.7,165.52 39.88,-29.91 65.82,-83.75 93.73,-125.63 v 0"
         style="fill:#0d0b0a;fill-opacity:1;fill-rule:nonzero;stroke:none"
         id="path110" />
      <path
         d="m 1395.56,1525.73 c 1.99,-7.98 -3.99,-11.96 -9.96,-13.96 -7.99,-2 -17.95,-2 -23.95,5.98 -1.99,9.98 7.99,11.97 13.97,15.96 7.96,1.99 13.96,-2 19.94,-7.98 v 0"
         style="fill:#0b905a;fill-opacity:1;fill-rule:nonzero;stroke:none"
         id="path112" />
      <path
         d="m 1742.55,1507.78 c -9.96,-5.98 -13.97,7.98 -17.95,13.96 l 1.99,7.98 c 11.97,-1.99 17.95,-13.96 15.96,-21.94 v 0"
         style="fill:#0b905a;fill-opacity:1;fill-rule:nonzero;stroke:none"
         id="path114" />
      <path
         d="m 1557.1,1475.88 c 3.98,-25.93 11.95,-47.87 25.92,-67.81 9.96,-9.97 35.9,-13.96 29.9,-33.9 -37.89,7.97 -81.76,13.96 -121.64,23.93 -13.97,5.99 -3.99,21.94 -1.99,31.91 -23.93,11.96 -51.86,37.89 -51.86,63.81 31.92,-9.97 47.87,31.91 77.78,11.96 9.98,-15.94 25.93,-25.92 41.89,-29.9 v 0"
         style="fill:#0b905a;fill-opacity:1;fill-rule:nonzero;stroke:none"
         id="path116" />
      <path
         d="m 1730.6,1487.84 c 1.99,-2 -2.02,-3.99 -4.01,-5.98 l -1.99,7.98 c 1.99,0 6,0 6,-2 v 0"
         style="fill:#0b905a;fill-opacity:1;fill-rule:nonzero;stroke:none"
         id="path118" />
      <path
         d="m 1826.3,1439.98 c 0,-5.98 -5.98,-11.97 -11.95,-11.97 -7.97,-1.99 -11.98,3.99 -15.96,7.98 0,9.97 1.99,19.94 9.98,23.93 9.96,0 15.94,-9.97 17.93,-19.94 v 0"
         style="fill:#0b905a;fill-opacity:1;fill-rule:nonzero;stroke:none"
         id="path120" />
      <path
         d="m 163.129,1434 c 3.988,-13.96 -5.984,-25.93 -17.949,-29.91 -7.977,-4 -17.95,5.98 -17.95,15.95 0,11.96 5.985,21.93 15.954,27.91 9.968,5.99 15.957,-7.97 19.945,-13.95 v 0"
         style="fill:#0b905a;fill-opacity:1;fill-rule:nonzero;stroke:none"
         id="path122" />
      <path
         d="m 1828.31,1400.09 c 1.99,-9.97 -2.01,-19.94 -11.97,-19.94 -9.96,-1.99 -21.94,7.98 -21.94,17.95 -1.99,7.97 2,13.96 7.97,15.95 11.98,0 19.94,-5.98 25.94,-13.96 v 0"
         style="fill:#0b905a;fill-opacity:1;fill-rule:nonzero;stroke:none"
         id="path124" />
      <path
         d="m 173.102,1382.14 c -1.997,-9.96 -7.981,-19.94 -17.95,-19.94 l -7.98,2 c -3.988,9.97 5.98,21.93 15.957,23.93 3.988,-2 9.973,-2 9.973,-5.99 v 0"
         style="fill:#0b905a;fill-opacity:1;fill-rule:nonzero;stroke:none"
         id="path126" />
      <path
         d="m 1904.09,1366.19 -1.99,-1.99 c -6,1.99 -19.96,13.96 -9.98,21.93 7.97,-1.99 13.96,-11.96 11.97,-19.94 v 0"
         style="fill:#0b905a;fill-opacity:1;fill-rule:nonzero;stroke:none"
         id="path128" />
      <path
         d="m 1792.41,1362.2 c 0,-3.99 -1.99,-7.97 -5.99,-9.97 -7.97,0 -5.98,9.97 -7.97,13.96 v 7.98 c 5.97,0 13.96,-5.98 13.96,-11.97 v 0"
         style="fill:#0b905a;fill-opacity:1;fill-rule:nonzero;stroke:none"
         id="path130" />
      <path
         d="m 1898.1,1334.29 -2,-2 c -15.95,2 -25.91,17.94 -31.89,31.91 l 1.99,7.98 c 17.93,-2 23.93,-21.95 31.9,-37.89 v 0"
         style="fill:#0b905a;fill-opacity:1;fill-rule:nonzero;stroke:none"
         id="path132" />
      <path
         d="m 428.359,1350.23 c -43.871,-25.92 -91.734,-43.87 -133.613,-79.77 7.981,39.9 56.414,80.46 98.297,88.44 9.969,-2 25.348,-2.68 35.316,-8.67 v 0"
         style="fill:#ffffff;fill-opacity:1;fill-rule:nonzero;stroke:none"
         id="path134" />
      <path
         d="m 1874.17,1326.3 c 0,-3.98 -1.99,-9.96 -5.98,-11.96 -15.95,3.99 -21.93,21.94 -33.9,31.91 11.97,27.92 31.91,-9.97 39.88,-19.95 v 0"
         style="fill:#0b905a;fill-opacity:1;fill-rule:nonzero;stroke:none"
         id="path136" />
      <path
         d="m 252.871,1314.34 c 0,-23.93 -5.984,-51.85 11.965,-69.79 -41.883,-41.88 -69.801,-93.74 -105.695,-139.6 -5.989,39.89 -49.856,85.75 -11.969,123.64 -3.988,17.95 0,39.88 11.969,53.84 35.894,2 43.871,55.84 83.754,49.86 l 9.976,-17.95 v 0"
         style="fill:#0b905a;fill-opacity:1;fill-rule:nonzero;stroke:none"
         id="path138" />
      <path
         d="m 1880.15,1246.54 c -13.95,3.99 -27.91,37.89 -51.84,27.91 -9.98,11.97 -7.99,31.91 -2.01,43.88 7.99,5.98 15.96,0 21.95,-3.99 11.96,-21.94 31.9,-43.88 31.9,-67.8 v 0"
         style="fill:#0b905a;fill-opacity:1;fill-rule:nonzero;stroke:none"
         id="path140" />
      <path
         d="m 127.23,1242.55 c -1.992,-9.97 -7.976,-11.96 -17.945,-13.96 -7.976,3.99 -17.9452,9.97 -25.9256,2 27.9176,-17.96 17.9496,-49.86 19.9416,-75.79 -5.9807,-5.98 -15.9533,-3.99 -19.9416,2 -17.9492,23.93 -13.961,55.83 -29.9102,81.76 19.9414,23.93 -15.9609,87.74 35.8906,75.78 17.9492,-21.94 29.9142,-43.88 37.8902,-71.79 v 0"
         style="fill:#0b905a;fill-opacity:1;fill-rule:nonzero;stroke:none"
         id="path142" />
      <path
         d="m 1902.1,1276.45 -4,-3.99 c -5.98,3.99 -11.96,13.96 -7.97,21.94 9.96,-2 11.97,-11.97 11.97,-17.95 v 0"
         style="fill:#0b905a;fill-opacity:1;fill-rule:nonzero;stroke:none"
         id="path144" />
      <path
         d="m 607.836,1264.48 c 29.918,-75.77 79.769,-143.57 131.621,-211.38 l 3.988,-5.98 45.868,-55.843 C 779.34,917.488 719.516,851.68 651.715,817.781 553.992,789.859 432.348,803.82 358.559,879.602 c -63.813,83.757 -71.786,213.378 -15.954,303.128 39.883,63.81 103.704,101.7 175.497,107.68 29.91,-1.99 75.781,7.98 89.734,-25.93 v 0"
         style="fill:#ffffff;fill-opacity:1;fill-rule:nonzero;stroke:none"
         id="path146" />
      <path
         d="m 607.836,1264.48 c 29.918,-75.77 79.769,-143.57 131.621,-211.38 l 3.988,-5.98 45.868,-55.843 C 779.34,917.488 719.516,851.68 651.715,817.781 553.992,789.859 432.348,803.82 358.559,879.602 c -63.813,83.757 -71.786,213.378 -15.954,303.128 39.883,63.81 103.704,101.7 175.497,107.68 29.91,-1.99 75.781,7.98 89.734,-25.93 z"
         style="fill:none;stroke:#ffffff;stroke-width:2.174;stroke-linecap:square;stroke-linejoin:miter;stroke-miterlimit:2;stroke-dasharray:none;stroke-opacity:1"
         id="path148" />
      <path
         d="m 789.313,1057.09 c -57.833,61.82 -107.688,129.62 -135.606,203.41 81.762,-33.9 131.613,-117.66 135.606,-203.41 v 0"
         style="fill:#ed192d;fill-opacity:1;fill-rule:nonzero;stroke:none"
         id="path150" />
      <path
         d="m 789.313,1057.09 c -57.833,61.82 -107.688,129.62 -135.606,203.41 81.762,-33.9 131.613,-117.66 135.606,-203.41 z"
         style="fill:none;stroke:#e62030;stroke-width:2.174;stroke-linecap:square;stroke-linejoin:miter;stroke-miterlimit:2;stroke-dasharray:none;stroke-opacity:1"
         id="path152" />
      <path
         d="m 210.984,1190.7 h -3.98 l 1.988,55.84 c 5.985,-13.96 3.992,-37.89 1.992,-55.84 v 0"
         style="fill:#0b905a;fill-opacity:1;fill-rule:nonzero;stroke:none"
         id="path154" />
      <path
         d="m 1622.9,1182.73 c -5.98,-39.89 45.86,-59.83 47.85,-99.72 27.93,-29.91 97.72,-21.94 89.75,-79.77 -7.97,-11.963 -21.94,-15.955 -35.9,-11.963 -15.96,35.893 -51.84,27.923 -75.78,13.953 -13.95,-11.957 -21.94,-27.914 -13.95,-43.867 11.96,-17.941 37.89,-25.922 35.88,-49.851 -87.73,5.976 -49.84,-135.602 -147.56,-99.711 -53.84,55.828 -31.91,139.594 -45.88,211.389 -39.88,37.88 -103.69,19.94 -155.54,35.9 l 1.99,5.98 c 77.77,51.85 147.58,125.63 233.34,161.53 27.91,1.99 37.87,-41.88 65.8,-43.87 v 0"
         style="fill:#ffffff;fill-opacity:1;fill-rule:nonzero;stroke:none"
         id="path156" />
      <path
         d="m 1622.9,1182.73 c -5.98,-39.89 45.86,-59.83 47.85,-99.72 27.93,-29.91 97.72,-21.94 89.75,-79.77 -7.97,-11.963 -21.94,-15.955 -35.9,-11.963 -15.96,35.893 -51.84,27.923 -75.78,13.953 -13.95,-11.957 -21.94,-27.914 -13.95,-43.867 11.96,-17.941 37.89,-25.922 35.88,-49.851 -87.73,5.976 -49.84,-135.602 -147.56,-99.711 -53.84,55.828 -31.91,139.594 -45.88,211.389 -39.88,37.88 -103.69,19.94 -155.54,35.9 l 1.99,5.98 c 77.77,51.85 147.58,125.63 233.34,161.53 27.91,1.99 37.87,-41.88 65.8,-43.87 z"
         style="fill:none;stroke:#ffffff;stroke-width:2.174;stroke-linecap:square;stroke-linejoin:miter;stroke-miterlimit:2;stroke-dasharray:none;stroke-opacity:1"
         id="path158" />
      <path
         d="m 1874.17,1202.67 v -3.99 l -5.98,9.97 c 3.99,1.99 3.99,-3.99 5.98,-5.98 v 0"
         style="fill:#0b905a;fill-opacity:1;fill-rule:nonzero;stroke:none"
         id="path160" />
      <path
         d="m 1044.58,1110.93 c 75.78,-129.625 221.35,-155.547 293.14,-283.18 25.92,-41.871 51.86,-81.762 83.75,-119.648 C 1311.81,554.539 1152.26,430.898 988.734,357.109 841.16,464.801 665.668,510.66 528.07,640.289 c 87.746,0 187.457,9.981 269.219,39.891 15.957,-47.86 37.891,-99.711 83.762,-135.61 57.832,-37.89 141.589,-55.84 209.389,-25.922 55.84,19.942 109.69,75.782 119.65,133.614 11.97,63.816 -1.99,129.629 -43.87,175.488 -59.82,59.828 -141.59,75.781 -211.384,119.652 15.949,27.922 37.891,51.852 59.824,77.778 -37.89,37.89 -71.789,81.76 -91.734,129.62 l 121.654,-43.87 v 0"
         style="fill:#ed192d;fill-opacity:1;fill-rule:nonzero;stroke:none"
         id="path162" />
      <path
         d="m 1044.58,1110.93 c 75.78,-129.625 221.35,-155.547 293.14,-283.18 25.92,-41.871 51.86,-81.762 83.75,-119.648 C 1311.81,554.539 1152.26,430.898 988.734,357.109 841.16,464.801 665.668,510.66 528.07,640.289 c 87.746,0 187.457,9.981 269.219,39.891 15.957,-47.86 37.891,-99.711 83.762,-135.61 57.832,-37.89 141.589,-55.84 209.389,-25.922 55.84,19.942 109.69,75.782 119.65,133.614 11.97,63.816 -1.99,129.629 -43.87,175.488 -59.82,59.828 -141.59,75.781 -211.384,119.652 15.949,27.922 37.891,51.852 59.824,77.778 -37.89,37.89 -71.789,81.76 -91.734,129.62 l 121.654,-43.87 z"
         style="fill:none;stroke:#e62030;stroke-width:2.174;stroke-linecap:square;stroke-linejoin:miter;stroke-miterlimit:2;stroke-dasharray:none;stroke-opacity:1"
         id="path164" />
      <path
         d="m 127.23,1124.89 c 1.993,-3.98 0,-7.97 -3.988,-7.97 -5.98,-1.99 -7.972,1.99 -11.965,3.99 -3.988,11.96 17.946,15.95 15.953,3.98 v 0"
         style="fill:#0b905a;fill-opacity:1;fill-rule:nonzero;stroke:none"
         id="path166" />
      <path
         d="m 1947.96,1100.96 c 0,-13.96 -11.97,-27.92 -25.92,-27.92 -7.99,2 -13.96,7.98 -17.95,15.96 -1.99,13.95 11.95,19.94 19.94,23.93 9.96,0 21.94,0 23.93,-11.97 v 0"
         style="fill:#0b905a;fill-opacity:1;fill-rule:nonzero;stroke:none"
         id="path168" />
      <path
         d="m 149.172,1094.98 c -3.992,-9.97 -15.957,-15.96 -21.942,-25.93 -1.992,7.98 5.985,21.94 -3.988,29.92 3.988,11.96 25.93,7.97 25.93,-3.99 v 0"
         style="fill:#0b905a;fill-opacity:1;fill-rule:nonzero;stroke:none"
         id="path170" />
      <path
         d="m 1834.29,1063.07 c -5.98,0 -9.98,9.97 -7.99,17.95 l 7.99,-17.95 v 0"
         style="fill:#0b905a;fill-opacity:1;fill-rule:nonzero;stroke:none"
         id="path172" />
      <path
         d="m 1898.1,1063.07 c -2,-5.98 -3.99,-7.98 -11.96,-9.97 -4,1.99 -13.96,3.99 -9.98,11.97 l 7.97,15.95 c 7.99,-2 11.97,-9.97 13.97,-17.95 v 0"
         style="fill:#0b905a;fill-opacity:1;fill-rule:nonzero;stroke:none"
         id="path174" />
      <path
         d="m 47.4648,1053.1 c 1.9922,-7.98 -1.996,-11.97 -7.9765,-15.96 -5.9883,0 -13.961,7.98 -13.961,13.97 -5.9804,17.94 21.9375,17.94 21.9375,1.99 v 0"
         style="fill:#0b905a;fill-opacity:1;fill-rule:nonzero;stroke:none"
         id="path176" />
      <path
         d="m 1836.28,1025.18 c 9.98,-15.95 -3.99,-53.844 27.93,-49.856 11.95,-1.992 7.97,-17.945 5.98,-25.922 -7.99,-11.968 -23.93,-23.933 -17.95,-39.89 9.96,-5.981 25.91,-11.961 15.95,-25.922 -7.98,-23.93 -45.88,-33.899 -35.9,-59.82 7.97,-5.989 11.98,-13.969 7.97,-21.942 l -61.81,-61.816 -3.99,9.968 c 7.97,39.879 33.91,77.77 27.91,119.649 h -3.98 c -15.96,-57.828 -27.91,-119.649 -73.79,-165.52 h -13.97 c 9.99,15.961 27.93,35.903 23.95,61.821 l -13.96,7.98 c 19.94,29.91 31.91,79.77 7.96,113.668 45.88,11.961 -11.95,57.832 15.96,85.754 39.88,5.981 45.88,105.688 91.74,51.848 v 0"
         style="fill:#0b905a;fill-opacity:1;fill-rule:nonzero;stroke:none"
         id="path178" />
      <path
         d="m 69.3984,1025.18 c -1.9961,-5.98 -3.9882,-9.97 -9.9687,-13.96 -1.9922,0 -3.9883,1.99 -5.9805,3.99 -2,7.98 9.9688,19.94 15.9492,9.97 v 0"
         style="fill:#0b905a;fill-opacity:1;fill-rule:nonzero;stroke:none"
         id="path180" />
      <path
         d="m 260.844,847.699 c -7.973,-25.929 -25.922,-47.859 -25.922,-75.777 -31.91,31.898 -41.879,77.769 -53.848,119.648 0,23.93 -7.972,43.871 -19.941,61.821 -5.981,0 -9.973,-5.989 -7.981,-11.969 7.981,-75.781 51.852,-137.602 71.797,-207.391 l -5.984,-3.992 c -25.922,15.949 -45.863,41.883 -73.785,49.852 -3.989,29.91 -13.957,55.839 -35.895,75.781 -3.988,19.937 27.918,31.906 11.965,53.84 -11.965,15.957 -31.9102,33.91 -15.953,53.847 15.953,7.977 13.957,25.926 15.953,39.881 1.992,5.99 -11.965,13.96 0,13.96 61.82,-47.86 85.754,-117.661 139.594,-169.501 v 0"
         style="fill:#0b905a;fill-opacity:1;fill-rule:nonzero;stroke:none"
         id="path182" />
      <path
         d="m 1493.27,751.969 43.87,-23.93 c -11.95,-31.91 21.95,-67.801 -13.95,-93.73 -19.94,0 -45.88,-1.989 -51.85,-25.918 -5.98,-11.969 1.99,-29.922 -7.97,-39.879 -15.96,3.976 -35.9,21.929 -51.86,5.968 -7.98,-25.921 -31.91,-27.91 -47.87,-49.851 1.99,-49.859 -17.95,-93.731 -17.95,-143.59 l -27.91,-7.98 c 5.98,25.929 37.89,59.839 11.98,89.75 -7.99,7.972 -21.96,21.929 -31.92,7.972 -17.95,-15.953 -15.96,-41.883 -15.96,-65.801 3.99,-13.968 19.95,-23.941 11.98,-41.89 -61.84,-21.93 -17.95,85.75 -85.76,53.851 -23.93,-29.91 -57.84,-51.851 -63.81,-89.75 -17.95,-41.871 -67.82,-51.839 -85.76,-87.742 -13.95,61.832 -91.733,35.903 -135.604,41.891 -13.961,7.961 -1.992,27.91 -7.981,39.879 -7.972,25.922 -45.863,19.941 -43.867,45.871 l 109.684,-69.809 c 109.678,83.758 237.318,133.617 333.038,241.309 55.84,59.832 111.68,117.66 179.47,157.539 -95.72,87.75 -141.58,207.402 -251.27,289.168 -7.97,11.965 -31.91,13.957 -25.92,31.903 141.59,-21.934 183.46,-175.489 277.19,-265.231 v 0"
         style="fill:#ffffff;fill-opacity:1;fill-rule:nonzero;stroke:none"
         id="path184" />
      <path
         d="m 1945.97,1003.24 c 1.99,-3.986 -2,-7.974 -6,-9.967 -3.98,1.993 -9.96,5.981 -9.96,11.957 l 3.98,5.99 c 3.99,0 7.97,-3.99 11.98,-7.98 v 0"
         style="fill:#0b905a;fill-opacity:1;fill-rule:nonzero;stroke:none"
         id="path186" />
      <path
         d="m 1718.62,973.332 c 2,-19.941 11.98,-39.887 5.98,-57.832 h -11.97 l -2,-13.961 -33.88,11.961 c 19.94,37.895 -63.83,49.859 -13.97,81.766 21.94,15.954 53.85,3.988 55.84,-21.934 v 0"
         style="fill:#0b905a;fill-opacity:1;fill-rule:nonzero;stroke:none"
         id="path188" />
      <path
         d="m 1943.97,937.434 -4,-1.993 c -11.95,13.961 -23.93,37.891 -29.9,55.836 21.93,-5.98 31.89,-35.894 33.9,-53.843 v 0"
         style="fill:#0b905a;fill-opacity:1;fill-rule:nonzero;stroke:none"
         id="path190" />
      <path
         d="m 1910.07,947.402 c 0,-3.98 0,-7.972 -5.98,-9.968 -5.99,1.996 -15.96,15.957 -4,21.937 5.99,0 11.97,-3.988 9.98,-11.969 v 0"
         style="fill:#0b905a;fill-opacity:1;fill-rule:nonzero;stroke:none"
         id="path192" />
      <path
         d="m 1892.12,913.5 c 0,-5.98 -5.98,-5.98 -9.98,-5.98 -5.98,3.992 -11.95,13.96 -3.99,17.949 7.99,1.992 13.97,-5.989 13.97,-11.969 v 0"
         style="fill:#0b905a;fill-opacity:1;fill-rule:nonzero;stroke:none"
         id="path194" />
      <path
         d="m 91.3398,887.578 c -7.9804,-13.957 -5.9882,-39.879 1.9922,-53.84 9.969,-5.988 25.922,-11.968 27.918,-25.929 0,-7.969 -5.98,-17.95 -13.961,-11.957 -19.9413,5.976 -17.9492,29.91 -33.8984,33.898 -7.9804,-29.91 21.9336,-47.859 35.8944,-69.801 -23.9334,-3.988 -47.8631,19.942 -67.8045,35.903 -21.9336,21.929 3.9883,43.867 1.9922,67.796 1.9961,17.954 -27.918,29.911 -11.9649,45.864 19.9414,-9.973 53.8438,7.976 59.832,-21.934 v 0"
         style="fill:#0b905a;fill-opacity:1;fill-rule:nonzero;stroke:none"
         id="path196" />
      <path
         d="m 1038.59,863.648 c 0,-59.828 -35.89,-107.687 -77.774,-149.57 l 5.981,-5.976 181.473,-1.993 c 3.99,-41.879 -17.95,-77.781 -45.86,-109.687 -37.89,-39.883 -91.74,-53.844 -149.574,-41.883 -33.898,9.973 -67.797,37.891 -81.758,73.789 -17.949,47.863 0,99.711 27.914,139.602 l 29.918,25.922 -5.984,3.988 C 811.25,730.039 687.605,672.199 546.02,688.16 c -49.86,7.969 -101.707,11.961 -149.567,31.91 l -7.976,-9.98 c 0,11.969 15.953,25.93 0,35.898 l -5.989,3.992 c -29.91,-7.98 -31.902,-67.808 -69.793,-35.902 9.973,15.961 33.903,31.91 31.91,53.852 -13.964,15.949 -33.902,15.949 -47.867,29.91 -5.98,-17.949 -23.929,-9.969 -33.902,-3.988 -13.953,17.949 7.98,31.91 7.98,45.867 111.672,-111.68 269.223,-165.52 424.77,-111.68 89.734,25.93 179.477,89.742 227.34,173.5 41.879,-5.988 77.774,-25.93 115.664,-37.891 v 0"
         style="fill:#ffffff;fill-opacity:1;fill-rule:nonzero;stroke:none"
         id="path198" />
      <path
         d="m 1912.06,871.621 c -3.98,-3.992 -7.97,-7.973 -11.97,-3.992 -7.97,5.992 -1.99,15.961 4,17.961 9.96,1.988 11.95,-7.988 7.97,-13.969 v 0"
         style="fill:#0b905a;fill-opacity:1;fill-rule:nonzero;stroke:none"
         id="path200" />
      <path
         d="m 1886.14,843.711 c 0,-2 -4,-3.992 -5.99,-3.992 -7.97,3.992 -2,11.961 1.99,11.961 4,0 7.99,-3.981 4,-7.969 v 0"
         style="fill:#0b905a;fill-opacity:1;fill-rule:nonzero;stroke:none"
         id="path202" />
      <path
         d="m 276.797,763.941 v -3.992 c -5.981,0 -9.973,7.981 -9.973,13.961 3.992,-1.988 9.973,-3.988 9.973,-9.969 v 0"
         style="fill:#0b905a;fill-opacity:1;fill-rule:nonzero;stroke:none"
         id="path204" />
      <path
         d="m 326.656,757.961 c 3.985,-3.992 -2,-7.981 -5.988,-9.981 -7.973,2 -15.949,2 -19.941,9.981 -3.989,17.949 23.929,11.961 25.929,0 v 0"
         style="fill:#0b905a;fill-opacity:1;fill-rule:nonzero;stroke:none"
         id="path206" />
      <path
         d="m 266.824,740.012 -5.98,3.988 h 5.98 z"
         style="fill:#0b905a;fill-opacity:1;fill-rule:nonzero;stroke:none"
         id="path208" />
      <path
         d="m 1912.06,726.051 c -1.99,-7.981 -9.96,-11.973 -17.95,-15.961 -7.97,0 -13.96,5.988 -13.96,13.961 -2,9.98 7.98,13.961 15.95,15.961 6,-3.992 13.97,-5.981 15.96,-13.961 v 0"
         style="fill:#0b905a;fill-opacity:1;fill-rule:nonzero;stroke:none"
         id="path210" />
      <path
         d="m 1674.76,732.031 c -6,-17.953 11.95,-49.859 -17.95,-51.851 -13.97,-1.989 -17.95,17.949 -27.93,19.941 -7.97,-15.949 13.96,-21.93 15.95,-35.891 -1.99,-13.96 3.99,-33.91 -11.97,-39.89 l -25.92,9.969 c -11.97,-9.969 -3.98,-31.911 -21.93,-39.879 l -9.98,9.968 c -7.97,37.891 -27.91,75.782 -25.92,115.672 41.88,-7.98 87.76,-2 125.65,11.961 v 0"
         style="fill:#0b905a;fill-opacity:1;fill-rule:nonzero;stroke:none"
         id="path212" />
      <path
         d="m 185.063,708.102 c -5.981,0 -5.981,9.968 -3.989,13.957 5.981,-1.989 7.981,-7.981 3.989,-13.957 v 0"
         style="fill:#0b905a;fill-opacity:1;fill-rule:nonzero;stroke:none"
         id="path214" />
      <path
         d="m 1862.2,714.078 c 4,-7.969 -5.98,-5.976 -9.96,-9.969 l -5.98,2 c -6,11.961 13.95,21.93 15.94,7.969 v 0"
         style="fill:#0b905a;fill-opacity:1;fill-rule:nonzero;stroke:none"
         id="path216" />
      <path
         d="m 350.586,658.238 c -7.981,-15.949 -19.945,-33.898 -9.973,-51.847 7.977,-15.95 25.926,-15.95 39.883,-9.969 5.984,0 7.981,7.976 13.961,3.988 -5.98,-55.84 59.828,-83.762 47.863,-141.59 1.993,0 1.993,0 3.989,-2 -13.961,-13.949 -41.879,-9.968 -61.821,-3.992 5.981,9.981 -7.98,11.973 -13.961,13.961 -11.968,49.859 -69.8,35.902 -91.734,69.813 21.934,35.886 -29.91,43.867 -43.871,67.796 23.93,33.903 -31.91,97.723 27.914,105.692 27.922,-17.942 67.805,-19.942 87.75,-51.852 v 0"
         style="fill:#0b905a;fill-opacity:1;fill-rule:nonzero;stroke:none"
         id="path218" />
      <path
         d="m 402.438,692.148 c 9.964,-9.976 35.89,-25.929 21.933,-35.898 3.988,-7.98 5.981,-17.949 5.981,-25.93 -29.914,9.969 -51.844,41.879 -65.805,69.801 15.949,13.957 29.91,-19.941 37.891,-7.973 v 0"
         style="fill:#0b905a;fill-opacity:1;fill-rule:nonzero;stroke:none"
         id="path220" />
      <path
         d="m 1778.45,686.16 c -7.97,-23.93 0,-49.851 25.92,-53.84 2.01,-33.898 -39.89,-35.898 -57.84,-57.84 -1.99,-19.941 27.93,-13.949 15.96,-33.902 -19.94,-17.937 -57.83,-15.949 -65.8,-45.867 0,-7.973 9.96,-13.949 3.98,-21.93 -57.83,-3.992 -61.81,-81.769 -117.65,-87.75 -3.99,-3.992 -7.99,-9.972 -13.97,-9.972 7.99,13.961 19.94,29.921 9.98,45.863 -5.99,17.949 -23.94,5.988 -33.9,5.988 23.92,43.871 33.9,93.731 65.8,133.621 -1.99,13.949 -5.98,35.891 13.96,35.891 57.83,-9.973 13.97,65.808 61.82,71.789 39.88,-13.961 65.82,61.828 91.74,17.949 v 0"
         style="fill:#0b905a;fill-opacity:1;fill-rule:nonzero;stroke:none"
         id="path222" />
      <path
         d="m 378.508,652.262 v -1.992 c -2,-2 -13.961,3.98 -9.973,9.968 5.981,1.992 9.973,-3.988 9.973,-7.976 v 0"
         style="fill:#0b905a;fill-opacity:1;fill-rule:nonzero;stroke:none"
         id="path224" />
      <path
         d="m 737.465,452.828 c -11.969,-3.988 -29.914,-9.957 -33.902,-25.918 -3.989,-15.961 -5.985,-33.91 -1.997,-51.851 h -7.972 c 7.972,59.832 -49.86,89.742 -77.778,135.601 l -39.882,11.981 c -9.973,7.968 -23.93,43.871 -43.871,23.929 -9.973,-17.949 -25.93,-33.91 -21.942,-57.84 -45.867,13.961 5.984,73.79 -45.867,85.75 -7.977,11.969 17.949,45.872 -9.969,49.86 l -17.945,33.898 c 89.734,-91.726 199.418,-135.597 301.125,-205.41 v 0"
         style="fill:#ffffff;fill-opacity:1;fill-rule:nonzero;stroke:none"
         id="path226" />
      <path
         d="m 179.082,628.328 c 0,-7.976 -7.977,-13.957 -13.961,-15.949 -3.988,1.992 -13.961,1.992 -13.961,9.973 0,9.968 5.985,17.937 13.961,19.937 7.981,-2 11.965,-5.98 13.961,-13.961 v 0"
         style="fill:#0b905a;fill-opacity:1;fill-rule:nonzero;stroke:none"
         id="path228" />
      <path
         d="m 1876.16,590.441 c -5.97,-7.98 -9.96,-19.941 -21.93,-21.929 l -13.97,5.968 c -3.98,-5.968 -3.98,-13.949 -9.96,-15.949 -11.97,0 -15.95,11.969 -17.95,19.938 -1.99,5.992 0,11.972 3.99,15.961 7.97,1.992 11.97,-5.989 15.95,0 2,11.961 -9.98,23.929 0,37.89 13.97,-3.992 13.97,-25.929 27.92,-31.91 7.98,13.961 -9.97,23.93 -3.99,37.891 15.96,-5.981 11.97,-31.91 19.94,-47.86 v 0"
         style="fill:#0b905a;fill-opacity:1;fill-rule:nonzero;stroke:none"
         id="path230" />
      <path
         d="m 378.508,526.621 c 9.969,-5.98 21.93,-21.941 29.91,-33.902 -41.879,21.941 -75.781,67.812 -103.699,105.703 l -15.953,37.887 c 37.89,-29.918 53.839,-73.789 89.742,-109.688 v 0"
         style="fill:#0d0b0a;fill-opacity:1;fill-rule:nonzero;stroke:none"
         id="path232" />
      <path
         d="m 1565.07,572.488 c -9.98,17.953 -17.95,37.891 -23.93,59.832 l 3.99,3.989 c 15.95,-15.957 23.92,-39.887 19.94,-63.821 v 0"
         style="fill:#0b905a;fill-opacity:1;fill-rule:nonzero;stroke:none"
         id="path234" />
      <path
         d="m 137.203,624.34 c 1.996,-3.988 -1.992,-7.981 -5.98,-9.969 -5.985,-3.992 -13.961,1.988 -15.953,7.981 0,13.957 21.933,13.957 21.933,1.988 v 0"
         style="fill:#0b905a;fill-opacity:1;fill-rule:nonzero;stroke:none"
         id="path236" />
      <path
         d="m 1507.24,598.422 c 1.99,-5.992 -5.98,-11.973 -11.98,-11.973 -5.97,-1.988 -9.96,5.981 -9.96,9.973 0,7.976 1.99,15.957 9.96,17.949 6,-1.992 13.97,-5.98 11.98,-15.949 v 0"
         style="fill:#0b905a;fill-opacity:1;fill-rule:nonzero;stroke:none"
         id="path238" />
      <path
         d="m 1712.63,594.43 c -15.94,-57.828 -63.81,-111.68 -113.66,-153.559 23.93,35.891 57.84,63.809 81.76,101.707 11.98,15.953 15.96,41.883 31.9,51.852 v 0"
         style="fill:#0d0b0a;fill-opacity:1;fill-rule:nonzero;stroke:none"
         id="path240" />
      <path
         d="m 1816.34,518.648 c -19.94,-2 -9.96,27.922 -19.94,41.883 -5.98,5.981 -21.94,13.949 -7.97,19.938 9.96,-17.949 29.9,-37.891 27.91,-61.821 v 0"
         style="fill:#0b905a;fill-opacity:1;fill-rule:nonzero;stroke:none"
         id="path242" />
      <path
         d="m 1561.08,524.629 c -5.99,-39.891 -19.94,-81.758 -51.85,-107.688 11.97,49.848 9.98,109.68 33.9,157.539 15.96,-11.96 0,-37.878 17.95,-49.851 v 0"
         style="fill:#0b905a;fill-opacity:1;fill-rule:nonzero;stroke:none"
         id="path244" />
      <path
         d="m 1515.21,566.512 c 0,-3.992 -2,-9.973 -7.97,-11.973 h -7.99 c -3.99,9.973 9.98,13.973 15.96,11.973 v 0"
         style="fill:#0b905a;fill-opacity:1;fill-rule:nonzero;stroke:none"
         id="path246" />
      <path
         d="m 1469.35,494.711 c 5.97,-45.871 -39.89,-77.77 -67.82,-113.672 -7.97,-5.98 -15.93,-13.949 -27.91,-11.961 -21.93,21.934 -5.97,55.844 0,81.762 0,31.91 -7.99,83.762 39.89,87.75 5.97,5.98 7.96,29.922 23.92,19.941 21.94,-15.953 9.98,-45.871 31.92,-63.82 v 0"
         style="fill:#0b905a;fill-opacity:1;fill-rule:nonzero;stroke:none"
         id="path248" />
      <path
         d="m 1499.25,508.672 c -1.99,-25.922 0,-57.832 -21.94,-73.781 -5.97,13.949 13.97,23.929 15.96,37.89 9.98,29.91 -19.94,41.879 -19.94,67.797 11.97,-5.976 27.93,-15.949 25.92,-31.906 v 0"
         style="fill:#0b905a;fill-opacity:1;fill-rule:nonzero;stroke:none"
         id="path250" />
      <path
         d="m 1800.38,494.711 -5.98,-5.981 c -15.95,7.981 -21.93,27.918 -15.95,43.872 l 3.98,5.988 c 17.95,-5.988 15.96,-27.93 17.95,-43.879 v 0"
         style="fill:#0b905a;fill-opacity:1;fill-rule:nonzero;stroke:none"
         id="path252" />
      <path
         d="m 637.754,454.828 c 5.98,-7.976 5.98,-23.93 0,-33.906 -15.953,-5.973 -13.961,27.918 -33.902,17.949 0,-21.93 -25.926,-19.941 -41.879,-17.949 -27.918,9.976 -25.922,41.887 -35.899,65.816 0,17.942 0,37.891 17.949,45.864 13.961,-51.84 83.758,-17.942 93.731,-77.774 v 0"
         style="fill:#0b905a;fill-opacity:1;fill-rule:nonzero;stroke:none"
         id="path254" />
      <path
         d="m 282.781,496.711 c 15.953,-9.973 39.887,0 47.86,-21.941 -31.907,-9.969 -63.817,5.992 -95.719,7.98 -7.981,-7.98 3.984,-15.961 9.973,-17.949 21.929,-7.981 49.851,-5.981 69.793,-15.961 -21.934,-15.942 -55.836,-15.942 -85.75,-19.942 -21.934,2 -13.961,25.93 -23.934,37.891 -11.961,11.973 -39.883,9.973 -37.887,33.91 23.934,3.981 43.867,19.942 65.809,29.91 23.929,3.993 29.91,-27.918 49.855,-33.898 v 0"
         style="fill:#0b905a;fill-opacity:1;fill-rule:nonzero;stroke:none"
         id="path256" />
      <path
         d="m 1776.46,492.719 c 0,-3.989 0,-7.981 -3.99,-9.969 -11.97,1.988 -15.96,9.969 -17.95,19.941 l 3.99,5.981 c 7.96,0 13.96,-7.973 17.95,-15.953 v 0"
         style="fill:#0b905a;fill-opacity:1;fill-rule:nonzero;stroke:none"
         id="path258" />
      <path
         d="m 1746.53,488.73 c 0,-3.992 2.01,-11.968 -3.98,-11.968 -9.96,0 -17.95,11.968 -21.93,17.949 v 11.969 c 11.97,3.98 21.93,-7.981 25.91,-17.95 v 0"
         style="fill:#0b905a;fill-opacity:1;fill-rule:nonzero;stroke:none"
         id="path260" />
      <path
         d="m 434.34,462.809 c -11.961,0 -23.93,11.961 -23.93,25.921 7.981,-7.968 21.938,-13.96 23.93,-25.921 v 0"
         style="fill:#0b905a;fill-opacity:1;fill-rule:nonzero;stroke:none"
         id="path262" />
      <path
         d="m 1317.78,450.84 c 0,-5.981 -5.97,-9.969 -9.98,-13.961 -9.96,-1.988 -9.96,11.961 -7.97,15.949 3.99,9.981 19.95,5.992 17.95,-1.988 v 0"
         style="fill:#0b905a;fill-opacity:1;fill-rule:nonzero;stroke:none"
         id="path264" />
      <path
         d="m 1419.48,452.828 c -3.98,-27.906 -15.95,-55.828 -35.9,-73.777 7.99,23.929 17.95,53.847 35.9,73.777 v 0"
         style="fill:#0d0b0a;fill-opacity:1;fill-rule:nonzero;stroke:none"
         id="path266" />
      <path
         d="m 785.32,422.922 c 0,-17.942 -11.961,-31.91 -19.937,-47.863 -3.988,23.929 -7.977,49.863 -19.945,71.793 15.957,-1.993 29.917,-11.961 39.882,-23.93 v 0"
         style="fill:#0b905a;fill-opacity:1;fill-rule:nonzero;stroke:none"
         id="path268" />
      <path
         d="m 532.063,414.949 c 39.878,1.992 61.82,-33.91 77.773,-63.82 13.957,-9.969 33.898,-17.949 39.883,-35.899 -23.934,-41.871 -59.824,7.981 -87.746,23.942 -15.953,15.937 -33.903,33.887 -51.852,43.859 l -3.988,-1.992 c 29.918,-43.867 73.789,-75.777 117.66,-97.711 5.98,-9.969 -13.957,-15.957 -3.988,-27.918 -25.922,-5.988 -65.813,-9.969 -83.754,11.961 0,15.957 1.992,45.867 -23.934,39.879 -23.929,-5.969 -43.875,5.988 -53.847,25.93 9.972,35.898 -39.879,59.82 -17.95,89.742 19.95,15.949 45.871,15.949 67.809,19.949 l 23.934,-27.922 v 0"
         style="fill:#0b905a;fill-opacity:1;fill-rule:nonzero;stroke:none"
         id="path270" />
      <path
         d="m 741.449,410.949 c 1.996,-9.969 -7.972,-11.961 -13.961,-11.961 -9.965,1.992 -9.965,13.961 -7.972,19.942 7.972,11.968 25.922,5.992 21.933,-7.981 v 0"
         style="fill:#0b905a;fill-opacity:1;fill-rule:nonzero;stroke:none"
         id="path272" />
      <path
         d="M 416.391,391.012 C 408.418,379.051 384.488,393 378.508,379.051 v -25.93 c -25.93,1.988 -13.961,39.879 -37.895,49.859 13.957,27.918 41.875,2 61.825,-2 5.98,-1.992 9.964,-3.98 13.953,-9.968 v 0"
         style="fill:#0b905a;fill-opacity:1;fill-rule:nonzero;stroke:none"
         id="path274" />
      <path
         d="m 1561.08,410.949 c 0,-43.859 -63.82,-63.808 -65.82,-107.679 -9.96,-15.961 -29.9,-31.911 -49.84,-19.942 -6,1.992 -11.97,3.981 -17.95,5.973 1.99,-29.91 -33.91,-41.871 -55.84,-53.832 -9.98,3.98 -25.94,1.992 -31.91,15.953 29.92,17.937 79.76,37.879 81.75,75.769 l -83.75,-67.8 c 11.98,29.91 27.91,59.839 43.87,85.75 45.88,-5.969 53.85,55.839 93.73,55.839 27.93,5.989 61.82,-11.96 85.76,9.969 v 0"
         style="fill:#0b905a;fill-opacity:1;fill-rule:nonzero;stroke:none"
         id="path276" />
      <path
         d="m 647.727,351.129 5.98,-7.981 c -27.922,11.961 -35.898,43.883 -59.824,59.832 23.926,15.95 29.91,-19.949 49.851,-29.921 l 3.993,-21.93 v 0"
         style="fill:#0b905a;fill-opacity:1;fill-rule:nonzero;stroke:none"
         id="path278" />
      <path
         d="m 863.102,341.16 c 9.968,-13.969 47.859,-7.98 31.902,-37.89 -11.961,-7.981 -5.981,-25.93 -23.926,-27.918 -35.898,9.968 -81.765,19.937 -93.73,63.82 -13.957,25.918 17.949,43.859 25.922,63.808 27.921,-5.98 51.851,-35.89 59.832,-61.82 v 0"
         style="fill:#0b905a;fill-opacity:1;fill-rule:nonzero;stroke:none"
         id="path280" />
      <path
         d="m 1247.98,327.191 c 7.99,-11.961 0,-25.91 -7.97,-35.882 -11.97,-29.918 -29.92,5.972 -45.88,3.98 -11.95,1.992 -27.91,-3.98 -37.87,5.992 21.93,19.938 -2.01,65.809 37.87,71.778 l 17.95,9.972 c 7.99,-17.941 6,-51.84 35.9,-55.84 v 0"
         style="fill:#0b905a;fill-opacity:1;fill-rule:nonzero;stroke:none"
         id="path282" />
      <path
         d="m 737.465,371.07 c -11.969,-5.98 -29.914,-35.898 -43.871,-13.961 23.929,-7.968 25.922,37.891 43.871,13.961 v 0"
         style="fill:#0b905a;fill-opacity:1;fill-rule:nonzero;stroke:none"
         id="path284" />
      <path
         d="m 1706.65,363.09 c -5.98,-1.988 -9.96,-7.981 -17.95,-5.981 -7.97,2 -3.98,9.981 0,13.961 6,9.969 23.93,7.981 17.95,-7.98 v 0"
         style="fill:#0b905a;fill-opacity:1;fill-rule:nonzero;stroke:none"
         id="path286" />
      <path
         d="m 334.633,357.109 c 3.984,-7.968 -3.992,-7.968 -9.977,-9.968 -3.988,2 -9.968,3.988 -13.953,9.968 0,13.961 25.922,17.95 23.93,0 v 0"
         style="fill:#0b905a;fill-opacity:1;fill-rule:nonzero;stroke:none"
         id="path288" />
      <path
         d="m 1351.69,357.109 c -15.96,-33.898 -41.9,-73.781 -79.77,-83.75 3.99,7.981 11.96,13.95 9.96,21.93 -3.98,3.981 -9.96,1.992 -13.96,-3.98 23.95,27.921 29.92,79.761 77.77,73.781 l 6,-7.981 v 0"
         style="fill:#0b905a;fill-opacity:1;fill-rule:nonzero;stroke:none"
         id="path290" />
      <path
         d="m 1598.97,275.352 c -19.94,0 -15.95,25.929 -29.92,37.886 -7.97,0 -5.97,-19.937 -19.94,-13.968 l -9.98,15.96 c 7.99,15.961 23.95,21.942 37.91,29.911 13.95,-17.95 29.9,-43.86 21.93,-69.789 v 0"
         style="fill:#0b905a;fill-opacity:1;fill-rule:nonzero;stroke:none"
         id="path292" />
      <path
         d="m 1624.89,275.352 c -13.96,3.976 -7.97,21.929 -11.97,33.898 l 2.01,7.969 c 5.98,-11.957 17.93,-27.918 9.96,-41.867 v 0"
         style="fill:#0b905a;fill-opacity:1;fill-rule:nonzero;stroke:none"
         id="path294" />
      <path
         d="m 779.34,273.359 c 43.879,-4 77.773,-41.89 95.723,-77.781 l 7.98,-5.976 c -43.871,11.957 -87.746,27.918 -127.633,47.859 l -3.984,-3.992 c 37.887,-33.899 89.734,-45.867 137.597,-61.821 -29.914,9.973 -61.816,-1.988 -89.742,-9.968 -15.953,-2 -25.922,13.961 -35.89,21.929 -31.911,-5.98 -55.84,19.95 -79.774,35.903 -1.992,23.929 -37.89,41.879 -17.949,69.789 17.949,15.961 41.883,11.98 59.828,19.949 25.93,5.98 33.902,-23.93 53.844,-35.891 v 0"
         style="fill:#0b905a;fill-opacity:1;fill-rule:nonzero;stroke:none"
         id="path296" />
      <path
         d="m 478.219,273.359 c 3.984,-5.988 1.992,-17.949 -7.981,-17.949 -5.984,1.988 -9.968,0 -15.953,-3.988 9.969,-15.953 45.867,-31.91 37.887,-53.844 -9.969,-3.988 -25.922,-11.969 -35.895,0 5.985,65.813 -115.664,5.981 -75.781,81.75 23.934,29.922 77.774,21.953 97.723,-5.969 v 0"
         style="fill:#0b905a;fill-opacity:1;fill-rule:nonzero;stroke:none"
         id="path298" />
      <path
         d="m 1547.12,243.441 c -1.99,-5.98 -11.97,-3.992 -15.96,0 -3.98,7.981 -13.96,21.938 -1.99,27.918 11.97,-3.988 19.94,-17.937 17.95,-27.918 v 0"
         style="fill:#0b905a;fill-opacity:1;fill-rule:nonzero;stroke:none"
         id="path300" />
      <path
         d="m 1579.03,255.41 c 0,-3.988 -1.99,-7.98 -5.99,-11.969 -7.97,2 -11.96,9.981 -11.96,15.95 l 2,9.968 c 9.96,2 11.95,-7.968 15.95,-13.949 v 0"
         style="fill:#0b905a;fill-opacity:1;fill-rule:nonzero;stroke:none"
         id="path302" />
      <path
         d="m 1505.24,247.43 c -5.99,0 -9.98,3.992 -11.97,9.968 3.99,13.961 19.94,-1.988 11.97,-9.968 v 0"
         style="fill:#0b905a;fill-opacity:1;fill-rule:nonzero;stroke:none"
         id="path304" />
      <path
         d="m 942.871,231.469 c 3.984,-21.93 -21.937,-11.957 -27.926,-21.93 -11.961,11.961 -23.925,27.922 -29.906,45.871 21.934,11.961 51.848,0 57.832,-23.941 v 0"
         style="fill:#0b905a;fill-opacity:1;fill-rule:nonzero;stroke:none"
         id="path306" />
      <path
         d="m 1311.81,239.449 c 1.99,-31.898 -61.84,-31.898 -49.87,-73.789 -27.91,-43.871 -81.75,7.981 -109.68,-31.898 -33.89,5.976 -71.78,7.976 -103.7,21.937 55.84,1.992 115.67,5.981 157.54,37.891 -41.87,3.988 -83.75,-21.942 -129.63,-25.93 -19.94,3.988 -35.89,-3.988 -53.83,-2 47.86,33.91 99.71,83.762 163.52,75.781 17.95,-1.992 37.89,2 51.86,13.969 23.92,-11.969 61.81,21.93 73.79,-15.961 v 0"
         style="fill:#0b905a;fill-opacity:1;fill-rule:nonzero;stroke:none"
         id="path308" />
      <path
         d="m 1024.63,237.461 c 2,-9.973 -13.96,-17.949 -21.93,-17.949 -5.985,1.988 -13.966,3.988 -13.966,11.957 -1.992,9.972 11.966,11.972 17.946,19.953 7.98,0 17.95,-3.992 17.95,-13.961 v 0"
         style="fill:#0b905a;fill-opacity:1;fill-rule:nonzero;stroke:none"
         id="path310" />
      <path
         d="m 512.117,219.512 v -3.992 c -7.976,-1.989 -15.957,7.98 -11.965,13.96 5.981,0 7.977,-5.98 11.965,-9.968 v 0"
         style="fill:#0b905a;fill-opacity:1;fill-rule:nonzero;stroke:none"
         id="path312" />
      <path
         d="m 675.645,211.531 c -17.95,-27.922 -53.844,-21.929 -81.762,-35.89 -3.988,0 -11.969,3.988 -13.961,9.968 -3.988,17.95 19.941,17.95 31.902,23.93 19.949,0 45.871,15.961 63.821,1.992 v 0"
         style="fill:#0b905a;fill-opacity:1;fill-rule:nonzero;stroke:none"
         id="path314" />
      <path
         d="m 982.754,187.602 -3.988,-19.942 c -11.969,-2 -29.914,0 -35.895,15.949 0,9.981 5.981,21.942 17.945,21.942 13.957,5.98 19.946,-7.973 21.938,-17.949 v 0"
         style="fill:#0b905a;fill-opacity:1;fill-rule:nonzero;stroke:none"
         id="path316" />
      <path
         d="m 1311.81,137.75 c -2.02,-7.98 3.98,-25.93 -9.98,-25.93 -13.97,7.981 -17.95,25.93 -17.95,41.879 7.99,27.922 23.92,-5.98 27.93,-15.949 v 0"
         style="fill:#0b905a;fill-opacity:1;fill-rule:nonzero;stroke:none"
         id="path318" />
      <path
         d="M 761.395,107.828 V 85.8984 c -19.946,17.9416 -41.879,41.8826 -49.856,67.8006 7.977,9.973 15.949,-1.988 21.938,-5.98 3.988,-15.957 15.953,-29.91 27.918,-39.891 v 0"
         style="fill:#0b905a;fill-opacity:1;fill-rule:nonzero;stroke:none"
         id="path320" />
      <path
         d="m 609.836,149.711 c -2,-1.992 -5.984,0 -7.981,-1.992 v 7.98 c 5.981,1.992 5.981,-2 7.981,-5.988 v 0"
         style="fill:#0b905a;fill-opacity:1;fill-rule:nonzero;stroke:none"
         id="path322" />
      <path
         d="m 1329.76,135.762 v -5.992 c -6,1.992 -15.96,15.96 -9.98,25.929 13.96,3.981 9.98,-11.969 9.98,-19.937 v 0"
         style="fill:#0b905a;fill-opacity:1;fill-rule:nonzero;stroke:none"
         id="path324" />
      <path
         d="m 1417.49,149.711 c 0,-3.981 -1.99,-7.973 -5.98,-7.973 -3.98,-2 -5.97,1.992 -7.98,3.992 0,3.981 9.98,13.95 13.96,3.981 v 0"
         style="fill:#0b905a;fill-opacity:1;fill-rule:nonzero;stroke:none"
         id="path326" />
      <path
         d="m 573.938,135.762 c -1.997,-2 -5.985,0 -9.973,-2 l 1.996,7.976 c 3.988,0 9.973,0 7.977,-5.976 v 0"
         style="fill:#0b905a;fill-opacity:1;fill-rule:nonzero;stroke:none"
         id="path328" />
      <path
         d="m 813.246,135.762 c 0,-2 -1.996,-5.992 -3.988,-5.992 -3.988,0 -5.988,1.992 -7.981,3.992 -1.996,7.976 9.973,11.968 11.969,2 v 0"
         style="fill:#0b905a;fill-opacity:1;fill-rule:nonzero;stroke:none"
         id="path330" />
      <path
         d="m 1279.89,113.82 c 1.99,-3.992 0,-9.98 -5.97,-9.98 -7.99,0 -11.98,7.98 -15.96,11.969 -3.99,23.929 27.91,17.953 21.93,-1.989 v 0"
         style="fill:#0b905a;fill-opacity:1;fill-rule:nonzero;stroke:none"
         id="path332" />
      <path
         d="m 779.34,119.801 c -1.992,1.988 -11.961,1.988 -5.981,7.98 3.989,-2 7.981,-2 5.981,-7.98 v 0"
         style="fill:#0b905a;fill-opacity:1;fill-rule:nonzero;stroke:none"
         id="path334" />
      <path
         d="m 1218.08,111.82 -2,-13.9489 c -9.98,-4 -19.94,5.9689 -25.93,13.9489 l 5.99,15.961 c 11.96,0 15.94,-9.972 21.94,-15.961 v 0"
         style="fill:#0b905a;fill-opacity:1;fill-rule:nonzero;stroke:none"
         id="path336" />
      <path
         d="m 729.488,97.8711 c -7.98,3.9809 -23.929,15.9489 -19.941,27.9099 9.969,-5.98 19.941,-15.953 19.941,-27.9099 v 0"
         style="fill:#0b905a;fill-opacity:1;fill-rule:nonzero;stroke:none"
         id="path338" />
      <path
         d="m 1247.98,111.82 c 0,-5.98 -1.99,-9.968 -7.97,-11.9606 -7.99,3.9806 -11.97,21.9296 -1.99,25.9216 5.97,0 9.96,-7.972 9.96,-13.961 v 0"
         style="fill:#0b905a;fill-opacity:1;fill-rule:nonzero;stroke:none"
         id="path340" />
      <path
         d="m 701.566,97.8711 c -7.972,-4 -11.964,3.9809 -17.949,7.9689 l 3.988,5.98 c 7.981,0 9.973,-7.98 13.961,-13.9489 v 0"
         style="fill:#0b905a;fill-opacity:1;fill-rule:nonzero;stroke:none"
         id="path342" />
      <path
         d="M 1078.47,42.0313 C 1062.53,34.0508 1050.56,52 1044.58,63.9609 l -13.96,47.8591 c 25.91,-15.9489 37.89,-43.8708 47.85,-69.7887 v 0"
         style="fill:#0b905a;fill-opacity:1;fill-rule:nonzero;stroke:none"
         id="path344" />
      <path
         d="m 900.992,103.84 c 0,-11.9611 -11.969,-13.9494 -19.941,-21.9298 l -1.996,1.9882 c 3.988,7.9805 7.976,25.9296 21.937,19.9416 v 0"
         style="fill:#0b905a;fill-opacity:1;fill-rule:nonzero;stroke:none"
         id="path346" />
      <path
         d="m 1289.87,1830.84 13.95,-13.95 -13.95,13.95 z"
         style="fill:#0b905a;fill-opacity:1;fill-rule:nonzero;stroke:none"
         id="path348" />
      <path
         d="m 352.578,237.461 17.949,-17.949 -17.949,17.949 z"
         style="fill:#0b905a;fill-opacity:1;fill-rule:nonzero;stroke:none"
         id="path350" />
      <path
         d="m 1606.14,1185.73 c 124.14,-46.62 169.18,140.73 38.32,166.73 -33.84,4.02 -76.87,-9.42 -76.87,-9.42"
         style="fill:none;stroke:#ffffff;stroke-width:7;stroke-linecap:butt;stroke-linejoin:miter;stroke-miterlimit:3.86369;stroke-dasharray:none;stroke-opacity:1"
         id="path352" />
      <path
         d="m 339.395,1306.24 c -105.454,-62.6 -144.77,-154.72 -181.512,-198.98 -29.707,-30.69 -55.719,-63.12 -55.477,-72.07 1.114,-9.19 52.668,-48.659 66.946,-70.413 59.418,-87.515 84.164,-115.726 124.371,-150.996 M 620.25,1439.31 c 0,27.24 22.086,49.33 49.324,49.33 27.246,0 49.332,-22.09 49.332,-49.33 0,-27.24 -22.086,-49.33 -49.332,-49.33 -27.238,0 -49.324,22.09 -49.324,49.33 z m -242.316,0.33 c 0,27.25 22.086,49.33 49.328,49.33 27.246,0 49.324,-22.08 49.324,-49.33 0,-27.24 -22.078,-49.32 -49.324,-49.32 -27.242,0 -49.328,22.08 -49.328,49.32 z M 1649.81,914.102 c 119.16,6.718 93.19,-85.762 89.42,-107.122 -18.2,-57.378 -82.66,-124.539 -224.47,-74.558"
         style="fill:none;stroke:#ffffff;stroke-width:7.5;stroke-linecap:butt;stroke-linejoin:miter;stroke-miterlimit:3.86369;stroke-dasharray:none;stroke-opacity:1"
         id="path354" />
    </g>
  </g>
</svg>
