<?xml version="1.0" encoding="UTF-8" standalone="no"?>
<!-- Created with Inkscape (http://www.inkscape.org/) -->

<svg
   version="1.1"
   id="svg2"
   width="759.84003"
   height="834.26666"
   viewBox="0 0 759.84003 834.26666"
   sodipodi:docname="Örgryte_IS.eps"
   xmlns:inkscape="http://www.inkscape.org/namespaces/inkscape"
   xmlns:sodipodi="http://sodipodi.sourceforge.net/DTD/sodipodi-0.dtd"
   xmlns="http://www.w3.org/2000/svg"
   xmlns:svg="http://www.w3.org/2000/svg">
  <defs
     id="defs6" />
  <sodipodi:namedview
     id="namedview4"
     pagecolor="#ffffff"
     bordercolor="#000000"
     borderopacity="0.25"
     inkscape:showpageshadow="2"
     inkscape:pageopacity="0.0"
     inkscape:pagecheckerboard="0"
     inkscape:deskcolor="#d1d1d1" />
  <g
     id="g8"
     inkscape:groupmode="layer"
     inkscape:label="ink_ext_XXXXXX"
     transform="matrix(1.3333333,0,0,-1.3333333,0,834.26667)">
    <g
       id="g10"
       transform="scale(0.1)">
      <path
         d="M 724.645,6183.79 0,5510.22 c 0,0 358.723,-693.82 371.996,-1450.94 2.848,-161.4 -34.125,-465.3 -119.621,-792.07 C 193.496,3041.99 83.7695,2818.48 60.5977,2572.11 35.5469,2306.09 100.195,2029.79 158.926,1803.96 363.371,1018.05 1172.4,628.574 1172.4,628.574 c 0,0 191.77,-78.906 411.9,-128.554 64.35,-14.473 377.77,-33.145 631.04,-136.875 C 2547.67,227.031 2828.4,0 2828.4,0 c 0,0 168.36,222.832 662.78,402.148 148.63,53.926 372.07,57.305 585.45,95.391 228.28,40.723 446.54,117.09 593.61,205.215 580.43,347.986 829.57,843.656 900.37,1197.046 43.73,218.11 70.8,498.91 31.21,759.83 -39.69,261.68 -146.25,503.48 -196.66,738.45 -64.41,300.52 -84.9,547.72 -81.74,680.47 19.04,802.95 375.37,1410.67 375.37,1410.67 L 5045.98,6185 c 0,0 -574.26,-298.05 -1132.87,-279.68 -537.73,17.63 -1060.72,351.67 -1060.72,351.67 0,0 -509.02,-306.22 -1041.52,-324.53 -531.37,-18.3 -1086.225,251.33 -1086.225,251.33"
         style="fill:#bb9a3c;fill-opacity:1;fill-rule:nonzero;stroke:none"
         id="path12" />
      <path
         d="m 1218.22,2915.47 688.2,568.04 -321,833.54 852.22,-163.95 413.4,755.1 408.75,-796.65 905.34,175.5 -397.21,-842.85 683.55,-572.62 -886.8,-200.92 -32.32,-902.85 -681.31,549.61 -699.82,-554.26 -4.58,889.13 -928.42,263.18"
         style="fill:#ffffff;fill-opacity:1;fill-rule:nonzero;stroke:none"
         id="path14" />
      <path
         d="m 293.996,5453.9 502.352,466.72 c 0,0 494.852,-192.75 1005.152,-174.37 512.32,18.52 1040.09,248.17 1040.09,248.17 0,0 532.44,-279.68 1057.12,-310.28 538.29,-31.35 1069.13,186.45 1069.13,186.45 L 5460.67,5382.42 4363.04,4553.75 3363.07,4344.2 2863.05,5382.42 2351.09,4370.45 1260.67,4594.25 1663.05,3546.5 808.273,2813.09 1758.3,2548.79 517.797,1584.38 c 0,0 -226.945,313.18 -213.598,809.84 2.922,109.86 15.821,277.79 49.649,407.46 35.773,137.25 93.148,236.25 122.179,350.86 73.047,288.36 96.371,464.32 96.371,464.32 0,0 56.176,515.24 -12.972,971.24 -70.051,462.45 -265.43,865.8 -265.43,865.8"
         style="fill:#a80c30;fill-opacity:1;fill-rule:nonzero;stroke:none"
         id="path16" />
      <path
         d="M 5251.72,5012.38 4449.14,4409.53 4020.96,3487.78 4843.56,2770.25 3743.46,2514.51 3707.84,1366.8 2847.6,2068.5 1967.47,1396.48 1923.89,2435.23 615.676,1428.22 c 0,0 129.672,-300 579.074,-528.142 93.37,-47.402 256.87,-114.531 381.82,-144.16 93.38,-22.129 215.77,-32.324 302.7,-45.527 124.35,-18.828 209.77,-39.981 321.67,-78.672 409.73,-141.68 632.7,-329.395 632.7,-329.395 0,0 247.81,194.473 648.9,320.84 98.11,30.899 260.84,68.477 376.8,86.113 214.2,32.618 390.37,40.723 562.74,120.45 397.18,183.673 627.65,497.383 627.65,497.383 0,0 323.42,316.35 340.88,975.68 2.93,109.87 1.8,261 -32.32,402.37 -33.38,138.45 -99.46,267.07 -127.79,393.67 -79.73,356.78 -117.31,621.22 -117.31,621.22 0,0 -37.58,256.95 -10.88,547.13 31.35,339.97 149.41,745.2 149.41,745.2"
         style="fill:#1c4e9d;fill-opacity:1;fill-rule:nonzero;stroke:none"
         id="path18" />
      <path
         d="m 2065.2,3955.25 c 57.59,0 115.19,0 172.79,0 0,-58.42 0,-116.85 0,-175.2 -57.6,0 -115.2,0 -172.79,0 0,58.43 0,116.78 0,175.2"
         style="fill:#bb9a3c;fill-opacity:1;fill-rule:nonzero;stroke:none"
         id="path20" />
      <path
         d="m 2348.39,3955.25 c 57.6,0 115.2,0 172.8,0 0,-58.42 0,-116.85 0,-175.2 -57.6,0 -115.2,0 -172.8,0 0,58.43 0,116.78 0,175.2"
         style="fill:#bb9a3c;fill-opacity:1;fill-rule:nonzero;stroke:none"
         id="path22" />
      <path
         d="m 2792.39,3640.86 c 57.6,0 115.21,0 172.81,0 0,-297.6 0,-595.2 0,-892.79 -57.6,0 -115.21,0 -172.81,0 0,297.59 0,595.19 0,892.79"
         style="fill:#bb9a3c;fill-opacity:1;fill-rule:nonzero;stroke:none"
         id="path24" />
      <path
         d="m 2456.17,3647.53 c -48.15,17.17 -98.03,22.12 -155.78,22.12 -7.95,-1.65 -15.97,-3.22 -24,-4.8 -17.39,0 -33,-4.8 -48.15,-9.3 -43.87,-12.82 -79.2,-31.65 -117.44,-55.5 -43.73,-27.14 -82.36,-70.27 -111.6,-111.97 -156.08,-222.07 -104.03,-553.28 120.44,-704.99 63.98,-43.21 143.63,-68.77 231.08,-63.38 93.07,5.86 171.9,43.28 238.42,101.93 255.9,225.9 194.86,708.81 -132.97,825.89 z m 46.87,-680.09 c -23.92,-31.81 -57.82,-61.58 -92.92,-76.42 -14.93,-5.26 -29.93,-10.51 -44.93,-15.77 -5.55,-0.82 -11.17,-1.56 -16.8,-2.4 -30.37,0 -58.27,1.74 -83.62,10.8 -127.5,45.84 -189,192.39 -182.47,330.01 3.82,82.12 32.92,157.2 83.4,216.3 26.32,30.97 60.22,54.52 96.22,67.12 15.22,3.9 30.45,7.88 45.67,11.77 270.3,0 330.83,-360.9 195.45,-541.41"
         style="fill:#bb9a3c;fill-opacity:1;fill-rule:nonzero;stroke:none"
         id="path26" />
      <path
         d="m 3570.14,3397.11 h 162.83 c 0,0 -0.52,149.69 -122.84,220.8 -202.06,117.3 -413.86,46.5 -505.81,-48.53 -94.96,-98.17 -63.67,-292.8 31.43,-349.65 224.23,-134.16 367.34,-59.48 431.77,-185.24 10.41,-20.62 4.05,-69.9 -16.73,-95.41 -7.72,-9.45 -126.98,-105.97 -270,-39.37 -71.02,33.08 -87.45,133.49 -87.45,133.49 h -171.6 c 0,0 9.22,-147.59 100.72,-219.29 99.17,-77.78 281.25,-80.1 281.25,-80.1 0,0 105,-3.97 183.99,33.22 77.4,36.39 227.77,147.68 144.82,349.13 -72.22,174.6 -220.43,141.3 -416.62,212.24 -66.01,23.93 -133.88,71.56 -64.8,160.65 34.57,44.63 191.91,54.08 246.74,17.78 51.38,-33.9 72.3,-109.72 72.3,-109.72"
         style="fill:#bb9a3c;fill-opacity:1;fill-rule:nonzero;stroke:none"
         id="path28" />
    </g>
  </g>
</svg>
