<svg xmlns="http://www.w3.org/2000/svg" id="Lager_1" viewBox="0 0 283.465 283.465"><defs><style>      .st0, .st1 {        fill: #fff;      }      .st2 {        fill: #a90800;      }      .st1 {        stroke: #fff;      }    </style></defs><path class="st0" d="M139.422,9.219c51.457,0,133.063,43.855,133.063,132.894s-70.464,133.561-133.063,133.561S6.03,223.846,6.03,142.114,75.512,9.219,139.422,9.219Z"></path><path class="st2" d="M139.422,277.175c-32.383,0-65.617-13.312-91.18-36.521-28.188-25.594-43.713-60.59-43.713-98.541s15.35-72.92,43.222-98.208C73.101,20.909,106.513,7.719,139.422,7.719c28.507,0,61.76,12.798,86.782,33.399,21.798,17.948,47.782,50.038,47.782,100.995,0,52.216-23.693,83.908-43.569,101.299-24.521,21.456-57.688,33.762-90.995,33.762ZM139.422,10.719C75.992,10.719,7.53,60.955,7.53,142.114c0,78.996,68.197,132.061,131.893,132.061s131.564-46.284,131.564-132.061c0-49.787-25.39-81.142-46.688-98.679-24.51-20.18-57.032-32.716-84.875-32.716Z"></path><path class="st2" d="M139.469,14.898c49.267,0,127.401,41.99,127.401,127.241s-67.465,127.879-127.401,127.879S11.753,220.393,11.753,142.139,78.279,14.898,139.469,14.898Z"></path><path class="st1" d="M65.675,220.746s37.366-39.216,92.184,2.96c2.608,2.005,4.066,3.071,8.733-1.189,6.854-6.258,26.04-44.003-18.733-68.054-41.274-22.17-43.348-14.247-72.348-45.747-11.057-12.01-21.029-39.967-.618-62.336,20.412-22.369,50.913-20.772,54.324-20.396,24.135,2.653,39.563,10.669,55.388,20.477,4.547,2.822,4.171,1.816,6.146.828,1.976-.988,3.982-3.211,3.982-3.211,0,0,4.185-1.941,2.138,2.36-.587,1.233-7.724,5.987-13.766,10.555-7.456,5.645-14.683,11.225-14.683,11.225,0,0-1.489,2.506-5.094-1.674-2.433-2.817-14.907-13.835-27.201-16.544-11.392-2.513-22.736-2.039-30.694,3.134-6.583,4.277-11.855,10.314-5.521,24.81,5.499,12.589,24.174,20.747,30.273,23.863,5.81,2.97,32.228,14.672,37.579,18.587,5.311,3.881,23.651,16.564,33.349,39.751,1.797,4.293,3.859,9.524,5.732,16.85,2.378,9.306,3.395,21.634.776,34.692-1.213,6.045-3.468,5.211-7.29,6.754-12.156,4.9-35.73,14.501-49.387,31.583-2.595,3.245-4.465,4.249-7.243,0-2.176-3.327-32.505-33.56-75.192-25.035-10.244,2.048-2.835-4.245-2.835-4.245Z"></path><path class="st1" d="M48.821,145.776s1.917-.956,7.112-4.849c6.955-5.209,11.524-8.971,17.199-11.59,4.41-2.036,5.852-1.289,8.687-.623,1.8.423,2.457,1.739-.416,2.462-2.772.698-2.752.601-5.056,2.576-2.304,1.976-11.986,12.8-15.354,16.838-2.993,3.592-6.883,9.188-13.034,10.204-1.296.209.862-15.018.862-15.018Z"></path><path class="st1" d="M60.05,206.884s6.368-9.602,8.03-13.557c1.606-3.816,4.21-12.965,4.118-19.382-.176-11.963-1.402-17.197-.102-22.495,1.606-6.527,5.972-16.108,14.256-18.677,2.912-.905,2.311-.203,2.209,1.305-.101,1.508.549,42.113.099,44.383-2.607,13.158-4.565,17.373-9.637,21.494-6.21,5.047-15.572,7.509-17.568,8.132-3.296,1.037-1.406-1.203-1.406-1.203Z"></path><path class="st1" d="M176.625,75.396s6.419-2.695,13.39-8.287c4.754-3.814,10.485-7.634,14.416-10.37,4.659-3.238,14.251-1.15,15.995,2.792,1.336,3.013,2.383,3.292,3.172,10.28.14,1.24.635,1.778-1.522,2.412-2.158.634-7.49,2.158-7.49,2.158,0,0-1.271.254-2.032-1.523-.761-1.777-3.299-6.984-7.107-8.124-3.81-1.141-5.715,1.145-6.73,2.54-1.015,1.395-.509,3.933-.635,5.457-.125,1.523.129,8.505.509,9.393.38.889-.383,2.792,3.681,2.792s5.968-.383,6.856-.128c.889.254,2.538-.126,5.838,3.935,3.301,4.062,1.684,5.42,8.634,5.965,2.291.18,2.158.38,1.523,1.903-.635,1.523-2.666,6.348-2.666,6.348,0,0-2.199,4.018-9.266.889-3.062-1.359-4.189-5.456-8.379-5.584-4.189-.128-5.584,1.017-6.093,3.681-.509,2.664-.763,30.461-.763,30.461,0,0,.76,3.553-1.906,1.523s-14.724-10.663-15.486-10.789c-.763-.126-3.175-2.664-1.017-4.187,2.157-1.523,2.664-4.95,2.792-5.839.128-.889-.509-18.657-.635-20.688s-.916-8.348-1.394-9.9c-.509-1.649-.174-4.196-3.556-5.584-2.16-.889-.128-1.523-.128-1.523Z"></path></svg>