<?xml version="1.0" encoding="UTF-8" standalone="no"?>
<!-- Created with Inkscape (http://www.inkscape.org/) -->

<svg
   version="1.1"
   id="svg2"
   width="150.75999"
   height="215.44"
   viewBox="0 0 150.75999 215.44"
   sodipodi:docname="Skövde_AIK (1).eps"
   xmlns:inkscape="http://www.inkscape.org/namespaces/inkscape"
   xmlns:sodipodi="http://sodipodi.sourceforge.net/DTD/sodipodi-0.dtd"
   xmlns="http://www.w3.org/2000/svg"
   xmlns:svg="http://www.w3.org/2000/svg">
  <defs
     id="defs6" />
  <sodipodi:namedview
     id="namedview4"
     pagecolor="#ffffff"
     bordercolor="#000000"
     borderopacity="0.25"
     inkscape:showpageshadow="2"
     inkscape:pageopacity="0.0"
     inkscape:pagecheckerboard="0"
     inkscape:deskcolor="#d1d1d1" />
  <g
     id="g8"
     inkscape:groupmode="layer"
     inkscape:label="ink_ext_XXXXXX"
     transform="matrix(1.3333333,0,0,-1.3333333,0,215.44)">
    <g
       id="g10"
       transform="scale(0.1)">
      <path
         d="m 512.285,1599.68 c 0,0 -81.621,-11.93 -133.73,-54.62 -52.11,-42.7 -87.266,-109.87 -95.43,-132.48 -8.145,-22.61 -20.078,-88.53 -21.348,-101.7 0,0 -43.32,-28.89 -64.668,-48.36 -21.347,-19.45 -49.589,-52.73 -64.023,-75.33 -14.453,-22.61 -50.2344,-87.28 -69.6876,-139.37 -19.4726,-52.117 -32.6562,-94.808 -39.5703,-148.179 -6.9023,-53.368 -9.414,-97.942 -9.414,-146.922 0,-48.977 3.1445,-115.52 13.8086,-170.141 10.6836,-54.617 23.2421,-90.406 42.0703,-134.976 18.8476,-44.59 29.5117,-69.071 53.359,-108 23.868,-38.922 57.774,-79.102 88.536,-110.5 30.761,-31.383 72.832,-75.34 147.539,-118.032 74.707,-42.6989 135.605,-65.3005 175.8,-76.6091 40.176,-11.2812 83.496,-25.10152 146.27,-18.1992 62.793,6.918 90.41,20.0977 108.633,29.5078 18.203,9.4297 56.504,29.5118 86.621,88.5195 30.137,59.031 23.867,80.383 18.847,103.609 -5.019,23.223 -16.953,52.102 -26.367,67.801 -0.625,0 26.992,23.86 43.321,38.93 16.328,15.062 54.609,50.23 99.198,121.801 44.57,71.558 69.04,126.199 78.48,153.816 9.41,27.629 25.74,90.41 25.74,165.754 0,75.34 -5.02,114.266 -13.83,155.074 -8.77,40.805 -16.93,90.416 -69.69,174.546 -52.73,84.13 -86.637,124.31 -134.352,165.74 -35.136,28.88 -52.089,35.79 -57.734,39.56 -5.664,3.77 -8.184,5.65 -10.059,12.56 -1.894,6.9 -3.007,18.54 -4.863,30.45 -2.519,12.66 -29.668,93.87 -51.015,128.39 -21.348,34.53 -35.801,51.48 -64.043,67.17 -28.262,15.7 -67.168,33.29 -111.133,38.3 -43.946,5.03 -64.024,3.76 -87.266,1.89"
         style="fill:#776c49;fill-opacity:1;fill-rule:nonzero;stroke:none"
         id="path12" />
      <path
         d="m 512.285,1599.68 c 0,0 -81.621,-11.93 -133.73,-54.62 -52.11,-42.7 -87.266,-109.87 -95.43,-132.48 -8.145,-22.61 -20.078,-88.53 -21.348,-101.7 0,0 -43.32,-28.89 -64.668,-48.36 -21.347,-19.45 -49.589,-52.73 -64.023,-75.33 -14.453,-22.61 -50.2344,-87.28 -69.6876,-139.37 -19.4726,-52.117 -32.6562,-94.808 -39.5703,-148.179 -6.9023,-53.368 -9.414,-97.942 -9.414,-146.922 0,-48.977 3.1445,-115.52 13.8086,-170.141 10.6836,-54.617 23.2421,-90.406 42.0703,-134.976 18.8476,-44.59 29.5117,-69.071 53.359,-108 23.868,-38.922 57.774,-79.102 88.536,-110.5 30.761,-31.383 72.832,-75.34 147.539,-118.032 74.707,-42.6989 135.605,-65.3005 175.8,-76.6091 40.176,-11.2812 83.496,-25.10152 146.27,-18.1992 62.793,6.918 90.41,20.0977 108.633,29.5078 18.203,9.4297 56.504,29.5118 86.621,88.5195 30.137,59.031 23.867,80.383 18.847,103.609 -5.019,23.223 -16.953,52.102 -26.367,67.801 -0.625,0 26.992,23.86 43.321,38.93 16.328,15.062 54.609,50.23 99.198,121.801 44.57,71.558 69.04,126.199 78.48,153.816 9.41,27.629 25.74,90.41 25.74,165.754 0,75.34 -5.02,114.266 -13.83,155.074 -8.77,40.805 -16.93,90.416 -69.69,174.546 -52.73,84.13 -86.637,124.31 -134.352,165.74 -35.136,28.88 -52.089,35.79 -57.734,39.56 -5.664,3.77 -8.184,5.65 -10.059,12.56 -1.894,6.9 -3.007,18.54 -4.863,30.45 -2.519,12.66 -29.668,93.87 -51.015,128.39 -21.348,34.53 -35.801,51.48 -64.043,67.17 -28.262,15.7 -67.168,33.29 -111.133,38.3 -43.946,5.03 -64.024,3.76 -87.266,1.89"
         style="fill:none;stroke:#ffffff;stroke-width:2.5;stroke-linecap:butt;stroke-linejoin:miter;stroke-miterlimit:4;stroke-dasharray:none;stroke-opacity:1"
         id="path14" />
      <path
         d="m 511.113,1614.07 -0.918,-0.11 c -3.496,-0.51 -86.191,-13.01 -140.781,-57.74 -53.379,-43.74 -90.332,-112.36 -99.863,-138.74 -7.656,-21.22 -18.008,-76.23 -21.231,-98.3 -12.304,-8.38 -43.222,-29.85 -60.918,-45.99 -22.187,-20.21 -51.386,-54.58 -66.484,-78.24 C 105.82,1171.33 69.4922,1105.39 49.8828,1052.86 30.2734,1000.38 16.6797,956.762 9.51953,901.496 2.84375,849.887 0,805.395 0,752.738 0,715.063 1.82422,642.492 14.0625,579.82 25.0781,523.469 38.1445,486.609 57.0117,441.988 75.9961,397.039 87.0313,371.738 111.367,332.07 c 29.434,-48.031 69.336,-91.441 90.508,-113.05 l 2.715,-2.77 C 235.684,184.488 278.281,141 352.578,98.5586 431.172,53.6406 493.32,31.3711 531.621,20.5898 l 7.051,-1.9882 C 577.48,7.60156 621.484,-4.87109 683.379,1.94141 c 68.125,7.5 97.754,22.80859 113.672,31.02739 18.086,9.3632 60.429,31.2617 92.851,94.7812 19.375,37.949 24.707,62.02 24.707,80.57 0,11.532 -2.05,20.918 -4.082,30.2 l -0.547,2.441 c -4.57,21.168 -13.847,44.84 -22.402,61.68 2.969,2.648 6.016,5.379 6.016,5.379 0,0 29.043,26.011 29.297,26.269 16.777,15.473 56.035,51.691 101.409,124.52 54.16,86.953 74.82,141.992 79.88,156.793 6.21,18.238 26.5,84.429 26.5,170.406 0,77.375 -5.17,116.57 -14.14,158.105 l -1.64,7.715 c -8.51,40.285 -19.12,90.412 -69.92,171.452 -51.347,81.9 -85.937,124.54 -137.421,169.23 -28.848,23.7 -46.426,33.43 -54.864,38.1 0,0 -4.023,2.3 -4.043,2.32 0,0 -3.457,2.49 -3.476,2.46 0,0 -0.645,1.88 -0.664,1.9 -0.996,3.71 -1.895,10.17 -2.832,17.03 l -1.719,12.04 -0.078,0.37 c -2.891,14.65 -30.469,96.91 -52.891,133.18 -21.504,34.77 -37.363,54.45 -69.297,72.2 -40.195,22.32 -79.394,35.79 -116.504,40.02 -43.808,5.01 -64.961,3.96 -90.078,1.94"
         style="fill:#a99c57;fill-opacity:1;fill-rule:nonzero;stroke:none"
         id="path16" />
      <path
         d="m 665.332,1519.93 c 0,0 -27.617,15.08 -72.187,5.66 -44.571,-9.41 -52.11,-15.07 -63.418,-20.09 -11.289,-5.01 -16.954,-10.66 -23.223,-1.87 -6.27,8.78 -8.789,15.69 -10.059,24.48 -1.25,8.78 -1.25,11.3 -7.519,13.17 -6.289,1.9 -16.953,-0.62 -26.387,-4.39 -9.394,-3.76 -38.281,-16.31 -56.484,-32.64 -18.203,-16.33 -46.465,-56.5 -64.668,-99.83 -18.203,-43.31 -23.242,-77.85 -23.242,-99.83 0,-21.97 -11.915,-21.35 -13.809,-23.23 -1.895,-1.88 -23.223,-14.43 -35.156,-25.11 -11.934,-10.67 -49.61,-48.35 -57.754,-59.02 -8.184,-10.66 -57.774,-74.71 -84.141,-137.5 C 100.918,996.953 94.6484,964.309 89.6094,943.586 84.5898,922.863 75.8008,879.543 83.9648,840.004 c 8.1641,-39.57 18.8482,-60.918 21.3482,-65.938 2.519,-5.019 11.308,-24.484 15.703,-30.753 4.394,-6.282 9.414,-8.797 6.894,-16.329 -2.5,-7.539 -1.875,-16.328 -8.144,-17.586 -6.289,-1.25 -20.3715,1.2 -24.3754,1.61 -3.2226,-0.313 -12.6758,1.535 -12.6758,-8.516 0,-10.039 -1.2695,-48.972 1.25,-69.062 2.5196,-20.09 9.4336,-71.571 33.2812,-133.102 23.848,-61.527 48.34,-113 86.641,-167.008 38.301,-53.988 69.687,-78.461 80.996,-88.511 11.289,-10.047 39.316,-38.559 51.25,-49.848 11.914,-11.313 21.426,-16.512 29.668,-22.871 8.965,-6.93 13.808,-10.149 14.219,-10.309 8.613,-5.679 21.699,-15.41 34.902,-20.34 11.152,-6.269 24.902,-13.14 38.848,-19.082 14.687,-7.218 14.433,-10.027 45.839,-12.539 31.368,-2.519 49.59,-1.89 62.774,1.879 13.183,3.75 25.722,10.039 34.531,13.18 8.789,3.141 15.059,6.281 24.492,5.66 9.414,-0.641 17.578,0.621 18.828,-5.66 1.25,-6.277 1.875,-13.809 -1.894,-20.719 -3.77,-6.91 -13.184,-16.3202 -15.059,-20.0897 -1.875,-3.7695 -7.539,-7.5312 0,-14.4414 7.539,-6.8984 18.828,-7.5273 26.992,-8.1601 8.165,-0.6172 42.696,0.6328 54.629,1.2617 11.914,0.6211 19.707,0.3398 26.621,3.4687 2.559,1.2617 3.34,0.6328 9.922,3.1406 6.914,1.8711 9.903,4.0586 18.067,8.461 8.164,4.3906 33.281,23.2302 55.254,52.0972 21.972,28.891 33.281,45.211 27.011,95.43 -5.664,37.672 -22.617,60.91 -26.386,68.442 -3.77,7.539 -7.539,11.929 -8.789,15.691 -1.25,3.777 -5.645,5.66 3.144,18.84 8.789,13.187 15.078,18.211 30.781,26.371 15.684,8.156 18.828,10.668 30.118,23.226 11.308,12.563 58.398,64.051 75.957,89.153 17.597,25.121 48.984,75.34 61.538,111.758 12.56,36.421 11.31,32.019 13.81,51.488 2.52,19.461 15.06,44.578 16.33,62.781 1.25,18.203 -3.14,20.09 -16.95,19.465 -13.81,-0.625 -18.85,-0.793 -22.619,2.344 -3.223,2.168 -8.789,5.183 -2.5,19.004 6.289,13.816 11.929,25.117 26.989,43.945 15.08,18.836 19.48,53.367 22.62,65.918 3.13,12.559 6.27,34.539 2.5,63.418 -3.77,28.887 -23.85,92.928 -60.273,153.188 -36.406,60.28 -60.254,96.69 -99.824,136.87 -39.551,40.18 -69.688,67.18 -88.516,79.73 -18.848,12.57 -26.367,17.59 -29.512,26.38 -3.144,8.79 -11.074,37.52 -13.183,50.23 -1.25,12.34 -7.539,28.24 -13.184,45.83 -5.664,17.58 -23.242,60.26 -31.387,73.44 -8.183,13.2 -18.203,28.27 -30.781,37.05 -12.539,8.79 -3.125,3.77 -16.328,10.04"
         style="fill:#1c6246;fill-opacity:1;fill-rule:nonzero;stroke:none"
         id="path18" />
      <path
         d="m 546.594,1175.88 c 0,0 16.953,21.98 24.48,21.98 7.539,0 18.828,-3.13 22.598,-8.79 3.769,-5.65 7.539,-9.41 15.078,-22.6 7.52,-13.19 16.953,-40.81 42.051,-81 25.117,-40.17 42.07,-63.4 82.246,-106.716 42.07,-38.93 92.93,-89.785 101.094,-96.066 8.144,-6.282 26.367,-19.461 33.261,-25.743 6.914,-6.277 16.328,-13.191 20.723,-21.972 4.395,-8.797 10.059,-11.297 5.645,-20.723 -4.395,-9.414 -7.52,-11.301 -11.29,-16.328 -3.769,-5.012 -74.726,-71.563 -81.621,-77.852 -6.894,-6.277 -49.609,-38.289 -80.996,-79.726 C 688.477,598.91 662.734,561.859 648.926,539.879 635.117,517.91 621.289,490.289 615.645,479 610,467.68 608.105,461.41 599.316,450.73 c -8.789,-10.679 -10.664,-13.179 -24.472,-15.699 -13.809,-2.511 -28.25,5.02 -32.024,9.418 -3.765,4.403 -33.902,55.25 -64.031,98.582 -30.137,43.321 -52.742,78.477 -102.344,129.957 -49.59,51.489 -71.574,74.719 -95.429,94.797 -23.848,20.098 -37.039,33.289 -40.176,35.789 -3.137,2.524 -6.914,6.906 -5.02,11.926 1.883,5.031 8.782,19.473 17.571,27.004 8.789,7.539 38.297,29.512 47.089,35.789 8.797,6.27 38.297,30.148 60.899,54.617 22.605,24.496 68.434,65.293 104.226,118.03 35.79,52.74 45.196,72.21 52.735,83.51 7.539,11.29 21.348,32.64 28.254,41.43"
         style="fill:#a99c57;fill-opacity:1;fill-rule:nonzero;stroke:none"
         id="path20" />
      <path
         d="m 537.949,1106.82 c 0,0 8.164,18.84 15.059,26.37 6.914,7.54 9.433,15.08 16.328,8.17 6.914,-6.91 11.934,-16.95 17.578,-28.25 5.645,-11.31 22.598,-46.47 52.109,-87.27 29.512,-40.809 48.965,-62.156 87.891,-97.32 38.945,-35.157 86.641,-74.082 96.699,-82.247 10.039,-8.164 23.867,-18.828 28.262,-23.222 4.375,-4.395 6.895,-5.664 3.75,-10.688 -3.125,-5.015 -8.145,-14.441 -23.223,-27.613 -15.078,-13.184 -66.543,-57.766 -66.543,-57.766 -10.058,-8.164 -33.906,-32.644 -48.984,-48.339 -15.059,-15.696 -52.734,-54.618 -70.937,-79.735 -18.204,-25.129 -43.321,-67.82 -49.61,-78.488 -6.269,-10.684 -16.308,-30.774 -20.723,-35.781 -4.394,-5.032 -5.625,-11.93 -10.664,-3.77 -5.019,8.16 -27.617,42.699 -37.675,57.758 -10.039,15.062 -44.571,65.293 -82.246,109.871 -37.657,44.578 -64.043,64.668 -78.477,79.734 -14.434,15.079 -39.551,35.168 -55.879,47.727 -16.309,12.547 -28.867,21.961 -32.637,25.113 -3.769,3.137 -6.289,6.899 -2.519,12.551 3.769,5.645 11.308,13.82 18.203,20.09 6.914,6.289 35.801,25.738 74.102,62.156 38.3,36.414 91.66,97.305 116.132,131.219 24.493,33.91 36.426,52.11 40.821,59.01 4.394,6.91 9.414,11.31 13.183,20.72"
         style="fill:#ffffff;fill-opacity:1;fill-rule:nonzero;stroke:none"
         id="path22" />
      <path
         d="m 533.105,1012.6 c 0,0 -25.734,-15.702 -17.57,-47.737 3.125,-15.054 13.176,-21.968 16.313,-24.468 3.14,-2.52 6.914,-5.032 8.172,0.625 1.257,5.664 1.257,28.261 3.757,33.906 2.512,5.644 8.157,10.664 14.446,7.527 6.281,-3.133 6.906,-6.902 7.531,-10.672 0.633,-3.761 4.391,-38.293 3.766,-46.445 -0.633,-8.176 -2.508,-18.223 1.886,-20.723 4.395,-2.519 20.723,-14.457 25.117,-15.707 4.375,-1.25 8.165,-5.664 10.04,3.137 1.875,8.801 0.625,26.379 0.625,33.898 0,7.547 0,24.5 1.25,29.52 1.269,5.019 9.433,15.07 17.578,11.926 8.164,-3.149 10.058,-6.907 10.683,-11.926 0.625,-5.02 -1.25,-48.973 -1.25,-56.512 0,-7.531 -0.644,-23.222 0.625,-27.621 1.25,-4.39 3.77,-13.18 13.809,-5.015 10.039,8.152 25.117,23.218 30.137,27.617 5.019,4.394 13.808,11.308 18.828,13.816 5.019,2.512 13.808,4.395 16.328,-3.758 2.519,-8.175 0.625,-10.058 -4.395,-16.332 -5.019,-6.289 -36.426,-37.047 -38.301,-41.441 -1.875,-4.395 -6.289,-5.02 -1.25,-11.289 5.02,-6.289 38.301,-40.821 49.59,-50.246 11.309,-9.414 15.078,-14.442 16.953,-18.192 1.875,-3.769 4.395,-14.445 -1.25,-17.582 -5.664,-3.14 -10.683,-2.515 -15.703,-0.633 -5.019,1.883 -12.558,6.907 -16.953,11.301 -4.394,4.395 -9.414,8.164 -13.183,10.664 -3.75,2.52 -5.645,2.52 -6.27,-1.25 -0.644,-3.769 -3.144,-30.129 -6.289,-45.207 -3.125,-15.058 -10.039,-34.531 -20.723,-49.59 -10.664,-15.078 -27.617,-32.019 -43.925,-37.664 -16.329,-5.664 -43.957,-6.289 -57.129,-4.406 -13.196,1.887 -32.649,6.906 -46.465,13.809 -13.82,6.914 -27,22.605 -33.281,28.886 -6.282,6.282 -13.809,17.579 -16.946,27.618 -3.14,10.058 -5.652,20.109 -2.515,23.859 3.14,3.77 9.422,9.422 16.328,5.652 6.89,-3.757 21.344,-20.086 26.367,-25.105 5.019,-5.031 26.363,-23.242 42.691,-29.516 16.321,-6.277 29.516,-7.527 45.832,-5.027 16.329,2.519 34.532,13.191 43.301,24.504 8.809,11.289 18.223,24.472 22.617,47.09 4.395,22.597 3.77,28.867 -2.519,43.308 -6.27,14.434 -7.539,14.434 -10.664,16.953 -3.145,2.508 -6.914,2.508 -8.164,-1.894 -1.27,-4.383 -1.27,-33.27 -1.875,-42.051 -0.645,-8.801 1.25,-23.867 0,-31.394 -1.27,-7.54 0,-13.184 -7.539,-15.704 -7.539,-2.511 -10.039,0 -13.203,4.403 -3.125,4.386 -3.125,10.031 -3.125,14.433 0,4.395 -1.25,50.86 -0.625,60.285 0.625,9.403 0,28.243 0,35.145 0,6.906 -0.625,11.301 -5.04,15.703 -4.375,4.395 -15.058,11.301 -18.828,12.551 -3.769,1.269 -10.652,4.394 -10.652,-3.77 0,-8.156 -0.637,-53.359 -0.637,-61.523 0,-8.156 1.262,-43.32 0.637,-52.746 -0.637,-9.402 -1.898,-32.012 -3.156,-37.039 -1.25,-5.012 -0.625,-13.176 -9.414,-12.551 -8.789,0.625 -12.559,6.281 -14.434,10.676 -1.887,4.394 -2.512,13.183 -2.512,21.347 0,8.165 0.625,97.313 0.625,107.977 v 34.543 c 0,8.152 2.512,12.559 -3.765,18.824 -6.282,6.289 -22.602,20.102 -30.766,28.891 -8.16,8.789 -23.855,23.23 -27.613,32.637 -3.781,9.429 -6.289,27.011 -3.781,42.07 2.519,15.065 9.414,38.925 21.984,50.235 12.547,11.3 33.269,21.97 50.848,21.97 17.578,0 38.3,-2.52 50.839,-10.05 12.579,-7.53 18.223,-13.17 19.473,-22.6 1.27,-9.41 1.27,-16.96 -6.269,-17.58 -7.539,-0.63 -18.223,4.39 -26.387,7.54 -8.164,3.14 -15.047,6.27 -29.492,4.4 -14.446,-1.89 -17.578,-1.26 -25.118,-6.28"
         style="fill:#df2634;fill-opacity:1;fill-rule:nonzero;stroke:none"
         id="path24" />
      <path
         d="m 442.996,932.285 c 0,0 -30.137,-32.644 -42.691,-60.269 -12.563,-27.618 -18.215,-52.11 -20.09,-64.043 -1.887,-11.926 -1.887,-43.946 -1.262,-47.715 0.637,-3.77 0,-6.906 3.137,-8.164 3.144,-1.262 25.117,-8.156 28.887,-6.906 3.757,1.25 3.757,0.625 3.757,6.281 0,5.652 -1.25,21.347 -2.5,27.617 -1.257,6.289 -0.632,9.422 -0.632,11.941 0,2.5 1.882,7.532 10.039,8.157 8.164,0.625 29.511,-3.137 34.543,-5.024 5.007,-1.883 10.027,-1.25 13.171,-13.805 3.145,-12.57 7.54,-32.023 9.415,-37.675 1.894,-5.649 6.289,-15.071 13.808,-17.59 7.539,-2.5 15.703,-3.762 20.098,-1.875 4.394,1.875 9.414,3.144 9.414,8.176 0,5.015 -6.27,16.316 -8.789,25.73 -2.5,9.414 -18.203,59.641 -22.598,95.43 -4.394,35.793 -6.914,58.39 -4.394,69.687 2.519,11.297 3.769,15.071 0.625,21.348 -3.145,6.277 -8.789,10.051 -20.723,3.769 -11.926,-6.281 -8.777,-3.144 -23.215,-15.07"
         style="fill:#df2634;fill-opacity:1;fill-rule:nonzero;stroke:none"
         id="path26" />
      <path
         d="m 423.352,840.754 c 0,0 -3.149,-6.902 2.507,-8.789 5.657,-1.887 14.446,-6.277 17.579,-6.277 3.144,0 5.644,-2.52 6.914,4.39 1.25,6.906 3.769,48.344 2.519,53.371 -1.269,5.012 -1.269,6.906 -5.664,2.5 -4.394,-4.383 -9.414,-3.758 -23.855,-45.195"
         style="fill:#ffffff;fill-opacity:1;fill-rule:nonzero;stroke:none"
         id="path28" />
    </g>
  </g>
</svg>
