<?xml version="1.0" encoding="UTF-8" standalone="no"?>
<!-- Created with Inkscape (http://www.inkscape.org/) -->

<svg
   version="1.1"
   id="svg2"
   width="376.67999"
   height="376.67999"
   viewBox="0 0 376.67999 376.67999"
   sodipodi:docname="Trelleborgs_FF (1).eps"
   xmlns:inkscape="http://www.inkscape.org/namespaces/inkscape"
   xmlns:sodipodi="http://sodipodi.sourceforge.net/DTD/sodipodi-0.dtd"
   xmlns="http://www.w3.org/2000/svg"
   xmlns:svg="http://www.w3.org/2000/svg">
  <defs
     id="defs6" />
  <sodipodi:namedview
     id="namedview4"
     pagecolor="#ffffff"
     bordercolor="#000000"
     borderopacity="0.25"
     inkscape:showpageshadow="2"
     inkscape:pageopacity="0.0"
     inkscape:pagecheckerboard="0"
     inkscape:deskcolor="#d1d1d1" />
  <g
     id="g8"
     inkscape:groupmode="layer"
     inkscape:label="ink_ext_XXXXXX"
     transform="matrix(1.3333333,0,0,-1.3333333,0,376.68)">
    <g
       id="g10"
       transform="scale(0.1)">
      <path
         d="M 2804.98,1411.78 C 2804.98,645.32 2183.65,24 1417.2,24 650.746,24 29.4219,645.32 29.4219,1411.78 c 0,766.45 621.3241,1387.78 1387.7781,1387.78 766.45,0 1387.78,-621.33 1387.78,-1387.78"
         style="fill:#ffffff;fill-opacity:1;fill-rule:evenodd;stroke:none"
         id="path12" />
      <path
         d="m 1655.83,76.4883 c 35.93,96.7817 155.45,444.9997 155.45,793.8127 0,331.999 -56.18,646.439 -75.68,745.589 49.07,0.6 424.42,5.24 549.3,6.79 l 200.57,-547.73 282.85,261.62 C 2733.3,704.941 2264.65,187.078 1655.83,76.4883 Z m -406.79,-12 c -12.1,32.5312 -55.12,151.3127 -96.16,300.1917 70.11,-4.371 200.28,-11.93 259.68,-11.93 58.97,0 198.2,11.109 275.53,17.691 -43.6,-174.73 -92.02,-297.4215 -92.9,-299.6402 l 7.15,-2.8516 c -62.04,-8.7187 -125.39,-13.3203 -189.78,-13.3203 -55.34,0 -109.9,3.4024 -163.52,9.8594 z M 56.3008,1345.55 323.984,1081.3 l 201.2,533.96 c 128.742,-1.52 528.586,-6.23 578.796,-6.81 -22.24,-105.64 -90.12,-451.55 -90.12,-738.149 0,-291.641 130.1,-676.27 173.68,-796.9221 C 566.969,177.32 87.6563,703.539 56.3008,1345.55 Z M 1675.57,1636.94 c 0.8,-3.69 81.07,-373.33 81.07,-766.639 0,-154.36 -24.95,-310.75 -55.2,-443.871 -70.73,-6.11 -227.8,-19.039 -288.88,-19.039 -62.68,0 -212.09,9.019 -274.51,12.968 -37.4,145.039 -69.55,310.231 -69.55,449.942 0,334.579 94.91,754.789 95.88,758.989 l 7.51,33 c 0,0 -605.742,7.13 -644.492,7.59 -7.644,28.58 -69.125,258.06 -94.808,353.99 107.508,48.62 539.359,230.41 987.4,230.41 454.17,0 862.79,-169.5 955.82,-210.89 -9.56,-37.49 -84.4,-331.49 -93.22,-366.11 -39.03,-0.47 -614.21,-7.58 -614.21,-7.58 l 7.19,-32.76 z M 541.563,2453.46 c -1.657,-21.87 1.972,-45.2 15.917,-67.51 45.856,-73.36 119.989,-65 123.122,-64.61 l 2.836,0.35 2.71,0.92 c 3.825,1.34 386.112,132.22 726.412,132.22 340.02,0 736.76,-145.38 740.73,-146.85 l 1.74,-0.65 1.83,-0.4 c 3.42,-0.77 84.67,-17.84 139.18,54.84 15.74,21 23.8,40.11 27.46,56.95 274.26,-248.54 446.84,-607.35 446.96,-1005.73 -33.03,-30.56 -217.65,-201.33 -261.86,-242.23 -22.31,60.89 -155.06,423.37 -176.14,480.91 l 107.39,421.97 -20.04,9.72 c -4.66,2.25 -472.27,225.55 -999.82,225.55 -478.17,0 -937.295,-201.59 -1022.92,-241.23 -9.91,-4.58 -19.472,-9.54 -29.109,-14.74 L 477.707,1644.21 C 456.156,1587.01 325.691,1240.78 302.512,1179.28 260.238,1221 93.8164,1385.3 54.8008,1423.81 c 3.3828,413 192.0152,782.6 486.7622,1029.65 z m 82.421,63.94 c 222.457,159.23 494.756,253.06 788.576,253.06 326.08,0 625.68,-115.57 860.06,-307.89 l -5.44,-4.2 c 1.61,-2.37 14.9,-24.16 -14.84,-63.82 -31.36,-41.82 -76.36,-35.53 -82.57,-34.42 -31.53,11.55 -414.59,149.33 -757.21,149.33 -338.5,0 -703.119,-121.18 -740.626,-133.96 -8.067,-0.34 -43.75,0.43 -68.118,39.43 -26.308,42.08 20.028,101.62 20.493,102.21 l -0.325,0.26 z m 788.576,307.71 C 633.68,2825.11 0,2191.42 0,1412.55 0,633.648 633.68,0 1412.56,0 c 778.88,0 1412.56,633.648 1412.56,1412.55 0,778.87 -633.68,1412.56 -1412.56,1412.56 v 0"
         style="fill:#1a67bb;fill-opacity:1;fill-rule:evenodd;stroke:none"
         id="path14" />
      <path
         d="m 1175.14,659.969 c -15.16,78.5 -26.3,157.281 -26.92,237.39 1.92,207.631 33.97,415.151 75.46,618.311 10.52,50.39 26.52,99.42 34.26,150.22 5.21,34.2 -14.57,62.54 -49.09,63.98 -207.21,8.67 -414.748,4.53 -622.135,6.85 -19.703,69.76 -39.414,139.54 -59.129,209.33 222.32,87.31 455.66,147.13 692.904,174.69 53.23,5.19 105.9,8.73 159.37,10.59 94.35,1.13 186.33,-3.87 280.13,-14.1 l 76.51,-10.3 c 186.58,-29.71 368.08,-76.87 544.99,-143.28 -19.7,-73.31 -39.36,-146.65 -59.05,-219.93 -197.74,-2.3 -396,7.99 -593.16,-6.85 -39.32,-2.95 -51.87,-39.24 -45.06,-70.6 9.66,-44.59 20.24,-88.83 28.9,-133.79 39.28,-209.7 62.39,-421.7 63.8,-635.121 -0.61,-116.531 -15.82,-232.371 -40.25,-346.199 -58.57,-4.519 -117.18,-8.801 -175.82,-11.672 -20,-0.898 -39.91,-1.609 -59.91,-1.367 -66.81,1.141 -133.71,4.891 -200.4,8.699 -9.35,37.559 -17.81,75.219 -25.4,113.149 v 0"
         style="fill:#1a67bb;fill-opacity:1;fill-rule:evenodd;stroke:none"
         id="path16" />
      <path
         d="m 2078.46,2580.94 c -14.2,4.9 -29.91,-2.05 -35.08,-15.52 l -11.53,-30.08 c -28.46,10.95 -91.24,34 -173.47,57.68 l 14.5,35.76 c 5.43,13.38 -1.61,28.4 -15.73,33.53 -14.11,5.16 -29.94,-1.52 -35.37,-14.9 l -16.19,-39.92 c -63.62,16.65 -135.36,32.31 -209.9,42.94 l 2.84,37.31 c 1.06,14.3 -10.28,26.72 -25.35,27.74 -15.09,1.03 -28.19,-9.74 -29.24,-24.04 l -2.58,-34.28 c -41.24,4.31 -82.87,6.89 -124.03,6.89 -40.72,0 -81.67,-2.75 -122.18,-7.12 l -4.47,43.73 c -1.45,14.29 -14.82,24.73 -29.87,23.35 -15.05,-1.38 -26.07,-14.06 -24.62,-28.33 l 4.67,-45.67 c -70.19,-10.37 -137.75,-25.35 -198.02,-41.58 l -10.72,44.08 c -3.4,13.97 -18.1,22.68 -32.827,19.45 -14.73,-3.21 -23.91,-17.16 -20.523,-31.12 l 11.515,-47.33 c -81.23,-24.2 -144.172,-48.25 -174.937,-60.66 l -19.926,46.38 c -5.703,13.26 -21.676,19.64 -35.676,14.22 -14.004,-5.4 -20.73,-20.54 -15.019,-33.81 l 49.793,-115.88 c 5.695,-13.29 21.671,-19.66 35.675,-14.25 13.996,5.4 20.719,20.56 15.012,33.83 l -9.172,21.36 c 28.606,11.44 88.828,34.35 166.695,57.69 l 3.19,-13.14 c 3.41,-13.97 18.1,-22.66 32.84,-19.46 14.73,3.24 23.91,17.16 20.51,31.14 l -4.02,16.47 c 58.29,15.8 123.49,30.45 190.9,40.66 l 3.62,-35.42 c 1.46,-14.27 14.85,-24.72 29.88,-23.34 15.05,1.38 26.07,14.07 24.62,28.33 l -3.83,37.53 c 38.91,4.27 78.14,6.98 116.89,6.98 39.65,0 80,-2.57 120.11,-6.91 l -2.57,-33.95 c -1.08,-14.31 10.28,-26.72 25.35,-27.74 15.07,-1.03 28.19,9.73 29.24,24.04 l 2.32,30.72 c 68.31,-10.03 134.56,-24.46 193.91,-39.85 l -9.18,-22.62 c -5.42,-13.38 1.62,-28.41 15.73,-33.55 14.11,-5.15 29.95,1.53 35.37,14.9 l 10.92,26.88 c 83.99,-23.97 148.05,-47.44 174.58,-57.59 l -5.94,-15.47 c -5.16,-13.47 2.16,-28.36 16.38,-33.27 14.2,-4.89 29.9,2.06 35.07,15.53 l 36.21,94.42 c 5.17,13.47 -2.16,28.36 -16.37,33.26 v 0"
         style="fill:#1a67bb;fill-opacity:1;fill-rule:evenodd;stroke:none"
         id="path18" />
      <path
         d="m 916.816,1377.24 v 77.25 H 595.453 V 905.141 h 86.012 V 1128.32 H 857.98 v 81.54 H 681.465 v 167.38 h 235.351 v 0"
         style="fill:#1a67bb;fill-opacity:1;fill-rule:evenodd;stroke:none"
         id="path20" />
      <path
         d="m 2253.21,1361.78 v 77.26 H 1931.84 V 889.699 h 85.98 v 223.161 h 176.55 v 81.55 h -176.55 v 167.37 h 235.39 v 0"
         style="fill:#1a67bb;fill-opacity:1;fill-rule:evenodd;stroke:none"
         id="path22" />
    </g>
  </g>
</svg>
