<?xml version="1.0" encoding="UTF-8" standalone="no"?>
<!-- Created with Inkscape (http://www.inkscape.org/) -->

<svg
   version="1.1"
   id="svg2"
   width="181.42667"
   height="184.17332"
   viewBox="0 0 181.42667 184.17332"
   sodipodi:docname="Utsiktens_BK (1).eps"
   xmlns:inkscape="http://www.inkscape.org/namespaces/inkscape"
   xmlns:sodipodi="http://sodipodi.sourceforge.net/DTD/sodipodi-0.dtd"
   xmlns="http://www.w3.org/2000/svg"
   xmlns:svg="http://www.w3.org/2000/svg">
  <defs
     id="defs6" />
  <sodipodi:namedview
     id="namedview4"
     pagecolor="#ffffff"
     bordercolor="#000000"
     borderopacity="0.25"
     inkscape:showpageshadow="2"
     inkscape:pageopacity="0.0"
     inkscape:pagecheckerboard="0"
     inkscape:deskcolor="#d1d1d1" />
  <g
     id="g8"
     inkscape:groupmode="layer"
     inkscape:label="ink_ext_XXXXXX"
     transform="matrix(1.3333333,0,0,-1.3333333,0,184.17333)">
    <g
       id="g10"
       transform="scale(0.1)">
      <path
         d="m 1182.99,422.891 c -30.35,3.23 -14.57,9.304 -8.09,14.972 2.43,-2.023 4.85,-4.457 7.28,-6.886 5.67,3.64 10.93,7.296 16.19,10.929 -11.73,5.262 -18.21,9.715 -13.77,12.949 12.96,2.833 29.96,12.149 46.96,21.051 71.64,18.215 120.6,63.543 129.1,156.617 -63.54,-21.843 -116.15,-55.035 -129.1,-127.484 -8.1,-10.516 -17.81,-20.234 -30.35,-26.711 -2.84,10.93 1.21,16.992 6.06,21.86 12.95,1.21 15.38,5.261 7.7,12.148 1.21,4.441 2.42,8.894 4.05,12.937 37.23,34.411 49.77,68.805 16.58,50.188 16.6,20.242 12.96,20.242 -10.52,0 -6.87,1.219 5.67,11.34 21.05,23.074 61.52,6.875 102.39,43.301 113.32,122.621 -14.97,2.028 -29.95,-0.804 -44.92,-6.879 27.52,27.524 35.61,67.594 34.8,113.325 -21.04,-5.668 -39.26,-16.594 -54.64,-32.782 15.79,36.418 25.1,65.563 20.65,77.703 -14.17,-11.332 -26.31,-18.21 -34.41,-15.378 38.45,57.468 35.62,101.992 21.46,142.865 -22.27,-21.045 -41.69,-43.709 -53.83,-68.803 -11.34,-12.547 -18.21,-17.402 -21.46,-15.379 28.33,36.422 40.07,86.212 22.27,161.082 2.02,16.59 -5.26,15.78 -21.45,-2.03 -67.59,-50.18 -40.88,-71.63 -61.53,-107.243 -2.83,32.773 12.15,55.443 -8.89,98.743 -14.17,28.74 -48.57,46.14 -67.18,69.21 -21.46,-49.38 -8.51,-97.13 28.33,-144.481 -2.84,-21.05 4.04,-36.019 21.03,-50.187 17,-13.758 31.17,-12.953 42.09,-50.188 -31.56,40.879 -64.34,55.45 -97.94,51.809 23.48,-95.922 90.66,-84.184 109.28,-105.234 -17,6.48 -31.57,10.523 -28.33,-1.211 12.55,-4.047 10.53,-18.211 25.9,-36.418 7.29,-8.907 17.4,-14.578 25.91,-21.457 0.4,-10.926 0.8,-21.852 1.62,-32.782 -24.29,57.473 -57.88,77.301 -94.31,85.797 7.29,-41.683 23.88,-77.699 55.45,-105.629 0,-8.906 0,-17.804 0,-26.308 -8.91,10.527 -18.62,17.402 -29.54,20.242 -13.77,-14.973 -9.32,-47.758 7.69,-93.09 -27.92,-23.875 -26.72,-104.012 10.52,-148.933 -2.43,-7.684 -6.07,-15.782 -10.52,-23.477 -6.88,31.172 -9.31,32.383 -7.69,2.832 -4.05,-4.441 -8.1,-6.062 -12.15,-4.441 11.74,62.324 1.21,78.504 -15.38,82.144 -21.45,-21.844 -31.56,-53.418 -25.09,-99.547 -7.28,2.02 -10.93,12.539 -10.52,31.16 -44.12,-39.668 -54.23,-93.89 -51.8,-153.793 -12.15,-1.218 -24.29,-6.878 -36.429,-14.168 29.139,36.829 31.159,68.399 29.949,99.563 -35.21,-11.738 -58.288,-40.074 -55.046,-106.441 -13.348,-7.282 -26.707,-16.18 -40.059,-16.993 13.75,38.039 52.199,61.922 41.68,114.129 -18.211,-3.246 -38.047,-19.429 -58.281,-51 0.812,28.332 -7.274,42.492 -34.395,23.071 -28.738,-21.047 -46.543,-49.379 -50.594,-85.387 -2.023,10.109 -20.636,25.887 -31.164,27.519 -5.664,12.539 -14.57,23.868 -25.086,33.989 26.309,11.34 51.395,19.832 68.399,23.07 181.306,36.023 237.156,83.777 281.676,207.617 45.73,126.27 -33.59,273.184 -72.85,402.692 -22.67,74.061 -16.59,98.751 0,138.821 23.48,57.07 56.26,101.59 101.59,145.3 -152.99,94.3 -301.92,127.48 -473.924,127.07 -172.008,0.41 -320.945,-32.77 -473.926,-127.07 45.328,-43.71 78.11,-88.23 101.582,-145.3 16.594,-40.07 22.668,-64.76 0,-138.821 C 268.734,840.551 189.41,693.637 235.141,567.367 279.664,443.527 335.512,395.773 516.824,359.75 c 29.145,-5.672 82.973,-26.711 123.039,-50.191 -11.332,-20.629 -18.215,-42.09 -14.976,-64.75 -9.711,-47.75 -14.164,-26.297 -17.403,5.261 4.047,25.5 -10.925,51.809 -38.851,79.321 -37.637,38.847 -47.758,22.269 -30.356,-50.18 -3.238,-1.211 -6.07,-2.832 -9.308,-4.039 -4.047,36.008 -21.856,64.34 -50.59,85.387 -26.707,19.421 -35.211,5.261 -34.399,-23.071 -20.234,31.571 -39.664,47.754 -58.281,51 -10.523,-52.207 27.922,-76.09 41.688,-114.129 -13.36,0.813 -26.711,9.711 -40.067,16.993 3.239,66.367 -19.836,94.703 -55.047,106.441 -1.214,-31.164 0.813,-62.734 29.95,-99.563 -12.141,7.29 -24.278,12.95 -36.422,14.168 2.426,59.903 -7.692,114.125 -51.801,153.793 0.398,-18.621 -3.242,-29.14 -10.527,-31.16 6.472,46.129 -3.645,77.703 -25.09,99.547 -16.598,-3.64 -27.117,-19.82 -15.379,-82.144 -4.051,-1.621 -8.098,0 -12.145,4.441 1.621,29.551 -0.804,28.34 -7.691,-2.832 -4.445,7.695 -8.09,15.793 -10.523,23.477 37.238,44.921 38.453,125.058 10.523,148.933 16.996,45.332 21.449,78.117 7.691,93.09 -10.925,-2.84 -20.64,-9.715 -29.543,-20.242 0,8.504 0,17.402 0,26.308 31.571,27.93 48.161,63.946 55.446,105.629 -36.426,-8.496 -70.02,-28.324 -94.297,-85.797 0.805,10.93 1.211,21.856 1.617,32.782 8.5,6.879 18.613,12.55 25.902,21.457 15.375,18.207 13.356,32.371 25.899,36.418 3.242,11.734 -11.328,7.691 -28.328,1.211 18.617,21.05 85.8,9.312 109.277,105.234 -33.594,3.641 -66.379,-10.93 -97.945,-51.809 10.926,37.235 25.093,36.43 42.09,50.188 16.996,14.168 23.882,29.137 21.05,50.187 36.825,47.351 50.18,95.101 28.328,144.481 -18.617,-23.07 -53.019,-40.47 -67.187,-69.21 -21.043,-43.3 -6.066,-65.97 -8.898,-98.743 -20.641,35.613 6.066,57.063 -61.52,107.243 -16.187,17.81 -23.477,18.62 -21.449,2.03 -17.8088,-74.87 -6.071,-124.66 22.258,-161.082 -3.239,-2.023 -10.118,2.832 -21.45,15.379 -12.1442,25.094 -31.566,47.758 -53.8277,68.803 -14.1641,-40.873 -16.9961,-85.397 21.4492,-142.865 -8.0938,-2.832 -20.2344,4.046 -34.4024,15.378 -4.4492,-12.14 4.8555,-41.285 20.6446,-77.703 -15.3829,16.188 -33.5938,27.114 -54.6407,32.782 -0.8086,-45.731 7.2852,-85.801 34.8047,-113.325 -14.9765,6.075 -29.9453,8.907 -44.92186,6.879 C 12.1445,641.836 53.0234,605.41 114.535,598.535 c 15.383,-11.734 27.93,-21.855 21.047,-23.074 -23.473,20.242 -27.113,20.242 -10.523,0 -33.184,18.617 -20.641,-15.777 16.597,-50.188 1.614,-4.043 2.832,-8.496 4.043,-12.937 -7.687,-6.887 -5.261,-10.938 7.692,-12.148 4.855,-4.868 8.906,-10.93 6.074,-21.86 -12.551,6.477 -21.86,16.195 -30.36,26.711 C 116.156,577.488 63.543,610.68 0,632.523 8.5,539.449 57.4688,494.121 129.105,475.906 c 17,-8.902 34,-18.218 46.95,-21.051 4.453,-3.234 -2.028,-7.687 -13.758,-12.949 5.258,-3.633 10.519,-7.289 16.183,-10.929 2.434,2.429 4.86,4.863 7.286,6.886 6.476,-5.668 22.261,-11.742 -8.094,-14.972 C 121.414,471.445 76.0898,471.055 34,456.875 c 44.1094,-59.891 95.918,-85.395 156.625,-68.387 18.207,-8.508 37.637,-17.41 39.258,-13.758 21.449,-22.671 42.894,-44.519 68.394,-61.519 -73.254,45.73 -128.699,48.16 -177.672,35.211 38.047,-51.813 84.184,-89.043 167.149,-57.07 23.07,-2.012 41.285,-0.813 48.57,7.687 10.117,-3.641 16.188,-7.687 18.211,-12.949 -32.781,14.57 -74.062,-32.371 -133.152,-42.91 62.726,-24.27 125.867,-61.508 157.433,25.91 5.266,-8.09 11.743,-13.762 19.02,-15.781 -28.328,-33.59 -38.035,-60.707 -7.684,-73.661 6.473,25.09 17.403,44.922 38.039,53.832 -13.351,-91.878 12.145,-148.9409 55.454,-190.2183 9.71,-11.3398 17.402,-10.1211 25.085,-7.2812 23.071,6.8711 41.286,16.9883 54.637,30.3515 16.598,-2.4336 31.168,-18.2109 42.496,-53.832 4.86,-16.58984 14.977,-16.19141 18.215,-1.6211 6.481,29.9531 21.043,48.5703 30.356,85 9.304,-19.0273 24.687,-42.5 24.687,-44.5195 0,-8.9102 25.902,10.5195 38.852,23.0625 7.687,-1.2227 15.382,-2.8321 23.468,-4.4531 14.981,17 29.95,34.0002 40.879,51.0002 7.285,6.472 7.696,12.14 0.809,16.59 -28.328,8.91 -55.438,18.613 -79.727,29.953 0,1.617 0,3.226 0,5.258 13.352,2.031 25.5,5.261 36.828,9.312 9.305,-15.383 16.192,-13.363 14.168,6.469 1.211,0.808 2.832,1.219 4.043,2.027 5.266,-2.43 8.497,-1.219 21.856,0.813 23.879,-22.672 53.828,-84.993 136.387,-53.02 -22.657,13.758 -24.688,33.988 -44.922,47.75 11.738,0.399 27.109,-7.281 24.277,14.168 54.649,-44.519 89.043,-27.93 129.921,-20.23 -22.25,17.8 -36.823,29.14 -65.155,62.722 7.285,2.028 15.781,18.219 21.047,26.309 31.558,-87.418 94.698,-50.18 157.428,-25.91 -59.09,10.539 -100.37,57.48 -133.15,42.91 2.02,5.262 8.09,9.308 18.21,12.949 7.29,-8.5 25.5,-9.699 48.58,-7.687 82.95,-31.973 129.1,5.257 167.13,57.07 -48.96,12.949 -104.41,10.519 -177.67,-35.211 25.51,17 46.95,38.848 68.4,61.519 1.63,-3.652 21.04,5.25 39.26,13.758 60.71,-17.008 112.51,8.496 156.63,68.387 -42.09,14.18 -87.42,14.57 -143.68,-33.984"
         style="fill:#ffffff;fill-opacity:1;fill-rule:nonzero;stroke:none"
         id="path12" />
      <path
         d="m 1198.77,392.531 c -17.8,1.207 -18.21,4.453 -0.8,9.715 12.14,0 25.08,4.043 38.85,12.149 9.31,8.898 8.1,10.918 -2.83,6.464 -12.95,-7.683 -24.69,-10.925 -36.02,-12.136 -11.33,-1.621 -12.14,1.211 -3.24,8.906 41.28,33.992 76.49,44.519 106.04,31.16 -27.12,-37.637 -61.93,-54.238 -102,-56.258 z m -54.22,37.645 c -1.22,-5.266 -13.77,-15.781 -12.95,-10.528 1.21,7.688 3.23,20.645 6.06,27.922 2.02,5.672 8.1,-11.332 6.89,-17.394 z m -25.1,8.097 c -1.61,2.422 -3.64,4.442 -5.26,6.465 1.22,9.715 1.62,17.41 -7.69,9.715 -1.62,34.406 2.83,58.281 16.19,67.188 13.76,-19.434 7.29,-50.196 -3.24,-83.368 z m -31.16,-83.785 c 8.9,13.75 13.36,33.188 14.17,56.254 6.07,-4.453 10.51,-14.16 12.54,-29.129 -6.88,-12.554 -15.38,-22.672 -26.71,-27.125 z m -17.41,12.141 c 2.04,6.48 0.4,23.066 -3.63,19.426 -2.84,-2.434 -3.24,-9.703 -4.46,-19.426 -10.52,-31.16 -16.59,-31.57 -17.8,-0.809 6.06,32.785 16.99,58.684 39.25,69.211 18.22,-7.289 12.55,-33.183 -4.45,-68.402 -17,-25.899 -17,-25.899 -8.91,0 z m 28.74,-57.879 c 25.49,3.648 25.9,5.262 0.8,4.859 -13.75,-4.859 -12.94,-1.621 2.44,9.711 39.25,21.461 76.08,28.34 109.67,14.578 -30.35,-33.187 -68.38,-48.16 -116.15,-40.07 -17.8,2.422 -16.59,6.07 3.24,10.922 z m 0.8,-67.578 c -60.29,-19.031 -84.17,-10.531 -102.787,23.879 35.207,22.25 67.177,-19.43 102.787,-23.879 z M 993.59,318.07 c 5.664,16.18 3.633,17.801 -5.676,4.442 -4.043,-5.66 -4.851,-3.633 -2.43,5.668 5.274,26.308 18.226,44.929 36.836,57.062 3.24,-26.301 -3.23,-49.371 -19.83,-69.191 -6.478,-6.891 -16.595,-21.051 -8.9,2.019 z M 955.133,252.5 c -5.266,0 -9.309,2.02 -9.309,4.051 0,2.418 4.043,4.449 9.309,4.449 4.863,0 8.906,-2.031 8.906,-4.449 0,-2.031 -4.043,-4.051 -8.906,-4.051 z m 38.047,-65.57 c -32.785,-7.68 -31.164,5.261 -46.543,7.289 -17.813,2.84 -34.805,6.883 -46.946,16.59 -17.812,12.961 -18.211,16.191 -0.82,9.722 23.078,-2.019 23.887,1.207 2.844,9.301 -17.813,6.477 -17.402,9.309 2.019,8.906 49.375,-5.66 74.875,-25.5 89.446,-51.808 z m -121.817,33.191 c 8.094,0 12.539,-5.262 13.758,-15.781 z m -15.781,-17.812 c 5.664,2.429 8.496,7.703 8.895,15.8 6.886,-7.3 13.351,-14.578 19.836,-21.871 -9.719,-5.25 -19.426,1.621 -28.731,6.071 z m 35.613,-58.278 c -29.148,-12.14 -55.859,2.028 -81.355,34.41 -17.805,16.989 -14.973,18.618 7.695,4.039 22.254,-15.781 25.086,-14.57 8.895,3.239 -14.16,12.543 -8.895,15.383 15.781,8.5 22.266,-15.379 42.5,-31.16 48.984,-50.188 z m -96.738,85.399 c 0,2.429 2.844,4.449 6.074,4.449 3.235,0 6.067,-2.02 6.067,-4.449 0,-2.828 -2.832,-4.86 -6.067,-4.86 -3.23,0 -6.074,2.032 -6.074,4.86 z m -14.969,-1.621 c -42.902,-35.618 -62.336,-25.09 -93.89,-37.629 0,12.539 -2.43,23.871 -17.004,28.332 2.027,7.679 -1.617,10.109 -11.735,8.09 -9.304,0 -10.117,3.23 -2.425,9.707 29.14,26.312 67.582,69.211 67.984,102.39 0,13.762 0.809,19.02 8.906,14.981 16.59,-9.309 46.953,-31.969 54.227,-51.801 10.129,-26.707 16.203,-54.641 -6.063,-74.07 z m -74.465,-80.938 c -2.839,4.449 0,6.867 7.286,2.84 20.636,-10.531 42.089,-7.699 61.914,-17.82 9.308,-4.051 -2.832,-17.813 -12.547,-13.762 -6.067,1.633 -7.688,-1.207 -5.664,-7.68 1.218,-4.051 -1.211,-8.91 -6.477,-15.3787 C 742.66,80.8984 731.734,79.6797 716.754,92.2305 699.352,104.379 698.141,101.941 712.711,84.5391 704.215,82.1094 696.52,76.4492 688.43,72 c -23.473,19.0195 -27.117,39.66 -25.5,61.52 4.859,11.718 9.715,11.718 14.164,0 7.285,-10.122 16.183,-18.231 26.711,-24.29 8.093,-1.621 10.515,0.809 6.472,6.879 -10.925,6.481 -20.636,14.161 -29.129,23.071 -6.074,10.929 5.258,18.609 10.516,8.101 4.856,-6.89 19.426,-16.199 13.359,-0.41 z m -61.113,22.66 c 3.645,13.758 -1.621,13.36 -15.379,-1.211 -19.836,-8.511 -23.07,17.801 6.879,21.039 4.86,-7.277 11.332,-8.898 20.235,-4.449 22.668,13.352 22.261,0.809 23.476,-10.531 -2.027,-16.988 -6.879,-21.438 -14.57,-12.93 -6.879,2.832 -21.043,-1.64 -20.641,8.082 z M 622.457,37.5898 c -4.043,-12.1406 -8.094,-12.9414 -12.141,-2.0195 -2.425,22.6602 -23.066,40.0586 -67.992,50.5899 -15.375,4.0507 -15.375,8.9101 0.406,14.5698 31.567,13.758 53.829,34.809 73.661,57.872 2.023,-6.872 4.855,-10.922 8.496,-12.133 -6.879,-20.637 -10.524,-34.809 9.715,-4.457 7.285,-7.684 12.546,-4.852 15.785,7.699 0,-38.051 -10.524,-75.2891 -27.93,-112.1212 z M 517.23,55 c -11.332,-8.9102 -26.308,-5.6602 -36.425,4.0391 -44.922,39.2617 -44.11,81.7499 -33.992,125.0629 9.714,-3.243 19.828,-4.454 29.542,-3.641 2.833,3.23 3.239,5.66 2.024,7.687 -63.137,22.262 -45.328,57.883 -6.477,59.903 14.168,2.019 30.766,0.41 41.688,-4.051 8.094,-4.051 12.137,-10.52 14.973,-11.73 2.832,-3.25 16.187,-6.481 28.332,-14.161 17.808,-10.937 33.593,-27.121 11.332,-26.718 -17.805,2.828 -35.614,1.211 -53.829,-2.84 -8.5,-3.231 -8.093,-6.071 0.813,-8.09 44.109,1.211 67.586,-2.832 70.418,-12.141 2.023,-10.121 -14.164,-17 -38.852,-21.851 -13.355,-3.649 -13.355,-5.27 0,-5.27 14.977,-1.211 37.641,9.711 44.516,6.082 C 573.484,128.25 550.422,114.078 524.516,101.539 506.305,93.0508 526.543,83.332 552.848,73.1992 537.473,66.332 525.727,61.0586 517.23,55 Z m -94.296,246.879 c -12.547,17 -21.45,38.851 -27.118,65.152 17.805,2.028 31.571,-14.972 41.688,-44.922 6.883,-21.05 5.664,-24.281 -4.859,-10.121 -12.141,15.793 -13.758,14.16 -4.856,-5.258 11.738,-26.3 10.121,-27.929 -4.855,-4.851 z m 27.519,12.531 c 11.738,-21.84 23.07,-39.648 33.594,-43.301 -10.524,-8.89 -23.07,-6.058 -36.02,-1.609 3.239,12.129 4.047,27.109 2.426,44.91 z m 10.524,37.25 c 8.093,-25.101 10.117,-24.699 6.472,0.801 18.621,-6.461 32.785,-22.66 39.664,-54.633 2.43,-17.808 -0.808,-19.828 -8.898,-6.879 -4.051,6.879 -7.692,14.172 -11.336,21.039 -8.094,-8.09 -15.785,-12.136 -23.875,8.102 -4.859,13.359 -10.93,27.519 -2.027,31.57 z m 87.828,-31.57 c 6.875,8.09 33.183,-22.668 41.683,-35.219 14.571,-25.902 1.211,-45.73 -9.711,-1.211 -1.621,6.879 -12.55,2.02 -8.906,-3.64 14.57,-32.372 13.758,-41.282 -2.43,-26.711 -19.425,18.211 -36.019,48.98 -20.636,66.781 z m 152.566,27.109 c 10.527,-32.379 -17.797,-59.078 -43.699,-85.789 -16.192,-8.91 -12.145,8.488 -18.215,12.949 17.402,45.731 38.043,70.012 61.914,72.84 z m -94.445,20.891 c -22.121,9.859 -51.492,22 -82.492,28.289 -43.965,9.07 -77.575,17.996 -108.891,28.914 -16.738,6.125 -31.973,13.02 -46.422,21.008 -13.066,7.754 -23.683,15.312 -34.258,24.363 l -12.383,12.844 c 0,0 -4.019,4.344 -4.05,4.363 -13.696,17.305 -24.825,36.281 -36.028,61.348 -6.445,15.933 -13.144,32.969 -17.937,50.523 -2.352,10.574 -3.543,20.469 -4.735,31.149 -0.417,6.054 -0.628,12.097 -0.628,18.254 0,14.921 1.242,30.488 3.804,48.433 4.66,27.992 11.356,55.68 20.453,84.625 9.067,28.563 19.352,57.289 29.293,85.067 0,0 23.293,66.628 23.305,66.648 8.496,25.871 17.984,55.102 22.012,85.212 4.371,2.45 13.426,7.57 13.301,7.5 0,0 20.886,10.85 20.894,10.85 0,0 21.039,10.12 20.918,10.06 0,0 20.449,9.22 20.438,9.22 0.011,0 20.91,8.44 20.91,8.44 0,0.01 20.633,7.7 20.543,7.67 0,0 20.336,7.17 20.336,7.18 0.011,0.01 21.039,6.08 20.968,6.05 l 20.446,5.61 c 0.011,0 20.621,4.85 20.418,4.81 0,0 21.027,4.05 20.855,4.02 0,0 20.613,3.23 20.426,3.21 l 20.426,2.4 c 0.004,0.01 20.625,1.62 20.527,1.62 0,0 20.57,1.18 20.883,1.2 0.324,0 19.969,0.01 19.969,0.01 0,0 20.402,-0.41 20.421,-0.41 0.012,0 20.52,-1.21 20.54,-1.21 0,0 20.703,-1.59 20.722,-1.57 0.02,-0.01 20.625,-2.84 20.528,-2.82 0,0 20.632,-3.24 20.332,-3.18 0,0 20.632,-4.46 20.554,-4.44 0,0 21.035,-4.85 20.93,-4.83 0,0 20.605,-5.25 20.371,-5.18 0,0 21.043,-6.47 20.926,-6.44 0,0 20.383,-6.79 20.402,-6.79 0.008,-0.01 21.043,-8.09 20.918,-8.05 0,0 20.645,-8.5 20.594,-8.47 l 20.762,-8.78 c 0.019,-0.01 20.636,-10.12 20.519,-10.05 0,0 29.531,-15.42 33.904,-17.71 0.37,-2.57 0.85,-5.85 0.85,-5.85 0,0 1.15,-7.91 1.22,-8.27 2.92,-13.84 6.68,-28.383 11.87,-45.828 9.27,-29.969 20.08,-59.981 30.53,-89.008 17.37,-48.246 35.34,-98.129 46.61,-148.707 3.31,-18.407 5.41,-32.758 6.81,-46.426 0.66,-7.719 0.98,-15.305 0.98,-22.938 0,-10.171 -0.58,-20.437 -1.75,-31.222 -1.65,-11.168 -3.67,-20.992 -6.27,-30.672 -13.89,-43.055 -30.18,-75.551 -51.13,-102.102 -6.4,-7.461 -13.45,-14.382 -22.74,-22.351 -13.44,-10.832 -27.642,-19.758 -44.497,-27.981 -20.43,-9.074 -41.184,-16.707 -65.117,-23.984 -25.911,-6.777 -51.809,-12.449 -78.418,-18.184 -23.899,-5.789 -48.625,-14.507 -77.364,-27.257 0,0 -2.785,-1.161 -5.246,-2.211 -1.277,0.89 -2.636,1.839 -2.715,1.902 -21.914,15.406 -50.75,6.019 -85.625,-27.242 -15.41,9.332 -32.558,18.101 -53.722,27.371 z m -284.77,786.11 c -17.398,33.6 -38.851,64.76 -64.347,92.69 42.089,23.47 85.394,42.9 130.722,58.69 23.071,7.68 46.137,14.16 69.614,20.23 38.449,8.5 76.496,14.57 115.339,18.62 90.661,8.09 182.125,6.47 271.969,-7.29 28.742,-4.85 56.66,-10.93 84.992,-18.61 14.168,-4.05 27.93,-8.5 41.688,-12.95 45.337,-15.79 88.637,-35.22 130.727,-58.69 -34,-37.24 -60.31,-79.33 -79.73,-125.86 -6.88,-16.19 -12.15,-31.98 -15.38,-48.98 -0.81,-4.45 -1.21,-8.5 -1.21,-12.55 l -21.056,10.93 -21.445,10.12 -21.848,9.71 -21.863,8.9 -21.855,8.1 -21.446,7.29 -21.855,6.48 -21.856,6.06 -21.855,5.27 -21.856,4.04 -21.855,3.64 -21.848,2.84 -21.863,2.02 -21.855,1.21 -21.848,0.41 h -21.449 l -21.856,-1.22 -21.855,-2.02 -21.856,-2.43 -21.855,-3.64 -21.856,-4.05 -21.855,-4.86 -21.856,-6.06 -21.851,-6.48 -21.856,-7.28 -21.449,-8.1 -21.855,-9.31 -21.856,-9.71 -21.855,-10.52 -21.043,-10.93 c -2.832,33.59 -16.594,64.75 -31.977,94.29 z M 817.535,241.969 c -1.222,-1.207 -2.433,-2.418 -3.644,-3.231 -4.051,9.313 -6.473,18.614 -6.883,28.332 6.883,2.43 9.305,-10.121 10.527,-25.101 z m 6.063,13.761 c -4.453,17.399 -10.516,23.891 -18.614,19.84 -0.808,6.059 -1.621,12.551 -2.429,18.61 15.781,-6.879 28.328,-15.782 21.043,-38.45 z m 6.886,-40.468 c 2.832,0 4.852,-1.621 4.852,-3.641 0,-2.019 -2.02,-3.641 -4.852,-3.641 -2.832,0 -4.855,1.622 -4.855,3.641 0,2.02 2.023,3.641 4.855,3.641 z m 24.688,28.328 c 8.496,3.25 15.781,4.461 16.191,2.84 0.801,-2.032 -5.265,-5.668 -13.769,-8.91 -8.496,-3.231 -15.781,-4.442 -16.184,-2.829 -0.808,2.028 5.266,5.661 13.762,8.899 z m -1.621,54.238 c 6.875,31.973 21.043,48.172 39.656,54.633 -3.633,-25.5 -1.609,-25.902 6.484,-0.801 8.899,-4.051 2.832,-18.211 -2.019,-31.57 -8.098,-20.238 -15.793,-16.192 -23.879,-8.102 -3.652,-6.867 -7.293,-14.16 -11.336,-21.039 -8.098,-12.949 -11.34,-10.929 -8.906,6.879 z m 56.66,16.582 c -1.621,-17.801 -0.801,-32.781 2.43,-44.91 -12.95,-4.449 -25.496,-7.281 -36.016,1.609 10.52,3.653 21.848,21.461 33.586,43.301 z m 13.359,7.699 c 10.118,29.95 23.465,46.95 41.278,44.922 -5.664,-26.301 -14.571,-48.152 -27.118,-65.152 -14.972,-23.078 -16.593,-21.449 -4.855,4.851 8.906,19.418 7.285,21.051 -4.852,5.258 -10.527,-14.16 -11.738,-10.929 -4.453,10.121 z M 406.34,228.211 c -11.735,-10.102 -15.781,-20.231 -21.86,-30.352 0.407,29.539 4.86,51 24.29,44.52 -6.879,-4.859 -7.692,-9.707 -2.43,-14.168 z m -33.59,94.301 c -9.309,13.359 -11.332,11.738 -5.672,-4.442 7.692,-23.07 -2.426,-8.91 -8.898,-2.019 -16.598,19.82 -23.075,42.89 -19.836,69.191 18.621,-12.133 31.574,-30.754 36.832,-57.062 2.429,-9.301 1.621,-11.328 -2.426,-5.668 z M 263.07,242.379 c 20.641,2.43 73.66,42.09 99.961,28.332 -1.613,-14.16 -29.14,-61.512 -99.961,-28.332 z m 34.805,124.25 c -1.215,9.723 -1.621,16.992 -4.453,19.426 -4.047,3.64 -5.668,-12.946 -3.641,-19.426 8.094,-25.899 8.094,-25.899 -8.902,0 -17,35.219 -22.664,61.113 -4.453,68.402 22.262,-10.527 33.183,-36.426 39.258,-69.211 -1.215,-30.761 -7.286,-30.351 -17.809,0.809 z m -52.211,14.984 c 2.027,14.969 6.477,24.676 12.551,29.129 0.808,-23.066 5.258,-42.504 14.164,-56.254 -11.332,4.453 -19.828,14.571 -26.715,27.125 z m -7.691,140.028 c 13.359,-8.907 17.808,-32.782 16.191,-67.188 -9.305,7.695 -8.898,0 -7.687,-9.715 -1.618,-2.023 -3.645,-4.043 -5.262,-6.465 -10.524,33.172 -16.996,63.934 -3.242,83.368 z m 26.308,-223.813 c -47.754,-8.09 -85.801,6.883 -116.152,40.07 33.59,13.762 70.422,6.883 109.68,-14.578 15.379,-11.332 16.191,-14.57 2.425,-9.711 -25.093,0.403 -24.683,-1.211 0.813,-4.859 19.832,-4.852 21.043,-8.5 3.234,-10.922 z m -48.16,132.348 c -1.215,6.062 4.856,23.066 6.883,17.394 2.832,-7.277 4.851,-20.234 6.066,-27.922 0.813,-5.253 -11.734,5.262 -12.949,10.528 z m -54.23,-37.645 c -40.071,2.02 -74.8754,18.621 -101.9887,56.258 29.543,13.359 64.7537,2.832 106.0357,-31.16 8.902,-7.695 8.089,-10.527 -3.243,-8.906 -11.328,1.211 -23.066,4.453 -36.015,12.136 -10.926,4.454 -12.145,2.434 -2.832,-6.464 13.757,-8.106 26.711,-12.149 38.847,-12.149 17.407,-5.262 17,-8.508 -0.804,-9.715 z m 19.023,121.824 c -0.406,-29.55 -3.242,-28.742 -8.906,2.422 -3.238,37.243 6.074,70.418 25.496,99.567 11.738,-34.817 14.168,-70.43 4.453,-106.84 -8.5,-24.699 -11.738,-23.891 -9.312,2.012 -0.403,20.64 -2.02,34.398 -11.731,2.839 z m -20.644,23.872 c -8.497,7.281 -13.356,22.664 -14.165,46.132 10.118,-3.632 19.024,-0.8 26.305,7.704 0,-2.024 0.406,-3.649 0.406,-5.672 -7.285,-10.93 -10.519,-27.93 -12.546,-48.164 z m -15.383,55.851 c -1.617,3.649 -3.231,7.695 -4.449,11.332 3.238,2.031 6.882,7.289 10.523,16.192 1.219,-10.122 -0.809,-19.024 -6.074,-27.524 z m -9.707,77.301 c 10.925,23.476 21.851,44.519 30.351,44.519 6.477,-10.117 -1.621,-31.562 -13.758,-56.66 -10.527,-20.64 -12.144,-20.64 -5.668,0 7.688,17.403 5.668,20.235 -5.667,8.496 -7.688,-16.996 -9.711,-15.777 -5.258,3.645 z m -1.621,-78.113 -10.524,11.75 11.735,-1.625 z m -21.45,16.191 -2.836,17.402 c 7.29,-1.203 14.575,-5.257 21.86,-11.73 v -5.672 c -6.887,2.832 -13.36,2.832 -19.024,0 z m -31.1676,6.481 c -29.5391,10.113 -53.8242,33.988 -63.1328,95.914 25.9023,-0.407 48.9687,-21.047 70.8242,-53.02 17.0042,-39.656 8.0938,-29.949 -4.4492,-13.352 -25.0898,29.543 -13.3594,9.715 3.2383,-17.398 24.2811,-23.473 16.1871,-23.473 -6.4805,-12.144 z m -8.0898,81.343 c 0,-1.215 -1.2149,-2.426 -3.2383,-2.426 -2.0235,0 -3.6406,1.211 -3.6406,2.426 0,1.215 1.6171,2.02 3.6406,2.02 2.0234,0 3.2383,-0.805 3.2383,-2.02 z M 28.7383,806.555 c 32.7812,-14.16 51.8047,-38.039 61.9219,-68.395 8.0898,-21.855 6.4726,-25.094 -5.6641,-9.312 -15.7852,17.406 -16.5977,13.761 -2.8359,-10.524 11.332,-16.59 8.0937,-19.828 -9.7149,-9.711 -27.1172,26.715 -45.7305,57.875 -43.707,97.942 z m 31.164,42.492 c 22.6602,-13.754 40.8747,-32.375 48.5667,-63.539 6.472,-18.211 4.445,-24.688 -1.219,-25.899 -7.6914,11.739 -9.7109,24.688 -10.5234,37.637 -2.8282,6.07 -5.2578,6.477 -6.4727,0.406 4.8594,-26.714 11.3321,-52.617 29.9491,-71.636 -0.402,-9.711 -0.808,-19.024 -0.808,-28.735 -14.977,41.285 -28.7348,67.586 -42.4966,87.422 2.0235,0.805 3.6446,1.617 5.2618,2.426 -12.9493,26.711 -21.0469,48.164 -22.2579,61.918 z m 3.2344,114.941 c 23.8789,-22.258 40.8793,-48.16 50.1873,-78.109 0.809,-18.617 -1.621,-21.856 -7.687,-9.711 -12.1448,25.496 -10.5237,13.355 -6.4768,-4.051 4.8558,-21.449 2.0238,-22.664 -8.9063,-3.64 -21.4492,31.566 -31.1601,63.546 -27.1172,95.511 z M 123.848,772.152 c 1.617,-1.621 3.238,-3.234 4.851,-4.855 -0.808,-8.906 -4.043,-17.402 -8.898,-25.899 -2.434,1.622 -4.86,3.637 -7.285,5.258 5.257,7.692 8.898,16.188 11.332,25.496 z m 7.285,10.118 c 0,-2.426 -0.813,-4.454 -2.028,-4.454 -1.214,0 -2.425,2.028 -2.425,4.454 0,2.433 1.211,4.453 2.425,4.453 1.215,0 2.028,-2.02 2.028,-4.453 z m -27.93,-78.516 c 0.813,0.406 2.836,-1.211 4.453,-3.637 2.028,-2.429 2.836,-4.453 2.426,-5.262 -0.809,-0.41 -2.832,1.211 -4.445,3.641 -2.028,2.426 -2.84,4.856 -2.434,5.258 z M 86.6094,690.402 c 16.1876,4.043 30.3596,-5.254 42.4956,-35.207 -14.164,19.828 -28.328,31.559 -42.4956,35.207 z m 31.1636,-49.773 c 9.715,-16.602 7.692,-18.621 -6.472,-6.074 -10.524,9.304 -19.426,33.586 -29.1408,50.187 16.5898,-3.238 31.5668,-12.957 41.6878,-36.426 5.257,-14.57 4.043,-15.793 -3.645,-3.648 -10.93,16.602 -11.734,15.383 -2.43,-4.039 z m 23.883,57.461 c 0,-1.621 -0.812,-3.235 -1.621,-3.235 -0.812,0 -1.621,1.614 -1.621,3.235 0,2.027 0.809,3.238 1.621,3.238 0.809,0 1.621,-1.211 1.621,-3.238 z m -17,150.957 c 19.426,-20.234 19.832,-39.66 10.926,-58.274 -14.168,18.614 -20.641,38.04 -10.926,58.274 z m 20.641,29.141 c 0.808,-17.805 -0.41,-20.227 -3.641,-7.282 -6.476,14.973 -8.504,12.953 -6.074,-6.883 2.832,-19.828 0,-21.445 -9.309,-5.257 3.239,18.613 0.813,35.211 -4.046,50.996 10.117,-6.481 18.211,-15.785 23.07,-31.574 z m -16.192,178.082 c 27.118,-24.69 44.118,-59.497 38.856,-117.372 -3.645,-21.851 -7.285,-24.285 -10.93,-7.285 -10.926,39.262 -13.761,37.641 -8.09,-4.859 4.047,-14.16 2.02,-14.566 -6.074,-1.617 -27.926,54.234 -27.113,95.513 -13.762,131.133 z m 35.211,-206.411 c 1.215,12.145 3.645,23.469 10.122,32.782 2.832,-11.735 -2.028,-22.258 -10.122,-32.782 z m 10.524,-19.828 c 4.453,4.047 8.5,-2.429 5.262,-7.695 -2.43,-3.641 -8.5,-3.234 -11.739,-6.066 -6.472,-5.262 -8.5,1.214 -4.047,4.855 4.047,4.051 8.5,6.883 10.524,8.906 z m -19.02,36.422 c -2.027,-18.211 -3.64,-18.211 -4.453,-0.402 1.621,12.137 -5.262,29.137 -12.953,46.949 14.977,-1.219 26.715,-7.293 17.406,-46.547 z m -3.64,-69.207 c -1.621,0 -2.84,1.617 -2.84,4.047 0,2.023 1.219,4.051 2.84,4.051 1.613,0 3.234,-2.028 3.234,-4.051 0,-2.43 -1.621,-4.047 -3.234,-4.047 z m 2.019,-50.183 c 19.43,32.375 39.258,61.917 61.52,64.753 1.215,-25.496 -19.024,-50.586 -48.164,-75.683 -6.477,-4.453 -8.09,-3.645 -4.86,2.832 0,3.644 -1.211,4.453 -4.043,2.433 -6.07,-3.238 -7.691,-1.621 -4.453,5.665 z m 54.633,-45.329 c 3.242,-16.191 -1.613,-40.07 -10.516,-67.582 -4.859,-10.933 -6.878,-12.957 -6.48,-5.269 0.809,6.883 -0.805,6.883 -5.258,0 -6.883,-10.922 -8.906,-10.922 -6.07,0.808 0,10.528 -3.238,8.09 -10.121,-6.472 -14.164,-27.516 -16.594,-27.121 -8.09,1.621 8.09,37.637 22.664,64.34 46.535,76.894 z M 107.656,515.168 c -27.113,18.211 -29.9451,16.18 -7.6912,-6.887 15.3832,-15.379 13.3592,-17.812 -5.664,-7.683 -41.2774,20.632 -66.3711,56.254 -75.2774,106.433 29.9454,-0.808 61.1133,-34.801 92.6796,-83.777 12.145,-19.414 10.524,-22.266 -4.047,-8.086 z m 12.547,53.012 c -3.64,2.832 -6.476,5.664 -6.07,6.476 0.402,0.407 3.64,-1.625 7.687,-4.457 3.645,-3.234 6.477,-6.066 6.071,-6.476 -0.403,-0.399 -4.043,1.218 -7.688,4.457 z m 96.324,395.004 c 10.118,4.453 13.356,13.355 18.614,22.668 2.027,-18.625 -0.809,-36.434 -37.637,-48.164 4.051,16.996 14.168,24.679 19.023,25.496 z m 44.52,144.486 c 6.476,-29.95 0,-60.31 -14.977,-91.88 -8.496,-14.97 -12.14,-14.56 -11.328,1.22 5.664,29.94 -2.433,17.81 -12.551,-0.4 -6.472,-12.55 -10.519,-11.34 -12.546,4.44 -2.426,29.55 12.14,58.69 51.402,86.62 z M 191.031,884.668 c 15.782,27.52 35.207,46.137 61.52,42.902 -6.481,-27.527 -25.906,-45.738 -50.996,-59.496 -10.93,-6.476 -10.93,-5.265 -0.407,4.449 4.852,8.907 16.59,25.094 -5.668,6.883 -8.902,-12.144 -10.519,-10.523 -4.449,5.262 z M 1158.71,509.504 c -9.72,36.41 -7.29,72.023 4.45,106.84 19.43,-29.149 28.74,-62.324 25.5,-99.567 -5.67,-31.164 -8.5,-31.972 -8.91,-2.422 -9.71,31.559 -11.33,17.801 -11.73,-2.839 2.42,-25.903 -0.81,-26.711 -9.31,-2.012 z m -6.89,192.23 c 23.89,-12.554 38.46,-39.257 46.55,-76.894 8.5,-28.742 6.07,-29.137 -8.09,-1.621 -6.48,14.562 -10.12,17 -10.12,6.472 2.83,-11.73 0.81,-11.73 -6.07,-0.808 -4.46,6.883 -6.07,6.883 -5.27,0 0.41,-7.688 -1.61,-5.664 -6.46,5.269 -8.91,27.512 -13.77,51.391 -10.54,67.582 z m -6.87,110.082 c 22.26,-2.836 42.09,-32.378 61.52,-64.753 3.23,-7.286 1.61,-8.903 -4.45,-5.665 -2.85,2.02 -4.05,1.211 -4.05,-2.433 3.24,-6.477 1.61,-7.285 -4.86,-2.832 -29.14,25.097 -49.37,50.187 -48.16,75.683 z m 80.53,-140.437 c 4.46,-19.422 2.44,-20.641 -5.26,-3.645 -11.33,11.739 -13.35,8.907 -5.66,-8.496 6.48,-20.64 4.86,-20.64 -5.67,0 -12.14,25.098 -20.23,46.543 -13.75,56.66 8.5,0 19.42,-21.043 30.34,-44.519 z m -10.11,206.809 c 4.85,15.789 12.96,25.093 23.06,31.574 -4.84,-15.785 -7.27,-32.383 -4.04,-50.996 -9.31,-16.188 -12.14,-14.571 -9.31,5.257 2.43,19.836 0.4,21.856 -6.06,6.883 -3.24,-12.945 -4.46,-10.523 -3.65,7.282 z m -6.88,-80.942 c -1.62,0 -3.24,1.617 -3.24,4.047 0,2.023 1.62,4.051 3.24,4.051 1.62,0 2.83,-2.028 2.83,-4.051 0,-2.43 -1.21,-4.047 -2.83,-4.047 z M 1222.25,913 c -7.69,-17.812 -14.57,-34.812 -12.95,-46.949 -0.81,-17.809 -2.43,-17.809 -4.45,0.402 -9.31,39.254 2.42,45.328 17.4,46.547 z m -29.54,25.898 c -5.27,57.875 11.73,92.682 38.85,117.372 13.36,-35.62 14.17,-76.899 -13.76,-131.133 -8.1,-12.949 -10.12,-12.543 -6.08,1.617 5.67,42.5 2.84,44.121 -8.08,4.859 -3.65,-17 -7.3,-14.566 -10.93,7.285 z m -0.4,-122.628 c -3.24,2.832 -9.32,2.425 -11.75,6.066 -3.23,5.266 0.81,11.742 5.27,7.695 2.02,-2.023 6.48,-4.855 10.51,-8.906 4.47,-3.641 2.43,-10.117 -4.03,-4.855 z m -6.07,66.371 c 6.47,-9.313 8.9,-20.637 10.1,-32.782 -8.08,10.524 -12.54,21.047 -10.1,32.782 z m 36.01,-184.551 c 0,-1.621 -0.81,-3.235 -1.62,-3.235 -0.81,0 -1.61,1.614 -1.61,3.235 0,2.027 0.8,3.238 1.61,3.238 0.81,0 1.62,-1.211 1.62,-3.238 z m 2.83,92.683 c -8.9,18.614 -8.49,38.04 10.93,58.274 9.72,-20.234 3.24,-39.66 -10.93,-58.274 z m 23.07,-44.117 c -2.42,-1.621 -4.85,-3.636 -7.29,-5.258 -4.85,8.497 -8.09,16.993 -8.9,25.899 1.63,1.621 3.24,3.234 4.86,4.855 2.43,-9.308 6.08,-17.804 11.33,-25.496 z m -0.81,139.223 c 9.32,29.949 26.31,55.851 50.18,78.109 4.06,-31.965 -5.66,-63.945 -27.1,-95.511 -10.93,-19.024 -13.76,-17.809 -8.91,3.64 4.04,17.406 5.66,29.547 -6.48,4.051 -6.07,-12.145 -8.49,-8.906 -7.69,9.711 z m 53.43,-36.832 c -1.22,-13.754 -9.32,-35.207 -22.26,-61.918 1.61,-0.809 3.23,-1.621 5.25,-2.426 -13.76,-19.836 -27.51,-46.137 -42.49,-87.422 0,9.711 -0.41,19.024 -0.81,28.735 18.62,19.019 25.09,44.922 29.96,71.636 -1.22,6.071 -3.66,5.664 -6.49,-0.406 -0.8,-12.949 -2.83,-25.898 -10.52,-37.637 -5.66,1.211 -7.68,7.688 -1.21,25.899 7.69,31.164 25.9,49.785 48.57,63.539 z m 31.16,-42.492 c 2.02,-40.067 -16.59,-71.227 -43.71,-97.942 -17.8,-10.117 -21.05,-6.879 -9.71,9.711 13.76,24.285 12.94,27.93 -2.84,10.524 -12.14,-15.782 -13.76,-12.543 -5.67,9.312 10.12,30.356 29.15,54.235 61.93,68.395 z m -44.11,-109.274 c 0,1.215 1.21,2.02 3.23,2.02 2.03,0 3.64,-0.805 3.64,-2.02 0,-1.215 -1.61,-2.426 -3.64,-2.426 -2.02,0 -3.23,1.211 -3.23,2.426 z m 55.04,14.571 c -9.31,-61.926 -33.6,-85.801 -63.14,-95.914 -22.66,-11.329 -30.76,-11.329 -6.47,12.144 16.59,27.113 28.33,46.941 3.23,17.398 -12.55,-16.597 -21.45,-26.304 -4.44,13.352 21.84,31.973 44.92,52.613 70.82,53.02 z m -113.32,70.418 c 0,2.433 0.81,4.453 2.02,4.453 1.21,0 2.43,-2.02 2.43,-4.453 0,-2.426 -1.22,-4.454 -2.43,-4.454 -1.21,0 -2.02,2.028 -2.02,4.454 z m 10.92,-137.602 c -7.69,-12.145 -8.9,-10.922 -3.64,3.648 10.12,23.469 25.09,33.188 41.69,36.426 -9.72,-16.601 -18.62,-40.883 -29.14,-50.187 -14.17,-12.547 -16.19,-10.528 -6.47,6.074 9.3,19.422 8.49,20.641 -2.44,4.039 z m 12.54,55.449 c 1.63,2.426 3.66,4.043 4.47,3.637 0.4,-0.402 -0.41,-2.832 -2.44,-5.258 -1.62,-2.43 -3.64,-4.051 -4.45,-3.641 -0.41,0.809 0.4,2.833 2.42,5.262 z m 21.05,-9.715 c -14.16,-3.648 -28.32,-15.379 -42.49,-35.207 12.15,29.953 26.31,39.25 42.49,35.207 z m -25.49,-80.945 c -5.66,2.832 -12.14,2.832 -19.02,0 v 5.672 c 7.28,6.473 14.57,10.527 21.85,11.73 z m -21.46,-16.191 -1.21,10.125 11.74,1.625 z m -11.32,0.812 c -5.27,8.5 -7.29,17.402 -6.08,27.524 3.64,-8.903 7.29,-14.161 10.52,-16.192 -1.2,-3.637 -2.83,-7.683 -4.44,-11.332 z m -15.38,-55.851 c -2.03,20.234 -5.26,37.234 -12.55,48.164 0,2.023 0.41,3.648 0.41,5.672 7.28,-8.504 16.18,-11.336 26.3,-7.704 -0.81,-23.468 -5.67,-38.851 -14.16,-46.132 z m -35.21,341.179 c -22.27,18.211 -10.53,2.024 -5.66,-6.883 10.51,-9.714 10.51,-10.925 -0.41,-4.449 -25.1,13.758 -44.53,31.969 -51,59.496 26.31,3.235 45.73,-15.382 61.51,-42.902 6.08,-15.785 4.46,-17.406 -4.44,-5.262 z m -39.67,106.446 c 5.26,-9.313 8.5,-18.215 18.63,-22.668 4.84,-0.817 14.97,-8.5 19.01,-25.496 -36.83,11.73 -39.66,29.539 -37.64,48.164 z m -10.93,29.938 c -14.97,31.57 -21.44,61.93 -14.97,91.88 39.25,-27.93 53.83,-57.07 51.4,-86.62 -2.03,-15.78 -6.07,-16.99 -12.55,-4.44 -10.12,18.21 -18.21,30.34 -12.55,0.4 0.82,-15.78 -2.83,-16.19 -11.33,-1.22 z m 124.25,-445.591 c 4.06,2.832 7.29,4.864 7.7,4.457 0.4,-0.812 -2.43,-3.644 -6.08,-6.476 -3.64,-3.239 -7.28,-4.856 -7.69,-4.457 -0.4,0.41 2.43,3.242 6.07,6.476 z m 10.12,-46.945 c 31.57,48.976 62.73,82.969 92.69,83.777 -8.91,-50.179 -34,-85.801 -75.29,-106.433 -19.02,-10.129 -21.04,-7.696 -5.66,7.683 22.25,23.067 19.42,25.098 -7.7,6.887 -14.57,-14.18 -16.18,-11.328 -4.04,8.086 z m -65.97,-100.363 c -30.35,3.23 -14.57,9.304 -8.09,14.972 2.43,-2.023 4.85,-4.457 7.28,-6.886 5.67,3.64 10.93,7.296 16.19,10.929 -11.73,5.262 -18.21,9.715 -13.77,12.949 12.96,2.833 29.96,12.149 46.96,21.051 71.64,18.215 120.6,63.543 129.1,156.617 -63.54,-21.843 -116.15,-55.035 -129.1,-127.484 -8.1,-10.516 -17.81,-20.234 -30.35,-26.711 -2.84,10.93 1.21,16.992 6.06,21.86 12.95,1.21 15.38,5.261 7.7,12.148 1.21,4.441 2.42,8.894 4.05,12.937 37.23,34.411 49.77,68.805 16.58,50.188 16.6,20.242 12.96,20.242 -10.52,0 -6.87,1.219 5.67,11.34 21.05,23.074 61.52,6.875 102.39,43.301 113.32,122.621 -14.97,2.028 -29.95,-0.804 -44.92,-6.879 27.52,27.524 35.61,67.594 34.8,113.325 -21.04,-5.668 -39.26,-16.594 -54.64,-32.782 15.79,36.418 25.1,65.563 20.65,77.703 -14.17,-11.332 -26.31,-18.21 -34.41,-15.378 38.45,57.468 35.62,101.992 21.46,142.865 -22.27,-21.045 -41.69,-43.709 -53.83,-68.803 -11.34,-12.547 -18.21,-17.402 -21.46,-15.379 28.33,36.422 40.07,86.212 22.27,161.082 2.02,16.59 -5.26,15.78 -21.45,-2.03 -67.59,-50.18 -40.88,-71.63 -61.53,-107.243 -2.83,32.773 12.15,55.443 -8.89,98.743 -14.17,28.74 -48.57,46.14 -67.18,69.21 -21.46,-49.38 -8.51,-97.13 28.33,-144.481 -2.84,-21.05 4.04,-36.019 21.03,-50.187 17,-13.758 31.17,-12.953 42.09,-50.188 -31.56,40.879 -64.34,55.45 -97.94,51.809 23.48,-95.922 90.66,-84.184 109.28,-105.234 -17,6.48 -31.57,10.523 -28.33,-1.211 12.55,-4.047 10.53,-18.211 25.9,-36.418 7.29,-8.907 17.4,-14.578 25.91,-21.457 0.4,-10.926 0.8,-21.852 1.62,-32.782 -24.29,57.473 -57.88,77.301 -94.31,85.797 7.29,-41.683 23.88,-77.699 55.45,-105.629 0,-8.906 0,-17.804 0,-26.308 -8.91,10.527 -18.62,17.402 -29.54,20.242 -13.77,-14.973 -9.32,-47.758 7.69,-93.09 -27.92,-23.875 -26.72,-104.012 10.52,-148.933 -2.43,-7.684 -6.07,-15.782 -10.52,-23.477 -6.88,31.172 -9.31,32.383 -7.69,2.832 -4.05,-4.441 -8.1,-6.062 -12.15,-4.441 11.74,62.324 1.21,78.504 -15.38,82.144 -21.45,-21.844 -31.56,-53.418 -25.09,-99.547 -7.28,2.02 -10.93,12.539 -10.52,31.16 -44.12,-39.668 -54.23,-93.89 -51.8,-153.793 -12.15,-1.218 -24.29,-6.878 -36.429,-14.168 29.139,36.829 31.159,68.399 29.949,99.563 -35.21,-11.738 -58.288,-40.074 -55.046,-106.441 -13.348,-7.282 -26.707,-16.18 -40.059,-16.993 13.75,38.039 52.199,61.922 41.68,114.129 -18.211,-3.246 -38.047,-19.429 -58.281,-51 0.812,28.332 -7.274,42.492 -34.395,23.071 -28.738,-21.047 -46.543,-49.379 -50.594,-85.387 -2.023,10.109 -20.636,25.887 -31.164,27.519 -5.664,12.539 -14.57,23.868 -25.086,33.989 26.309,11.34 51.395,19.832 68.399,23.07 181.306,36.023 237.156,83.777 281.676,207.617 45.73,126.27 -33.59,273.184 -72.85,402.692 -22.67,74.061 -16.59,98.751 0,138.821 23.48,57.07 56.26,101.59 101.59,145.3 -152.99,94.3 -301.92,127.48 -473.924,127.07 -172.008,0.41 -320.945,-32.77 -473.926,-127.07 45.328,-43.71 78.11,-88.23 101.582,-145.3 16.594,-40.07 22.668,-64.76 0,-138.821 C 268.734,840.551 189.41,693.637 235.141,567.367 279.664,443.527 335.512,395.773 516.824,359.75 c 29.145,-5.672 82.973,-26.711 123.039,-50.191 -11.332,-20.629 -18.215,-42.09 -14.976,-64.75 -9.711,-47.75 -14.164,-26.297 -17.403,5.261 4.047,25.5 -10.925,51.809 -38.851,79.321 -37.637,38.847 -47.758,22.269 -30.356,-50.18 -3.238,-1.211 -6.07,-2.832 -9.308,-4.039 -4.047,36.008 -21.856,64.34 -50.59,85.387 -26.707,19.421 -35.211,5.261 -34.399,-23.071 -20.234,31.571 -39.664,47.754 -58.281,51 -10.523,-52.207 27.922,-76.09 41.688,-114.129 -13.36,0.813 -26.711,9.711 -40.067,16.993 3.239,66.367 -19.836,94.703 -55.047,106.441 -1.214,-31.164 0.813,-62.734 29.95,-99.563 -12.141,7.29 -24.278,12.95 -36.422,14.168 2.426,59.903 -7.692,114.125 -51.801,153.793 0.398,-18.621 -3.242,-29.14 -10.527,-31.16 6.472,46.129 -3.645,77.703 -25.09,99.547 -16.598,-3.64 -27.117,-19.82 -15.379,-82.144 -4.051,-1.621 -8.098,0 -12.145,4.441 1.621,29.551 -0.804,28.34 -7.691,-2.832 -4.445,7.695 -8.09,15.793 -10.523,23.477 37.238,44.921 38.453,125.058 10.523,148.933 16.996,45.332 21.449,78.117 7.691,93.09 -10.925,-2.84 -20.64,-9.715 -29.543,-20.242 0,8.504 0,17.402 0,26.308 31.571,27.93 48.161,63.946 55.446,105.629 -36.426,-8.496 -70.02,-28.324 -94.297,-85.797 0.805,10.93 1.211,21.856 1.617,32.782 8.5,6.879 18.613,12.55 25.902,21.457 15.375,18.207 13.356,32.371 25.899,36.418 3.242,11.734 -11.328,7.691 -28.328,1.211 18.617,21.05 85.8,9.312 109.277,105.234 -33.594,3.641 -66.379,-10.93 -97.945,-51.809 10.926,37.235 25.093,36.43 42.09,50.188 16.996,14.168 23.882,29.137 21.05,50.187 36.825,47.351 50.18,95.101 28.328,144.481 -18.617,-23.07 -53.019,-40.47 -67.187,-69.21 -21.043,-43.3 -6.066,-65.97 -8.898,-98.743 -20.641,35.613 6.066,57.063 -61.52,107.243 -16.187,17.81 -23.477,18.62 -21.449,2.03 -17.8088,-74.87 -6.071,-124.66 22.258,-161.082 -3.239,-2.023 -10.118,2.832 -21.45,15.379 -12.1442,25.094 -31.566,47.758 -53.8277,68.803 -14.1641,-40.873 -16.9961,-85.397 21.4492,-142.865 -8.0938,-2.832 -20.2344,4.046 -34.4024,15.378 -4.4492,-12.14 4.8555,-41.285 20.6446,-77.703 -15.3829,16.188 -33.5938,27.114 -54.6407,32.782 -0.8086,-45.731 7.2852,-85.801 34.8047,-113.325 -14.9765,6.075 -29.9453,8.907 -44.92186,6.879 C 12.1445,641.836 53.0234,605.41 114.535,598.535 c 15.383,-11.734 27.93,-21.855 21.047,-23.074 -23.473,20.242 -27.113,20.242 -10.523,0 -33.184,18.617 -20.641,-15.777 16.597,-50.188 1.614,-4.043 2.832,-8.496 4.043,-12.937 -7.687,-6.887 -5.261,-10.938 7.692,-12.148 4.855,-4.868 8.906,-10.93 6.074,-21.86 -12.551,6.477 -21.86,16.195 -30.36,26.711 C 116.156,577.488 63.543,610.68 0,632.523 8.5,539.449 57.4688,494.121 129.105,475.906 c 17,-8.902 34,-18.218 46.95,-21.051 4.453,-3.234 -2.028,-7.687 -13.758,-12.949 5.258,-3.633 10.519,-7.289 16.183,-10.929 2.434,2.429 4.86,4.863 7.286,6.886 6.476,-5.668 22.261,-11.742 -8.094,-14.972 C 121.414,471.445 76.0898,471.055 34,456.875 c 44.1094,-59.891 95.918,-85.395 156.625,-68.387 18.207,-8.508 37.637,-17.41 39.258,-13.758 21.449,-22.671 42.894,-44.519 68.394,-61.519 -73.254,45.73 -128.699,48.16 -177.672,35.211 38.047,-51.813 84.184,-89.043 167.149,-57.07 23.07,-2.012 41.285,-0.813 48.57,7.687 10.117,-3.641 16.188,-7.687 18.211,-12.949 -32.781,14.57 -74.062,-32.371 -133.152,-42.91 62.726,-24.27 125.867,-61.508 157.433,25.91 5.266,-8.09 11.743,-13.762 19.02,-15.781 -28.328,-33.59 -38.035,-60.707 -7.684,-73.661 6.473,25.09 17.403,44.922 38.039,53.832 -13.351,-91.878 12.145,-148.9409 55.454,-190.2183 9.71,-11.3398 17.402,-10.1211 25.085,-7.2812 23.071,6.8711 41.286,16.9883 54.637,30.3515 16.598,-2.4336 31.168,-18.2109 42.496,-53.832 4.86,-16.58984 14.977,-16.19141 18.215,-1.6211 6.481,29.9531 21.043,48.5703 30.356,85 9.304,-19.0273 24.687,-42.5 24.687,-44.5195 0,-8.9102 25.902,10.5195 38.852,23.0625 7.687,-1.2227 15.382,-2.8321 23.468,-4.4531 14.981,17 29.95,34.0002 40.879,51.0002 7.285,6.472 7.696,12.14 0.809,16.59 -28.328,8.91 -55.438,18.613 -79.727,29.953 0,1.617 0,3.226 0,5.258 13.352,2.031 25.5,5.261 36.828,9.312 9.305,-15.383 16.192,-13.363 14.168,6.469 1.211,0.808 2.832,1.219 4.043,2.027 5.266,-2.43 8.497,-1.219 21.856,0.813 23.879,-22.672 53.828,-84.993 136.387,-53.02 -22.657,13.758 -24.688,33.988 -44.922,47.75 11.738,0.399 27.109,-7.281 24.277,14.168 54.649,-44.519 89.043,-27.93 129.921,-20.23 -22.25,17.8 -36.823,29.14 -65.155,62.722 7.285,2.028 15.781,18.219 21.047,26.309 31.558,-87.418 94.698,-50.18 157.428,-25.91 -59.09,10.539 -100.37,57.48 -133.15,42.91 2.02,5.262 8.09,9.308 18.21,12.949 7.29,-8.5 25.5,-9.699 48.58,-7.687 82.95,-31.973 129.1,5.257 167.13,57.07 -48.96,12.949 -104.41,10.519 -177.67,-35.211 25.51,17 46.95,38.848 68.4,61.519 1.63,-3.652 21.04,5.25 39.26,13.758 60.71,-17.008 112.51,8.496 156.63,68.387 -42.09,14.18 -87.42,14.57 -143.68,-33.984"
         style="fill:#9f8c50;fill-opacity:1;fill-rule:nonzero;stroke:none"
         id="path14" />
      <path
         d="m 467.449,766.895 h 13.356 v -10.926 h -13.356 v 10.926"
         style="fill:#9f8c50;fill-opacity:1;fill-rule:nonzero;stroke:none"
         id="path16" />
      <path
         d="m 460.977,719.137 h 28.734 v -91.055 h -28.734 v 91.055"
         style="fill:#9f8c50;fill-opacity:1;fill-rule:nonzero;stroke:none"
         id="path18" />
      <path
         d="m 496.188,1038.05 c 2.832,0 5.667,0 8.5,0 0,-4.85 0,-9.71 0,-14.57 -2.833,0 -5.668,0 -8.5,0 0,4.86 0,9.72 0,14.57"
         style="fill:#9f8c50;fill-opacity:1;fill-rule:nonzero;stroke:none"
         id="path20" />
      <path
         d="m 482.832,1038.05 c 2.832,0 5.668,0 8.09,0 0,-4.85 0,-9.71 0,-14.57 -2.422,0 -5.258,0 -8.09,0 0,4.86 0,9.72 0,14.57"
         style="fill:#9f8c50;fill-opacity:1;fill-rule:nonzero;stroke:none"
         id="path22" />
      <path
         d="m 469.477,1038.05 c 2.832,0 5.257,0 8.089,0 0,-4.85 0,-9.71 0,-14.57 -2.832,0 -5.257,0 -8.089,0 0,4.86 0,9.72 0,14.57"
         style="fill:#9f8c50;fill-opacity:1;fill-rule:nonzero;stroke:none"
         id="path24" />
      <path
         d="m 486.07,1005.68 v 0 c 6.071,0 10.524,-4.86 10.524,-10.528 v -23.879 h -21.047 v 23.879 c 0,5.668 4.859,10.528 10.523,10.528"
         style="fill:#9f8c50;fill-opacity:1;fill-rule:nonzero;stroke:none"
         id="path26" />
      <path
         d="m 513.184,963.184 h 11.332 v -14.977 h -11.332 v 14.977"
         style="fill:#9f8c50;fill-opacity:1;fill-rule:nonzero;stroke:none"
         id="path28" />
      <path
         d="m 495.375,963.184 c 3.645,0 7.293,0 10.93,0 0,-4.86 0,-9.715 0,-14.977 -3.637,0 -7.285,0 -10.93,0 0,5.262 0,10.117 0,14.977"
         style="fill:#9f8c50;fill-opacity:1;fill-rule:nonzero;stroke:none"
         id="path30" />
      <path
         d="m 477.168,963.184 c 3.637,0 7.281,0 11.332,0 0,-4.86 0,-9.715 0,-14.977 -4.051,0 -7.695,0 -11.332,0 0,5.262 0,10.117 0,14.977"
         style="fill:#9f8c50;fill-opacity:1;fill-rule:nonzero;stroke:none"
         id="path32" />
      <path
         d="m 458.949,963.184 c 3.645,0 7.692,0 11.332,0 0,-4.86 0,-9.715 0,-14.977 -3.64,0 -7.687,0 -11.332,0 0,5.262 0,10.117 0,14.977"
         style="fill:#9f8c50;fill-opacity:1;fill-rule:nonzero;stroke:none"
         id="path34" />
      <path
         d="m 441.145,963.184 c 3.64,0 7.285,0 10.929,0 0,-4.86 0,-9.715 0,-14.977 -3.644,0 -7.289,0 -10.929,0 0,5.262 0,10.117 0,14.977"
         style="fill:#9f8c50;fill-opacity:1;fill-rule:nonzero;stroke:none"
         id="path36" />
      <path
         d="m 422.934,963.184 h 10.929 v -14.977 h -10.929 v 14.977"
         style="fill:#9f8c50;fill-opacity:1;fill-rule:nonzero;stroke:none"
         id="path38" />
      <path
         d="m 508.73,946.184 h 11.333 V 931.613 H 508.73 v 14.571"
         style="fill:#9f8c50;fill-opacity:1;fill-rule:nonzero;stroke:none"
         id="path40" />
      <path
         d="m 489.309,946.184 c 3.64,0 7.285,0 10.925,0 0,-4.86 0,-9.715 0,-14.571 -3.64,0 -7.285,0 -10.925,0 0,4.856 0,9.711 0,14.571"
         style="fill:#9f8c50;fill-opacity:1;fill-rule:nonzero;stroke:none"
         id="path42" />
      <path
         d="m 469.477,946.184 c 3.636,0 7.281,0 10.929,0 0,-4.86 0,-9.715 0,-14.571 -3.648,0 -7.293,0 -10.929,0 0,4.856 0,9.711 0,14.571"
         style="fill:#9f8c50;fill-opacity:1;fill-rule:nonzero;stroke:none"
         id="path44" />
      <path
         d="m 449.645,946.184 c 3.64,0 7.285,0 11.332,0 0,-4.86 0,-9.715 0,-14.571 -4.047,0 -7.692,0 -11.332,0 0,4.856 0,9.711 0,14.571"
         style="fill:#9f8c50;fill-opacity:1;fill-rule:nonzero;stroke:none"
         id="path46" />
      <path
         d="m 429.813,946.184 h 11.332 v -14.571 h -11.332 v 14.571"
         style="fill:#9f8c50;fill-opacity:1;fill-rule:nonzero;stroke:none"
         id="path48" />
      <path
         d="m 451.672,905.309 h 46.543 c 2.426,0 4.851,-2.028 4.851,-4.454 v 0 c 0,-2.433 -2.425,-4.449 -4.851,-4.449 h -46.543 c -2.434,0 -4.453,2.016 -4.453,4.449 v 0 c 0,2.426 2.019,4.454 4.453,4.454"
         style="fill:#9f8c50;fill-opacity:1;fill-rule:nonzero;stroke:none"
         id="path50" />
      <path
         d="m 482.02,891.547 h 11.335 c 2.833,0 4.86,-2.024 4.86,-4.856 v -44.523 c 0,-2.832 -2.027,-4.859 -4.86,-4.859 H 482.02 c -2.832,0 -4.852,2.027 -4.852,4.859 v 44.523 c 0,2.832 2.02,4.856 4.852,4.856"
         style="fill:#9f8c50;fill-opacity:1;fill-rule:nonzero;stroke:none"
         id="path52" />
      <path
         d="m 546.777,597.727 c -19.828,0 -39.257,0 -59.086,0 -2.832,0 -4.859,-2.43 -4.859,-4.856 v 0 c 0,-2.437 2.027,-4.863 4.859,-4.863 19.829,0 39.258,0 59.086,0 2.832,0 4.86,2.426 4.86,4.863 v 0 c 0,2.426 -2.028,4.856 -4.86,4.856"
         style="fill:#9f8c50;fill-opacity:1;fill-rule:nonzero;stroke:none"
         id="path54" />
      <path
         d="m 560.941,584.77 c -19.425,0 -39.257,0 -59.086,0 -2.429,0 -4.859,-2.02 -4.859,-4.852 v 0 c 0,-2.43 2.43,-4.855 4.859,-4.855 19.829,0 39.661,0 59.086,0 2.832,0 4.86,2.425 4.86,4.855 v 0 c 0,2.832 -2.028,4.852 -4.86,4.852"
         style="fill:#9f8c50;fill-opacity:1;fill-rule:nonzero;stroke:none"
         id="path56" />
      <path
         d="m 430.219,623.219 h 28.73 c 0,0 0,0 0.41,0 h 29.95 0.402 28.734 c 2.43,0 4.86,-2.024 4.86,-4.449 v 0 c 0,-2.832 -2.43,-4.852 -4.86,-4.852 h -29.136 -29.95 -29.14 c -2.43,0 -4.86,2.02 -4.86,4.852 v 0 c 0,2.425 2.43,4.449 4.86,4.449"
         style="fill:#9f8c50;fill-opacity:1;fill-rule:nonzero;stroke:none"
         id="path58" />
      <path
         d="m 416.055,610.273 c 19.019,0 38.043,0 57.058,0 0,0 0,0 0.41,0 v 0 c 0,0 0.403,0 0.809,0 v 0 c 0.402,0 0.402,0 0.809,0 v 0 0 c 19.425,0 38.449,0 57.472,0 2.426,0 4.86,-2.031 4.86,-4.457 v 0 c 0,-2.832 -2.434,-4.855 -4.86,-4.855 -19.023,0 -38.449,0 -57.472,0 -0.407,0 -0.407,0 -0.809,0 v 0 c -0.406,0 -0.809,0 -0.809,0 -19.425,0 -38.449,0 -57.468,0 -2.836,0 -4.86,2.023 -4.86,4.855 v 0 c 0,2.426 2.024,4.457 4.86,4.457"
         style="fill:#9f8c50;fill-opacity:1;fill-rule:nonzero;stroke:none"
         id="path60" />
      <path
         d="m 401.891,597.727 c 19.422,0 39.254,0 59.086,0 2.425,0 4.859,-2.43 4.859,-4.856 v 0 c 0,-2.437 -2.434,-4.863 -4.859,-4.863 -19.832,0 -39.664,0 -59.086,0 -2.832,0 -4.86,2.426 -4.86,4.863 v 0 c 0,2.426 2.028,4.856 4.86,4.856"
         style="fill:#9f8c50;fill-opacity:1;fill-rule:nonzero;stroke:none"
         id="path62" />
      <path
         d="m 387.32,584.77 c 19.828,0 39.657,0 59.493,0 2.425,0 4.453,-2.02 4.453,-4.852 v 0 c 0,-2.43 -2.028,-4.855 -4.453,-4.855 -19.836,0 -39.665,0 -59.493,0 -2.433,0 -4.453,2.425 -4.453,4.855 v 0 c 0,2.832 2.02,4.852 4.453,4.852"
         style="fill:#9f8c50;fill-opacity:1;fill-rule:nonzero;stroke:none"
         id="path64" />
      <path
         d="m 482.426,525.723 c 0,2.785 0,5.41 0,7.246 h 67.183 v -6.551 l 6.375,-11.594 h -79.933 l 6.375,10.899"
         style="fill:#9f8c50;fill-opacity:1;fill-rule:nonzero;stroke:none"
         id="path66" />
      <path
         d="m 472.617,514.824 h -79.941 l 6.383,11.25 v 6.895 h 67.175 c 0,-1.758 0,-4.246 0,-6.895 l 6.383,-11.25"
         style="fill:#9f8c50;fill-opacity:1;fill-rule:nonzero;stroke:none"
         id="path68" />
      <path
         d="m 456.527,891.547 h 11.328 c 2.833,0 4.86,-2.024 4.86,-4.856 v -44.523 c 0,-2.832 -2.027,-4.859 -4.86,-4.859 h -11.328 c -2.836,0 -4.855,2.027 -4.855,4.859 v 44.523 c 0,2.832 2.019,4.856 4.855,4.856"
         style="fill:#9f8c50;fill-opacity:1;fill-rule:nonzero;stroke:none"
         id="path70" />
      <path
         d="m 443.98,683.926 v 49.375 h -41.285 l -2.019,-55.039 -3.645,-1.621 v -10.114 h 31.973 z m 60.708,0 14.976,-17.399 h 31.973 v 10.114 l -3.645,1.621 -2.429,55.039 h -40.875 v -49.375 z m -98.75,66.371 h 42.492 l -27.516,25.5 -7.293,18.207 -10.519,-9.707 v -1.621 h 2.836 v -32.379 z m 46.136,0 h 44.52 l -22.262,32.785 -22.258,-32.785 z m 48.16,0 h 42.496 v 32.379 h 2.833 v 1.621 l -10.524,9.707 -7.285,-18.207 -27.52,-25.5 z m -69.613,36.832 1.621,-3.641 16.188,-14.972 25.902,38.449 25.902,-38.449 16.188,14.972 2.832,7.285 c 0,56.661 0,121.821 0,174.836 h -10.113 v 71.231 h -44.524 v -53.832 h 32.785 v -17.399 h -66.781 v -178.48 z m 23.07,-53.828 v -69.606 h -9.711 v 0.407 l -4.046,-3.649 6.879,-10.121 V 625.25 h -10.524 v 13.348 l -6.879,9.718 h -35.211 l -8.094,12.543 v 10.52 l -13.355,-6.477 v -33.988 h 48.969 V 613.918 H 372.75 v -42.094 c 0.402,0 0.402,0 0.402,0 h 59.493 c 2.429,0 4.457,-2.027 4.457,-4.859 v 0 c 0,-2.43 -2.028,-4.449 -4.457,-4.449 h -59.493 c 0,0 0,0 -0.402,0 v -6.887 h 48.164 c 2.832,0 4.852,-2.016 4.852,-4.852 v 0 c 0,-2.425 -2.02,-4.453 -4.852,-4.453 h -72.445 c -2.434,0 -4.86,2.028 -4.86,4.453 v 0 c 0,2.836 2.426,4.852 4.86,4.852 h 12.543 v 103.609 l -2.832,-1.211 h -22.668 l -1.621,-21.043 h 10.125 l -12.957,-96.328 v -7.687 h 44.523 v -6.895 l 6.375,-11.25 h -81.582 v 31.426 h 12.547 l 10.93,72.184 h -8.907 l 2.832,51.66 c 0,3.234 4.86,6.066 8.907,6.066 h 28.257 l 26.375,13.375 3.645,42.223 h -5.258 v 32.633 h 8.094 v 0.152 h -2.836 v 28.605 l 27.519,27.497 c 0,49.378 0,70.566 0,124.8 -1.617,0 -3.64,0 -5.257,0 0,9.715 0,28.586 0,38.305 14.164,0 28.328,0 42.496,0 v 76.49 h 42.492 l 2.047,38.85 h 20.855 l 1.641,-38.85 h 7.687 c 0,-25.5 0,-50.99 0,-76.49 6.071,0 12.145,0 18.215,0 0,-9.719 0,-28.59 0,-38.305 -1.621,0 -3.238,0 -5.258,0 V 817.844 l 26.301,-26.285 v -27.016 h -1.234 l -1.598,-0.152 h 8.098 v -32.633 h -3.668 l 2.047,-42.223 25.976,-13.375 h 30.258 c 3.645,0 8.902,-2.832 8.902,-6.066 l 1.243,-51.66 h -8.91 l 10.929,-72.184 h 12.145 v -31.426 h -81.184 l 6.383,11.25 v 6.895 h 44.516 v 7.687 l -12.954,96.328 h 9.715 l -1.215,21.043 h -22.66 l -2.836,1.211 V 555.629 h 12.547 c 2.43,0 4.449,-2.016 4.449,-4.852 v 0 c 0,-2.425 -2.019,-4.453 -4.449,-4.453 h -72.851 c -2.426,0 -4.453,2.028 -4.453,4.453 v 0 c 0,2.836 2.027,4.852 4.453,4.852 h 48.57 v 6.887 c -0.406,0 -0.406,0 -0.406,0 H 516.02 c -2.43,0 -4.454,2.019 -4.454,4.449 v 0 c 0,2.832 2.024,4.859 4.454,4.859 h 59.492 c 0,0 0,0 0.406,0 v 42.094 h -49.375 v 16.996 h 49.375 v 33.988 l -13.359,6.477 v -10.52 l -8.09,-12.543 h -35.215 l -6.883,-9.718 V 625.25 h -10.922 v 25.082 l 7.281,10.121 -4.042,3.649 v -0.407 h -9.711 v 69.606 h -41.286 v 0"
         style="fill:#9f8c50;fill-opacity:1;fill-rule:nonzero;stroke:none"
         id="path72" />
      <path
         d="m 821.879,951.914 c 0.098,2.266 0.012,4.738 0.344,6.918 0.222,0.699 0.566,1.773 0.566,1.773 0,0 0.566,1.661 0.867,2.575 0.645,0.711 2.266,2.535 2.266,2.535 0.012,0 1.613,1.105 2.187,1.508 1.133,0.222 3.059,0.609 3.059,0.609 2.996,0.273 6.133,0.266 9.609,-0.055 1.61,-0.437 2.852,-1.105 4.297,-2.203 0.809,-1.359 1.375,-2.761 1.66,-4.574 -0.019,-3.895 -0.195,-5.852 -1.574,-7.23 -2.676,-2.418 -8.875,-2.418 -13.867,-2.418 0,0 -5.527,0.328 -9.414,0.562 z m -3.563,-44.062 c 0.86,0.031 19.18,0.738 19.891,0.765 0.813,-0.137 5.195,-0.867 6.035,-1.004 0.879,-0.39 3,-1.332 3,-1.332 1.446,-0.855 2.071,-1.511 3.055,-2.961 0.324,-0.746 0.957,-2.23 0.957,-2.23 0.363,-1.254 0.547,-2.36 0.547,-3.61 0,-1.14 -0.156,-2.41 -0.477,-4.035 0,0 -0.879,-3.082 -1.183,-4.183 -0.078,-0.098 -0.203,-0.262 -0.203,-0.262 0,0 -1.368,-1.691 -1.719,-2.137 -0.578,-0.359 -2.774,-1.769 -3.059,-1.953 -0.555,-0.191 -1.336,-0.461 -1.336,-0.461 0,0 -3.879,-1.187 -3.906,-1.191 0,0.035 -5.605,-0.223 -6.914,-0.278 -0.734,0.168 -5.559,1.297 -5.598,1.301 0,0.043 -3.281,1.793 -3.281,1.793 0,0 -0.098,0.059 -0.137,0.082 -0.488,0.594 -2.48,2.996 -2.48,2.996 0,0.008 -1.504,3.7 -1.504,3.7 0,0 -0.137,0.429 -0.262,0.8 -0.117,0.743 -0.742,4.805 -0.742,4.805 0,0.176 -0.5,6.969 -0.684,9.395 z m 63.563,-10.641 -0.399,-4.453 -0.41,-4.453 -1.211,-4.043 -1.211,-4.047 -2.023,-3.645 -2.031,-3.242 -2.43,-3.234 -2.832,-2.832 -3.234,-2.832 -3.641,-2.024 -4.043,-2.023 -4.055,-1.617 -4.453,-1.621 -4.863,-0.805 -5.254,-0.406 -5.664,-0.407 -4.863,0.407 -4.852,0.406 -4.445,0.805 -4.051,1.621 -4.055,1.617 -3.632,2.023 -3.243,2.43 -3.23,2.832 -2.434,2.832 -2.429,3.238 -2.024,3.641 -1.621,4.051 -1.621,4.043 -0.809,4.453 -0.8,4.859 v 2.832 h 12.136 c 0.403,-2.832 0.813,-5.262 1.211,-8.094 l 1.223,-3.238 1.211,-3.238 1.621,-2.832 1.609,-2.434 2.032,-2.426 2.421,-2.027 2.434,-2.015 2.832,-1.622 2.832,-1.214 3.231,-0.809 3.652,-0.809 3.234,-0.406 h 3.641 3.644 l 3.641,0.406 3.242,0.403 3.235,1.215 2.832,1.214 2.832,1.215 2.429,1.617 2.434,2.024 2.02,2.023 1.621,2.43 1.621,2.832 1.211,2.836 1.211,2.832 0.812,3.234 0.41,3.243 v 3.234 3.238 l -0.41,2.832 -0.812,2.832 -0.809,2.832 -1.613,2.434 -1.219,2.426 -2.023,2.425 -2.02,1.622 -2.031,2.027 -2.832,1.211 -2.422,1.621 -3.242,0.805 -3.235,0.808 -3.242,0.813 h -3.242 l -4.043,0.406 c -2.02,0 -4.453,-0.406 -6.875,-0.406 v 9.308 c 3.234,0 6.875,0 10.117,0.41 l 3.235,0.403 2.832,0.402 3.242,0.809 2.429,0.812 2.434,1.211 2.422,1.621 2.019,1.617 1.622,2.024 1.613,2.023 0.82,2.43 1.211,2.43 0.398,2.832 0.411,2.832 v 3.234 2.832 l -0.411,2.832 -0.398,2.438 -0.812,2.422 -1.219,2.429 -1.211,2.024 -1.621,2.027 -1.614,2.02 -2.031,1.218 -2.019,1.621 -2.422,0.805 -2.434,1.215 -2.832,0.406 -2.832,0.805 h -2.832 l -3.242,0.406 -3.641,-0.406 -3.234,-0.399 -3.242,-0.406 -2.832,-1.215 -2.832,-1.211 -2.422,-1.222 -2.43,-2.016 -2.031,-2.027 -2.024,-2.426 -1.621,-2.434 -1.211,-2.832 -1.218,-2.832 -0.801,-3.242 c -0.402,-2.426 -0.813,-4.847 -0.813,-7.683 h -11.738 v 2.836 l 0.813,4.847 0.808,4.055 1.211,4.047 1.621,4.043 2.024,3.238 2.031,3.242 2.422,2.832 2.832,2.426 3.242,2.434 3.23,2.015 3.653,1.621 4.043,1.215 4.043,0.813 4.453,0.804 h 4.453 5.254 l 4.863,-0.804 4.453,-0.407 4.055,-1.214 3.633,-1.211 3.64,-1.621 3.243,-2.028 2.832,-2.015 2.433,-2.434 2.02,-2.426 1.613,-2.832 1.629,-3.242 1.203,-3.238 0.809,-3.637 0.41,-3.648 0.41,-4.043 v -2.43 l -0.41,-2.024 -0.41,-2.027 -0.399,-2.023 -0.41,-2.024 -0.801,-2.019 -0.812,-1.621 -0.809,-1.621 -0.812,-1.618 -1.211,-1.215 -1.219,-1.21 -1.613,-1.622 -1.621,-0.808 -1.621,-1.219 -1.622,-1.211 -8.906,-4.047 9.719,-3.644 2.031,-1.215 2.422,-1.211 2.02,-1.219 1.621,-1.613 2.031,-1.621 1.203,-2.027 1.629,-1.614 1.203,-2.023 0.82,-2.426 1.211,-2.027 0.399,-2.426 0.812,-2.84 0.41,-2.426 0.399,-2.832 z m 16.074,7.926 -1.336,7.562 -2.304,7.399 -3.731,6.519 -4.582,5.957 c 0,0 -0.828,0.746 -0.965,0.871 0.848,1.063 2.344,2.926 2.344,2.926 l -0.098,0.035 3.535,8.008 c 0.079,0.242 2.254,9.484 2.254,9.484 l 0.149,0.629 -0.098,0.157 v 11.39 l -0.891,5.309 c -0.117,0.547 -1.328,4.996 -1.328,4.996 -0.136,0.453 -1.765,4.902 -1.765,4.902 -0.246,0.574 -2.266,4.625 -2.266,4.625 -0.207,0.383 -2.637,4.426 -2.637,4.426 l -0.168,0.289 -3.359,4.317 -4.031,3.574 c -0.274,0.238 -3.926,3.068 -3.926,3.068 l -0.266,0.2 -4.324,2.61 c -0.566,0.29 -5.019,2.32 -5.019,2.32 -0.539,0.2 -5.391,1.83 -5.391,1.83 l -5.324,1.77 -5.711,0.88 c -0.461,0.05 -6.125,0.45 -6.125,0.45 -0.02,0 -6.492,0.43 -6.492,0.43 l -5.84,-0.44 -5.84,-0.83 c -0.469,-0.09 -5.742,-1.31 -5.742,-1.31 -0.5,-0.14 -5.363,-1.76 -5.363,-1.76 -0.536,-0.21 -4.989,-2.24 -4.989,-2.24 -0.371,-0.18 -4.824,-2.61 -4.824,-2.61 -0.527,-0.32 -4.57,-3.153 -4.57,-3.153 l -0.403,-0.289 -3.984,-3.985 c -0.223,-0.234 -3.457,-3.883 -3.457,-3.883 -0.184,-0.218 -3.731,-4.644 -3.731,-4.644 l -2.664,-4.891 c -0.246,-0.512 -2.277,-5.371 -2.277,-5.371 -0.195,-0.516 -1.805,-5.773 -1.805,-5.773 l -0.117,-0.391 -0.871,-5.66 c -0.019,-0.059 -0.82,-5.723 -0.82,-5.723 -0.059,-0.637 -0.457,-15.207 -0.457,-15.207 l -0.168,-5.73 c 0,0 29.601,0 35.781,0 0,-9.102 0,-23.032 0,-24.055 -1.387,0 -39.012,0 -39.012,0 l 0.555,-20.707 c 0.059,-0.629 0.871,-6.305 0.871,-6.305 0.086,-0.468 1.297,-5.726 1.297,-5.726 0.109,-0.379 1.719,-5.645 1.719,-5.645 0.187,-0.508 2.207,-5.359 2.207,-5.359 l 0.156,-0.348 3.02,-5.176 c 0.253,-0.386 3.085,-4.437 3.085,-4.437 l 0.184,-0.274 3.867,-4.304 c 0.207,-0.215 4.278,-4.289 4.278,-4.289 l 4.98,-3.164 c 0.176,-0.11 5.352,-3.133 5.352,-3.133 l 5.207,-2.168 c 0.496,-0.18 5.769,-1.801 5.769,-1.801 0.383,-0.101 5.637,-1.312 5.637,-1.312 0.527,-0.094 6.59,-0.911 6.59,-0.911 l 0.371,-0.046 h 12.883 l 6.433,0.863 c 0.442,0.066 6.106,1.289 6.106,1.289 0.359,0.09 6.023,1.703 6.023,1.703 0.469,0.16 5.735,2.188 5.735,2.188 0.488,0.214 5.339,2.648 5.339,2.648 0.5,0.277 4.954,3.109 4.954,3.109 0.488,0.352 4.539,3.59 4.539,3.59 0.468,0.414 4.113,4.059 4.113,4.059 0.398,0.453 3.64,4.5 3.64,4.5 0.352,0.488 3.184,4.941 3.184,4.941 0.274,0.496 2.707,5.356 2.707,5.356 0.223,0.5 2.246,5.757 2.246,5.757 l 0.137,0.372 1.309,5.636 c 0.078,0.403 0.878,5.672 0.878,5.672 l 0.067,0.414 v 6.094 c -0.008,0.309 -0.43,7.926 -0.43,7.926"
         style="fill:#9f8c50;fill-opacity:1;fill-rule:nonzero;stroke:none"
         id="path74" />
      <path
         d="m 635.004,859.57 h -12.137 v 100.371 h -32.785 v 8.102 c 3.238,0 6.07,0.398 9.309,0.805 l 3.64,0.804 3.645,1.223 3.234,1.211 2.84,1.215 2.832,2.019 2.426,2.024 2.027,2.027 2.02,2.426 1.617,2.832 1.215,3.238 c 0.812,2.43 1.621,4.86 2.023,7.285 h 8.094 z m -22.156,152.5 -2.368,-14.82 c 0,0.027 -1.132,-3.523 -1.527,-4.746 -0.008,-0.016 -1.941,-2.352 -2.336,-2.832 -0.566,-0.356 -3.609,-2.274 -3.621,-2.277 -0.105,-0.012 -6.426,-1.696 -6.426,-1.696 -5.828,-1.156 -11.652,-1.156 -17.82,-1.156 h -5.574 v -41.508 c 0,0 25.094,0 32.777,0 0,-9.945 0,-99.965 0,-99.965 h 45.555 v 169 h -38.66"
         style="fill:#9f8c50;fill-opacity:1;fill-rule:nonzero;stroke:none"
         id="path76" />
      <path
         d="m 730.426,943.137 c -0.371,-0.696 -1.36,-2.532 -1.867,-3.453 -0.711,-0.582 -2.567,-2.106 -3.047,-2.5 -0.633,-0.289 -3.145,-1.45 -3.856,-1.782 -0.097,-0.011 -0.265,-0.039 -0.265,-0.039 l -5.848,-0.597 -4.094,0.468 c 0,0 -0.379,0.075 -0.761,0.137 -0.536,0.242 -1.102,0.488 -1.102,0.488 l -2.023,1.016 c -0.008,0.016 -2.528,2.535 -2.528,2.535 -0.012,0.016 -2.109,3.973 -2.109,3.973 0,0.164 -1.074,5.062 -1.231,5.758 0,0.703 0,2.304 0,2.304 l 0.606,5.899 c 0,0 0.027,0.199 0.047,0.386 0.246,0.594 1.32,3.329 1.32,3.329 0,0 0.332,0.812 0.586,1.425 0.215,0.258 2.117,2.551 2.469,2.969 0.625,0.422 3.625,2.457 3.625,2.457 -0.422,-0.195 3.574,0.621 3.574,0.621 l 0.926,0.074 3.613,0.024 c 0,0 0.949,-0.035 1.758,-0.059 1.035,-0.347 3.683,-1.23 4.386,-1.461 0.215,-0.195 2.254,-2.011 2.254,-2.011 l 0.528,-0.594 c 0,0 2.031,-2.762 2.5,-3.387 0.168,-0.656 1.054,-4.207 1.054,-4.207 l 0.176,-0.894 c 0,0.019 0,0.004 0,-0.055 0,-0.617 0.246,-6.016 0.285,-6.984 -0.136,-0.817 -0.773,-4.59 -0.976,-5.84 z m 16.679,18.832 -0.8,3.23 -1.223,3.242 -1.609,2.832 -1.621,2.434 -2.024,2.426 -2.43,2.027 -2.433,2.016 -2.832,1.621 -2.832,1.211 -2.832,1.222 -3.242,0.805 -3.231,0.406 h -3.644 -3.231 l -3.652,-0.406 -2.832,-0.805 -3.235,-1.222 -2.832,-1.211 -2.429,-1.621 -2.434,-2.016 -2.019,-2.027 -2.024,-2.426 -2.023,-2.832 -1.211,-2.832 -1.219,-2.844 -1.211,-3.23 -0.402,-3.239 -0.41,-3.64 -0.407,-3.645 0.407,-3.64 0.41,-3.645 0.402,-3.238 1.211,-3.234 1.219,-2.833 1.211,-2.832 1.613,-2.839 2.023,-2.02 2.43,-2.027 2.031,-2.024 2.832,-1.621 2.422,-1.211 3.242,-0.808 2.832,-0.813 3.243,-0.402 3.234,-0.406 3.641,0.406 3.234,0.402 3.641,0.813 2.843,0.808 3.231,1.211 2.433,1.621 2.832,2.024 2.02,2.027 2.023,2.02 2.032,2.839 1.211,2.832 1.621,2.833 0.8,3.234 0.809,3.238 0.41,3.645 v 3.64 3.645 l -0.41,3.64 -0.809,3.239"
         style="fill:#9f8c50;fill-opacity:1;fill-rule:nonzero;stroke:none"
         id="path78" />
      <path
         d="m 701.703,892.129 c 5.012,-0.863 9.953,-1.305 14.649,-1.305 4.043,0.235 7.871,0.852 11.535,1.77 -1.614,-3.645 -3.782,-6.813 -7.121,-8.813 -4.911,-2.437 -10.528,-1.457 -13.407,-0.633 -1.906,0.731 -2.726,1.399 -4.082,3.02 0,0.082 -1.054,1.863 -1.066,1.883 v 0.008 c 0,0.156 -0.254,2.097 -0.508,4.07 z m 62.004,30.582 -0.402,-8.906 -1.219,-8.098 -0.813,-3.637 -0.808,-3.648 -0.813,-3.637 -1.211,-3.238 -0.808,-3.242 -1.211,-3.235 -1.621,-2.832 -1.211,-2.832 -1.621,-2.429 -1.621,-2.43 -1.614,-2.43 -1.629,-2.023 -2.023,-2.02 -1.609,-1.621 -2.032,-2.023 -2.023,-1.211 -2.422,-1.621 -2.031,-1.215 -2.43,-1.211 -2.422,-0.813 -2.422,-0.808 -2.843,-0.813 -2.832,-0.398 -2.832,-0.406 -2.832,-0.407 h -2.832 -4.864 l -4.441,0.813 -4.055,0.805 -4.043,0.816 -3.242,1.609 -3.637,1.621 -2.832,2.028 -2.832,2.019 -2.426,2.43 -1.621,2.832 -2.027,2.828 -1.215,3.242 -1.211,3.239 -1.211,3.636 -0.41,4.055 v 0.805 h 11.735 l 0.41,-2.832 0.808,-2.426 0.805,-2.434 1.219,-2.425 1.211,-2.02 1.613,-2.023 2.023,-1.622 2.032,-1.617 2.019,-1.621 2.434,-0.808 2.422,-1.215 2.839,-0.809 2.832,-0.402 2.833,-0.406 h 2.832 2.433 l 3.633,0.406 4.051,0.808 3.644,1.618 3.242,1.617 1.61,1.219 2.832,2.425 2.832,2.832 2.433,3.239 2.02,3.636 1.621,4.055 c 1.211,2.426 1.621,4.453 2.434,6.879 0.8,2.43 1.211,4.859 2.019,7.691 0.41,2.832 0.813,5.664 1.211,8.496 0.403,6.075 0.813,12.547 1.223,19.024 l -7.695,-9.309 -3.235,-3.234 -1.621,-1.219 -3.242,-2.43 -2.02,-1.21 -3.644,-1.622 -4.453,-1.621 -4.453,-0.804 -2.422,-0.407 h -4.852 -4.465 l -4.441,0.813 -4.055,0.808 -4.043,1.211 -3.64,1.622 -3.239,2.027 -3.238,2.426 -2.832,2.832 -2.426,2.832 -2.027,3.238 -2.02,3.641 -1.621,3.644 -1.211,4.043 -1.218,4.453 -0.403,4.86 -0.406,4.855 0.406,4.859 0.403,4.856 1.218,4.047 1.211,4.453 2.02,3.637 2.027,3.648 2.027,3.238 2.426,3.231 3.235,2.844 3.234,2.425 3.645,2.02 4.05,1.617 4.043,1.223 4.453,1.211 4.856,0.804 h 4.863 3.231 l 2.433,-0.402 h 2.832 l 2.422,-0.402 2.832,-0.813 2.43,-0.808 2.023,-0.813 2.43,-0.805 2.023,-0.812 2.032,-1.215 2.019,-1.621 2.024,-1.211 1.621,-1.621 2.019,-1.621 1.614,-1.61 1.628,-2.027 1.204,-2.027 1.628,-2.024 1.211,-2.429 1.211,-2.422 1.211,-2.426 0.813,-2.844 2.019,-5.664 1.223,-6.066 1.219,-6.883 0.402,-7.285 0.398,-7.688 z m 16.902,17.644 c -0.019,0.313 -0.632,6.231 -0.632,6.231 l -0.606,5.82 c -0.051,0.36 -2.773,12.571 -2.773,12.571 L 776,967.363 c -0.195,0.606 -2.059,5.379 -2.059,5.379 l -1.925,4.914 -0.235,0.434 -5.066,8.875 -2.149,2.687 -4.609,5.403 -7.734,6.365 -8.996,4.93 c -0.047,0.03 -9.161,3.47 -9.161,3.47 -0.175,0.06 -10.527,1.8 -10.527,1.8 -0.379,0.02 -7.266,0.43 -7.266,0.43 l -0.359,0.02 -6.203,-0.44 -6.231,-0.83 c -0.527,-0.09 -5.789,-1.31 -5.789,-1.31 -0.382,-0.1 -5.644,-1.72 -5.644,-1.72 l -0.442,-0.13 -10.781,-5.4 -4.191,-3.728 c -0.028,-0.02 -4.074,-3.664 -4.074,-3.664 -0.215,-0.2 -4.168,-4.153 -4.168,-4.153 l -3.707,-5.097 -2.598,-4.774 c -0.254,-0.519 -2.277,-5.379 -2.277,-5.379 -0.063,-0.14 -2.243,-5.812 -2.243,-5.812 l -1.3,-6.094 c -0.071,-0.379 -0.875,-6.043 -0.875,-6.043 l -0.059,-0.391 V 944.98 l 0.863,-6.058 c 0.071,-0.383 1.282,-6.047 1.282,-6.047 0.164,-0.598 1.785,-5.457 1.785,-5.457 0.086,-0.234 2.304,-6.016 2.304,-6.016 l 3.137,-4.922 c 0.137,-0.207 2.969,-4.253 2.969,-4.253 0.215,-0.289 3.449,-4.332 3.449,-4.332 l 0.297,-0.372 c 0,0 2.016,-1.785 3.051,-2.707 -6.035,0 -18.5,0 -18.5,0 l 0.59,-19.082 0.875,-5.222 c 0.086,-0.438 1.3,-5.293 1.3,-5.293 0.172,-0.551 1.789,-5.004 1.789,-5.004 l 0.114,-0.305 2.168,-4.336 c 0.199,-0.363 2.625,-4.418 2.625,-4.418 l 0.269,-0.449 3.586,-4.027 c 0.227,-0.242 3.465,-3.477 3.465,-3.477 0.238,-0.223 3.883,-3.461 3.883,-3.461 l 0.285,-0.258 4.25,-2.839 4.359,-2.176 c 0.352,-0.16 5.203,-2.184 5.203,-2.184 l 0.387,-0.16 10.578,-2.648 5.731,-0.446 9.726,-0.011 7.864,0.824 3.23,0.472 0.383,0.086 3.242,0.813 c 0.606,0.187 10.156,3.926 10.156,3.926 0.301,0.136 7.715,4.918 7.715,4.918 l 1.824,1.332 c 0.332,0.261 7.942,7.422 7.942,7.422 l 0.359,0.347 0.274,0.406 1.925,2.606 4.344,6.187 c 0.254,0.45 1.789,3.45 1.789,3.45 l 3.438,6.945 c 1.511,3.414 3.035,7.238 4.011,12.098 0,0.031 2.832,12.152 2.832,12.152 0.051,0.301 1.27,8.797 1.27,8.797 0.695,7.926 1.027,14.617 1.027,20.91 0,2.598 -0.058,5.121 -0.168,7.644"
         style="fill:#9f8c50;fill-opacity:1;fill-rule:nonzero;stroke:none"
         id="path80" />
      <path
         d="m 934.34,906.836 c 0.539,0.613 6.523,7.48 6.523,7.48 1.563,1.27 3.879,2.582 6.516,3.575 0.019,-0.02 4.766,1.027 5.742,1.242 0.613,-0.039 4.305,-0.262 5.43,-0.32 0.664,-0.208 1.492,-0.469 1.492,-0.469 l 3.937,-1.43 c 0.418,-0.195 2.774,-1.758 2.774,-1.758 0,0 0.262,-0.207 0.508,-0.394 0.429,-0.625 2.265,-3.274 2.664,-3.856 0.129,-0.386 0.265,-0.773 0.265,-0.773 l 1.297,-4.535 c 0,-0.243 0.254,-5.508 0.313,-6.7 -0.176,-0.785 -1.309,-5.937 -1.309,-5.976 -0.039,0.043 -1.64,-2.82 -1.64,-2.82 0,0 -0.34,-0.539 -0.653,-1.047 -0.597,-0.547 -3.457,-3.16 -3.457,-3.16 0.477,0.316 -3.828,-1.43 -3.828,-1.43 -0.117,-0.027 -3.488,-0.805 -4.797,-1.106 -0.957,0 -4.219,0 -4.219,0 -2.234,0.286 -4.218,0.989 -6.609,1.871 -0.715,0.594 -1.555,1.293 -1.555,1.293 -1.757,1.504 -2.625,3.125 -3.914,5.668 -0.265,1.446 -2.707,14.645 -2.707,14.645 0,0 -1.445,0 -2.773,0 z m 67.34,-10.027 -0.41,-4.856 -1.22,-4.453 -1.609,-4.453 -1.621,-4.047 -2.429,-4.051 -2.422,-3.234 -2.832,-3.238 -3.242,-2.832 -3.645,-2.836 -4.043,-2.016 -4.051,-2.027 -4.453,-1.215 -4.445,-1.211 -5.262,-0.406 -5.266,-0.407 -4.453,0.407 -4.453,0.406 -4.453,0.805 -4.043,1.214 -3.64,1.618 -3.645,1.621 -3.242,2.027 -2.832,2.426 -2.832,2.426 -2.43,2.836 -2.023,3.234 -2.02,3.234 -1.621,3.649 -1.211,3.64 -1.223,4.856 h 12.551 c 0.41,-2.024 1.219,-3.641 2.031,-5.664 l 0.801,-2.43 1.621,-2.426 1.621,-2.027 1.621,-2.024 2.02,-1.617 2.023,-1.621 2.43,-1.617 2.434,-1.215 2.832,-0.808 2.429,-0.809 2.832,-0.406 3.235,-0.403 h 2.832 4.051 l 3.234,0.403 3.641,0.812 3.242,1.211 3.234,1.215 2.832,1.617 2.43,2.028 2.422,2.023 2.433,2.43 1.622,2.832 1.621,2.832 1.621,2.832 0.8,3.238 0.809,3.645 0.813,3.64 v 3.637 3.648 l -0.813,3.645 -0.398,3.641 -1.211,3.238 -1.223,2.832 -1.609,2.832 -2.032,2.832 -2.023,2.43 -2.43,2.023 -2.832,2.027 -2.832,1.621 -2.832,1.211 -3.234,1.211 -3.653,0.813 -3.632,0.402 h -3.653 -2.422 l -4.043,-0.402 -4.05,-0.813 -4.043,-1.617 -3.645,-1.621 -3.64,-2.426 c -2.434,-1.617 -4.454,-3.644 -6.485,-6.07 h -10.918 l 10.117,68.398 h 69.2 v -10.117 h -61.516 l -7.285,-48.969 7.695,6.067 c 1.203,1.211 2.422,2.023 4.043,2.832 1.211,0.808 2.832,1.219 4.453,2.023 1.614,0.407 2.832,0.809 4.446,1.618 2.031,0.41 3.64,0.41 5.261,0.812 2.032,0 4.055,0.402 5.676,0.402 l 5.254,-0.402 4.852,-0.402 4.464,-1.219 4.043,-1.211 4.043,-1.621 3.653,-2.024 3.23,-2.429 3.242,-2.832 2.832,-2.832 2.422,-3.235 2.024,-3.648 1.629,-3.641 1.198,-4.453 1.22,-4.047 0.41,-4.851 0.4,-4.86 z m 16.03,17.441 c -0.06,0.32 -1.27,5.984 -1.27,5.984 -0.13,0.469 -1.75,5.739 -1.75,5.739 l -0.13,0.437 -2.63,5.27 c -0.09,0.175 -2.76,5.058 -2.76,5.058 l -3.54,4.434 c -0.21,0.246 -3.86,4.293 -3.86,4.293 l -0.3,0.336 -8.907,7.129 -10.665,5.328 -5.691,1.758 c -0.469,0.121 -6.144,1.332 -6.144,1.332 l -0.411,0.09 -14.519,0.843 c -2.774,-0.203 -5.488,-0.418 -8.184,-0.789 0.203,1.289 0.235,1.488 0.399,2.586 8.144,0 63.542,0 63.542,0 v 43.932 H 910.66 c 0,0 -14.758,-100.147 -14.914,-101.174 -1.894,0 -4.109,0 -4.109,0 l 2.937,-20.531 c 0.02,-0.129 0.899,-5.41 0.899,-5.41 l 1.757,-5.282 c 0.215,-0.539 2.239,-4.992 2.239,-4.992 0.176,-0.367 2.605,-4.82 2.605,-4.82 0.332,-0.524 3.164,-4.567 3.164,-4.567 l 0.188,-0.265 3.672,-4.133 3.886,-3.453 c 0.282,-0.235 3.926,-3.067 3.926,-3.067 0.43,-0.3 4.883,-3.132 4.883,-3.132 0.312,-0.196 4.766,-2.629 4.766,-2.629 l 0.371,-0.196 4.851,-1.761 c 0.266,-0.094 5.879,-1.821 5.879,-1.821 l 5.227,-0.871 c 0.125,-0.019 6.179,-0.886 6.179,-0.886 h 12.532 l 6.062,0.867 c 0.305,0.054 6.848,1.359 6.848,1.359 l 11.375,4.375 5.246,3.07 c 0.469,0.301 4.93,3.536 4.93,3.536 0.449,0.371 4.491,4.011 4.491,4.011 0.41,0.414 4.05,4.461 4.05,4.461 0.38,0.453 3.62,4.906 3.62,4.906 0.3,0.465 3.13,5.325 3.13,5.325 0.25,0.472 2.68,5.734 2.68,5.734 0.14,0.328 2.16,5.594 2.16,5.594 l 0.16,0.41 1.3,6.098 c 0.08,0.418 0.89,6.492 0.89,6.492 l 0.05,0.367 v 12.945 l -0.88,5.68"
         style="fill:#9f8c50;fill-opacity:1;fill-rule:nonzero;stroke:none"
         id="path82" />
      <path
         d="m 836.547,792.395 c 1.223,-3.649 2.031,-7.293 2.832,-10.93 0.41,-2.832 1.223,-5.668 1.633,-8.5 0.398,-4.449 0.801,-8.902 0.801,-13.356 0,-5.668 -0.403,-11.742 -0.801,-17.808 0,-2.836 -0.41,-6.067 -0.813,-9.313 2.012,1.219 4.043,2.43 6.067,3.246 2.429,1.211 4.851,2.426 7.683,3.637 2.434,0.809 4.864,1.621 7.696,2.027 2.433,0.805 5.265,1.211 7.687,1.622 2.031,0 4.051,0 6.074,0.398 3.242,0 6.883,-0.398 10.117,-0.809 2.84,-0.406 5.672,-0.808 8.094,-1.617 11.328,-2.832 13.762,-14.168 3.645,-9.312 -3.235,0.808 -6.067,1.621 -9.309,2.433 -2.43,0.399 -4.453,0.805 -6.883,0.805 -3.242,0.41 -6.074,0.41 -8.906,0 -2.023,0 -3.633,-0.406 -5.254,-0.406 -2.832,-0.805 -5.664,-1.211 -8.496,-2.426 -2.031,-0.406 -3.652,-1.211 -5.266,-1.617 -3.64,-1.621 -6.882,-3.645 -10.117,-5.668 l -1.218,-0.809 -2.833,-2.429 v 0.406 c -0.8,-4.449 -0.8,-8.496 -1.21,-12.949 0,-12.954 -0.813,-8.903 -0.403,-21.856 2.012,-7.691 -10.125,-7.691 -8.105,0 0,12.953 0.41,8.902 0.82,22.254 0,4.453 0.402,8.906 0.801,13.766 1.222,7.691 2.031,15.781 2.433,23.879 0.399,4.046 0.399,8.093 0.399,12.546 0,4.047 -0.399,8.09 -0.801,12.141 -0.41,2.836 -0.809,5.668 -1.219,8.094 -0.812,3.644 -1.613,6.879 -2.832,10.117 -4.855,9.719 6.473,6.887 7.684,2.434"
         style="fill:#9f8c50;fill-opacity:1;fill-rule:nonzero;stroke:none"
         id="path84" />
      <path
         d="m 684.379,633.746 c 10.527,1.203 21.047,2.02 31.574,2.426 10.918,0.406 21.844,0.406 32.781,0 2.024,0 4.036,-0.406 6.067,-0.406 0.398,0.406 0.808,1.218 1.211,1.621 1.218,1.617 1.621,3.242 2.429,4.855 3.235,8.906 4.454,18.211 4.864,27.524 0.8,8.906 0.8,18.207 0.8,27.109 -0.398,4.047 -0.8,7.695 -1.21,11.738 -0.411,2.426 -0.809,4.86 -1.219,7.692 -0.813,2.019 -1.211,4.047 -2.024,6.066 -0.808,2.024 -1.621,3.645 -2.422,5.266 -0.808,1.617 -2.031,3.238 -3.242,4.449 -0.808,1.215 -2.019,2.426 -3.23,3.648 -1.621,0.805 -2.844,1.614 -4.055,2.426 -1.621,0.805 -3.23,1.617 -4.851,2.02 -2.024,0.812 -4.055,1.218 -5.664,1.218 l -4.454,0.805 c -6.074,0 -6.886,9.715 1.211,7.692 2.02,0 4.453,-0.407 6.883,-0.809 l 2.024,-0.402 4.453,-1.621 4.043,-1.622 3.64,-2.421 3.242,-2.434 3.235,-3.238 2.43,-3.641 2.023,-3.238 c 4.051,1.211 8.094,2.433 12.547,3.644 4.055,0.805 8.086,1.621 12.14,2.02 3.243,0.406 6.473,0.406 9.715,0.406 3.235,0 6.477,0 9.707,-0.406 2.434,-0.399 4.453,-1.215 6.887,-1.621 2.832,-0.805 5.664,-2.024 8.496,-3.231 11.738,-2.836 0,-9.718 -3.234,-7.289 -2.43,1.219 -4.863,2.024 -7.285,2.832 -1.621,0.403 -3.243,0.813 -4.461,0.813 -4.035,0.808 -7.676,1.211 -11.731,1.211 -3.64,-0.403 -7.285,-0.403 -10.926,-1.211 -3.644,-0.41 -7.687,-1.215 -11.328,-2.426 -2.433,-0.816 -4.863,-1.621 -7.695,-2.434 0.809,-1.621 1.219,-3.234 1.621,-4.851 0.399,-2.832 1.211,-5.266 1.609,-8.098 0.411,-3.242 0.411,-6.074 0.821,-9.308 0.402,-8.497 0.402,-16.594 0,-25.09 -0.41,-6.883 -0.821,-14.16 -2.031,-21.043 -1.211,-7.696 -3.231,-15.789 -7.684,-22.27 2.832,-2.832 4.852,-6.461 6.473,-10.109 l 1.621,-4.457 1.211,-4.852 c 0.812,-2.836 1.222,-5.258 1.222,-8.09 0.399,-3.242 0.801,-6.074 0.801,-8.906 0,-3.238 -0.402,-6.48 -0.402,-10.121 -0.399,-3.648 -0.809,-6.887 -1.211,-10.519 -0.41,-4.051 -1.219,-8.098 -2.031,-12.141 -0.801,-4.055 -1.622,-8.496 -2.832,-12.551 -1.211,-4.863 -2.422,-9.715 -3.633,-14.16 l -1.629,-4.055 -2.024,-3.64 -2.422,-3.243 c -1.621,-1.613 -2.832,-2.832 -4.05,-4.043 -1.614,-1.21 -2.832,-2.031 -4.043,-3.234 -2.032,-1.219 -3.645,-2.43 -5.266,-3.641 -4.043,-4.05 -12.949,2.422 -4.453,6.473 2.832,2.024 5.664,4.043 8.496,6.477 1.621,1.211 2.844,2.832 4.055,4.441 0.801,1.223 1.621,2.434 2.429,3.649 l 1.211,3.242 c 1.211,4.445 2.422,8.902 3.645,13.351 1.609,6.879 2.832,13.766 4.051,20.242 0.402,3.633 1.211,7.282 1.613,10.926 0,3.235 0.398,6.067 0.398,9.309 0,2.832 0,5.664 -0.398,8.496 0,2.832 -0.402,5.262 -0.813,7.687 -0.398,2.032 -0.8,4.051 -1.621,6.481 -0.398,2.016 -1.211,3.641 -2.019,5.254 l -2.024,3.238 c -0.808,1.629 -1.621,2.832 -2.832,4.055 -12.136,0.812 -24.687,1.207 -36.824,0.812 -8.508,-0.406 -16.601,-0.812 -24.699,-1.629 -2.832,-0.406 -5.656,-0.808 -8.898,-1.203 -7.688,-2.035 -6.473,8.09 -0.809,8.09"
         style="fill:#9f8c50;fill-opacity:1;fill-rule:nonzero;stroke:none"
         id="path86" />
      <path
         d="m 833.316,481.973 c -0.812,3.242 -2.023,6.886 -2.832,10.515 -0.402,2.832 -0.812,6.078 -1.222,8.91 -0.801,5.274 -1.211,10.118 -1.211,15.379 0,5.664 0.41,11.739 0.812,17.801 0.399,2.434 0.399,4.465 0.809,6.891 -2.02,-0.813 -4.043,-2.02 -6.074,-3.242 -1.621,-0.809 -3.633,-1.622 -5.664,-2.422 -3.231,-1.227 -6.075,-2.426 -9.707,-3.235 -2.43,-0.414 -4.864,-0.824 -7.696,-1.222 -2.832,-0.41 -5.261,-0.41 -8.093,-0.41 -2.833,0 -5.254,0.41 -8.086,0.808 -2.032,0 -4.055,0.41 -6.075,0.824 -2.832,0.809 -5.265,1.61 -8.097,2.418 -4.043,0.817 -7.285,12.551 2.832,7.293 2.832,-0.812 5.664,-1.625 8.906,-2.031 2.434,-0.801 4.855,-0.801 7.285,-1.207 2.832,0 5.664,0 8.899,0 1.621,0.406 3.242,0.406 4.863,0.801 3.633,0.406 6.875,1.625 10.515,2.832 2.434,0.812 4.454,1.625 6.887,2.832 2.43,1.222 5.262,2.844 7.684,4.457 l 2.832,2.832 v -1.215 c 0,0.406 0,0.406 0,0.813 0.812,4.457 1.222,9.308 1.222,14.16 0,12.957 -1.222,14.578 -1.621,27.117 -2.023,8.101 10.118,7.695 8.094,0.406 0,-11.734 1.211,-12.551 1.621,-23.879 0,-4.851 -0.41,-9.308 -0.82,-13.754 0,-2.019 0,-3.648 -0.399,-5.257 -1.21,-10.122 -2.433,-20.25 -2.832,-30.36 0,-4.051 0,-8.094 0.399,-12.144 0.41,-4.454 0.82,-8.496 1.633,-12.551 0.8,-4.043 1.609,-7.676 2.832,-11.727 4.851,-9.718 -6.485,-6.886 -7.696,-2.433"
         style="fill:#9f8c50;fill-opacity:1;fill-rule:nonzero;stroke:none"
         id="path88" />
      <path
         d="m 849.098,549.965 c 1.621,-0.809 3.652,-1.613 5.261,-2.02 3.235,-0.812 6.477,-1.621 9.719,-2.031 2.832,-0.406 5.254,-0.406 8.086,-0.406 3.641,0 7.293,0.406 10.926,0.816 4.055,0.809 7.695,1.621 11.34,2.832 2.832,0.407 5.261,1.215 7.683,2.032 -0.8,1.609 -1.211,3.238 -1.609,4.847 -0.41,2.832 -0.813,5.668 -1.633,8.5 -0.398,2.832 -0.398,6.07 -0.801,9.309 -0.398,10.515 -0.398,21.051 0.403,31.566 0.398,4.453 0.808,8.508 1.218,12.953 1.622,8.09 3.235,16.992 8.086,23.879 -2.832,3.238 -4.441,6.481 -6.464,10.516 l -1.622,4.461 -1.218,4.851 c -0.403,2.438 -0.801,5.27 -1.211,8.102 -0.403,2.832 -0.403,5.664 -0.403,8.906 0,3.238 0,6.465 0,9.703 0.403,3.242 0.813,6.883 1.211,10.52 0.801,4.051 1.211,7.691 2.024,11.738 0.808,4.453 2.019,8.504 2.832,12.953 1.621,5.262 2.832,10.926 4.453,16.188 l 2.031,3.644 2.422,3.641 c 1.211,1.621 2.43,2.832 3.641,4.051 1.211,1.211 2.832,2.425 4.043,3.64 2.023,1.621 4.453,3.235 6.476,4.453 4.051,4.047 12.957,-2.429 4.453,-6.472 -2.422,-1.621 -4.855,-3.242 -7.285,-5.27 -1.621,-1.211 -2.832,-2.426 -4.043,-4.043 l -2.023,-2.426 c -0.809,-1.218 -1.621,-2.832 -2.02,-4.05 -1.222,-3.641 -2.031,-7.289 -3.242,-10.926 -1.223,-5.664 -2.832,-11.328 -4.055,-17.004 -0.8,-4.848 -1.609,-9.707 -2.019,-14.973 -0.403,-3.234 -0.813,-6.07 -0.813,-9.297 -0.398,-3.238 -0.398,-6.07 -0.398,-8.902 0.398,-2.84 0.398,-5.273 0.808,-7.699 0.403,-2.426 0.813,-4.852 1.622,-6.883 0.402,-2.019 1.211,-4.043 2.023,-6.059 0.41,-1.625 1.609,-3.242 2.422,-4.867 0.82,-1.207 2.019,-2.422 2.84,-4.047 12.539,-0.8 24.687,-0.8 37.226,-0.398 4.453,0 8.907,0.398 13.36,0.398 6.476,0.809 13.359,1.215 19.836,2.032 8.093,2.015 6.875,-7.696 0.8,-7.696 -10.519,-1.617 -21.046,-2.429 -31.562,-2.832 -9.309,-0.414 -18.613,-0.414 -27.93,0 -3.633,0.403 -7.285,0.403 -10.918,0.809 l -0.41,-0.809 c -1.223,-1.617 -2.023,-2.84 -2.832,-4.449 -3.242,-8.496 -4.453,-17.808 -5.254,-26.715 -0.82,-9.711 -0.82,-19.836 -0.41,-29.543 0,-3.234 0,-6.07 0.41,-9.308 0.399,-2.426 0.801,-5.258 1.199,-7.696 0.411,-2.425 1.223,-4.449 2.032,-6.871 0.402,-2.031 1.211,-3.648 2.023,-5.668 0.809,-1.621 2.02,-3.238 2.832,-4.457 1.211,-1.613 2.02,-2.832 3.242,-4.039 1.61,-0.812 2.832,-2.031 4.043,-2.844 1.621,-0.8 2.832,-1.617 4.453,-2.027 2.02,-0.808 3.641,-1.199 5.664,-1.609 2.02,-0.399 4.051,-0.813 6.075,-0.813 6.062,0 6.882,-10.113 -0.813,-8.093 -2.43,0.41 -4.851,0.808 -6.883,1.21 l -2.422,0.411 -4.453,1.222 -4.054,2.012 -3.641,2.02 -3.234,2.832 -2.832,3.242 -2.832,3.238 -2.032,3.648 c -1.211,-0.41 -2.832,-0.816 -4.043,-1.222 -5.261,-2.02 -10.925,-3.227 -16.589,-4.039 -2.833,-0.41 -5.266,-0.817 -8.098,-0.817 -3.641,-0.402 -7.684,-0.402 -11.328,0 -2.43,0 -4.864,0.407 -7.293,1.223 -2.012,0.406 -3.645,0.801 -5.664,1.207 -2.024,0.816 -4.043,1.625 -6.067,2.426 -12.148,3.238 -0.41,9.719 3.235,7.289"
         style="fill:#9f8c50;fill-opacity:1;fill-rule:nonzero;stroke:none"
         id="path90" />
      <path
         d="m 826.84,666.934 13.359,9.707 c 5.254,6.07 9.309,-5.262 3.235,-6.875 l -13.352,-9.715 c -5.273,-6.477 -9.316,4.851 -3.242,6.883"
         style="fill:#9f8c50;fill-opacity:1;fill-rule:nonzero;stroke:none"
         id="path92" />
      <path
         d="m 826.84,649.926 13.359,9.719 c 5.254,6.07 9.309,-5.258 3.235,-7.282 l -13.352,-9.304 c -5.273,-6.481 -9.316,4.847 -3.242,6.867"
         style="fill:#9f8c50;fill-opacity:1;fill-rule:nonzero;stroke:none"
         id="path94" />
      <path
         d="m 826.84,632.93 13.359,9.312 c 5.254,6.481 9.309,-4.855 3.235,-6.887 l -13.352,-9.304 c -5.273,-6.473 -9.316,4.863 -3.242,6.879"
         style="fill:#9f8c50;fill-opacity:1;fill-rule:nonzero;stroke:none"
         id="path96" />
      <path
         d="m 826.84,615.938 13.359,9.312 c 5.254,6.473 9.309,-4.867 3.235,-6.887 l -13.352,-9.308 c -5.273,-6.477 -9.316,4.863 -3.242,6.883"
         style="fill:#9f8c50;fill-opacity:1;fill-rule:nonzero;stroke:none"
         id="path98" />
      <path
         d="m 834.938,487.637 c -82.571,0 -149.75,67.183 -149.75,149.75 0,82.156 67.179,149.336 149.75,149.336 82.558,0 149.746,-67.18 149.746,-149.336 0,-82.567 -67.188,-149.75 -149.746,-149.75 z m -0.012,332.179 c -100.613,0 -182.426,-82.234 -182.426,-182.414 0,-101.031 81.813,-183.261 182.426,-183.261 101.015,0 183.254,82.23 183.254,183.261 0,100.18 -82.239,182.414 -183.254,182.414"
         style="fill:#9f8c50;fill-opacity:1;fill-rule:nonzero;stroke:none"
         id="path100" />
      <path
         d="m 858.004,1144.5 36.824,-13.36 25.5,70.42 19.031,-86.61 42.891,-15.79 -22.254,92.28 66.774,41.29 -40.875,14.97 -63.946,-42.09 21.043,57.87 -36.824,13.36 -48.164,-132.34"
         style="fill:#9f8c50;fill-opacity:1;fill-rule:nonzero;stroke:none"
         id="path102" />
      <path
         d="m 792.035,1231.91 c -2.019,-11.32 5.664,-22.26 17.395,-24.28 11.336,-2.02 22.675,5.67 24.695,17 2.023,11.74 -6.074,22.67 -17.402,24.69 -11.328,2.02 -22.664,-5.67 -24.688,-17.41"
         style="fill:#9f8c50;fill-opacity:1;fill-rule:nonzero;stroke:none"
         id="path104" />
      <path
         d="m 629.34,1168.78 h 63.937 c 36.426,0 55.047,12.54 55.047,38.45 0,19.43 -11.738,29.95 -34.402,34.4 20.234,4.46 30.351,14.98 30.351,31.57 0,25.09 -20.636,36.42 -62.32,36.42 H 629.34 Z m 37.637,83.77 v 31.57 h 14.976 c 16.188,0 23.871,-5.66 23.871,-15.78 0,-10.93 -7.285,-15.79 -23.871,-15.79 h -14.976 z m 0,-58.28 v 34 h 14.976 c 17.809,0 26.703,-5.26 26.703,-16.59 0,-12.55 -8.496,-17.41 -26.703,-17.41 h -14.976 v 0"
         style="fill:#9f8c50;fill-opacity:1;fill-rule:nonzero;stroke:none"
         id="path106" />
      <path
         d="m 538.277,1227.05 c 2.028,-11.32 12.95,-19.42 24.282,-16.99 11.738,2.02 19.429,12.95 17.406,24.29 -2.027,11.74 -12.953,19.42 -24.688,17.4 -11.332,-2.03 -19.023,-12.95 -17,-24.7"
         style="fill:#9f8c50;fill-opacity:1;fill-rule:nonzero;stroke:none"
         id="path108" />
      <path
         d="m 341.184,1236.77 29.136,-80.54 c 13.356,-35.62 40.067,-46.54 80.133,-31.97 42.09,15.38 57.875,42.09 45.328,75.68 l -29.547,82.16 -35.613,-12.96 28.738,-78.91 c 6.875,-18.62 0.809,-32.78 -16.191,-38.86 -16.59,-6.07 -29.141,0.41 -36.02,19.84 l -28.734,78.92 -37.23,-13.36"
         style="fill:#9f8c50;fill-opacity:1;fill-rule:nonzero;stroke:none"
         id="path110" />
      <path
         d="m 698.949,882.641 c 2.024,-2.426 3.645,-3.641 6.875,-4.86 5.664,-1.613 12.149,-1.613 17.813,1.219 8.097,4.859 10.929,14.164 12.949,22.664 -6.473,-3.242 -13.359,-4.855 -20.234,-5.258 -7.286,0 -14.168,0.403 -21.043,2.832 0.398,-4.453 0.398,-8.504 1.609,-12.953 0.41,-1.215 1.223,-2.426 2.031,-3.644"
         style="fill:#1476c6;fill-opacity:1;fill-rule:nonzero;stroke:none"
         id="path112" />
      <path
         d="m 700.57,936.066 c 1.211,-1.621 2.024,-2.429 3.645,-3.644 1.609,-1.215 3.23,-1.617 4.851,-2.426 2.422,-0.406 4.055,-0.812 6.477,-0.812 2.43,0 4.852,0.406 7.684,0.812 2.031,0.809 3.644,1.617 5.265,2.426 1.621,1.215 2.832,2.433 4.453,3.644 1.211,2.024 2.02,3.645 2.832,5.258 0.411,2.43 0.809,4.86 1.219,7.289 0,2.832 0,5.664 -0.41,8.496 -0.398,2.028 -0.809,4.454 -1.621,6.481 -1.211,2.019 -2.02,3.23 -3.641,4.851 -1.211,1.618 -2.422,2.434 -4.043,3.645 -2.023,0.805 -4.054,1.215 -6.074,2.019 -2.422,0 -4.855,0.407 -7.285,0 -2.024,0 -4.043,-0.398 -6.067,-1.214 -1.621,-0.805 -3.242,-2.016 -4.863,-3.239 -1.211,-1.211 -2.422,-2.425 -3.64,-4.453 -0.813,-2.015 -1.614,-3.636 -2.434,-6.062 -0.398,-2.836 -0.801,-5.266 -0.801,-7.692 v -2.832 c 0.403,-2.836 0.801,-4.859 1.621,-7.289 0.801,-2.023 1.614,-3.636 2.832,-5.258"
         style="fill:#1476c6;fill-opacity:1;fill-rule:nonzero;stroke:none"
         id="path114" />
      <path
         d="m 1013.01,902.07 v -6.074 l -0.81,-6.07 -1.22,-5.664 -2.02,-5.262 -2.42,-5.262 -2.83,-4.855 -3.25,-4.453 -3.64,-4.047 -4.043,-3.645 -4.453,-3.23 -4.851,-2.84 -5.266,-2.02 -5.262,-2.027 -6.074,-1.211 -5.664,-0.816 h -6.477 -5.261 l -5.664,0.816 -4.856,0.805 -5.261,1.617 -4.454,1.621 -4.453,2.434 -4.453,2.832 -3.644,2.832 -3.641,3.242 -3.234,3.637 -2.832,4.047 -2.43,4.449 -2.024,4.453 -1.621,4.859 -0.808,4.856 -2.024,14.16 h 34.407 l 2.011,-10.922 c 1.629,-3.238 2.84,-5.664 5.672,-8.094 l 2.434,-2.023 c 3.23,-1.215 5.664,-2.027 9.304,-2.434 h 4.856 l 5.262,1.219 c 2.023,0.406 4.054,1.215 6.074,2.43 1.613,1.211 2.832,2.429 4.445,4.043 1.219,2.027 2.43,3.648 3.242,5.672 0.809,2.429 1.211,4.851 1.621,7.277 0,2.832 0,5.266 -0.41,8.101 -0.402,2.422 -1.211,4.45 -2.023,6.875 -1.211,2.028 -2.02,3.243 -3.641,5.262 -1.621,1.219 -2.832,2.43 -4.855,3.246 -2.43,1.207 -4.453,1.61 -6.883,2.418 -2.422,0 -4.453,0.414 -6.875,0.414 -2.844,-0.414 -4.856,-0.816 -7.285,-1.625 -3.235,-1.207 -6.067,-2.832 -8.508,-4.855 -2.02,-2.028 -4.043,-4.453 -5.664,-6.477 h -29.141 l 13.36,90.659 h 89.847 v -32.788 h -62.726 l -2.434,-15.375 c 4.863,1.621 9.707,2.024 14.973,2.426 4.453,0 9.305,-0.402 13.769,-0.805 l 5.664,-1.214 5.254,-1.618 4.864,-2.429 4.851,-2.43 4.055,-3.234 4.043,-3.243 3.637,-4.042 3.25,-4.051 2.42,-4.453 2.43,-4.86 1.61,-5.261 1.22,-5.665 0.81,-5.257 z M 834.938,459.707 c -97.54,0 -176.864,79.742 -176.864,177.68 0,97.125 79.324,176.855 176.864,176.855 97.937,0 177.662,-79.73 177.662,-176.855 0,-97.938 -79.725,-177.68 -177.662,-177.68 z M 645.934,848.648 h -34.403 v 99.965 H 578.75 v 30.352 c 6.477,0 12.543,0 18.617,1.211 2.832,0.41 5.262,1.222 7.692,2.027 2.019,0.805 3.636,2.027 5.257,3.238 1.622,1.622 2.434,2.836 3.645,4.454 0.809,2.019 1.621,4.046 2.019,6.472 l 1.622,10.123 h 28.332 z m 14.972,102.391 v 5.664 l 0.813,5.664 1.211,5.676 2.027,5.258 2.02,4.859 2.433,4.449 3.235,4.454 3.64,3.636 4.051,3.649 3.644,3.234 4.852,2.428 4.856,2.43 5.261,1.62 5.266,1.21 6.062,0.82 5.676,0.4 6.875,-0.4 c 3.231,-0.41 6.473,-0.82 9.707,-1.63 2.84,-0.8 5.672,-2.02 8.504,-3.23 2.832,-1.22 5.664,-2.839 8.098,-4.457 2.429,-1.621 4.851,-3.636 6.875,-5.664 2.429,-2.425 4.051,-4.859 6.074,-7.285 1.621,-2.832 3.23,-5.664 4.852,-8.504 1.21,-3.234 2.433,-6.066 3.644,-9.304 1.219,-4.86 2.43,-9.313 3.231,-14.168 0.41,-4.043 0.82,-7.688 1.222,-11.735 0.41,-9.308 0,-18.207 -0.812,-27.519 l -1.211,-8.496 c -0.809,-4.055 -1.621,-8.102 -2.832,-12.145 -0.809,-4.051 -2.032,-7.285 -3.641,-10.926 -1.621,-3.648 -3.234,-6.48 -4.863,-9.714 -2.024,-3.239 -4.043,-5.668 -6.067,-8.504 -2.429,-2.426 -4.851,-4.848 -7.285,-6.875 -2.832,-2.028 -5.261,-4.047 -8.496,-5.664 -2.832,-1.223 -6.074,-2.438 -9.305,-3.649 l -3.242,-0.805 c -3.242,-0.406 -6.886,-1.222 -10.129,-1.222 h -9.297 l -5.261,0.406 -4.856,1.215 -4.863,1.219 -4.852,2.019 -4.043,2.027 -3.644,2.426 -3.641,3.239 -3.242,3.238 -3.238,3.64 -2.426,4.051 -2.027,4.043 -1.617,4.453 -1.215,4.86 -0.813,4.855 -0.398,12.953 h 33.187 l -2.832,1.211 -4.863,2.028 -4.043,2.425 -4.047,3.239 -3.641,3.238 -3.238,4.047 -2.832,4.047 -2.84,4.449 -2.019,5.262 -1.621,4.855 -1.211,5.672 -0.813,5.664 z m 195.477,-47.758 -1.211,2.832 c -1.621,2.434 -2.832,3.649 -5.664,5.266 L 845.863,913 c -2.429,0.398 -4.851,0.805 -7.285,1.215 -7.285,0 -14.168,-0.41 -21.043,-0.817 v 33.188 c 4.442,-0.402 9.305,-0.809 13.758,-0.809 6.074,0 13.352,0 17.805,4.047 3.242,3.242 3.242,7.285 3.242,11.739 -0.41,2.832 -1.223,5.257 -2.832,7.691 -2.434,2.019 -4.465,3.234 -7.695,4.047 -4.043,0.406 -7.688,0.406 -11.731,0 l -4.051,-0.813 c -1.621,-0.808 -2.832,-1.613 -4.054,-2.836 -1.211,-1.211 -2.012,-2.015 -3.231,-3.636 -0.812,-2.028 -1.211,-3.649 -2.023,-6.075 -0.809,-5.257 -0.809,-10.523 -0.809,-16.187 h -33.996 l 0.402,14.57 0.809,5.664 0.812,5.266 1.61,5.258 2.031,4.859 2.434,4.453 3.23,4.043 3.242,3.649 3.645,3.636 4.043,2.832 4.453,2.426 4.453,2.03 4.852,1.62 5.265,1.21 5.664,0.82 5.262,0.4 6.074,-0.4 5.664,-0.41 5.254,-0.81 4.863,-1.62 4.856,-1.62 4.453,-2.025 4.043,-2.425 3.641,-2.832 3.652,-3.239 2.832,-3.648 2.422,-4.043 2.023,-4.047 1.621,-4.453 1.211,-4.449 0.809,-4.86 v -5.257 -5.668 c -0.398,-2.836 -1.211,-5.668 -2.02,-8.5 -0.812,-2.43 -2.023,-4.86 -3.234,-7.286 -1.621,-2.429 -3.242,-4.453 -4.863,-6.07 l 4.453,-4.047 4.043,-5.265 3.242,-5.664 2.031,-6.473 1.211,-6.883 0.403,-7.285 v -5.664 l -0.813,-5.262 -1.211,-5.258 -2.019,-5.261 -2.434,-4.86 -2.832,-4.453 -3.242,-4.047 -3.633,-3.64 -4.051,-3.239 -4.453,-2.836 -4.855,-2.421 -5.262,-2.028 -5.664,-1.621 -5.664,-1.211 -6.074,-0.816 h -6.477 -5.664 l -6.074,0.816 -5.254,1.211 -5.274,1.621 -4.851,2.028 -4.856,2.832 -4.453,2.832 -3.64,3.636 -3.645,4.055 -2.832,4.043 -2.832,4.855 -2.031,4.856 -1.61,5.262 -1.222,5.261 -0.801,5.672 -0.41,14.973 h 33.996 l 0.808,-10.93 0.821,-5.262 c 0.801,-2.429 1.203,-4.05 2.422,-6.07 1.211,-2.023 2.422,-3.238 3.644,-4.453 2.02,-1.219 3.231,-2.023 5.262,-2.832 2.422,-0.812 4.453,-1.219 6.875,-1.621 2.832,0 5.676,0 8.508,0.402 2.019,0.407 4.031,1.219 6.465,2.028 1.621,0.804 2.839,1.621 4.453,2.832 1.218,1.218 2.019,2.429 3.242,4.05 0.808,2.024 1.211,3.641 1.621,5.664 0.801,4.051 0.801,6.883 -0.41,10.926 z M 1106.1,675.43 c -1.62,15.781 -4.05,31.156 -6.89,46.941 -18.21,81.762 -52.61,158.656 -77.29,238.383 -4.45,14.973 -8.51,29.945 -11.74,45.336 -0.81,5.66 -1.62,10.92 -2.43,16.59 l -36.426,19.02 -20.636,10.11 -21.043,8.91 -20.645,8.5 -21.047,8.09 -20.644,6.88 -21.043,6.48 -20.637,5.26 -21.043,4.86 -20.645,4.44 -20.636,3.25 -20.645,2.83 -21.043,1.62 -20.644,1.21 -20.637,0.41 h -20.238 l -21.043,-1.22 -20.641,-1.62 -20.641,-2.42 -20.64,-3.24 -21.047,-4.05 -20.641,-4.86 -20.64,-5.66 -5.7,-1.64 2.868,-34.38 h 7.691 v -76.495 h 18.207 V 950.23 h -5.258 V 814.652 l 26.309,-24.691 V 769.32 h -2.836 v -9.711 h 8.094 v -23.07 h -5.258 l 3.637,-50.191 30.761,-14.969 h 23.875 c 3.645,0 8.91,-2.832 8.91,-6.07 l 2.833,-42.09 h -8.903 l 10.922,-81.75 h 12.145 v -21.86 h -70.016 v 6.309 h -23.477 v -6.309 h -67.183 v 6.309 h -16.192 v -6.309 h -67.175 v 6.309 h -23.477 v -6.309 H 305.16 v 21.86 h 12.543 l 10.93,81.75 h -8.903 l 2.833,42.09 c 0,3.238 4.855,6.07 8.906,6.07 h 23.472 l 31.164,14.969 3.641,50.191 h -5.266 v 23.07 h 8.098 v 9.711 h -2.832 v 20.641 l 27.52,25.902 V 950.23 h -5.258 v 28.735 h 42.496 v 76.495 h 42.492 l 2.977,31.74 -6.211,-1.79 -20.649,-7.28 -20.636,-7.7 -21.047,-8.5 -20.637,-9.3 -21.047,-10.13 -21.047,-10.92 -15.785,-8.9 c -3.641,-29.953 -12.949,-58.692 -22.254,-87.02 -17,-50.992 -36.426,-100.777 -52.613,-151.773 -8.906,-28.328 -15.785,-56.25 -20.645,-85.391 -3.238,-22.66 -4.851,-44.516 -3.238,-67.988 1.219,-10.93 2.43,-21.051 4.859,-31.973 4.856,-17.808 11.332,-34.402 18.211,-51.402 10.121,-22.66 21.454,-43.293 36.829,-62.727 5.667,-6.078 10.925,-12.148 16.996,-17.812 11.336,-9.719 22.261,-17.403 35.214,-25.09 15.375,-8.496 30.758,-15.383 47.348,-21.445 36.024,-12.547 72.449,-21.454 109.684,-29.153 27.922,-5.664 55.039,-16.176 81.343,-27.918 19.43,-8.5 38.454,-17.808 56.665,-29.136 31.562,31.16 59.894,44.929 81.75,29.546 1.621,-1.218 3.242,-2.429 5.261,-3.648 2.434,1.219 5.266,2.43 7.688,3.238 24.687,10.934 50.183,20.633 76.902,27.121 26.301,5.664 52.207,11.329 78.508,18.211 22.664,6.875 44.121,14.571 65.976,24.278 16.59,8.097 31.162,17.004 45.732,28.742 8.5,7.273 16.19,14.566 23.47,23.066 24.28,30.762 40.07,66.371 52.21,104.008 2.84,10.527 4.86,20.641 6.48,31.563 2.02,18.621 2.42,36.429 0.81,55.453"
         style="fill:#1476c6;fill-opacity:1;fill-rule:nonzero;stroke:none"
         id="path116" />
    </g>
  </g>
</svg>
