<?xml version="1.0" encoding="UTF-8"?>
<svg xmlns="http://www.w3.org/2000/svg" viewBox="0 0 356 363.62">
  <defs>
    <style>
      .cls-1 {
        stroke-width: 3px;
      }

      .cls-1, .cls-2 {
        stroke: #008348;
      }

      .cls-1, .cls-3, .cls-4 {
        fill: #fff;
      }

      .cls-2, .cls-5 {
        fill: #008348;
      }

      .cls-3 {
        stroke: #fff;
        stroke-width: 2px;
      }
    </style>
  </defs>
  <path class="cls-5" d="M184.82.13c.11,3.2.21,6.08.42,9.38.85.64,2.45.96,3.41.21l.21-.21c.53-2.56.11-5.76.43-8.21l.53-.53c2.45,0,8.32.64,11.19.64l.43.53c.75,4.48-.96,8.1.11,12.37.64,1.07,31.13,5.97,32.2,6.29,2.67,0,5.76,2.45,6.61-.96.96-2.34.85-5.12,2.98-6.93,2.88-.32,10.45,3.73,12.37,4.05.21.64,1.81.85.85,1.71-.75,3.09-2.13,5.97-2.67,9.17,1.17.85,2.56,1.28,3.95,1.39,1.49-2.67,2.45-5.54,3.84-8.32,3.84.32,6.93,3.09,10.66,4.26.96.75,2.13.96,2.56,2.13-.43.85-.64,1.81-.85,2.77-.64,1.28-2.67,6.93-3.84,8,.96,1.49,3.09.75,4.26,2.02,2.56,1.28,4.8,3.31,7.14,4.9,6.72,6.29,12.26,13.97,16.31,21.75,5.33,1.92,10.98,4.48,14.93,8.85,4.48,5.33,8.21,11.41,10.66,17.8,10.29,8.62,16.1,24.31,16.74,25.37,1.02,4.92,2.45,13.22,2.88,15.89-.43,1.28-.11,2.98-.21,4.26-.64,1.92.96,3.3,1.71,4.8,1.17,3.09,3.31,5.76,3.95,8.95,1.38,3.09,2.45,6.29,3.52,9.49.64,1.81.43,4.05,1.17,5.76.11,3.52,1.07,8.1.11,12.05-.64,4.8-2.35,9.17-4.26,13.54.43,1.92,1.6,3.52,1.71,5.65,1.92,5.97,2.34,13.65,1.28,19.94-.64,4.37-6.29,17.56-11.3,22.92-1.5,1.6-3.09,3.41-2.56,5.76.21,1.81-.53,3.2-.42,5.12-2.35,9.6-5.55,18.87-11.51,26.87-2.34,4.8-7.14,8.42-11.09,11.62-3.63,2.45-7.25,5.01-11.19,6.61-.75.85-1.49,1.81-.96,2.99.64,1.17.43,2.45.11,3.73-.96,2.24-3.31,2.45-5.44,2.77-.85,0-1.6-.43-2.34-.53-4.05,8.21-11.94,14.39-18.55,20.9-6.61,5.33-13.54,9.6-22.07,10.23-2.56,1.28-4.05,4.05-6.5,5.76-5.33,3.84-9.7,9.06-16.52,9.38-4.16,3.52-10.56,3.3-15.67,2.34-3.41.53-4.58,4.48-8,5.01-7.14,2.03-14.5,3.52-22.39,3.2-1.71-.75-3.73-.75-5.22-2.02-.75.21-1.49.42-2.02,1.07-10.56,1.17-20.9-.85-30.92-2.77-2.67-1.28-6.29-1.17-7.89-4.05-1.6-.75-3.52-.75-5.12-1.39-7.36-2.77-14.61-5.97-20.9-11.19-1.28.96.53,4.16-2.13,3.41-11.51-3.31-22.71-8.32-31.34-17.81-5.12-5.86-9.38-12.15-12.58-18.87-1.17-2.03-3.73-1.07-5.12-2.67-2.13-1.49-2.03-5.01-5.12-5.01-10.34-5.76-21.22-15.03-25.91-26.01-3.84-6.61-5.76-14.07-7.36-21.64-9.91-9.92-16.2-21.32-17.59-34.86-1.07-6.51-.75-12.69.32-19.19-.32-.53.53-1.39.21-2.24-5.33-3.2-3.41-9.81-4.58-15.03-.96-11.19,1.49-22.07,5.44-31.77-1.39-14.39,3.94-26.33,11.73-37,.85-16.31,14.29-29.64,27.19-38.49.64-.11,1.07-.75,1.71-.96,4.16-.53,3.84-5.33,5.76-8-.11-1.28,1.07-1.92,1.39-2.98,6.18-11.41,17.38-20.47,29.85-23.24,1.49-1.07,4.05-.53,5.22-1.92-1.6-3.94-2.98-7.57-4.8-11.41.21-1.28-.85-2.03-.43-3.2,4.16-1.71,8.1-3.84,12.26-5.54.85-.32,1.39.53,1.81,1.07.75,2.13,1.92,4.37,2.35,6.5,1.71,1.71,3.73-.32,5.44-.75.96-.32.85-1.39.64-2.02-.64-2.77-2.67-4.9-2.56-8,3.41-2.13,7.78-2.35,11.51-4.16,1.17.11,2.35-1.49,3.31,0,.43.64,1.92,7.46,3.2,7.89,2.88-.75,6.08-.96,8.96-1.81,3.09-.96,7.14-.53,10.34-1.71,1.17-.21,8.84-.94,11.94-1.81.75-.75.43-2.03.32-2.99l-.75-8.85c1.73-.91,10.34-1.84,13.75-.96.11,2.88,0,5.97.96,8.53,1.17.32,2.35.53,3.52-.11.43-2.98-1.28-7.25.96-9.6,3.84,0,7.68-.11,11.41.11Z"/>
  <path class="cls-4" d="M182.53,3.06c.32,2.24-.11,4.37-.53,6.4-1.81.96-4.69.53-6.72,0-.32-.21-.21-.85-.11-1.28,1.81-.53,3.94.43,5.12-.96-1.6-1.49-3.52.11-5.33-.96l.11-.64c1.71-.32,3.95.43,5.54-.64.11-.53-.21-.85-.64-.85-1.71-.21-4.05.53-4.91-.64,0-.32-.11-.64.21-.75,2.56-.32,4.69-.11,7.25.32Z"/>
  <path class="cls-4" d="M165.69,4.02c-.53,2.24,1.28,5.01-.43,6.93-2.56-.32-5.01.96-7.46.32,0-.64.75-.53,1.17-.75,1.71-.53,3.84.75,5.22-.75.11-.53-.53-.53-.75-.75l-5.76-.21c-.32-.21-.53-.53-.53-.85,1.81-1.17,4.26.21,5.97-1.17.11-.53,0-1.17-.64-1.17-2.03-.21-4.05,1.07-5.86-.11.11-.75-.32-1.28.43-1.81,2.56-.21,5.33-.53,8.21-.64l.43.96Z"/>
  <path class="cls-4" d="M198.52,4.66c1.07,1.6,0,3.09.32,5.12-2.03,1.38-5.22.43-7.36.32v-.32c1.28-.32,2.88-.43,4.26-.43l.53-.53c-1.28-1.07-3.09-.32-4.69-1.07h-.11c-.43-.43,0-.75.11-1.07,1.07.53,3.09.32,4.59.43.43-.32,1.39-.96.75-1.6-1.49-.85-3.73.11-5.22-.75-.21-.43.21-.53.53-.64,2.34,0,4.26,0,6.29.53Z"/>
  <path class="cls-4" d="M188.5,12.44c3.52-.43,6.61.21,9.81.43.75.53.32,1.07.43,1.92-.21,1.81.53,4.59-.64,5.86-5.86.21-11.73-.96-17.48-.53-1.49-2.03-1.17-5.33-1.17-7.68,2.56-.64,5.54-.32,8.42-.21l.64.21Z"/>
  <path class="cls-4" d="M176.99,12.87c.11,2.13.53,4.69-.43,6.82-6.29.21-12.58,1.28-18.76,1.07-.11-2.34-.85-4.8.11-6.82,5.22-1.28,11.19-1.07,16.74-1.6.85.11,1.6.11,2.35.53Z"/>
  <path class="cls-5" d="M196.28,14.15c-.11.64.32,1.17-.32,1.6l-6.93.11c-.32.21-.11.64-.11.96,1.71.53,4.05.43,6.08.64-.11.43.32,1.07-.32,1.17-1.92-.21-3.84-.21-5.65-.53-.21-.21-.11-.53-.32-.64l-1.28.32c-.64-.96.11-2.13-.11-3.31,2.03-.96,4.26-.32,6.4-.53.85.11,1.6-.11,2.56.21Z"/>
  <path class="cls-4" d="M118.24,14.58c1.28,2.34,2.13,4.9,2.45,7.46-.53.43-1.17.32-1.81.43-2.35,1.81-5.44,2.24-8.32,2.56-.53-2.45-2.03-4.48-1.92-7.25,2.67-2.03,6.5-2.24,9.6-3.2Z"/>
  <path class="cls-5" d="M167.93,15.43c.21.64-.64.53-.96.75l-5.33.21c-.32.53-.85,1.28.11,1.6,2.13-.11,4.16-.53,6.29-.21.11.53,0,1.07-.64,1.07-2.45.11-5.01.32-7.46.75-.53-1.49-.53-2.45-.43-4.05,2.56-.43,5.44-.85,8-.64l.43.53Z"/>
  <path class="cls-4" d="M252.79,19.27c.64,1.49-2.13,1.71-.64,3.2-.32,1.28-.43,2.67-1.39,3.84-2.98-.21-5.86-1.49-8.53-2.88.32-2.56,1.28-4.58,2.13-6.93l.53-.32c2.77.85,5.76,1.28,7.89,3.09Z"/>
  <path class="cls-4" d="M155.13,17.99c.21,3.84.96,8.64,1.17,12.37-4.26,1.28-9.17,1.07-13.65,1.92-.85,0-1.71.43-2.56.11-.96-3.94-2.24-8-1.92-12.47,4.9-1.71,10.45-1.92,15.78-2.45.32.21.96,0,1.17.53Z"/>
  <path class="cls-4" d="M212.17,19.37c.53.64.53,1.6.85,2.45-.53,2.88-.85,6.4-1.6,9.6-2.99.43-5.86-.75-8.85-1.07-2.34-.96-1.6-3.73-1.49-5.33.11-1.92-.32-4.69.32-6.72,3.63.32,7.04.32,10.77,1.07Z"/>
  <path class="cls-5" d="M117.71,18.73c-1.71,1.39-4.16,1.39-6.08,2.45-.21-.32-.43-.75-.11-1.07,1.92-.75,3.62-.96,5.54-1.81l.64.43Z"/>
  <path class="cls-5" d="M248.63,19.05c.32.75,1.71.21,1.39,1.28-1.6.53-3.52-.64-5.01-1.49.32-.32.75-.64,1.28-.53.75.53,1.49.64,2.34.75Z"/>
  <path class="cls-5" d="M150.97,20.55c-1.17.75-2.35.43-3.84.75-1.6.32-3.41.21-4.8,1.17-.11.53,0,1.39.75,1.28,2.67-.53,5.01-.75,7.89-.85.21.21.53.43.43.85-.43.11-.75.64-1.17.64-2.45.21-5.54-.11-7.57,1.28.11.43.32.96.64,1.39,2.13.21,4.05-1.07,6.08-.43.21.11,0,.43.11.64-2.45.43-5.12,1.6-7.57.75l-.32-.64c-.32-2.13-1.07-4.26-.96-6.61.75-.96,1.6.21,2.35-.11,2.56-.53,5.33-.96,7.89-.96l.11.85Z"/>
  <path class="cls-4" d="M134.98,21.19c.96,3.41,1.71,7.25,1.92,10.55.32,1.6-1.71,1.71-2.77,1.92-2.88.64-5.97.85-8.96,1.28l-.21-.21c1.07-.53.85-2.13,1.92-2.67-1.07-2.99-2.56-5.97-3.2-9.17l.11-.43c3.52-.85,7.25-1.49,10.77-2.13l.43.85Z"/>
  <path class="cls-4" d="M237.22,24.49c1.49,1.28-.11,2.88-.53,4.48-5.76-.32-10.98-2.45-16.95-3.09-.53-.21-.43-.75-.43-1.17.85-.32,2.03.11,2.99.11,2.77.64,6.08.85,8.74,1.92,2.03,0,3.41,1.17,5.44.96.11-.64-.53-1.38-1.17-1.6-1.28-.11-2.34-.64-3.62-.96-4.48-.75-8.32-1.6-12.58-2.88-.75.32-1.71.43-1.71,1.49l-.75,5.76c3.2,1.6,7.14,1.38,10.45,2.67,2.45.21,4.8.96,7.14,1.38.64-.32,1.17-.21,1.6.21.53.96,1.6,1.92.96,2.98-2.45-.11-4.69-1.17-7.14-1.49-4.9-1.17-10.13-1.81-15.03-2.99-.53-3.09.32-6.18,1.17-9.06-.53-.96.32-2.03.75-2.88,2.03.32,15.89,2.77,20.68,4.16Z"/>
  <path class="cls-5" d="M117.61,21.29c-1.6.85-3.41,1.39-5.12,2.03l-.21-.21c1.6-1.07,3.52-1.81,5.33-1.81Z"/>
  <path class="cls-5" d="M249.16,23.11c0,.43-.42.53-.85.64-1.49-.32-3.2-.43-4.16-1.81-.21-1.17,1.07-.53,1.6-.64,1.07.75,2.67.64,3.41,1.81Z"/>
  <path class="cls-4" d="M184.56,22.57c.43.43.11,1.17.21,1.81-1.17.96-3.31-.64-3.73,1.39,1.07.75,2.13.11,3.2.53.32.96,0,2.03-.21,2.88-3.94,0-7.68.64-11.51.43l-.21-6.93c.32-.75,1.39-.11,2.03-.53,3.09.53,6.82-.53,10.23.43Z"/>
  <path class="cls-4" d="M97.56,22.57c.85,2.24,1.92,4.26,2.56,6.61-2.88,1.49-5.54,3.2-8.64,4.16-1.39-.43-.85-2.56-2.24-3.09.43-1.49-1.17-2.56-1.07-4.16,2.67-1.38,5.33-2.88,8.21-3.62l1.17.11Z"/>
  <path class="cls-5" d="M130.4,22.68c-.21,1.6-4.26.32-2.56,2.67,1.71.11,3.84-1.28,5.22.11-1.07,1.49-3.31.75-4.69,1.71-.43.43.11.96.53,1.17,1.81-.11,3.63-1.17,5.33-.43v.43c-1.81-.43-2.67,1.28-4.37.96-.32-.21-.75,0-.96.32-.53,1.81,1.71,1.39,2.67,1.28,1.39-.11,2.77-.96,4.26-.32.11.32-.32.43-.43.64-2.56-.11-4.69.85-7.14,1.07-.96-2.88-1.92-5.86-2.99-8.53.21-.75.85-1.17,1.6-.85,1.07.53,2.35-.85,3.52-.21Z"/>
  <path class="cls-4" d="M169.95,23.11c1.49,3.09-2.13,2.24-3.62,2.88-1.6.21-3.94-.53-4.9,1.28-.21.53.21.75.64.75,2.67,0,5.33-.43,8-.11-.11.75.21,1.49-.21,2.03-3.31-.11-7.68,2.24-10.02-.96-2.13-.96-1.6-3.41-1.92-5.44,3.73-.85,7.46-.85,11.51-.96l.53.53Z"/>
  <path class="cls-4" d="M198.1,23.11c1.07,1.92.11,4.58.11,6.82-6.18,4.05-12.26,8.42-18.55,12.15-3.31-1.17-6.4-3.62-8.96-5.97-1.81-.43-2.98-2.13-4.58-2.98-.21-.21-.64-.32-.53-.75,9.6-.85,19.62-.85,29.32-.96.53,0,.53-.64.85-.96.11-.32,0-.64-.32-.85-2.77.11-5.33-.21-8.1-.64.11-1.17-.53-3.09,1.6-2.67,2.45-.21,4.69.21,7.04.64.21-.43.96-.75.42-1.17l-1.71-1.17c-2.34.21-5.12.21-7.36-.21.43-.53-.32-1.81.64-1.81,3.52-.11,6.82,0,10.13.53Z"/>
  <path class="cls-5" d="M168.14,24.06c.11.32-.21.43-.32.64-1.92.11-3.84.53-5.65.11-.64-.32,0-.85,0-1.39,1.92.85,4.16-.53,5.97.64Z"/>
  <path class="cls-4" d="M271.02,27.37l.32.53c-.96,1.81-1.07,3.84-2.67,5.44-2.77-.85-5.33-2.13-8-3.2,0,0,1.44-7.13,3.52-6.08l6.82,3.31Z"/>
  <path class="cls-4" d="M122.08,25.24c.64,2.34,2.03,4.48,1.07,6.82-.64.32-1.39.85-2.03.75-.32-.85-.85-1.71-1.6-2.35-.96-.21-2.03,1.07-2.67-.11.11-1.6,3.62-.32,2.45-2.77-.64-1.28-1.28.21-2.03.11-.85.21-1.6.43-2.35.85.11,1.6.53,3.52,1.71,4.9.96-.32,2.03-.53,2.99-.75.21.32.32.85-.21.96-1.71.53-3.31,1.71-5.01,1.28-.21-2.77-2.13-5.01-2.03-7.78,2.99-1.07,6.08-2.02,9.17-2.67l.53.75Z"/>
  <path class="cls-5" d="M267.71,27.26c.11.32.43.53.43.96-.43.43-1.28.21-1.92.11-1.07-1.07-3.52-.96-3.3-2.99,2.13-1.39,2.99,1.49,4.8,1.92Z"/>
  <path class="cls-5" d="M94.58,26.09c-.53,1.07-1.81,1.07-2.67,1.81-.64.32-1.81.75-1.92-.53.11-.96,1.39-.43,1.92-.85.85-.32,1.92-1.6,2.67-.43Z"/>
  <path class="cls-4" d="M250.02,28.86c0,2.45-1.07,4.9-2.03,7.25-.21.75-1.07.64-1.71.64-1.92-.75-3.41-1.28-5.33-1.92-.21.11-.32.53-.64.43-.53-.96-1.07-1.81-1.17-2.88,1.49-.64.75-2.67,1.17-4.05l.96-2.35c3.09.64,5.86,1.81,8.74,2.88Z"/>
  <path class="cls-4" d="M234.88,30.89l1.07-.32c.53.75-.53,1.17-.43,1.92-1.07.53-1.07-.96-2.03-1.28-4.8-.53-9.6-1.81-14.5-2.67-.64-.32-.21-.53-.32-.96,1.49-.43,3.09.53,4.8.64,3.95.85,7.68,1.17,11.41,2.67Z"/>
  <path class="cls-4" d="M110.36,29.61c.32,2.03,1.92,4.16,1.17,6.29-1.6.85-3.2,1.38-5.01,1.6-1.6-2.24-2.24-4.8-3.2-7.25,1.07-.21,1.49-1.6,2.67-1.28,1.28.21,4.05-2.35,4.37.64Z"/>
  <path class="cls-5" d="M267.07,30.14c.21.21,0,.75.11,1.07-1.6.11-2.88-.85-4.26-1.71.11-.32-.11-.75.32-.96,1.38.11,2.56,1.07,3.84,1.6Z"/>
  <path class="cls-5" d="M246.61,30.99c-.75,1.17-3.2-1.28-2.88,1.07.53.75,2.03.21,1.81,1.49-.11,0-.32.11-.21.21v.43c-1.38.11-2.24-.75-3.52-.75-.21-1.49.85-3.2,1.6-4.48,1.07.64,3.3.32,3.2,2.03Z"/>
  <path class="cls-5" d="M95.96,29.61c-1.28,1.07-2.77,1.39-4.26,1.92-.32-.32-.64-.64-.53-1.07,1.17-.43,2.56-.53,3.52-1.39.64-.11.96.11,1.28.53Z"/>
  <path class="cls-4" d="M257.59,31.85c-.96,2.45-1.6,5.01-2.98,7.36-1.71-.64-3.52-.85-5.12-1.81,1.07-2.45,1.6-5.12,2.56-7.46l.53-.32c1.6.85,3.94.53,5.01,2.24Z"/>
  <path class="cls-4" d="M102.25,33.98c.75,1.28.96,2.77,1.71,4.05-.21,1.81-2.56,1.71-3.84,2.56-2.03,0-3.73,2.35-5.44,0-1.07-1.49-1.81-3.09-2.77-4.58,2.03-1.6,4.58-2.67,7.04-3.52.32-.43.75-.75,1.28-.85,1.28.11,1.17,1.6,2.03,2.34Z"/>
  <path class="cls-4" d="M267.5,36.11c-1.07,2.35-1.6,5.86-4.26,6.61-2.24-.96-4.69-1.49-6.61-2.99.96-2.56,1.17-5.12,2.88-7.46,2.77,1.07,5.86,1.81,8,3.84Z"/>
  <path class="cls-4" d="M161,33.13c4.26,2.77,8.42,5.65,12.58,8.74-.11.32,0,.64-.32.75-6.61.11-12.15.64-18.44,1.28-.32-3.41-1.92-6.93-1.07-10.34,2.24-.11,4.69-.85,7.25-.43Z"/>
  <path class="cls-5" d="M178.27,34.09l-.11.75h-6.29c-.11-.53.11-1.07.64-1.28,2.02.32,4.05-.21,5.76.53Z"/>
  <path class="cls-4" d="M202.15,35.05c-.32,2.67-.43,6.08-1.28,8.85l-.43.43c-6.4.21-12.26-1.49-18.12-.53v-.43c5.12-3.41,10.34-6.4,15.56-9.6,1.6.21,3.63-.64,4.26,1.28Z"/>
  <path class="cls-4" d="M150.23,34.09c.53,3.41,1.71,7.25.96,10.56-12.37,1.39-24.84,4.16-36.67,7.57-.43-1.28,1.17-2.02,1.6-3.2,1.39-3.62,4.26-6.61,5.86-10.23,3.52-1.28,7.36-2.13,11.09-2.56,5.86-.53,11.3-2.56,17.16-2.13Z"/>
  <path class="cls-4" d="M226.77,37.5l.32.75c-1.39,3.3-.64,7.68-2.99,10.23-.96-1.49-2.24-.11-3.62-.75-2.03-.85-4.05-.32-5.97-1.39-3.52-.32-6.93-.96-10.23-1.38-1.81-1.92.53-4.26,0-6.5.21-1.6.43-3.2,1.28-4.37,7.25.53,14.39,1.71,21.21,3.41Z"/>
  <path class="cls-5" d="M99.59,35.47c-.21,1.07-3.2.96-1.92,2.56,1.07,0,2.88-1.6,3.2.11-1.07.96-2.67,1.6-4.05,1.71-.75-1.17-1.6-2.13-1.49-3.63,1.07-.96,2.35-1.28,3.63-1.6l.64.85Z"/>
  <path class="cls-5" d="M209.4,36.64c2.24.43,4.58,0,6.72.85v.53c-2.67.64-5.12-.75-7.57-.21-.21.32-.53.64-.43,1.07,1.28.96,2.56.43,4.05.96,2.88.64,5.65.53,8.74,1.28.21.21-.11.53-.32.75-2.88.75-5.65-.75-8.85-.75-1.28.21-3.63-1.17-4.26.64-.32.85.64.75,1.07.96,2.56.43,5.12.64,7.57,1.28.11.32-.32.64-.64.53-3.3-.32-6.29-.32-9.49-.96,0-2.67.64-4.8.96-7.46.75-1.28,1.81-.11,2.45.53Z"/>
  <path class="cls-5" d="M264.09,37.5c-.21.32-.53.43-.85.43-.32-.43-1.17-.21-1.6-.64-.43,0-.85.32-.96.75.11,1.71,3.73.53,2.03,2.67-1.28-.53-2.99-.75-3.84-1.92.53-1.07.85-2.45,1.81-3.3,1.17.53,3.09.64,3.41,2.03Z"/>
  <path class="cls-4" d="M121.12,36.11c-2.03,3.73-4.37,7.04-6.72,10.77-1.17.64-.85-1.17-1.6-1.71-.43-2.03-1.28-4.05-1.81-5.97,3.31-1.17,6.72-2.45,10.13-3.09Z"/>
  <path class="cls-5" d="M178.05,36.64c.21.64-.53.53-.85.75-1.17-.21-2.45-.11-3.52-.53.53-1.49,2.56-.21,3.94-.64l.43.43Z"/>
  <path class="cls-4" d="M249.38,39.74c-.85,2.56-1.39,5.22-2.99,7.46-2.56-2.77-3.52-6.5-5.33-9.81.75-.85,1.81-.11,2.67-.11,1.92.75,4.05,1.17,5.65,2.45Z"/>
  <path class="cls-5" d="M133.06,38.56c-2.67,1.6-7.57.11-8.42,4.05,1.81,0,3.73-.53,5.65-.85,3.2-.43,6.18-1.17,9.49-1.07l.32.43c-5.22,1.81-11.09,2.24-16.74,3.2-.32.43-1.17.85-1.17,1.49l.32.32c3.31-.43,6.61-1.39,9.81-1.71.21.21.64.11.53.53-4.05,2.13-9.28,1.28-13.22,3.73-.32,0-.75-.21-.96.11.21-2.13,2.45-3.63,3.41-5.54,1.17-1.39,1.71-4.05,3.62-4.05,2.24-.43,5.01-1.28,7.36-.96v.32Z"/>
  <path class="cls-5" d="M178.27,38.78c0,.32.11.64-.21.75-.75.11-1.49,0-1.81-.64-.11-.32.11-.53.32-.75.64,0,1.6-.11,1.71.64Z"/>
  <path class="cls-4" d="M239.78,41.02c1.49,1.92,2.34,4.26,3.2,6.5-.32-.32-1.39-.43-1.92-.96-3.3-.64-6.5-1.39-9.6-2.56v-.96c2.67,0,5.12.96,7.68,1.49.64.21,1.28.75,1.92.53-.75-1.07-1.49-1.92-2.77-2.35-2.13-.43-4.26-.96-6.4-1.49-.21-.53-.96-.43-1.28-.21-.75.85-.75,2.03-1.07,3.2-.32,1.07-.85,2.13-.53,3.41,2.24,1.17,5.01,1.81,7.35,2.98,2.45-.43,4.16,1.6,6.4,1.49.32-.53.32-1.07.43-1.71-3.94-1.17-8.1-2.03-12.15-3.3l-.11-1.17c.53,0,1.39-.21,1.81.43,3.84.43,7.25,1.6,10.87,2.45,1.17,1.39.11,3.3-.53,4.69-3.2,0-6.08-1.81-9.27-2.45l-6.4-1.71c-.96-2.45.64-4.69.96-6.72.75-1.38.11-3.41,1.28-4.48,3.3,1.17,7.04,1.28,10.13,2.88Z"/>
  <path class="cls-5" d="M247.67,40.06v.64c-1.28.21-2.45-.64-3.63-.96.11-1.92,2.03-.32,2.88-.32.32.11.64.43.75.64Z"/>
  <path class="cls-4" d="M108.33,40.06c.96,2.67,2.13,5.54,2.35,8.21-.85.43-1.92-.32-2.88-.53-2.56-1.81-5.65-2.56-8.1-4.59,2.24-1.6,5.33-2.02,8-3.09h.64Z"/>
  <path class="cls-4" d="M260.68,43.57l-.21.32c-3.41,1.28-6.93,2.77-10.56,3.62l-.32-.32c.21-1.39,1.28-2.67,1.17-4.05.64-.53.75-1.92,1.39-2.56,2.88.96,6.08,1.07,8.53,2.98Z"/>
  <path class="cls-4" d="M270.49,41.12c.11,2.02-2.02,3.09-2.98,4.8l-1.92,1.81c-3.73,1.49-7.57,2.67-11.19,4.48-6.29,4.9-6.29,12.9-10.55,18.87-1.17,2.45-2.24,4.9-3.3,7.46,0,.75.21,1.6-.53,2.13.32,0,.11.32.21.43l-.43.43c-.64,2.77-1.49,6.18-.21,8.96,10.55-.75,21.75-.11,31.77-.53.21-.32.75-.21.53-.75-.85-1.49-2.56.21-3.3-1.39-.75.32-1.71,1.17-2.67.53-.85-1.49-2.88-.96-4.16-1.49-.43.43-1.17.96-1.71.43-.53-.32-.32-.96-.53-1.39-2.35.32-2.45-2.35-3.95-3.52-2.77-3.73-4.48-8-6.29-12.15-1.28-2.67-.53-6.18.85-8.53.64-.32,1.81-.75,1.17-1.81-.11-.32.21-.53.43-.75,4.48.64,8,3.95,11.83,6.29,3.31,2.56,6.93,5.33,8.74,9.06,1.38,2.99,3.3,5.86,4.69,8.85,1.28,3.94,2.56,8,2.88,12.26-.32,2.45,1.6,13.01-.32,14.82-1.07-.11-3.09-7.78-3.52-8.85-1.28-1.6,1.07-4.37-1.6-4.9l-.21-.43c.21-2.03,1.28-4.37-.42-5.97h-.64c-.21,18.98.64,36.99.11,56.4-1.28.21-2.99.85-4.16-.11-.43-14.18-.21-27.5-1.17-41.36.21-3.41.11-6.61.11-9.81,0-.32-.43-.53-.64-.85-10.45.11-21-.32-32.2-.32-1.49-2.03-.53-4.69-.75-7.04.32-3.63,1.71-6.82,2.77-10.13,3.09-8.21,6.4-16.63,10.45-24.52,4.69-4.26,11.09-5.01,16.63-7.25.85-.75,2.13-.85,2.34-2.13.43-1.07.85-1.81,1.81-2.56.75-.11,1.49,0,2.02.53Z"/>
  <path class="cls-5" d="M107.05,41.66c.11.43-.53.96-.96.96-.96.53-2.13.64-3.2.96-.53-.96.64-1.49,1.17-1.81.85-.32,2.24-.96,2.98-.11Z"/>
  <path class="cls-5" d="M247.25,42.4c0,.32-.21.53-.43.75-1.17.32-1.07-1.38-2.13-1.17.53-1.17,1.92.11,2.56.43Z"/>
  <path class="cls-5" d="M107.69,43.68c-.21,1.28-1.81,1.39-2.88,1.6-.21-.32-.53-.96-.21-1.38.85-.43,2.13-1.28,3.09-.21Z"/>
  <path class="cls-4" d="M273.15,43.68c0,.43.21,1.17-.53,1.17-.32-.11-.53-.32-.64-.64,0-.43.11-.75.43-.96.32,0,.53.11.75.43Z"/>
  <path class="cls-4" d="M110.36,52.1c4.16,9.17,7.89,18.66,11.41,28.15-.11.53-.53,1.07-.21,1.71,2.24,2.35,1.6,6.29,1.6,9.17-.43.75.21,2.35-1.17,2.67-11.09.64-20.9.53-31.77.43l-.43.64.75,42.43.11,10.98c-.96,1.28-2.56.32-3.84.43-.96-3.3-.21-7.57-.64-10.98-.43-15.25-.75-31.45-.75-47.23l2.03-.43,30.92-.11c.96-1.39.32-3.73.64-5.22-.64-.75-.11-2.13-.43-2.77-2.24-8.85-7.57-16.31-9.92-24.95-1.49-5.01-7.25-5.97-10.98-8.64-1.39-1.49-4.69-1.39-4.26-4.16l.53-.43c5.54,2.67,10.77,5.97,16.42,8.32Z"/>
  <path class="cls-4" d="M89.35,45.17c.11.64.75,1.6-.43,1.81-4.05.43-8.32.53-11.83,2.13-.11.32-.43.53-.43.96.96.43,1.92-.43,2.99-.32,1.28.43,2.56-.75,3.84,0-1.28,1.6-3.2,2.67-5.01,3.41-.21-.96.53-1.49.21-2.34-1.71,0-3.2,1.6-5.22,1.07-1.6.53-3.62.64-4.58,2.34.64,2.99-2.35,3.41-3.94,4.9-1.17,1.6-3.73,3.09-3.73,5.12,2.56-1.71,5.01-3.84,7.89-4.9.43.11.85.21.96.53-3.52,3.73-9.38,4.8-11.94,9.6-.21.53-1.39.53-.75,1.28.43.21.85.64,1.28.96.96-.85,1.28-2.13,1.71-3.2l2.88-2.45c.64.64-.43,1.49-.75,2.13-.85,1.92-2.35,3.41-2.98,5.44l.32.21c2.03-2.56,4.9-5.22,6.29-8.1.32-.32.64-.75,1.07-.75.32,2.24-.85,4.26-1.6,6.29.11.21.32.11.53.11,1.71-2.56,2.24-5.54,3.2-8.42.32-.53.85-.53,1.28-.75-.21,1.49-.85,3.52-.43,5.01,2.56-2.13,2.67-5.76,4.9-8.21.64-.32,1.28-.43,1.92-1.07.53,1.28-1.92,3.09.11,3.73,2.35-2.88,3.3-7.14,6.61-9.06.21.85-.75,2.13-.32,3.09,2.03-1.92,3.2-5.33,5.97-6.61.64-.96,1.71-1.28,2.67-1.07,1.17.75-.75,2.02.64,2.56-7.04,9.7-17.06,16.85-26.76,23.03-3.52,1.81-7.68,2.35-11.83,2.77-.11-3.84,2.56-6.82,3.73-10.34,6.29-10.13,15.99-20.36,28.15-21.86,1.07-.21,2.88-.32,3.41.96Z"/>
  <path class="cls-4" d="M275.07,44.64c3.73,1.17,6.61,4.59,9.38,7.04,4.37,4.59,7.35,9.7,10.23,14.93,1.49,3.84,2.24,8.1,3.2,12.26.11.53.96,1.17.21,1.81-4.8-2.24-10.13-3.2-14.6-6.4-7.89-4.59-13.97-12.58-18.76-20.15-.11-.64.21-1.28.75-1.49.75,0,1.28,0,1.71-.64,0-.85-1.6-1.71-.32-2.45,4.58-.21,3.41,4.9,5.01,7.46.64,1.07.85,2.67,2.03,3.2.53-.53.21-1.28-.11-1.81-.53-1.92-1.49-3.84-1.17-5.76,2.03-.21,2.13,2.24,2.99,3.41,1.17,3.94,2.03,8,4.9,11.19,1.28-.64-.21-1.28-.32-1.92-.75-2.35-1.92-4.37-2.45-6.82,1.6-.53,2.34,1.81,3.2,2.77,1.6,3.63,2.45,7.78,5.12,10.66.53-.85-.21-2.02-.32-2.98-.85-1.6-2.13-3.31-1.81-5.33,1.28.43,2.13,2.03,2.77,3.2,1.17,2.77,2.77,5.22,5.01,7.46.32-.11.75-.53.43-.85-1.39-2.03-2.77-3.73-3.09-6.18.75-.85,1.92.53,2.67-.32-2.34-1.17-4.26-3.2-7.04-3.84-.53-.21-.21-.85-.53-1.17.53-.32,1.17-.43,1.71-.11.53,1.07,1.81.43,2.45,1.17.32-.21.11-.85,0-1.17-.32-.32-.75-.85-1.39-.75-.96-1.49-2.56-1.71-4.16-2.35-1.38-.96-3.3-1.07-4.16-2.77.85-1.28,2.67.21,4.05.21,1.39.96,2.77,1.71,4.26,2.45.21-.11,0-.43.11-.64-3.84-2.56-6.93-5.12-11.3-6.4-.21-.21-.43-.53-.53-.85,2.24-.75,3.63.85,5.65.85.32-.11.32-.43,0-.64-2.03-1.28-4.59-1.6-6.5-2.67-.96.21-2.03.32-2.56-.64.43-2.24-2.24.11-2.45-1.81.11-.96,1.39-1.38,2.24-.96.96.32,2.56.43,3.52-.21Z"/>
  <path class="cls-4" d="M189.25,46.88c.64,2.99.21,6.93.11,10.13-.11.43-.11,1.28-.85,1.07-7.14-.11-12.79-.21-19.4-.32-.96-3.63-1.07-7.14-1.17-11.19l.64-.85c7.36-.43,13.65.85,20.68,1.17Z"/>
  <path class="cls-4" d="M165.26,47.52l.75,9.7c-.64,1.17-2.35.85-3.62,1.17-5.97-.11-11.62,1.39-17.38,2.13-1.6-3.3-1.6-7.36-2.35-10.77l.21-.85c6.82-1.6,14.39-2.24,21.75-2.45l.64,1.07Z"/>
  <path class="cls-4" d="M211.74,49.33c.43.11.96.32,1.07.75-.21,1.17.11,2.99-1.28,3.41-2.03-.53-4.48-.75-6.4.32,1.71,1.71,4.9.75,6.61,2.24,0,1.6-.43,3.73-1.38,5.22-5.76-.96-11.73-1.6-17.38-2.34-1.6-.64-.75-2.77-.75-4.05.21-2.56-.11-5.01.75-7.68,6.61,0,12.47,1.6,18.76,2.13Z"/>
  <path class="cls-4" d="M140.31,50.93c.75,3.3,1.49,6.72,1.71,10.02-1.17.96-2.88.75-4.26,1.17-5.97,1.6-11.94,2.77-17.7,4.8-1.71-3.3-2.88-6.93-4.37-10.45-.43-1.71,1.6-1.38,2.45-2.02,6.82-2.13,13.33-3.62,20.47-5.01,1.07-.21,1.49.64,1.71,1.49Z"/>
  <path class="cls-4" d="M241.28,57.01c.75.75-.21,1.81-.11,2.88-1.71,2.24-1.49,5.12-3.3,7.36,0,.64-.43,1.39-1.17,1.6-3.3-2.03-7.46-2.77-11.3-3.84-3.63-1.07-7.57-1.92-11.3-2.77l-.53-.64c.21-1.81.53-3.63,1.17-5.22,2.24.11,4.37.75,6.4.85l.53-.53c-1.71-1.6-4.26-1.6-6.4-2.45-.43-1.28,0-2.88.64-4.05,8.85,1.39,17.16,3.94,25.37,6.82Z"/>
  <path class="cls-5" d="M151.93,51.04c0,.32-.11.53-.32.64-2.88-.21-5.12,1.49-7.78.53.21-.64,1.28-.64,1.92-1.17,2.13.21,4.37-1.49,6.18,0Z"/>
  <path class="cls-5" d="M134.02,53.6l-.64.53c-4.16,1.17-8.53,1.6-12.47,3.2.21.43.43.53.85.96,3.52-.43,6.61-1.81,10.34-1.81.21.11.21.32.21.64-.64,1.07-1.81.53-2.77.85-2.35,1.17-5.44.21-7.36,2.35-.11.43.21.75.53.96,2.56-.21,5.01-.96,7.57-1.28.32.21.32.64.11.85-3.2.43-6.08,1.6-9.17,2.24-.96-2.13-1.92-4.26-2.03-6.61,4.05-1.81,8.42-2.88,13.01-3.52.64,0,1.71-.11,1.81.64Z"/>
  <path class="cls-4" d="M105.88,56.79c-1.39.96-.11,3.63-2.35,3.63-3.2,0-6.29.53-9.17,1.38-.32.21-.53.53-.53.96.75.85,1.92-.53,2.67.43.85-.43,2.03-.21,2.99-.11.32.75-.32,1.6-1.07,1.81-1.49.64-3.09.85-4.48,1.49-1.17.64-3.41.21-3.52,1.92,1.28.85,2.88-.53,3.94.43-.21,1.07-.64,2.13-1.6,2.77-3.2,1.28-7.04,1.92-9.17,4.9.21.43.75.21,1.17.21.96-.21,1.92-.64,3.09-.64.43,1.07-.85,2.13-1.28,3.09-2.24,2.88-5.12,5.44-5.33,8.95,1.17-1.07,1.71-3.52,3.73-3.52-.53,3.3-1.39,7.14-2.13,10.87-2.03,2.56-4.48,4.9-7.57,5.12l-.75-1.6c-.96-8.32,1.71-15.56,5.12-22.28,5.33-9.49,13.22-18.02,22.92-23.24,1.6.53,1.92,2.45,3.31,3.41Z"/>
  <path class="cls-5" d="M155.77,53.81c.21,0,0,.43.11.64-3.73.43-7.68,1.6-11.41.85,0-.53.64-.64.96-.85,3.31-.21,6.61-.75,9.92-1.07l.43.43Z"/>
  <path class="cls-4" d="M75.07,55.09c.11,1.71-1.92,2.88-2.88,4.05-.53.11-1.07-.21-1.39-.64,0-1.49.53-2.98,1.71-3.84.85.53,1.92-.53,2.56.43Z"/>
  <path class="cls-5" d="M238.72,59.25c.32.32.11.75.21,1.07-.64.53-1.38,0-2.13,0-2.45-1.39-5.65-.96-8.1-2.45v-.64c3.3.64,7.04.53,10.02,2.03Z"/>
  <path class="cls-5" d="M237.76,62.76c.32.96-.96.75-1.39.64-2.67-1.38-6.08-.96-8.31-2.77.32-1.17,1.71.11,2.67-.11,2.34.75,5.01.96,7.04,2.24Z"/>
  <path class="cls-4" d="M178.37,61.49c.11,2.98,0,5.86-.32,8.42l-.32.21c-6.08-.32-12.15.64-18.12.64-.43-2.77-1.39-5.54-1.17-8.42l.53-.43c6.08-.32,12.69-.85,18.87-.96l.53.53Z"/>
  <path class="cls-4" d="M199.59,62.55c1.07,1.38.21,3.52.32,5.33-.32.96.11,2.67-.96,3.41-5.44-.32-11.41-.85-16.95-1.07-1.38-2.13,0-4.8-.42-7.46.11-.64,0-1.28.42-1.71,5.86.53,11.94.43,17.59,1.49Z"/>
  <path class="cls-4" d="M107.69,64.26c-.85,3.84-4.05,6.93-6.08,10.45-2.99,4.48-6.18,9.06-10.13,12.79-1.39.64-3.09-.11-4.58.21-1.49-1.6.53-3.52.75-5.33,1.07-.64.53-2.03,1.6-2.77l.21.21-.11,3.73c1.81.53,1.6-2.03,2.35-3.09.32-1.6.64-3.41,1.6-4.8.32-.11.53.32.53.64,0,1.28-.64,2.77.11,3.94,1.92-1.49,1.07-4.48,2.24-6.5,1.71-.32.21,2.45,2.03,2.45l.53-.64,1.39-8.74c.43-.75.53-1.92,1.6-2.03.32.96-.21,2.67,1.07,2.88.85-1.49.85-3.41,1.49-5.12.32-.43.43-1.28,1.17-.85.85.75.21,3.09,2.24,2.56Z"/>
  <path class="cls-4" d="M155.88,63.51c.21,2.35.85,5.12.21,7.68-1.81.75-4.16.53-6.08,1.17-2.99,0-5.97.75-8.85,1.39-5.54,1.28-10.98,2.88-16.42,4.58-1.39-2.67-3.09-5.65-3.52-8.42,5.44-1.81,10.77-3.62,16.52-4.9,5.86-1.07,11.3-2.67,17.38-2.56l.75,1.07Z"/>
  <path class="cls-5" d="M236.58,65c.43.43-.11.75-.21,1.07-2.56-.53-4.9-1.17-7.46-1.38-.42-.32-.42-.64-.42-1.07,1.17-1.07,2.02.11,3.2.11l4.9,1.28Z"/>
  <path class="cls-4" d="M217.82,66.18c1.28.64.21,2.02.21,3.09-.53,1.81-.75,3.73-1.49,5.44-4.9-.21-8.85-2.99-13.86-2.99l-.21-.64c.32-2.45.53-5.33,1.38-7.68,4.8.53,9.28,1.81,13.97,2.77Z"/>
  <path class="cls-5" d="M255.35,66.92c3.09,2.34,6.29,3.73,9.92,4.8,0,.11.21.21.11.43l-1.17.32c2.02,1.81,2.24,5.22,5.22,5.97,1.6,0,1.92,2.02,3.52,1.92.21.11.11.43.11.64-1.28.64-2.56-1.71-3.63,0,.32,2.24,2.99,3.09,4.16,4.59,0,.43.96.64.64,1.28-2.24.21-2.88-2.77-5.01-2.77-.64-.53-1.17-1.39-2.03-1.28-.85.64,1.07,1.92-.32,2.56-1.49-1.71-2.45-3.84-4.05-5.54-.43,0-.75.43-.75.85-.43,1.38,1.17,2.45.64,3.62-2.56-1.39-.75-4.9-3.09-6.5.21-.85.32-1.49-.53-2.13-1.07.53-.85,2.03-.85,3.31.21.64.11,1.39.11,2.02-1.07.64-1.28-.64-1.49-1.38l-.21-5.12c-.85-.53-.75-1.39-.21-2.03-.43-1.07-.21-2.34-1.17-3.09-.53-.21-.96.21-1.17.64-.11,1.71.32,3.52.64,5.12-.43.11,0,.64-.43.64-1.81-3.09-.75-7.68-1.92-11.09l.32-1.07c1.49.64,1.39,2.45,2.67,3.3Z"/>
  <path class="cls-5" d="M149.38,65.96c-.32,1.49-2.03.21-2.88,1.07-3.41.32-6.4,1.39-9.7,2.13-.21.32-.43,0-.64,0l-2.77.85c-2.56,1.17-5.01,1.6-7.78,2.13-.21.21-.53.43-.43.85l.75.64c5.22-1.49,10.55-3.2,16.1-3.41-3.73.32-6.93,1.92-10.45,2.56-1.6.96-3.94.43-5.01,2.13,1.81,1.49,4.16-.21,6.08-.64,2.03-.32,3.73-1.71,6.08-1.28l.32.32c-3.62,1.49-7.57,1.81-11.3,2.88-1.17,0-2.03-.53-2.77-1.17-.32-.96-.96-2.03-.85-2.98,3.31-2.24,7.46-2.35,11.09-3.84,4.48-1.07,9.06-2.13,13.86-2.56l.32.32Z"/>
  <path class="cls-4" d="M235.95,71.4c-.75,2.99-2.03,5.97-3.31,8.85-.75.11-.96-.85-1.6-.85-3.73-1.49-7.78-2.34-11.41-3.84.53-2.98.75-6.08,2.24-8.53,4.9.96,9.6,2.56,14.07,4.37Z"/>
  <path class="cls-4" d="M112.27,73.11c0,.64.11,1.71-.75,1.81-.75-.21-1.07.64-1.71.75-1.49,0-3.09.32-4.26,1.6.32,2.35,2.13,0,3.41.53-1.17,2.13-3.62,2.03-5.54,2.67-.32.32-.85.43-1.07.96-.11.43.43.85.85.85s.85-.21,1.39-.11c-.85,1.71-3.84,3.2-2.45,5.22.96-.21,1.39-1.49,2.35-2.02.43.43.96,1.07,1.71,1.07.43-1.6.21-3.73,1.71-4.48.43.85.11,2.03.85,2.56.64-1.39-.21-3.52.96-4.8.96.43.32,1.6.53,2.56-.96,1.38,1.28,3.62-.96,4.37-.43-.11-.53-.75-.96-.64-.32.64-.53,1.49-1.28,1.71-.85.32-1.49-.21-2.13-.64-2.13,1.6-4.69,1.07-7.14.85-.32-.21-.85-.43-.53-.85,1.71-3.31,3.73-6.4,6.18-9.28.64-.32,1.28-.75,1.39-1.49l6.18-6.18c1.17.11.43,2.13,1.28,2.99Z"/>
  <path class="cls-4" d="M320.38,92.62c1.28,3.52.85,6.93.75,10.66-1.17,1.07-2.77-.32-4.05-.75-6.29-2.45-11.41-7.46-16.74-12.15-1.07-1.71-3.41-3.09-3.84-5.12.21-1.07,1.39-.32,2.13-.43,4.05.11-.21-5.01,3.3-4.69,1.49,1.28.96,3.09,1.07,4.8.32,1.92,1.17,3.94,2.24,5.33.85-1.28-.53-2.24-.64-3.52l.32-2.13c1.28-.32,1.71,1.49,2.45,2.24.64,3.52,1.38,6.93,3.84,9.6.21,0,.53.11.75-.21-.32-1.07-.85-1.92-1.6-2.77l-.64-2.35c2.24.32,3.09,2.99,5.01,3.95.64,1.07,1.28,2.56,2.45,2.98-.21-4.37-4.8-6.61-7.14-10.13,1.28.11,2.77.64,3.94,1.49.43-1.6-1.49-2.03-2.45-2.98-2.02-1.07-3.62-3.2-5.76-3.84-.11-.32-.21-.53-.21-.85,1.39.43,3.41.11,4.69,1.28,1.28.43,2.34,2.03,3.63,1.92-1.6-1.81-3.73-3.2-5.44-4.9-1.6.11-2.67-.85-4.16-.96-.96-.43-2.13-.53-2.99-1.39-1.6-1.07-.43-2.98-1.49-4.37.32-.96-1.38-2.13,0-2.88,10.02,3.62,17.48,12.26,20.58,22.18Z"/>
  <path class="cls-5" d="M233.6,73.11c.43.43,0,.85-.32,1.17-2.56-1.17-5.97-.85-7.89-2.77-.11-1.17,1.17-.43,1.71-.32,2.34.32,4.16,1.81,6.5,1.92Z"/>
  <path class="cls-4" d="M264.2,74.71c-.21.21.11.64-.32.64-1.49-.75-3.94-.43-4.37-2.67-.43-.32-.53-.53-.32-.96.64-.32,1.28-.64,1.92-.32,1.17.85,2.67,2.03,3.09,3.31Z"/>
  <path class="cls-4" d="M189.78,74.28c.75,2.67-.32,6.08,0,9.06l-.43.64-15.35.11-.32-.43v-9.81c1.07-.85,2.88-.43,4.16-.43,3.94.11,8-.21,11.94.85Z"/>
  <path class="cls-5" d="M232.75,75.98c-.11.96-.96,1.28-1.81.96l-5.97-1.71c-.75-.32-.85-1.28-.21-1.81,2.88.32,5.22,1.92,8,2.56Z"/>
  <path class="cls-4" d="M170.06,73.96l-.11,9.92c-3.52.85-7.57-.21-11.09.32l-5.65-.11-.43-.53.11-8.32c2.03-.53,4.37-.53,6.4-.64,3.63-.21,7.46-1.81,10.77-.64Z"/>
  <path class="cls-4" d="M204.07,75.56c.75-.21.75.75.85,1.28-.21,2.13-.21,4.8-.53,6.82l-1.28.53-9.6-.11c-.64-2.88.11-6.18-.11-8.96.53-1.71,2.03-.43,3.2-.64,2.24.64,4.9.85,7.46,1.07Z"/>
  <path class="cls-4" d="M149.27,76.2c0,2.77.21,5.22-.43,7.78-7.14.53-15.35,0-21.96.32-.96-.43-.96-1.49-1.07-2.35,5.65-3.2,12.47-3.84,18.66-5.65,1.49-.21,2.99-.32,4.37-.64l.43.53Z"/>
  <path class="cls-4" d="M221.76,79.4c3.2.75,6.29,1.92,9.17,3.41.32.53-.11,1.17-.64,1.38l-22.39-.21c-.11-2.67,0-5.12.32-7.68,4.69.43,8.95,2.02,13.54,3.09Z"/>
  <path class="cls-4" d="M58.65,78.86c.21.43.64.96.11,1.39-3.73.11-5.33,4.58-9.06,4.58-1.81,2.35-4.9.64-7.04,2.35-1.6,1.17-4.16,1.6-4.69,3.73.96.75,1.92-.85,2.98-1.07,1.39-.43,2.56-1.17,4.05-1.39l.32.53c-1.17,1.07-1.92,2.67-3.73,3.2-1.92,1.92-5.33.64-6.72,3.52,0,2.24-2.56,2.56-3.84,3.84.11.43.21,1.6.85,1.17.75-.53,1.71-1.49,2.67-1.38.21.85-.11,2.03-1.07,2.24-2.35.32-4.05,2.24-5.97,3.73,0,.64.11,1.28.64,1.39.11,1.49-.43,2.67-1.39,3.62-.11,1.28.43,2.88-.32,3.84.11.43.11.85.64,1.17.53,0,.75-.53.85-.96,1.07-2.03.32-5.01,2.77-6.18l1.71-1.28c-.21,1.49,0,3.41-.64,4.9,0,.32.43.53.53.85l.75-.85c1.28-3.2,1.07-7.04,3.09-9.91.21-.32.53-.43.96-.43.53,1.07-.32,2.13-.21,3.3.11.96-.21,2.03.75,2.56,1.07-.11.85-1.39,1.07-2.13,1.28-2.13.75-5.01,3.09-6.61,1.39-1.6-.32-4.16,1.49-5.54,1.17-1.28,2.67-1.92,3.62-3.3.96,2.13-1.17,4.05-1.28,6.08.21.11.43.43.75.32,1.17-2.88,2.99-5.44,3.52-8.42.43-.64.85-.64,1.49-.85.96.53.64,2.13,1.28,3.09.43.53,0,1.28-.21,1.81-3.94,10.13-10.77,22.18-21.96,26.23-2.13.75-4.48,1.6-6.82,1.81-.96-1.71-.21-4.58-.64-6.82.53-4.48,2.24-8.95,4.8-12.79,1.07-2.67,3.31-4.8,5.01-7.25,4.8-5.65,10.45-11.19,16.84-14.5,1.92.11,4.16,0,5.86-.32,1.17-.21,2.24,0,3.09.75Z"/>
  <path class="cls-4" d="M112.91,79.61c-.32,2.45.21,5.22-1.07,7.25-.85.32-1.07-.43-1.17-1.07.64-2.13.75-4.37,1.49-6.4l.75.21Z"/>
  <path class="cls-4" d="M116.01,83.87c.11.53-.21,1.17-.85,1.28-.43-.11-.85-.43-1.28-.85-.32-.75.64-1.17,1.07-1.39.43,0,.85.53,1.07.96Z"/>
  <path class="cls-4" d="M288.36,105.22c9.02,10.81,15.41,22.65,16.64,36.75,0,1.79-.66,4.04.09,5.83-.19,1.32.09,2.82-1.13,3.67-8.55-7.24-13.53-16.45-18.33-25.47-.19-1.79-1.69-2.91-1.79-4.7-.85-1.6-1.41-3.38-1.69-5.26.75-.94,1.78.56,2.16-.94.56-.85-.38-3.29,1.22-2.91.19.66.56,1.32,1.03,1.79-.66,2.63-.75,5.26-.37,8.08.37.75.09,1.79.47,2.54,1.13-1.03.28-2.73.47-4.14l.66-2.35c.66-.09,1.03.47,1.41.94,0,2.91-.19,5.83.19,8.74.38.19.66-.38.66-.56.38-1.03-.37-2.82.66-3.29,3.01,3.29-.19,8.08,1.97,11.66,1.22-1.22-.66-3.29.85-4.42,1.69,1.13,1.5,3.48,1.97,5.36.66,1.41.94,3.01,1.88,4.23.85-1.03-.75-2.26-.56-3.67.47-.85,1.03.28,1.6.28.66,1.22,2.35,1.69,2.07,3.38.28.38.66.47,1.13.47,1.03-1.32-.75-2.26-1.03-3.38-.66-2.26-1.69-4.04-3.48-5.64-.47-1.32-2.35-1.97-2.07-3.57,2.73-.47,4.89,2.73,6.2,4.7.75-.47,0-1.41-.37-1.97-1.79-2.63-4.8-4.32-6.96-6.86l.09-.09c2.07.75,3.85,2.26,5.73,3.38l.28-.28c-1.79-2.35-4.23-4.14-6.68-5.83-.09-.19-.19-.38-.09-.56.47-.66.94.19,1.41.19l2.63,1.97c.47-.38,0-.85-.19-1.13-2.26-2.07-4.14-3.95-6.95-4.89-.56-.28-.47-.94-.66-1.41.28-.47.85-.19,1.13,0l3.95,2.63c.19-.09.28-.28.28-.56-2.07-2.63-4.61-4.61-7.52-5.73-.37-1.28-1.77-1.86-2.35-3.01.09-2.35-.66-4.7-.19-6.86,1.22.66,2.54,1.69,3.57,2.91Z"/>
  <path class="cls-4" d="M39.99,95.6c.75,1.28-.64,1.81-1.28,2.67-.75,0-1.81,1.28-2.03-.11.11-1.6,2.03-2.13,3.31-2.56Z"/>
  <path class="cls-4" d="M334.45,110.42c.85,4.05,2.13,8,3.84,11.83,1.17,5.33,1.49,10.34,1.17,15.56l-.53.53c-6.4-3.2-13.01-8.1-17.38-14.07-.96-2.45-3.41-3.94-4.26-6.4-1.92-4.9-5.86-9.06-5.86-14.61,1.28.21,2.88,1.49,3.73,2.67.43-.64,1.49-.43,2.03-.11,1.28.32.96,2.56,2.77,1.92l.43.85c-.11,3.73.64,7.57,1.28,11.09l.75.75c.75-1.07-.11-2.56-.21-3.73,0-1.6-.11-3.52.53-5.01.85.53,1.81.96,2.35,1.92.21,1.71-.21,3.09-.64,4.48l1.17,6.82c.21.32.53.43.96.32.75-.43-.21-1.17.11-2.02-.11-.96-.32-2.13.11-2.88h.43c2.03,2.24,2.77,5.01,2.77,8.1.85.96.21,3.73,2.13,2.99-.43-1.81-.75-3.94-.11-5.65,1.38.43.85,2.24,1.38,3.31,1.81,2.24,2.45,4.8,4.69,6.4.64-1.07-1.17-1.81-1.17-2.99-.21-2.13-1.81-3.63-.64-5.76.11-.75.32-1.71-.11-2.34-.85,0-.64,1.07-1.49,1.07-3.41-1.92-6.08-5.12-7.46-8.74.11-.21,0-.53.21-.64,1.28.43,2.13,1.71,3.3,2.45.75-.85-.75-1.17-.85-1.92-1.28-1.71-2.88-3.52-4.26-5.01,0-.64-.96-1.17-.64-1.81,1.38,1.28,3.41,1.6,4.37,3.2,2.13.64,2.67,3.31,4.69,3.95.21-.96-.85-1.81-1.07-2.77-3.2-2.77-5.86-5.76-9.28-8.32.21-.53.32-1.17.64-1.71,2.45,1.71,4.05,4.69,6.93,5.76.53-.75-.96-1.6-1.28-2.24-1.6-3.41-7.36-4.69-5.54-9.06,4.58,2.99,7.25,7.46,10.02,11.83Z"/>
  <path class="cls-4" d="M73.89,103.06c.85-.21,1.71.21,2.13.85-.64,1.17.96,3.73-.85,4.59-1.39-.53-2.35-1.92-3.84-1.92-1.28-.21-2.77,1.81-3.52.11-.11-1.92,1.71-3.41,1.81-5.33.64-.64,1.71-1.81,2.56-1.39.64.96.32,2.56,1.71,3.09Z"/>
  <path class="cls-4" d="M84.13,101.47c-.64,4.48.32,9.27-1.81,13.43-2.45,9.06-7.57,16.95-13.86,24.31-.75,1.07-1.92,2.02-2.88,2.56-1.49-5.44-2.03-12.05-1.6-18.02.53-3.2.96-6.61,2.24-9.49.75,1.17,1.6,2.98,3.2,3.52v.85c-1.39,2.45-3.31,4.58-3.94,7.25l.43.53c1.92-.64,1.92-3.09,3.62-3.52l.21.32c-.64,3.62-2.13,6.93-2.67,10.66-.32.32-.53.85-.21,1.28.11.21.32.21.64.21,1.17-2.02,1.81-4.26,2.24-6.61,0-.53,0-1.07.53-1.17,1.07.11,1.07,1.28,1.6,1.92.64-1.38-.32-2.98-.21-4.58.21-.75.11-1.49.64-2.03.85-.11,1.17.53,1.49,1.07-.11.32.11.43.21.53.85-3.2-2.35-5.86.21-8.64,1.71-.21.96,2.03,1.28,2.98.43.96-.32,2.67,1.17,2.77l.32-.43.32-9.38c3.84-2.34-1.17-7.04,2.35-9.17.85-.21,1.07.43,1.81.75,1.07-.85.21-3.94,2.24-3.41l.43,1.49Z"/>
  <path class="cls-4" d="M31.68,104.56c-.43.75-1.07,1.49-1.81,1.81,0-.32-.43-.53-.11-.75.64-.43,1.17-.85,1.92-1.07Z"/>
  <path class="cls-4" d="M72.51,111.06c.11,1.17-.21,2.24-1.17,2.67-.75.11-1.17-.53-1.81-.75-.32-.85-.43-1.38-.21-2.24.43-1.39,2.67-.85,3.2.32Z"/>
  <path class="cls-4" d="M34.77,119.48c-1.92,13.33-10.13,27.08-23.35,33.05-.96.11-.64-1.17-.75-1.81-.11-10.77,1.71-21.32,8.32-29.53.43,0,1.07-.53,1.39,0,0,.53-.75.75-1.17,1.17-.85,1.17-1.92,2.24-1.92,3.84-.11,1.6,1.81,2.77,1.28,4.37l-3.84,3.31v.75c1.39.75,2.13-1.71,3.41-.75-.43.96-.75,2.24-1.92,2.56-1.81-.75-2.35.96-3.41,1.92-.32.64,0,1.39.64,1.6,1.07.32,1.49-.75,2.35-.75-.11.85-.11,2.35-1.07,2.88-1.39-.96-.85.96-1.6,1.39-.64,1.17-2.03,2.13-1.28,3.73.32.53.96.21,1.17-.32.21-1.39,1.71-1.92,2.88-2.24,1.17.96-.43,3.73,2.03,3.2.75-2.13-2.35-5.76,1.71-5.97.53.64.53,2.24,1.71,1.81.21-1.17-.11-2.67,0-3.94-.11-2.35-3.41-5.22-.21-7.04,1.28-.11,1.17,1.49,1.71,2.13.43.96,0,2.67,1.39,2.88.64-1.28,0-2.45,0-3.84-.64-1.28-.32-2.99-1.28-4.16-.11-1.17,1.28-1.17,1.81-2.13l.75-.75c.85,1.28,1.39,2.77,2.03,4.05.75.21.64-.53.85-.85-.32-1.71-.53-3.73-.53-5.44-.43-.75-.85-1.49-.64-2.56,2.24-1.28,4.69-2.13,7.25-2.77l.32.21Z"/>
  <path class="cls-4" d="M24.64,123.53c.21,1.92-1.17,2.99-2.56,4.05-1.39.32-1.49-.96-2.24-1.71-.75-1.49,1.28-1.92,1.81-2.88.96-.21,2.24-.32,2.98.53Z"/>
  <path class="cls-4" d="M331.15,137.39c-.32.96,0,2.13.21,2.99-.21,2.77-.53,5.65-.21,8.53,1.6-.53.64-2.77,1.28-4.05,2.34,2.24,1.6,5.97,3.3,8.53,1.07,2.99-.96,5.65,0,8.64.53,1.6-.11,4.16,1.49,4.9l.32-.21c-.32-2.03-.11-4.26.32-6.08,1.49.85,2.13,2.88,3.09,4.26.75,3.3-.43,7.46,1.07,10.23,1.81-.32,0-3.73,2.02-3.52,2.24,3.52,1.49,8.32,2.99,11.94.32.21.53-.11.75-.32-.11-3.09-.96-6.5,0-9.38-.53-2.03.21-4.16,1.49-5.76,0-1.71-2.34-1.28-3.2-2.77-2.24-.75-4.48-2.45-5.22-4.69,1.39-.11,3.95.85,4.59-1.28.96-2.77-.85-5.86-2.77-7.68h-.64c-2.56-3.09-7.57-4.26-8-8.74.96-.43,1.49.96,2.45.64,1.07.85,2.03,1.81,3.2,2.34.43-.21.21-.64.32-.96l-3.73-3.41h-.43c.43-.53-.21-1.07.43-1.39,1.49.43,3.41.53,4.16,2.13.85,2.67,3.3,4.69,4.05,7.46,2.67,5.97,4.26,12.58,5.22,19.3.75,6.18.43,13.22-1.71,18.87-1.28.21-1.71-1.81-2.45-2.56-5.22-8.21-10.66-16.63-14.5-25.27-1.17-1.92-1.49-3.95-2.13-6.08-1.28-5.76-1.39-12.58-.32-18.12.85.32,1.81.75,2.56,1.49Z"/>
  <path class="cls-4" d="M19.42,139.95c0,.32-.11.75.11.96-.64.64-1.6,1.28-2.45.96-.43-1.07.11-2.24,1.17-2.77.64-.53,1.07.43,1.17.85Z"/>
  <path class="cls-4" d="M335.52,139.74c0,.21-.32.32-.42.53-.53.11-.96-.21-1.17-.64.43-.53,1.07-.11,1.6.11Z"/>
  <path class="cls-4" d="M21.76,150.08c.21,13.43-4.05,26.01-12.26,36.46-1.07,1.07-2.13,2.45-3.52,2.77-.53-.96-.11-1.81-.43-2.88.32-4.69-.75-10.45.43-15.25,1.28.75.53,2.45.64,3.84-.32.96-.21,2.45,0,3.63l-.43,6.5c.11.32.43.75.85.75.96-1.71.11-4.69,2.88-5.12.32.11.75.42,1.17.11,1.07-1.6,0-3.84.32-5.65-.11-.96-.43-2.88.32-3.84.96.75.43,2.67,1.92,2.99,1.17-1.28-.11-2.88-.21-4.37.11-1.92-1.81-3.94-.21-5.54,1.17-.53,1.07.85,1.39,1.39.32,1.07.32,2.45,1.6,2.88.43-.53.64-1.49.32-2.24-1.49-3.95-1.17-8.85,1.17-12.26.21-.53.11-1.17.11-1.71.96-1.28,2.45-1.28,3.31-2.56l.64.11Z"/>
  <path class="cls-4" d="M340.21,152.11c.11.85-.64,1.49-1.28,1.92-1.07-.64-1.28-1.92-1.92-2.88.96-1.71,2.45.21,3.2.96Z"/>
  <path class="cls-4" d="M15.68,154.45c-1.49,1.81-1.92,5.76-5.12,5.12-.53,1.17-2.45,1.71-2.45,3.09.32.43.75.43,1.17.64-.32.43-1.39.85-1.17,1.6.64.43,1.39-.21,1.92.75.96,1.71-.21,3.41-.85,4.9-.43.43-.85.85-1.49.64-1.07-.85.21-2.99-1.49-3.41.85-3.84,1.81-7.46,3.41-10.87.43-.11.75-.64,1.07-.32,1.28-1.17,3.09-1.81,4.69-2.34l.32.21Z"/>
  <path class="cls-4" d="M343.51,155.73c.85.53.43,1.71.53,2.56-.42.64-1.38.32-2.02.21-.11-.75-1.28-1.71-.64-2.77.11-1.39,1.71-.64,2.13,0Z"/>
  <path class="cls-4" d="M13.13,162.87c-.32.43-.32,1.07-.96,1.39-.96.21-1.71-.43-1.71-1.39.32-.53.64-1.28,1.39-1.49,1.17-.43.85.96,1.28,1.49Z"/>
  <path class="cls-4" d="M346.82,169.7c0,.53,0,1.71-.85,1.28-.21-.53-.96-.96-.53-1.6.43-.53,1.07,0,1.39.32Z"/>
  <path class="cls-4" d="M9.61,173.21c.32.85-.43,1.71-.96,2.24-.75.11-1.07-.53-1.28-1.07-.11-.85.43-1.49,1.17-1.92.43.11.96.32,1.07.75Z"/>
  <path class="cls-4" d="M9.93,177.48c-.11.53.21,1.17-.32,1.49l-.85-.11c-.43-.64.11-1.17.53-1.71.21,0,.43.11.64.32Z"/>
  <path class="cls-4" d="M342.56,199.44c.32,2.02-1.17,3.73-1.17,5.76-.85,4.59-4.26,8.32-7.46,11.62-.21.64-.21,1.49.32,1.92h.64c1.6-1.6,2.24-4.26,4.59-5.33.96,5.76-5.44,9.06-6.29,14.29.21.32.43.32.64.21,1.17-1.49,1.28-3.52,2.99-4.69.21.21.64.21.64.53-.32,2.45.32,5.86-2.45,7.04-1.28,1.07-2.98,1.81-3.84,3.2,1.07.53,2.24-1.28,3.3-.75-.85,2.56-1.81,5.01-2.02,7.78.11.32.53.32.75.11.85-1.07,1.28-2.45,1.71-3.84.75.11,1.92-.11,2.67.32,0,.43,0,.75.32.96.64.21.85-.53,1.07-.96.32-1.49.53-2.98,1.28-4.26.85.64,2.13-1.28,2.45.43.11,2.03-2.35,2.77-2.67,4.59-1.6,2.45-4.16,3.62-5.65,6.18-1.28.85-2.34,2.24-3.84,2.03-2.67-8.32-.96-16.95,0-25.37,1.07-6.29,2.56-12.69,5.65-18.44.32-.75.64-1.81,1.6-2.13,1.92.32,3.09-2.77,4.8-1.17Z"/>
  <path class="cls-4" d="M348.1,199.87c1.49,7.89,1.71,15.57-.11,23.56-.75,2.45-1.49,4.9-2.77,7.14-.32.85-1.28,1.81-2.24,2.13-.42,0-.64-.32-.75-.75-.43-1.28.96-2.56-.11-3.31.75-2.02-.32-3.73-.53-5.65.43-.43.96-.64,1.6-.75.53,1.39,1.07,2.77.96,4.37l.53.32c1.07-.53.75-1.81.75-2.88,2.03-1.81,2.34-4.8,1.6-7.25-.96-1.17-.96-3.09-1.07-4.8.21-1.6,2.45-2.98.85-4.8-.85-.43-2.24.53-2.77-.75-.53-2.35.32-4.48.64-6.72,1.17-.32,2.67-1.71,3.41.11Z"/>
  <path class="cls-4" d="M31.43,176.19c-.41,2.64.8,4.98-.47,7.55-1.07,2.81-1.83,5.85-2.17,8.82.19.34.49.57.83.28.97-.14.42-1.36.69-2.09,1.07-1.42,1.33-3.43,2.3-4.96,1.05.29.39,1.85.65,2.72-.59,2.09-1.4,4.39-2.41,6.34-.54.07-1.63.3-1.05,1.1.08,1.82-.96,4.2-.26,6.18.33-.08.74.16.87-.26,1.36-2.46.15-6.19,2.95-7.9,1.81.14,1.01,2.21,1.24,3.41-.24,4.58-3.09,8.32-1.95,13,.32.02.83.28.97-.14-.06-2.04.45-4.56,1.14-6.54.13-.31.54-.07.87-.15.76,2.73-.32,5.64-.45,8.73-.5,2.32-.58,4.87.33,6.98.52.25.67-.38,1.01-.56-.18-1.83-.88-3.92.11-5.66,1.47.33,1.34,2.13,1.68,3.23-1.4,2.89.2,5.79.64,8.49.77,1.13.63,2.94,2.2,3.38l.47-.5c-1.32-3.74-3.37-7.74-1.55-11.99,1.32.96,2.5,2.33,3.35,3.78.31.13.75-.05.89-.47-.21-1.41-1.31-2.45-1.64-3.76-1.48-1.61-3.29-3.14-2.7-5.33l-.19-.34c-.35.4-1.15,1.09-1.64.41-.77-1.13-.88-2.53-.45-3.88l.34-.19c1.62,1.19,3.62,3.05,4.33,4.93.1.11.42.03.66-.27-.24-2.48-2.02-4.32-3.91-6.28-1.54-.87.94-3.99-1.62-2.58-.53-.04-1.04-.4-1.43-.86-.12-1.18.05-2.13.14-3.2,1.71.02,2.7,2.45,4.24,3.31l.38-.82c-.9-3.7-5.03-5.51-5.48-9.5-1.2-1.05-.73-3.05-.54-4.21,1.73-.3,1.7,2.91,3.36,2.18-.58-2.29-2.47-4.14-3.69-6.27.23-1.59-1.62-2.58-1.06-4.36-.49-.57-.32-1.41-.48-2.18.6-.81,1.94-.17,2.9-.21,3.44,4,4.21,9.3,6.32,13.95,1.02,4.89,3.22,9.65,3.16,14.78.33,2.7.7,4.86.38,7.73.65,6.89-.39,13.55-1.54,20.3-.24.41-.51,1.03-1.05,1.1-3.3-1.64-5.35-5.54-7.48-8.48-3.66-5.3-5.56-11.33-7.57-17.25.2-1.16-.39-1.96-.63-2.94-1.3-9.61-1.71-19.8,1.15-29.31.41-1.15,1.72-.19,2.46-.03l.37.78Z"/>
  <path class="cls-4" d="M55.54,187.2c.04,1.07-.87,1.97-1.36,2.9-1.61,1.82-2.07,4.04-2.33,6.48.09.32.41.24.73.26,1-.69.79-2.41,2.18-2.43,1.01,2.63-1.75,4.05-1.58,6.52-.79,2.41-1.58,4.71-1.85,7.36l.4.45c1.95-2.23,1.33-5.9,3.19-8.35,1.12.92.67,2.93,1.56,4.16-1.36,2.91-3.07,6.33-2.31,9.68,1.28.08.83-1.33,1.19-1.96.27-.94.15-2.34,1.34-2.59.54-.07.5.56.8.9-2.22,3.07-1.32,7.4-2.17,10.87.09.33.41.35.72.37,1.92-1.7-.23-4.82,2-6.29.37-.72-.07-2.35,1.2-2.17-1.58,3,1.24,5.74-.14,9.07.87,1.44.31,3.54,1.41,4.79l.56-.5c.42-1.58-.78-2.93-.05-4.38.36-2.33-1.3-4.78.02-7.15-.09-.22.13-.42.25-.52,1.35.62,1.86,2.79,3.27,2.34-.29-2.26-2.1-3.98-3.15-5.97-.83-.37-1.54-1.06-1.9-2.04.03-.42.07-1.06.61-1.24,1.36.41,1.32,2.75,2.74,2.31-.76-3.25-5.52-5.69-3.59-9.2h.21s2.22,3.79,2.22,3.79c.56-.5.08-1.28.12-1.92-.85-1.76-1.8-3.74-3.42-5.13-.83-2.08-2.73-4.12-1.2-6.48-.67-1.22.57-2.32.01-3.63.34-.41.86-.16,1.29-.13.47,1.1,2.02,1.94,1.4,3.29l.2.22c.11-.1.22-.09.43-.08,1.61,3.31,3.32,6.62,3.84,10.39,1.93,5.03,2.22,10.61,2.95,15.99.19,7.17.05,14.53-2.49,21-5.46-3.23-7.95-9.58-10.71-14.88.41-1.36-1.07-1.67-1.32-2.75-1.47-3.83-2.47-7.63-3.53-11.86-.51-.95-.56-1.21-.63-1.86-.28-1.85-.23-1.8-.26-4.22.1-1.3.02-.83.22-2.08.2-3.5.32-6.82,1.58-9.83,1.46-1.19,2.76-4.85,5.35-3.51Z"/>
  <path class="cls-4" d="M328.27,176.41c.11.64-.85,1.39,0,1.92,1.28,1.07-.53,2.45-1.07,3.73-2.03,2.24-4.16,4.48-5.12,7.25-.53.32-.75,1.17-.85,1.71.21.32.53.43.85.32,1.17-1.81,2.45-3.62,4.26-5.22h.53c-.53,4.69-5.86,7.68-6.82,12.26,1.39,0,1.6-1.81,2.35-2.67.96-.64,1.49-1.81,2.67-2.13.75,1.07-.85,1.07-.85,2.02-1.71,2.56-3.09,5.33-5.01,7.68-.64,1.07-1.28,2.34-1.07,3.41,1.6-.85,1.49-3.2,3.2-3.94,1.07,1.17-.64,2.77-1.17,4.05-.96,2.24-3.41,3.63-3.52,6.08l.32.21c1.38-1.71,2.56-3.41,4.26-5.01-.43,4.05-3.63,7.25-3.73,11.51.11.43.42.53.75.53.85-1.38.96-3.09,1.49-4.69.96-2.13,2.24-4.05,2.77-6.29.21-.11.43-.21.64-.11.53,1.17-.53,2.67.43,3.73.96-.21.64-1.71,1.28-2.45,1.17-1.39,1.6-3.09,2.24-4.8-1.28,0-1.07,2.13-1.6,3.09-.32.32-.43.64-.96.53-.21-2.45-1.81-5.86.75-7.46,1.49-.21,1.81,2.56,3.09,1.07.43-.75-.53-.85-.75-1.28-1.39-.96-.96-2.67-1.81-3.84,0-.21.11-.43.32-.64.85.11,1.28,2.45,2.56,1.39-.75-2.35-1.39-5.01-.96-7.57.43-.64.96-.32,1.38-.21.96.96.43,2.45,1.28,3.3-.21.43,0,.75.32,1.07.64-.85-.21-1.92.21-2.88,1.38-5.12-1.17-10.23,1.07-15.03.43-.32.75-.64,1.38-.53,1.28,4.37.75,9.49.85,13.97-.96,7.78-3.2,15.14-6.61,21.96-3.16,4.28-4.62,9.01-11.09,14.07-.96.21-1.07-.96-1.49-1.49,0-9.62-1.55-19.71.64-29.11,1.17-4.26,2.13-8.53,3.84-12.79.85-1.71,1.6-3.52,2.35-5.33,1.38.96,2.13-2.24,3.41-.43,1.07-.21,2.03-3.2,2.99-.96Z"/>
  <path class="cls-4" d="M21.44,199.98c1.49,3.09,2.67,6.61,3.94,9.81,3.84,12.37,5.33,27.4,1.17,39.87-.53.43-.53,1.28-1.28,1.38-9.49-8.1-14.07-19.08-15.99-30.7-.64-6.18-1.71-13.11.32-18.98,1.17-.85,1.71-2.98,3.62-1.81.21.53-.64.75-.11,1.17.96.11,1.17-2.24,2.13-.85,0,1.81-1.17,3.63-.85,5.44-.85,2.98-1.39,6.18-2.98,8.74l.32.85c-.53,1.71-.21,3.62-1.07,5.12-.11.43.11.75.43.96,2.77-2.56,1.6-6.93,4.26-9.6.11-.11.21-.21.32-.11.21,3.09-1.28,5.86-1.71,8.96-.75,2.02-1.07,4.58-.85,6.72.21.32.53.43.96.43.96-1.49.32-3.41,1.07-5.12-.21-2.56,1.17-4.9,1.81-7.35,2.13,1.92.32,4.9,0,7.04-.11,2.24-2.45,3.84-1.6,6.18.64,2.45-.64,3.73.21,5.97.21.85-.11,1.92.75,2.45h.64v-9.06c.53-.53.43-1.38.64-2.13.11-.32.53-.11.75-.21l.21.43c.32,4.05-1.07,8.31.21,12.37,1.07.32.53-1.28,1.49-1.07.85,1.92-.11,3.84.21,5.76.85.53,1.28,1.92,2.45,2.02l.64-.96c-.75-2.56-1.71-5.12-1.6-8.1-1.49-2.45-3.2-5.33-1.92-8.21h.32c1.17,1.81,2.45,3.63,2.98,5.76.53.11.96-.21,1.17-.64-.85-3.84-3.62-6.82-4.9-10.56-.43-.96-.85-2.56-.11-3.41h.32c1.07,2.13,2.24,4.05,3.41,6.18.21,0,.53,0,.75-.32-1.07-4.48-3.84-8.31-6.29-12.26.43-.42,0-1.71,1.07-1.28,1.71,1.39,2.77,3.3,4.16,5.01.43.11.64-.11.96-.42-1.07-2.35-2.45-4.59-4.26-6.61-1.92-.85-2.67-2.88-3.2-4.58.64-1.71.64-3.84,2.03-5.01,1.17-.32,2.03.43,2.98.75Z"/>
  <path class="cls-4" d="M345.11,210.32c.43,1.28.21,2.56.11,3.73-.43.32-.85,1.07-1.6.75-1.39-.75-.53-2.56-1.49-3.52-.11-1.17.21-2.13.64-2.99,1.81-1.17,1.6,1.17,2.34,2.03Z"/>
  <path class="cls-4" d="M343.94,217.88c0,.85-.53,1.49-1.07,1.92-.85,0-1.81-.32-2.13-1.28-.21-1.38.53-2.67,1.28-3.73,1.38.32,1.49,1.92,1.92,3.09Z"/>
  <path class="cls-4" d="M346.71,219.17c-.21.85.11,2.02-.85,2.56-1.71-.11-.85-2.13-1.28-3.2.43-2.02,2.35-.75,2.13.64Z"/>
  <path class="cls-4" d="M340.74,227.48c-.21,1.6,1.07,4.26-.64,4.69-.43-2.56-3.09-5.01-1.17-7.78,1.28.32,1.38,2.03,1.81,3.09Z"/>
  <path class="cls-4" d="M338.18,231.74c0,1.39.11,2.99-.64,4.05-1.17.53-1.28-.85-2.24-1.17.43-1.28,1.39-2.67,2.45-3.52l.42.64Z"/>
  <path class="cls-4" d="M302.18,264.02c.48-.1.77-.48,1.25-.29.58.48.48,1.35,0,1.83-1.73,1.73-1.35,4.43-2.41,6.45-1.54,5.49-4.43,10.2-8.56,14.53-1.83,2.12-3.95,3.66-5.87,5.58-4.62,3.18-9.33,6.26-14.24,8.85-.48-.58-.1-1.73-.58-2.5,0-.96.77-1.83.19-2.79.77-.48.29-1.64.67-2.41,2.02-8.85,7.32-16.74,13.57-24.06,1.64-1.16,3.18-3.18,5.1-3.66,1.93-.48,4.62-.58,5.58-2.89-.19-.58.19-1.06.58-1.35.96-.29,1.35,1.06,2.31.58.67-.48.77-1.16,1.06-1.73-.29-.87,1.83,2.41,1.35,3.85Z"/>
  <path class="cls-4" d="M60.03,239.42c.53-.64,1.28-.53,1.92-.32.53,1.39-.43,2.99-.11,4.48-.32.96.43,2.13.75,3.09,1.81,1.28-.53,2.56-.85,3.84-.96,3.95-.96,7.57.21,11.41.75,5.12,1.07,10.45,2.67,15.24.85.32.64-.64.96-.96.32-2.24-.11-4.69-.11-6.72.32,0,.64.43.85.75,1.28,4.05.96,8.74,2.35,12.79.32.32.85-.11.96-.53.43-1.81-2.03-3.73-.11-5.33,1.07-.21.85,1.07,1.28,1.6.64,3.31.75,6.93,1.92,9.7,2.56-.21-.21-2.88.64-4.26.21-.32.64-.53.85-.32.75.96,1.39,1.81,1.49,2.99,2.13,2.45,3.73,5.33,6.4,7.25h.32c0-2.13-2.13-3.73-3.2-5.65-.43-3.84-2.67-7.04-3.09-11.09-.75-.43-1.81-.64-2.13-1.71,1.49-.64,2.45,1.71,3.84,1.07-.21-.96-1.28-1.39-1.92-2.03-2.56-1.28-5.44-2.24-7.46-4.59l.21-1.07c1.71.32,3.2,1.6,4.9,1.71.43-.21.43-.64,0-.85-3.84-2.99-9.27-5.86-10.55-10.88l.11-.75c2.13,1.81,5.54,2.24,7.89.64,2.35-1.49,2.13-.43,2.13,1.17-.32.11-.53.43-.85.64,3.62,8.64,8.64,16.74,13.01,24.95,1.28,2.77,1.92,5.76,3.2,8.53.21,4.37,2.88,7.78,3.2,12.05l-.32.96c-8.1-4.37-15.67-12.05-21.64-19.62-5.97-7.25-8.74-15.89-13.11-23.88-.11-1.07-1.39-2.34,0-3.2.96-7.25,1.17-14.29,1.28-21.96,1.07,0,.96,1.92,2.13.85Z"/>
  <path class="cls-4" d="M33.7,247.84c.21-.53.75-.42,1.17-.42.64.53.75,1.49.53,2.02-2.03,0-3.73,1.17-4.8,2.77-1.49,2.13-1.6,5.44-.11,7.68,1.39,1.71,4.16,1.81,4.58,4.05.11,1.49,0,2.88-.75,3.94-.43,1.6-.21,3.3-.64,4.9.32.11.64.64,1.07.21.43-.53.64-1.28.75-2.03.43-2.24,1.07-4.37,2.24-6.29,1.39-.21.53,1.28.96,1.81.43,1.92-.32,3.84.11,5.76-.32,3.09.53,5.44.75,8.42.21.11.32.53.64.43l.32-.32.11-5.97c.11-.21.53-.11.75-.11l2.77,5.01c-2.35.85,1.28,2.56-.43,4.05,0,.75.75,1.17,1.28,1.71,1.71.11-.53-3.63,1.6-2.34l.53.53c1.28,2.56.85,6.08,3.94,7.68.43-.11,1.07.21,1.28-.32.11-1.71-1.92-2.34-1.49-4.05.85.32,1.28,1.49,2.45,1.28.32-.32.75-.64.64-1.28-2.03-2.77-5.22-4.26-6.93-6.93-1.71-1.17-2.03-3.2-2.56-5.01.32-.53.75,0,.96.32,1.6,1.49,3.09,3.94,5.33,4.48.43-.21.11-.75.21-1.07-4.48-2.88-7.25-7.68-10.02-11.83.11-.32-.11-.75.32-.96,1.49,1.39,3.31,2.56,4.58,3.84.32,0,.64.11.75-.21v-.53l-5.86-7.46c.53-1.49,1.07-2.98,1.07-4.69-.11-1.28-.43-2.34-.53-3.62.53-.43.21-2.45,1.81-1.92,2.03,2.45,1.71,4.9,2.77,4.05,2.35,1.38,2.56,5.86,2.77,5.44,0-.32,1.17,3.3,1.17,3.3,2.45,6.29,5.12,12.47,6.18,19.19,1.49,4.37,1.28,8.53,1.6,13.11-.43.42,0,1.49-.96,1.38-2.24,0-3.62-2.67-5.76-3.09-11.94-8.85-19.51-21.11-22.92-34.65-.75-1.6-.64-3.73-.64-5.54,1.39-2.34,2.03-5.01,2.98-7.46.32-.43.96-.64,1.39-.21,0,1.17,1.28,2.34,2.03.96Z"/>
  <path class="cls-4" d="M287.22,253.46c.45,5.13-2.95,8.62-4.24,13.07-2.07,3.9-4.54,7.64-7.78,10.73-2.8,4.55-7.72,8.05-11.9,11.65-.53-.07-1.18-.06-1.46.44l-.06.42c-3.06,1.82-6.03,4.52-9.59,4.55-.36-1.23-.04-2.7-.39-4.04l1.21-6.18c1.34-1.85,1.61-4.51,2.95-6.36,2.26-5.28,3.98-10.52,8.3-14.32,2.17-3.89,6.42-6.51,9.18-9.99,1.48-2.05,3.86.12,5.81-.68.92.35,2.01,1.04,2.8-.03.32.05.71.32.98-.07-.36-1.99,1.93-2.2,2.46-3.64.63-.66,1.15.27,1.66.45,1.12-1.02.62,1.71.07,4Z"/>
  <path class="cls-4" d="M334.24,251.68c-.32,2.45-.85,5.12-1.71,7.57-3.73,12.26-11.62,24.63-23.45,31.77-1.07,1.28-2.56,2.24-4.16,1.92-.85-2.03.43-4.26.32-6.4,2.88-9.92,6.5-19.62,13.75-27.72.43-1.81,2.88-2.34,3.2-4.26,1.71-1.07,4.05-1.6,6.08-.85.43,1.49-.96,2.35-1.28,3.63-2.34,1.39-5.12,2.24-7.04,4.26,0,.32.21.43.32.53,2.03-.32,3.2-1.81,5.22-2.13,1.38,1.6-1.39,1.81-1.81,3.09-.96,4.69-6.4,3.73-9.06,6.72-.53.64-1.49.96-1.49,1.92l.32.43c1.49-.75,2.88-2.24,4.48-2.24-.11,4.9-6.29,4.8-7.78,8.74.64.64.96-.11,1.49-.21,1.07-.53,1.81-1.71,2.88-1.92.75,1.6-1.71,2.45-2.24,3.95-1.49,2.13-2.99,4.26-3.84,6.61.21.21.42.32.64.32,1.6-1.92,2.45-4.91,4.8-5.97.21,1.07-.75,2.35-.43,3.41.85-.11.85-1.07,1.17-1.6.75-1.92,1.07-4.16,1.81-6.08.85-.32.64.75.85,1.07.53,1.71-.43,3.09-.11,4.69,1.71-1.17,1.39-3.63,1.81-5.54-.21-2.35-.42-5.44,1.6-6.93.43-.11.75.32.85.53-.21,1.49-.75,3.2-.53,4.48,2.24-.11,1.49-2.67,2.03-4.05.75-2.77.85-6.61,4.05-7.36.32.75.64,1.6.32,2.34-.11.32-.43.53-.11.85.96.43,1.07-.96,1.49-1.49.53-2.24-.21-5.12,1.17-7.04-.11-.96-.32-2.13.11-2.99,0-1.49,1.07-2.77.53-4.48,1.07-.96,2.45-1.17,3.73-1.92.53.75,0,1.6,0,2.35Z"/>
  <path class="cls-4" d="M68.46,250.62c.11,1.92,2.67,2.24,1.6,4.37,0,.96-.96,1.49-1.71,1.81-1.28.11-2.35-.53-3.31-1.17-.85-1.39-1.28-3.73-.11-5.12.85-.75,2.67-.75,3.52.11Z"/>
  <path class="cls-4" d="M37.75,253.81c.85,1.49,1.81,3.3,1.28,5.01-.85.53-.85,2.03-2.13,1.92-1.81-.21-3.62-1.49-4.05-3.31-.53-.85-.21-2.02-.32-2.98.64-2.56,3.94-1.71,5.22-.64Z"/>
  <path class="cls-5" d="M284.25,254.65c-.68.98-.36,2.53-.72,3.56-.77,1.61-1.12,3.29-2.17,4.64.47-1.76.92-4.18.77-6.14-.92.41-2.02,1.33-2.88,2.07-1.03,3.41,1.37,6.23-.69,9.38.06,1.08-.35,2.43-1.39,2.92-.51-.18,0-.75-.29-1.01.54-3.05,1.8-5.77,1.46-8.73-.15-.45-.65-.74-1.22-.5-2.65,1.99-.97,6-2.64,8.67.29,1.01-.38,1.88-.92,2.67.51-1.33.21-2.99-.36-4.25-1.36.45-1.99,1.87-3.09,2.79-.8,1.82-.6,4.22-2.1,5.62-.11,1.49-.68,3.24-1.75,3.95-.18-1.75,1.4-3.78.24-5.46-1.75,1.69-3.15,3.96-5.32,5.59-1.78,1.15-1.72,3.74-3.49,4.78l-.42-.06c1.51-5.28,6.74-8.73,9.15-13.55-.07-.22-.3-.15-.51-.18-1.66,1.06-3.6,1.85-5.25,2.8-.06-.33-.54-.72-.18-1,4.46-4.1,11.01-5.43,13.53-10.99-.94-1-2.35-.12-3.58.14-1.64.2-2.7,2.31-4.48,2.7-.39-.27-.11-.77.04-1.07,5.19-3.89,11.19-5.18,16.37-9.83.64.09,1.57-.42,1.87.48Z"/>
  <path class="cls-5" d="M297.78,264.69c-.21,2.45-1.39,5.01-1.28,7.78-.75,3.41-.96,7.14-3.41,9.6h-.21c1.17-2.45.96-5.54,1.71-8.32l-.64-.43c-1.17,1.28-1.38,3.09-1.81,4.8-.43,1.49-.21,3.3-.96,4.59h-.32c.32-1.49.53-3.52-.11-4.9-1.38.11-1.17,1.6-1.6,2.56-1.6,2.24-1.28,5.65-3.2,7.68h-.32c.75-1.6.96-3.41,1.38-5.12l-.53-.43c-2.98,1.71-1.49,5.65-3.73,7.68-.32-1.07.75-2.24.53-3.63l-.42-.21c-1.28.75-1.28,2.24-2.03,3.3-1.81,2.56-4.05,4.8-5.86,7.36-.21,0-.53,0-.53-.32v-.32c2.24-3.3,5.97-6.18,6.93-10.13-1.17-1.49-2.67.96-4.05,1.28-.32.53-.85.53-1.49.53,2.88-4.48,8.21-5.33,11.73-9.17-.32-.53.43-1.28-.21-1.92-1.81-.85-3.63.96-5.22,1.92-.64,1.17-1.92,1.49-2.88.96l-.21-.11c2.24-1.49,4.69-3.09,6.72-4.9,1.81-1.07,2.77,1.07,4.59.11,1.07-.64,2.24-1.6,1.92-2.88-.64-.32-1.49-.32-2.13-.32-.53-.11-1.38-.11-1.07-.96,3.2-1.07,7.36-2.13,8.32-6.08h.43Z"/>
  <path class="cls-4" d="M253.15,270.25c-.43,2.77-1.71,5.54-2.88,8.32-.75.64-1.39,1.49-2.67,1.07-1.28,1.17-3.3.85-4.69,1.49.11.43.11.96.64,1.28-1.17,1.39-3.63.75-4.48,2.56.75,1.07,1.81-.64,2.77,0-1.07,2.56-4.48,1.6-5.76,3.84l.96.64c-3.41,1.71-6.4,5.22-9.49,7.14h-.75c0-1.6,2.34-2.67,2.34-4.37l.85-.43c7.36-7.04,13.65-15.89,22.17-21.54h.96Z"/>
  <path class="cls-4" d="M239.68,274.39c-2.03,5.65-6.5,10.13-10.13,15.03-8.32,9.7-16.31,19.4-25.7,27.83-14.39,13.01-28.46,28.57-45.2,37.53-2.35.53-4.48,2.77-7.04,1.49,1.6-1.81,4.26-1.81,5.76-3.84.75-.53,1.92-.75,2.13-1.71-2.24.43-4.26,2.13-6.61,2.67-2.45.75-5.01,3.09-7.46,2.13,1.81-1.6,4.26-2.24,6.18-3.84,1.71.21,2.45-2.03,4.16-1.81,8.1-5.12,15.99-10.66,23.14-17.7,16.95-14.82,30.17-32.73,42.22-50.53.53-.32.96-1.17,1.71-.85.21.85.32,2.35-.32,3.09l.32.32c1.17-1.28,2.03-2.56,3.3-3.63.64-.53.64-2.13,1.92-1.49.11,1.07-.32,2.13-.64,3.2,1.92-.53,1.6-3.2,3.41-4.37.32.11.85-.21,1.07.21,0,.32-.11.64.11.75.85-.11,1.39-1.81,2.45-1.39.43,1.07-1.17,1.81-.53,2.67,1.38-2.24,3.94-3.3,4.69-5.97.32-.43.96-.21,1.07.21Z"/>
  <path class="cls-4" d="M74,276.63c0,1.39,1.39,2.67.53,3.84-2.03-1.17-3.09-3.41-3.62-5.54.64-.64,1.6.21,2.45.32l.64,1.38Z"/>
  <path class="cls-4" d="M129.23,279.29c1.07.64,1.81,2.77,3.09,1.92,1.07.96.96,3.3,2.98,3.3.32,1.81,2.35,2.13,2.77,3.84l.53.43c.85-1.71-1.49-2.98-1.92-4.58,0-.64-1.17-1.49,0-1.71,2.56.75,3.41,3.73,5.65,5.22,1.6,1.6,2.99,3.3,4.8,4.59.53-.96-.32-1.71-.21-2.67l.85.11c4.58,7.78,11.51,14.29,17.16,21.43,4.58,5.22,9.92,10.88,15.03,15.25v.64c-2.35.21-3.84-2.34-5.76-3.09l-.32.21c1.92.85,2.24,2.67,3.84,3.94-.32.43-.21,1.17-.64,1.71-.21-.53-1.6-.75-.75-1.49l-2.77-2.34c-.64,0-.64.64-.96.85.53,1.28,1.92,1.6,2.67,2.88.11.32,0,.64-.32.85l-1.28-.32c-13.86-12.26-25.69-26.44-38.27-40.19-2.88-4.05-6.72-7.46-9.17-11.62-.11-.64.75-.43,1.07-.32.75.53,1.07,1.07,1.92,1.17Z"/>
  <path class="cls-4" d="M246.38,285.36c-.64,2.45-.32,5.22-1.81,7.25,0,.32-.21.75.21.85h.32c1.71-2.24,2.34-4.9,3.41-7.46.96.43-.21,1.28,0,1.92-1.71,3.73.64,9.49-3.94,11.73-7.57,4.69-14.82,10.02-23.13,12.9-1.92,1.38-3.84,1.49-6.08,1.92-.21-.96-.21-2.56.21-3.63.1-.42.53-.53.96-.53.64-.11.85.85,1.39.85,2.13-1.17,2.13-4.05,4.69-4.69,1.39-2.13,3.2-4.05,4.26-6.4.64-.43,1.17-.96,1.92-.96.64.85,0,1.81-.32,2.67-.96,1.81-2.34,2.77-3.62,4.37.32.53.96.11,1.28-.11,2.88-1.92,3.52-5.01,5.12-7.57.53-1.38.85-3.2,2.56-3.73.21.75.21,2.13-.53,2.77-.42,2.45-2.02,4.59-3.73,6.29,0,.32.11.75.43.75,2.45-1.81,3.84-4.48,5.01-7.14.53-.21,1.07.32.96.75-.21,1.71-1.38,2.98-1.92,4.48.32.43.64.43.96.21,1.92-2.13,1.81-5.01,3.73-7.04.96-2.13,1.38-4.48,2.67-6.4h.85c-.21,2.67-1.07,5.55-2.77,7.89.21.11.11.43.32.53,2.67-1.07,2.67-3.94,3.73-6.08s.96-4.91,2.56-6.61l.32.21Z"/>
  <path class="cls-4" d="M61.63,289.74c1.92-.85,1.71,2.13,3.52,1.81.85,2.35,1.71-.75,2.98.32.53,1.17,2.13,1.81,1.49,3.3-1.17.32-2.35-.64-3.52-1.07-2.03-.21-3.84.75-5.54,1.71-.64-3.41-.96-7.04-1.17-10.66.32-.32.85-.32,1.17-.11.96,1.39.32,3.3,1.07,4.69Z"/>
  <path class="cls-4" d="M120.59,285.8c8.21,6.82,15.67,15.35,21.96,23.67,2.35,3.3,3.62,7.04,5.44,10.56,0,1.17.64,2.45.21,3.52-7.46-1.92-14.93-4.48-21.32-9.27-1.49-3.41-3.09-6.82-4.69-10.13,0-2.13-1.6-3.94-.64-6.18,3.41.75,2.13,5.01,3.09,7.46.96,2.24,1.71,4.48,2.56,6.72.43.11.75,0,1.07-.32-.43-1.38-.64-3.2-.11-4.26.85-.11.64.96.96,1.39.53,1.39,1.07,2.67,1.71,4.05.43,0,.75-.11.96-.43,0-1.81-.96-3.52-.64-5.33,2.99,2.56,1.92,7.25,4.8,10.23.43.21.53-.32.85-.53-.21-1.39-1.07-2.67-.85-4.16,1.28-.43,2.03,1.39,3.09,2.13.11,2.03,2.45,2.67,3.84,3.84,1.17-1.07-.96-1.38-.96-2.45-.43-1.6-1.81-2.88-2.88-3.95-.11-.53.75-.85.43-1.28-1.81-1.6-4.37-1.92-5.76-4.16.85-.96,2.45,1.39,2.77-.53-2.24-1.92-5.12-1.92-7.46-3.52-.11-.43-.43-.75-.21-1.28,1.81-.21,3.52.85,5.22.96.32-.11.21-.43.21-.75-2.56-1.81-5.97-1.92-8.42-3.84v-.11l4.37.11c.32-.21.96-.53.64-.96l-.64-.43c-4.16-.43-8.64.32-11.3-3.63-.53-.75.21-2.13-1.17-2.56.75-1.6-.64-6.18,2.88-4.58Z"/>
  <path class="cls-4" d="M300.66,286.12c.32,1.07-.32,1.71-.85,2.56-.85.32-1.81.75-1.92,1.71-.32,1.81,2.56,1.28,1.81,3.2-3.09.21-6.08,1.71-7.89,4.16-.21.43.11,1.17-.42,1.49-1.92-.43-3.63-1.39-5.65-.96-.53.11-.96.21-1.39.64.43,1.81,2.88-.43,3.41,1.39,0,.75-.32,1.49-1.07,1.81-2.03-.43-5.22-1.28-6.82.75.11.32,0,.64.32.85,1.17-.11,2.24-1.07,3.3-.32.43.96-.85,1.92-1.6,2.34-2.13.75-4.37,1.17-6.4,1.92-.85.75-2.88,1.17-2.45,2.56,1.28.43,2.35-1.17,3.63-.85v.21c-2.67,3.09-6.93,2.99-8.96,6.82.11.21.11.64.43.64l2.56-1.92c.53,1.17-.75,1.92-1.39,2.77-2.24,1.17-4.48,2.67-6.29,4.8-.11.32.21.53.43.75,1.39-.64,2.13-2.13,3.63-2.45-.43,1.92-2.24,2.45-2.77,4.26-.75,1.38-2.45,2.02-2.77,3.52l.42.43c.75-.43,1.39-1.49,2.35-1.71.75.64-.32,1.71.96,1.81,1.49-2.67.75-7.14,4.48-8.21-.32,2.13-.96,4.37-1.92,6.29.21.21.11.42.32.53.85,0,1.07-.96,1.49-1.49.96-3.84,2.67-7.25,4.69-10.66.75.96-.21,2.45-.43,3.63-.96,1.07-.96,2.56-2.03,3.62.21.53.75.32,1.07,0,3.3-3.09,2.34-8.1,5.65-11.3h.32c-1.17,2.56-1.81,5.65-3.09,8.32.64.43.96-.43,1.49-.64,1.6-2.24,1.49-5.44,3.41-7.36.75,1.38-.75,2.45-.21,3.63.43-.43,1.28-1.07,1.07-1.92,1.07-.75,1.17-1.92,1.28-2.99.85-1.17.96-2.98,2.24-3.84.32,1.17-.53,2.35-.32,3.52,1.49-1.49,3.41-3.09,4.26-5.01-.96,0-1.92-1.17-2.67.21-.53.21-.64-.43-.75-.75.11-.42.32-.85.75-1.07,2.35,1.49,1.92-2.24,3.95-2.77.42.21.75.96.21,1.28-.32.53-.96,1.07-.64,1.71.64-.43.96-1.49,1.71-1.6.85,2.24-.85,4.48-2.56,6.08-5.12,7.89-11.41,14.29-18.98,19.83-3.63,2.35-7.68,4.05-12.15,4.59-.64-.43-.32-1.39-.21-1.92,1.49-3.2,3.09-6.29,3.95-9.6,3.63-5.97,7.36-11.94,12.69-16.95,4.9-5.12,10.66-9.06,16.63-12.26,3.09-.11,3.62-4.16,6.82-4.37,1.28-.32,1.28-2.88,2.88-1.71Z"/>
  <path class="cls-4" d="M96.6,288.35c0,1.39,1.49,3.63-.32,4.37-1.81.32-3.41-.64-4.9-1.49-.85-1.17-1.07-2.56-.75-4.05,1.07-.53,2.35-.96,3.62-.75.64,1.07,2.24.43,2.35,1.92Z"/>
  <path class="cls-4" d="M64.51,287.5v.64c-.11,0-.11-.11-.21-.11-.11.32-.32.21-.53.11-.11-.32-.32-1.07.11-1.28.53-.21.53.32.64.64Z"/>
  <path class="cls-4" d="M100.12,286.97c-.11,1.07.64,2.34-.11,3.3-.43,0-.85-.21-.96-.64,0-.85-.64-2.88,1.07-2.67Z"/>
  <path class="cls-4" d="M105.77,290.91l.96-.53c6.5,9.17,13.86,17.91,17.8,28.04-.85.64-1.92,0-2.77,0-2.88-.21-4.9-2.13-7.68-2.45-7.14-2.98-13.97-6.72-20.15-11.73,0-.43-.11-.96.43-1.17.64.11.64.96,1.39.75l.43-.32c-.75-2.56-.85-5.54-.96-8.21.11-.11.32-.32.53-.21,1.07,3.52,1.71,7.25,3.84,10.45-.64,1.92,2.03,1.17,1.92,2.98.32.21.75,0,1.07-.32-.64-1.92-2.88-3.41-2.45-5.65-.11-1.81-1.39-3.09-1.39-4.9.32-.53.96-.85,1.49-.53,1.71,1.81,1.39,4.48,2.35,6.61.85,2.67,2.77,4.8,4.58,7.04.32.32.75,0,.85-.32-.64-2.35-2.88-4.16-2.45-6.82,1.92.11,1.28,2.67,3.09,2.77,1.6,2.56,1.71,6.18,4.9,7.46,1.07-.96-1.81-1.71-.43-2.77,2.56.53,4.58,2.45,6.5,4.16.32,0,.64.11.85-.21-.32-2.13-2.77-2.98-4.16-4.48-2.24-.53-3.52-3.2-5.22-4.59v-.85c2.03-.11,3.09,2.34,5.12,1.92v-.75c-3.31-3.52-7.57-5.01-11.73-6.72-.64-.75-1.71-1.38-1.6-2.45,2.24.11,4.26,1.17,6.29,2.13.21-.11.43-.32.43-.64-2.56-3.2-9.49-2.77-8.1-8.53.32-.96-.11-2.45,1.07-2.88,2.13,0,2.03,2.56,3.2,3.73Z"/>
  <path class="cls-4" d="M99.8,292.83c-.32.21-.21.75-.75.53-.43-.53-.32-1.39,0-1.92l.64-.43c.21.53.43,1.28.11,1.81Z"/>
  <path class="cls-4" d="M118.56,295.07c.75,1.28.43,3.2.75,4.59-2.03-1.81-4.05-4.16-5.22-6.4.85-.43,1.71-.85,2.77-.64l1.71,2.45Z"/>
  <path class="cls-4" d="M255.9,303.62c-1.12,1.31-3.26.57-4.9,1.23-.92.26-2.44.83-2.69,1.55,1.26.78,2.69-1,4.01.01-.02.1.06.23.17.25.09.12.1.02.23-.07-.64,3.35-4.85.37-6.9,2.58-.69.19-1.74,0-2.13.89,1.32,1.01,2.76-.23,4.1-.41l.42.08c-.13,1.82-2.22,2.5-3.7,3.41-2.74-.42-5.09,1.08-7.75,1.33-.48.23-.44.57-.31,1.03,1.26.24,2.76-.23,4.1-.41.46.41-.18.94-.26,1.36-2.52,1.25-5.52-.08-8.04,1.17-.1.52-1.21,1.18-.2,1.59.75.04,1.65-.66,2.36.13-.43,1.11-1.69.87-2.52,1.8-1.95,1.69-4.32,3.29-5.23,5.73-.21.5-1.35.83-.74,1.6,2.02-.92,3.49-2.91,5.19-4.43.4.19,1.48-.37,1.64.53-1.24,1.93-3.95,3.04-5.34,4.62.82.81,1.88-.18,2.78-.33,2.54-1.9,4.57-4.55,5.78-7.47.54-.55,1.1-.66,1.75-.64-.81,3.1-2.87,5.31-4.81,7.54.17.79.67-.09,1.07.1,2.63-3.51,6.6-6.12,7.87-10.43.37-.25.68-.74,1.08-.55.49.86-.24,1.8-.61,2.6-1.17,2.16-2.37,4.43-4.03,6.28.02.44.61.22.84.16,2.75-1.86,3.54-4.86,5.8-7.03,1.88-3,4.08-5.95,6.75-8.58.42.08.86.6.47.96-2.36,3.78-4.4,7.62-7.59,10.7.05.33-.29.92.28.81l.31.06c3.71-1.24,3.41-5.32,6.28-7.26.34-1.78,2.94-1.72,3.28-3.5,2.13-.89,2.84-3.47,5.02-4.68.18-1.49,2.04-1.56,2.78-2.62.57.44,1.53-.03,1.67-.76.17.25,3.79.62,3.71,1.04-3.6,7.99-13.99,12.94-20.56,18.85-8.26,5.15-17.91,7.31-26.59,11.28-.31-.06-.77.07-.9-.39,1.22-2.37,2.24-4.89,3.06-7.45,1.93-2.13,2.95-5.19,5.49-7.09,4.8-6.35,11.54-11.46,18.7-15.95,2.16-1.65,4.76-3.86,7.45-4.32.25-.17.69-.74,1.19-.53.55,1.08.19,2.42.17,3.61Z"/>
  <path class="cls-4" d="M93.72,299.34c.11.53.43,1.17.21,1.6-.21.11-.43.11-.75.11-.96-1.28-.96-3.3-.53-4.9,1.39.53.75,2.24,1.07,3.2Z"/>
  <path class="cls-4" d="M72.51,297.42c.21.64-.11.85-.43,1.07-.43-.42-1.17-1.07-.75-1.81.53-.21,1.07.32,1.17.75Z"/>
  <path class="cls-4" d="M300.44,299.34c-.75,1.49,0,3.84-2.03,4.37-1.17-.11-2.03.32-2.88-.32-.75-.75-.64-1.81-.53-2.77.53-1.17,1.17-2.88,2.77-3.2.96.53,2.77.43,2.67,1.92Z"/>
  <path class="cls-4" d="M69.42,301.58c-.53,1.07,1.07,3.09-.96,3.41-.85.21-1.49.96-2.56.64-1.07-.85-2.99-1.28-3.2-2.88-.21-1.38.11-2.67.64-3.73.85-.96,2.45-.96,3.52-.53,1.07.96,2.03,1.81,2.56,3.09Z"/>
  <path class="cls-4" d="M76.99,301.58c-.11,1.6.11,3.52-.64,5.01-.32.11-.43-.21-.64-.32-.53.64.43,1.07.64,1.6.11,3.63,1.07,6.93,1.07,10.56l-.75-.21c-2.13-3.52-4.9-6.72-5.76-10.77,1.6-1.81,1.71-4.16,2.67-6.29,0-.75,0-1.81.96-1.81,1.07.32,1.81,1.28,2.45,2.24Z"/>
  <path class="cls-4" d="M127.52,304.24c-.21.64.32,1.6-.43,2.03-1.6-.75-1.6-2.77-1.71-4.48-.11-.32.32-.75.64-.64.96.85,1.07,2.03,1.49,3.09Z"/>
  <path class="cls-4" d="M252.15,302.86c.11.75.21,1.28-.21,1.92-1.39.64-.85-2.13-2.56-1.81.75-.53,2.24-1.39,2.77-.11Z"/>
  <path class="cls-4" d="M80.29,304.67c-.43,1.28.21,2.56-.53,3.52-1.07-.11-.75-1.39-1.17-2.13.21-.75.11-1.49.64-2.03.43,0,1.07,0,1.07.64Z"/>
  <path class="cls-4" d="M83.06,307.01c.11.53-.11,1.28.53,1.6.64-.11.85-.96,1.71-.64.75,1.6,2.45,2.03,3.94,2.56,3.2,1.17,4.8,4.69,6.72,7.25.11.96.32,2.02,1.28,2.34l.85.11c4.9,6.29,8.85,13.22,10.66,20.58-.43.75-1.6.75-2.35.53-10.45-3.3-19.72-10.13-26.76-19.62,1.6-2.24-1.39-3.94-.96-6.5-.32-1.49-1.6-3.63-.21-5.01,2.77.64,1.49,3.84,2.56,5.65.32,1.07-1.17.96-.85,1.92,2.45,1.71,2.98,4.9,4.8,7.04.32.21.43-.21.64-.32-.75-2.56-1.6-5.12-2.13-7.57.11-.53.85-.85,1.28-.43,1.49,2.13.43,5.33,2.45,7.36.43,1.71-.21,4.37,2.03,4.8.53-.43.11-1.17,0-1.6-.11-2.03-1.6-3.94-.64-5.76.64-.21.64.53.96.85-.11,2.67,2.88,4.37,2.13,7.04.75,1.07,1.92,1.81,2.67,3.09.21-.53-.21-1.49-.64-2.03-.96-1.28-.85-2.88-1.39-4.26l.21-.53c.96.64,1.28,1.92,1.71,2.99.75,3.2,3.63,5.76,5.86,7.89.64,0,1.07,1.17,1.92.53.32-.85-.43-1.71-1.17-2.02-1.81-.43-3.2-2.35-3.84-3.95l.43-.32c1.17.42.96,3.52,2.67,1.81-1.49-3.52-5.22-5.86-7.04-9.17,2.35.64,4.58,1.6,6.72,2.67.32-.11.11-.32.21-.53-3.52-3.3-8.42-4.37-11.94-7.25l.11-.64c1.81.32,3.52.75,5.12,1.49.32-.11.21-.43.32-.75-2.35-1.38-4.69-2.56-7.25-3.3-1.07-.96-2.56-.75-3.41-2.13,2.35.32,4.9,1.39,7.25,2.13.21,0,.43.32.64.21l.32-.21c-2.88-3.09-7.57-2.77-10.23-6.18,0-1.07-.32-2.56.75-3.09.96-.21.96.96,1.39,1.38Z"/>
  <path class="cls-4" d="M224.96,316.93c-.64,2.56-1.6,5.22-4.05,6.61-3.3-.11-6.4-1.81-9.6-.96-.32.32-.75.85,0,1.07.96,1.07,2.45.11,3.52.96,0,.64-.96,1.49-1.6,1.81-2.99.53-5.33-2.77-8-.64.43,1.81,2.88-.11,3.52,1.6l.11-.11c.21.43-.32.75-.53,1.17-2.45-.43-5.01-.32-7.57-.96-.75.21-1.6.21-2.03.96.43,1.17,2.13.96,3.3,1.17v.32c-1.92,1.71-4.59,1.39-6.5,2.99,0,.21.21.32.43.53,1.71-.64,3.62-.96,5.44-1.6.64.85-.53,1.49-.53,2.34-1.07.75-1.28,3.41-2.77,2.56-1.17-2.34-4.69-1.71-5.76-3.94,2.03-3.41,5.76-4.9,8.42-7.46,4.69-2.99,9.6-5.22,15.03-6.4,2.88-.96,5.97-2.45,9.17-2.03Z"/>
  <path class="cls-4" d="M107.05,323.96c.53-.21.64-.96,1.39-.96.75,3.09,1.39,6.29,2.45,9.28,1.07,1.07.85,3.09,2.56,3.52.96-1.92-1.92-3.73-.53-5.86h.21c1.71,3.63,3.31,7.25,5.54,10.66.43.43.96.75,1.49.64.85-.96-.53-1.81-.85-2.45-1.71-2.34-2.77-5.22-2.88-8.1.21-.21.43,0,.64-.11,3.2,3.41,3.2,8.1,6.29,11.51.32.85.96,1.81,1.81,2.24,1.28-1.38-.75-2.67-1.07-4.05-.11-.75-.96-1.6-.43-2.35,2.45.53,2.77,3.31,4.58,4.8,1.6,1.81,3.52,3.41,5.76,3.95.32-.21.43-.53.32-.96-1.28-1.28-2.45-2.45-2.67-4.26-.21-.32-.85-.53-.64-1.17.53-.32,1.07.85,1.6,0-.11-2.35-2.88-1.81-4.26-2.77-2.24-.75-1.39-3.63-3.2-4.91,1.28-.42,2.35.85,3.63,1.17.21-.21.43-.53.32-.85-2.98-2.88-6.72-4.48-10.77-5.01-1.71-.43-3.52-1.49-4.58-3.09,2.35-.43,4.05,1.92,6.29,1.28.21-.11.32-.32.21-.64-.85-1.49-4.8-.53-3.2-3.09.32-.64,1.17-.32,1.71-.21.85,1.71,2.03-.53,2.99.53,1.28.75.85,3.63,2.98,2.77,3.52,4.26,7.04,8.42,9.38,13.11,2.24,3.52,3.94,7.35,4.48,11.51-.85.96-2.45.21-3.62.11-8.1-3.2-17.06-5.44-23.03-12.9-1.49-5.33-4.26-9.91-6.82-14.71-.11-.85-.11-1.6.43-2.13,1.49.42.21,2.56,1.49,3.52Z"/>
  <path class="cls-4" d="M115.15,321.62v1.38c-.43,0-1.28-.11-1.6-.75.21-.64-.21-1.17.53-1.6.75-.32.85.64,1.07.96Z"/>
  <path class="cls-4" d="M257.48,323.65c.21,2.98-1.71,5.33-2.45,8-4.16,5.76-9.6,10.98-15.78,14.39-2.77,1.92-5.86,4.26-9.17,3.62l-.53-1.17c-.85,0-1.17.96-2.13.64-.53-.75-.32-1.38.21-2.02.85-1.17,2.13.21,2.99-1.07,1.92.64,3.94,1.07,5.97,1.49.53-.32.64-.96.11-1.28-.32-.53-.96-.21-1.28-.64,1.07-2.03,3.09.11,4.48-1.28l.53-.53c-.53-1.38-2.34-.42-2.77-1.38,2.13-.85,4.37-1.49,6.82-1.49.64-.11.75-.75.64-1.39-.21-.75-1.17,0-1.49-.53,1.07-1.28,3.52-.32,3.94-2.34,1.17-.53,1.6-1.71,1.92-2.88l4.16-5.33-.32-.32c-.96.85-2.03,2.34-3.3,2.77-.43.11-.21.75-.75.64-.64-.64.11-1.38.32-1.92-.11-.53-.43-.11-.75,0-.75,1.81-1.71,3.52-1.49,5.76-.43.32-.53,1.38-1.39.96-.96-2.34.11-4.26,1.39-6.08.11-.43-.11-.75-.43-.96h-.32c-2.03,2.77-3.09,5.97-4.8,8.85-.32.53-.75.53-1.28.64,0-2.03.43-4.26,1.17-6.18-.11-.32-.64-.32-.75,0-2.03,2.77-2.67,6.08-4.37,8.96-1.17-.53-2.03,2.99-2.35.53,1.28-2.24,2.88-3.94,3.09-6.61.32-.53.64-1.17.32-1.71-.21-.21-.75-.64-.96-.11-.85,1.28-.64,3.09-2.13,4.26.53,1.81-1.92,1.92-2.24,3.31-1.49.96-1.92,3.2-3.63,3.52l-.53-.75c1.07-2.03,2.99-3.73,3.94-5.86l-.42-.43c-.43.53-.75.96-1.49.96-2.35,2.45-3.41,5.01-5.22,7.68-2.03.75-3.63-.75-5.65-.75-.75-.85.75-1.39,1.17-2.13,2.98-2.67,5.97-5.12,9.27-6.82,3.84-3.41,8.42-4.8,12.37-7.68,5.01-2.03,9.6-5.33,15.35-5.33Z"/>
  <path class="cls-4" d="M147.56,330.89c5.12,3.95,6.72,9.92,8.53,15.56,0,.32-.11.53-.32.75-4.37-4.37-11.19-2.77-15.78-6.5-1.17,0-1.28-1.28-.96-2.13,2.67,0-.21-6.18,2.88-2.99.53,1.6,2.13,2.77,3.52,3.84,1.6.11,2.99,2.88,4.69,1.07-.53-2.56-3.31-4.26-4.69-6.18-2.35.53-2.35-2.99-4.37-2.35-.43,0-.32-.43-.53-.64,1.6-.32,2.98.53,4.48.85.64-.32.32-1.07.21-1.49-2.03-1.49-4.8-1.07-6.82-2.56.32.21.75-.21,1.07-.64,0-2.35-3.31,0-4.16-2.03-.64-.32-1.71-.43-1.71-1.17,1.71-.53,3.41.53,5.01,1.07,3.2,1.28,6.08,3.52,8.96,5.54Z"/>
  <path class="cls-4" d="M220.49,326.1c.53.85-.32,1.49-.75,1.92-.32,1.38-1.17,3.3-.32,4.48-2.35,2.56-5.97,2.67-8.96,4.16-3.52,1.28-7.36,2.67-11.19,2.24-.32-.11-.11-.32-.11-.53,1.92-1.6,3.41-4.05,5.22-5.86.21-.21.64-.11.96-.11.85.21.21,1.92,1.28,1.28,1.07-1.07,1.92-2.45,3.2-3.2l.32.43c.11,1.07-1.49,2.67-.11,3.2,1.81-1.92,2.77-4.48,4.8-6.08.32-.32.75,0,.75.43.21,1.71-1.49,2.88-1.28,4.69.21.21.53.11.85.11,1.71-2.24,2.98-5.01,4.9-7.14h.43Z"/>
  <path class="cls-4" d="M112.59,328.98v.21c-.75-.53-.64-1.92-.64-2.99.64.64.43,1.81.64,2.77Z"/>
  <path d="M176.46,328.65l.11.43-.11-.43Z"/>
  <path class="cls-4" d="M123.15,331.53c-.11.64.64,1.6-.11,2.13-1.49,0-2.03-1.71-2.88-2.77.64-.64,2.35-.21,2.98.64Z"/>
  <path class="cls-4" d="M135.62,331.64c-.11.11-.21.32-.43.21-.11-.43-.64-.75-.43-1.28.85-.21.75.53.85,1.07Z"/>
  <path class="cls-4" d="M137.97,335.58v.64c-1.28-.32-.85-2.03-1.17-3.09.21-.11.32-.53.64-.32.53.75.53,1.92.53,2.77Z"/>
  <path class="cls-4" d="M202.57,342.51c6.72,3.63,14.07,6.08,21.22,8.21.75.64,2.98.32,2.34,2.03-1.17,1.17-2.88,0-4.26,0-1.17-.64-2.67-.43-3.94-.64-2.88-1.28-6.29-1.17-8.96-2.67l-.21.21c1.71.96,3.62,1.71,5.33,2.77v.64c-1.92.43-3.41-1.17-5.22-1.49-8.32-3.09-16.1-7.68-23.67-12.15,1.39-1.49,2.67.64,4.16.64.21-.11.21-.42.43-.53l-2.34-1.49c0-.53.53-.53.85-.75,1.6-.11,2.77,2.67,4.59,2.03-.11-1.81-3.41-1.71-2.45-3.3,4.16,1.81,7.89,4.69,12.15,6.5Z"/>
  <path class="cls-4" d="M182.75,343.05c.11.85,0,1.81-.85,2.24-.32-.11-.75-.32-.85-.64-.11-.96,1.28-5.01,1.71-1.6Z"/>
  <path class="cls-4" d="M146.39,347.63c.64,1.49-.85,2.34-.53,3.84-.43.32-.64,1.07-1.28,1.17-.64.11-1.17-.64-1.39-1.17-.96-1.39,1.39-2.35-.53-3.3.11-.64-.21-1.28.32-1.71,1.17.32,2.35.53,3.41,1.17Z"/>
  <path class="cls-4" d="M191.17,348.48c2.45-.21,4.16.96,6.4,1.17.53,1.39,2.02.53,2.88,1.49-1.17,1.49-2.99-.75-4.37.53-2.56-.64-4.48,1.28-6.93.75-1.28-.85-2.88-.75-4.26-1.49l-.21.21c.32.85,1.92,1.28.75,2.24-2.24-1.38-5.12-2.34-7.57-.64-.85.64-.32,1.92-1.49,2.24-1.81-.32-3.62-1.49-5.54-.85-.11-.21-.75,0-.64-.53,2.13-.64,3.52-3.3,5.97-3.3.64-.96,1.92-.32,2.77-.75,3.84-.75,7.46-1.81,11.41-1.6l.85.53Z"/>
  <path class="cls-4" d="M150.65,348.91c-.96.75-1.71,2.03-3.09,2.03-.64-.32-.21-1.17,0-1.71.53-1.39,2.45-1.17,3.09-.32Z"/>
  <path class="cls-4" d="M209.72,355.63c-1.07.75-2.45,1.28-3.94,1.49-.64-1.17,1.07-2.02,1.71-2.98.85.21,2.03.53,2.24,1.49Z"/>
  <path class="cls-4" d="M183.92,354.24c.32.64-.11,1.28-.43,1.81-.43.43-1.38.32-1.28,1.17.53.42,1.49.21,2.03.11,1.38-1.07,2.77-1.92,4.37-2.35.64,1.17-.85,1.81-1.49,2.45.32.75,1.28.21,1.92,0,1.49-.75,2.56-2.13,4.16-2.56.85.96-.75,1.17-.96,1.92.21.43.85.32,1.17,0,1.28-.75,2.56-2.13,3.94-2.45.53.43,0,1.07,0,1.6-.32.21-.75.32-1.07.75,2.24,1.71,3.52-1.92,5.44-2.45.11.11.43-.11.64.11-1.92,1.28-.64,3.95-2.88,4.9-4.37,1.07-9.7,1.81-14.39.75-2.13-.32-3.94-1.07-5.65-2.13v-.53c.85-1.71,2.77-2.56,4.48-3.09Z"/>
  <path class="cls-4" d="M174.32,359.04c.11.85-1.17.75-1.71,1.07-4.26-.11-8.21-.96-12.15-1.92-.21-.42-.21-.75.11-1.07,4.48-1.49,9.49-.85,13.33,1.39l.43.53Z"/>
  <path class="cls-4" d="M284.92,77.39c12.51,9.93,21.27,21.61,25.87,36.99.41,1.98.2,3.57,1.45,5.38.09,1.51,1.82,3.11.66,4.33-11.17-6.07-18.82-14.09-26.22-23.01-.62-1.94-2.55-2.85-3.07-4.81-1.31-1.58-2.34-3.43-3.09-5.46.62-1.22,2.11.22,2.18-1.54.43-1.07-1.17-3.57.69-3.52.36.69.93,1.33,1.56,1.74-.12,3.08.38,6.02,1.44,9.07.59.75.52,1.96,1.11,2.71,1.02-1.41-.31-3.09-.43-4.7l.19-2.76c.71-.26,1.26.29,1.78.72.67,3.24,1.13,6.52,2.22,9.66.46.12.65-.57.6-.78.18-1.23-1.07-3.04-.02-3.8,4.1,2.96,1.65,9.02,4.87,12.49,1.08-1.64-1.49-3.5-.08-5.1,2.14.86,2.47,3.52,3.43,5.5,1.06,1.41,1.74,3.12,3.06,4.27.7-1.34-1.35-2.33-1.47-3.94.33-1.05,1.21.08,1.84-.06,1.01,1.21,3,1.34,3.08,3.28.4.35.84.37,1.36.26.85-1.7-1.35-2.33-1.93-3.52-1.25-2.35-2.81-4.1-5.16-5.46-.82-1.35-3.07-1.65-3.12-3.49,2.92-1.15,6.06,1.9,7.97,3.79.73-.7-.32-1.57-.87-2.11-2.59-2.51-6.32-3.7-9.3-6.02l.08-.12c2.47.36,4.8,1.62,7.15,2.44l.25-.38c-2.53-2.2-5.65-3.62-8.75-4.94-.15-.19-.3-.37-.24-.6.37-.84,1.09,0,1.61-.12l3.38,1.59c.44-.53-.2-.94-.47-1.21-2.98-1.78-5.5-3.43-8.85-3.83-.69-.18-.74-.93-1.06-1.41.21-.59.9-.4,1.25-.26l4.99,2.02c.19-.15.25-.38.18-.69-2.9-2.45-6.18-4.06-9.67-4.64-.72-1.38-2.42-1.68-3.3-2.8-.44-2.63-1.81-5.07-1.79-7.58,1.51.45,3.21,1.3,4.64,2.41Z"/>
  <path class="cls-4" d="M323.55,131.34c.12,4.14,1.74,8.25,2.74,12.33.21,5.45-.37,10.44-1.61,15.53l-.62.43c-5.73-4.28-11.36-10.28-14.6-16.93-.51-2.58-1.59-4.49-2-7.05-1.02-5.17-2.2-9.36-4.25-15.42,1.22.44,2.57,1.98,3.2,3.29.54-.55,1.55-.16,2.01.25,1.2.54.49,2.69,2.39,2.38l.27.92c-.77,3.65-.71,7.56-.71,11.14l.6.87c.92-.92.35-2.54.45-3.71.28-1.57.52-3.48,1.41-4.84.74.68,1.61,1.27,1.97,2.3-.09,1.72-.76,3-1.42,4.29l-.06,6.92c.15.35.45.51.89.49.81-.29,0-1.19.46-1.97.07-.96.06-2.16.62-2.81l.42.08c1.6,2.56,1.84,5.42,1.29,8.46.67,1.1-.45,3.71,1.57,3.32-.1-1.86-.03-4.01.9-5.58,1.29.67.44,2.36.78,3.5,1.39,2.52,1.56,5.16,3.48,7.13.82-.94-.83-1.99-.62-3.15.17-2.14-1.14-3.89.39-5.78.24-.72.62-1.62.31-2.33-.84-.15-.82.94-1.66.78-3.02-2.49-5.07-6.11-5.79-9.93.14-.19.09-.52.32-.59,1.18.65,1.8,2.06,2.82,3,.88-.71-.53-1.29-.5-2.04-.96-1.91-2.21-3.97-3.31-5.69.11-.63-.74-1.32-.31-1.9,1.13,1.5,3.07,2.18,3.73,3.92,1.98,1.01,2.04,3.72,3.92,4.72.38-.91-.52-1.94-.56-2.92-2.65-3.3-4.75-6.71-7.65-9.83.3-.49.52-1.1.93-1.57,2.11,2.12,3.15,5.34,5.8,6.9.66-.64-.66-1.74-.86-2.43-.97-3.64-8.54-5.92-5.98-9.9,3.98,3.75,6.88,8.63,8.83,13.42Z"/>
  <path class="cls-4" d="M285.41,129.61c.85,4.05,2.13,8,3.84,11.83,1.17,5.33,1.49,10.34,1.17,15.56l-.53.53c-6.4-3.2-14.39-25.69-13.86-24.73.21,1.71-.21,3.09-.64,4.48l1.17,6.82c.21.32.53.43.96.32.75-.43-.21-1.17.11-2.02-.11-.96-.32-2.13.11-2.88h.43c2.03,2.24,2.77,5.01,2.77,8.1.85.96.21,3.73,2.13,2.99-.43-1.81-.75-3.94-.11-5.65,1.38.43.85,2.24,1.38,3.31,1.81,2.24,2.45,4.8,4.69,6.4.64-1.07-1.17-1.81-1.17-2.99-.21-2.13-1.81-3.63-.64-5.76.11-.75.32-1.71-.11-2.34-.85,0-.64,1.07-1.49,1.07-3.41-1.92-6.08-5.12-7.46-8.74.11-.21,0-.53.21-.64,1.28.43,2.13,1.71,3.3,2.45.75-.85-.75-1.17-.85-1.92-1.28-1.71-2.88-3.52-4.26-5.01,0-.64-.96-1.17-.64-1.81,1.38,1.28,3.41,1.6,4.37,3.2,2.13.64,2.67,3.31,4.69,3.95.21-.96-.85-1.81-1.07-2.77-3.2-2.77-5.86-5.76-9.28-8.32.21-.53.32-1.17.64-1.71,2.45,1.71,4.05,4.69,6.93,5.76.53-.75-.96-1.6-1.28-2.24-1.6-3.41-7.36-4.69-5.54-9.06,4.58,2.99,7.25,7.46,10.02,11.83Z"/>
  <path class="cls-4" d="M204.55,293.33c-.2,2.45-5.3,7.12-7.35,8.77-3.06.41-6.17-.69-8.99.58-.25.34-.56.9.16.98,1.05.83,2.27-.27,3.39.35.1.59-.66,1.52-1.2,1.91-2.67.95-5.33-1.74-7.46.63.67,1.61,2.64-.54,3.48.94l.08-.11c.26.36-.18.74-.31,1.16-2.32-.02-4.66.47-7.12.27-.66.31-1.44.44-1.72,1.19.57,1.01,2.11.56,3.22.57l.05.3c-1.51,1.86-4.01,1.98-5.54,3.74.03.2.25.26.47.42,1.47-.85,3.19-1.43,4.76-2.3.72.69-.26,1.46-.13,2.24-.87.85-.66,3.34-2.16,2.78-1.44-1.98-4.58-.86-5.91-2.76,1.35-3.45,4.56-5.4,6.62-8.16,3.87-3.46,8.04-6.27,12.87-8.18,2.51-1.32,9.75-5.23,12.76-5.33Z"/>
  <path class="cls-4" d="M197.2,304.52c.62.71-.07,1.42-.4,1.88-.08,1.32-.58,3.22.39,4.17-1.77,2.72-5.1,3.36-7.62,5.2-3.04,1.71-6.37,3.58-9.97,3.77-.31-.05-.14-.28-.18-.48,1.52-1.77,2.53-4.25,3.92-6.2.16-.23.57-.2.87-.25.82.06.49,1.73,1.37.98.82-1.15,1.39-2.55,2.46-3.43l.36.34c.26.97-.97,2.68.39,2.96,1.38-2.04,1.87-4.55,3.49-6.33.25-.34.69-.11.75.28.45,1.54-.94,2.88-.46,4.52.23.16.51.02.8-.03,1.23-2.32,1.99-5.07,3.43-7.33l.39-.07Z"/>
  <path class="cls-4" d="M151.38,314.04c-.3,2.62-.34,5.45,1.47,7.61,3.13,1.06,6.63.55,9.32,2.47.19.41.4,1.06-.37,1-1.27.66-2.33-.76-3.63-.34-.22.6.37,1.73.86,2.26,2.61,1.55,5.96-.73,7.71,2.21-1.04,1.55-2.66-1.11-3.86.26l-.06-.14c-.35.32.04.81.09,1.28,2.45.46,4.8,1.46,7.42,1.76.62.46,1.42.76,1.56,1.61-.81.95-2.33.15-3.51-.06l-.11.3c1.2,2.27,1.4,3.26-.07,2.02-.9.57-.02,1.58-.32,2.38.74,1.07,4.8-4.92,3.2-8.25-3.35-4.44-7.15-8.26-11.83-11.26-2.36-1.91-4.73-4.39-7.88-5.11Z"/>
  <path class="cls-4" d="M150.23,322.06c-.8.61-.22,1.51.03,2.06-.19,1.41-.06,3.51-1.27,4.31,1.3,3.22,4.66,4.59,6.93,7.03,2.84,2.43,5.95,5.08,9.7,6.02.34.01.21-.26.29-.46-1.24-2.17-1.77-4.99-2.83-7.32-.12-.27-.56-.32-.86-.44-.87-.1-.87,1.72-1.65.75-.62-1.37-.94-2.97-1.87-4.12l-.45.29c-.47.96.46,3.02-1.02,3.03-1.02-2.43-1.03-5.17-2.36-7.37-.19-.41-.7-.26-.85.14-.8,1.52.39,3.22-.45,4.84-.27.12-.54-.09-.84-.2-.81-2.69-1.04-5.74-2.09-8.41l-.4-.15Z"/>
  <path class="cls-4" d="M244.36,86.08c-.3,1.05-.19,2.13.01,3.23h2.36c-.49-1.31-.57-3.22-2.37-3.23ZM241.23,82.38c-1.35.6-.75,1.69-.85,2.54-.49.59.4,1.43-.34,1.35-.55.15-.54,1.38-.51,2.03.17.34.33.68.49,1.01h2.85c-.24-2.78,2.4-6.67-1.65-6.93ZM256.22,86.43c-2.48-2.74-4.97-6.45-8.55-8.03-1.02.53-2.6.25-3.52-.18-.8-.52-2.12-.23-2.33.71,0,1.93,2.91-.11,2.24,2.07.42,1.01,1.5,1.02,2.47.92,1.79,1.27,4.3,1.87,6.17,3.36.29.25.26.57-.07.64-2.01-.22-3.22-1.97-5.52-1.47.07.33.25.67.44.91,2.42,1.01,4.37,2.4,6.26,3.95h4.43c-.63-.97-1.29-1.94-2.01-2.89Z"/>
  <path class="cls-4" d="M327.71,225.19c-1.34,14.02-5.26,26.89-14.43,37.68-1.27,1.26-3.34,2.37-4.08,4.16-1.07.79-1.94,2.05-3.4,1.78-.87-11.17,2.17-21.19,5.22-30.94,1.14-1.39.88-3.25,2.09-4.58.54-1.72,1.41-3.38,2.55-4.9,1.2-.13.86,1.67,2.19.88,1-.19,2.08-2.58,2.93-1.18-.34.6-.54,1.33-.54,1.99-2.33,1.38-4.27,3.17-6.01,5.42-.27.8-1.2,1.32-1.47,2.12,1.53.08,2.14-1.72,3.27-2.57l2.13-1.18c.53.4.39,1.07.32,1.66-2.07,2.05-4.28,3.96-6.08,6.28.13.4.73.2.86.07,1-.46,1.74-2.25,2.8-1.85-.22,4.45-5.88,5.55-6.9,9.6,1.73,0,1.88-2.78,3.74-2.5.39,1.99-1.42,3.51-2.42,5.17-.54,1.46-1.48,2.78-1.68,4.31,1.33-.12,1.07-2.12,2.21-2.98.93-.26.53.93.92,1.33-.41,1.33.45,2.86-.95,3.85-.07.46.13.8.46,1.13,1.66-.19,1.07-2.12,1.68-3.11,1.14-2.06,1.68-4.05,1.56-6.44.61-1.26-.25-3.06,1.08-3.98,2.25,1.61,1.5,5.39,1.02,7.71.86.21,1-.99,1.14-1.66.61-3.12-.3-6.45-.01-9.77h.13c.92,2,1.11,4.33,1.63,6.46h.4c.41-2.92-.03-5.91-.55-8.84.07-.2.14-.4.33-.46.8-.13.53.8.86,1.13l.45,3.26c.6.07.6-.59.67-.92-.12-3.06-.1-5.72-1.42-8.38-.2-.6.34-1,.54-1.46.53-.13.73.47.79.8l.9,4.66c.2.07.4,0,.6-.2.42-3.32.04-6.52-1.21-9.38.66-1.17.07-2.57.49-3.79,1.74-1.58,2.88-3.77,4.75-4.96.39,1.33.58,2.99.44,4.59Z"/>
  <path class="cls-4" d="M306.75,171.75c-.23,1.05-1.34,1.69-2.05,2.47-2.02,1.36-3.02,3.38-3.89,5.68,0,.34.34.34.64.44,1.15-.41,1.37-2.13,2.72-1.8.31,2.8-2.72,3.48-3.18,5.91-1.37,2.13-2.71,4.16-3.65,6.66l.27.54c2.45-1.66,2.78-5.37,5.19-7.27.85,1.18-.09,3,.46,4.41-2.05,2.47-4.56,5.35-4.68,8.79,1.22.4,1.14-1.08,1.64-1.59.5-.85.73-2.23,1.95-2.17.54.06.34.67.54,1.08-2.92,2.41-3.14,6.82-4.85,9.97,0,.34.31.44.61.54,2.29-1.16.99-4.72,3.52-5.58.54-.61.53-2.29,1.71-1.79-2.28,2.5-.24,5.87-2.42,8.74.48,1.62-.59,3.51.16,4.99l.67-.34c.8-1.42-.01-3.03,1.06-4.25.93-2.16-.05-4.95,1.82-6.92-.04-.24.24-.37.37-.44,1.15.94,1.09,3.16,2.58,3.09.29-2.26-1.03-4.38-1.55-6.57-.71-.57-1.22-1.41-1.32-2.46.13-.4.33-1.01.9-1.05,1.22.74.59,3,2.07,2.92.09-3.34-3.91-6.89-1.16-9.81l.2.07,1.2,4.21c.67-.34.4-1.22.6-1.82-.38-1.92-.79-4.07-2.02-5.82-.28-2.23-1.6-4.68.48-6.58-.34-1.35,1.14-2.09.93-3.51.44-.31.88.06,1.28.2.17,1.18,1.46,2.39.52,3.54l.14.27c.14-.07.24-.03.44.03.72,3.6,1.55,7.24,1.09,11.02.6,5.36-.53,10.82-1.18,16.22-1.62,6.99-3.61,14.07-7.7,19.69-4.47-4.5-5.27-11.27-6.62-17.1.74-1.22-.61-1.88-.59-3-.46-4.08-.47-8.01-.42-12.37-.25-1.05-.24-1.31-.14-1.96.2-1.86.23-1.8.82-4.15.42-1.23.22-.8.74-1.96,1.07-3.33,2.03-6.52,4.01-9.12,1.72-.78,3.89-3.99,6.06-2.05Z"/>
  <path class="cls-4" d="M298.47,226.9c-.6,1.38-2.56,1.93-2.33,3.67,2.14.19,2.76-3.15,5.26-2.65l.08.2c-2.74,2.92-5.53,5.74-7.88,9.08-.24.55-.34,1.17-.05,1.62,1.21.44,1.49-1.16,1.97-1.69,1.55-2.45,3.84-4.5,6.47-5.66.28.12.16.4.34.56-2,4.23-6.36,5.95-8.39,10.08-.67.61-1.33,1.56-1.41,2.51,1.76.68,2.2-1.67,3.38-2.48.65-.37,1.13-1.48,2.02-1.26.41,2.48-2.05,3.79-2.77,6.03-1.1,2.15-1.88,4.52-1.55,6.8.32.22.65.2,1.01-.06.72-1.66,1.38-3.18,2.98-4.05.22-.31.18-.99.86-1.02.49.38-.4,1.3.59,1.48,2.14-.96.63-3.34,1.01-4.98-.13-2.36,2.86-2.62,3.38-4.78.87,1.03.07,2.5.24,3.8.28.12.65.2.91-.02,1.58-3.83,1.69-7.89.7-11.85-.23-1.74.09-3.82,1.19-5.4,1.26,2.02-.29,4.47,1.12,6.32.18.16.41.18.67-.04,1.07-1.34-1.27-4.66,1.7-4.11.71.06.73.97.82,1.51-1.27,1.42-.85,1.29-1.49,2.58-.22,1.46-.96,2.52.61,4.19-2.67,4.84-5.24,9.64-8.74,13.55-2.45,3.38-5.39,6.37-9.06,8.4-1.21-.44-1.1-2.2-1.43-3.33,0-8.71-1.22-17.86,3.52-26.16,4.41-3.35,5.88-5.05,6.57-4.75.15,1.55.08-.18-2.3,1.91Z"/>
  <path class="cls-4" d="M283.39,246.03c-.75,1.49,0,3.84-2.03,4.37-1.17-.11-2.03.32-2.88-.32-.75-.75-.64-1.81-.53-2.77.53-1.17,1.17-2.88,2.77-3.2.96.53,2.77.43,2.67,1.92Z"/>
  <path class="cls-4" d="M263.13,299.34c-.75,1.49,0,3.84-2.03,4.37-1.17-.11-2.03.32-2.88-.32-.75-.75-.64-1.81-.53-2.77.53-1.17,1.17-2.88,2.77-3.2.96.53,2.77.43,2.67,1.92Z"/>
  <path class="cls-4" d="M287.17,196.82c1.81,1.92,1.87,9.32,1.71,12.13-1.87,2.73-4.97,4.41-5.98,7.57.1.44.32,1.09.9.57,1.42-.23,1.41-2.01,2.7-2.45.54.34.74,1.61.67,2.32-1.16,2.8-5.21,3-4.85,6.39,1.76.62,1.46-2.48,3.24-2.1l-.03-.15c.47.05.46.67.7,1.08-1.68,1.84-2.97,4.05-4.88,5.86-.22.74-.68,1.46-.28,2.22,1.22.27,1.96-1.28,2.77-2.15l.27.17c.4,2.54-1.3,4.61-.99,7.09.18.11.38,0,.68-.07.38-1.78,1.14-3.57,1.58-5.44,1.06-.08.97,1.26,1.69,1.71.05,1.3,2.38.83.86,1.63-2.61-.27-4.16,5.12-6.62,4.81-1.78-3.55-1.03-7.49-1.75-11.12.01-5.56.77-10.9,2.71-16.11.74-2.94,2.82-11.51,4.91-13.97Z"/>
  <path class="cls-4" d="M294.05,212.98c-.75,1.49,0,3.84-2.03,4.37-1.17-.11-2.03.32-2.88-.32-.75-.75-.64-1.81-.53-2.77.53-1.17,1.17-2.88,2.77-3.2.96.53,2.77.43,2.66,1.92Z"/>
  <path class="cls-4" d="M293.71,218.01s.54.67.54,2.82-.27,2.96-1.21,4.71c-.94,1.75-2.42,2.42-2.96,3.9-.54,1.48-.67,1.35-1.61,3.09-.94,1.75-1.75-1.35-1.75-1.35,0,0,.81-1.48.4-2.42-.4-.94-.14-2.69-.14-2.69l1.88,1.08s1.35-.67.4-1.61-1.21-3.09-1.21-3.09l1.35-2.96,2.02.81"/>
  <path class="cls-4" d="M37.22,231.79c1.78-1.2,1.93,2.67,2.21,6.74.16.58.47,1.12.99,1.29,1.21-.42.42-1.84.45-2.56-.34-2.88.89.38,1.92,4.86-.14.9-.05,2.05.49,2.84,1.79-.58.65-2.69,1.05-4.05.27-.7-.06-1.86.78-2.25,1.88,1.66.8,4.24,1.65,6.43.51,2.36,1.4,4.7,3.09,6.26.38-.03.63-.26.75-.68-.49-1.74-.94-3.34-.24-5.02-.03-.38-.48-.88.02-1.34.62-.02.51,1.27,1.39.78,1.06-2.1-1.62-2.99-2.36-4.5-1.59-1.75.56-3.84-.39-5.84,1.33.25,1.63,1.89,2.59,2.79.29-.08.63-.26.7-.59-1.2-3.97-6.83-10.92-4.57-10.38.24.01.44-.12.5-.45-.01-1.72-.1-3.97.31-3.61-.09,1.91.15,1.54.47,2.94.75,1.28.85,2.57,3.12,2.87.98,5.44,2.02,10.79,1.77,16.02.23,4.16-.16,8.35-1.73,12.24-1.21.42-2.24-1.01-3.21-1.68-5.5-6.75-12.22-13.08-13.78-22.51,1.31-5.38.75-1.78,2.03-.57Z"/>
  <path class="cls-4" d="M67.91,192.63s-.9,1.35.9,8.57c1.8,7.21,4.51,12.63,4.51,12.63,0,0,1.35-2.71,2.25-6.77.9-4.06,1.35-6.31,1.8-8.57.45-2.25,1.35-7.21,1.35-7.21l-10.82,1.35Z"/>
  <path class="cls-4" d="M80.87,234.98c.96,6.39-2.03,11.8-4.64,17.13-.22.23-.45.31-.75.32-.12-6.18-6.15-9.76-6.87-15.63-.85-.81.18-14.62,1-15.02,1.92,1.85,1.89,2.85,1.9,7.3-.72,1.52,1.64,8.84,1.9,10.57,1.08,1.19.16,4.14,2.64,4.02,1.39-2.22.57-5.37.9-7.71-2.06-1.24.38-3.78-1.52-4.72-.31-.3.07-.53.06-.83,1.37.88,1.78,2.45,2.64,3.72.68.21.97-.55,1.19-.93-.43-2.48-2.72-4.09-3.14-6.57.08.37.69.36,1.21.28,1.63-1.69-2.38-2.29-1.59-4.34-.24-.67-.93-1.49-.42-2.03,1.6.8,2.09,2.75,2.87,4.24,1.42,3.14,1.94,6.75,2.61,10.2Z"/>
  <path class="cls-4" d="M78.5,254.16c.01-.5.49-.58.84-.71.69.25,1.07,1.01,1.05,1.51-1.67.62-2.73,2.11-3.13,3.75-.59,2.22.33,4.98,2.25,6.38,1.67.99,3.99.24,5.02,1.96.54,1.2.88,2.38.58,3.49.13,1.45.83,2.8.96,4.25.3,0,.72.34.95-.15.19-.57.14-1.25,0-1.9-.33-1.98-.45-3.94-.06-5.88,1.08-.6.83.9,1.35,1.21.94,1.46.9,3.27,1.84,4.73.68,2.65,2.1,4.34,3.18,6.74.21.02.43.34.66.16l.17-.36-1.73-4.97c.02-.21.41-.25.59-.31l3.81,3.3c-1.68,1.42,1.84,1.73.88,3.48.23.62.97.74,1.58,1.02,1.44-.43-1.54-2.84.61-2.43l.6.28c1.83,1.73,2.55,4.77,5.6,5.15.32-.22.95-.15.96-.66-.43-1.44-2.3-1.36-2.47-2.9.8,0,1.51.85,2.42.31.17-.36.42-.76.14-1.25-2.52-1.68-5.62-1.94-7.84-3.63-1.77-.45-2.65-2.03-3.64-3.37.1-.54.62-.23.89-.03,1.78.75,3.76,2.32,5.77,2.08.29-.31-.14-.65-.15-.95-4.58-1.02-8.33-4.15-11.89-6.74,0-.3-.31-.58-.03-.89,1.66.69,3.51,1.11,4.96,1.78.27-.1.56-.11.55-.4l-.16-.44-7.12-4.39c-.01-1.4-.02-2.79-.54-4.2-.48-1.02-1.06-1.81-1.54-2.84.31-.51-.57-2.09.92-2.14,2.42,1.41,2.9,3.54,3.52,2.51,2.36.43,3.9,4.07,3.94,3.65-.1-.27,1.98,2.38,1.98,2.38,3.94,4.46,8.02,8.76,10.95,13.99,2.56,3.16,3.65,6.67,5.31,10.36-.22.48.45,1.23-.37,1.44-1.85.68-3.81-1.1-5.7-.81-12.57-3.69-22.56-11.53-29.5-21.69-1.1-1.1-1.66-2.89-2.22-4.39.43-2.36.15-4.76.2-7.08.13-.45.6-.82,1.08-.6.36.97,1.77,1.55,1.97.18Z"/>
  <path class="cls-4" d="M83.66,257.87c1.16.97,2.5,2.18,2.58,3.76-.54.7-.09,1.93-1.18,2.23-1.56.37-3.45-.13-4.35-1.5-.7-.54-.79-1.61-1.17-2.37-.25-2.31,2.74-2.61,4.13-2.12Z"/>
  <path class="cls-4" d="M61.85,165.97c.11,2.24,1.07,6.08-1.28,7.36-1.07.43-1.92-.53-2.13-1.39-.11-2.77-1.17-5.97,1.39-7.68.85,0,1.81.85,2.03,1.71Z"/>
  <path class="cls-4" d="M74.32,139.53c-1.49,1.81-1.92,5.76-5.12,5.12-.53,1.17-2.45,1.71-2.45,3.09.32.43.75.43,1.17.64-.32.43-1.39.85-1.17,1.6.64.43,1.39-.21,1.92.75.96,1.71-.21,3.41-.85,4.9-.43.43-.85.85-1.49.64-1.07-.85.21-2.99-1.49-3.41.85-3.84,1.81-7.46,3.41-10.87.43-.11.75-.64,1.07-.32,1.28-1.17,3.09-1.81,4.69-2.34l.32.21Z"/>
  <path class="cls-4" d="M56.3,132.12c-1.41,2.03-2.81,4.36-3.82,6.75-5.48,11.58-7.95,26.04-3.99,39.29-.07,1.66.39,3.38,1.79,4.21,1.99-.92,2.55-3.44,4.06-4.95,4.53-9.28,8.37-18.9,8.45-29.77.9-1.63-.55-3.67.5-5.31-.55-1.94-1.93-3.91-3.93-4.72-1.32.82-.87,2.38-1.49,3.54.8,2.6,2.28,5.1,2.34,7.89-.21.24-.44.17-.6.18-1.28-1.6-1.15-3.49-2.43-5.09-2.1.25-.19,2.27-.74,3.51-2.44,4.12,2.23,7.06,2.19,11.07-.04.83.46,1.71-.18,2.42l-.52.1c-.6-1.55-.63-3.59-1.81-4.67-3.22,3.7,1.43,7.78-.11,11.7-.9.04-.64-.72-.96-1.16-.43-1.11-.2-2.48-.84-3.36-1.63.68-.38,2.96-.99,4.43-.33,2.58-.66,5.16-1.6,7.47-.3.01-.53-.05-.69-.19.11-2.5,1.48-5.28.46-7.65-.88.65-1.02,2.24-1.98,2.81-.56-.65.09-1.36.21-1.97.74-1.92,2.01-3.8,2.74-5.72-.42-.81-.97.12-1.35.22-1.54.9-1.76,2.58-3.08,3.54-.47-2.02,1.41-3.61,2.39-5.32,1.73-1.59,3.97-3.74,3.47-6.21-.24-.37-.77-.27-.99-.18-.85,1.25-1.6,2.87-2.62,3.67-1.58-1.58.69-2.98,1.22-4.36,1.31-2.55,3.81-5.47,1.94-8.17-.74.34-1.55.75-1.81,1.52-.13.31-.04.68-.49.7-1-.33-.14-1.43-.1-2.11,1.11-2.01,3.6-3.64,3.86-6,.72-.64,1.67-1.36,1.93-2.28,1-1.11,1.07-2.77,2.62-3.67-.14-1.43-1.03-2.52-1.47-3.93-.9.19-1.07,1.18-1.58,1.74Z"/>
  <polyline class="cls-1" points="81.6 87.01 81.6 253.98 177.08 312.62 275.85 253.16 275.85 87.01"/>
  <path class="cls-4" d="M80.4,135.15c.21,13.43-4.05,26.01-12.26,36.46-1.07,1.07-2.13,2.45-3.52,2.77-.53-.96-.11-1.81-.43-2.88.32-4.69-.75-10.45.43-15.25,1.28.75.53,2.45.64,3.84-.32.96-.21,2.45,0,3.63l-.43,6.5c.11.32.43.75.85.75.96-1.71.11-4.69,2.88-5.12.32.11.75.42,1.17.11,1.07-1.6,0-3.84.32-5.65-.11-.96-.43-2.88.32-3.84.96.75.43,2.67,1.92,2.99,1.17-1.28-.11-2.88-.21-4.37.11-1.92-1.81-3.94-.21-5.54,1.17-.53,1.07.85,1.39,1.39.32,1.07.32,2.45,1.6,2.88.43-.53.64-1.49.32-2.24-1.49-3.95-1.17-8.85,1.17-12.26.21-.53.11-1.17.11-1.71.96-1.28,2.45-1.28,3.31-2.56l.64.11Z"/>
  <path class="cls-4" d="M47.78,111.24c-.14.3.28,0-1.55,5.96,1.21.13.34,1.52-1.14,3.5-2.16,1.32-3.19,2.56-5.12,4.4v.6c2.94-.43,4.85-3.63,7.86-4.28.25,1.43-1.39,2.66-1.51,4.17-2.92,1.33-6.44,2.82-8.04,5.87.92.89,1.5-.48,2.17-.71.82-.54,1.63-1.69,2.7-1.1.46.29.01.75.02,1.21-3.68.89-5.8,4.77-8.71,6.86-.15.3.08.53.31.75,2.56-.04,2.95-3.82,5.6-3.49.75-.31,1.48-1.83,2.32-.87-3.15,1.26-2.78,5.17-5.99,6.81-.27,1.66-2.06,2.9-2.03,4.56h.75c1.34-.94,1.31-2.75,2.81-3.38,1.78-1.54,2.11-4.49,4.66-5.43.07-.23.37-.23.52-.24.63,1.35-.4,3.32.97,3.9,1.25-1.91.98-4.39,1.47-6.58-.39-.82-.48-1.8-.12-2.79.3-.31.74-.77,1.27-.55.78,1.19-.78,2.95.59,3.53,1.53-2.97-.51-7.91,3.23-9.33l.15.15-.76,4.31c.75-.01.89-.92,1.33-1.38.5-1.89,1.06-4.01.73-6.12.72-2.12.6-4.91,3.3-5.71.28-1.36,1.94-1.39,2.37-2.75.53-.09.76.44,1.07.73-.36,1.14.27,2.79-1.07,3.41v.3c.16,0,.23.07.39.22-.92,3.56-1.76,7.19-3.82,10.39-1.63,4.6-4.5,8.44-8.13,14.09-4.5,5.58-9.39,11.09-15.51,14.36-2.06-6,.17-12.44,1.5-18.27,1.19-.77.27-1.96.78-2.95,1.37-3.87,3.07-7.41,5.01-11.32.23-1.05.36-1.29.72-1.82.99-1.59.99-1.52,2.54-3.38.92-.92.55-.62,1.52-1.44,2.42-2.53,6.62-7.89,4.84-6.2Z"/>
  <path class="cls-1" d="M23.98,151.72l303.52.17s1.45,6.98,3.35,10.99c1.89,4.01,3.64,7.74,5.39,9.89,1.75,2.15,7.29,10.75,8.89,14.05,1.6,3.3,1.61,5.73,1.61,5.73l-339.41.43s9.19-10.46,12.39-19.92c0,0,3.5-12.76,3.94-14.91.44-2.15.32-6.43.32-6.43Z"/>
  <g>
    <polygon class="cls-2" points="87.34 91.46 270.11 91.46 270.11 249.44 177.18 305.98 87.34 250.22 87.34 91.46"/>
    <polygon class="cls-3" points="90.79 134.83 266.67 134.83 266.67 171.23 232.17 171.23 232.17 268.06 198.09 288.95 198.09 172 155.49 172 155.49 288.19 121.41 266.51 121.41 172 90.76 172.02 90.79 134.83"/>
  </g>
  <g>
    <path class="cls-5" d="M36.16,162.04c2.06,0,4.82-.63,5.26-2.94h5.15v26.18h-6.1v-19.42h-4.3v-3.82Z"/>
    <path class="cls-5" d="M58.52,176.01v3.27c0,1.25.22,2.32,1.62,2.32s1.58-1.07,1.58-2.32v-6.21c-1.29,1.07-2.46,1.73-4.27,1.73-2.79,0-5.04-1.73-5.04-5.07v-4.37c0-5,3.97-6.77,7.32-6.77,5.11,0,8.09,2.21,8.09,7.39v13.5c0,4.41-4.01,6.32-7.94,6.32-4.82,0-7.46-2.02-7.46-6.51v-3.27h6.1ZM61.72,168.54v-4.63c0-.62-.51-1.14-1.65-1.14-1.03,0-1.54.51-1.54,1.21v4.71c0,.77.4,1.32,1.43,1.32,1.14,0,1.76-.62,1.76-1.47Z"/>
    <path class="cls-5" d="M300.9,178.65c0,5-3.02,7.13-7.72,7.13s-7.76-2.13-7.76-7.13v-12.43c0-6.18,4.41-7.65,7.83-7.65,4.15,0,7.65,1.47,7.65,7.65v12.43ZM294.8,164.54c0-1.29-.7-1.76-1.65-1.76s-1.62.48-1.62,1.76v15.3c0,1.29.66,1.77,1.62,1.77s1.65-.48,1.65-1.77v-15.3Z"/>
    <path class="cls-5" d="M303.95,175.09l7.13-15.99h7.39v15.99h2.02v4.19h-2.02v5.99h-5.7v-5.99h-8.82v-4.19ZM308,175.09h4.78v-10.55h-.07l-4.71,10.55Z"/>
  </g>
  <polyline class="cls-5" points="71.28 194.55 71.44 196.15 71.28 197.74 70.48 199.18 69.84 200.78 70.64 200.78 71.44 199.18 71.76 201.57 71.6 203.01 71.92 204.93 72.4 204.29 72.72 202.69 72.72 200.46 72.88 199.02 73.35 198.22 74.15 199.18 73.67 197.1 73.83 194.55"/>
  <path class="cls-4" d="M74.99,74.74c-.58.72-1.69.79-2.54,1.12-2.08.27-3.64,1.45-5.2,2.9-.13.26.13.39.33.59,1.05.12,1.89-1.12,2.8-.34-.84,2.29-3.45,1.65-4.74,3.35-1.89,1.12-3.71,2.17-5.39,3.75v.52c2.55-.34,4.23-3.09,6.83-3.63.2,1.24-1.23,2.29-1.35,3.6-2.54,1.12-5.6,2.38-7.02,5,.79.78,1.3-.4,1.89-.6.72-.46,1.43-1.44,2.34-.92.39.26,0,.65,0,1.04-3.19.74-5.07,4.07-7.6,5.85-.13.26.07.46.26.65,2.22-.01,2.59-3.27,4.88-2.96.65-.26,1.3-1.57,2.02-.73-2.73,1.06-2.46,4.45-5.25,5.83-.25,1.44-1.81,2.49-1.81,3.92h.65c1.17-.79,1.16-2.36,2.46-2.89,1.56-1.31,1.87-3.86,4.09-4.65.06-.2.33-.2.46-.2.53,1.17-.38,2.87.8,3.39,1.1-1.64.89-3.79,1.34-5.68-.33-.72-.4-1.56-.08-2.41.26-.26.65-.65,1.11-.46.66,1.04-.7,2.55.47,3.07,1.36-2.55-.36-6.85,2.89-8.04l.13.13-.7,3.72c.65,0,.78-.79,1.17-1.18.45-1.63.96-3.46.69-5.29.64-1.83.56-4.24,2.91-4.91.25-1.18,1.69-1.18,2.08-2.36.46-.07.65.39.92.65-.32.98.21,2.41-.96,2.94v.26c.13,0,.2.07.33.19-.83,3.07-1.6,6.21-3.41,8.95-1.61,4.38-4.59,8.18-7.18,12.11-3.95,4.78-8.23,9.5-13.57,12.27-1.72-5.21.27-10.77,1.48-15.8,1.04-.66.25-1.7.7-2.55,1.22-3.33,2.73-6.38,4.45-9.74.21-.91.32-1.11.64-1.57.87-1.37.87-1.3,2.23-2.9.8-.79.48-.53,1.33-1.23,2.12-2.17,4.09-4.26,6.63-5.51,1.63.06,4.56-1.59,5.48.75Z"/>
  <path class="cls-4" d="M53.15,115.9c.21,1.92-1.17,2.98-2.56,4.05-1.39.32-1.49-.96-2.24-1.71-.75-1.49,1.28-1.92,1.81-2.88.96-.21,2.24-.32,2.98.53Z"/>
  <path class="cls-4" d="M72.54,147.3c-.32.43-.32,1.07-.96,1.38-.96.21-1.71-.43-1.71-1.38.32-.53.64-1.28,1.39-1.49,1.17-.43.85.96,1.28,1.49Z"/>
  <g>
    <path class="cls-4" d="M119.71,100.17h10.3l7.18,20.08h.08l7.18-20.08h10.3l-12.54,28.16h-9.94l-12.54-28.16Z"/>
    <path class="cls-4" d="M183.49,108.41c-.28-1.93-1.81-3.27-6.11-3.27-3.16,0-4.89.91-4.89,2.76,0,.95.67,1.5,2.09,1.73,2.37.4,9.59,1.46,12.35,1.93,5.25.91,8.4,3.04,8.4,8.01,0,9.55-12.39,9.63-16.25,9.63-9.55,0-16.45-1.7-17-9.55h11.12c.24,2.13,1.42,3.47,6.31,3.47,2.37,0,4.93-.55,4.93-2.96,0-1.5-1.18-2.01-4.46-2.52l-9.39-1.42c-5.8-.87-8.05-3.79-8.05-7.97,0-3.71,2.29-8.95,14.63-8.95,10.22,0,16.37,2.45,16.96,9.11h-10.65Z"/>
    <path class="cls-4" d="M206.96,100.17h9.39v11.04l11.76-11.04h12.5l-12.74,11.08,13.73,17.08h-12.54l-8.72-11.24-3.99,3.31v7.93h-9.39v-28.16Z"/>
  </g>
  <line class="cls-1" x1="79.97" y1="86.18" x2="118.72" y2="86.29"/>
  <line class="cls-1" x1="239.15" y1="86.16" x2="277.53" y2="86.1"/>
</svg>